# This file uses centimeters as units for non-parametric coordinates.

mtllib BellossomLLeaf.mtl
g default
v 13.507500 -5.582299 0.318600
v 6.020200 -6.489101 -10.308900
v -0.046900 0.103600 -4.350300
v 2.175200 0.355099 0.259400
v 17.888000 -15.588500 0.338100
v 9.765100 -16.623100 -11.481100
v 17.819201 -25.718900 0.320300
v 13.114401 -26.254400 -7.791500
v 19.268200 -33.629400 0.401800
v 8.116301 -5.905299 0.272500
v -0.071800 0.102700 0.244500
v 11.858000 -16.039100 0.287900
v 13.073999 -26.255700 0.284400
v -0.107400 0.100598 4.839200
v 5.229100 -6.496101 10.853700
v 9.610201 -16.630901 12.056600
v 13.008200 -26.259800 8.360100
vt 0.580600 0.229900
vt 0.657300 0.243000
vt 0.628800 0.303700
vt 0.597000 0.300900
vt 0.574300 0.161800
vt 0.659300 0.175600
vt 0.574600 0.108800
vt 0.631600 0.116100
vt 0.572000 0.062200
vt 0.588500 0.247100
vt 0.600200 0.307500
vt 0.583200 0.180700
vt 0.581500 0.122700
vt 0.571700 0.311300
vt 0.526800 0.262600
vt 0.513100 0.194900
vt 0.531300 0.129300
vn 0.467995 0.789491 -0.397096
vn 0.467995 0.789491 -0.397096
vn 0.467995 0.789491 -0.397096
vn 0.448821 0.854040 -0.263012
vn 0.448821 0.854040 -0.263012
vn 0.448821 0.854040 -0.263012
vn 0.758002 0.330701 -0.562201
vn 0.758002 0.330701 -0.562201
vn 0.758002 0.330701 -0.562201
vn 0.759330 0.344514 -0.552022
vn 0.759330 0.344514 -0.552022
vn 0.759330 0.344514 -0.552022
vn 0.824316 -0.004600 -0.566111
vn 0.824316 -0.004600 -0.566111
vn 0.824316 -0.004600 -0.566111
vn 0.857228 0.105003 -0.504117
vn 0.857228 0.105003 -0.504117
vn 0.857228 0.105003 -0.504117
vn 0.850807 0.150701 -0.503404
vn 0.850807 0.150701 -0.503404
vn 0.850807 0.150701 -0.503404
vn -0.591612 -0.806216 -0.003400
vn -0.591612 -0.806216 -0.003400
vn -0.591612 -0.806216 -0.003400
vn -0.644519 -0.745722 0.168805
vn -0.644519 -0.745722 0.168805
vn -0.644519 -0.745722 0.168805
vn -0.915616 -0.359206 0.180603
vn -0.915616 -0.359206 0.180603
vn -0.915616 -0.359206 0.180603
vn -0.919106 -0.339002 0.200801
vn -0.919106 -0.339002 0.200801
vn -0.919106 -0.339002 0.200801
vn -0.943930 -0.330111 -0.004800
vn -0.943930 -0.330111 -0.004800
vn -0.943930 -0.330111 -0.004800
vn -0.976861 -0.116295 0.179493
vn -0.976861 -0.116295 0.179493
vn -0.976861 -0.116295 0.179493
vn -0.765693 -0.643194 -0.003900
vn -0.765693 -0.643194 -0.003900
vn -0.765693 -0.643194 -0.003900
vn -0.111595 0.993754 -0.000400
vn -0.111595 0.993754 -0.000400
vn -0.111595 0.993754 -0.000400
vn 0.445788 0.853577 0.269593
vn 0.445788 0.853577 0.269593
vn 0.445788 0.853577 0.269593
vn 0.465883 0.771672 0.432984
vn 0.465883 0.771672 0.432984
vn 0.465883 0.771672 0.432984
vn 0.737487 0.384693 0.555090
vn 0.737487 0.384693 0.555090
vn 0.737487 0.384693 0.555090
vn 0.730889 0.321195 0.602191
vn 0.730889 0.321195 0.602191
vn 0.730889 0.321195 0.602191
vn 0.850559 0.102095 0.515875
vn 0.850559 0.102095 0.515875
vn 0.850559 0.102095 0.515875
vn 0.817000 -0.006600 0.576600
vn 0.817000 -0.006600 0.576600
vn 0.817000 -0.006600 0.576600
vn 0.842317 0.159603 0.514810
vn 0.842317 0.159603 0.514810
vn 0.842317 0.159603 0.514810
vn -0.651725 -0.726328 -0.218408
vn -0.651725 -0.726328 -0.218408
vn -0.651725 -0.726328 -0.218408
vn -0.591608 -0.806211 -0.005000
vn -0.591608 -0.806211 -0.005000
vn -0.591608 -0.806211 -0.005000
vn -0.904322 -0.334308 -0.265406
vn -0.904322 -0.334308 -0.265406
vn -0.904322 -0.334308 -0.265406
vn -0.892540 -0.408518 -0.191009
vn -0.892540 -0.408518 -0.191009
vn -0.892540 -0.408518 -0.191009
vn -0.974526 -0.115903 -0.192005
vn -0.974526 -0.115903 -0.192005
vn -0.974526 -0.115903 -0.192005
vn -0.943912 -0.330104 -0.007900
vn -0.943912 -0.330104 -0.007900
vn -0.943912 -0.330104 -0.007900
vn -0.765592 -0.643293 -0.006600
vn -0.765592 -0.643293 -0.006600
vn -0.765592 -0.643293 -0.006600
vn -0.111595 0.993754 -0.000400
vn -0.111595 0.993754 -0.000400
vn -0.111595 0.993754 -0.000400
s off
g MLLeaf
usemtl None
f 1/1/1 2/2/2 3/3/3
f 3/3/4 4/4/5 1/1/6
f 2/2/7 1/1/8 5/5/9
f 5/5/10 6/6/11 2/2/12
f 6/6/13 5/5/14 7/7/15
f 7/7/16 8/8/17 6/6/18
f 8/8/19 7/7/20 9/9/21
f 10/10/22 11/11/23 3/3/24
f 3/3/25 2/2/26 10/10/27
f 2/2/28 6/6/29 12/12/30
f 12/12/31 10/10/32 2/2/33
f 6/6/34 8/8/35 13/13/36
f 13/13/37 12/12/38 6/6/39
f 8/8/40 9/9/41 13/13/42
f 11/11/43 4/4/44 3/3/45
f 1/1/46 4/4/47 14/14/48
f 14/14/49 15/15/50 1/1/51
f 15/15/52 16/16/53 5/5/54
f 5/5/55 1/1/56 15/15/57
f 16/16/58 17/17/59 7/7/60
f 7/7/61 5/5/62 16/16/63
f 17/17/64 9/9/65 7/7/66
f 10/10/67 15/15/68 14/14/69
f 14/14/70 11/11/71 10/10/72
f 15/15/73 10/10/74 12/12/75
f 12/12/76 16/16/77 15/15/78
f 16/16/79 12/12/80 13/13/81
f 13/13/82 17/17/83 16/16/84
f 17/17/85 13/13/86 9/9/87
f 11/11/88 14/14/89 4/4/90
