# This file uses centimeters as units for non-parametric coordinates.

mtllib BellossomBRLeaf.mtl
g default
v -8.718800 -4.487500 -12.191900
v -0.988400 0.627199 -1.978400
v 3.890200 -0.895300 -2.339100
v 3.448000 -8.024500 -11.471100
v 0.485900 -18.565400 -14.077400
v -12.956800 -14.568600 -14.760599
v -4.750300 -26.339200 -11.764900
v -14.080400 -23.564500 -12.423000
v -12.907801 -33.154200 -6.019900
v -5.355700 -5.537600 -6.153300
v 0.068000 0.184301 -0.028800
v -9.307100 -15.798701 -8.165199
v -11.469999 -24.440900 -7.707300
v -14.145201 -3.056601 -0.809200
v -3.749300 1.261900 2.290700
v -19.081699 -13.039900 -2.218900
v -18.177700 -22.547600 -3.627600
vt 0.075100 0.264000
vt 0.152800 0.256100
vt 0.148900 0.223300
vt 0.148900 0.223300
vt 0.078000 0.183400
vt 0.075100 0.264000
vt 0.078000 0.183400
vt 0.058400 0.134100
vt 0.056000 0.223800
vt 0.056000 0.223800
vt 0.075100 0.264000
vt 0.078000 0.183400
vt 0.058400 0.134100
vt 0.077500 0.112100
vt 0.074400 0.174300
vt 0.074400 0.174300
vt 0.056000 0.223800
vt 0.058400 0.134100
vt 0.077500 0.112100
vt 0.123900 0.109600
vt 0.074400 0.174300
vt 0.121300 0.240500
vt 0.078000 0.183400
vt 0.148900 0.223300
vt 0.148900 0.223300
vt 0.167700 0.248100
vt 0.121300 0.240500
vt 0.078000 0.183400
vt 0.121300 0.240500
vt 0.106500 0.197700
vt 0.106500 0.197700
vt 0.058400 0.134100
vt 0.078000 0.183400
vt 0.058400 0.134100
vt 0.106500 0.197700
vt 0.110500 0.155700
vt 0.110500 0.155700
vt 0.077500 0.112100
vt 0.058400 0.134100
vt 0.077500 0.112100
vt 0.110500 0.155700
vt 0.123900 0.109600
vt 0.167700 0.248100
vt 0.148900 0.223300
vt 0.152800 0.256100
vt 0.075100 0.264000
vt 0.164700 0.297500
vt 0.186500 0.272800
vt 0.186500 0.272800
vt 0.152800 0.256100
vt 0.075100 0.264000
vt 0.164700 0.297500
vt 0.075100 0.264000
vt 0.056000 0.223800
vt 0.056000 0.223800
vt 0.154800 0.261100
vt 0.164700 0.297500
vt 0.154800 0.261100
vt 0.056000 0.223800
vt 0.074400 0.174300
vt 0.074400 0.174300
vt 0.143600 0.199200
vt 0.154800 0.261100
vt 0.143600 0.199200
vt 0.074400 0.174300
vt 0.123900 0.109600
vt 0.121300 0.240500
vt 0.167700 0.248100
vt 0.186500 0.272800
vt 0.186500 0.272800
vt 0.164700 0.297500
vt 0.121300 0.240500
vt 0.164700 0.297500
vt 0.154800 0.261100
vt 0.106500 0.197700
vt 0.106500 0.197700
vt 0.121300 0.240500
vt 0.164700 0.297500
vt 0.154800 0.261100
vt 0.143600 0.199200
vt 0.110500 0.155700
vt 0.110500 0.155700
vt 0.106500 0.197700
vt 0.154800 0.261100
vt 0.143600 0.199200
vt 0.123900 0.109600
vt 0.110500 0.155700
vt 0.167700 0.248100
vt 0.152800 0.256100
vt 0.186500 0.272800
vn 0.208906 0.801921 -0.559715
vn 0.208906 0.801921 -0.559715
vn 0.208906 0.801921 -0.559715
vn 0.255507 0.756022 -0.602617
vn 0.255507 0.756022 -0.602617
vn 0.255507 0.756022 -0.602617
vn 0.111496 0.208892 -0.971562
vn 0.111496 0.208892 -0.971562
vn 0.111496 0.208892 -0.971562
vn 0.115600 0.199299 -0.973096
vn 0.115600 0.199299 -0.973096
vn 0.115600 0.199299 -0.973096
vn -0.014400 -0.276198 -0.960993
vn -0.014400 -0.276198 -0.960993
vn -0.014400 -0.276198 -0.960993
vn -0.024700 -0.248504 -0.968316
vn -0.024700 -0.248504 -0.968316
vn -0.024700 -0.248504 -0.968316
vn -0.108997 -0.561187 -0.820481
vn -0.108997 -0.561187 -0.820481
vn -0.108997 -0.561187 -0.820481
vn 0.143903 -0.783414 0.604611
vn 0.143903 -0.783414 0.604611
vn 0.143903 -0.783414 0.604611
vn 0.143998 -0.783489 0.604491
vn 0.143998 -0.783489 0.604491
vn 0.143998 -0.783489 0.604491
vn 0.419084 -0.327388 0.846868
vn 0.419084 -0.327388 0.846868
vn 0.419084 -0.327388 0.846868
vn 0.418911 -0.327209 0.847023
vn 0.418911 -0.327209 0.847023
vn 0.418911 -0.327209 0.847023
vn 0.498725 -0.079104 0.863143
vn 0.498725 -0.079104 0.863143
vn 0.498725 -0.079104 0.863143
vn 0.498796 -0.079199 0.863093
vn 0.498796 -0.079199 0.863093
vn 0.498796 -0.079199 0.863093
vn 0.530989 0.075798 0.843982
vn 0.530989 0.075798 0.843982
vn 0.530989 0.075798 0.843982
vn 0.301102 0.952107 0.053200
vn 0.301102 0.952107 0.053200
vn 0.301102 0.952107 0.053200
vn -0.303291 0.916772 -0.259892
vn -0.303291 0.916772 -0.259892
vn -0.303291 0.916772 -0.259892
vn -0.233008 0.928630 -0.288709
vn -0.233008 0.928630 -0.288709
vn -0.233008 0.928630 -0.288709
vn -0.787481 0.440789 -0.430789
vn -0.787481 0.440789 -0.430789
vn -0.787481 0.440789 -0.430789
vn -0.780799 0.447599 -0.435899
vn -0.780799 0.447599 -0.435899
vn -0.780799 0.447599 -0.435899
vn -0.898645 -0.001700 -0.438673
vn -0.898645 -0.001700 -0.438673
vn -0.898645 -0.001700 -0.438673
vn -0.907259 -0.024099 -0.419881
vn -0.907259 -0.024099 -0.419881
vn -0.907259 -0.024099 -0.419881
vn -0.864610 -0.347804 -0.362604
vn -0.864610 -0.347804 -0.362604
vn -0.864610 -0.347804 -0.362604
vn 0.145500 -0.783899 0.603599
vn 0.145500 -0.783899 0.603599
vn 0.145500 -0.783899 0.603599
vn 0.145704 -0.783924 0.603518
vn 0.145704 -0.783924 0.603518
vn 0.145704 -0.783924 0.603518
vn 0.421689 -0.327892 0.845379
vn 0.421689 -0.327892 0.845379
vn 0.421689 -0.327892 0.845379
vn 0.421415 -0.328112 0.845430
vn 0.421415 -0.328112 0.845430
vn 0.421415 -0.328112 0.845430
vn 0.501404 -0.080001 0.861507
vn 0.501404 -0.080001 0.861507
vn 0.501404 -0.080001 0.861507
vn 0.501483 -0.079897 0.861471
vn 0.501483 -0.079897 0.861471
vn 0.501483 -0.079897 0.861471
vn 0.533598 0.075100 0.842397
vn 0.533598 0.075100 0.842397
vn 0.533598 0.075100 0.842397
vn 0.301102 0.952107 0.053200
vn 0.301102 0.952107 0.053200
vn 0.301102 0.952107 0.053200
s off
g BRLeaf
usemtl None
f 1/1/1 2/2/2 3/3/3
f 3/4/4 4/5/5 1/6/6
f 4/7/7 5/8/8 6/9/9
f 6/10/10 1/11/11 4/12/12
f 5/13/13 7/14/14 8/15/15
f 8/16/16 6/17/17 5/18/18
f 7/19/19 9/20/20 8/21/21
f 10/22/22 4/23/23 3/24/24
f 3/25/25 11/26/26 10/27/27
f 4/28/28 10/29/29 12/30/30
f 12/31/31 5/32/32 4/33/33
f 5/34/34 12/35/35 13/36/36
f 13/37/37 7/38/38 5/39/39
f 7/40/40 13/41/41 9/42/42
f 11/43/43 3/44/44 2/45/45
f 1/46/46 14/47/47 15/48/48
f 15/49/49 2/50/50 1/51/51
f 14/52/52 1/53/53 6/54/54
f 6/55/55 16/56/56 14/57/57
f 16/58/58 6/59/59 8/60/60
f 8/61/61 17/62/62 16/63/63
f 17/64/64 8/65/65 9/66/66
f 10/67/67 11/68/68 15/69/69
f 15/70/70 14/71/71 10/72/72
f 14/73/73 16/74/74 12/75/75
f 12/76/76 10/77/77 14/78/78
f 16/79/79 17/80/80 13/81/81
f 13/82/82 12/83/83 16/84/84
f 17/85/85 9/86/86 13/87/87
f 11/88/88 2/89/89 15/90/90
