# This file uses centimeters as units for non-parametric coordinates.

mtllib BellossomFRLeaf.mtl
g default
v -10.646600 -3.260100 9.572100
v -1.453900 0.877599 1.702800
v -3.122900 1.489599 -3.102400
v -13.256501 -2.104399 -2.793700
v -20.544899 -10.800400 -0.745500
v -17.521901 -12.042799 12.909700
v -21.175801 -20.213700 1.301500
v -19.240500 -21.008000 10.830700
v -17.931799 -31.130400 5.338500
v -6.217000 -5.139799 4.500300
v -0.065400 0.171201 0.064000
v -12.717200 -14.175600 7.369100
v -15.803900 -22.530000 6.869200
v 0.841100 -8.184700 11.772100
v 2.998700 -1.150599 3.222500
v -4.865100 -17.563200 15.455099
v -10.416300 -24.854300 12.418301
vt 0.372300 0.273100
vt 0.309100 0.254700
vt 0.272200 0.267100
vt 0.272200 0.267100
vt 0.276700 0.294500
vt 0.372300 0.273100
vt 0.276700 0.294500
vt 0.294200 0.276800
vt 0.399700 0.252800
vt 0.399700 0.252800
vt 0.372300 0.273100
vt 0.276700 0.294500
vt 0.294200 0.276800
vt 0.310300 0.222500
vt 0.383900 0.207000
vt 0.383900 0.207000
vt 0.399700 0.252800
vt 0.294200 0.276800
vt 0.310300 0.222500
vt 0.340900 0.139900
vt 0.383900 0.207000
vt 0.331900 0.240900
vt 0.276700 0.294500
vt 0.272200 0.267100
vt 0.272200 0.267100
vt 0.296100 0.243900
vt 0.331900 0.240900
vt 0.276700 0.294500
vt 0.331900 0.240900
vt 0.355600 0.217200
vt 0.355600 0.217200
vt 0.294200 0.276800
vt 0.276700 0.294500
vt 0.294200 0.276800
vt 0.355600 0.217200
vt 0.352400 0.181600
vt 0.352400 0.181600
vt 0.310300 0.222500
vt 0.294200 0.276800
vt 0.310300 0.222500
vt 0.352400 0.181600
vt 0.340900 0.139900
vt 0.296100 0.243900
vt 0.272200 0.267100
vt 0.309100 0.254700
vt 0.372300 0.273100
vt 0.386900 0.187200
vt 0.320000 0.220500
vt 0.320000 0.220500
vt 0.309100 0.254700
vt 0.372300 0.273100
vt 0.386900 0.187200
vt 0.372300 0.273100
vt 0.399700 0.252800
vt 0.399700 0.252800
vt 0.416700 0.157500
vt 0.386900 0.187200
vt 0.416700 0.157500
vt 0.399700 0.252800
vt 0.383900 0.207000
vt 0.383900 0.207000
vt 0.394300 0.140600
vt 0.416700 0.157500
vt 0.394300 0.140600
vt 0.383900 0.207000
vt 0.340900 0.139900
vt 0.331900 0.240900
vt 0.296100 0.243900
vt 0.320000 0.220500
vt 0.320000 0.220500
vt 0.386900 0.187200
vt 0.331900 0.240900
vt 0.386900 0.187200
vt 0.416700 0.157500
vt 0.355600 0.217200
vt 0.355600 0.217200
vt 0.331900 0.240900
vt 0.386900 0.187200
vt 0.416700 0.157500
vt 0.394300 0.140600
vt 0.352400 0.181600
vt 0.352400 0.181600
vt 0.355600 0.217200
vt 0.416700 0.157500
vt 0.394300 0.140600
vt 0.340900 0.139900
vt 0.352400 0.181600
vt 0.296100 0.243900
vt 0.309100 0.254700
vt 0.320000 0.220500
vn -0.248800 0.946198 0.206900
vn -0.248800 0.946198 0.206900
vn -0.248800 0.946198 0.206900
vn -0.326008 0.932423 0.155904
vn -0.326008 0.932423 0.155904
vn -0.326008 0.932423 0.155904
vn -0.721692 0.656492 0.219497
vn -0.721692 0.656492 0.219497
vn -0.721692 0.656492 0.219497
vn -0.727885 0.651287 0.214496
vn -0.727885 0.651287 0.214496
vn -0.727885 0.651287 0.214496
vn -0.972211 0.110101 0.206602
vn -0.972211 0.110101 0.206602
vn -0.972211 0.110101 0.206602
vn -0.965116 0.132702 0.225704
vn -0.965116 0.132702 0.225704
vn -0.965116 0.132702 0.225704
vn -0.959442 -0.219810 0.176508
vn -0.959442 -0.219810 0.176508
vn -0.959442 -0.219810 0.176508
vn 0.258411 -0.777732 -0.573024
vn 0.258411 -0.777732 -0.573024
vn 0.258411 -0.777732 -0.573024
vn 0.258209 -0.777728 -0.573121
vn 0.258209 -0.777728 -0.573121
vn 0.258209 -0.777728 -0.573121
vn 0.470389 -0.555987 -0.685283
vn 0.470389 -0.555987 -0.685283
vn 0.470389 -0.555987 -0.685283
vn 0.470603 -0.555903 -0.685204
vn 0.470603 -0.555903 -0.685204
vn 0.470603 -0.555903 -0.685204
vn 0.661823 -0.201307 -0.722126
vn 0.661823 -0.201307 -0.722126
vn 0.661823 -0.201307 -0.722126
vn 0.661706 -0.201402 -0.722207
vn 0.661706 -0.201402 -0.722207
vn 0.661706 -0.201402 -0.722207
vn 0.708273 -0.049898 -0.704173
vn 0.708273 -0.049898 -0.704173
vn 0.708273 -0.049898 -0.704173
vn 0.423313 0.905429 -0.031701
vn 0.423313 0.905429 -0.031701
vn 0.423313 0.905429 -0.031701
vn 0.189906 0.734123 0.651920
vn 0.189906 0.734123 0.651920
vn 0.189906 0.734123 0.651920
vn 0.155495 0.787875 0.595881
vn 0.155495 0.787875 0.595881
vn 0.155495 0.787875 0.595881
vn -0.019901 0.368712 0.929331
vn -0.019901 0.368712 0.929331
vn -0.019901 0.368712 0.929331
vn -0.021800 0.376899 0.925998
vn -0.021800 0.376899 0.925998
vn -0.021800 0.376899 0.925998
vn -0.264802 -0.169401 0.949307
vn -0.264802 -0.169401 0.949307
vn -0.264802 -0.169401 0.949307
vn -0.256697 -0.198498 0.945889
vn -0.256697 -0.198498 0.945889
vn -0.256697 -0.198498 0.945889
vn -0.353993 -0.480990 0.802083
vn -0.353993 -0.480990 0.802083
vn -0.353993 -0.480990 0.802083
vn 0.256790 -0.777270 -0.574378
vn 0.256790 -0.777270 -0.574378
vn 0.256790 -0.777270 -0.574378
vn 0.256707 -0.777122 -0.574616
vn 0.256707 -0.777122 -0.574616
vn 0.256707 -0.777122 -0.574616
vn 0.468492 -0.554990 -0.687388
vn 0.468492 -0.554990 -0.687388
vn 0.468492 -0.554990 -0.687388
vn 0.468504 -0.555205 -0.687206
vn 0.468504 -0.555205 -0.687206
vn 0.468504 -0.555205 -0.687206
vn 0.659591 -0.200497 -0.724390
vn 0.659591 -0.200497 -0.724390
vn 0.659591 -0.200497 -0.724390
vn 0.659617 -0.200305 -0.724419
vn 0.659617 -0.200305 -0.724419
vn 0.659617 -0.200305 -0.724419
vn 0.706307 -0.049001 -0.706207
vn 0.706307 -0.049001 -0.706207
vn 0.706307 -0.049001 -0.706207
vn 0.423313 0.905429 -0.031701
vn 0.423313 0.905429 -0.031701
vn 0.423313 0.905429 -0.031701
s off
g FRLeaf
usemtl None
f 1/1/1 2/2/2 3/3/3
f 3/4/4 4/5/5 1/6/6
f 4/7/7 5/8/8 6/9/9
f 6/10/10 1/11/11 4/12/12
f 5/13/13 7/14/14 8/15/15
f 8/16/16 6/17/17 5/18/18
f 7/19/19 9/20/20 8/21/21
f 10/22/22 4/23/23 3/24/24
f 3/25/25 11/26/26 10/27/27
f 4/28/28 10/29/29 12/30/30
f 12/31/31 5/32/32 4/33/33
f 5/34/34 12/35/35 13/36/36
f 13/37/37 7/38/38 5/39/39
f 7/40/40 13/41/41 9/42/42
f 11/43/43 3/44/44 2/45/45
f 1/46/46 14/47/47 15/48/48
f 15/49/49 2/50/50 1/51/51
f 14/52/52 1/53/53 6/54/54
f 6/55/55 16/56/56 14/57/57
f 16/58/58 6/59/59 8/60/60
f 8/61/61 17/62/62 16/63/63
f 17/64/64 8/65/65 9/66/66
f 10/67/67 11/68/68 15/69/69
f 15/70/70 14/71/71 10/72/72
f 14/73/73 16/74/74 12/75/75
f 12/76/76 10/77/77 14/78/78
f 16/79/79 17/80/80 13/81/81
f 13/82/82 12/83/83 16/84/84
f 17/85/85 9/86/86 13/87/87
f 11/88/88 2/89/89 15/90/90
