# This file uses centimeters as units for non-parametric coordinates.

mtllib BellossomRArm.mtl
g default
v -8.844000 -9.027501 14.822301
v -13.256999 -8.671799 11.945901
v -9.248600 -4.809599 5.645200
v -6.576000 -5.060900 8.610700
v -10.470100 -3.943999 16.718501
v -7.724400 -1.470900 9.949800
v -10.397001 -1.219698 6.984400
v -14.254600 -3.588202 12.519299
v -0.217600 -0.876601 -2.409700
v 2.455100 -1.127798 0.555800
v 1.306700 2.462099 1.894900
v -1.365900 2.713400 -1.070600
v -13.126901 -7.595202 16.604800
vt 0.485100 0.516200
vt 0.540300 0.522100
vt 0.550700 0.532700
vt 0.550700 0.532700
vt 0.509000 0.532300
vt 0.485100 0.516200
vt 0.485400 0.575700
vt 0.509200 0.574300
vt 0.550900 0.574800
vt 0.550900 0.574800
vt 0.544500 0.576400
vt 0.485400 0.575700
vt 0.540300 0.522100
vt 0.544500 0.576400
vt 0.550900 0.574800
vt 0.550900 0.574800
vt 0.550700 0.532700
vt 0.540300 0.522100
vt 0.509000 0.532300
vt 0.509200 0.574300
vt 0.485400 0.575700
vt 0.485400 0.575700
vt 0.485100 0.516200
vt 0.509000 0.532300
vt 0.550700 0.532700
vt 0.532500 0.527000
vt 0.490700 0.526600
vt 0.490700 0.526600
vt 0.509000 0.532300
vt 0.550700 0.532700
vt 0.509200 0.574300
vt 0.490900 0.568700
vt 0.532700 0.569100
vt 0.532700 0.569100
vt 0.550900 0.574800
vt 0.509200 0.574300
vt 0.550900 0.574800
vt 0.532700 0.569100
vt 0.532500 0.527000
vt 0.532500 0.527000
vt 0.550700 0.532700
vt 0.550900 0.574800
vt 0.509000 0.532300
vt 0.490700 0.526600
vt 0.490900 0.568700
vt 0.490900 0.568700
vt 0.509200 0.574300
vt 0.509000 0.532300
vt 0.485100 0.516200
vt 0.507600 0.545700
vt 0.540300 0.522100
vt 0.544500 0.576400
vt 0.507600 0.545700
vt 0.485400 0.575700
vt 0.540300 0.522100
vt 0.507600 0.545700
vt 0.544500 0.576400
vt 0.485400 0.575700
vt 0.507600 0.545700
vt 0.485100 0.516200
vn 0.199906 -0.886926 -0.416412
vn 0.199906 -0.886926 -0.416412
vn 0.199906 -0.886926 -0.416412
vn 0.366904 -0.839009 -0.401804
vn 0.366904 -0.839009 -0.401804
vn 0.366904 -0.839009 -0.401804
vn -0.202604 0.943421 0.262506
vn -0.202604 0.943421 0.262506
vn -0.202604 0.943421 0.262506
vn -0.202604 0.943421 0.262506
vn -0.202604 0.943421 0.262506
vn -0.202604 0.943421 0.262506
vn -0.798710 -0.089601 -0.595008
vn -0.798710 -0.089601 -0.595008
vn -0.798710 -0.089601 -0.595008
vn -0.826649 -0.055597 -0.559965
vn -0.826649 -0.055597 -0.559965
vn -0.826649 -0.055597 -0.559965
vn 0.900379 0.133597 0.414090
vn 0.900379 0.133597 0.414090
vn 0.900379 0.133597 0.414090
vn 0.900379 0.133597 0.414090
vn 0.900379 0.133597 0.414090
vn 0.900379 0.133597 0.414090
vn 0.189409 -0.949245 -0.251112
vn 0.189409 -0.949245 -0.251112
vn 0.189409 -0.949245 -0.251112
vn 0.189409 -0.949245 -0.251112
vn 0.189409 -0.949245 -0.251112
vn 0.189409 -0.949245 -0.251112
vn -0.189409 0.949245 0.251112
vn -0.189409 0.949245 0.251112
vn -0.189409 0.949245 0.251112
vn -0.189409 0.949245 0.251112
vn -0.189409 0.949245 0.251112
vn -0.189409 0.949245 0.251112
vn -0.678101 0.056400 -0.732801
vn -0.678101 0.056400 -0.732801
vn -0.678101 0.056400 -0.732801
vn -0.678101 0.056400 -0.732801
vn -0.678101 0.056400 -0.732801
vn -0.678101 0.056400 -0.732801
vn 0.678101 -0.056400 0.732801
vn 0.678101 -0.056400 0.732801
vn 0.678101 -0.056400 0.732801
vn 0.678101 -0.056400 0.732801
vn 0.678101 -0.056400 0.732801
vn 0.678101 -0.056400 0.732801
vn -0.223307 -0.948328 0.225407
vn -0.223307 -0.948328 0.225407
vn -0.223307 -0.948328 0.225407
vn -0.644312 0.449508 0.618712
vn -0.644312 0.449508 0.618712
vn -0.644312 0.449508 0.618712
vn -0.977034 -0.200007 0.073503
vn -0.977034 -0.200007 0.073503
vn -0.977034 -0.200007 0.073503
vn 0.300601 -0.247401 0.921104
vn 0.300601 -0.247401 0.921104
vn 0.300601 -0.247401 0.921104
s off
g RArm
usemtl None
f 1/1/1 2/2/2 3/3/3
f 3/4/4 4/5/5 1/6/6
f 5/7/7 6/8/8 7/9/9
f 7/10/10 8/11/11 5/12/12
f 2/13/13 8/14/14 7/15/15
f 7/16/16 3/17/17 2/18/18
f 4/19/19 6/20/20 5/21/21
f 5/22/22 1/23/23 4/24/24
f 3/25/25 9/26/26 10/27/27
f 10/28/28 4/29/29 3/30/30
f 6/31/31 11/32/32 12/33/33
f 12/34/34 7/35/35 6/36/36
f 7/37/37 12/38/38 9/39/39
f 9/40/40 3/41/41 7/42/42
f 4/43/43 10/44/44 11/45/45
f 11/46/46 6/47/47 4/48/48
f 1/49/49 13/50/50 2/51/51
f 8/52/52 13/53/53 5/54/54
f 2/55/55 13/56/56 8/57/57
f 5/58/58 13/59/59 1/60/60
