# This file uses centimeters as units for non-parametric coordinates.

mtllib SwadloonREar.mtl
g default1
v 0.109026 0.164897 0.027780
v -0.053064 -0.278120 0.027780
v -1.015574 0.329806 0.027780
v -0.200434 1.023289 0.027780
v -1.234229 3.392376 0.027780
v -1.497116 2.949359 0.027780
v -1.497116 2.949359 -0.043899
v -1.234229 3.392376 -0.043899
v -0.200434 1.023289 -0.043899
v -1.015574 0.329806 -0.043899
v -0.053064 -0.278120 -0.043899
v 0.109026 0.164897 -0.043899
v -0.934699 2.705961 -0.043899
v -0.934699 2.705961 0.027780
v -1.688546 2.262944 -0.043899
v -1.688546 2.262944 0.027780
v -0.735268 2.248936 -0.043899
v -0.735268 2.248936 0.027780
v -1.661106 1.805919 -0.043899
v -1.661106 1.805919 0.027780
v -0.414432 1.513695 -0.043899
v -0.414432 1.513695 0.027780
v -1.431247 1.070678 -0.043899
v -1.431247 1.070678 0.027780
vt 0.111612 0.758982
vt 0.111612 0.746692
vt 0.111612 0.743769
vt 0.111612 0.735918
vt 0.111612 0.800969
vt 0.163118 0.800969
vt 0.111612 0.793117
vt 0.163118 0.793117
vt 0.163118 0.758982
vt 0.163118 0.743769
vt 0.163118 0.746692
vt 0.163118 0.735918
vt 0.163118 0.788804
vt 0.111612 0.788804
vt 0.163118 0.780952
vt 0.111612 0.780952
vt 0.163118 0.780704
vt 0.111612 0.780704
vt 0.163118 0.772852
vt 0.111612 0.772852
vt 0.163118 0.767673
vt 0.111612 0.767673
vt 0.163118 0.759822
vt 0.111612 0.759822
vn 0.000000 0.000000 1.000000
vn 0.000000 0.000000 1.000000
vn 0.000000 0.000000 1.000000
vn 0.000000 0.000000 1.000000
vn 0.000000 0.000000 1.000000
vn 0.000000 0.000000 1.000000
vn -0.859986 0.510318 0.000000
vn -0.859986 0.510318 0.000000
vn -0.859986 0.510317 0.000000
vn -0.859986 0.510317 0.000000
vn -0.859986 0.510318 0.000000
vn -0.859986 0.510317 0.000000
vn 0.000000 0.000000 -1.000000
vn 0.000000 0.000000 -1.000000
vn 0.000000 0.000000 -1.000000
vn 0.000000 0.000000 -1.000000
vn 0.000000 0.000000 -1.000000
vn 0.000000 0.000000 -1.000000
vn 0.939115 -0.343602 0.000000
vn 0.939115 -0.343602 0.000000
vn 0.939115 -0.343602 0.000000
vn 0.939115 -0.343602 0.000000
vn 0.939115 -0.343602 0.000000
vn 0.939115 -0.343602 0.000000
vn -0.534009 -0.845479 0.000000
vn -0.534009 -0.845479 0.000000
vn -0.534009 -0.845479 0.000000
vn -0.534009 -0.845479 0.000000
vn -0.534009 -0.845479 0.000000
vn -0.534009 -0.845479 0.000000
vn 0.940734 0.339146 0.000000
vn 0.940734 0.339146 0.000000
vn 0.940734 0.339146 0.000000
vn 0.940734 0.339146 0.000000
vn 0.940734 0.339146 0.000000
vn 0.940734 0.339146 0.000000
vn 0.916538 0.399947 0.000000
vn 0.916538 0.399948 0.000000
vn 0.916538 0.399947 0.000000
vn 0.916538 0.399947 0.000000
vn 0.916538 0.399948 0.000000
vn 0.916538 0.399948 0.000000
vn 0.000000 0.000000 -1.000000
vn 0.000000 0.000000 -1.000000
vn 0.000000 0.000000 -1.000000
vn 0.000000 0.000000 -1.000000
vn 0.000000 0.000000 -1.000000
vn 0.000000 0.000000 -1.000000
vn -0.963243 0.268633 0.000000
vn -0.963243 0.268632 0.000000
vn -0.963243 0.268632 0.000000
vn -0.963243 0.268632 0.000000
vn -0.963243 0.268632 0.000000
vn -0.963243 0.268632 0.000000
vn 0.000000 0.000000 1.000000
vn 0.000000 0.000000 1.000000
vn 0.000000 0.000000 1.000000
vn 0.000000 0.000000 1.000000
vn 0.000000 0.000000 1.000000
vn 0.000000 0.000000 1.000000
vn 0.916537 0.399949 0.000000
vn 0.916537 0.399949 0.000000
vn 0.916537 0.399949 0.000000
vn 0.916537 0.399949 0.000000
vn 0.916537 0.399949 0.000000
vn 0.916537 0.399949 0.000000
vn 0.000000 0.000000 -1.000000
vn 0.000000 0.000000 -1.000000
vn -0.000000 0.000000 -1.000000
vn -0.000000 0.000000 -1.000000
vn 0.000000 0.000000 -1.000000
vn -0.000000 0.000000 -1.000000
vn -0.998203 -0.059932 0.000000
vn -0.998203 -0.059933 0.000000
vn -0.998203 -0.059932 0.000000
vn -0.998203 -0.059932 0.000000
vn -0.998203 -0.059933 0.000000
vn -0.998202 -0.059933 0.000000
vn 0.000000 0.000000 1.000000
vn 0.000000 0.000000 1.000000
vn 0.000000 0.000000 1.000000
vn 0.000000 0.000000 1.000000
vn 0.000000 0.000000 1.000000
vn 0.000000 0.000000 1.000000
vn 0.916538 0.399948 0.000000
vn 0.916538 0.399948 0.000000
vn 0.916538 0.399948 0.000000
vn 0.916538 0.399948 0.000000
vn 0.916538 0.399948 0.000000
vn 0.916538 0.399948 0.000000
vn 0.000000 0.000000 -1.000000
vn -0.000000 0.000000 -1.000000
vn -0.000000 0.000000 -1.000000
vn -0.000000 0.000000 -1.000000
vn -0.000000 0.000000 -1.000000
vn -0.000000 0.000000 -1.000000
vn -0.954445 -0.298388 0.000000
vn -0.954444 -0.298390 0.000000
vn -0.954444 -0.298389 0.000000
vn -0.954444 -0.298389 0.000000
vn -0.954444 -0.298390 0.000000
vn -0.954444 -0.298390 0.000000
vn 0.000000 0.000000 1.000000
vn 0.000000 0.000000 1.000000
vn 0.000000 0.000000 1.000000
vn 0.000000 0.000000 1.000000
vn 0.000000 0.000000 1.000000
vn 0.000000 0.000000 1.000000
vn 0.916538 0.399948 0.000000
vn 0.916538 0.399948 0.000000
vn 0.916538 0.399948 0.000000
vn 0.916538 0.399948 0.000000
vn 0.916538 0.399948 0.000000
vn 0.916538 0.399948 0.000000
vn 0.000000 0.000000 -1.000000
vn 0.000000 0.000000 -1.000000
vn 0.000000 0.000000 -1.000000
vn 0.000000 0.000000 -1.000000
vn 0.000000 0.000000 -1.000000
vn 0.000000 0.000000 -1.000000
vn -0.872112 -0.489307 0.000000
vn -0.872112 -0.489306 0.000000
vn -0.872112 -0.489307 0.000000
vn -0.872112 -0.489307 0.000000
vn -0.872112 -0.489306 0.000000
vn -0.872112 -0.489306 0.000000
vn 0.000000 0.000000 1.000000
vn 0.000000 0.000000 1.000000
vn 0.000000 0.000000 1.000000
vn 0.000000 0.000000 1.000000
vn 0.000000 0.000000 1.000000
vn 0.000000 0.000000 1.000000
s off
g REar
usemtl None
f 4/1/1 3/2/2 1/3/3
f 1/3/4 3/2/5 2/4/6
f 5/5/7 8/6/8 6/7/9
f 6/7/10 8/6/11 7/8/12
f 9/9/13 12/10/14 10/11/15
f 10/11/16 12/10/17 11/12/18
f 12/10/19 1/3/20 11/12/21
f 11/12/22 1/3/23 2/4/24
f 2/4/25 3/2/26 11/12/27
f 11/12/28 3/2/29 10/11/30
f 12/10/31 9/9/32 1/3/33
f 1/3/34 9/9/35 4/1/36
f 13/13/37 8/6/38 14/14/39
f 14/14/40 8/6/41 5/5/42
f 8/6/43 13/13/44 7/8/45
f 7/8/46 13/13/47 15/15/48
f 16/16/49 6/7/50 15/15/51
f 15/15/52 6/7/53 7/8/54
f 5/5/55 6/7/56 14/14/57
f 14/14/58 6/7/59 16/16/60
f 17/17/61 13/13/62 18/18/63
f 18/18/64 13/13/65 14/14/66
f 13/13/67 17/17/68 15/15/69
f 15/15/70 17/17/71 19/19/72
f 20/20/73 16/16/74 19/19/75
f 19/19/76 16/16/77 15/15/78
f 14/14/79 16/16/80 18/18/81
f 18/18/82 16/16/83 20/20/84
f 21/21/85 17/17/86 22/22/87
f 22/22/88 17/17/89 18/18/90
f 17/17/91 21/21/92 19/19/93
f 19/19/94 21/21/95 23/23/96
f 24/24/97 20/20/98 23/23/99
f 23/23/100 20/20/101 19/19/102
f 18/18/103 20/20/104 22/22/105
f 22/22/106 20/20/107 24/24/108
f 9/9/109 21/21/110 4/1/111
f 4/1/112 21/21/113 22/22/114
f 21/21/115 9/9/116 23/23/117
f 23/23/118 9/9/119 10/11/120
f 3/2/121 24/24/122 10/11/123
f 10/11/124 24/24/125 23/23/126
f 22/22/127 24/24/128 4/1/129
f 4/1/130 24/24/131 3/2/132
