# This file uses centimeters as units for non-parametric coordinates.

mtllib SwadloonLEar.mtl
g default1
v -0.166689 0.164897 0.027780
v -0.004598 -0.278120 0.027780
v 1.176566 3.392376 0.027780
v 1.439454 2.949359 0.027780
v 1.176566 3.392376 -0.043899
v 1.439454 2.949359 -0.043899
v -0.166689 0.164897 -0.043899
v -0.004598 -0.278120 -0.043899
v 0.877036 2.705961 0.027780
v 0.877036 2.705961 -0.043899
v 1.630884 2.262944 -0.043899
v 1.630884 2.262944 0.027780
v 0.677605 2.248936 0.027780
v 0.677605 2.248936 -0.043899
v 1.603444 1.805919 -0.043899
v 1.603444 1.805919 0.027780
v 0.356769 1.513695 0.027780
v 0.356769 1.513695 -0.043899
v 1.373584 1.070678 -0.043899
v 1.373584 1.070678 0.027780
v 0.142772 1.023289 0.027780
v 0.142772 1.023289 -0.043899
v 0.957912 0.329806 -0.043899
v 0.957912 0.329806 0.027780
vt 0.111612 0.735918
vt 0.111612 0.746692
vt 0.111612 0.743769
vt 0.111612 0.758982
vt 0.111612 0.800969
vt 0.111612 0.793117
vt 0.163118 0.800969
vt 0.163118 0.793117
vt 0.163118 0.758982
vt 0.163118 0.746692
vt 0.163118 0.743769
vt 0.163118 0.735918
vt 0.163118 0.788804
vt 0.111612 0.788804
vt 0.163118 0.780952
vt 0.111612 0.780952
vt 0.163118 0.780704
vt 0.111612 0.780704
vt 0.163118 0.772852
vt 0.111612 0.772852
vt 0.163118 0.767673
vt 0.111612 0.767673
vt 0.163118 0.759822
vt 0.111612 0.759822
vn 0.000000 0.000000 1.000000
vn 0.000000 0.000000 1.000000
vn 0.000000 0.000000 1.000000
vn 0.000000 0.000000 1.000000
vn 0.000000 0.000000 1.000000
vn 0.000000 0.000000 1.000000
vn 0.859986 0.510318 0.000000
vn 0.859986 0.510317 0.000000
vn 0.859986 0.510318 0.000000
vn 0.859986 0.510318 0.000000
vn 0.859986 0.510317 0.000000
vn 0.859986 0.510317 0.000000
vn 0.000000 0.000000 -1.000000
vn 0.000000 0.000000 -1.000000
vn 0.000000 0.000000 -1.000000
vn 0.000000 0.000000 -1.000000
vn 0.000000 0.000000 -1.000000
vn 0.000000 0.000000 -1.000000
vn -0.939115 -0.343602 0.000000
vn -0.939115 -0.343602 0.000000
vn -0.939115 -0.343602 0.000000
vn -0.939115 -0.343602 0.000000
vn -0.939115 -0.343602 0.000000
vn -0.939115 -0.343602 0.000000
vn 0.534009 -0.845479 0.000000
vn 0.534009 -0.845479 0.000000
vn 0.534009 -0.845479 0.000000
vn 0.534009 -0.845479 0.000000
vn 0.534009 -0.845479 0.000000
vn 0.534009 -0.845479 0.000000
vn -0.940734 0.339146 0.000000
vn -0.940734 0.339146 0.000000
vn -0.940734 0.339146 0.000000
vn -0.940734 0.339146 0.000000
vn -0.940734 0.339146 0.000000
vn -0.940734 0.339146 0.000000
vn -0.916538 0.399947 0.000000
vn -0.916538 0.399947 0.000000
vn -0.916538 0.399948 0.000000
vn -0.916538 0.399948 0.000000
vn -0.916538 0.399947 0.000000
vn -0.916538 0.399948 0.000000
vn 0.000000 0.000000 -1.000000
vn 0.000000 0.000000 -1.000000
vn 0.000000 0.000000 -1.000000
vn 0.000000 0.000000 -1.000000
vn 0.000000 0.000000 -1.000000
vn 0.000000 0.000000 -1.000000
vn 0.963243 0.268633 0.000000
vn 0.963243 0.268633 0.000000
vn 0.963243 0.268632 0.000000
vn 0.963243 0.268632 0.000000
vn 0.963243 0.268633 0.000000
vn 0.963243 0.268632 0.000000
vn 0.000000 0.000000 1.000000
vn 0.000000 0.000000 1.000000
vn 0.000000 0.000000 1.000000
vn 0.000000 0.000000 1.000000
vn 0.000000 0.000000 1.000000
vn 0.000000 0.000000 1.000000
vn -0.916537 0.399949 0.000000
vn -0.916537 0.399949 0.000000
vn -0.916537 0.399949 0.000000
vn -0.916537 0.399949 0.000000
vn -0.916537 0.399949 0.000000
vn -0.916537 0.399949 0.000000
vn -0.000000 0.000000 -1.000000
vn 0.000000 0.000000 -1.000000
vn -0.000000 0.000000 -1.000000
vn -0.000000 0.000000 -1.000000
vn 0.000000 0.000000 -1.000000
vn 0.000000 0.000000 -1.000000
vn 0.998202 -0.059933 0.000000
vn 0.998203 -0.059933 0.000000
vn 0.998203 -0.059933 0.000000
vn 0.998203 -0.059933 0.000000
vn 0.998203 -0.059933 0.000000
vn 0.998202 -0.059933 0.000000
vn 0.000000 0.000000 1.000000
vn 0.000000 0.000000 1.000000
vn 0.000000 0.000000 1.000000
vn 0.000000 0.000000 1.000000
vn 0.000000 0.000000 1.000000
vn 0.000000 0.000000 1.000000
vn -0.916538 0.399948 0.000000
vn -0.916538 0.399948 0.000000
vn -0.916538 0.399948 0.000000
vn -0.916538 0.399948 0.000000
vn -0.916538 0.399948 0.000000
vn -0.916538 0.399948 0.000000
vn -0.000000 0.000000 -1.000000
vn -0.000000 0.000000 -1.000000
vn -0.000000 0.000000 -1.000000
vn -0.000000 0.000000 -1.000000
vn -0.000000 0.000000 -1.000000
vn 0.000000 0.000000 -1.000000
vn 0.954444 -0.298389 0.000000
vn 0.954444 -0.298389 0.000000
vn 0.954444 -0.298389 0.000000
vn 0.954444 -0.298389 0.000000
vn 0.954444 -0.298389 0.000000
vn 0.954444 -0.298389 0.000000
vn 0.000000 0.000000 1.000000
vn 0.000000 0.000000 1.000000
vn 0.000000 0.000000 1.000000
vn 0.000000 0.000000 1.000000
vn 0.000000 0.000000 1.000000
vn 0.000000 0.000000 1.000000
vn -0.916538 0.399948 0.000000
vn -0.916538 0.399948 0.000000
vn -0.916538 0.399948 0.000000
vn -0.916538 0.399948 0.000000
vn -0.916538 0.399948 0.000000
vn -0.916538 0.399948 0.000000
vn 0.000000 0.000000 -1.000000
vn 0.000000 0.000000 -1.000000
vn 0.000000 0.000000 -1.000000
vn 0.000000 0.000000 -1.000000
vn 0.000000 0.000000 -1.000000
vn 0.000000 0.000000 -1.000000
vn 0.872112 -0.489307 0.000000
vn 0.872112 -0.489307 0.000000
vn 0.872112 -0.489306 0.000000
vn 0.872112 -0.489306 0.000000
vn 0.872112 -0.489307 0.000000
vn 0.872112 -0.489306 0.000000
vn 0.000000 0.000000 1.000000
vn 0.000000 0.000000 1.000000
vn 0.000000 0.000000 1.000000
vn 0.000000 0.000000 1.000000
vn 0.000000 0.000000 1.000000
vn 0.000000 0.000000 1.000000
s off
g LEar
usemtl None
f 2/1/1 24/2/2 1/3/3
f 1/3/4 24/2/5 21/4/6
f 3/5/7 4/6/8 5/7/9
f 5/7/10 4/6/11 6/8/12
f 22/9/13 23/10/14 7/11/15
f 7/11/16 23/10/17 8/12/18
f 7/11/19 8/12/20 1/3/21
f 1/3/22 8/12/23 2/1/24
f 2/1/25 8/12/26 24/2/27
f 24/2/28 8/12/29 23/10/30
f 7/11/31 1/3/32 22/9/33
f 22/9/34 1/3/35 21/4/36
f 10/13/37 9/14/38 5/7/39
f 5/7/40 9/14/41 3/5/42
f 5/7/43 6/8/44 10/13/45
f 10/13/46 6/8/47 11/15/48
f 12/16/49 11/15/50 4/6/51
f 4/6/52 11/15/53 6/8/54
f 12/16/55 4/6/56 9/14/57
f 9/14/58 4/6/59 3/5/60
f 14/17/61 13/18/62 10/13/63
f 10/13/64 13/18/65 9/14/66
f 10/13/67 11/15/68 14/17/69
f 14/17/70 11/15/71 15/19/72
f 16/20/73 15/19/74 12/16/75
f 12/16/76 15/19/77 11/15/78
f 16/20/79 12/16/80 13/18/81
f 13/18/82 12/16/83 9/14/84
f 18/21/85 17/22/86 14/17/87
f 14/17/88 17/22/89 13/18/90
f 14/17/91 15/19/92 18/21/93
f 18/21/94 15/19/95 19/23/96
f 20/24/97 19/23/98 16/20/99
f 16/20/100 19/23/101 15/19/102
f 20/24/103 16/20/104 17/22/105
f 17/22/106 16/20/107 13/18/108
f 22/9/109 21/4/110 18/21/111
f 18/21/112 21/4/113 17/22/114
f 18/21/115 19/23/116 22/9/117
f 22/9/118 19/23/119 23/10/120
f 24/2/121 23/10/122 20/24/123
f 20/24/124 23/10/125 19/23/126
f 24/2/127 20/24/128 21/4/129
f 21/4/130 20/24/131 17/22/132
