# This file uses centimeters as units for non-parametric coordinates.

mtllib DrapionBRLeg.mtl
g default
v -1.986765 -1.932280 -0.744285
v -1.760060 -1.932275 -0.984840
v -1.361150 -1.949100 -1.007905
v -1.023690 -1.972910 -0.799965
v -0.949650 -1.983420 -0.483645
v -1.172085 -1.989760 -0.242270
v -1.571005 -1.972935 -0.219205
v -1.908450 -1.949125 -0.427150
v -1.453650 -2.797290 -0.693970
v -1.974280 -1.410550 -0.719365
v -1.686425 -1.410540 -1.024820
v -1.179885 -1.431910 -1.054105
v -0.751395 -1.462140 -0.790065
v -0.657385 -1.475485 -0.388415
v -0.939820 -1.483540 -0.081925
v -1.446350 -1.462170 -0.052640
v -1.874840 -1.431940 -0.316675
v -1.660110 -0.796860 -0.614175
v -1.326515 -0.819010 -0.984510
v -0.747175 -0.898150 -1.029045
v -0.261465 -0.987925 -0.721705
v -0.157590 -1.127650 -0.243065
v -0.487500 -1.013590 0.127810
v -1.066840 -0.934455 0.172350
v -1.552550 -0.844680 -0.134995
v -1.068790 -0.144320 -0.437150
v -0.723720 -0.236435 -0.894015
v -0.213885 -0.369075 -0.994235
v 0.238620 -0.634680 -0.666795
v 0.316760 -0.745575 -0.111170
v -0.030505 -0.665240 0.344650
v -0.594485 -0.412295 0.436165
v -0.992840 -0.267000 0.117430
v -0.459840 0.245035 -0.266630
v -0.070085 0.140995 -0.782645
v 0.505755 -0.008815 -0.895840
v 1.016850 -0.308810 -0.526005
v 1.105105 -0.434065 0.101555
v 0.712885 -0.343330 0.616395
v 0.075875 -0.057640 0.719760
v -0.374050 0.106475 0.359760
v 0.390880 0.548735 -0.038420
v 0.712290 0.419945 -0.534470
v 1.187045 0.212055 -0.659825
v 1.560125 -0.144635 -0.343200
v 1.602640 -0.293640 0.233470
v 1.275235 -0.176990 0.727495
v 0.784145 0.166295 0.854355
v 0.427405 0.387590 0.536220
v -0.586380 -1.116325 0.081960
v -1.374210 -0.897400 -0.989850
v -0.328405 -1.179930 -0.292740
v -1.135155 -1.029445 0.131850
v -1.699750 -0.874300 -0.627450
v -1.597655 -0.926865 -0.160420
v -0.841310 -1.014265 -1.034495
v -0.377505 -1.100240 -0.737895
vt 0.965263 0.230885
vt 0.965289 0.230898
vt 0.965270 0.230906
vt 0.965276 0.230865
vt 0.965285 0.230914
vt 0.965296 0.230912
vt 0.965305 0.230906
vt 0.447720 0.557798
vt 0.447937 0.557843
vt 0.447387 0.558559
vt 0.448352 0.558819
vt 0.447746 0.557396
vt 0.447662 0.557458
vt 0.447647 0.557163
vt 0.447401 0.557303
vt 0.447850 0.557380
vt 0.447920 0.557084
vt 0.448052 0.557657
vt 0.448835 0.557951
vt 0.447620 0.557608
vt 0.447155 0.557731
vt 0.447986 0.557454
vt 0.448402 0.557208
vt 0.446597 0.556888
vt 0.445725 0.558203
vt 0.449697 0.556546
vt 0.451314 0.558907
vt 0.446327 0.561030
vt 0.448187 0.556206
vt 0.449541 0.561608
vt 0.447354 0.556478
vt 0.446031 0.561721
vt 0.450158 0.563057
vt 0.441632 0.569608
vt 0.454247 0.572655
vt 0.447312 0.556379
vt 0.446466 0.556821
vt 0.445886 0.553040
vt 0.442619 0.555070
vt 0.448228 0.556072
vt 0.449673 0.552053
vt 0.452083 0.559203
vt 0.460924 0.561602
vt 0.445411 0.558307
vt 0.439062 0.559401
vt 0.450058 0.556362
vt 0.455396 0.552551
vt 0.418608 0.566563
vt 0.427556 0.604785
vt 0.454993 0.541299
vt 0.475297 0.542864
vt 0.471976 0.614067
vt 0.442262 0.544539
vt 0.431401 0.551427
vt 0.496330 0.576237
vt 0.371975 0.537656
vt 0.365932 0.605315
vt 0.540181 0.532766
vt 0.542232 0.611984
vt 0.421520 0.662498
vt 0.487111 0.488927
vt 0.492853 0.662498
vt 0.415226 0.481181
vt 0.965309 0.230890
vt 0.965299 0.230870
vt 0.983038 0.696959
vt 0.982166 0.698274
vt 0.982907 0.696892
vt 0.981852 0.698378
vt 0.982768 0.701101
vt 0.982472 0.701792
vt 0.985982 0.701679
vt 0.986599 0.703127
vt 0.983795 0.696549
vt 0.983753 0.696450
vt 0.984628 0.696277
vt 0.984669 0.696142
vt 0.986139 0.696617
vt 0.986499 0.696433
vt 0.987755 0.698977
vt 0.988524 0.699274
vn 0.473216 -0.350713 -0.808126
vn 0.473216 -0.350713 -0.808126
vn 0.473216 -0.350713 -0.808126
vn 0.854147 -0.473211 -0.215650
vn 0.854147 -0.473211 -0.215650
vn 0.854147 -0.473211 -0.215650
vn -0.068567 -0.339709 -0.938028
vn -0.068567 -0.339709 -0.938028
vn -0.068567 -0.339709 -0.938028
vn -0.841925 -0.508365 0.180907
vn -0.841925 -0.508365 0.180907
vn -0.841925 -0.508365 0.180907
vn -0.653914 -0.438862 -0.616276
vn -0.653914 -0.438863 -0.616276
vn -0.653914 -0.438862 -0.616276
vn 0.649861 -0.483837 0.586160
vn 0.649866 -0.483834 0.586156
vn 0.649870 -0.483832 0.586154
vn 0.649870 -0.483832 0.586154
vn 0.649866 -0.483834 0.586156
vn 0.649873 -0.483830 0.586151
vn -0.970624 0.011748 0.240316
vn -0.970624 0.011747 0.240313
vn -0.970625 0.011747 0.240312
vn -0.970625 0.011747 0.240312
vn -0.970624 0.011747 0.240313
vn -0.970625 0.011746 0.240310
vn -0.726832 0.050111 -0.684984
vn -0.726845 0.050100 -0.684972
vn -0.726841 0.050104 -0.684975
vn -0.726841 0.050104 -0.684975
vn -0.726845 0.050100 -0.684972
vn -0.726851 0.050095 -0.684966
vn 0.863115 -0.455924 -0.217175
vn 0.863118 -0.455921 -0.217171
vn 0.863117 -0.455922 -0.217173
vn 0.863117 -0.455922 -0.217173
vn 0.863118 -0.455921 -0.217171
vn 0.863119 -0.455920 -0.217169
vn -0.526481 -0.144743 0.837775
vn -0.526468 -0.144735 0.837785
vn -0.526465 -0.144733 0.837787
vn -0.526465 -0.144733 0.837787
vn -0.526468 -0.144735 0.837785
vn -0.526456 -0.144727 0.837794
vn 0.495464 -0.248013 -0.832469
vn 0.495472 -0.248009 -0.832466
vn 0.495470 -0.248010 -0.832467
vn 0.495470 -0.248010 -0.832467
vn 0.495472 -0.248009 -0.832466
vn 0.495476 -0.248006 -0.832464
vn 0.041296 -0.318871 0.946898
vn 0.041294 -0.318874 0.946897
vn 0.041293 -0.318874 0.946897
vn 0.041293 -0.318874 0.946897
vn 0.041294 -0.318874 0.946897
vn 0.041291 -0.318876 0.946897
vn -0.060443 -0.067783 -0.995867
vn -0.060437 -0.067780 -0.995868
vn -0.060438 -0.067781 -0.995868
vn -0.060438 -0.067781 -0.995868
vn -0.060437 -0.067780 -0.995868
vn -0.060434 -0.067779 -0.995868
vn -0.523244 0.023619 0.851856
vn -0.526862 0.022155 0.849662
vn -0.527422 0.021928 0.849320
vn -0.527422 0.021928 0.849320
vn -0.526862 0.022155 0.849662
vn -0.530836 0.020542 0.847225
vn 0.474274 -0.346482 -0.809330
vn 0.465093 -0.350325 -0.812995
vn 0.465090 -0.350326 -0.812996
vn 0.465090 -0.350326 -0.812996
vn 0.465093 -0.350325 -0.812995
vn 0.456446 -0.353889 -0.816345
vn 0.035174 -0.413243 0.909941
vn 0.025607 -0.416755 0.908658
vn 0.025105 -0.416938 0.908588
vn 0.025105 -0.416938 0.908588
vn 0.025607 -0.416755 0.908658
vn 0.015947 -0.420254 0.907266
vn -0.053219 0.100090 -0.993554
vn -0.057810 0.098410 -0.993465
vn -0.057269 0.098608 -0.993477
vn -0.057269 0.098608 -0.993477
vn -0.057810 0.098410 -0.993465
vn -0.061973 0.096884 -0.993364
vn 0.524981 -0.712832 0.465043
vn 0.518011 -0.715769 0.468338
vn 0.516694 -0.716316 0.468955
vn 0.516694 -0.716316 0.468955
vn 0.518011 -0.715769 0.468338
vn 0.508960 -0.719487 0.472543
vn -0.880322 0.409684 0.239147
vn -0.880436 0.409583 0.238901
vn -0.880489 0.409536 0.238786
vn -0.880489 0.409536 0.238786
vn -0.880436 0.409583 0.238901
vn -0.880583 0.409453 0.238584
vn -0.653497 0.440110 -0.615829
vn -0.653808 0.439945 -0.615617
vn -0.653711 0.439996 -0.615683
vn -0.653711 0.439996 -0.615683
vn -0.653808 0.439945 -0.615617
vn -0.653981 0.439853 -0.615499
vn 0.696628 -0.692882 -0.186074
vn 0.691260 -0.696120 -0.193848
vn 0.692091 -0.695626 -0.192652
vn 0.692091 -0.695626 -0.192652
vn 0.691260 -0.696120 -0.193848
vn 0.686366 -0.698976 -0.200833
vn 0.335559 -0.774242 0.536609
vn 0.401129 -0.760063 0.511274
vn 0.412175 -0.757236 0.506661
vn 0.412175 -0.757236 0.506661
vn 0.401129 -0.760063 0.511274
vn 0.463409 -0.742367 0.483884
vn -0.751362 0.618374 0.230366
vn -0.749967 0.618832 0.233661
vn -0.748690 0.619241 0.236654
vn -0.748690 0.619241 0.236654
vn -0.749967 0.618832 0.233661
vn -0.747494 0.619615 0.239436
vn -0.549636 0.642819 -0.533557
vn -0.544348 0.644015 -0.537522
vn -0.546826 0.643459 -0.535670
vn -0.546826 0.643459 -0.535670
vn -0.544348 0.644015 -0.537522
vn -0.541960 0.644543 -0.539298
vn 0.566945 -0.749484 -0.341829
vn 0.616433 -0.735994 -0.279862
vn 0.609081 -0.738379 -0.289512
vn 0.609081 -0.738379 -0.289512
vn 0.616433 -0.735994 -0.279862
vn 0.648524 -0.723795 -0.235664
vn -0.513563 0.126767 0.848636
vn -0.538027 0.128202 0.833121
vn -0.560674 0.129457 0.817854
vn -0.560674 0.129457 0.817854
vn -0.538027 0.128202 0.833121
vn -0.589816 0.130959 0.796848
vn 0.439789 -0.390069 -0.808970
vn 0.405155 -0.394382 -0.824811
vn 0.412030 -0.393577 -0.821784
vn 0.412030 -0.393577 -0.821784
vn 0.405155 -0.394382 -0.824811
vn 0.373038 -0.397812 -0.838206
vn 0.006234 -0.455428 0.890251
vn -0.023952 -0.459555 0.887826
vn -0.030721 -0.460422 0.887168
vn -0.030721 -0.460422 0.887168
vn -0.023952 -0.459555 0.887826
vn -0.065009 -0.464484 0.883192
vn -0.047707 0.201336 -0.978360
vn -0.102523 0.202374 -0.973927
vn -0.076462 0.201956 -0.976405
vn -0.076462 0.201956 -0.976405
vn -0.102523 0.202374 -0.973927
vn -0.137832 0.202720 -0.969488
vn -0.090805 -0.511589 0.854419
vn -0.090801 -0.511589 0.854419
vn -0.090800 -0.511589 0.854419
vn -0.090800 -0.511589 0.854419
vn -0.090801 -0.511589 0.854419
vn -0.090797 -0.511590 0.854419
vn -0.075437 0.400145 -0.913342
vn -0.075437 0.400146 -0.913341
vn -0.075437 0.400146 -0.913341
vn -0.075437 0.400146 -0.913341
vn -0.075437 0.400146 -0.913341
vn -0.075438 0.400146 -0.913341
vn 0.258927 -0.898079 0.355543
vn 0.258930 -0.898079 0.355541
vn 0.258931 -0.898079 0.355540
vn 0.258931 -0.898079 0.355540
vn 0.258930 -0.898079 0.355541
vn 0.258933 -0.898079 0.355539
vn -0.570362 0.782067 0.251114
vn -0.570362 0.782067 0.251113
vn -0.570362 0.782067 0.251113
vn -0.570362 0.782067 0.251113
vn -0.570362 0.782067 0.251113
vn -0.570363 0.782067 0.251113
vn -0.386380 0.803014 -0.453740
vn -0.386377 0.803014 -0.453741
vn -0.386378 0.803014 -0.453741
vn -0.386378 0.803014 -0.453741
vn -0.386377 0.803014 -0.453741
vn -0.386375 0.803015 -0.453742
vn 0.411212 -0.881078 -0.233681
vn 0.411210 -0.881078 -0.233683
vn 0.411211 -0.881078 -0.233682
vn 0.411211 -0.881078 -0.233682
vn 0.411210 -0.881078 -0.233683
vn 0.411209 -0.881078 -0.233684
vn -0.511605 0.333986 0.791653
vn -0.511604 0.333986 0.791653
vn -0.511604 0.333986 0.791653
vn -0.511604 0.333986 0.791653
vn -0.511604 0.333986 0.791653
vn -0.511604 0.333986 0.791653
vn 0.337107 -0.447099 -0.828530
vn 0.337105 -0.447099 -0.828531
vn 0.337105 -0.447099 -0.828530
vn 0.337105 -0.447099 -0.828530
vn 0.337105 -0.447099 -0.828531
vn 0.337103 -0.447099 -0.828531
vn -0.364886 0.586263 0.723294
vn -0.352837 0.580951 0.733486
vn -0.338887 0.574656 0.744934
vn -0.338887 0.574656 0.744934
vn -0.352837 0.580951 0.733486
vn -0.323320 0.567451 0.757273
vn 0.405862 -0.349570 -0.844439
vn 0.399601 -0.348412 -0.847896
vn 0.400048 -0.348495 -0.847651
vn 0.400048 -0.348495 -0.847651
vn 0.399601 -0.348412 -0.847896
vn 0.391600 -0.346912 -0.852233
vn -0.040261 -0.418113 0.907503
vn -0.046879 -0.417229 0.907592
vn -0.047238 -0.417180 0.907595
vn -0.047238 -0.417180 0.907595
vn -0.046879 -0.417229 0.907592
vn -0.056286 -0.415940 0.907649
vn 0.015493 0.640007 -0.768213
vn 0.047909 0.630125 -0.775015
vn 0.030991 0.635378 -0.771579
vn 0.030991 0.635378 -0.771579
vn 0.047909 0.630125 -0.775015
vn 0.067535 0.623767 -0.778688
vn 0.209415 -0.923204 0.322243
vn 0.191861 -0.925067 0.327780
vn 0.194668 -0.924791 0.326903
vn 0.194668 -0.924791 0.326903
vn 0.191861 -0.925067 0.327780
vn 0.173118 -0.926703 0.333545
vn -0.384216 0.888958 0.249263
vn -0.379977 0.888580 0.256988
vn -0.376776 0.888251 0.262773
vn -0.376776 0.888251 0.262773
vn -0.379977 0.888580 0.256988
vn -0.371334 0.887608 0.272513
vn -0.228315 0.906473 -0.355216
vn -0.215536 0.906467 -0.363128
vn -0.220906 0.906495 -0.359816
vn -0.220906 0.906495 -0.359816
vn -0.215536 0.906467 -0.363128
vn -0.206136 0.906332 -0.368876
vn 0.351746 -0.907261 -0.230548
vn 0.340956 -0.908323 -0.242277
vn 0.339138 -0.908478 -0.244239
vn 0.339138 -0.908478 -0.244239
vn 0.340956 -0.908323 -0.242277
vn 0.325345 -0.909441 -0.258975
vn -0.482692 -0.487671 0.727452
vn -0.482692 -0.487671 0.727452
vn -0.482692 -0.487671 0.727452
vn 0.029277 -0.495725 0.867986
vn 0.029277 -0.495725 0.867986
vn 0.029277 -0.495725 0.867986
vn 0.628227 -0.535017 0.564878
vn 0.628227 -0.535017 0.564879
vn 0.628227 -0.535017 0.564879
vn -0.529500 0.028307 0.847837
vn -0.531603 0.021930 0.846710
vn -0.529778 0.027468 0.847691
vn -0.529778 0.027468 0.847691
vn -0.531603 0.021930 0.846710
vn -0.531756 0.021462 0.846626
vn 0.019224 -0.403796 0.914647
vn 0.013365 -0.416490 0.909042
vn 0.018323 -0.405756 0.913798
vn 0.018323 -0.405756 0.913798
vn 0.013365 -0.416490 0.909042
vn 0.012782 -0.417749 0.908473
vn 0.517302 -0.710681 0.476793
vn 0.206389 -0.880670 0.426407
vn 0.425382 -0.774952 0.467440
vn 0.425382 -0.774952 0.467440
vn 0.206389 -0.880670 0.426407
vn 0.154443 -0.897373 0.413362
vn -0.653847 0.440191 -0.615399
vn -0.653867 0.440153 -0.615405
vn -0.654010 0.439882 -0.615447
vn -0.654010 0.439882 -0.615447
vn -0.653867 0.440153 -0.615405
vn -0.654027 0.439849 -0.615452
vn 0.462335 -0.336306 -0.820454
vn 0.461127 -0.338308 -0.820310
vn 0.454689 -0.348879 -0.819476
vn 0.454689 -0.348879 -0.819476
vn 0.461127 -0.338308 -0.820310
vn 0.453642 -0.350583 -0.819329
vn -0.060292 0.104308 -0.992716
vn -0.060791 0.103094 -0.992812
vn -0.062860 0.098053 -0.993194
vn -0.062860 0.098053 -0.993194
vn -0.060791 0.103094 -0.992812
vn -0.063005 0.097698 -0.993220
vn -0.880430 0.409779 0.238588
vn -0.880568 0.409516 0.238531
vn -0.880449 0.409743 0.238580
vn -0.880449 0.409743 0.238580
vn -0.880568 0.409516 0.238531
vn -0.880581 0.409490 0.238525
vn 0.695676 -0.689885 -0.200233
vn 0.619326 -0.748123 -0.238215
vn 0.419781 -0.851053 -0.315425
vn 0.419781 -0.851053 -0.315425
vn 0.619326 -0.748123 -0.238215
vn 0.363147 -0.870248 -0.332855
s off
g BRLeg
usemtl None
f 4/1/1 9/2/2 3/3/3
f 5/4/4 9/2/5 4/1/6
f 3/3/7 9/2/8 2/5/9
f 1/6/10 9/2/11 8/7/12
f 2/5/13 9/2/14 1/6/15
f 6/8/16 5/9/17 15/10/18
f 15/10/19 5/9/20 14/11/21
f 1/12/22 8/13/23 10/14/24
f 10/14/25 8/13/26 17/15/27
f 1/12/28 10/14/29 2/16/30
f 2/16/31 10/14/32 11/17/33
f 4/18/34 13/19/35 5/9/36
f 5/9/37 13/19/38 14/11/39
f 8/13/40 7/20/41 17/15/42
f 17/15/43 7/20/44 16/21/45
f 3/22/46 12/23/47 4/18/48
f 4/18/49 12/23/50 13/19/51
f 7/20/52 6/8/53 16/21/54
f 16/21/55 6/8/56 15/10/57
f 2/16/58 11/17/59 3/22/60
f 3/22/61 11/17/62 12/23/63
f 17/15/64 16/21/65 55/24/66
f 55/24/67 16/21/68 53/25/69
f 12/23/70 56/26/71 13/19/72
f 13/19/73 56/26/74 57/27/75
f 16/21/76 15/10/77 53/25/78
f 53/25/79 15/10/80 50/28/81
f 11/17/82 51/29/83 12/23/84
f 12/23/85 51/29/86 56/26/87
f 15/10/88 14/11/89 50/28/90
f 50/28/91 14/11/92 52/30/93
f 10/14/94 17/15/95 54/31/96
f 54/31/97 17/15/98 55/24/99
f 10/14/100 54/31/101 11/17/102
f 11/17/103 54/31/104 51/29/105
f 13/19/106 57/27/107 14/11/108
f 14/11/109 57/27/110 52/30/111
f 23/32/112 22/33/113 31/34/114
f 31/34/115 22/33/116 30/35/117
f 18/36/118 25/37/119 26/38/120
f 26/38/121 25/37/122 33/39/123
f 18/36/124 26/38/125 19/40/126
f 19/40/127 26/38/128 27/41/129
f 21/42/130 29/43/131 22/33/132
f 22/33/133 29/43/134 30/35/135
f 25/37/136 24/44/137 33/39/138
f 33/39/139 24/44/140 32/45/141
f 20/46/142 28/47/143 21/42/144
f 21/42/145 28/47/146 29/43/147
f 24/44/148 23/32/149 32/45/150
f 32/45/151 23/32/152 31/34/153
f 19/40/154 27/41/155 20/46/156
f 20/46/157 27/41/158 28/47/159
f 32/45/160 31/34/161 40/48/162
f 40/48/163 31/34/164 39/49/165
f 27/41/166 35/50/167 28/47/168
f 28/47/169 35/50/170 36/51/171
f 31/34/172 30/35/173 39/49/174
f 39/49/175 30/35/176 38/52/177
f 26/38/178 33/39/179 34/53/180
f 34/53/181 33/39/182 41/54/183
f 26/38/184 34/53/185 27/41/186
f 27/41/187 34/53/188 35/50/189
f 29/43/190 37/55/191 30/35/192
f 30/35/193 37/55/194 38/52/195
f 33/39/196 32/45/197 41/54/198
f 41/54/199 32/45/200 40/48/201
f 28/47/202 36/51/203 29/43/204
f 29/43/205 36/51/206 37/55/207
f 41/54/208 40/48/209 49/56/210
f 49/56/211 40/48/212 48/57/213
f 36/51/214 44/58/215 37/55/216
f 37/55/217 44/58/218 45/59/219
f 40/48/220 39/49/221 48/57/222
f 48/57/223 39/49/224 47/60/225
f 35/50/226 43/61/227 36/51/228
f 36/51/229 43/61/230 44/58/231
f 39/49/232 38/52/233 47/60/234
f 47/60/235 38/52/236 46/62/237
f 34/53/238 41/54/239 42/63/240
f 42/63/241 41/54/242 49/56/243
f 34/53/244 42/63/245 35/50/246
f 35/50/247 42/63/248 43/61/249
f 37/55/250 45/59/251 38/52/252
f 38/52/253 45/59/254 46/62/255
f 8/7/256 9/2/257 7/64/258
f 7/64/259 9/2/260 6/65/261
f 6/65/262 9/2/263 5/4/264
f 55/66/265 53/67/266 25/68/267
f 25/68/268 53/67/269 24/69/270
f 53/67/271 50/70/272 24/69/273
f 24/69/274 50/70/275 23/71/276
f 50/70/277 52/72/278 23/71/279
f 23/71/280 52/72/281 22/73/282
f 54/74/283 18/75/284 51/76/285
f 51/76/286 18/75/287 19/77/288
f 56/78/289 20/79/290 57/80/291
f 57/80/292 20/79/293 21/81/294
f 51/76/295 19/77/296 56/78/297
f 56/78/298 19/77/299 20/79/300
f 54/74/301 55/66/302 18/75/303
f 18/75/304 55/66/305 25/68/306
f 57/80/307 21/81/308 52/72/309
f 52/72/310 21/81/311 22/73/312
