# This file uses centimeters as units for non-parametric coordinates.

mtllib DrapionTail1b.mtl
g default1
v -0.540515 -0.636280 -1.492040
v -0.710330 -0.871855 -1.008405
v -0.540515 -0.641135 -0.522440
v -0.303305 -0.317020 -0.208540
v -0.303300 0.517300 -1.798539
v -0.540510 0.841415 -1.484635
v -0.747730 1.203815 -0.998010
v -0.507005 0.836565 -0.515045
v -0.303305 0.509320 -0.204400
v -0.427955 0.104135 -1.800610
v -0.835310 0.102570 -1.488335
v -1.075465 0.100145 -1.003540
v -0.835315 0.097715 -0.518745
v -0.427955 0.096150 -0.206470
v -0.303300 -0.309035 -1.802675
v 0.539045 -0.636280 -1.492040
v 0.708860 -0.871855 -1.008405
v 0.539045 -0.641135 -0.522440
v 0.301835 -0.317020 -0.208540
v 0.000900 -0.480175 -1.803536
v 0.000900 -0.942320 -1.493570
v 0.000900 -1.152625 -1.009815
v 0.000900 -0.947180 -0.523975
v 0.000900 -0.488160 -0.209395
v 0.000895 0.105000 -1.973740
v 0.000895 0.688445 -1.797680
v 0.000895 1.147460 -1.483100
v 0.000895 1.809025 -0.994980
v 0.000900 1.142605 -0.513510
v 0.000900 0.680460 -0.203540
v 0.301830 0.517300 -1.798539
v 0.539045 0.841415 -1.484635
v 0.746260 1.203815 -0.998010
v 0.505540 0.836565 -0.515045
v 0.301835 0.509320 -0.204400
v 0.000900 0.095285 -0.033340
v 0.426485 0.104135 -1.800610
v 0.833845 0.102570 -1.488335
v 1.073995 0.100145 -1.003540
v 0.833845 0.097715 -0.518745
v 0.426485 0.096150 -0.206470
v 0.301835 -0.309035 -1.802675
vt 0.742320 0.953817
vt 0.732952 0.965550
vt 0.730439 0.940362
vt 0.709234 0.953483
vt 0.724335 0.890423
vt 0.721283 0.908108
vt 0.710206 0.885348
vt 0.696349 0.908072
vt 0.722545 0.925172
vt 0.696349 0.932605
vt 0.803081 0.934294
vt 0.785789 0.954100
vt 0.778146 0.929283
vt 0.772497 0.947119
vt 0.786292 0.875224
vt 0.768010 0.891592
vt 0.761175 0.867432
vt 0.753534 0.880334
vt 0.816340 0.898615
vt 0.781299 0.908582
vt 0.756746 0.947899
vt 0.760885 0.966717
vt 0.733383 0.869718
vt 0.739710 0.887902
vt 0.753123 0.931970
vt 0.744951 0.903327
vt 0.749573 0.917485
vt 0.730439 0.940362
vt 0.742320 0.953817
vt 0.724335 0.890423
vt 0.721283 0.908108
vt 0.721283 0.908108
vt 0.722545 0.925172
vt 0.722545 0.925172
vt 0.730439 0.940362
vt 0.778146 0.929283
vt 0.772497 0.947119
vt 0.753534 0.880334
vt 0.768010 0.891592
vt 0.768010 0.891592
vt 0.781299 0.908582
vt 0.781299 0.908582
vt 0.778146 0.929283
vt 0.756746 0.947899
vt 0.742320 0.953817
vt 0.724335 0.890423
vt 0.739710 0.887902
vt 0.742320 0.953817
vt 0.724335 0.890423
vt 0.772497 0.947119
vt 0.753534 0.880334
vt 0.739710 0.887902
vt 0.753534 0.880334
vt 0.778146 0.929283
vt 0.753123 0.931970
vt 0.772497 0.947119
vt 0.756746 0.947899
vt 0.739710 0.887902
vt 0.744951 0.903327
vt 0.753534 0.880334
vt 0.768010 0.891592
vt 0.772497 0.947119
vt 0.756746 0.947899
vt 0.744951 0.903327
vt 0.749573 0.917485
vt 0.768010 0.891592
vt 0.781299 0.908582
vt 0.781299 0.908582
vt 0.749573 0.917485
vt 0.778146 0.929283
vt 0.753123 0.931970
vt 0.739710 0.887902
vt 0.724335 0.890423
vt 0.744951 0.903327
vt 0.721283 0.908108
vt 0.744951 0.903327
vt 0.721283 0.908108
vt 0.749573 0.917485
vt 0.722545 0.925172
vt 0.722545 0.925172
vt 0.730439 0.940362
vt 0.749573 0.917485
vt 0.753123 0.931970
vt 0.730439 0.940362
vt 0.742320 0.953817
vt 0.753123 0.931970
vt 0.756746 0.947899
vn -0.301664 -0.532219 -0.791038
vn -0.302139 -0.531357 -0.791436
vn -0.302181 -0.531280 -0.791472
vn -0.302181 -0.531280 -0.791472
vn -0.302139 -0.531357 -0.791436
vn -0.302363 -0.530951 -0.791624
vn -0.301657 -0.540127 0.785663
vn -0.302182 -0.539183 0.786109
vn -0.302139 -0.539260 0.786073
vn -0.302139 -0.539260 0.786073
vn -0.302182 -0.539183 0.786109
vn -0.302366 -0.538851 0.786266
vn -0.423635 -0.751972 0.505046
vn -0.385916 -0.810539 0.440562
vn -0.373207 -0.827616 0.419248
vn -0.373207 -0.827616 0.419248
vn -0.385916 -0.810539 0.440562
vn -0.341067 -0.865811 0.366122
vn -0.423631 -0.746882 -0.512547
vn -0.373207 -0.823373 -0.427519
vn -0.385915 -0.806086 -0.448659
vn -0.385915 -0.806086 -0.448659
vn -0.373207 -0.823373 -0.427519
vn -0.341069 -0.862096 -0.374783
vn -0.302375 0.538854 -0.786261
vn -0.302146 0.539262 -0.786069
vn -0.302190 0.539186 -0.786104
vn -0.302190 0.539186 -0.786104
vn -0.302146 0.539262 -0.786069
vn -0.301661 0.540129 -0.785660
vn -0.320332 0.527676 0.786731
vn -0.317455 0.532659 0.784536
vn -0.316687 0.533982 0.783947
vn -0.316687 0.533982 0.783947
vn -0.317455 0.532659 0.784536
vn -0.309498 0.546226 0.778362
vn -0.430318 0.528627 0.731696
vn -0.416522 0.562014 0.714597
vn -0.417856 0.558893 0.716264
vn -0.417856 0.558893 0.716264
vn -0.416522 0.562014 0.714597
vn -0.383464 0.633023 0.672486
vn -0.430322 0.535929 -0.726363
vn -0.414924 0.572842 -0.706888
vn -0.412256 0.578933 -0.703479
vn -0.412256 0.578933 -0.703479
vn -0.414924 0.572842 -0.706888
vn -0.372099 0.661522 -0.651100
vn -0.371991 -0.107624 -0.921976
vn -0.371991 -0.107624 -0.921976
vn -0.371991 -0.107624 -0.921976
vn -0.371990 -0.116839 0.920854
vn -0.371990 -0.116839 0.920854
vn -0.371990 -0.116839 0.920854
vn -0.157836 -0.275788 -0.948171
vn -0.157836 -0.275788 -0.948171
vn -0.157836 -0.275788 -0.948171
vn -0.157830 -0.285264 0.945365
vn -0.157830 -0.285264 0.945365
vn -0.157830 -0.285264 0.945365
vn -0.157823 0.285273 -0.945363
vn -0.157823 0.285273 -0.945363
vn -0.157823 0.285273 -0.945363
vn -0.157827 0.275780 0.948175
vn -0.157827 0.275780 0.948175
vn -0.157827 0.275780 0.948175
vn -0.371989 0.107607 0.921979
vn -0.371988 0.107607 0.921979
vn -0.371988 0.107607 0.921979
vn -0.627262 0.253966 -0.736236
vn -0.620624 0.237097 -0.747403
vn -0.617862 0.230250 -0.751819
vn -0.617862 0.230250 -0.751819
vn -0.620624 0.237097 -0.747403
vn -0.598402 0.184450 -0.779675
vn -0.639886 0.280753 0.715349
vn -0.626246 0.243927 0.740484
vn -0.630791 0.255854 0.732559
vn -0.630791 0.255854 0.732559
vn -0.626246 0.243927 0.740484
vn -0.598399 0.176616 0.781490
vn -0.371994 0.116847 -0.920851
vn -0.371994 0.116847 -0.920851
vn -0.371994 0.116847 -0.920851
vn -0.788946 0.231426 0.569215
vn -0.814303 0.298282 0.497934
vn -0.800061 0.258466 0.541385
vn -0.800061 0.258466 0.541385
vn -0.814303 0.298282 0.497934
vn -0.832517 0.367857 0.414243
vn -0.813293 0.244154 -0.528151
vn -0.820644 0.262967 -0.507338
vn -0.830465 0.291045 -0.474995
vn -0.830465 0.291045 -0.474995
vn -0.820644 0.262967 -0.507338
vn -0.843773 0.338750 -0.416288
vn -0.598394 -0.184438 0.779684
vn -0.617859 -0.230241 0.751824
vn -0.620623 -0.237088 0.747407
vn -0.620623 -0.237088 0.747407
vn -0.617859 -0.230241 0.751824
vn -0.627263 -0.253959 0.736238
vn -0.843778 -0.338748 0.416279
vn -0.841394 -0.328886 0.428824
vn -0.839703 -0.322336 0.437035
vn -0.839703 -0.322336 0.437035
vn -0.841394 -0.328886 0.428824
vn -0.838297 -0.317128 0.443495
vn -0.843776 -0.334556 -0.419659
vn -0.839702 -0.317944 -0.440241
vn -0.841393 -0.324573 -0.432099
vn -0.841393 -0.324573 -0.432099
vn -0.839702 -0.317944 -0.440241
vn -0.838297 -0.312674 -0.446646
vn -0.598402 -0.176635 -0.781483
vn -0.620619 -0.229590 -0.749747
vn -0.617857 -0.222700 -0.754093
vn -0.617857 -0.222700 -0.754093
vn -0.620619 -0.229590 -0.749747
vn -0.627257 -0.246566 -0.738752
vn 0.304031 -0.530655 -0.791183
vn 0.304034 -0.530651 -0.791184
vn 0.304034 -0.530652 -0.791184
vn 0.304034 -0.530652 -0.791184
vn 0.304034 -0.530651 -0.791184
vn 0.304041 -0.530642 -0.791188
vn 0.304037 -0.538547 0.785830
vn 0.304035 -0.538550 0.785829
vn 0.304035 -0.538550 0.785829
vn 0.304035 -0.538550 0.785829
vn 0.304035 -0.538550 0.785829
vn 0.304034 -0.538551 0.785828
vn 0.425549 -0.750812 0.505164
vn 0.374913 -0.826792 0.419350
vn 0.387484 -0.809908 0.440346
vn 0.387484 -0.809908 0.440346
vn 0.374913 -0.826792 0.419350
vn 0.342458 -0.865345 0.365924
vn 0.342460 -0.861632 -0.374582
vn 0.374913 -0.822549 -0.427613
vn 0.387483 -0.805457 -0.448436
vn 0.387483 -0.805457 -0.448436
vn 0.374913 -0.822549 -0.427613
vn 0.425545 -0.745720 -0.512652
vn 0.304036 0.538555 -0.785825
vn 0.304035 0.538554 -0.785826
vn 0.304035 0.538554 -0.785826
vn 0.304035 0.538554 -0.785826
vn 0.304035 0.538554 -0.785826
vn 0.304033 0.538552 -0.785828
vn 0.312003 0.544717 0.778420
vn 0.319507 0.531956 0.784180
vn 0.318746 0.533261 0.783603
vn 0.318746 0.533261 0.783603
vn 0.319507 0.531956 0.784180
vn 0.322191 0.527325 0.786207
vn 0.385260 0.631894 0.672521
vn 0.418190 0.561217 0.714250
vn 0.419420 0.558341 0.715781
vn 0.419420 0.558341 0.715781
vn 0.418190 0.561217 0.714250
vn 0.431853 0.528202 0.731099
vn 0.431854 0.535495 -0.725774
vn 0.413911 0.578139 -0.703159
vn 0.416452 0.572346 -0.706391
vn 0.416452 0.572346 -0.706391
vn 0.413911 0.578139 -0.703159
vn 0.373800 0.660558 -0.651104
vn 0.374407 -0.108354 -0.920912
vn 0.374407 -0.108354 -0.920912
vn 0.374407 -0.108354 -0.920912
vn 0.374412 -0.117565 0.919779
vn 0.374412 -0.117565 0.919779
vn 0.374412 -0.117565 0.919779
vn 0.159502 -0.275710 -0.947915
vn 0.159502 -0.275710 -0.947915
vn 0.159502 -0.275710 -0.947915
vn 0.159502 -0.285187 0.945107
vn 0.159502 -0.285186 0.945107
vn 0.159502 -0.285187 0.945107
vn 0.159490 0.285195 -0.945107
vn 0.159490 0.285195 -0.945107
vn 0.159490 0.285195 -0.945107
vn 0.159499 0.275705 0.947917
vn 0.159499 0.275705 0.947917
vn 0.159499 0.275705 0.947917
vn 0.374410 0.108343 0.920912
vn 0.374410 0.108343 0.920912
vn 0.374410 0.108343 0.920912
vn 0.627259 0.253964 -0.736240
vn 0.617858 0.230248 -0.751823
vn 0.620620 0.237095 -0.747407
vn 0.620620 0.237095 -0.747407
vn 0.617858 0.230248 -0.751823
vn 0.598398 0.184448 -0.779678
vn 0.598399 0.176616 0.781490
vn 0.626244 0.243924 0.740486
vn 0.630789 0.255849 0.732562
vn 0.630789 0.255849 0.732562
vn 0.626244 0.243924 0.740486
vn 0.639884 0.280748 0.715353
vn 0.374409 0.117570 -0.919780
vn 0.374409 0.117570 -0.919780
vn 0.374409 0.117570 -0.919780
vn 0.832519 0.367852 0.414243
vn 0.814305 0.298280 0.497931
vn 0.800064 0.258466 0.541380
vn 0.800064 0.258466 0.541380
vn 0.814305 0.298280 0.497931
vn 0.788950 0.231427 0.569210
vn 0.813297 0.244155 -0.528145
vn 0.830469 0.291046 -0.474988
vn 0.820648 0.262968 -0.507331
vn 0.820648 0.262968 -0.507331
vn 0.830469 0.291046 -0.474988
vn 0.843776 0.338751 -0.416281
vn 0.598394 -0.184439 0.779684
vn 0.620624 -0.237088 0.747406
vn 0.617860 -0.230240 0.751823
vn 0.617860 -0.230240 0.751823
vn 0.620624 -0.237088 0.747406
vn 0.627264 -0.253958 0.736237
vn 0.843778 -0.338748 0.416279
vn 0.839702 -0.322336 0.437035
vn 0.841394 -0.328886 0.428824
vn 0.841394 -0.328886 0.428824
vn 0.839702 -0.322336 0.437035
vn 0.838297 -0.317129 0.443495
vn 0.838297 -0.312674 -0.446646
vn 0.839703 -0.317945 -0.440239
vn 0.841394 -0.324576 -0.432095
vn 0.841394 -0.324576 -0.432095
vn 0.839703 -0.317945 -0.440239
vn 0.843778 -0.334562 -0.419651
vn 0.627259 -0.246571 -0.738748
vn 0.620620 -0.229591 -0.749746
vn 0.617858 -0.222700 -0.754093
vn 0.617858 -0.222700 -0.754093
vn 0.620620 -0.229591 -0.749746
vn 0.598398 -0.176626 -0.781488
s off
g Tail1b
usemtl None
f 15/1/1 20/2/2 1/3/3
f 1/3/4 20/2/5 21/4/6
f 4/5/7 3/6/8 24/7/9
f 24/7/10 3/6/11 23/8/12
f 3/6/13 2/9/14 23/8/15
f 23/8/16 2/9/17 22/10/18
f 1/3/19 21/4/20 2/9/21
f 2/9/22 21/4/23 22/10/24
f 27/11/25 26/12/26 6/13/27
f 6/13/28 26/12/29 5/14/30
f 29/15/31 8/16/32 30/17/33
f 30/17/34 8/16/35 9/18/36
f 28/19/37 7/20/38 29/15/39
f 29/15/40 7/20/41 8/16/42
f 28/19/43 27/11/44 7/20/45
f 7/20/46 27/11/47 6/13/48
f 10/21/49 25/22/50 15/1/51
f 36/23/52 14/24/53 4/5/54
f 15/1/55 25/22/56 20/2/57
f 36/23/58 4/5/59 24/7/60
f 26/12/61 25/22/62 5/14/63
f 36/23/64 30/17/65 9/18/66
f 36/23/67 9/18/68 14/24/69
f 6/13/70 5/14/71 11/25/72
f 11/25/73 5/14/74 10/21/75
f 8/16/76 13/26/77 9/18/78
f 9/18/79 13/26/80 14/24/81
f 5/14/82 25/22/83 10/21/84
f 7/20/85 12/27/86 8/16/87
f 8/16/88 12/27/89 13/26/90
f 7/20/91 6/13/92 12/27/93
f 12/27/94 6/13/95 11/25/96
f 14/24/97 13/26/98 4/5/99
f 4/5/100 13/26/101 3/6/102
f 13/26/103 12/27/104 3/6/105
f 3/6/106 12/27/107 2/9/108
f 11/25/109 1/3/110 12/27/111
f 12/27/112 1/3/113 2/9/114
f 10/21/115 15/1/116 11/25/117
f 11/25/118 15/1/119 1/3/120
f 21/4/121 20/2/122 16/28/123
f 16/28/124 20/2/125 42/29/126
f 19/30/127 24/7/128 18/31/129
f 18/31/130 24/7/131 23/8/132
f 18/32/133 23/8/134 17/33/135
f 17/33/136 23/8/137 22/10/138
f 22/10/139 21/4/140 17/34/141
f 17/34/142 21/4/143 16/35/144
f 27/11/145 32/36/146 26/12/147
f 26/12/148 32/36/149 31/37/150
f 35/38/151 34/39/152 30/17/153
f 30/17/154 34/39/155 29/15/156
f 34/40/157 33/41/158 29/15/159
f 29/15/160 33/41/161 28/19/162
f 28/19/163 33/42/164 27/11/165
f 27/11/166 33/42/167 32/43/168
f 37/44/169 42/45/170 25/22/171
f 36/23/172 19/46/173 41/47/174
f 42/48/175 20/2/176 25/22/177
f 36/23/178 24/7/179 19/49/180
f 26/12/181 31/50/182 25/22/183
f 36/23/184 35/51/185 30/17/186
f 36/23/187 41/52/188 35/53/189
f 32/54/190 38/55/191 31/56/192
f 31/56/193 38/55/194 37/57/195
f 41/58/196 40/59/197 35/60/198
f 35/60/199 40/59/200 34/61/201
f 31/62/202 37/63/203 25/22/204
f 40/64/205 39/65/206 34/66/207
f 34/66/208 39/65/209 33/67/210
f 33/68/211 39/69/212 32/70/213
f 32/70/214 39/69/215 38/71/216
f 41/72/217 19/73/218 40/74/219
f 40/74/220 19/73/221 18/75/222
f 40/76/223 18/77/224 39/78/225
f 39/78/226 18/77/227 17/79/228
f 17/80/229 16/81/230 39/82/231
f 39/82/232 16/81/233 38/83/234
f 16/84/235 42/85/236 38/86/237
f 38/86/238 42/85/239 37/87/240
