# Blender v2.76 (sub 0) OBJ File: ''
# www.blender.org
mtllib cutsapTaller.mtl
o Cylinder.007
v 0.000000 0.425380 -0.694825
v 0.000000 0.634984 -0.584906
v 0.285483 0.634984 -0.342489
v 0.491726 0.350286 -0.057666
v 0.491726 0.350286 0.089264
v 0.409056 0.634984 0.342690
v 0.000000 0.634984 0.669582
v 0.000000 0.425380 0.726423
v -0.409056 0.634984 0.342690
v -0.491726 0.416991 0.116829
v -0.354325 1.251532 0.594567
v 0.011111 1.251532 0.324904
v 0.000000 0.634984 0.015799
v -0.491726 0.416991 -0.085231
v -0.285483 0.634984 -0.342489
v 0.000000 0.006173 -0.839069
v 0.740337 0.006173 -0.411635
v 0.740337 0.006173 0.443233
v 0.000000 0.006173 0.870667
v -0.740337 0.006173 0.443233
v -0.740337 0.006173 -0.411635
v -0.619468 0.215777 0.373449
v -0.619468 0.215777 -0.341851
v 0.000000 0.215777 -0.699501
v 0.000000 0.215777 0.731099
v 0.619468 0.215777 0.373449
v 0.619468 0.215777 -0.341851
v -0.413060 1.371177 -0.624755
v 0.000000 1.371177 -1.021360
v 0.413060 1.371177 -0.624755
v 0.000000 2.510819 -1.338275
v 0.416524 2.510819 -0.939114
v 0.000000 1.371177 -0.319949
v 0.000000 2.510819 -0.631752
v 0.577466 3.480984 -1.014955
v 0.015726 3.302444 -0.599163
v -0.416524 2.510819 -0.939114
v -0.571496 3.430787 -0.973942
v 0.008458 3.383935 -0.564167
v -0.578764 3.710130 -0.788953
v -0.009756 3.609326 -1.501679
v 0.570198 3.774878 -0.792035
v 0.409039 3.778745 -0.455754
v -0.008127 3.448602 -0.518448
v -0.017024 4.167698 -1.106779
v -0.027051 4.152258 -0.440844
v -0.444217 3.740949 -0.485565
v -0.293655 3.578363 -0.321162
v -0.034811 3.755232 -0.135099
v -0.230236 3.459581 -0.332293
v -0.029119 3.401363 -0.426945
v -0.035169 3.315827 -0.430948
v -0.166818 3.340798 -0.343423
v -0.023069 3.453089 -0.453930
v 0.235775 3.584313 -0.291892
v 0.084738 3.328580 -0.336203
v -0.046911 3.263955 -0.308859
v -0.039140 3.252817 -0.407495
v 0.160257 3.456447 -0.314047
v -0.040861 3.445878 -0.150627
v 0.011111 1.251532 0.945446
v 0.011111 2.078128 1.218516
v -0.405412 2.078128 0.819355
v 0.011111 2.078128 0.511993
v -0.579601 2.840001 0.886159
v -0.005436 2.657512 0.461170
v 0.376547 1.251532 0.594567
v 0.427635 2.078128 0.819355
v 0.594775 2.788693 0.844239
v 0.001993 2.740806 0.425400
v 0.602204 3.074215 0.655158
v 0.020610 2.971182 1.383649
v -0.572172 3.140395 0.658310
v -0.407449 3.144348 0.314590
v 0.018945 2.806902 0.378670
v 0.028039 3.541903 0.980015
v 0.038287 3.526123 0.299350
v 0.464680 3.105715 0.345060
v 0.310788 2.939533 0.177021
v 0.046219 3.120315 -0.013157
v 0.245967 2.818124 0.188397
v 0.040401 2.758619 0.285143
v 0.046585 2.690970 0.283294
v 0.181146 2.696714 0.199774
v 0.034217 2.811489 0.312726
v -0.230352 2.945615 0.147103
v -0.075974 2.684226 0.192394
v 0.058587 2.646203 0.132241
v 0.050644 2.613029 0.227287
v -0.153163 2.814920 0.169748
v 0.052403 2.804118 0.002714
vt 0.178706 0.100534
vt 0.172416 0.110009
vt 0.155388 0.105252
vt 0.118499 0.105490
vt 0.097704 0.116233
vt 0.090295 0.103604
vt 0.090720 0.134259
vt 0.095438 0.091118
vt 0.086695 0.191088
vt 0.016490 0.189937
vt 0.182497 0.125928
vt 0.202423 0.131710
vt 0.174945 0.146176
vt 0.856572 0.783215
vt 0.808633 0.700116
vt 0.856601 0.700133
vt 0.232486 0.151533
vt 0.219896 0.151161
vt 0.211100 0.116311
vt 0.205034 0.141622
vt 0.221856 0.110115
vt 0.184876 0.091797
vt 0.084226 0.094806
vt 0.064124 0.123878
vt 0.055616 0.119409
vt 0.073160 0.136289
vt 0.112159 0.065500
vt 0.115425 0.077474
vt 0.130594 0.087144
vt 0.152729 0.075421
vt 0.138938 0.086994
vt 0.154942 0.063558
vt 0.099195 0.154326
vt 0.138604 0.108349
vt 0.186517 0.097201
vt 0.195681 0.192286
vt 0.138327 0.117380
vt 0.138717 0.206292
vt 0.138968 0.308291
vt 0.087226 0.313250
vt 0.239768 0.070122
vt 0.254484 0.174606
vt 0.090647 0.097218
vt 0.081596 0.192397
vt 0.022608 0.174781
vt 0.112121 0.376741
vt 0.069178 0.431670
vt 0.025224 0.325511
vt 0.190389 0.313201
vt 0.252125 0.324720
vt 0.168220 0.377112
vt 0.214026 0.431716
vt 0.205715 0.438054
vt 0.140125 0.369351
vt 0.077056 0.438330
vt 0.119863 0.389904
vt 0.123558 0.401212
vt 0.139029 0.384897
vt 0.161572 0.389123
vt 0.157466 0.400572
vt 0.155432 0.413032
vt 0.139887 0.411566
vt 0.195662 0.438902
vt 0.139387 0.398135
vt 0.177814 0.447604
vt 0.159800 0.458432
vt 0.152728 0.432071
vt 0.186024 0.440721
vt 0.087106 0.441664
vt 0.125682 0.413909
vt 0.130146 0.434326
vt 0.142110 0.437688
vt 0.143852 0.459817
vt 0.140535 0.423060
vt 0.106070 0.453003
vt 0.126241 0.423269
vt 0.155314 0.421945
vt 0.097044 0.445762
vt 0.127247 0.461703
vt 0.156538 0.201833
vt 0.156943 0.292074
vt 0.103262 0.300404
vt 0.129066 0.352325
vt 0.080264 0.410005
vt 0.035744 0.322486
vt 0.225645 0.191611
vt 0.210028 0.300081
vt 0.294838 0.189130
vt 0.277059 0.320472
vt 0.188065 0.352121
vt 0.240058 0.408576
vt 0.231270 0.415913
vt 0.158320 0.344622
vt 0.088664 0.417650
vt 0.136905 0.366239
vt 0.140665 0.378443
vt 0.157306 0.360982
vt 0.181415 0.365078
vt 0.177378 0.377477
vt 0.175609 0.391191
vt 0.158449 0.389988
vt 0.220405 0.417268
vt 0.157794 0.375223
vt 0.201597 0.427511
vt 0.187797 0.436730
vt 0.173551 0.412672
vt 0.210054 0.419688
vt 0.099567 0.421600
vt 0.142733 0.392443
vt 0.147157 0.415716
vt 0.161026 0.416806
vt 0.162757 0.438507
vt 0.159295 0.403003
vt 0.119818 0.434632
vt 0.143093 0.402953
vt 0.175898 0.401121
vt 0.110301 0.426403
vt 0.136346 0.443101
vt 0.193003 0.092273
vt 0.144156 0.101417
vt 0.045291 0.088078
vt 0.880570 0.741682
vt 0.808604 0.783199
vt 0.784635 0.741649
vt 0.191777 0.081388
vt 0.076884 0.085052
vt 0.037297 0.070122
vt 0.242710 0.088078
vn 0.007100 0.305100 -0.952300
vn 0.000000 -0.012000 -0.999900
vn 0.964900 0.215100 -0.150900
vn 0.986300 0.148700 0.071900
vn -0.004500 -0.059000 0.998200
vn 0.005000 0.198600 0.980100
vn -0.980500 0.169900 0.099000
vn -0.999600 -0.010600 -0.025700
vn 0.004300 0.341200 -0.940000
vn -0.951700 0.249200 -0.179500
vn -0.681500 0.727200 -0.082100
vn 0.031500 0.992900 -0.114700
vn 0.799500 -0.384200 -0.461600
vn -0.799500 -0.384200 0.461600
vn -0.799500 -0.384200 -0.461600
vn -0.692400 0.607000 0.390000
vn -0.692400 0.607000 -0.390000
vn -0.718400 0.694000 0.048200
vn 0.000000 0.329200 -0.944300
vn 0.000000 0.329200 0.944300
vn 0.799500 -0.384200 0.461600
vn 0.660800 0.657800 0.361600
vn 0.678600 0.734300 0.014900
vn 0.660800 0.657800 -0.361600
vn 0.646900 0.761400 -0.042500
vn -0.995100 -0.084100 0.052700
vn 0.000000 -0.372900 -0.927900
vn -0.004300 -0.222500 -0.974900
vn 0.995300 -0.093400 0.024800
vn 0.000000 0.280500 0.959900
vn 0.995100 -0.084100 0.052700
vn 0.989600 -0.015400 -0.142900
vn 0.053700 -0.214800 0.975200
vn -0.003700 0.119900 0.992800
vn -0.996300 -0.083300 0.021900
vn -0.994600 -0.073800 -0.072900
vn 0.011300 -0.549400 0.835500
vn -0.028200 0.236900 -0.971100
vn 0.968700 0.229200 0.095400
vn 0.849100 0.045700 0.526300
vn -0.046000 0.886100 -0.461200
vn -0.974800 0.184200 0.125900
vn -0.907000 0.027300 0.420200
vn -0.840700 -0.398700 0.366500
vn -0.047100 0.298700 0.953200
vn -0.100800 -0.871200 0.480400
vn -0.067100 0.906200 0.417600
vn 0.044700 -0.247500 -0.967800
vn 0.032200 -0.159200 -0.986700
vn -0.828000 -0.543200 -0.139200
vn -0.010400 -0.898300 -0.439200
vn 0.802200 -0.395000 0.447600
vn 0.795100 -0.601600 -0.077200
vn -0.070400 -0.887300 0.455900
vn -0.006300 -0.837700 -0.546000
vn -0.045600 -0.370300 0.927800
vn 0.858100 -0.507500 -0.077900
vn -0.872800 -0.462000 -0.157600
vn 0.002200 -0.354400 0.935100
vn 0.004900 -0.265100 0.964200
vn -0.987400 -0.155200 -0.032500
vn -0.988300 -0.039700 0.147100
vn -0.053700 -0.238800 -0.969600
vn 0.005500 0.072000 -0.997400
vn 0.999200 -0.027500 -0.029100
vn 0.988900 -0.146100 -0.028500
vn 0.992000 -0.100300 0.076700
vn -0.011300 -0.549400 -0.835500
vn 0.028000 0.222400 0.974600
vn -0.968700 0.229200 -0.095400
vn -0.849100 0.045700 -0.526300
vn 0.046000 0.886100 0.461200
vn 0.974800 0.184200 -0.125900
vn 0.907000 0.027300 -0.420200
vn 0.840700 -0.398700 -0.366500
vn 0.047100 0.298700 -0.953200
vn 0.100800 -0.871200 -0.480400
vn 0.067100 0.906200 -0.417600
vn -0.044000 -0.272900 0.961000
vn -0.014300 -0.291900 0.956300
vn 0.801500 -0.575500 0.162300
vn 0.010400 -0.898300 0.439200
vn -0.802200 -0.395100 -0.447600
vn -0.769200 -0.630600 0.103500
vn 0.071000 -0.802400 -0.592500
vn 0.012600 -0.949300 0.314000
vn 0.045200 -0.364300 -0.930200
vn -0.858100 -0.507500 0.077900
vn 0.872800 -0.462000 0.157600
vn 0.000000 -0.384200 -0.923200
vn -0.000000 -0.384200 0.923200
usemtl Material.011
s 1
f 1/1/1 2/2/2 3/3/3
f 6/4/4 7/5/5 8/6/6
f 8/6/6 7/5/5 9/7/7
f 9/8/7 11/9/8 12/10/9
f 15/11/10 2/2/2 1/1/1
f 14/12/11 13/13/12 15/11/10
f 17/14/13 20/15/14 21/16/15
f 20/17/14 22/18/16 23/19/17
f 10/20/18 14/12/11 23/19/17
f 21/21/15 23/19/17 24/22/19
f 23/19/17 14/12/11 1/1/1
f 25/23/20 22/24/16 20/25/14
f 8/6/6 10/26/18 22/24/16
f 18/27/21 26/28/22 25/23/20
f 26/28/22 5/29/23 8/6/6
f 27/30/24 26/28/22 18/27/21
f 4/31/25 5/29/23 26/28/22
f 24/22/19 27/30/24 17/32/13
f 1/1/1 4/31/25 27/30/24
f 10/26/18 9/7/7 13/33/12
f 2/34/2 15/35/10 28/36/26
f 3/3/3 13/37/12 4/31/25
f 29/38/27 31/39/28 32/40/29
f 15/35/10 13/41/12 33/42/30
f 3/43/3 30/44/31 33/45/30
f 2/34/2 29/38/27 30/44/31
f 32/40/29 35/46/32 36/47/33
f 30/44/31 32/40/29 34/48/34
f 29/38/27 28/36/26 37/49/35
f 28/36/26 33/42/30 34/50/34
f 38/51/36 36/52/33 39/53/37
f 31/39/28 37/49/35 38/51/36
f 37/49/35 34/50/34 36/52/33
f 31/39/28 41/54/38 35/46/32
f 39/55/37 42/56/39 43/57/40
f 35/46/32 41/54/38 45/58/41
f 35/46/32 42/56/39 39/55/37
f 41/54/38 38/51/36 40/59/42
f 47/60/43 48/61/44 49/62/45
f 45/58/41 40/59/42 47/60/43
f 40/59/42 39/53/37 44/63/46
f 42/56/39 45/58/41 46/64/47
f 51/65/48 52/66/49 53/67/50
f 44/63/46 54/68/51 48/61/44
f 43/57/40 46/64/47 49/62/45
f 44/69/46 43/57/40 55/70/52
f 56/71/53 57/72/54 58/73/55
f 60/74/56 57/72/54 56/71/53
f 51/75/48 59/76/57 56/71/53
f 60/74/56 50/77/58 53/67/50
f 48/61/44 50/77/58 60/74/56
f 54/78/51 55/70/52 59/76/57
f 55/70/52 49/62/45 60/74/56
f 54/68/51 51/65/48 50/77/58
f 57/72/54 53/67/50 58/73/55
f 52/79/49 56/71/53 58/73/55
f 53/67/50 52/66/49 58/73/55
f 61/80/59 62/81/60 63/82/61
f 63/82/61 65/83/62 66/84/63
f 11/9/8 63/82/61 64/85/64
f 61/80/59 67/86/65 68/87/66
f 67/86/65 12/88/9 64/89/64
f 69/90/67 66/91/63 70/92/68
f 62/81/60 68/87/66 69/90/67
f 68/87/66 64/89/64 66/91/63
f 62/81/60 72/93/69 65/83/62
f 70/94/68 73/95/70 74/96/71
f 65/83/62 72/93/69 76/97/72
f 65/83/62 73/95/70 70/94/68
f 72/93/69 69/90/67 71/98/73
f 78/99/74 79/100/75 80/101/76
f 76/97/72 71/98/73 78/99/74
f 71/98/73 70/92/68 75/102/77
f 73/95/70 76/97/72 77/103/78
f 82/104/79 83/105/80 84/106/81
f 75/102/77 85/107/82 79/100/75
f 74/96/71 77/103/78 80/101/76
f 75/108/77 74/96/71 86/109/83
f 87/110/84 88/111/85 89/112/86
f 91/113/87 88/111/85 87/110/84
f 82/114/79 90/115/88 87/110/84
f 91/113/87 81/116/89 84/106/81
f 79/100/75 81/116/89 91/113/87
f 85/117/82 86/109/83 90/115/88
f 86/109/83 80/101/76 91/113/87
f 85/107/82 82/104/79 81/116/89
f 88/111/85 84/106/81 89/112/86
f 83/118/80 87/110/84 89/112/86
f 84/106/81 83/105/80 89/112/86
f 12/88/9 67/86/65 6/119/4
f 7/120/5 6/119/4 67/86/65
f 11/9/8 9/8/7 7/120/5
f 5/29/23 4/31/25 13/37/12
f 14/12/11 10/20/18 13/13/12
f 6/4/4 5/29/23 13/37/12
f 4/31/25 1/1/1 3/3/3
f 5/29/23 6/4/4 8/6/6
f 10/26/18 8/6/6 9/7/7
f 13/121/12 9/8/7 12/10/9
f 14/12/11 15/11/10 1/1/1
f 21/16/15 16/122/90 17/14/13
f 17/14/13 18/123/21 19/124/91
f 19/124/91 20/15/14 17/14/13
f 21/21/15 20/17/14 23/19/17
f 22/18/16 10/20/18 23/19/17
f 16/125/90 21/21/15 24/22/19
f 24/22/19 23/19/17 1/1/1
f 19/126/91 25/23/20 20/25/14
f 25/23/20 8/6/6 22/24/16
f 19/126/91 18/27/21 25/23/20
f 25/23/20 26/28/22 8/6/6
f 17/32/13 27/30/24 18/27/21
f 27/30/24 4/31/25 26/28/22
f 16/125/90 24/22/19 17/32/13
f 24/22/19 1/1/1 27/30/24
f 29/38/27 2/34/2 28/36/26
f 30/44/31 29/38/27 32/40/29
f 28/36/26 15/35/10 33/42/30
f 13/127/12 3/43/3 33/45/30
f 3/43/3 2/34/2 30/44/31
f 34/48/34 32/40/29 36/47/33
f 33/45/30 30/44/31 34/48/34
f 31/39/28 29/38/27 37/49/35
f 37/49/35 28/36/26 34/50/34
f 40/59/42 38/51/36 39/53/37
f 41/54/38 31/39/28 38/51/36
f 38/51/36 37/49/35 36/52/33
f 32/40/29 31/39/28 35/46/32
f 44/69/46 39/55/37 43/57/40
f 42/56/39 35/46/32 45/58/41
f 36/47/33 35/46/32 39/55/37
f 45/58/41 41/54/38 40/59/42
f 46/64/47 47/60/43 49/62/45
f 46/64/47 45/58/41 47/60/43
f 47/60/43 40/59/42 44/63/46
f 43/57/40 42/56/39 46/64/47
f 50/77/58 51/65/48 53/67/50
f 47/60/43 44/63/46 48/61/44
f 55/70/52 43/57/40 49/62/45
f 54/78/51 44/69/46 55/70/52
f 59/76/57 60/74/56 56/71/53
f 52/79/49 51/75/48 56/71/53
f 57/72/54 60/74/56 53/67/50
f 49/62/45 48/61/44 60/74/56
f 51/75/48 54/78/51 59/76/57
f 59/76/57 55/70/52 60/74/56
f 48/61/44 54/68/51 50/77/58
f 11/9/8 61/80/59 63/82/61
f 64/85/64 63/82/61 66/84/63
f 12/10/9 11/9/8 64/85/64
f 62/81/60 61/80/59 68/87/66
f 68/87/66 67/86/65 64/89/64
f 71/98/73 69/90/67 70/92/68
f 72/93/69 62/81/60 69/90/67
f 69/90/67 68/87/66 66/91/63
f 63/82/61 62/81/60 65/83/62
f 75/108/77 70/94/68 74/96/71
f 73/95/70 65/83/62 76/97/72
f 66/84/63 65/83/62 70/94/68
f 76/97/72 72/93/69 71/98/73
f 77/103/78 78/99/74 80/101/76
f 77/103/78 76/97/72 78/99/74
f 78/99/74 71/98/73 75/102/77
f 74/96/71 73/95/70 77/103/78
f 81/116/89 82/104/79 84/106/81
f 78/99/74 75/102/77 79/100/75
f 86/109/83 74/96/71 80/101/76
f 85/117/82 75/108/77 86/109/83
f 90/115/88 91/113/87 87/110/84
f 83/118/80 82/114/79 87/110/84
f 88/111/85 91/113/87 84/106/81
f 80/101/76 79/100/75 91/113/87
f 82/114/79 85/117/82 90/115/88
f 90/115/88 86/109/83 91/113/87
f 79/100/75 85/107/82 81/116/89
f 13/128/12 12/88/9 6/119/4
f 61/80/59 7/120/5 67/86/65
f 61/80/59 11/9/8 7/120/5
