# This file uses centimeters as units for non-parametric coordinates.

mtllib FrontRight.mtl
v -7.176329 -1.375989 7.199458
v -0.239198 -1.189873 4.598341
v -7.406047 0.812990 4.873852
v -7.886303 -1.171684 5.249881
v -6.723161 0.670408 6.616383
v -5.087311 0.685455 7.671079
v -5.466637 -1.291163 8.228915
v -0.338668 0.228528 5.182715
v -7.436176 -2.778443 5.437129
v -6.719427 -2.760735 6.792366
v -5.244206 -2.721304 7.637208
v -5.091587 1.804983 4.034203
v -4.713658 1.794054 4.640328
v -5.202230 1.302303 3.206149
v -7.112756 0.741699 5.697300
v -4.955812 0.831240 1.996374
v -6.550319 0.249428 2.485586
v -1.887080 0.870681 5.244799
v -0.336913 0.940782 4.673198
v -3.268339 1.306321 5.455902
v -2.601316 0.056637 7.090067
v -4.158219 1.800310 5.184320
v -5.953388 0.677931 7.095914
v -2.742283 -2.878611 5.431190
v -5.566701 -3.094500 2.919932
v -4.219263 -3.084706 4.180906
v -3.355477 1.382582 1.920167
v -3.634483 1.370186 1.257715
v -1.940743 1.491423 3.723412
v -2.363051 1.469250 3.272727
v -2.785357 1.447078 2.822043
v -3.070417 1.414829 2.371105
v -3.913488 1.055951 0.595262
v -4.596408 0.756839 0.597106
v -5.097424 -0.066407 0.602447
v -0.271132 1.233929 4.175622
v -1.105938 1.513595 3.949517
v -5.011520 -1.413901 0.622871
v -3.697226 -1.827484 0.402734
v -2.210064 -1.609923 2.283806
v -0.240359 -1.452843 3.225171
v -0.240359 -1.452843 3.225171
v -2.210064 -1.609923 2.283806
v -3.697226 -1.827484 0.402734
v -0.200866 -0.135140 0.386706
vt 0.378950 0.762098
vt 0.347895 0.753250
vt 0.379064 0.754821
vt 0.349182 0.737627
vt 0.379178 0.746093
vt 0.017998 0.919138
vt 0.047985 0.888643
vt 0.031945 0.925051
vt 0.057184 0.894378
vt 0.069750 0.896057
vt 0.089265 0.868032
vt 0.088109 0.892318
vt 0.099319 0.872266
vt 0.010809 0.856587
vt 0.039754 0.822250
vt 0.038812 0.845748
vt 0.047487 0.822223
vt 0.061900 0.846563
vt 0.068740 0.852971
vt 0.035609 0.866710
vt 0.039730 0.880214
vt 0.075579 0.859380
vt 0.082422 0.863706
vt 0.044442 0.929502
vt 0.109372 0.876500
vt 0.109344 0.886864
vt 0.109263 0.894467
vt 0.080685 0.916516
vt 0.055038 0.821225
vt 0.058469 0.833894
vt 0.001992 0.894314
vt 0.010720 0.907457
vt 0.326880 0.759428
vt 0.326611 0.779994
vt 0.350995 0.782836
vt 0.412947 0.914971
vt 0.411659 0.940916
vt 0.391243 0.911595
vt 0.390645 0.933982
vt 0.380032 0.776046
vt 0.381114 0.788542
vt 0.372561 0.824785
vt 0.347319 0.853053
vt 0.367768 0.853363
vt 0.414484 0.835641
vt 0.436009 0.837151
vt 0.433400 0.871488
vt 0.442943 0.909214
vt 0.079550 0.678990
vt 0.041582 0.712467
vt 0.057136 0.660016
vt 0.019195 0.699646
vt 0.036688 0.640880
vt 0.008318 0.679080
vt 0.321815 0.818194
vt 0.341043 0.856394
vt 0.388856 0.873627
vt 0.410493 0.835659
vt 0.087627 0.631226
vt 0.065058 0.602680
vt 0.117518 0.645512
vt 0.087627 0.631226
vt 0.065058 0.602680
vt 0.118118 0.602437
vt 0.117518 0.645512
vn -0.641734 0.554185 0.530148
vn -0.752823 0.038599 0.657090
vn -0.383380 0.615534 0.688576
vn 0.267954 -0.275620 0.923165
vn 0.231935 0.258384 0.937787
vn -0.752823 0.038599 0.657090
vn -0.752823 0.038599 0.657090
vn 0.231935 0.258384 0.937787
vn -0.383380 0.615534 0.688576
vn -0.641734 0.554185 0.530148
vn -0.142155 0.982314 0.121865
vn -0.768525 0.572660 0.285359
vn -0.768525 0.572660 0.285359
vn -0.142155 0.982314 0.121865
vn -0.248341 0.967240 -0.052658
vn -0.377214 0.873697 -0.307186
vn -0.882573 -0.114453 0.456032
vn -0.460267 0.822606 -0.333877
vn -0.460267 0.822606 -0.333877
vn -0.882573 -0.114453 0.456032
vn -0.879759 -0.123756 0.459029
vn 0.518943 0.076134 0.851412
vn 0.076523 -0.045964 0.996008
vn 0.280473 0.820834 0.497561
vn 0.280473 0.820834 0.497561
vn 0.076523 -0.045964 0.996008
vn 0.042303 0.829478 0.556935
vn -0.523314 -0.116234 0.844175
vn -0.536405 -0.137301 0.832717
vn 0.241709 0.878623 0.411824
vn 0.241709 0.878623 0.411824
vn -0.536405 -0.137301 0.832717
vn 0.001840 0.968345 0.249609
vn -0.142155 0.982314 0.121865
vn -0.732770 -0.128871 0.668162
vn -0.248341 0.967240 -0.052658
vn -0.248341 0.967240 -0.052658
vn -0.732770 -0.128871 0.668162
vn -0.877393 -0.119158 0.464739
vn -0.882573 -0.114453 0.456032
vn -0.377214 0.873697 -0.307186
vn -0.877393 -0.119158 0.464739
vn -0.877393 -0.119158 0.464739
vn -0.377214 0.873697 -0.307186
vn -0.248341 0.967240 -0.052658
vn -0.377214 0.873697 -0.307186
vn -0.911443 0.303610 -0.277657
vn -0.248341 0.967240 -0.052658
vn -0.248341 0.967240 -0.052658
vn -0.911443 0.303610 -0.277657
vn -0.768525 0.572660 0.285359
vn -0.989043 -0.147587 0.003449
vn -0.562000 0.826566 -0.030750
vn -0.879759 -0.123756 0.459029
vn -0.879759 -0.123756 0.459029
vn -0.562000 0.826566 -0.030750
vn -0.460267 0.822606 -0.333877
vn -0.562000 0.826566 -0.030750
vn -0.987216 0.156787 0.028690
vn -0.460267 0.822606 -0.333877
vn -0.460267 0.822606 -0.333877
vn -0.987216 0.156787 0.028690
vn -0.841691 0.182667 -0.508123
vn -0.911443 0.303610 -0.277657
vn -0.377214 0.873697 -0.307186
vn -0.841691 0.182667 -0.508123
vn -0.841691 0.182667 -0.508123
vn -0.377214 0.873697 -0.307186
vn -0.460267 0.822606 -0.333877
vn 0.025685 -0.188843 0.981671
vn -0.528024 -0.147194 0.836376
vn 0.042303 0.829478 0.556935
vn 0.042303 0.829478 0.556935
vn -0.528024 -0.147194 0.836376
vn 0.280473 0.820834 0.497561
vn -0.528024 -0.147194 0.836376
vn -0.523314 -0.116234 0.844175
vn 0.280473 0.820834 0.497561
vn 0.280473 0.820834 0.497561
vn -0.523314 -0.116234 0.844175
vn 0.241709 0.878623 0.411824
vn 0.231935 0.258384 0.937787
vn 0.518943 0.076134 0.851412
vn 0.241709 0.878623 0.411824
vn 0.241709 0.878623 0.411824
vn 0.518943 0.076134 0.851412
vn 0.280473 0.820834 0.497561
vn -0.732770 -0.128871 0.668162
vn -0.142155 0.982314 0.121865
vn -0.536405 -0.137301 0.832717
vn -0.536405 -0.137301 0.832717
vn -0.142155 0.982314 0.121865
vn 0.001840 0.968345 0.249609
vn -0.641734 0.554185 0.530148
vn -0.383380 0.615534 0.688576
vn -0.142155 0.982314 0.121865
vn -0.142155 0.982314 0.121865
vn -0.383380 0.615534 0.688576
vn 0.001840 0.968345 0.249609
vn -0.383380 0.615534 0.688576
vn 0.231935 0.258384 0.937787
vn 0.001840 0.968345 0.249609
vn 0.001840 0.968345 0.249609
vn 0.231935 0.258384 0.937787
vn 0.241709 0.878623 0.411824
vn -0.325622 -0.885873 0.330453
vn -0.752823 0.038599 0.657090
vn -0.634903 -0.735824 -0.235502
vn -0.634903 -0.735824 -0.235502
vn -0.752823 0.038599 0.657090
vn -0.937160 -0.189786 -0.292767
vn 0.267954 -0.275620 0.923165
vn -0.752823 0.038599 0.657090
vn 0.313803 -0.748621 0.584032
vn 0.313803 -0.748621 0.584032
vn -0.752823 0.038599 0.657090
vn -0.325622 -0.885873 0.330453
vn -0.641734 0.554185 0.530148
vn -0.768525 0.572660 0.285359
vn -0.752823 0.038599 0.657090
vn -0.752823 0.038599 0.657090
vn -0.768525 0.572660 0.285359
vn -0.937160 -0.189786 -0.292767
vn -0.911443 0.303610 -0.277657
vn -0.937160 -0.189786 -0.292767
vn -0.768525 0.572660 0.285359
vn -0.911443 0.303610 -0.277657
vn -0.841691 0.182667 -0.508123
vn -0.937160 -0.189786 -0.292767
vn -0.933386 -0.358198 -0.022018
vn -0.937160 -0.189786 -0.292767
vn -0.987216 0.156787 0.028690
vn -0.987216 0.156787 0.028690
vn -0.937160 -0.189786 -0.292767
vn -0.841691 0.182667 -0.508123
vn 0.062490 -0.430667 0.900345
vn 0.076523 -0.045964 0.996008
vn 0.267954 -0.275620 0.923165
vn 0.076523 -0.045964 0.996008
vn 0.518943 0.076134 0.851412
vn 0.267954 -0.275620 0.923165
vn 0.267954 -0.275620 0.923165
vn 0.518943 0.076134 0.851412
vn 0.231935 0.258384 0.937787
vn 0.482131 -0.796663 0.364524
vn 0.313803 -0.748621 0.584032
vn -0.028222 -0.995758 0.087580
vn -0.028222 -0.995758 0.087580
vn 0.313803 -0.748621 0.584032
vn -0.325622 -0.885873 0.330453
vn -0.403399 -0.804607 -0.435749
vn -0.028222 -0.995758 0.087580
vn -0.634903 -0.735824 -0.235502
vn -0.634903 -0.735824 -0.235502
vn -0.028222 -0.995758 0.087580
vn -0.325622 -0.885873 0.330453
vn -0.937160 -0.189786 -0.292767
vn -0.933386 -0.358198 -0.022018
vn -0.634903 -0.735824 -0.235502
vn -0.634903 -0.735824 -0.235502
vn -0.933386 -0.358198 -0.022018
vn -0.403399 -0.804607 -0.435749
vn -0.933386 -0.358198 -0.022018
vn -0.290653 -0.956792 -0.008423
vn -0.403399 -0.804607 -0.435749
vn 0.267954 -0.275620 0.923165
vn 0.313803 -0.748621 0.584032
vn 0.062490 -0.430667 0.900345
vn 0.313803 -0.748621 0.584032
vn 0.482131 -0.796663 0.364524
vn 0.062490 -0.430667 0.900345
vn 0.062490 -0.430667 0.900345
vn 0.482131 -0.796663 0.364524
vn 0.020754 -0.946798 0.321158
vn 0.325552 -0.902965 -0.280481
vn -0.403399 -0.804607 -0.435749
vn 0.321063 -0.903018 -0.285441
vn 0.321063 -0.903018 -0.285441
vn -0.403399 -0.804607 -0.435749
vn -0.290653 -0.956792 -0.008423
vn 0.020754 -0.946798 0.321158
vn 0.482131 -0.796663 0.364524
vn 0.321063 -0.903018 -0.285441
vn 0.321063 -0.903018 -0.285441
vn 0.482131 -0.796663 0.364524
vn 0.325552 -0.902965 -0.280481
vn 0.360801 -0.881895 -0.303454
vn 0.435435 -0.899196 0.042935
vn 0.015684 -0.999170 0.037588
vn -0.003599 -0.907003 -0.421109
vn 0.360801 -0.881895 -0.303454
vn 0.015684 -0.999170 0.037588
s off
usemtl WobbuffetSeperated:initialShadingGroup
f 5/1/1 1/2/2 23/3/3
f 7/4/4 6/5/5 1/2/6
f 1/2/7 6/5/8 23/3/9
f 5/6/10 13/7/11 15/8/12
f 15/8/13 13/7/14 12/9/15
f 14/10/16 27/11/17 16/12/18
f 16/12/19 27/11/20 28/13/21
f 21/14/22 8/15/23 18/16/24
f 18/16/25 8/15/26 19/17/27
f 29/18/28 30/19/29 20/20/30
f 20/20/31 30/19/32 22/21/33
f 13/7/34 31/22/35 12/9/36
f 12/9/37 31/22/38 32/23/39
f 27/11/40 14/10/41 32/23/42
f 32/23/43 14/10/44 12/9/45
f 14/10/46 3/24/47 12/9/48
f 12/9/49 3/24/50 15/8/51
f 33/25/52 34/26/53 28/13/54
f 28/13/55 34/26/56 16/12/57
f 34/26/58 35/27/59 16/12/60
f 16/12/61 35/27/62 17/28/63
f 3/24/64 14/10/65 17/28/66
f 17/28/67 14/10/68 16/12/69
f 36/29/70 37/30/71 19/17/72
f 19/17/73 37/30/74 18/16/75
f 37/30/76 29/18/77 18/16/78
f 18/16/79 29/18/80 20/20/81
f 6/31/82 21/14/83 20/20/84
f 20/20/85 21/14/86 18/16/87
f 31/22/88 13/7/89 30/19/90
f 30/19/91 13/7/92 22/21/93
f 5/6/94 23/32/95 13/7/96
f 13/7/97 23/32/98 22/21/99
f 23/32/100 6/31/101 22/21/102
f 22/21/103 6/31/104 20/20/105
f 10/33/106 1/2/107 9/34/108
f 9/34/109 1/2/110 4/35/111
f 7/36/112 1/37/113 11/38/114
f 11/38/115 1/37/116 10/39/117
f 5/1/118 15/40/119 1/2/120
f 1/2/121 15/40/122 4/35/123
f 3/41/124 4/35/125 15/40/126
f 3/41/127 17/42/128 4/35/129
f 38/43/130 4/35/131 35/44/132
f 35/44/133 4/35/134 17/42/135
f 2/45/136 8/46/137 7/36/138
f 8/46/139 21/47/140 7/36/141
f 7/36/142 21/47/143 6/48/144
f 24/49/145 11/50/146 26/51/147
f 26/51/148 11/50/149 10/52/150
f 25/53/151 26/51/152 9/54/153
f 9/54/154 26/51/155 10/52/156
f 4/35/157 38/43/158 9/34/159
f 9/34/160 38/43/161 25/55/162
f 38/43/163 39/56/164 25/55/165
f 7/36/166 11/38/167 2/45/168
f 11/38/169 24/57/170 2/45/171
f 2/45/172 24/57/173 41/58/174
f 26/51/175 25/53/176 40/59/177
f 40/59/178 25/53/179 39/60/180
f 41/61/181 24/49/182 40/59/183
f 40/59/184 24/49/185 26/51/186
f 43/62/187 44/63/188 45/64/189
f 42/65/190 43/62/191 45/64/192
