# Blender v2.76 (sub 0) OBJ File: 'Stage1&2.blend'
# www.blender.org
mtllib Stage1.mtl
o Stage1_Esfera.001
v -0.000000 -0.000000 0.230931
v 0.000000 0.121430 0.142723
v -0.123602 0.121430 0.071362
v -0.199992 0.000000 0.115466
v -0.123602 0.121430 -0.071362
v -0.199992 -0.000000 -0.115466
v 0.000000 0.121430 -0.142723
v 0.000000 0.000000 -0.230931
v 0.123602 0.121430 -0.071362
v 0.199992 -0.000000 -0.115466
v 0.123602 0.121430 0.071362
v 0.199992 0.000000 0.115466
v 0.000000 0.167804 0.000000
vt 0.500000 0.016338
vt 0.500000 0.201081
vt 0.241128 0.350540
vt 0.081136 0.258169
vt 0.241128 0.649460
vt 0.500000 0.798919
vt 0.500000 0.983662
vt 0.758872 0.649460
vt 0.758872 0.350540
vt 0.918863 0.258169
vt 0.500000 0.500000
vt 0.081137 0.741831
vt 0.918864 0.741831
vn -0.000000 0.587700 0.809100
vn -0.000000 0.762800 0.646700
vn -0.560000 0.762800 0.323300
vn -0.700700 0.587700 0.404500
vn -0.560000 0.762800 -0.323300
vn 0.000000 0.762800 -0.646700
vn 0.000000 0.587700 -0.809100
vn 0.560000 0.762800 -0.323300
vn 0.560000 0.762800 0.323300
vn 0.700700 0.587700 0.404500
vn 0.000000 1.000000 0.000000
vn -0.700700 0.587700 -0.404500
vn 0.700700 0.587700 -0.404500
usemtl Material.002
s 1
f 1/1/1 2/2/2 3/3/3
f 4/4/4 3/3/3 5/5/5
f 5/5/5 7/6/6 8/7/7
f 8/7/7 7/6/6 9/8/8
f 9/8/8 11/9/9 12/10/10
f 2/2/2 13/11/11 3/3/3
f 3/3/3 13/11/11 5/5/5
f 5/5/5 13/11/11 7/6/6
f 7/6/6 13/11/11 9/8/8
f 9/8/8 13/11/11 11/9/9
f 11/9/9 2/2/2 1/1/1
f 11/9/9 13/11/11 2/2/2
f 4/4/4 1/1/1 3/3/3
f 6/12/12 4/4/4 5/5/5
f 6/12/12 5/5/5 8/7/7
f 10/13/13 8/7/7 9/8/8
f 10/13/13 9/8/8 12/10/10
f 12/10/10 11/9/9 1/1/1
