# This file uses centimeters as units for non-parametric coordinates.

mtllib SerperiorTail6.mtl
g default
v -0.006326 0.672009 -5.107033
v 0.620156 0.507662 -4.967464
v 0.778345 -0.035940 -4.987499
v 0.663288 -0.466980 -5.078182
v -0.006326 -0.467332 -5.235928
v -0.632808 0.507662 -4.967464
v -0.790997 -0.035940 -4.987499
v -0.675940 -0.466980 -5.078182
v -0.006326 1.369615 0.035816
v 0.956931 1.098269 0.180683
v 1.186958 0.249481 0.163490
v 1.022735 -0.434031 0.072411
v -0.006326 -0.434399 -0.092457
v -0.969584 1.098269 0.180683
v -1.199610 0.249481 0.163490
v -1.035388 -0.434031 0.072411
vt 0.512560 0.318896
vt 0.538038 0.311027
vt 0.513433 0.322512
vt 0.538878 0.313216
vt 0.568787 0.038198
vt 0.569052 0.023577
vt 0.638605 0.031479
vt 0.639223 0.020714
vt 0.604247 0.079641
vt 0.605392 0.066902
vt 0.680802 0.073024
vt 0.682748 0.064959
vt 0.161618 0.841985
vt 0.162091 0.841930
vt 0.173757 0.837070
vt 0.174210 0.837018
vt 0.538038 0.311027
vt 0.512560 0.318896
vt 0.568787 0.038198
vt 0.638605 0.031479
vt 0.569052 0.023577
vt 0.639223 0.020714
vt 0.604247 0.079641
vt 0.680802 0.073024
vt 0.605392 0.066902
vt 0.682748 0.064959
vt 0.161618 0.841985
vt 0.173757 0.837070
vt 0.541501 0.519068
vt 0.539256 0.504880
vt 0.539578 0.457948
vt 0.541037 0.420735
vt 0.543575 0.420705
vt 0.541037 0.420735
vt 0.539578 0.457948
vt 0.539256 0.504880
vt 0.456425 0.555869
vt 0.458756 0.579295
vt 0.456425 0.555869
vt 0.456701 0.482590
vt 0.458167 0.423580
vt 0.460820 0.423548
vt 0.458167 0.423580
vt 0.456701 0.482590
vn 0.283412 0.950385 -0.128243
vn 0.283412 0.950385 -0.128243
vn 0.283412 0.950385 -0.128243
vn 0.283412 0.950385 -0.128243
vn 0.283412 0.950385 -0.128243
vn 0.283412 0.950385 -0.128243
vn 0.958506 0.269711 -0.092312
vn 0.993917 0.071164 -0.084054
vn 0.958506 0.269711 -0.092312
vn 0.958506 0.269711 -0.092312
vn 0.993917 0.071164 -0.084054
vn 0.996387 0.023583 -0.081590
vn 0.993917 0.071164 -0.084054
vn 0.970403 -0.232532 -0.065165
vn 0.996387 0.023583 -0.081590
vn 0.996387 0.023583 -0.081590
vn 0.970403 -0.232532 -0.065165
vn 0.970403 -0.232532 -0.065165
vn -0.000797 -0.999979 0.006428
vn -0.000797 -0.999979 0.006428
vn -0.000797 -0.999979 0.006428
vn -0.000797 -0.999979 0.006428
vn -0.000797 -0.999979 0.006428
vn -0.000797 -0.999979 0.006428
vn -0.283412 0.950385 -0.128243
vn -0.283412 0.950385 -0.128243
vn -0.283412 0.950385 -0.128243
vn -0.283412 0.950385 -0.128243
vn -0.283412 0.950385 -0.128243
vn -0.283412 0.950385 -0.128243
vn -0.958506 0.269711 -0.092312
vn -0.958506 0.269711 -0.092312
vn -0.993917 0.071165 -0.084054
vn -0.993917 0.071165 -0.084054
vn -0.958506 0.269711 -0.092312
vn -0.996387 0.023583 -0.081590
vn -0.993917 0.071165 -0.084054
vn -0.996387 0.023583 -0.081590
vn -0.970403 -0.232532 -0.065165
vn -0.970403 -0.232532 -0.065165
vn -0.996387 0.023583 -0.081590
vn -0.970403 -0.232532 -0.065165
vn 0.000797 -0.999979 0.006428
vn 0.000797 -0.999979 0.006428
vn 0.000797 -0.999979 0.006428
vn 0.000797 -0.999979 0.006428
vn 0.000797 -0.999979 0.006428
vn 0.000797 -0.999979 0.006428
vn 0.000000 0.118285 -0.992980
vn 0.000000 0.118285 -0.992980
vn 0.000000 0.118285 -0.992980
vn 0.000000 0.118285 -0.992980
vn 0.000000 0.118285 -0.992980
vn 0.000000 0.118285 -0.992980
vn 0.000000 0.118285 -0.992980
vn 0.000000 0.118285 -0.992980
vn 0.000000 -0.074450 0.997225
vn 0.000000 -0.074450 0.997225
vn 0.000000 -0.074450 0.997225
vn 0.000000 -0.074450 0.997225
vn 0.000000 -0.074450 0.997225
vn 0.000000 -0.074450 0.997225
vn 0.000000 -0.074450 0.997225
vn 0.000000 -0.074450 0.997225
s off
g Tail6
usemtl None
f 10/1/1 2/2/2 9/3/3
f 9/3/4 2/2/5 1/4/6
f 10/5/7 11/6/8 2/7/9
f 2/7/10 11/6/11 3/8/12
f 11/9/13 12/10/14 3/11/15
f 3/11/16 12/10/17 4/12/18
f 12/13/19 13/14/20 4/15/21
f 4/15/22 13/14/23 5/16/24
f 1/4/25 6/17/26 9/3/27
f 9/3/28 6/17/29 14/18/30
f 14/19/31 6/20/32 15/21/33
f 15/21/34 6/20/35 7/22/36
f 15/23/37 7/24/38 16/25/39
f 16/25/40 7/24/41 8/26/42
f 16/27/43 8/28/44 13/14/45
f 13/14/46 8/28/47 5/16/48
s 1
f 4/32/49 5/33/50 3/31/51
f 3/31/51 5/33/50 2/30/52
f 2/30/52 5/33/50 1/29/53
f 1/29/53 5/33/50 6/36/54
f 6/36/54 5/33/50 7/35/55
f 5/33/50 8/34/56 7/35/55
s 2
f 16/41/57 13/42/58 15/40/59
f 12/43/60 11/44/61 13/42/58
f 15/40/59 13/42/58 14/39/62
f 14/39/62 13/42/58 9/38/63
f 13/42/58 11/44/61 9/38/63
f 10/37/64 9/38/63 11/44/61
