# This file uses centimeters as units for non-parametric coordinates.

mtllib SerperiorTail4.mtl
g default
v -0.006326 2.316924 -5.932600
v 1.135152 1.784259 -5.838628
v 1.436647 0.545266 -5.930149
v 1.218076 -0.462621 -6.058672
v -0.006326 -0.462878 -6.174398
v -1.147805 1.784259 -5.838628
v -1.449300 0.545266 -5.930149
v -1.230728 -0.462621 -6.058672
v -0.006326 3.151531 0.046675
v 1.445697 2.448079 0.099028
v 1.828557 0.915195 0.163885
v 1.570562 -0.468145 0.193922
v -0.006326 -0.468262 0.141455
v -1.458350 2.448079 0.099028
v -1.841210 0.915195 0.163885
v -1.583214 -0.468145 0.193922
vt 0.457785 0.336882
vt 0.483975 0.328037
vt 0.458101 0.346256
vt 0.484541 0.335135
vt 0.426033 0.054988
vt 0.426344 0.029539
vt 0.494796 0.047912
vt 0.496443 0.027520
vt 0.443357 0.112332
vt 0.438101 0.087550
vt 0.521501 0.092283
vt 0.521666 0.073618
vt 0.134952 0.836896
vt 0.135102 0.836879
vt 0.148327 0.837720
vt 0.148659 0.837682
vt 0.483975 0.328037
vt 0.457785 0.336882
vt 0.426033 0.054988
vt 0.494796 0.047912
vt 0.426344 0.029539
vt 0.496443 0.027520
vt 0.443357 0.112332
vt 0.521501 0.092283
vt 0.438101 0.087550
vt 0.521666 0.073618
vt 0.134952 0.836896
vt 0.148327 0.837720
vt 0.547601 0.480594
vt 0.546081 0.461930
vt 0.547562 0.418515
vt 0.549641 0.383198
vt 0.551513 0.383189
vt 0.549641 0.383198
vt 0.547562 0.418515
vt 0.546081 0.461930
vt 0.450022 0.485190
vt 0.450869 0.509839
vt 0.450022 0.485190
vt 0.448973 0.431477
vt 0.448487 0.383004
vt 0.449336 0.383000
vt 0.448487 0.383004
vt 0.448973 0.431477
vn 0.432625 0.893066 -0.123567
vn 0.432625 0.893066 -0.123567
vn 0.432625 0.893066 -0.123567
vn 0.432625 0.893066 -0.123567
vn 0.432625 0.893066 -0.123567
vn 0.432625 0.893066 -0.123567
vn 0.967786 0.239680 -0.077096
vn 0.996792 0.042475 -0.067831
vn 0.967786 0.239680 -0.077096
vn 0.967786 0.239680 -0.077096
vn 0.996792 0.042475 -0.067831
vn 0.997639 0.017293 -0.066460
vn 0.996792 0.042475 -0.067831
vn 0.979734 -0.193061 -0.053372
vn 0.997639 0.017293 -0.066460
vn 0.997639 0.017293 -0.066460
vn 0.979734 -0.193061 -0.053372
vn 0.979734 -0.193061 -0.053372
vn 0.000186 -1.000000 -0.000873
vn 0.000186 -1.000000 -0.000873
vn 0.000186 -1.000000 -0.000873
vn 0.000186 -1.000000 -0.000873
vn 0.000186 -1.000000 -0.000873
vn 0.000186 -1.000000 -0.000873
vn -0.432625 0.893066 -0.123567
vn -0.432625 0.893066 -0.123567
vn -0.432625 0.893066 -0.123567
vn -0.432625 0.893066 -0.123567
vn -0.432625 0.893066 -0.123567
vn -0.432625 0.893066 -0.123567
vn -0.967786 0.239680 -0.077096
vn -0.967786 0.239680 -0.077096
vn -0.996792 0.042475 -0.067831
vn -0.996792 0.042475 -0.067831
vn -0.967786 0.239680 -0.077096
vn -0.997639 0.017293 -0.066460
vn -0.996792 0.042475 -0.067831
vn -0.997639 0.017293 -0.066460
vn -0.979734 -0.193061 -0.053372
vn -0.979734 -0.193061 -0.053372
vn -0.997639 0.017293 -0.066460
vn -0.979734 -0.193061 -0.053372
vn -0.000186 -1.000000 -0.000873
vn -0.000186 -1.000000 -0.000873
vn -0.000186 -1.000000 -0.000873
vn -0.000186 -1.000000 -0.000873
vn -0.000186 -1.000000 -0.000873
vn -0.000186 -1.000000 -0.000873
vn -0.000000 0.094026 -0.995570
vn -0.000000 0.094026 -0.995570
vn -0.000000 0.094026 -0.995570
vn -0.000000 0.094026 -0.995570
vn -0.000000 0.094026 -0.995570
vn -0.000000 0.094026 -0.995570
vn -0.000000 0.094026 -0.995570
vn -0.000000 0.094026 -0.995570
vn 0.000000 0.028648 0.999590
vn 0.000000 0.028648 0.999590
vn 0.000000 0.028648 0.999590
vn 0.000000 0.028648 0.999590
vn 0.000000 0.028648 0.999590
vn 0.000000 0.028648 0.999590
vn 0.000000 0.028648 0.999590
vn 0.000000 0.028648 0.999590
s off
g Tail4
usemtl None
f 10/1/1 2/2/2 9/3/3
f 9/3/4 2/2/5 1/4/6
f 10/5/7 11/6/8 2/7/9
f 2/7/10 11/6/11 3/8/12
f 11/9/13 12/10/14 3/11/15
f 3/11/16 12/10/17 4/12/18
f 12/13/19 13/14/20 4/15/21
f 4/15/22 13/14/23 5/16/24
f 1/4/25 6/17/26 9/3/27
f 9/3/28 6/17/29 14/18/30
f 14/19/31 6/20/32 15/21/33
f 15/21/34 6/20/35 7/22/36
f 15/23/37 7/24/38 16/25/39
f 16/25/40 7/24/41 8/26/42
f 16/27/43 8/28/44 13/14/45
f 13/14/46 8/28/47 5/16/48
s 1
f 4/32/49 5/33/50 3/31/51
f 8/34/52 7/35/53 5/33/50
f 5/33/50 7/35/53 3/31/51
f 3/31/51 7/35/53 2/30/54
f 2/30/54 7/35/53 1/29/55
f 1/29/55 7/35/53 6/36/56
s 2
f 16/41/57 13/42/58 15/40/59
f 12/43/60 11/44/61 13/42/58
f 13/42/58 11/44/61 15/40/59
f 15/40/59 11/44/61 14/39/62
f 14/39/62 11/44/61 9/38/63
f 10/37/64 9/38/63 11/44/61
