# This file uses centimeters as units for non-parametric coordinates.

mtllib SerperiorTail3.mtl
g default
v -0.006326 3.151531 -6.953325
v 1.445697 2.448079 -6.900972
v 1.828557 0.915195 -6.836115
v 1.570562 -0.468145 -6.806078
v -0.006326 -0.468262 -6.858545
v -1.458350 2.448079 -6.900972
v -1.841210 0.915195 -6.836115
v -1.583214 -0.468145 -6.806078
v -0.006326 3.849851 -0.177137
v 1.688999 3.075806 0.011790
v 2.161589 1.232350 0.181372
v 1.847530 -0.434357 0.231663
v -0.006326 -0.434801 0.032383
v -1.701652 3.075806 0.011790
v -2.174241 1.232350 0.181372
v -1.860182 -0.434357 0.231663
vt 0.451442 0.216014
vt 0.523085 0.138224
vt 0.484364 0.241171
vt 0.549845 0.161864
vt 0.349669 0.026708
vt 0.426344 0.029539
vt 0.349527 0.058637
vt 0.426033 0.054988
vt 0.360372 0.137622
vt 0.351883 0.108114
vt 0.443357 0.112332
vt 0.438101 0.087550
vt 0.121011 0.841936
vt 0.121583 0.841870
vt 0.134952 0.836896
vt 0.135102 0.836879
vt 0.578122 0.183666
vt 0.515298 0.268736
vt 0.426033 0.054988
vt 0.426344 0.029539
vt 0.349527 0.058637
vt 0.349669 0.026708
vt 0.360372 0.137622
vt 0.443357 0.112332
vt 0.351883 0.108114
vt 0.438101 0.087550
vt 0.121011 0.841936
vt 0.134952 0.836896
vt 0.593187 0.515243
vt 0.592436 0.490700
vt 0.591506 0.437220
vt 0.591075 0.388957
vt 0.591828 0.388953
vt 0.591075 0.388957
vt 0.591506 0.437220
vt 0.592436 0.490700
vt 0.493313 0.512601
vt 0.496022 0.539606
vt 0.493313 0.512601
vt 0.490882 0.448285
vt 0.490161 0.390136
vt 0.493018 0.390121
vt 0.490161 0.390136
vt 0.490882 0.448285
vn 0.428976 0.898344 -0.094647
vn 0.428976 0.898344 -0.094647
vn 0.428976 0.898344 -0.094647
vn 0.428976 0.898344 -0.094647
vn 0.428976 0.898344 -0.094647
vn 0.428976 0.898344 -0.094647
vn 0.998068 0.038502 -0.048761
vn 0.998036 0.039295 -0.048794
vn 0.968750 0.241528 -0.056463
vn 0.968750 0.241528 -0.056463
vn 0.998036 0.039295 -0.048794
vn 0.968750 0.241528 -0.056463
vn 0.998068 0.038502 -0.048761
vn 0.981971 -0.185175 -0.037994
vn 0.998036 0.039295 -0.048794
vn 0.998036 0.039295 -0.048794
vn 0.981971 -0.185175 -0.037994
vn 0.981971 -0.185175 -0.037994
vn -0.000191 -0.999988 0.004832
vn -0.000191 -0.999988 0.004832
vn -0.000191 -0.999988 0.004832
vn -0.000191 -0.999988 0.004832
vn -0.000191 -0.999988 0.004832
vn -0.000191 -0.999988 0.004832
vn -0.428976 0.898344 -0.094647
vn -0.428976 0.898344 -0.094647
vn -0.428976 0.898344 -0.094647
vn -0.428976 0.898344 -0.094647
vn -0.428976 0.898344 -0.094647
vn -0.428976 0.898344 -0.094647
vn -0.968750 0.241528 -0.056463
vn -0.998036 0.039295 -0.048794
vn -0.968750 0.241528 -0.056463
vn -0.968750 0.241528 -0.056463
vn -0.998036 0.039295 -0.048794
vn -0.998068 0.038502 -0.048761
vn -0.998068 0.038502 -0.048761
vn -0.998036 0.039295 -0.048794
vn -0.981971 -0.185175 -0.037994
vn -0.981971 -0.185175 -0.037994
vn -0.998036 0.039295 -0.048794
vn -0.981971 -0.185175 -0.037994
vn 0.000191 -0.999988 0.004832
vn 0.000191 -0.999988 0.004832
vn 0.000191 -0.999988 0.004832
vn 0.000191 -0.999988 0.004832
vn 0.000191 -0.999988 0.004832
vn 0.000191 -0.999988 0.004832
vn 0.000000 -0.028648 -0.999590
vn 0.000000 -0.028648 -0.999590
vn 0.000000 -0.028648 -0.999590
vn 0.000000 -0.028648 -0.999590
vn 0.000000 -0.028648 -0.999590
vn 0.000000 -0.028648 -0.999590
vn 0.000000 -0.028648 -0.999590
vn 0.000000 -0.028648 -0.999590
vn 0.000000 0.053317 0.998578
vn 0.000000 0.053317 0.998578
vn 0.000000 0.053317 0.998578
vn 0.000000 0.053317 0.998578
vn 0.000000 0.053317 0.998578
vn 0.000000 0.053317 0.998578
vn 0.000000 0.053317 0.998578
vn 0.000000 0.053317 0.998578
s off
g Tail3
usemtl None
f 10/1/1 2/2/2 9/3/3
f 9/3/4 2/2/5 1/4/6
f 11/5/7 3/6/8 10/7/9
f 10/7/10 3/6/11 2/8/12
f 11/9/13 12/10/14 3/11/15
f 3/11/16 12/10/17 4/12/18
f 12/13/19 13/14/20 4/15/21
f 4/15/22 13/14/23 5/16/24
f 1/4/25 6/17/26 9/3/27
f 9/3/28 6/17/29 14/18/30
f 6/19/31 7/20/32 14/21/33
f 14/21/34 7/20/35 15/22/36
f 15/23/37 7/24/38 16/25/39
f 16/25/40 7/24/41 8/26/42
f 16/27/43 8/28/44 13/14/45
f 13/14/46 8/28/47 5/16/48
s 1
f 4/32/49 5/33/50 3/31/51
f 8/34/52 7/35/53 5/33/50
f 5/33/50 7/35/53 3/31/51
f 3/31/51 7/35/53 2/30/54
f 2/30/54 7/35/53 1/29/55
f 1/29/55 7/35/53 6/36/56
s 2
f 16/41/57 13/42/58 15/40/59
f 12/43/60 11/44/61 13/42/58
f 13/42/58 11/44/61 15/40/59
f 15/40/59 11/44/61 14/39/62
f 14/39/62 11/44/61 9/38/63
f 10/37/64 9/38/63 11/44/61
