# This file uses centimeters as units for non-parametric coordinates.

mtllib SerperiorTail7.mtl
g default
v -0.006326 0.324920 -4.382500
v 0.461686 0.176677 -4.279274
v 0.560549 -0.197466 -4.333626
v 0.484223 -0.473501 -4.433372
v -0.006326 -0.473763 -4.550911
v -0.573202 -0.197466 -4.333626
v -0.496876 -0.473501 -4.433372
v -0.474339 0.176677 -4.279274
v -0.006326 0.672009 -0.007034
v 0.620156 0.507662 0.132534
v 0.778345 -0.035940 0.112499
v 0.663288 -0.466980 0.021816
v -0.006326 -0.467332 -0.135929
v -0.632808 0.507662 0.132534
v -0.790997 -0.035940 0.112499
v -0.675940 -0.466980 0.021816
v 0.094085 3.729372 -2.057011
v -0.006326 4.191178 -2.129364
v -0.006326 1.883865 -3.557945
v 0.019147 1.770442 -3.427029
v 0.399229 2.508835 0.105087
v -0.006326 2.668199 0.304100
v -0.006326 1.713550 -2.389862
v 0.133150 1.425835 -2.136459
v 0.173915 1.712284 -0.950611
v -0.006326 2.106416 -0.791084
v -0.006326 2.673609 -2.615902
v 0.088571 2.570883 -2.394218
v 0.194562 2.864771 -1.272278
v -0.006326 3.024927 -1.064449
v -0.006326 0.550481 -2.793419
v 0.145597 0.592607 -2.561958
v 0.208764 1.067824 -0.200249
v -0.006326 1.247959 0.174305
v 0.014419 1.659772 -2.299515
v 0.195513 1.034510 -2.084328
v 0.166200 0.726717 -1.968899
v 0.319784 1.266124 -0.924980
v 0.187482 0.913991 -0.942707
v 0.064722 0.946819 -3.029312
v -0.006326 1.050778 -3.240505
v 0.088107 1.512754 -2.983776
v 0.117774 1.763400 -2.699749
v -0.006326 1.890851 -2.786236
v 0.317470 1.754946 0.035172
v -0.006326 1.923959 0.315704
v -0.006326 2.465533 -0.408119
v 0.283160 2.216057 -0.495918
v 0.358898 1.971626 -0.268002
v 0.115625 0.207311 -1.746788
v -0.006326 0.299541 -2.057518
v 0.163842 0.364923 -1.171509
v -0.006326 0.708663 -0.171303
v 0.212058 0.455113 -0.701824
v -0.207214 2.864771 -1.272278
v -0.106738 3.729372 -2.057011
v -0.101223 2.570883 -2.394218
v -0.158250 0.592607 -2.561958
v -0.128278 0.207311 -1.746788
v -0.178853 0.726717 -1.968899
v -0.176494 0.364923 -1.171509
v -0.077375 0.946819 -3.029312
v -0.031799 1.770442 -3.427029
v -0.100760 1.512754 -2.983776
v -0.130427 1.763400 -2.699749
v -0.145802 1.425835 -2.136459
v -0.208166 1.034510 -2.084328
v -0.027071 1.659772 -2.299515
v -0.224711 0.455113 -0.701824
v -0.221417 1.067824 -0.200249
v -0.330122 1.754946 0.035172
v -0.186568 1.712284 -0.950611
v -0.295812 2.216057 -0.495918
v -0.371551 1.971626 -0.268002
v -0.200135 0.913991 -0.942707
v -0.332436 1.266124 -0.924980
v -0.411881 2.508835 0.105087
vt 0.538038 0.311027
vt 0.557290 0.306616
vt 0.538878 0.313216
vt 0.557912 0.308592
vt 0.638605 0.031479
vt 0.639223 0.020714
vt 0.701737 0.030076
vt 0.703448 0.021066
vt 0.680802 0.073024
vt 0.682748 0.064959
vt 0.740097 0.073756
vt 0.742475 0.068691
vt 0.173757 0.837070
vt 0.174210 0.837018
vt 0.183050 0.836097
vt 0.183387 0.836058
vt 0.557290 0.306616
vt 0.538038 0.311027
vt 0.638605 0.031479
vt 0.701737 0.030076
vt 0.639223 0.020714
vt 0.703448 0.021066
vt 0.680802 0.073024
vt 0.740097 0.073756
vt 0.682748 0.064959
vt 0.742475 0.068691
vt 0.173757 0.837070
vt 0.183050 0.836097
vt 0.448561 0.434114
vt 0.492191 0.480854
vt 0.437007 0.442772
vt 0.496213 0.505819
vt 0.510939 0.418226
vt 0.523264 0.423780
vt 0.474943 0.290452
vt 0.492219 0.295438
vt 0.520265 0.311281
vt 0.533134 0.309004
vt 0.442959 0.298973
vt 0.487292 0.318531
vt 0.557990 0.336050
vt 0.546249 0.330430
vt 0.568361 0.374955
vt 0.575639 0.381086
vt 0.543717 0.361024
vt 0.527926 0.374574
vt 0.532734 0.381464
vt 0.496608 0.356325
vt 0.493709 0.335171
vt 0.510697 0.371879
vt 0.505673 0.368972
vt 0.416846 0.303849
vt 0.388959 0.336971
vt 0.387350 0.317555
vt 0.368135 0.346709
vt 0.360273 0.383254
vt 0.375870 0.374117
vt 0.430677 0.371811
vt 0.421808 0.393117
vt 0.400516 0.412531
vt 0.405398 0.399045
vt 0.430238 0.328655
vt 0.429253 0.347691
vt 0.392726 0.385831
vt 0.371983 0.414872
vt 0.360918 0.423487
vt 0.492191 0.480854
vt 0.448561 0.434114
vt 0.510939 0.418226
vt 0.520265 0.311281
vt 0.474943 0.290452
vt 0.487292 0.318531
vt 0.442959 0.298973
vt 0.546249 0.330430
vt 0.568361 0.374955
vt 0.543717 0.361024
vt 0.527926 0.374574
vt 0.493709 0.335171
vt 0.496608 0.356325
vt 0.505673 0.368972
vt 0.388959 0.336971
vt 0.416846 0.303849
vt 0.375870 0.374117
vt 0.430677 0.371811
vt 0.405398 0.399045
vt 0.430238 0.328655
vt 0.429253 0.347691
vt 0.392726 0.385831
vt 0.371983 0.414872
vt 0.699470 0.675046
vt 0.696499 0.642203
vt 0.698063 0.559312
vt 0.700934 0.498156
vt 0.704316 0.498098
vt 0.700934 0.498156
vt 0.698063 0.559312
vt 0.696499 0.642203
vt 0.569539 0.715532
vt 0.573555 0.751943
vt 0.569539 0.715532
vt 0.570115 0.595098
vt 0.572725 0.499601
vt 0.577264 0.499523
vt 0.572725 0.499601
vt 0.570115 0.595098
vn 0.289896 0.953806 -0.078829
vn 0.289896 0.953806 -0.078829
vn 0.289896 0.953806 -0.078829
vn 0.289896 0.953806 -0.078829
vn 0.289896 0.953806 -0.078829
vn 0.289896 0.953806 -0.078829
vn 0.960242 0.273494 -0.055996
vn 0.995946 0.074160 -0.050910
vn 0.960242 0.273494 -0.055996
vn 0.960242 0.273494 -0.055996
vn 0.995946 0.074160 -0.050910
vn 0.998814 0.002826 -0.048609
vn 0.995946 0.074160 -0.050910
vn 0.967114 -0.251433 -0.038371
vn 0.998814 0.002826 -0.048609
vn 0.998814 0.002826 -0.048609
vn 0.967114 -0.251433 -0.038371
vn 0.967114 -0.251433 -0.038371
vn 0.000184 -0.999999 0.001457
vn 0.000184 -0.999999 0.001457
vn 0.000184 -0.999999 0.001457
vn 0.000184 -0.999999 0.001457
vn 0.000184 -0.999999 0.001457
vn 0.000184 -0.999999 0.001457
vn -0.289896 0.953806 -0.078829
vn -0.289896 0.953806 -0.078829
vn -0.289896 0.953806 -0.078829
vn -0.289896 0.953806 -0.078829
vn -0.289896 0.953806 -0.078829
vn -0.289896 0.953806 -0.078829
vn -0.960242 0.273494 -0.055996
vn -0.960242 0.273494 -0.055996
vn -0.995946 0.074160 -0.050910
vn -0.995946 0.074160 -0.050910
vn -0.960242 0.273494 -0.055996
vn -0.998814 0.002826 -0.048609
vn -0.995946 0.074160 -0.050910
vn -0.998814 0.002826 -0.048609
vn -0.967114 -0.251433 -0.038371
vn -0.967114 -0.251433 -0.038371
vn -0.998814 0.002826 -0.048609
vn -0.967114 -0.251433 -0.038371
vn -0.000184 -0.999999 0.001457
vn -0.000184 -0.999999 0.001457
vn -0.000184 -0.999999 0.001457
vn -0.000184 -0.999999 0.001457
vn -0.000184 -0.999999 0.001457
vn -0.000184 -0.999999 0.001457
vn 0.846103 0.258882 0.465929
vn 0.874061 0.350054 0.336867
vn 0.852149 0.274200 0.445710
vn 0.852149 0.274200 0.445710
vn 0.874061 0.350054 0.336867
vn 0.874061 0.350055 0.336867
vn 0.889871 -0.001561 -0.456209
vn 0.903877 0.052432 -0.424568
vn 0.915711 0.116495 -0.384581
vn 0.915711 0.116495 -0.384581
vn 0.903877 0.052432 -0.424568
vn 0.915711 0.116495 -0.384581
vn 0.997489 0.001461 -0.070811
vn 0.997517 0.001155 -0.070418
vn 0.994648 0.024483 -0.100378
vn 0.490521 -0.809525 -0.322582
vn 0.490521 -0.809525 -0.322582
vn 0.570302 -0.738114 -0.360477
vn 0.570302 -0.738114 -0.360477
vn 0.490521 -0.809525 -0.322582
vn 0.711687 -0.560155 -0.423944
vn 0.993445 -0.110010 -0.031049
vn 0.993445 -0.110010 -0.031049
vn 0.995244 -0.065589 -0.072027
vn 0.995244 -0.065589 -0.072027
vn 0.993445 -0.110010 -0.031049
vn 0.994225 -0.032437 -0.102297
vn 0.789190 -0.412356 -0.455129
vn 0.789189 -0.412356 -0.455129
vn 0.711687 -0.560155 -0.423944
vn 0.711687 -0.560155 -0.423944
vn 0.789189 -0.412356 -0.455129
vn 0.570302 -0.738114 -0.360477
vn 0.932550 -0.121159 -0.340104
vn 0.932550 -0.121159 -0.340104
vn 0.960111 0.167731 -0.223727
vn 0.960111 0.167731 -0.223727
vn 0.932550 -0.121159 -0.340104
vn 0.951504 0.243144 -0.188472
vn 0.987883 -0.002562 -0.155182
vn 0.985236 -0.027110 -0.169040
vn 0.987748 -0.004012 -0.156004
vn 0.990381 0.034591 -0.133973
vn 0.987883 -0.002562 -0.155182
vn 0.987748 -0.004012 -0.156004
vn 0.870481 0.488860 -0.057256
vn 0.960111 0.167731 -0.223727
vn 0.870481 0.488860 -0.057256
vn 0.870481 0.488860 -0.057256
vn 0.960111 0.167731 -0.223727
vn 0.951504 0.243144 -0.188472
vn 0.996662 0.067402 -0.046067
vn 0.996662 0.067402 -0.046067
vn 0.995758 0.011061 -0.091347
vn 0.995758 0.011061 -0.091347
vn 0.996662 0.067402 -0.046067
vn 0.994619 -0.004191 -0.103514
vn 0.995758 0.011061 -0.091347
vn 0.994619 -0.004191 -0.103514
vn 0.993202 -0.018528 -0.114917
vn 0.993202 -0.018528 -0.114917
vn 0.994619 -0.004191 -0.103514
vn 0.994225 -0.032437 -0.102297
vn 0.994619 -0.004191 -0.103514
vn 0.995244 -0.065589 -0.072027
vn 0.994225 -0.032437 -0.102297
vn 0.645130 0.682172 0.344163
vn 0.943973 0.191427 -0.268833
vn 0.645130 0.682172 0.344163
vn 0.940593 0.155001 -0.302092
vn 0.645130 0.682172 0.344163
vn 0.938711 0.141090 -0.314509
vn 0.938711 0.141090 -0.314509
vn 0.645130 0.682172 0.344163
vn 0.943973 0.191427 -0.268833
vn 0.940593 0.155001 -0.302092
vn 0.938711 0.141090 -0.314509
vn 0.889871 -0.001561 -0.456209
vn 0.889871 -0.001561 -0.456209
vn 0.938711 0.141090 -0.314509
vn 0.903877 0.052432 -0.424568
vn 0.938711 0.141090 -0.314509
vn 0.943973 0.191427 -0.268833
vn 0.903877 0.052432 -0.424568
vn 0.738256 -0.398245 0.544407
vn 0.723298 -0.350266 0.595108
vn 0.738256 -0.398245 0.544407
vn 0.738256 -0.398245 0.544407
vn 0.723298 -0.350266 0.595108
vn 0.695715 -0.279056 0.661898
vn 0.680537 -0.245149 0.690486
vn 0.695715 -0.279056 0.661898
vn 0.680537 -0.245149 0.690487
vn 0.680537 -0.245149 0.690487
vn 0.695715 -0.279056 0.661898
vn 0.723298 -0.350266 0.595108
vn 0.890441 0.377318 0.254451
vn 0.846103 0.258882 0.465929
vn 0.891756 0.416051 0.177968
vn 0.891756 0.416051 0.177968
vn 0.846103 0.258882 0.465929
vn 0.852149 0.274200 0.445710
vn 0.456477 0.589309 -0.666592
vn 0.456477 0.589309 -0.666592
vn 0.891756 0.416051 0.177968
vn 0.891756 0.416051 0.177968
vn 0.456477 0.589309 -0.666592
vn 0.890441 0.377318 0.254451
vn 0.994803 -0.101110 0.012002
vn 0.988768 -0.148682 0.015202
vn 0.983557 -0.171999 0.055061
vn 0.988768 -0.148682 0.015202
vn 0.995042 -0.083940 -0.053344
vn 0.983557 -0.171999 0.055061
vn 0.995042 -0.083940 -0.053344
vn 0.976226 -0.203598 0.074368
vn 0.983557 -0.171999 0.055061
vn 0.997884 0.021172 -0.061476
vn 0.994803 -0.101110 0.012002
vn 0.997884 0.021172 -0.061476
vn 0.997884 0.021172 -0.061476
vn 0.994803 -0.101110 0.012002
vn 0.983557 -0.171999 0.055061
vn 0.929824 0.180659 -0.320609
vn 0.995042 -0.083940 -0.053344
vn 0.929824 0.180659 -0.320609
vn 0.929824 0.180659 -0.320609
vn 0.995042 -0.083940 -0.053344
vn 0.988768 -0.148682 0.015202
vn 0.982503 -0.185435 -0.017358
vn 0.999210 -0.037217 -0.013931
vn 0.979192 -0.202159 -0.017726
vn 0.994658 0.059441 -0.084390
vn 0.982503 -0.185435 -0.017358
vn 0.996016 0.039117 -0.080144
vn 0.996016 0.039117 -0.080144
vn 0.982503 -0.185435 -0.017358
vn 0.979192 -0.202159 -0.017726
vn 0.995573 0.054159 -0.076814
vn 0.995020 0.061333 -0.078569
vn 0.997489 0.001461 -0.070811
vn 0.997489 0.001461 -0.070811
vn 0.995020 0.061333 -0.078569
vn 0.997517 0.001155 -0.070418
vn 0.995573 0.054159 -0.076814
vn 0.994658 0.059441 -0.084390
vn 0.995020 0.061333 -0.078569
vn 0.995020 0.061333 -0.078569
vn 0.994658 0.059441 -0.084390
vn 0.996016 0.039117 -0.080144
vn 0.359753 0.862041 -0.357020
vn 0.359753 0.862041 -0.357020
vn 0.694328 0.568830 0.440842
vn 0.694328 0.568830 0.440842
vn 0.359753 0.862041 -0.357020
vn 0.695989 0.487735 0.526986
vn 0.997184 -0.026013 -0.070339
vn 0.969483 0.086520 -0.229382
vn 0.996526 -0.018405 -0.081223
vn 0.992105 -0.112696 0.055026
vn 0.997184 -0.026013 -0.070339
vn 0.996526 -0.018405 -0.081223
vn 0.528757 -0.061805 0.846520
vn 0.694328 0.568830 0.440842
vn 0.528757 -0.061805 0.846520
vn 0.528757 -0.061805 0.846520
vn 0.694328 0.568830 0.440842
vn 0.695989 0.487735 0.526986
vn -0.874061 0.350055 0.336867
vn -0.874061 0.350055 0.336867
vn -0.852149 0.274199 0.445709
vn -0.852149 0.274199 0.445709
vn -0.874061 0.350055 0.336867
vn -0.846103 0.258882 0.465929
vn -0.915711 0.116495 -0.384581
vn -0.903876 0.052432 -0.424569
vn -0.915711 0.116495 -0.384581
vn -0.915711 0.116495 -0.384581
vn -0.903876 0.052432 -0.424569
vn -0.889871 -0.001561 -0.456209
vn -0.997489 0.001461 -0.070811
vn -0.994648 0.024483 -0.100378
vn -0.997517 0.001155 -0.070418
vn -0.711688 -0.560154 -0.423943
vn -0.490523 -0.809524 -0.322582
vn -0.570304 -0.738113 -0.360476
vn -0.570304 -0.738113 -0.360476
vn -0.490523 -0.809524 -0.322582
vn -0.490523 -0.809524 -0.322582
vn -0.994225 -0.032437 -0.102297
vn -0.993445 -0.110010 -0.031049
vn -0.995244 -0.065589 -0.072027
vn -0.995244 -0.065589 -0.072027
vn -0.993445 -0.110010 -0.031049
vn -0.993445 -0.110010 -0.031049
vn -0.789191 -0.412355 -0.455127
vn -0.711688 -0.560154 -0.423943
vn -0.789191 -0.412355 -0.455127
vn -0.789191 -0.412355 -0.455127
vn -0.711688 -0.560154 -0.423943
vn -0.570304 -0.738113 -0.360476
vn -0.951504 0.243144 -0.188470
vn -0.932552 -0.121157 -0.340100
vn -0.960111 0.167731 -0.223725
vn -0.960111 0.167731 -0.223725
vn -0.932552 -0.121157 -0.340100
vn -0.932552 -0.121157 -0.340100
vn -0.987883 -0.002562 -0.155182
vn -0.987748 -0.004012 -0.156004
vn -0.985236 -0.027110 -0.169040
vn -0.990381 0.034591 -0.133973
vn -0.987748 -0.004012 -0.156004
vn -0.987883 -0.002562 -0.155182
vn -0.951504 0.243144 -0.188470
vn -0.960111 0.167731 -0.223725
vn -0.870482 0.488859 -0.057256
vn -0.870482 0.488859 -0.057256
vn -0.960111 0.167731 -0.223725
vn -0.870482 0.488859 -0.057256
vn -0.994619 -0.004191 -0.103514
vn -0.996662 0.067402 -0.046067
vn -0.995758 0.011061 -0.091347
vn -0.995758 0.011061 -0.091347
vn -0.996662 0.067402 -0.046067
vn -0.996662 0.067402 -0.046067
vn -0.995758 0.011061 -0.091347
vn -0.993202 -0.018528 -0.114917
vn -0.994619 -0.004191 -0.103514
vn -0.993202 -0.018528 -0.114917
vn -0.994225 -0.032437 -0.102297
vn -0.994619 -0.004191 -0.103514
vn -0.994619 -0.004191 -0.103514
vn -0.994225 -0.032437 -0.102297
vn -0.995244 -0.065589 -0.072027
vn -0.645128 0.682173 0.344164
vn -0.645128 0.682174 0.344164
vn -0.943972 0.191428 -0.268834
vn -0.940593 0.155001 -0.302092
vn -0.938710 0.141090 -0.314510
vn -0.645128 0.682174 0.344164
vn -0.938710 0.141090 -0.314510
vn -0.943972 0.191428 -0.268834
vn -0.645128 0.682174 0.344164
vn -0.940593 0.155001 -0.302092
vn -0.889871 -0.001561 -0.456209
vn -0.938710 0.141090 -0.314510
vn -0.889871 -0.001561 -0.456209
vn -0.903876 0.052432 -0.424569
vn -0.938710 0.141090 -0.314510
vn -0.903876 0.052432 -0.424569
vn -0.943972 0.191428 -0.268834
vn -0.938710 0.141090 -0.314510
vn -0.695715 -0.279056 0.661898
vn -0.723298 -0.350266 0.595109
vn -0.738256 -0.398245 0.544407
vn -0.738256 -0.398245 0.544407
vn -0.723298 -0.350266 0.595109
vn -0.738256 -0.398245 0.544407
vn -0.723298 -0.350266 0.595109
vn -0.695715 -0.279056 0.661898
vn -0.680537 -0.245149 0.690486
vn -0.680537 -0.245149 0.690486
vn -0.695715 -0.279056 0.661898
vn -0.680537 -0.245149 0.690486
vn -0.852149 0.274199 0.445709
vn -0.846103 0.258882 0.465929
vn -0.891756 0.416051 0.177967
vn -0.891756 0.416051 0.177967
vn -0.846103 0.258882 0.465929
vn -0.890442 0.377318 0.254450
vn -0.456477 0.589309 -0.666592
vn -0.891756 0.416051 0.177967
vn -0.456477 0.589309 -0.666592
vn -0.456477 0.589309 -0.666592
vn -0.891756 0.416051 0.177967
vn -0.890442 0.377318 0.254450
vn -0.994803 -0.101110 0.012002
vn -0.983557 -0.171999 0.055061
vn -0.988768 -0.148681 0.015201
vn -0.988768 -0.148681 0.015201
vn -0.983557 -0.171999 0.055061
vn -0.995042 -0.083940 -0.053345
vn -0.995042 -0.083940 -0.053345
vn -0.983557 -0.171999 0.055061
vn -0.976226 -0.203598 0.074368
vn -0.983557 -0.171999 0.055061
vn -0.994803 -0.101110 0.012002
vn -0.997884 0.021172 -0.061476
vn -0.997884 0.021172 -0.061476
vn -0.994803 -0.101110 0.012002
vn -0.997884 0.021172 -0.061476
vn -0.929823 0.180660 -0.320611
vn -0.929823 0.180660 -0.320611
vn -0.995042 -0.083940 -0.053345
vn -0.995042 -0.083940 -0.053345
vn -0.929823 0.180660 -0.320611
vn -0.988768 -0.148681 0.015201
vn -0.982503 -0.185434 -0.017358
vn -0.979192 -0.202158 -0.017726
vn -0.999210 -0.037217 -0.013931
vn -0.994658 0.059442 -0.084390
vn -0.996015 0.039118 -0.080144
vn -0.982503 -0.185434 -0.017358
vn -0.982503 -0.185434 -0.017358
vn -0.996015 0.039118 -0.080144
vn -0.979192 -0.202158 -0.017726
vn -0.997517 0.001155 -0.070418
vn -0.995020 0.061333 -0.078569
vn -0.997489 0.001461 -0.070811
vn -0.997489 0.001461 -0.070811
vn -0.995020 0.061333 -0.078569
vn -0.995573 0.054159 -0.076814
vn -0.996015 0.039118 -0.080144
vn -0.994658 0.059442 -0.084390
vn -0.995020 0.061333 -0.078569
vn -0.995020 0.061333 -0.078569
vn -0.994658 0.059442 -0.084390
vn -0.995573 0.054159 -0.076814
vn -0.359750 0.862042 -0.357020
vn -0.694327 0.568832 0.440841
vn -0.359750 0.862042 -0.357020
vn -0.359750 0.862042 -0.357020
vn -0.694327 0.568832 0.440841
vn -0.695988 0.487737 0.526986
vn -0.997184 -0.026014 -0.070339
vn -0.996526 -0.018405 -0.081223
vn -0.969483 0.086520 -0.229382
vn -0.992105 -0.112697 0.055026
vn -0.996526 -0.018405 -0.081223
vn -0.997184 -0.026014 -0.070339
vn -0.695988 0.487737 0.526986
vn -0.694327 0.568832 0.440841
vn -0.528757 -0.061805 0.846520
vn -0.528757 -0.061805 0.846520
vn -0.694327 0.568832 0.440841
vn -0.528757 -0.061805 0.846520
vn -0.000000 0.222779 -0.974869
vn -0.000000 0.222779 -0.974869
vn -0.000000 0.222779 -0.974869
vn -0.000000 0.222779 -0.974869
vn -0.000000 0.222779 -0.974869
vn -0.000000 0.222779 -0.974869
vn -0.000000 0.222779 -0.974869
vn -0.000000 0.222779 -0.974869
vn 0.000000 -0.118285 0.992980
vn 0.000000 -0.118285 0.992980
vn 0.000000 -0.118285 0.992980
vn 0.000000 -0.118285 0.992980
vn 0.000000 -0.118285 0.992980
vn 0.000000 -0.118285 0.992980
vn 0.000000 -0.118285 0.992980
vn 0.000000 -0.118285 0.992980
s off
g Tail7
usemtl None
f 10/1/1 2/2/2 9/3/3
f 9/3/4 2/2/5 1/4/6
f 10/5/7 11/6/8 2/7/9
f 2/7/10 11/6/11 3/8/12
f 11/9/13 12/10/14 3/11/15
f 3/11/16 12/10/17 4/12/18
f 12/13/19 13/14/20 4/15/21
f 4/15/22 13/14/23 5/16/24
f 1/4/25 8/17/26 9/3/27
f 9/3/28 8/17/29 14/18/30
f 14/19/31 8/20/32 15/21/33
f 15/21/34 8/20/35 6/22/36
f 15/23/37 6/24/38 16/25/39
f 16/25/40 6/24/41 7/26/42
f 16/27/43 7/28/44 13/14/45
f 13/14/46 7/28/47 5/16/48
f 29/29/49 17/30/50 30/31/51
f 30/31/52 17/30/53 18/32/54
f 28/33/55 27/34/56 17/30/57
f 17/30/58 27/34/59 18/32/60
f 29/29/61 28/33/62 17/30/63
f 50/35/64 51/36/65 32/37/66
f 32/37/67 51/36/68 31/38/69
f 52/39/70 50/35/71 37/40/72
f 37/40/73 50/35/74 32/37/75
f 41/41/76 40/42/77 31/38/78
f 31/38/79 40/42/80 32/37/81
f 40/42/82 41/41/83 20/43/84
f 20/43/85 41/41/86 19/44/87
f 42/45/88 40/42/89 20/43/90
f 43/46/91 42/45/92 20/43/93
f 43/46/94 20/43/95 44/47/96
f 44/47/97 20/43/98 19/44/99
f 43/46/100 24/48/101 42/45/102
f 42/45/103 24/48/104 36/49/105
f 42/45/106 36/49/107 40/42/108
f 40/42/109 36/49/110 32/37/111
f 36/49/112 37/40/113 32/37/114
f 44/47/115 23/50/116 43/46/117
f 24/48/118 43/46/119 35/51/120
f 35/51/121 43/46/122 23/50/123
f 24/48/124 35/51/125 28/33/126
f 28/33/127 35/51/128 27/34/129
f 35/51/130 23/50/131 27/34/132
f 54/52/133 33/53/134 53/54/135
f 53/54/136 33/53/137 34/55/138
f 46/56/139 34/55/140 45/57/141
f 45/57/142 34/55/143 33/53/144
f 25/58/145 29/29/146 26/59/147
f 26/59/148 29/29/149 30/31/150
f 47/60/151 48/61/152 26/59/153
f 26/59/154 48/61/155 25/58/156
f 39/62/157 38/63/158 33/53/159
f 38/63/160 49/64/161 33/53/162
f 49/64/163 45/57/164 33/53/165
f 52/39/166 39/62/167 54/52/168
f 54/52/169 39/62/170 33/53/171
f 48/61/172 49/64/173 25/58/174
f 25/58/175 49/64/176 38/63/177
f 39/62/178 52/39/179 37/40/180
f 38/63/181 39/62/182 36/49/183
f 36/49/184 39/62/185 37/40/186
f 25/58/187 24/48/188 29/29/189
f 29/29/190 24/48/191 28/33/192
f 25/58/193 38/63/194 24/48/195
f 24/48/196 38/63/197 36/49/198
f 48/61/199 47/60/200 21/65/201
f 21/65/202 47/60/203 22/66/204
f 49/64/205 48/61/206 21/65/207
f 45/57/208 49/64/209 21/65/210
f 45/57/211 21/65/212 46/56/213
f 46/56/214 21/65/215 22/66/216
f 18/32/217 56/67/218 30/31/219
f 30/31/220 56/67/221 55/68/222
f 18/32/223 27/34/224 56/67/225
f 56/67/226 27/34/227 57/69/228
f 55/68/229 56/67/230 57/69/231
f 31/38/232 51/36/233 58/70/234
f 58/70/235 51/36/236 59/71/237
f 58/70/238 59/71/239 60/72/240
f 60/72/241 59/71/242 61/73/243
f 41/41/244 31/38/245 62/74/246
f 62/74/247 31/38/248 58/70/249
f 19/44/250 41/41/251 63/75/252
f 63/75/253 41/41/254 62/74/255
f 64/76/256 63/75/257 62/74/258
f 65/77/259 63/75/260 64/76/261
f 19/44/262 63/75/263 44/47/264
f 44/47/265 63/75/266 65/77/267
f 67/78/268 66/79/269 64/76/270
f 64/76/271 66/79/272 65/77/273
f 64/76/274 62/74/275 67/78/276
f 62/74/277 58/70/278 67/78/279
f 67/78/280 58/70/281 60/72/282
f 44/47/283 65/77/284 23/50/285
f 66/79/286 68/80/287 65/77/288
f 68/80/289 23/50/290 65/77/291
f 66/79/292 57/69/293 68/80/294
f 57/69/295 27/34/296 68/80/297
f 27/34/298 23/50/299 68/80/300
f 34/55/301 70/81/302 53/54/303
f 53/54/304 70/81/305 69/82/306
f 70/81/307 34/55/308 71/83/309
f 71/83/310 34/55/311 46/56/312
f 30/31/313 55/68/314 26/59/315
f 26/59/316 55/68/317 72/84/318
f 47/60/319 26/59/320 73/85/321
f 73/85/322 26/59/323 72/84/324
f 75/86/325 70/81/326 76/87/327
f 76/87/328 70/81/329 74/88/330
f 74/88/331 70/81/332 71/83/333
f 70/81/334 75/86/335 69/82/336
f 69/82/337 75/86/338 61/73/339
f 73/85/340 72/84/341 74/88/342
f 74/88/343 72/84/344 76/87/345
f 75/86/346 60/72/347 61/73/348
f 76/87/349 67/78/350 75/86/351
f 75/86/352 67/78/353 60/72/354
f 57/69/355 66/79/356 55/68/357
f 55/68/358 66/79/359 72/84/360
f 67/78/361 76/87/362 66/79/363
f 66/79/364 76/87/365 72/84/366
f 73/85/367 77/89/368 47/60/369
f 47/60/370 77/89/371 22/66/372
f 74/88/373 77/89/374 73/85/375
f 71/83/376 77/89/377 74/88/378
f 22/66/379 77/89/380 46/56/381
f 46/56/382 77/89/383 71/83/384
s 1
f 4/93/385 5/94/386 3/92/387
f 3/92/387 5/94/386 2/91/388
f 2/91/388 5/94/386 1/90/389
f 1/90/389 5/94/386 8/97/390
f 8/97/390 5/94/386 6/96/391
f 5/94/386 7/95/392 6/96/391
s 2
f 16/102/393 13/103/394 15/101/395
f 15/101/395 13/103/394 14/100/396
f 14/100/396 13/103/394 9/99/397
f 9/99/397 13/103/394 10/98/398
f 10/98/398 13/103/394 11/105/399
f 13/103/394 12/104/400 11/105/399
