# This file uses centimeters as units for non-parametric coordinates.

mtllib SerperiorTail9.mtl
g default
v -0.006326 -0.174724 -1.111687
v 0.186554 -0.302691 -0.813885
v 0.222133 -0.390085 -0.842130
v 0.198555 -0.481193 -0.849606
v -0.006326 -0.481356 -0.922482
v 0.234770 -0.213501 -0.224107
v 0.165014 3.231470 -0.709702
v -0.006326 3.698572 -0.727505
v -0.006326 1.574339 -2.416341
v 0.090075 1.446372 -2.299603
v 0.470157 1.766244 1.294662
v -0.006326 1.901217 1.510963
v -0.006326 1.268467 -1.276227
v 0.204078 0.953069 -1.058244
v 0.244843 1.098741 0.152984
v -0.006326 1.471491 0.357547
v -0.006326 2.248385 -1.388333
v 0.159499 2.120417 -1.180199
v 0.265490 2.280958 -0.031571
v -0.006326 2.415686 0.193576
v -0.006326 0.160632 -1.813149
v 0.216526 0.175375 -1.578351
v 0.279693 0.370880 0.822749
v -0.006326 0.505934 1.215816
v 0.085347 1.204484 -1.192796
v 0.266441 0.558331 -1.052274
v 0.237129 0.239142 -0.973668
v 0.390712 0.652648 0.126212
v 0.258411 0.305011 0.067390
v 0.135650 0.581857 -2.001027
v -0.006326 0.709822 -2.198602
v 0.159036 1.138571 -1.889561
v 0.188703 1.354248 -1.578149
v -0.006326 1.490947 -1.649121
v 0.388398 1.025721 1.136985
v -0.006326 1.160736 1.435371
v -0.006326 1.783312 0.779918
v 0.354088 1.545828 0.663520
v 0.429826 1.276399 0.861255
v -0.234786 -0.390085 -0.842130
v -0.211208 -0.481193 -0.849606
v -0.199206 -0.302691 -0.813885
v -0.247423 -0.213501 -0.224107
v -0.278143 2.280958 -0.031571
v -0.177666 3.231470 -0.709702
v -0.172152 2.120417 -1.180199
v -0.229178 0.175375 -1.578351
v -0.249781 0.239142 -0.973668
v -0.148303 0.581857 -2.001027
v -0.102728 1.446372 -2.299603
v -0.171688 1.138571 -1.889561
v -0.201355 1.354248 -1.578149
v -0.216730 0.953069 -1.058244
v -0.279094 0.558331 -1.052274
v -0.098000 1.204484 -1.192796
v -0.292345 0.370880 0.822749
v -0.401050 1.025721 1.136985
v -0.257496 1.098741 0.152984
v -0.366740 1.545828 0.663520
v -0.442479 1.276399 0.861255
v -0.271063 0.305011 0.067390
v -0.403365 0.652648 0.126212
v -0.482809 1.766244 1.294662
v 0.341050 -0.325824 0.240882
v 0.301239 -0.478580 0.223945
v -0.006326 -0.478766 0.140224
v 0.282986 -0.178908 0.252902
v -0.006326 0.010799 0.809459
v -0.313892 -0.478580 0.223945
v -0.353702 -0.325824 0.240882
v -0.295639 -0.178908 0.252902
vt 0.788814 0.077017
vt 0.789611 0.074144
vt 0.819698 0.081728
vt 0.820245 0.080002
vt 0.190325 0.835340
vt 0.190566 0.835312
vt 0.195001 0.834950
vt 0.195210 0.834926
vt 0.811715 0.024643
vt 0.806038 0.027253
vt 0.766851 0.022930
vt 0.789411 0.028159
vt 0.776085 0.027842
vt 0.447719 0.435229
vt 0.484907 0.486390
vt 0.435373 0.442481
vt 0.485883 0.511532
vt 0.510708 0.426588
vt 0.522122 0.433476
vt 0.490620 0.296165
vt 0.506951 0.303053
vt 0.532542 0.321897
vt 0.545418 0.321103
vt 0.458278 0.300966
vt 0.499382 0.325329
vt 0.566556 0.350663
vt 0.555721 0.343776
vt 0.572094 0.390308
vt 0.578496 0.397196
vt 0.549608 0.373741
vt 0.532531 0.385349
vt 0.536423 0.392707
vt 0.504020 0.363756
vt 0.503693 0.342510
vt 0.515974 0.380732
vt 0.511399 0.377288
vt 0.432119 0.302828
vt 0.400870 0.332420
vt 0.401599 0.313039
vt 0.379315 0.339689
vt 0.367275 0.374934
vt 0.383638 0.367666
vt 0.437599 0.371597
vt 0.426381 0.391660
vt 0.403219 0.408444
vt 0.409602 0.395661
vt 0.442292 0.328875
vt 0.439067 0.347586
vt 0.398758 0.381159
vt 0.374991 0.407525
vt 0.363129 0.414790
vt 0.788814 0.077017
vt 0.819698 0.081728
vt 0.789611 0.074144
vt 0.820245 0.080002
vt 0.190325 0.835340
vt 0.195001 0.834950
vt 0.811715 0.024643
vt 0.766851 0.022930
vt 0.806038 0.027253
vt 0.789411 0.028159
vt 0.776085 0.027842
vt 0.484907 0.486390
vt 0.447719 0.435229
vt 0.510708 0.426588
vt 0.532542 0.321897
vt 0.490620 0.296165
vt 0.499382 0.325329
vt 0.458278 0.300966
vt 0.555721 0.343776
vt 0.572094 0.390308
vt 0.549608 0.373741
vt 0.532531 0.385349
vt 0.503693 0.342510
vt 0.504020 0.363756
vt 0.511399 0.377288
vt 0.400870 0.332420
vt 0.432119 0.302828
vt 0.383638 0.367666
vt 0.437599 0.371597
vt 0.409602 0.395661
vt 0.442292 0.328875
vt 0.439067 0.347586
vt 0.398758 0.381159
vt 0.374991 0.407525
vt 0.213388 0.360807
vt 0.214345 0.285896
vt 0.223673 0.285762
vt 0.214345 0.285896
vt 0.213388 0.360807
vt 0.209773 0.432665
vt 0.247891 0.537883
vt 0.209773 0.432665
vt 0.076930 0.288044
vt 0.074762 0.413644
vt 0.073224 0.534443
vt 0.001984 0.690425
vt 0.073224 0.534443
vt 0.074762 0.413644
vt 0.076930 0.288044
vt 0.087647 0.287891
vn 0.986800 0.113024 -0.115977
vn 0.965953 -0.241899 -0.091756
vn 0.993200 0.032723 -0.111725
vn 0.993200 0.032723 -0.111725
vn 0.965953 -0.241899 -0.091756
vn 0.965953 -0.241899 -0.091756
vn -0.000064 -0.999997 0.002439
vn -0.000064 -0.999997 0.002439
vn -0.000064 -0.999997 0.002439
vn -0.000064 -0.999997 0.002439
vn -0.000064 -0.999997 0.002439
vn -0.000064 -0.999997 0.002439
vn 0.993200 0.032723 -0.111725
vn 0.918465 0.375352 -0.124629
vn 0.986800 0.113024 -0.115977
vn 0.918465 0.375352 -0.124629
vn 0.918465 0.375352 -0.124629
vn 0.986800 0.113024 -0.115977
vn 0.918465 0.375352 -0.124629
vn 0.986800 0.113024 -0.115977
vn 0.918465 0.375352 -0.124629
vn 0.743751 0.257032 0.617064
vn 0.769950 0.394030 0.501913
vn 0.749116 0.277643 0.601448
vn 0.749116 0.277643 0.601448
vn 0.769950 0.394030 0.501913
vn 0.769950 0.394030 0.501913
vn 0.769259 0.091514 -0.632350
vn 0.783670 0.153492 -0.601915
vn 0.797662 0.242246 -0.552315
vn 0.797662 0.242246 -0.552315
vn 0.783670 0.153492 -0.601915
vn 0.797662 0.242246 -0.552315
vn 0.997489 0.009739 -0.070153
vn 0.997517 0.009390 -0.069799
vn 0.994648 0.036065 -0.096823
vn 0.351155 -0.821749 -0.448797
vn 0.351155 -0.821749 -0.448797
vn 0.418008 -0.757078 -0.502099
vn 0.418008 -0.757078 -0.502099
vn 0.351155 -0.821749 -0.448797
vn 0.516578 -0.633062 -0.576524
vn 0.993446 -0.105619 -0.043713
vn 0.993446 -0.105619 -0.043713
vn 0.995244 -0.056708 -0.079209
vn 0.995244 -0.056708 -0.079209
vn 0.993446 -0.105619 -0.043713
vn 0.994225 -0.020239 -0.105391
vn 0.601254 -0.485674 -0.634519
vn 0.601254 -0.485674 -0.634519
vn 0.516578 -0.633062 -0.576524
vn 0.516578 -0.633062 -0.576524
vn 0.601254 -0.485674 -0.634519
vn 0.418008 -0.757078 -0.502099
vn 0.703949 -0.186125 -0.685430
vn 0.703949 -0.186125 -0.685430
vn 0.847308 0.316978 -0.426139
vn 0.847308 0.316978 -0.426139
vn 0.703949 -0.186125 -0.685430
vn 0.842642 0.397808 -0.362909
vn 0.987882 0.015620 -0.154417
vn 0.985236 -0.007137 -0.171055
vn 0.987748 0.014277 -0.155402
vn 0.990381 0.050035 -0.129002
vn 0.987882 0.015620 -0.154417
vn 0.987748 0.014277 -0.155402
vn 0.655394 0.753917 0.045466
vn 0.847308 0.316978 -0.426139
vn 0.655394 0.753917 0.045466
vn 0.655394 0.753917 0.045466
vn 0.847308 0.316978 -0.426139
vn 0.842642 0.397808 -0.362909
vn 0.996662 0.072331 -0.037861
vn 0.996662 0.072331 -0.037861
vn 0.995758 0.021677 -0.089424
vn 0.995758 0.021677 -0.089424
vn 0.996662 0.072331 -0.037861
vn 0.994619 0.007954 -0.103293
vn 0.995758 0.021677 -0.089424
vn 0.994619 0.007954 -0.103293
vn 0.993202 -0.004949 -0.116296
vn 0.993202 -0.004949 -0.116296
vn 0.994619 0.007954 -0.103293
vn 0.994225 -0.020239 -0.105391
vn 0.994619 0.007954 -0.103293
vn 0.995244 -0.056708 -0.079209
vn 0.994225 -0.020239 -0.105391
vn 0.515007 0.731903 0.446191
vn 0.867348 0.273774 -0.415639
vn 0.515007 0.731903 0.446191
vn 0.863842 0.256603 -0.433512
vn 0.515007 0.731903 0.446191
vn 0.859912 0.239747 -0.450636
vn 0.859912 0.239747 -0.450636
vn 0.515007 0.731903 0.446191
vn 0.867348 0.273774 -0.415639
vn 0.863842 0.256603 -0.433512
vn 0.859912 0.239747 -0.450636
vn 0.769259 0.091514 -0.632350
vn 0.769259 0.091514 -0.632350
vn 0.859912 0.239747 -0.450636
vn 0.783670 0.153492 -0.601915
vn 0.859912 0.239747 -0.450636
vn 0.867348 0.273774 -0.415639
vn 0.783670 0.153492 -0.601915
vn 0.635775 -0.525865 0.565028
vn 0.627043 -0.466506 0.623850
vn 0.635775 -0.525865 0.565028
vn 0.635775 -0.525865 0.565028
vn 0.627043 -0.466506 0.623850
vn 0.610537 -0.390199 0.689194
vn 0.598197 -0.344540 0.723501
vn 0.610537 -0.390199 0.689194
vn 0.598197 -0.344540 0.723500
vn 0.598197 -0.344540 0.723500
vn 0.610537 -0.390199 0.689194
vn 0.627043 -0.466506 0.623850
vn 0.820979 0.432722 0.372485
vn 0.743751 0.257032 0.617064
vn 0.823576 0.469821 0.317789
vn 0.823576 0.469821 0.317789
vn 0.743751 0.257032 0.617064
vn 0.749116 0.277643 0.601448
vn 0.374945 0.697167 -0.611044
vn 0.374945 0.697167 -0.611044
vn 0.823576 0.469821 0.317789
vn 0.823576 0.469821 0.317789
vn 0.374945 0.697167 -0.611044
vn 0.820979 0.432722 0.372485
vn 0.994803 -0.101819 0.000084
vn 0.988769 -0.149438 -0.002307
vn 0.983557 -0.177260 0.034549
vn 0.988769 -0.149438 -0.002307
vn 0.995042 -0.077118 -0.062803
vn 0.983557 -0.177260 0.034549
vn 0.995042 -0.077118 -0.062803
vn 0.976227 -0.210901 0.050024
vn 0.983557 -0.177260 0.034549
vn 0.997884 0.028222 -0.058575
vn 0.994803 -0.101819 0.000084
vn 0.997884 0.028222 -0.058575
vn 0.997884 0.028222 -0.058575
vn 0.994803 -0.101819 0.000084
vn 0.983557 -0.177260 0.034549
vn 0.929821 0.216950 -0.297263
vn 0.995042 -0.077118 -0.062803
vn 0.929821 0.216950 -0.297263
vn 0.929821 0.216950 -0.297263
vn 0.995042 -0.077118 -0.062803
vn 0.988769 -0.149438 -0.002307
vn 0.982504 -0.182127 -0.038944
vn 0.999210 -0.035330 -0.018191
vn 0.979193 -0.198693 -0.041267
vn 0.994658 0.068911 -0.076852
vn 0.982504 -0.182127 -0.038944
vn 0.996016 0.048230 -0.075014
vn 0.996016 0.048230 -0.075014
vn 0.982504 -0.182127 -0.038944
vn 0.979193 -0.198693 -0.041267
vn 0.995574 0.062777 -0.069947
vn 0.995020 0.070108 -0.070850
vn 0.997489 0.009739 -0.070153
vn 0.997489 0.009739 -0.070153
vn 0.995020 0.070108 -0.070850
vn 0.997517 0.009390 -0.069799
vn 0.995574 0.062777 -0.069947
vn 0.994658 0.068911 -0.076852
vn 0.995020 0.070108 -0.070850
vn 0.995020 0.070108 -0.070850
vn 0.994658 0.068911 -0.076852
vn 0.996016 0.048230 -0.075014
vn 0.307201 0.917132 -0.253961
vn 0.307201 0.917132 -0.253961
vn 0.626323 0.553847 0.548610
vn 0.626323 0.553847 0.548610
vn 0.307201 0.917132 -0.253961
vn 0.628470 0.474095 0.616652
vn 0.997184 -0.017601 -0.072899
vn 0.969485 0.112774 -0.217674
vn 0.996526 -0.008772 -0.082817
vn 0.992105 -0.118361 0.041455
vn 0.997184 -0.017601 -0.072899
vn 0.996526 -0.008772 -0.082817
vn 0.463978 -0.162766 0.870765
vn 0.626323 0.553847 0.548610
vn 0.463978 -0.162766 0.870765
vn 0.463978 -0.162766 0.870765
vn 0.626323 0.553847 0.548610
vn 0.628470 0.474095 0.616652
vn -0.986800 0.113024 -0.115977
vn -0.993200 0.032723 -0.111725
vn -0.965953 -0.241898 -0.091756
vn -0.965953 -0.241898 -0.091756
vn -0.993200 0.032723 -0.111725
vn -0.965953 -0.241898 -0.091756
vn 0.000064 -0.999997 0.002439
vn 0.000064 -0.999997 0.002439
vn 0.000064 -0.999997 0.002439
vn 0.000064 -0.999997 0.002439
vn 0.000064 -0.999997 0.002439
vn 0.000064 -0.999997 0.002439
vn -0.993200 0.032723 -0.111725
vn -0.986800 0.113024 -0.115977
vn -0.918465 0.375352 -0.124629
vn -0.918465 0.375352 -0.124629
vn -0.986800 0.113024 -0.115977
vn -0.918465 0.375352 -0.124629
vn -0.918465 0.375352 -0.124629
vn -0.918465 0.375352 -0.124629
vn -0.986800 0.113024 -0.115977
vn -0.769949 0.394031 0.501914
vn -0.769949 0.394031 0.501914
vn -0.749117 0.277643 0.601447
vn -0.749117 0.277643 0.601447
vn -0.769949 0.394031 0.501914
vn -0.743752 0.257032 0.617064
vn -0.797662 0.242246 -0.552315
vn -0.783670 0.153493 -0.601914
vn -0.797662 0.242246 -0.552315
vn -0.797662 0.242246 -0.552315
vn -0.783670 0.153493 -0.601914
vn -0.769260 0.091514 -0.632349
vn -0.997489 0.009739 -0.070153
vn -0.994648 0.036065 -0.096823
vn -0.997517 0.009390 -0.069799
vn -0.516582 -0.633061 -0.576522
vn -0.351157 -0.821748 -0.448797
vn -0.418011 -0.757076 -0.502098
vn -0.418011 -0.757076 -0.502098
vn -0.351157 -0.821748 -0.448797
vn -0.351157 -0.821748 -0.448797
vn -0.994225 -0.020240 -0.105391
vn -0.993445 -0.105619 -0.043713
vn -0.995244 -0.056708 -0.079209
vn -0.995244 -0.056708 -0.079209
vn -0.993445 -0.105619 -0.043713
vn -0.993445 -0.105619 -0.043713
vn -0.601259 -0.485672 -0.634516
vn -0.516582 -0.633061 -0.576522
vn -0.601259 -0.485672 -0.634516
vn -0.601259 -0.485672 -0.634516
vn -0.516582 -0.633061 -0.576522
vn -0.418011 -0.757076 -0.502098
vn -0.842641 0.397809 -0.362911
vn -0.703945 -0.186126 -0.685433
vn -0.847307 0.316979 -0.426140
vn -0.847307 0.316979 -0.426140
vn -0.703945 -0.186126 -0.685433
vn -0.703945 -0.186126 -0.685433
vn -0.987882 0.015620 -0.154416
vn -0.987748 0.014277 -0.155402
vn -0.985236 -0.007137 -0.171054
vn -0.990381 0.050035 -0.129002
vn -0.987748 0.014277 -0.155402
vn -0.987882 0.015620 -0.154416
vn -0.842641 0.397809 -0.362911
vn -0.847307 0.316979 -0.426140
vn -0.655394 0.753917 0.045466
vn -0.655394 0.753917 0.045466
vn -0.847307 0.316979 -0.426140
vn -0.655394 0.753917 0.045466
vn -0.994619 0.007954 -0.103293
vn -0.996662 0.072331 -0.037861
vn -0.995758 0.021677 -0.089424
vn -0.995758 0.021677 -0.089424
vn -0.996662 0.072331 -0.037861
vn -0.996662 0.072331 -0.037861
vn -0.995758 0.021677 -0.089424
vn -0.993202 -0.004949 -0.116296
vn -0.994619 0.007954 -0.103293
vn -0.993202 -0.004949 -0.116296
vn -0.994225 -0.020240 -0.105391
vn -0.994619 0.007954 -0.103293
vn -0.994619 0.007954 -0.103293
vn -0.994225 -0.020240 -0.105391
vn -0.995244 -0.056708 -0.079209
vn -0.515007 0.731903 0.446191
vn -0.515007 0.731903 0.446191
vn -0.867348 0.273775 -0.415637
vn -0.863843 0.256604 -0.433509
vn -0.859913 0.239748 -0.450633
vn -0.515007 0.731903 0.446191
vn -0.859913 0.239748 -0.450633
vn -0.867348 0.273775 -0.415637
vn -0.515007 0.731903 0.446191
vn -0.863843 0.256604 -0.433509
vn -0.769260 0.091514 -0.632349
vn -0.859913 0.239748 -0.450633
vn -0.769260 0.091514 -0.632349
vn -0.783670 0.153493 -0.601914
vn -0.859913 0.239748 -0.450633
vn -0.783670 0.153493 -0.601914
vn -0.867348 0.273775 -0.415637
vn -0.859913 0.239748 -0.450633
vn -0.610537 -0.390200 0.689195
vn -0.627043 -0.466506 0.623850
vn -0.635775 -0.525865 0.565028
vn -0.635775 -0.525865 0.565028
vn -0.627043 -0.466506 0.623850
vn -0.635775 -0.525865 0.565028
vn -0.627043 -0.466506 0.623850
vn -0.610537 -0.390200 0.689195
vn -0.598196 -0.344541 0.723501
vn -0.598196 -0.344541 0.723501
vn -0.610537 -0.390200 0.689195
vn -0.598196 -0.344540 0.723501
vn -0.749117 0.277643 0.601447
vn -0.743752 0.257032 0.617064
vn -0.823576 0.469824 0.317786
vn -0.823576 0.469824 0.317786
vn -0.743752 0.257032 0.617064
vn -0.820980 0.432724 0.372482
vn -0.374937 0.697169 -0.611046
vn -0.823576 0.469824 0.317786
vn -0.374937 0.697169 -0.611046
vn -0.374937 0.697169 -0.611046
vn -0.823576 0.469824 0.317786
vn -0.820980 0.432724 0.372482
vn -0.994803 -0.101819 0.000084
vn -0.983557 -0.177260 0.034549
vn -0.988769 -0.149438 -0.002307
vn -0.988769 -0.149438 -0.002307
vn -0.983557 -0.177260 0.034549
vn -0.995042 -0.077117 -0.062805
vn -0.995042 -0.077117 -0.062805
vn -0.983557 -0.177260 0.034549
vn -0.976226 -0.210902 0.050024
vn -0.983557 -0.177260 0.034549
vn -0.994803 -0.101819 0.000084
vn -0.997884 0.028222 -0.058576
vn -0.997884 0.028222 -0.058576
vn -0.994803 -0.101819 0.000084
vn -0.997884 0.028222 -0.058575
vn -0.929819 0.216953 -0.297267
vn -0.929819 0.216953 -0.297267
vn -0.995042 -0.077117 -0.062805
vn -0.995042 -0.077117 -0.062805
vn -0.929819 0.216953 -0.297267
vn -0.988769 -0.149438 -0.002307
vn -0.982504 -0.182127 -0.038944
vn -0.979193 -0.198693 -0.041267
vn -0.999210 -0.035331 -0.018191
vn -0.994658 0.068912 -0.076852
vn -0.996015 0.048230 -0.075014
vn -0.982504 -0.182127 -0.038944
vn -0.982504 -0.182127 -0.038944
vn -0.996015 0.048230 -0.075014
vn -0.979193 -0.198693 -0.041267
vn -0.997517 0.009390 -0.069799
vn -0.995020 0.070108 -0.070850
vn -0.997489 0.009739 -0.070153
vn -0.997489 0.009739 -0.070153
vn -0.995020 0.070108 -0.070850
vn -0.995573 0.062778 -0.069947
vn -0.996015 0.048230 -0.075014
vn -0.994658 0.068912 -0.076852
vn -0.995020 0.070108 -0.070850
vn -0.995020 0.070108 -0.070850
vn -0.994658 0.068912 -0.076852
vn -0.995573 0.062778 -0.069947
vn -0.307204 0.917131 -0.253961
vn -0.626328 0.553845 0.548607
vn -0.307204 0.917131 -0.253961
vn -0.307204 0.917131 -0.253961
vn -0.626328 0.553845 0.548607
vn -0.628474 0.474094 0.616648
vn -0.997184 -0.017601 -0.072899
vn -0.996526 -0.008772 -0.082816
vn -0.969485 0.112774 -0.217673
vn -0.992105 -0.118362 0.041455
vn -0.996526 -0.008772 -0.082816
vn -0.997184 -0.017601 -0.072899
vn -0.628474 0.474094 0.616648
vn -0.626328 0.553845 0.548607
vn -0.463983 -0.162765 0.870762
vn -0.463983 -0.162765 0.870762
vn -0.626328 0.553845 0.548607
vn -0.463983 -0.162765 0.870762
vn 0.000000 -0.261499 -0.965204
vn 0.000000 -0.261499 -0.965204
vn 0.000000 -0.261499 -0.965204
vn 0.000000 -0.261499 -0.965204
vn 0.000000 -0.261499 -0.965204
vn 0.000000 -0.261499 -0.965204
vn 0.000000 -0.261499 -0.965204
vn 0.000000 -0.261499 -0.965204
vn 0.000000 -0.637266 0.770644
vn 0.000000 -0.637266 0.770644
vn 0.000000 -0.637266 0.770644
vn 0.000000 -0.637266 0.770644
vn 0.000000 -0.637266 0.770644
vn 0.000000 -0.637266 0.770644
vn 0.000000 -0.637266 0.770644
vn 0.000000 -0.637266 0.770644
s off
g Tail9
usemtl None
f 64/1/1 65/2/2 3/3/3
f 3/3/4 65/2/5 4/4/6
f 65/5/7 66/6/8 4/7/9
f 4/7/10 66/6/11 5/8/12
f 3/9/13 2/10/14 64/11/15
f 2/10/16 6/12/17 64/11/18
f 67/13/19 64/11/20 6/12/21
f 19/14/22 7/15/23 20/16/24
f 20/16/25 7/15/26 8/17/27
f 18/18/28 17/19/29 7/15/30
f 7/15/31 17/19/32 8/17/33
f 19/14/34 18/18/35 7/15/36
f 2/20/37 1/21/38 22/22/39
f 22/22/40 1/21/41 21/23/42
f 6/24/43 2/20/44 27/25/45
f 27/25/46 2/20/47 22/22/48
f 31/26/49 30/27/50 21/23/51
f 21/23/52 30/27/53 22/22/54
f 30/27/55 31/26/56 10/28/57
f 10/28/58 31/26/59 9/29/60
f 32/30/61 30/27/62 10/28/63
f 33/31/64 32/30/65 10/28/66
f 33/31/67 10/28/68 34/32/69
f 34/32/70 10/28/71 9/29/72
f 33/31/73 14/33/74 32/30/75
f 32/30/76 14/33/77 26/34/78
f 32/30/79 26/34/80 30/27/81
f 30/27/82 26/34/83 22/22/84
f 26/34/85 27/25/86 22/22/87
f 34/32/88 13/35/89 33/31/90
f 14/33/91 33/31/92 25/36/93
f 25/36/94 33/31/95 13/35/96
f 14/33/97 25/36/98 18/18/99
f 18/18/100 25/36/101 17/19/102
f 25/36/103 13/35/104 17/19/105
f 67/37/106 23/38/107 68/39/108
f 68/39/109 23/38/110 24/40/111
f 36/41/112 24/40/113 35/42/114
f 35/42/115 24/40/116 23/38/117
f 15/43/118 19/14/119 16/44/120
f 16/44/121 19/14/122 20/16/123
f 37/45/124 38/46/125 16/44/126
f 16/44/127 38/46/128 15/43/129
f 29/47/130 28/48/131 23/38/132
f 28/48/133 39/49/134 23/38/135
f 39/49/136 35/42/137 23/38/138
f 6/24/139 29/47/140 67/37/141
f 67/37/142 29/47/143 23/38/144
f 38/46/145 39/49/146 15/43/147
f 15/43/148 39/49/149 28/48/150
f 29/47/151 6/24/152 27/25/153
f 28/48/154 29/47/155 26/34/156
f 26/34/157 29/47/158 27/25/159
f 15/43/160 14/33/161 19/14/162
f 19/14/163 14/33/164 18/18/165
f 15/43/166 28/48/167 14/33/168
f 14/33/169 28/48/170 26/34/171
f 38/46/172 37/45/173 11/50/174
f 11/50/175 37/45/176 12/51/177
f 39/49/178 38/46/179 11/50/180
f 35/42/181 39/49/182 11/50/183
f 35/42/184 11/50/185 36/41/186
f 36/41/187 11/50/188 12/51/189
f 70/52/190 40/53/191 69/54/192
f 69/54/193 40/53/194 41/55/195
f 69/56/196 41/57/197 66/6/198
f 66/6/199 41/57/200 5/8/201
f 40/58/202 70/59/203 42/60/204
f 42/60/205 70/59/206 43/61/207
f 71/62/208 43/61/209 70/59/210
f 8/17/211 45/63/212 20/16/213
f 20/16/214 45/63/215 44/64/216
f 8/17/217 17/19/218 45/63/219
f 45/63/220 17/19/221 46/65/222
f 44/64/223 45/63/224 46/65/225
f 21/23/226 1/21/227 47/66/228
f 47/66/229 1/21/230 42/67/231
f 47/66/232 42/67/233 48/68/234
f 48/68/235 42/67/236 43/69/237
f 31/26/238 21/23/239 49/70/240
f 49/70/241 21/23/242 47/66/243
f 9/29/244 31/26/245 50/71/246
f 50/71/247 31/26/248 49/70/249
f 51/72/250 50/71/251 49/70/252
f 52/73/253 50/71/254 51/72/255
f 9/29/256 50/71/257 34/32/258
f 34/32/259 50/71/260 52/73/261
f 54/74/262 53/75/263 51/72/264
f 51/72/265 53/75/266 52/73/267
f 51/72/268 49/70/269 54/74/270
f 49/70/271 47/66/272 54/74/273
f 54/74/274 47/66/275 48/68/276
f 34/32/277 52/73/278 13/35/279
f 53/75/280 55/76/281 52/73/282
f 55/76/283 13/35/284 52/73/285
f 53/75/286 46/65/287 55/76/288
f 46/65/289 17/19/290 55/76/291
f 17/19/292 13/35/293 55/76/294
f 24/40/295 56/77/296 68/39/297
f 68/39/298 56/77/299 71/78/300
f 56/77/301 24/40/302 57/79/303
f 57/79/304 24/40/305 36/41/306
f 20/16/307 44/64/308 16/44/309
f 16/44/310 44/64/311 58/80/312
f 37/45/313 16/44/314 59/81/315
f 59/81/316 16/44/317 58/80/318
f 61/82/319 56/77/320 62/83/321
f 62/83/322 56/77/323 60/84/324
f 60/84/325 56/77/326 57/79/327
f 56/77/328 61/82/329 71/78/330
f 71/78/331 61/82/332 43/69/333
f 59/81/334 58/80/335 60/84/336
f 60/84/337 58/80/338 62/83/339
f 61/82/340 48/68/341 43/69/342
f 62/83/343 54/74/344 61/82/345
f 61/82/346 54/74/347 48/68/348
f 46/65/349 53/75/350 44/64/351
f 44/64/352 53/75/353 58/80/354
f 54/74/355 62/83/356 53/75/357
f 53/75/358 62/83/359 58/80/360
f 59/81/361 63/85/362 37/45/363
f 37/45/364 63/85/365 12/51/366
f 60/84/367 63/85/368 59/81/369
f 57/79/370 63/85/371 60/84/372
f 12/51/373 63/85/374 36/41/375
f 36/41/376 63/85/377 57/79/378
s 1
f 1/92/379 2/93/380 42/91/381
f 4/87/382 5/88/383 3/86/384
f 3/86/384 5/88/383 2/93/380
f 2/93/380 5/88/383 42/91/381
f 42/91/381 5/88/383 40/90/385
f 5/88/383 41/89/386 40/90/385
s 3
f 68/97/387 71/98/388 67/96/389
f 67/96/389 71/98/388 64/95/390
f 64/95/390 71/98/388 65/94/391
f 65/94/391 71/98/388 66/101/392
f 71/98/388 70/99/393 66/101/392
f 70/99/393 69/100/394 66/101/392
