# This file uses centimeters as units for non-parametric coordinates.

mtllib MagbyRLeg.mtl
g default
v -1.423900 -3.319900 -1.437800
v 1.452300 -3.323300 -1.433800
v -1.423900 -3.319900 1.241800
v 1.452300 -3.323300 1.162100
v 1.773200 -4.374900 6.388000
v -2.324600 -4.372800 6.391600
v 1.712700 -6.193600 10.248200
v -3.040800 -6.191400 10.251800
v 0.204200 -8.685300 11.648400
v -1.532300 -8.685300 11.652000
v -4.465500 -9.359100 10.889100
v -4.625300 -8.684600 6.562300
v 4.295600 -8.684200 6.866900
v 3.595300 -8.686500 10.885600
v -4.212400 -8.684600 -0.394600
v 4.488400 -8.686500 -0.415500
v -3.249000 -8.684900 14.668400
v 1.988800 -8.685800 14.664900
v -3.442200 -6.019700 -1.341600
v 0.012500 -6.004800 -5.225200
v 0.012200 -8.700200 -5.212000
v 3.645600 -6.023100 -1.336100
v 3.982700 -6.241500 5.069800
v -3.779300 -6.018100 4.783400
v -1.590300 0.182600 -1.543400
v 1.660300 0.178800 -1.538900
v -1.590300 0.182600 1.485000
v 1.660300 0.178800 1.480400
vt 0.728100 0.227400
vt 0.728700 0.252500
vt 0.733300 0.258700
vt 0.733300 0.258700
vt 0.732300 0.232900
vt 0.728100 0.227400
vt 0.708300 0.228400
vt 0.706300 0.253600
vt 0.728700 0.252500
vt 0.728700 0.252500
vt 0.728100 0.227400
vt 0.708300 0.228400
vt 0.732300 0.232900
vt 0.733300 0.258700
vt 0.711100 0.259800
vt 0.711100 0.259800
vt 0.713100 0.233900
vt 0.732300 0.232900
vt 0.713100 0.233900
vt 0.711100 0.259800
vt 0.706300 0.253600
vt 0.706300 0.253600
vt 0.708300 0.228400
vt 0.713100 0.233900
vt 0.671500 0.231700
vt 0.713100 0.233900
vt 0.708300 0.228400
vt 0.708300 0.228400
vt 0.665500 0.223900
vt 0.671500 0.231700
vt 0.646400 0.221800
vt 0.671500 0.231700
vt 0.665500 0.223900
vt 0.665500 0.223900
vt 0.639500 0.212700
vt 0.646400 0.221800
vt 0.633900 0.196400
vt 0.646400 0.221800
vt 0.639500 0.212700
vt 0.639500 0.212700
vt 0.631400 0.193100
vt 0.633900 0.196400
vt 0.632700 0.187200
vt 0.664400 0.185300
vt 0.631400 0.193100
vt 0.633900 0.196400
vt 0.675100 0.202500
vt 0.644400 0.202600
vt 0.633900 0.196400
vt 0.631400 0.193100
vt 0.664400 0.185300
vt 0.664400 0.185300
vt 0.675100 0.202500
vt 0.633900 0.196400
vt 0.675100 0.202500
vt 0.664400 0.185300
vt 0.716400 0.183500
vt 0.716400 0.183500
vt 0.729200 0.200100
vt 0.675100 0.202500
vt 0.612200 0.539300
vt 0.590700 0.537700
vt 0.590600 0.588800
vt 0.516900 0.588900
vt 0.509400 0.537800
vt 0.487200 0.539500
vt 0.539300 0.539100
vt 0.509400 0.537800
vt 0.516900 0.588900
vt 0.590600 0.588800
vt 0.590700 0.537700
vt 0.566200 0.539100
vt 0.566200 0.539100
vt 0.590700 0.537700
vt 0.612200 0.539300
vt 0.487200 0.539500
vt 0.509400 0.537800
vt 0.539300 0.539100
vt 0.724500 0.204000
vt 0.758200 0.209200
vt 0.758100 0.189600
vt 0.758100 0.189600
vt 0.716400 0.183500
vt 0.724500 0.204000
vt 0.716400 0.183500
vt 0.758100 0.189600
vt 0.729200 0.200100
vt 0.729200 0.200100
vt 0.758100 0.189600
vt 0.758200 0.209200
vt 0.758200 0.209200
vt 0.734700 0.217500
vt 0.729200 0.200100
vt 0.758200 0.209200
vt 0.732300 0.232900
vt 0.734700 0.217500
vt 0.728100 0.227400
vt 0.758200 0.209200
vt 0.724500 0.204000
vt 0.758200 0.209200
vt 0.728100 0.227400
vt 0.732300 0.232900
vt 0.732300 0.232900
vt 0.713100 0.233900
vt 0.687900 0.219000
vt 0.687900 0.219000
vt 0.734700 0.217500
vt 0.732300 0.232900
vt 0.734700 0.217500
vt 0.687900 0.219000
vt 0.675100 0.202500
vt 0.675100 0.202500
vt 0.729200 0.200100
vt 0.734700 0.217500
vt 0.713100 0.233900
vt 0.671500 0.231700
vt 0.687900 0.219000
vt 0.687900 0.219000
vt 0.671500 0.231700
vt 0.646400 0.221800
vt 0.675100 0.202500
vt 0.687900 0.219000
vt 0.646400 0.221800
vt 0.646400 0.221800
vt 0.644400 0.202600
vt 0.675100 0.202500
vt 0.724500 0.204000
vt 0.678800 0.205600
vt 0.708300 0.228400
vt 0.708300 0.228400
vt 0.728100 0.227400
vt 0.724500 0.204000
vt 0.716400 0.183500
vt 0.664400 0.185300
vt 0.678800 0.205600
vt 0.678800 0.205600
vt 0.724500 0.204000
vt 0.716400 0.183500
vt 0.665500 0.223900
vt 0.708300 0.228400
vt 0.678800 0.205600
vt 0.665500 0.223900
vt 0.678800 0.205600
vt 0.639500 0.212700
vt 0.639500 0.212700
vt 0.678800 0.205600
vt 0.664400 0.185300
vt 0.664400 0.185300
vt 0.632700 0.187200
vt 0.639500 0.212700
vn 0.001400 -0.030101 -0.999546
vn 0.001400 -0.030101 -0.999546
vn 0.001400 -0.030101 -0.999546
vn 0.001400 -0.030101 -0.999546
vn 0.001400 -0.030101 -0.999546
vn 0.001400 -0.030101 -0.999546
vn -0.998871 -0.047499 0.000000
vn -0.998871 -0.047499 0.000000
vn -0.998871 -0.047499 0.000000
vn -0.998871 -0.047499 0.000000
vn -0.998871 -0.047499 0.000000
vn -0.998871 -0.047499 0.000000
vn 0.998240 -0.059302 0.000000
vn 0.998240 -0.059302 0.000000
vn 0.998240 -0.059302 0.000000
vn 0.998240 -0.059302 0.000000
vn 0.998240 -0.059302 0.000000
vn 0.998240 -0.059302 0.000000
vn 0.001300 -0.090599 0.995887
vn 0.001300 -0.090599 0.995887
vn 0.001300 -0.090599 0.995887
vn 0.027600 -0.067901 0.997310
vn 0.027600 -0.067901 0.997310
vn 0.027600 -0.067901 0.997310
vn 0.006600 0.980401 0.196900
vn 0.006600 0.980401 0.196900
vn 0.006600 0.980401 0.196900
vn 0.000700 0.979713 0.200403
vn 0.000700 0.979713 0.200403
vn 0.000700 0.979713 0.200403
vn 0.000800 0.904623 0.426211
vn 0.000800 0.904623 0.426211
vn 0.000800 0.904623 0.426211
vn 0.000700 0.904585 0.426293
vn 0.000700 0.904585 0.426293
vn 0.000700 0.904585 0.426293
vn 0.000900 0.489501 0.872002
vn 0.000900 0.489501 0.872002
vn 0.000900 0.489501 0.872002
vn 0.001800 0.490398 0.871497
vn 0.001800 0.490398 0.871497
vn 0.001800 0.490398 0.871497
vn 0.259901 -0.952605 -0.158101
vn 0.259901 -0.952605 -0.158101
vn 0.259901 -0.952605 -0.158101
vn -0.000500 -1.000000 -0.000700
vn -0.000500 -1.000000 -0.000700
vn -0.000500 -1.000000 -0.000700
vn 0.000000 -1.000000 -0.000100
vn 0.000000 -1.000000 -0.000100
vn 0.000000 -1.000000 -0.000100
vn 0.000100 -1.000000 -0.000200
vn 0.000100 -1.000000 -0.000200
vn 0.000100 -1.000000 -0.000200
vn 0.000000 -1.000000 0.000000
vn 0.000000 -1.000000 0.000000
vn 0.000000 -1.000000 0.000000
vn -0.000200 -1.000000 0.000300
vn -0.000200 -1.000000 0.000300
vn -0.000200 -1.000000 0.000300
vn -0.876664 0.435482 0.204491
vn -0.876664 0.435482 0.204491
vn -0.876664 0.435482 0.204491
vn 0.720425 0.622322 0.306111
vn 0.720425 0.622322 0.306111
vn 0.720425 0.622322 0.306111
vn -0.669680 0.628081 0.396288
vn -0.669680 0.628081 0.396288
vn -0.669680 0.628081 0.396288
vn 0.677599 0.626299 0.385499
vn 0.677599 0.626299 0.385499
vn 0.677599 0.626299 0.385499
vn 0.194902 -0.974510 0.111101
vn 0.194902 -0.974510 0.111101
vn 0.194902 -0.974510 0.111101
vn -0.000300 -1.000000 0.000100
vn -0.000300 -1.000000 0.000100
vn -0.000300 -1.000000 0.000100
vn -0.747196 -0.003200 -0.664596
vn -0.747196 -0.003200 -0.664596
vn -0.747196 -0.003200 -0.664596
vn -0.751786 -0.017000 -0.659188
vn -0.751786 -0.017000 -0.659188
vn -0.751786 -0.017000 -0.659188
vn -0.000200 -0.999995 0.003000
vn -0.000200 -0.999995 0.003000
vn -0.000200 -0.999995 0.003000
vn 0.731081 -0.003400 -0.682282
vn 0.731081 -0.003400 -0.682282
vn 0.731081 -0.003400 -0.682282
vn 0.730741 -0.004700 -0.682638
vn 0.730741 -0.004700 -0.682638
vn 0.730741 -0.004700 -0.682638
vn 0.636017 0.495213 -0.591816
vn 0.636017 0.495213 -0.591816
vn 0.636017 0.495213 -0.591816
vn -0.659493 0.472195 -0.584894
vn -0.659493 0.472195 -0.584894
vn -0.659493 0.472195 -0.584894
vn 0.001800 0.816104 -0.577903
vn 0.001800 0.816104 -0.577903
vn 0.001800 0.816104 -0.577903
vn 0.755524 0.655121 0.000000
vn 0.755524 0.655121 0.000000
vn 0.755524 0.655121 0.000000
vn 0.776372 0.629977 -0.019399
vn 0.776372 0.629977 -0.019399
vn 0.776372 0.629977 -0.019399
vn 0.994616 0.091201 -0.049201
vn 0.994616 0.091201 -0.049201
vn 0.994616 0.091201 -0.049201
vn 0.950601 0.309400 0.025100
vn 0.950601 0.309400 0.025100
vn 0.950601 0.309400 0.025100
vn 0.677502 0.728002 0.104900
vn 0.677502 0.728002 0.104900
vn 0.677502 0.728002 0.104900
vn 0.714400 0.628600 0.307400
vn 0.714400 0.628600 0.307400
vn 0.714400 0.628600 0.307400
vn 0.848503 0.379801 0.368501
vn 0.848503 0.379801 0.368501
vn 0.848503 0.379801 0.368501
vn 0.773768 0.618874 0.135194
vn 0.773768 0.618874 0.135194
vn 0.773768 0.618874 0.135194
vn -0.779997 0.624297 -0.043100
vn -0.779997 0.624297 -0.043100
vn -0.779997 0.624297 -0.043100
vn -0.800947 0.598735 -0.000000
vn -0.800947 0.598735 -0.000000
vn -0.800947 0.598735 -0.000000
vn -0.961978 0.267094 -0.057099
vn -0.961978 0.267094 -0.057099
vn -0.961978 0.267094 -0.057099
vn -0.964201 0.259800 -0.053100
vn -0.964201 0.259800 -0.053100
vn -0.964201 0.259800 -0.053100
vn -0.750903 0.660402 0.003700
vn -0.750903 0.660402 0.003700
vn -0.750903 0.660402 0.003700
vn -0.801333 0.584624 0.126805
vn -0.801333 0.584624 0.126805
vn -0.801333 0.584624 0.126805
vn -0.914702 0.380701 0.135600
vn -0.914702 0.380701 0.135600
vn -0.914702 0.380701 0.135600
vn -0.899849 0.424723 0.099405
vn -0.899849 0.424723 0.099405
vn -0.899849 0.424723 0.099405
s off
g RLeg
usemtl None
f 1/1/1 25/2/2 26/3/3
f 26/4/4 2/5/5 1/6/6
f 3/7/7 27/8/8 25/9/9
f 25/10/10 1/11/11 3/12/12
f 2/13/13 26/14/14 28/15/15
f 28/16/16 4/17/17 2/18/18
f 4/19/19 28/20/20 27/21/21
f 27/22/22 3/23/23 4/24/24
f 5/25/25 4/26/26 3/27/27
f 3/28/28 6/29/29 5/30/30
f 7/31/31 5/32/32 6/33/33
f 6/34/34 8/35/35 7/36/36
f 9/37/37 7/38/38 8/39/39
f 8/40/40 10/41/41 9/42/42
f 11/43/43 12/44/44 10/45/45
f 9/46/46 13/47/47 14/48/48
f 9/49/49 10/50/50 12/51/51
f 12/52/52 13/53/53 9/54/54
f 13/55/55 12/56/56 15/57/57
f 15/58/58 16/59/59 13/60/60
f 11/61/61 17/62/62 8/63/63
f 7/64/64 18/65/65 14/66/66
f 9/67/67 18/68/68 7/69/69
f 8/70/70 17/71/71 10/72/72
f 10/73/73 17/74/74 11/75/75
f 14/76/76 18/77/77 9/78/78
f 19/79/79 20/80/80 21/81/81
f 21/82/82 15/83/83 19/84/84
f 15/85/85 21/86/86 16/87/87
f 16/88/88 21/89/89 20/90/90
f 20/91/91 22/92/92 16/93/93
f 20/94/94 2/95/95 22/96/96
f 1/97/97 20/98/98 19/99/99
f 20/100/100 1/101/101 2/102/102
f 2/103/103 4/104/104 23/105/105
f 23/106/106 22/107/107 2/108/108
f 22/109/109 23/110/110 13/111/111
f 13/112/112 16/113/113 22/114/114
f 4/115/115 5/116/116 23/117/117
f 23/118/118 5/119/119 7/120/120
f 13/121/121 23/122/122 7/123/123
f 7/124/124 14/125/125 13/126/126
f 19/127/127 24/128/128 3/129/129
f 3/130/130 1/131/131 19/132/132
f 15/133/133 12/134/134 24/135/135
f 24/136/136 19/137/137 15/138/138
f 6/139/139 3/140/140 24/141/141
f 6/142/142 24/143/143 8/144/144
f 8/145/145 24/146/146 12/147/147
f 12/148/148 11/149/149 8/150/150
