# This file uses centimeters as units for non-parametric coordinates.

mtllib MagbyLArm.mtl
g default
v -0.323800 -3.083199 0.145900
v -0.323800 -1.358100 -2.842100
v 3.387800 -1.279099 -2.337600
v 3.138800 -2.691199 0.145900
v -0.323800 2.092200 -2.842100
v 3.885700 1.544900 -2.337600
v -0.323800 3.817298 0.145900
v 4.134700 2.956901 0.145900
v -0.323800 2.092200 3.133900
v 3.885700 1.544900 2.629300
v -0.323800 -1.358100 3.133900
v 3.387800 -1.279099 2.629300
v 10.172900 -2.588200 -2.529800
v 9.904700 -4.109500 0.145900
v 10.709400 0.454400 -2.529800
v 10.977700 1.975700 0.145900
v 10.709400 0.454400 2.821500
v 10.172900 -2.588200 2.821500
v 16.311799 -3.876099 -2.951600
v 16.026700 -5.459700 0.138800
v 16.881999 -0.326800 -2.646900
v 17.167100 1.395299 0.138800
v 16.881999 -0.411300 3.143100
v 16.311799 -3.876099 3.229200
v 17.865199 -3.957200 -2.665000
v 18.384000 -4.957499 -0.654000
v 18.574201 -2.021100 -2.065000
v 18.397399 0.772800 0.138800
v 18.769799 -0.780101 -1.272300
v 18.769799 -0.703700 1.902400
v 17.865199 -4.136399 2.843000
v 18.574201 -1.929000 2.904700
v 18.384000 -4.941899 1.141100
v 22.039001 -4.209901 -1.770200
v 19.085900 -3.167901 -0.267700
v 22.431501 -1.044499 0.162400
v 19.194699 -2.127900 0.368600
v 22.039001 -4.199599 2.233600
v 19.085401 -3.155900 0.945100
vt 0.689800 0.344300
vt 0.711800 0.355700
vt 0.702700 0.349400
vt 0.684800 0.340500
vt 0.711800 0.380700
vt 0.702000 0.368900
vt 0.689800 0.394400
vt 0.683300 0.379600
vt 0.667700 0.383000
vt 0.665300 0.370800
vt 0.667700 0.357900
vt 0.666100 0.351200
vt 0.694300 0.326800
vt 0.674900 0.317300
vt 0.693500 0.347900
vt 0.673400 0.359400
vt 0.654000 0.349900
vt 0.654800 0.328800
vt 0.688500 0.305600
vt 0.666100 0.295800
vt 0.685400 0.330400
vt 0.664500 0.343400
vt 0.642700 0.331900
vt 0.642900 0.307900
vt 0.684100 0.302100
vt 0.668600 0.294600
vt 0.678700 0.315000
vt 0.662700 0.336500
vt 0.672600 0.324000
vt 0.649100 0.325700
vt 0.643500 0.302900
vt 0.642000 0.317600
vt 0.655300 0.295400
vt 0.604300 0.628100
vt 0.590100 0.674700
vt 0.581100 0.638900
vt 0.548500 0.650600
vt 0.557800 0.607300
vt 0.539600 0.736900
vt 0.498900 0.704800
vt 0.536500 0.711900
vt 0.533800 0.674500
vt 0.571800 0.703500
vt 0.477900 0.623500
vt 0.516600 0.607500
vt 0.489200 0.638700
vt 0.520700 0.650700
vt 0.476000 0.676200
vt 0.664700 0.306400
vt 0.659800 0.314000
vt 0.655700 0.307000
vn 0.086103 -0.862826 -0.498115
vn 0.086103 -0.862826 -0.498115
vn 0.086103 -0.862826 -0.498115
vn 0.098400 -0.869296 -0.484398
vn 0.098400 -0.869296 -0.484398
vn 0.098400 -0.869296 -0.484398
vn 0.118999 0.000000 -0.992894
vn 0.118999 0.000000 -0.992894
vn 0.118999 0.000000 -0.992894
vn 0.135204 -0.023801 -0.990532
vn 0.135204 -0.023801 -0.990532
vn 0.135204 -0.023801 -0.990532
vn 0.164795 0.854173 -0.493184
vn 0.164795 0.854173 -0.493184
vn 0.164795 0.854173 -0.493184
vn 0.170296 0.849182 -0.499889
vn 0.170296 0.849182 -0.499889
vn 0.170296 0.849182 -0.499889
vn 0.170005 0.853424 0.492714
vn 0.170005 0.853424 0.492714
vn 0.170005 0.853424 0.492714
vn 0.164091 0.850354 0.499973
vn 0.164091 0.850354 0.499973
vn 0.164091 0.850354 0.499973
vn 0.134698 0.000000 0.990887
vn 0.134698 0.000000 0.990887
vn 0.134698 0.000000 0.990887
vn 0.116399 -0.020500 0.992991
vn 0.116399 -0.020500 0.992991
vn 0.116399 -0.020500 0.992991
vn 0.097600 -0.861899 0.497599
vn 0.097600 -0.861899 0.497599
vn 0.097600 -0.861899 0.497599
vn 0.084600 -0.869799 0.486099
vn 0.084600 -0.869799 0.486099
vn 0.084600 -0.869799 0.486099
vn -0.177702 -0.847712 -0.499807
vn -0.177702 -0.847712 -0.499807
vn -0.177702 -0.847712 -0.499807
vn -0.177702 -0.847712 -0.499807
vn -0.177702 -0.847712 -0.499807
vn -0.177702 -0.847712 -0.499807
vn -0.027400 0.004800 -0.999613
vn -0.027400 0.004800 -0.999613
vn -0.027400 0.004800 -0.999613
vn -0.027400 0.004800 -0.999613
vn -0.027400 0.004800 -0.999613
vn -0.027400 0.004800 -0.999613
vn 0.122898 0.857383 -0.499790
vn 0.122898 0.857383 -0.499790
vn 0.122898 0.857383 -0.499790
vn 0.122898 0.857383 -0.499790
vn 0.122898 0.857383 -0.499790
vn 0.122898 0.857383 -0.499790
vn 0.122898 0.857383 0.499790
vn 0.122898 0.857383 0.499790
vn 0.122898 0.857383 0.499790
vn 0.122898 0.857383 0.499790
vn 0.122898 0.857383 0.499790
vn 0.122898 0.857383 0.499790
vn -0.027400 0.004800 0.999613
vn -0.027400 0.004800 0.999613
vn -0.027400 0.004800 0.999613
vn -0.027400 0.004800 0.999613
vn -0.027400 0.004800 0.999613
vn -0.027400 0.004800 0.999613
vn -0.177702 -0.847712 0.499807
vn -0.177702 -0.847712 0.499807
vn -0.177702 -0.847712 0.499807
vn -0.177702 -0.847712 0.499807
vn -0.177702 -0.847712 0.499807
vn -0.177702 -0.847712 0.499807
vn -0.210594 -0.840574 -0.499085
vn -0.210594 -0.840574 -0.499085
vn -0.210594 -0.840574 -0.499085
vn -0.191600 -0.866202 -0.461501
vn -0.191600 -0.866202 -0.461501
vn -0.191600 -0.866202 -0.461501
vn -0.018600 0.003300 -0.999822
vn -0.018600 0.003300 -0.999822
vn -0.018600 0.003300 -0.999822
vn -0.048798 0.093195 -0.994451
vn -0.048798 0.093195 -0.994451
vn -0.048798 0.093195 -0.994451
vn 0.080403 0.863028 -0.498716
vn 0.080403 0.863028 -0.498716
vn 0.080403 0.863028 -0.498716
vn 0.096498 0.842182 -0.530489
vn 0.096498 0.842182 -0.530489
vn 0.096498 0.842182 -0.530489
vn 0.094799 0.861289 0.499194
vn 0.094799 0.861289 0.499194
vn 0.094799 0.861289 0.499194
vn 0.080400 0.850801 0.519301
vn 0.080400 0.850801 0.519301
vn 0.080400 0.850801 0.519301
vn -0.063900 0.011300 0.997892
vn -0.063900 0.011300 0.997892
vn -0.063900 0.011300 0.997892
vn -0.047402 0.032601 0.998344
vn -0.047402 0.032601 0.998344
vn -0.047402 0.032601 0.998344
vn -0.185999 -0.845995 0.499697
vn -0.185999 -0.845995 0.499697
vn -0.185999 -0.845995 0.499697
vn -0.211400 -0.861799 0.461099
vn -0.211400 -0.861799 0.461099
vn -0.211400 -0.861799 0.461099
vn 0.037100 -0.890893 -0.452696
vn 0.037100 -0.890893 -0.452696
vn 0.037100 -0.890893 -0.452696
vn 0.037401 -0.890720 -0.453010
vn 0.037401 -0.890720 -0.453010
vn 0.037401 -0.890720 -0.453010
vn 0.188198 0.227198 -0.955491
vn 0.188198 0.227198 -0.955491
vn 0.188198 0.227198 -0.955491
vn 0.347101 0.024700 -0.937502
vn 0.347101 0.024700 -0.937502
vn 0.347101 0.024700 -0.937502
vn 0.341789 0.675579 -0.653279
vn 0.341789 0.675579 -0.653279
vn 0.341789 0.675579 -0.653279
vn 0.522388 0.700384 -0.486389
vn 0.522388 0.700384 -0.486389
vn 0.522388 0.700384 -0.486389
vn 0.440216 0.750428 0.493018
vn 0.440216 0.750428 0.493018
vn 0.440216 0.750428 0.493018
vn 0.378189 0.747579 0.545984
vn 0.378189 0.747579 0.545984
vn 0.378189 0.747579 0.545984
vn 0.224408 -0.099203 0.969433
vn 0.224408 -0.099203 0.969433
vn 0.224408 -0.099203 0.969433
vn 0.140805 0.001400 0.990036
vn 0.140805 0.001400 0.990036
vn 0.140805 0.001400 0.990036
vn 0.001700 -0.890023 0.455912
vn 0.001700 -0.890023 0.455912
vn 0.001700 -0.890023 0.455912
vn -0.049000 -0.908501 0.415000
vn -0.049000 -0.908501 0.415000
vn -0.049000 -0.908501 0.415000
vn 0.211106 -0.977426 0.008500
vn 0.211106 -0.977426 0.008500
vn 0.211106 -0.977426 0.008500
vn 0.604191 0.359195 -0.711289
vn 0.604191 0.359195 -0.711289
vn 0.604191 0.359195 -0.711289
vn 0.531816 0.483714 0.695121
vn 0.531816 0.483714 0.695121
vn 0.531816 0.483714 0.695121
vn 0.217093 0.215493 -0.952068
vn 0.217093 0.215493 -0.952068
vn 0.217093 0.215493 -0.952068
vn 0.472196 0.797893 0.374697
vn 0.472196 0.797893 0.374697
vn 0.472196 0.797893 0.374697
vn 0.043400 -0.889996 -0.453898
vn 0.043400 -0.889996 -0.453898
vn 0.043400 -0.889996 -0.453898
vn 0.337100 0.755700 0.561500
vn 0.337100 0.755700 0.561500
vn 0.337100 0.755700 0.561500
vn 0.267800 -0.667901 0.694400
vn 0.267800 -0.667901 0.694400
vn 0.267800 -0.667901 0.694400
vn 0.309814 0.679031 -0.665531
vn 0.309814 0.679031 -0.665531
vn 0.309814 0.679031 -0.665531
vn 0.050599 -0.896675 0.439788
vn 0.050599 -0.896675 0.439788
vn 0.050599 -0.896675 0.439788
vn 0.320902 -0.227002 -0.919506
vn 0.320902 -0.227002 -0.919506
vn 0.320902 -0.227002 -0.919506
vn 0.142999 -0.073499 0.986990
vn 0.142999 -0.073499 0.986990
vn 0.142999 -0.073499 0.986990
vn 0.336213 -0.322812 0.884734
vn 0.336213 -0.322812 0.884734
vn 0.336213 -0.322812 0.884734
vn 0.202901 -0.730205 -0.652405
vn 0.202901 -0.730205 -0.652405
vn 0.202901 -0.730205 -0.652405
vn 0.452397 0.804195 -0.385497
vn 0.452397 0.804195 -0.385497
vn 0.452397 0.804195 -0.385497
vn 0.964381 0.016600 -0.263995
vn 0.964381 0.016600 -0.263995
vn 0.964381 0.016600 -0.263995
vn 0.974058 0.034899 -0.223590
vn 0.974058 0.034899 -0.223590
vn 0.974058 0.034899 -0.223590
vn 0.970317 0.031301 0.239804
vn 0.970317 0.031301 0.239804
vn 0.970317 0.031301 0.239804
vn 0.972100 0.034600 0.232000
vn 0.972100 0.034600 0.232000
vn 0.972100 0.034600 0.232000
vn 0.930724 -0.365709 0.003200
vn 0.930724 -0.365709 0.003200
vn 0.930724 -0.365709 0.003200
vn 0.930918 -0.365207 0.003900
vn 0.930918 -0.365207 0.003900
vn 0.930918 -0.365207 0.003900
vn 0.994472 -0.104997 0.001400
vn 0.994472 -0.104997 0.001400
vn 0.994472 -0.104997 0.001400
s off
g LArm
usemtl None
f 1/1/1 2/2/2 3/3/3
f 3/3/4 4/4/5 1/1/6
f 2/2/7 5/5/8 6/6/9
f 6/6/10 3/3/11 2/2/12
f 5/5/13 7/7/14 8/8/15
f 8/8/16 6/6/17 5/5/18
f 7/7/19 9/9/20 10/10/21
f 10/10/22 8/8/23 7/7/24
f 9/9/25 11/11/26 12/12/27
f 12/12/28 10/10/29 9/9/30
f 11/11/31 1/1/32 4/4/33
f 4/4/34 12/12/35 11/11/36
f 4/4/37 3/3/38 13/13/39
f 13/13/40 14/14/41 4/4/42
f 3/3/43 6/6/44 15/15/45
f 15/15/46 13/13/47 3/3/48
f 6/6/49 8/8/50 16/16/51
f 16/16/52 15/15/53 6/6/54
f 8/8/55 10/10/56 17/17/57
f 17/17/58 16/16/59 8/8/60
f 10/10/61 12/12/62 18/18/63
f 18/18/64 17/17/65 10/10/66
f 12/12/67 4/4/68 14/14/69
f 14/14/70 18/18/71 12/12/72
f 14/14/73 13/13/74 19/19/75
f 19/19/76 20/20/77 14/14/78
f 13/13/79 15/15/80 21/21/81
f 21/21/82 19/19/83 13/13/84
f 15/15/85 16/16/86 22/22/87
f 22/22/88 21/21/89 15/15/90
f 16/16/91 17/17/92 23/23/93
f 23/23/94 22/22/95 16/16/96
f 17/17/97 18/18/98 24/24/99
f 24/24/100 23/23/101 17/17/102
f 18/18/103 14/14/104 20/20/105
f 20/20/106 24/24/107 18/18/108
f 19/19/109 25/25/110 26/26/111
f 26/26/112 20/20/113 19/19/114
f 27/27/115 25/25/116 19/19/117
f 19/19/118 21/21/119 27/27/120
f 22/22/121 28/28/122 29/29/123
f 29/29/124 21/21/125 22/22/126
f 22/22/127 23/23/128 30/30/129
f 30/30/130 28/28/131 22/22/132
f 24/24/133 31/31/134 32/32/135
f 32/32/136 23/23/137 24/24/138
f 24/24/139 20/20/140 33/33/141
f 33/33/142 31/31/143 24/24/144
f 33/33/145 20/20/146 26/26/147
f 21/21/148 29/29/149 27/27/150
f 23/23/151 32/32/152 30/30/153
f 25/34/154 27/35/155 34/36/156
f 27/35/157 35/37/158 34/36/159
f 26/38/160 25/34/161 34/36/162
f 28/39/163 30/40/164 36/41/165
f 30/40/166 37/42/167 36/41/168
f 29/43/169 28/39/170 36/41/171
f 31/44/172 33/45/173 38/46/174
f 33/45/175 39/47/176 38/46/177
f 32/48/178 31/44/179 38/46/180
f 35/37/181 26/38/182 34/36/183
f 37/42/184 29/43/185 36/41/186
f 39/47/187 32/48/188 38/46/189
f 35/49/190 27/27/191 29/29/192
f 29/29/193 37/50/194 35/49/195
f 39/51/196 37/50/197 30/30/198
f 30/30/199 32/32/200 39/51/201
f 33/33/202 26/26/203 35/49/204
f 35/49/205 39/51/206 33/33/207
f 35/49/208 37/50/209 39/51/210
