# This file uses centimeters as units for non-parametric coordinates.

mtllib MagbyRArm.mtl
g default
v 0.323500 -3.083199 0.145900
v -3.139100 -2.691199 0.145900
v -3.388100 -1.279099 -2.337600
v 0.323500 -1.358100 -2.842100
v -3.886100 1.544900 -2.337600
v 0.323400 2.092200 -2.842100
v -4.135000 2.956901 0.145900
v 0.323400 3.817298 0.145900
v -3.886100 1.544900 2.629300
v 0.323400 2.092200 3.133900
v -3.388100 -1.279099 2.629300
v 0.323500 -1.358100 3.133900
v -9.905000 -4.109500 0.145900
v -10.173200 -2.588200 -2.529800
v -10.709700 0.454400 -2.529800
v -10.978000 1.975700 0.145900
v -10.709700 0.454400 2.821500
v -10.173200 -2.588200 2.821500
v -16.027000 -5.459700 0.138800
v -16.312101 -3.876099 -2.951600
v -16.882301 -0.326800 -2.646900
v -17.167400 1.395299 0.138800
v -16.882301 -0.411300 3.143100
v -16.312101 -3.876099 3.229200
v -18.384299 -4.957499 -0.654000
v -17.865501 -3.957200 -2.665000
v -18.574500 -2.021100 -2.065000
v -18.770101 -0.780101 -1.272300
v -18.397701 0.772800 0.138800
v -18.770101 -0.703700 1.902400
v -18.574500 -1.929000 2.904700
v -17.865501 -4.136399 2.843000
v -18.384299 -4.941899 1.141100
v -22.039300 -4.209901 -1.770200
v -19.086200 -3.167901 -0.267700
v -22.431800 -1.044499 0.162400
v -19.195100 -2.127900 0.368600
v -22.039300 -4.199599 2.233600
v -19.085799 -3.155900 0.945100
vt 0.689800 0.344300
vt 0.684800 0.340500
vt 0.702700 0.349400
vt 0.702700 0.349400
vt 0.711800 0.355700
vt 0.689800 0.344300
vt 0.711800 0.355700
vt 0.702700 0.349400
vt 0.702000 0.368900
vt 0.702000 0.368900
vt 0.711800 0.380700
vt 0.711800 0.355700
vt 0.711800 0.380700
vt 0.702000 0.368900
vt 0.683300 0.379600
vt 0.683300 0.379600
vt 0.689800 0.394400
vt 0.711800 0.380700
vt 0.689800 0.394400
vt 0.683300 0.379600
vt 0.665300 0.370800
vt 0.665300 0.370800
vt 0.667700 0.383000
vt 0.689800 0.394400
vt 0.667700 0.383000
vt 0.665300 0.370800
vt 0.666100 0.351200
vt 0.666100 0.351200
vt 0.667700 0.357900
vt 0.667700 0.383000
vt 0.667700 0.357900
vt 0.666100 0.351200
vt 0.684800 0.340500
vt 0.684800 0.340500
vt 0.689800 0.344300
vt 0.667700 0.357900
vt 0.684800 0.340500
vt 0.674900 0.317300
vt 0.694300 0.326800
vt 0.694300 0.326800
vt 0.702700 0.349400
vt 0.684800 0.340500
vt 0.702700 0.349400
vt 0.694300 0.326800
vt 0.693500 0.347900
vt 0.693500 0.347900
vt 0.702000 0.368900
vt 0.702700 0.349400
vt 0.702000 0.368900
vt 0.693500 0.347900
vt 0.673400 0.359400
vt 0.673400 0.359400
vt 0.683300 0.379600
vt 0.702000 0.368900
vt 0.683300 0.379600
vt 0.673400 0.359400
vt 0.654000 0.349900
vt 0.654000 0.349900
vt 0.665300 0.370800
vt 0.683300 0.379600
vt 0.665300 0.370800
vt 0.654000 0.349900
vt 0.654800 0.328800
vt 0.654800 0.328800
vt 0.666100 0.351200
vt 0.665300 0.370800
vt 0.666100 0.351200
vt 0.654800 0.328800
vt 0.674900 0.317300
vt 0.674900 0.317300
vt 0.684800 0.340500
vt 0.666100 0.351200
vt 0.674900 0.317300
vt 0.666100 0.295800
vt 0.688500 0.305600
vt 0.688500 0.305600
vt 0.694300 0.326800
vt 0.674900 0.317300
vt 0.694300 0.326800
vt 0.688500 0.305600
vt 0.685400 0.330400
vt 0.685400 0.330400
vt 0.693500 0.347900
vt 0.694300 0.326800
vt 0.693500 0.347900
vt 0.685400 0.330400
vt 0.664500 0.343400
vt 0.664500 0.343400
vt 0.673400 0.359400
vt 0.693500 0.347900
vt 0.673400 0.359400
vt 0.664500 0.343400
vt 0.642700 0.331900
vt 0.642700 0.331900
vt 0.654000 0.349900
vt 0.673400 0.359400
vt 0.654000 0.349900
vt 0.642700 0.331900
vt 0.642900 0.307900
vt 0.642900 0.307900
vt 0.654800 0.328800
vt 0.654000 0.349900
vt 0.654800 0.328800
vt 0.642900 0.307900
vt 0.666100 0.295800
vt 0.666100 0.295800
vt 0.674900 0.317300
vt 0.654800 0.328800
vt 0.688500 0.305600
vt 0.666100 0.295800
vt 0.668600 0.294600
vt 0.668600 0.294600
vt 0.684100 0.302100
vt 0.688500 0.305600
vt 0.678700 0.315000
vt 0.685400 0.330400
vt 0.688500 0.305600
vt 0.688500 0.305600
vt 0.684100 0.302100
vt 0.678700 0.315000
vt 0.664500 0.343400
vt 0.685400 0.330400
vt 0.672600 0.324000
vt 0.672600 0.324000
vt 0.662700 0.336500
vt 0.664500 0.343400
vt 0.664500 0.343400
vt 0.662700 0.336500
vt 0.649100 0.325700
vt 0.649100 0.325700
vt 0.642700 0.331900
vt 0.664500 0.343400
vt 0.642900 0.307900
vt 0.642700 0.331900
vt 0.642000 0.317600
vt 0.642000 0.317600
vt 0.643500 0.302900
vt 0.642900 0.307900
vt 0.642900 0.307900
vt 0.643500 0.302900
vt 0.655300 0.295400
vt 0.655300 0.295400
vt 0.666100 0.295800
vt 0.642900 0.307900
vt 0.655300 0.295400
vt 0.668600 0.294600
vt 0.666100 0.295800
vt 0.685400 0.330400
vt 0.678700 0.315000
vt 0.672600 0.324000
vt 0.642700 0.331900
vt 0.649100 0.325700
vt 0.642000 0.317600
vt 0.604300 0.628100
vt 0.581100 0.638900
vt 0.590100 0.674700
vt 0.590100 0.674700
vt 0.581100 0.638900
vt 0.548500 0.650600
vt 0.557800 0.607300
vt 0.581100 0.638900
vt 0.604300 0.628100
vt 0.539600 0.736900
vt 0.536500 0.711900
vt 0.498900 0.704800
vt 0.498900 0.704800
vt 0.536500 0.711900
vt 0.533800 0.674500
vt 0.571800 0.703500
vt 0.536500 0.711900
vt 0.539600 0.736900
vt 0.477900 0.623500
vt 0.489200 0.638700
vt 0.516600 0.607500
vt 0.516600 0.607500
vt 0.489200 0.638700
vt 0.520700 0.650700
vt 0.476000 0.676200
vt 0.489200 0.638700
vt 0.477900 0.623500
vt 0.548500 0.650600
vt 0.581100 0.638900
vt 0.557800 0.607300
vt 0.533800 0.674500
vt 0.536500 0.711900
vt 0.571800 0.703500
vt 0.520700 0.650700
vt 0.489200 0.638700
vt 0.476000 0.676200
vt 0.664700 0.306400
vt 0.659800 0.314000
vt 0.672600 0.324000
vt 0.672600 0.324000
vt 0.678700 0.315000
vt 0.664700 0.306400
vt 0.655700 0.307000
vt 0.642000 0.317600
vt 0.649100 0.325700
vt 0.649100 0.325700
vt 0.659800 0.314000
vt 0.655700 0.307000
vt 0.655300 0.295400
vt 0.655700 0.307000
vt 0.664700 0.306400
vt 0.664700 0.306400
vt 0.668600 0.294600
vt 0.655300 0.295400
vt 0.664700 0.306400
vt 0.655700 0.307000
vt 0.659800 0.314000
vn -0.098400 -0.869296 -0.484398
vn -0.098400 -0.869296 -0.484398
vn -0.098400 -0.869296 -0.484398
vn -0.086103 -0.862826 -0.498115
vn -0.086103 -0.862826 -0.498115
vn -0.086103 -0.862826 -0.498115
vn -0.135204 -0.023801 -0.990532
vn -0.135204 -0.023801 -0.990532
vn -0.135204 -0.023801 -0.990532
vn -0.118999 0.000000 -0.992894
vn -0.118999 0.000000 -0.992894
vn -0.118999 0.000000 -0.992894
vn -0.170296 0.849182 -0.499889
vn -0.170296 0.849182 -0.499889
vn -0.170296 0.849182 -0.499889
vn -0.164795 0.854173 -0.493184
vn -0.164795 0.854173 -0.493184
vn -0.164795 0.854173 -0.493184
vn -0.164091 0.850354 0.499973
vn -0.164091 0.850354 0.499973
vn -0.164091 0.850354 0.499973
vn -0.170005 0.853424 0.492714
vn -0.170005 0.853424 0.492714
vn -0.170005 0.853424 0.492714
vn -0.116399 -0.020500 0.992991
vn -0.116399 -0.020500 0.992991
vn -0.116399 -0.020500 0.992991
vn -0.134698 0.000000 0.990887
vn -0.134698 0.000000 0.990887
vn -0.134698 0.000000 0.990887
vn -0.084600 -0.869799 0.486099
vn -0.084600 -0.869799 0.486099
vn -0.084600 -0.869799 0.486099
vn -0.097600 -0.861899 0.497599
vn -0.097600 -0.861899 0.497599
vn -0.097600 -0.861899 0.497599
vn 0.177702 -0.847712 -0.499807
vn 0.177702 -0.847712 -0.499807
vn 0.177702 -0.847712 -0.499807
vn 0.177702 -0.847712 -0.499807
vn 0.177702 -0.847712 -0.499807
vn 0.177702 -0.847712 -0.499807
vn 0.027400 0.004800 -0.999613
vn 0.027400 0.004800 -0.999613
vn 0.027400 0.004800 -0.999613
vn 0.027400 0.004800 -0.999613
vn 0.027400 0.004800 -0.999613
vn 0.027400 0.004800 -0.999613
vn -0.122898 0.857383 -0.499790
vn -0.122898 0.857383 -0.499790
vn -0.122898 0.857383 -0.499790
vn -0.122898 0.857383 -0.499790
vn -0.122898 0.857383 -0.499790
vn -0.122898 0.857383 -0.499790
vn -0.122898 0.857383 0.499790
vn -0.122898 0.857383 0.499790
vn -0.122898 0.857383 0.499790
vn -0.122898 0.857383 0.499790
vn -0.122898 0.857383 0.499790
vn -0.122898 0.857383 0.499790
vn 0.027400 0.004800 0.999613
vn 0.027400 0.004800 0.999613
vn 0.027400 0.004800 0.999613
vn 0.027400 0.004800 0.999613
vn 0.027400 0.004800 0.999613
vn 0.027400 0.004800 0.999613
vn 0.177702 -0.847712 0.499807
vn 0.177702 -0.847712 0.499807
vn 0.177702 -0.847712 0.499807
vn 0.177702 -0.847712 0.499807
vn 0.177702 -0.847712 0.499807
vn 0.177702 -0.847712 0.499807
vn 0.191600 -0.866202 -0.461501
vn 0.191600 -0.866202 -0.461501
vn 0.191600 -0.866202 -0.461501
vn 0.210594 -0.840574 -0.499085
vn 0.210594 -0.840574 -0.499085
vn 0.210594 -0.840574 -0.499085
vn 0.048798 0.093195 -0.994451
vn 0.048798 0.093195 -0.994451
vn 0.048798 0.093195 -0.994451
vn 0.018600 0.003300 -0.999822
vn 0.018600 0.003300 -0.999822
vn 0.018600 0.003300 -0.999822
vn -0.096498 0.842182 -0.530489
vn -0.096498 0.842182 -0.530489
vn -0.096498 0.842182 -0.530489
vn -0.080403 0.863028 -0.498716
vn -0.080403 0.863028 -0.498716
vn -0.080403 0.863028 -0.498716
vn -0.080400 0.850801 0.519301
vn -0.080400 0.850801 0.519301
vn -0.080400 0.850801 0.519301
vn -0.094799 0.861289 0.499194
vn -0.094799 0.861289 0.499194
vn -0.094799 0.861289 0.499194
vn 0.047402 0.032601 0.998344
vn 0.047402 0.032601 0.998344
vn 0.047402 0.032601 0.998344
vn 0.063900 0.011300 0.997892
vn 0.063900 0.011300 0.997892
vn 0.063900 0.011300 0.997892
vn 0.211400 -0.861799 0.461099
vn 0.211400 -0.861799 0.461099
vn 0.211400 -0.861799 0.461099
vn 0.185999 -0.845995 0.499697
vn 0.185999 -0.845995 0.499697
vn 0.185999 -0.845995 0.499697
vn -0.037401 -0.890720 -0.453010
vn -0.037401 -0.890720 -0.453010
vn -0.037401 -0.890720 -0.453010
vn -0.037100 -0.890893 -0.452696
vn -0.037100 -0.890893 -0.452696
vn -0.037100 -0.890893 -0.452696
vn -0.347101 0.024700 -0.937502
vn -0.347101 0.024700 -0.937502
vn -0.347101 0.024700 -0.937502
vn -0.188198 0.227198 -0.955491
vn -0.188198 0.227198 -0.955491
vn -0.188198 0.227198 -0.955491
vn -0.522388 0.700384 -0.486389
vn -0.522388 0.700384 -0.486389
vn -0.522388 0.700384 -0.486389
vn -0.341789 0.675579 -0.653279
vn -0.341789 0.675579 -0.653279
vn -0.341789 0.675579 -0.653279
vn -0.378189 0.747579 0.545984
vn -0.378189 0.747579 0.545984
vn -0.378189 0.747579 0.545984
vn -0.440216 0.750428 0.493018
vn -0.440216 0.750428 0.493018
vn -0.440216 0.750428 0.493018
vn -0.140805 0.001400 0.990036
vn -0.140805 0.001400 0.990036
vn -0.140805 0.001400 0.990036
vn -0.224408 -0.099203 0.969433
vn -0.224408 -0.099203 0.969433
vn -0.224408 -0.099203 0.969433
vn 0.049000 -0.908501 0.415000
vn 0.049000 -0.908501 0.415000
vn 0.049000 -0.908501 0.415000
vn -0.001700 -0.890023 0.455912
vn -0.001700 -0.890023 0.455912
vn -0.001700 -0.890023 0.455912
vn -0.211106 -0.977426 0.008500
vn -0.211106 -0.977426 0.008500
vn -0.211106 -0.977426 0.008500
vn -0.604191 0.359195 -0.711289
vn -0.604191 0.359195 -0.711289
vn -0.604191 0.359195 -0.711289
vn -0.531816 0.483714 0.695121
vn -0.531816 0.483714 0.695121
vn -0.531816 0.483714 0.695121
vn -0.217093 0.215493 -0.952068
vn -0.217093 0.215493 -0.952068
vn -0.217093 0.215493 -0.952068
vn -0.472196 0.797893 0.374697
vn -0.472196 0.797893 0.374697
vn -0.472196 0.797893 0.374697
vn -0.043400 -0.889996 -0.453898
vn -0.043400 -0.889996 -0.453898
vn -0.043400 -0.889996 -0.453898
vn -0.337100 0.755700 0.561500
vn -0.337100 0.755700 0.561500
vn -0.337100 0.755700 0.561500
vn -0.267800 -0.667901 0.694400
vn -0.267800 -0.667901 0.694400
vn -0.267800 -0.667901 0.694400
vn -0.309814 0.679031 -0.665531
vn -0.309814 0.679031 -0.665531
vn -0.309814 0.679031 -0.665531
vn -0.050599 -0.896675 0.439788
vn -0.050599 -0.896675 0.439788
vn -0.050599 -0.896675 0.439788
vn -0.320902 -0.227002 -0.919506
vn -0.320902 -0.227002 -0.919506
vn -0.320902 -0.227002 -0.919506
vn -0.142999 -0.073499 0.986990
vn -0.142999 -0.073499 0.986990
vn -0.142999 -0.073499 0.986990
vn -0.336213 -0.322812 0.884734
vn -0.336213 -0.322812 0.884734
vn -0.336213 -0.322812 0.884734
vn -0.202901 -0.730205 -0.652405
vn -0.202901 -0.730205 -0.652405
vn -0.202901 -0.730205 -0.652405
vn -0.452397 0.804195 -0.385497
vn -0.452397 0.804195 -0.385497
vn -0.452397 0.804195 -0.385497
vn -0.974058 0.034899 -0.223590
vn -0.974058 0.034899 -0.223590
vn -0.974058 0.034899 -0.223590
vn -0.964381 0.016600 -0.263995
vn -0.964381 0.016600 -0.263995
vn -0.964381 0.016600 -0.263995
vn -0.972100 0.034600 0.232000
vn -0.972100 0.034600 0.232000
vn -0.972100 0.034600 0.232000
vn -0.970317 0.031301 0.239804
vn -0.970317 0.031301 0.239804
vn -0.970317 0.031301 0.239804
vn -0.930918 -0.365207 0.003900
vn -0.930918 -0.365207 0.003900
vn -0.930918 -0.365207 0.003900
vn -0.930724 -0.365709 0.003200
vn -0.930724 -0.365709 0.003200
vn -0.930724 -0.365709 0.003200
vn -0.994472 -0.104997 0.001400
vn -0.994472 -0.104997 0.001400
vn -0.994472 -0.104997 0.001400
s off
g RArm
usemtl None
f 1/1/1 2/2/2 3/3/3
f 3/4/4 4/5/5 1/6/6
f 4/7/7 3/8/8 5/9/9
f 5/10/10 6/11/11 4/12/12
f 6/13/13 5/14/14 7/15/15
f 7/16/16 8/17/17 6/18/18
f 8/19/19 7/20/20 9/21/21
f 9/22/22 10/23/23 8/24/24
f 10/25/25 9/26/26 11/27/27
f 11/28/28 12/29/29 10/30/30
f 12/31/31 11/32/32 2/33/33
f 2/34/34 1/35/35 12/36/36
f 2/37/37 13/38/38 14/39/39
f 14/40/40 3/41/41 2/42/42
f 3/43/43 14/44/44 15/45/45
f 15/46/46 5/47/47 3/48/48
f 5/49/49 15/50/50 16/51/51
f 16/52/52 7/53/53 5/54/54
f 7/55/55 16/56/56 17/57/57
f 17/58/58 9/59/59 7/60/60
f 9/61/61 17/62/62 18/63/63
f 18/64/64 11/65/65 9/66/66
f 11/67/67 18/68/68 13/69/69
f 13/70/70 2/71/71 11/72/72
f 13/73/73 19/74/74 20/75/75
f 20/76/76 14/77/77 13/78/78
f 14/79/79 20/80/80 21/81/81
f 21/82/82 15/83/83 14/84/84
f 15/85/85 21/86/86 22/87/87
f 22/88/88 16/89/89 15/90/90
f 16/91/91 22/92/92 23/93/93
f 23/94/94 17/95/95 16/96/96
f 17/97/97 23/98/98 24/99/99
f 24/100/100 18/101/101 17/102/102
f 18/103/103 24/104/104 19/105/105
f 19/106/106 13/107/107 18/108/108
f 20/109/109 19/110/110 25/111/111
f 25/112/112 26/113/113 20/114/114
f 27/115/115 21/116/116 20/117/117
f 20/118/118 26/119/119 27/120/120
f 22/121/121 21/122/122 28/123/123
f 28/124/124 29/125/125 22/126/126
f 22/127/127 29/128/128 30/129/129
f 30/130/130 23/131/131 22/132/132
f 24/133/133 23/134/134 31/135/135
f 31/136/136 32/137/137 24/138/138
f 24/139/139 32/140/140 33/141/141
f 33/142/142 19/143/143 24/144/144
f 33/145/145 25/146/146 19/147/147
f 21/148/148 27/149/149 28/150/150
f 23/151/151 30/152/152 31/153/153
f 26/154/154 34/155/155 27/156/156
f 27/157/157 34/158/158 35/159/159
f 25/160/160 34/161/161 26/162/162
f 29/163/163 36/164/164 30/165/165
f 30/166/166 36/167/167 37/168/168
f 28/169/169 36/170/170 29/171/171
f 32/172/172 38/173/173 33/174/174
f 33/175/175 38/176/176 39/177/177
f 31/178/178 38/179/179 32/180/180
f 35/181/181 34/182/182 25/183/183
f 37/184/184 36/185/185 28/186/186
f 39/187/187 38/188/188 31/189/189
f 35/190/190 37/191/191 28/192/192
f 28/193/193 27/194/194 35/195/195
f 39/196/196 31/197/197 30/198/198
f 30/199/199 37/200/200 39/201/201
f 33/202/202 39/203/203 35/204/204
f 35/205/205 25/206/206 33/207/207
f 35/208/208 39/209/209 37/210/210
