# This file uses centimeters as units for non-parametric coordinates.

mtllib StantlerBLLeg.mtl
g default
v 1.585567 -3.547267 1.242886
v 1.125173 -3.547267 -1.176697
v 1.405746 -0.225667 1.242886
v 1.405746 -0.225667 -1.416227
v 1.376370 -3.547267 2.589218
v 1.389756 -0.225667 2.581912
v 0.872355 -3.406042 -2.186993
v 1.048590 -0.225667 -3.172923
v -0.240028 2.420816 0.817153
v -0.240028 2.420816 -0.883379
v -0.420715 2.100163 2.016983
v -0.420715 2.100163 -2.254666
v 1.168430 -5.419517 0.349075
v 0.768322 -5.419550 -1.913383
v 0.146940 -5.419765 1.556211
v -0.105536 -5.419953 -2.127365
v -0.666626 -3.547267 2.589218
v -0.740168 -0.225667 2.581912
v -0.536115 -3.406042 -2.617907
v -0.348947 -0.225667 -3.036428
v -0.740596 0.786443 2.016983
v -0.740596 0.786443 -2.254666
v -0.667092 -5.419765 1.556211
v -0.869170 -5.419953 -1.921102
v -0.869170 -5.419860 -1.303728
v -0.801920 -5.419813 0.342817
v -0.728734 2.100163 -0.902003
v -0.740596 0.786443 -0.902003
v -0.740596 0.786443 0.821934
v -0.728734 2.100163 0.821934
v -0.590386 -0.225667 0.820135
v -0.801522 -3.547267 0.814226
v -0.348947 -0.225667 -0.891200
v -0.536115 -3.547267 -1.821933
v 0.545253 -7.900230 -2.616207
v -0.281030 -7.900541 -2.556491
v 0.545253 -7.900199 -0.596875
v -0.281030 -7.900494 -0.604703
v -0.775037 -7.900541 -2.556491
v -0.775037 -7.900495 -0.604703
v 0.630282 -11.726420 -1.170663
v -0.105536 -11.693505 -1.134901
v 0.862306 -10.867267 -0.332327
v -0.105536 -10.810461 -0.336883
v -0.537419 -11.693505 -1.134901
v -0.715001 -10.871862 -0.336883
v 0.967750 -12.208821 -0.417118
v -0.105589 -12.175905 -0.381355
v 0.967750 -10.897650 0.030541
v -0.105589 -10.902243 0.025986
v -0.740695 -12.175905 -0.381354
v -0.740695 -10.902244 0.025987
v 0.967750 -12.208821 1.254300
v -0.105589 -12.175905 1.166143
v 0.967750 -11.305315 0.920606
v -0.105589 -11.309907 0.792129
v -0.740695 -12.175905 1.290065
v -0.740695 -11.309908 0.916052
v 0.535126 -11.704939 -1.516472
v -0.199080 -11.672645 -1.480264
v -0.630016 -11.672645 -1.480264
v -0.539748 -10.499506 -0.363270
v -0.108812 -10.499504 -0.363270
v 0.625394 -10.494991 -0.363106
v 0.648060 -11.300479 -1.417086
v -0.129585 -11.268754 -1.380467
v -0.684773 -11.268754 -1.380467
v -0.669132 -10.353118 -0.545057
v -0.111817 -10.353116 -0.545057
v 0.666190 -10.348677 -0.540383
vt 0.218165 0.933628
vt 0.216067 0.956537
vt 0.192855 0.937449
vt 0.203059 0.965975
vt 0.182488 0.893686
vt 0.158269 0.901128
vt 0.177062 0.944129
vt 0.179921 0.856610
vt 0.137093 0.870108
vt 0.224947 0.893598
vt 0.227866 0.856387
vt 0.245648 0.898872
vt 0.268962 0.867386
vt 0.226543 0.955750
vt 0.232250 0.936297
vt 0.191504 0.973051
vt 0.220644 0.597907
vt 0.222510 0.620530
vt 0.195830 0.583608
vt 0.196539 0.619516
vt 0.160620 0.957376
vt 0.134059 0.909694
vt 0.171397 0.972541
vt 0.123365 0.877334
vt 0.222772 0.967378
vt 0.204879 0.987849
vt 0.167834 0.993769
vt 0.237417 0.953949
vt 0.241489 0.970320
vt 0.240580 0.998924
vt 0.243485 0.942798
vt 0.264543 0.904764
vt 0.284001 0.874531
vt 0.181442 0.595410
vt 0.180636 0.617371
vt 0.257098 0.963198
vt 0.266694 0.992588
vt 0.278545 0.910938
vt 0.319068 0.940232
vt 0.306175 0.887283
vt 0.339111 0.907522
vt 0.099548 0.882431
vt 0.104002 0.920692
vt 0.143379 0.982921
vt 0.209836 0.661583
vt 0.185992 0.729924
vt 0.166945 0.666383
vt 0.168598 0.730551
vt 0.299064 0.646636
vt 0.256385 0.733740
vt 0.255782 0.651510
vt 0.237115 0.729650
vt 0.147920 0.668409
vt 0.158029 0.730939
vt 0.117633 0.669786
vt 0.072448 0.671290
vt 0.109422 0.739115
vt 0.314666 0.654229
vt 0.267369 0.736896
vt 0.322859 0.685281
vt 0.171843 0.821453
vt 0.189941 0.820751
vt 0.231753 0.803255
vt 0.251627 0.802619
vt 0.161024 0.821770
vt 0.263408 0.803239
vt 0.120664 0.809716
vt 0.171964 0.824827
vt 0.190087 0.824122
vt 0.170512 0.853323
vt 0.202705 0.848880
vt 0.231554 0.805987
vt 0.229373 0.820240
vt 0.251451 0.805175
vt 0.251796 0.815247
vt 0.161135 0.825141
vt 0.151675 0.850216
vt 0.263261 0.805702
vt 0.268321 0.816470
vt 0.121081 0.812336
vt 0.121265 0.824784
vt 0.243721 0.568824
vt 0.258967 0.598581
vt 0.230014 0.644627
vt 0.192934 0.644520
vt 0.145534 0.582396
vt 0.141460 0.601107
vt 0.172401 0.642344
vt 0.171901 0.823067
vt 0.190011 0.822364
vt 0.161077 0.823383
vt 0.120863 0.810969
vt 0.251543 0.803842
vt 0.263337 0.804418
vt 0.231658 0.804563
vn 0.849190 0.528087 0.000000
vn 0.849190 0.528087 0.000000
vn 0.849190 0.528087 0.000000
vn 0.849190 0.528088 0.000000
vn 0.849190 0.528088 0.000000
vn 0.849190 0.528088 0.000000
vn 0.986732 0.053418 0.153321
vn 0.996252 0.024780 0.082874
vn 0.996252 0.024780 0.082874
vn 0.996252 0.024780 0.082874
vn 0.996252 0.024780 0.082874
vn 0.999921 -0.004003 0.011941
vn 0.688652 -0.431591 0.582655
vn 0.766850 -0.528138 0.364708
vn 0.766850 -0.528138 0.364708
vn 0.766850 -0.528138 0.364708
vn 0.766850 -0.528138 0.364708
vn 0.796784 -0.591446 0.123806
vn 0.996451 -0.084170 0.000000
vn 0.995453 -0.015637 -0.093966
vn 0.995453 -0.015637 -0.093966
vn 0.995453 -0.015637 -0.093966
vn 0.995453 -0.015637 -0.093966
vn 0.980988 0.053108 -0.186661
vn 0.977802 -0.118328 -0.172919
vn 0.976046 -0.123448 -0.179152
vn 0.976046 -0.123448 -0.179152
vn 0.976046 -0.123448 -0.179152
vn 0.976046 -0.123448 -0.179152
vn 0.974222 -0.128559 -0.185373
vn 0.963811 -0.084170 -0.252951
vn 0.696564 -0.131828 -0.705280
vn 0.696564 -0.131828 -0.705280
vn 0.696564 -0.131828 -0.705280
vn 0.696564 -0.131828 -0.705280
vn 0.235467 -0.142799 -0.961334
vn 0.803842 0.546964 -0.233815
vn 0.804316 0.559979 -0.198744
vn 0.804316 0.559979 -0.198744
vn 0.804316 0.559979 -0.198744
vn 0.804316 0.559979 -0.198744
vn 0.803665 0.572211 -0.163395
vn 0.961894 -0.099613 -0.254630
vn 0.968091 -0.107501 -0.226370
vn 0.968091 -0.107501 -0.226370
vn 0.968091 -0.107501 -0.226370
vn 0.968091 -0.107501 -0.226370
vn 0.973417 -0.115292 -0.197907
vn 0.787963 0.615651 0.009410
vn 0.800756 0.582824 0.138224
vn 0.800756 0.582824 0.138224
vn 0.800756 0.582824 0.138224
vn 0.800756 0.582824 0.138224
vn 0.799268 0.539603 0.264572
vn -0.066275 0.345696 0.936003
vn -0.088640 0.370096 0.924755
vn -0.088640 0.370096 0.924755
vn -0.088640 0.370096 0.924755
vn -0.088640 0.370096 0.924755
vn -0.110897 0.394044 0.912377
vn 0.000000 0.002200 0.999998
vn 0.000000 0.002200 0.999998
vn 0.000000 0.002200 0.999998
vn 0.000000 0.002200 0.999998
vn 0.000000 0.002200 0.999998
vn 0.000000 0.002200 0.999998
vn 0.000000 0.236031 0.971746
vn -0.528615 0.268225 0.805371
vn -0.528615 0.268225 0.805371
vn -0.528615 0.268225 0.805371
vn -0.528615 0.268225 0.805371
vn -0.894337 0.217765 0.390820
vn 0.000000 -0.483043 0.875597
vn 0.000000 -0.483043 0.875597
vn 0.000000 -0.483043 0.875597
vn 0.000000 -0.483043 0.875597
vn 0.000000 -0.483043 0.875597
vn 0.000000 -0.483043 0.875597
vn -0.541116 0.831871 -0.123221
vn -0.541116 0.831871 -0.123221
vn -0.541116 0.831871 -0.123221
vn -0.542244 0.828516 0.139763
vn -0.542244 0.828516 0.139763
vn -0.542244 0.828516 0.139763
vn -0.548584 0.836095 0.000000
vn -0.548584 0.836095 0.000000
vn -0.548584 0.836095 0.000000
vn -0.548584 0.836095 0.000000
vn -0.548584 0.836095 0.000000
vn -0.548584 0.836095 0.000000
vn -0.942507 0.229494 0.242927
vn -0.984986 0.120950 0.123184
vn -0.984986 0.120950 0.123184
vn -0.984986 0.120950 0.123184
vn -0.984986 0.120950 0.123184
vn -0.999959 0.009029 0.000000
vn -0.948670 0.230994 -0.216024
vn -0.986546 0.121518 -0.109368
vn -0.986546 0.121518 -0.109368
vn -0.986546 0.121518 -0.109368
vn -0.986546 0.121518 -0.109368
vn -0.999959 0.009029 0.000000
vn -0.999959 0.009029 0.000000
vn -0.999959 0.009029 0.000000
vn -0.999959 0.009029 0.000000
vn -0.999959 0.009029 0.000000
vn -0.999959 0.009029 0.000000
vn -0.999959 0.009029 0.000000
vn -0.409148 0.099624 -0.907013
vn -0.255608 0.361608 -0.896607
vn -0.255608 0.361608 -0.896607
vn -0.255608 0.361608 -0.896607
vn -0.255608 0.361608 -0.896607
vn -0.078471 0.590208 -0.803428
vn -0.093027 -0.290112 -0.952460
vn 0.100430 -0.220558 -0.970190
vn 0.100430 -0.220558 -0.970190
vn 0.100430 -0.220558 -0.970190
vn 0.100430 -0.220558 -0.970190
vn 0.289611 -0.141613 -0.946610
vn 0.288404 -0.167950 -0.942664
vn 0.019773 -0.232618 -0.972367
vn 0.019773 -0.232618 -0.972367
vn 0.019773 -0.232618 -0.972367
vn 0.019773 -0.232618 -0.972367
vn -0.250384 -0.279322 -0.926977
vn 0.176321 0.390277 0.903656
vn 0.176322 0.390277 0.903656
vn 0.176322 0.390277 0.903656
vn 0.176322 0.390277 0.903656
vn 0.176322 0.390277 0.903656
vn 0.176322 0.390278 0.903656
vn -0.924180 -0.359015 -0.130385
vn -0.964696 -0.255031 -0.065739
vn -0.964696 -0.255031 -0.065739
vn -0.964696 -0.255031 -0.065739
vn -0.964696 -0.255031 -0.065739
vn -0.989165 -0.146805 0.000000
vn -0.991467 0.083838 -0.099820
vn -0.990094 0.073469 -0.119651
vn -0.990094 0.073469 -0.119651
vn -0.990094 0.073469 -0.119651
vn -0.990094 0.073469 -0.119651
vn -0.988223 0.063064 -0.139421
vn -0.984071 0.147607 -0.099076
vn -0.997175 0.069161 -0.029298
vn -0.997175 0.069161 -0.029298
vn -0.997175 0.069161 -0.029298
vn -0.997175 0.069161 -0.029298
vn -0.999116 -0.010061 0.040807
vn -0.993505 -0.027581 0.110396
vn -0.995060 -0.034557 0.093072
vn -0.995060 -0.034557 0.093072
vn -0.995060 -0.034557 0.093072
vn -0.995060 -0.034557 0.093072
vn -0.996265 -0.041522 0.075714
vn -0.994404 0.063359 -0.084541
vn -0.999774 0.020813 -0.004408
vn -0.999774 0.020813 -0.004408
vn -0.999774 0.020813 -0.004408
vn -0.999774 0.020813 -0.004408
vn -0.996885 -0.021905 0.075761
vn -0.989165 -0.146805 0.000000
vn -0.994338 -0.097436 -0.042398
vn -0.994338 -0.097436 -0.042398
vn -0.994338 -0.097436 -0.042398
vn -0.994338 -0.097436 -0.042398
vn -0.995274 -0.047651 -0.084615
vn -0.932610 -0.360886 0.000000
vn -0.932610 -0.360886 0.000000
vn -0.932610 -0.360886 0.000000
vn -0.932610 -0.360886 0.000000
vn -0.932610 -0.360886 0.000000
vn -0.932610 -0.360886 0.000000
vn -0.998416 0.056259 0.000000
vn -0.998291 0.058203 0.005336
vn -0.998291 0.058203 0.005336
vn -0.998291 0.058203 0.005336
vn -0.998291 0.058203 0.005336
vn -0.998133 0.060145 0.010671
vn -0.984550 0.175102 -0.000026
vn -0.984574 0.174291 0.015375
vn -0.984574 0.174291 0.015375
vn -0.984574 0.174291 0.015375
vn -0.984574 0.174291 0.015375
vn -0.984364 0.173438 0.030772
vn 0.230426 0.246018 -0.941477
vn 0.080685 0.213078 -0.973698
vn 0.080685 0.213078 -0.973698
vn 0.080685 0.213078 -0.973698
vn 0.080685 0.213078 -0.973698
vn -0.071036 0.174909 -0.982019
vn 0.627099 -0.570328 0.530540
vn 0.336076 -0.502566 0.796543
vn 0.336076 -0.502566 0.796543
vn 0.336076 -0.502566 0.796543
vn 0.336076 -0.502566 0.796543
vn -0.008733 -0.354371 0.935064
vn 0.968982 -0.178076 -0.171358
vn 0.987173 -0.134458 -0.086088
vn 0.987173 -0.134458 -0.086088
vn 0.987173 -0.134458 -0.086088
vn 0.987173 -0.134458 -0.086088
vn 0.995981 -0.089562 0.000001
vn -0.253713 0.230969 -0.939299
vn -0.127984 0.202499 -0.970883
vn -0.127984 0.202499 -0.970883
vn -0.127984 0.202499 -0.970883
vn -0.127984 0.202499 -0.970883
vn 0.000000 0.170462 -0.985364
vn -0.999281 -0.037922 0.000006
vn -0.999281 -0.037922 0.000006
vn -0.999281 -0.037922 0.000006
vn -0.998819 -0.026407 0.040795
vn -0.999274 -0.032170 0.020403
vn -0.999274 -0.032170 0.020403
vn -0.999274 -0.032170 0.020403
vn -0.999274 -0.032170 0.020403
vn -0.999281 -0.037920 0.000001
vn 0.000000 -0.656829 0.754040
vn 0.000001 -0.656829 0.754040
vn 0.000001 -0.656829 0.754040
vn 0.000001 -0.656829 0.754040
vn 0.000001 -0.656829 0.754040
vn 0.000002 -0.656829 0.754040
vn -0.992492 -0.052880 0.110285
vn -0.992492 -0.052880 0.110285
vn -0.992492 -0.052880 0.110285
vn -0.067879 -0.331597 -0.940976
vn -0.062899 -0.332593 -0.940971
vn -0.062899 -0.332593 -0.940971
vn -0.062899 -0.332593 -0.940971
vn -0.062899 -0.332593 -0.940971
vn -0.057917 -0.333581 -0.940941
vn 0.998782 0.049333 -0.000001
vn 0.999270 0.032965 -0.019335
vn 0.999270 0.032965 -0.019335
vn 0.999270 0.032965 -0.019335
vn 0.999270 0.032965 -0.019335
vn 0.999115 0.016576 -0.038657
vn -0.009480 0.023657 0.999675
vn -0.007808 0.023210 0.999700
vn -0.007808 0.023210 0.999700
vn -0.007808 0.023210 0.999700
vn -0.007808 0.023210 0.999700
vn -0.006136 0.022763 0.999722
vn 0.000000 -0.329639 -0.944107
vn 0.000000 -0.329639 -0.944107
vn 0.000000 -0.329639 -0.944107
vn 0.000000 -0.329639 -0.944107
vn 0.000000 -0.329639 -0.944107
vn 0.000000 -0.329639 -0.944107
vn -0.000002 0.024312 0.999704
vn -0.000001 0.024312 0.999704
vn -0.000001 0.024312 0.999704
vn -0.000001 0.024312 0.999704
vn -0.000001 0.024312 0.999704
vn 0.000000 0.024312 0.999704
vn -0.999069 -0.043140 0.000001
vn -0.999431 -0.028899 0.017384
vn -0.999431 -0.028899 0.017384
vn -0.999431 -0.028899 0.017384
vn -0.999431 -0.028899 0.017384
vn -0.999288 -0.014644 0.034759
vn -0.063749 -0.840490 -0.538064
vn -0.053657 -0.845391 -0.531446
vn -0.053657 -0.845391 -0.531446
vn -0.053657 -0.845391 -0.531446
vn -0.053657 -0.845391 -0.531446
vn -0.043555 -0.850148 -0.524739
vn 0.929868 0.095540 -0.355270
vn 0.944984 0.094075 -0.313298
vn 0.944984 0.094075 -0.313298
vn 0.944984 0.094075 -0.313298
vn 0.944984 0.094075 -0.313298
vn 0.958216 0.092423 -0.270702
vn 0.055661 0.967965 0.244839
vn 0.025615 0.985889 0.165428
vn 0.025615 0.985889 0.165428
vn 0.025615 0.985889 0.165428
vn 0.025615 0.985889 0.165428
vn -0.004623 0.996390 0.084771
vn 0.000000 -0.842206 -0.539157
vn 0.000000 -0.842206 -0.539157
vn 0.000000 -0.842206 -0.539157
vn 0.000000 -0.842206 -0.539157
vn 0.000000 -0.842206 -0.539157
vn 0.000000 -0.842205 -0.539157
vn -0.097208 0.964882 0.244037
vn -0.048826 0.985171 0.164482
vn -0.048826 0.985171 0.164482
vn -0.048826 0.985171 0.164482
vn -0.048826 0.985171 0.164482
vn -0.000001 0.996513 0.083433
vn -0.969400 0.027420 -0.243951
vn -0.987289 0.024806 -0.156985
vn -0.987289 0.024806 -0.156985
vn -0.987289 0.024806 -0.156985
vn -0.987289 0.024806 -0.156985
vn -0.997389 0.021997 -0.068780
vn -0.030653 -0.999530 0.000000
vn -0.030653 -0.999530 0.000000
vn -0.030653 -0.999530 0.000000
vn -0.030653 -0.999530 0.000000
vn -0.030653 -0.999530 0.000000
vn -0.030653 -0.999530 0.000000
vn 1.000000 0.000000 0.000000
vn 1.000000 0.000000 0.000000
vn 1.000000 0.000000 0.000000
vn 1.000000 0.000000 0.000000
vn 1.000000 0.000000 0.000000
vn 1.000000 0.000000 0.000000
vn -0.005771 0.882790 0.469732
vn -0.029736 0.895980 0.443097
vn -0.029736 0.895980 0.443097
vn -0.029736 0.895980 0.443097
vn -0.029736 0.895980 0.443097
vn -0.053657 0.907864 0.415817
vn 0.000000 -1.000000 0.000000
vn 0.000000 -1.000000 0.000000
vn 0.000000 -1.000000 0.000000
vn 0.000000 -1.000000 0.000000
vn 0.000000 -1.000000 0.000000
vn 0.000000 -1.000000 0.000000
vn 0.000001 0.882805 0.469740
vn 0.040543 0.895627 0.442954
vn 0.040543 0.895627 0.442954
vn 0.040543 0.895627 0.442954
vn 0.040543 0.895627 0.442954
vn 0.080983 0.906188 0.415049
vn -1.000000 0.000000 0.000000
vn -1.000000 0.000000 0.000000
vn -1.000000 0.000000 0.000000
vn -1.000000 0.000000 0.000000
vn -1.000000 0.000000 0.000000
vn -1.000000 0.000000 0.000000
vn -0.046243 -0.997789 -0.047744
vn -0.046627 -0.997740 -0.048391
vn -0.046627 -0.997740 -0.048391
vn -0.046627 -0.997740 -0.048391
vn -0.046627 -0.997740 -0.048391
vn -0.047012 -0.997690 -0.049038
vn 0.000000 -0.998181 -0.060292
vn 0.000000 -0.998181 -0.060293
vn 0.000000 -0.998181 -0.060293
vn 0.000000 -0.998181 -0.060293
vn 0.000000 -0.998181 -0.060293
vn 0.000000 -0.998181 -0.060293
vn -0.862354 0.382357 -0.331886
vn -0.997713 -0.010555 -0.066765
vn -0.997713 -0.010555 -0.066765
vn -0.997713 -0.010555 -0.066765
vn -0.997713 -0.010555 -0.066765
vn -0.890636 -0.400903 0.214578
vn 0.000000 0.084551 0.996419
vn -0.003738 0.079369 0.996838
vn -0.003738 0.079369 0.996838
vn -0.003738 0.079369 0.996838
vn -0.003738 0.079369 0.996838
vn -0.007475 0.074183 0.997217
vn -0.000741 0.084543 0.996420
vn -0.000296 0.083517 0.996506
vn -0.000296 0.083517 0.996506
vn -0.000296 0.083517 0.996506
vn -0.000296 0.083517 0.996506
vn 0.000149 0.082491 0.996592
vn 0.952951 0.168866 -0.251733
vn 0.850862 0.290474 -0.437789
vn 0.850862 0.290474 -0.437789
vn 0.850862 0.290474 -0.437789
vn 0.850862 0.290474 -0.437789
vn 0.697868 0.394705 -0.597653
vn -0.035482 0.247809 -0.968159
vn -0.036223 0.246755 -0.968401
vn -0.036223 0.246755 -0.968401
vn -0.036223 0.246755 -0.968401
vn -0.036223 0.246755 -0.968401
vn -0.036964 0.245701 -0.968641
vn 0.000000 0.239876 -0.970804
vn 0.000000 0.239876 -0.970804
vn 0.000000 0.239876 -0.970804
vn 0.000000 0.239876 -0.970804
vn 0.000000 0.239876 -0.970804
vn 0.000000 0.239876 -0.970804
vn -0.874452 -0.318731 0.365711
vn -0.909487 -0.258782 0.325370
vn -0.909487 -0.258782 0.325370
vn -0.909487 -0.258782 0.325370
vn -0.909487 -0.258782 0.325370
vn -0.938657 -0.197165 0.282931
vn -0.000003 0.778862 0.627196
vn -0.000003 0.778862 0.627195
vn -0.000003 0.778862 0.627195
vn -0.000003 0.778862 0.627195
vn -0.000003 0.778862 0.627195
vn -0.000002 0.778863 0.627194
vn -0.008223 0.772147 0.635391
vn -0.006575 0.775492 0.631324
vn -0.006575 0.775492 0.631324
vn -0.006575 0.775492 0.631324
vn -0.006575 0.775492 0.631324
vn -0.004926 0.778813 0.627237
vn 0.984345 -0.129189 0.119899
vn 0.954838 -0.225815 0.193110
vn 0.954838 -0.225815 0.193110
vn 0.954838 -0.225815 0.193110
vn 0.954838 -0.225815 0.193110
vn 0.910468 -0.318925 0.263314
s off
g leftBackLeg
usemtl None
f 4/1/1 10/2/2 3/3/3
f 3/3/4 10/2/5 9/4/6
f 1/5/7 3/3/8 5/6/9
f 5/6/10 3/3/11 6/7/12
f 13/8/13 1/5/14 15/9/15
f 15/9/16 1/5/17 5/6/18
f 4/1/19 3/3/20 2/10/21
f 2/10/22 3/3/23 1/5/24
f 14/11/25 2/10/26 13/8/27
f 13/8/28 2/10/29 1/5/30
f 2/10/31 14/11/32 7/12/33
f 7/12/34 14/11/35 16/13/36
f 10/2/37 4/1/38 12/14/39
f 12/14/40 4/1/41 8/15/42
f 2/10/43 7/12/44 4/1/45
f 4/1/46 7/12/47 8/15/48
f 6/7/49 3/3/50 11/16/51
f 11/16/52 3/3/53 9/4/54
f 53/17/55 55/18/56 54/19/57
f 54/19/58 55/18/59 56/20/60
f 18/21/61 17/22/62 6/7/63
f 6/7/64 17/22/65 5/6/66
f 6/7/67 11/16/68 18/21/69
f 18/21/70 11/16/71 21/23/72
f 5/6/73 17/22/74 15/9/75
f 15/9/76 17/22/77 23/24/78
f 27/25/79 10/2/80 12/14/81
f 9/4/82 30/26/83 11/16/84
f 27/25/85 30/26/86 10/2/87
f 10/2/88 30/26/89 9/4/90
f 11/16/91 30/26/92 21/23/93
f 21/23/94 30/26/95 29/27/96
f 12/14/97 22/28/98 27/25/99
f 27/25/100 22/28/101 28/29/102
f 28/29/103 29/30/104 27/25/105
f 27/25/106 29/30/107 30/26/108
f 12/14/109 8/15/110 22/28/111
f 22/28/112 8/15/113 20/31/114
f 8/15/115 7/12/116 20/31/117
f 20/31/118 7/12/119 19/32/120
f 7/12/121 16/13/122 19/32/123
f 19/32/124 16/13/125 24/33/126
f 57/34/127 54/19/128 58/35/129
f 58/35/130 54/19/131 56/20/132
f 33/36/133 31/37/134 28/29/135
f 28/29/136 31/37/137 29/30/138
f 34/38/139 32/39/140 33/36/141
f 33/36/142 32/39/143 31/37/144
f 34/38/145 25/40/146 32/39/147
f 32/39/148 25/40/149 26/41/150
f 26/42/151 23/24/152 32/43/153
f 32/43/154 23/24/155 17/22/156
f 31/44/157 32/43/158 18/21/159
f 18/21/160 32/43/161 17/22/162
f 29/27/163 31/44/164 21/23/165
f 21/23/166 31/44/167 18/21/168
f 28/29/169 22/28/170 33/36/171
f 33/36/172 22/28/173 20/31/174
f 33/36/175 20/31/176 34/38/177
f 34/38/178 20/31/179 19/32/180
f 25/40/181 34/38/182 24/33/183
f 24/33/184 34/38/185 19/32/186
f 14/45/187 35/46/188 16/47/189
f 16/47/190 35/46/191 36/48/192
f 15/49/193 38/50/194 13/51/195
f 13/51/196 38/50/197 37/52/198
f 13/51/199 37/52/200 14/45/201
f 14/45/202 37/52/203 35/46/204
f 24/53/205 16/47/206 39/54/207
f 39/54/208 16/47/209 36/48/210
f 25/55/211 24/53/212 39/54/213
f 26/56/214 25/55/215 40/57/216
f 40/57/217 25/55/218 39/54/219
f 15/49/220 23/58/221 38/50/222
f 38/50/223 23/58/224 40/59/225
f 23/58/226 26/60/227 40/59/228
f 36/48/229 35/46/230 66/61/231
f 66/61/232 35/46/233 65/62/234
f 37/52/235 70/63/236 35/46/237
f 35/46/238 70/63/239 65/62/240
f 38/50/241 69/64/242 37/52/243
f 37/52/244 69/64/245 70/63/246
f 39/54/247 36/48/248 67/65/249
f 67/65/250 36/48/251 66/61/252
f 40/59/253 68/66/254 38/50/255
f 38/50/256 68/66/257 69/64/258
f 40/57/259 39/54/260 68/67/261
f 68/67/262 39/54/263 67/65/264
f 42/68/265 41/69/266 48/70/267
f 48/70/268 41/69/269 47/71/270
f 41/69/271 43/72/272 47/71/273
f 47/71/274 43/72/275 49/73/276
f 44/74/277 50/75/278 43/72/279
f 43/72/280 50/75/281 49/73/282
f 42/68/283 48/70/284 45/76/285
f 45/76/286 48/70/287 51/77/288
f 44/74/289 46/78/290 50/75/291
f 50/75/292 46/78/293 52/79/294
f 45/76/295 51/77/296 46/80/297
f 46/80/298 51/77/299 52/81/300
f 48/82/301 47/83/302 54/19/303
f 54/19/304 47/83/305 53/17/306
f 49/84/307 55/18/308 47/83/309
f 47/83/310 55/18/311 53/17/312
f 50/85/313 56/20/314 49/84/315
f 49/84/316 56/20/317 55/18/318
f 48/86/319 54/19/320 51/87/321
f 51/87/322 54/19/323 57/34/324
f 50/85/325 52/88/326 56/20/327
f 56/20/328 52/88/329 58/35/330
f 52/88/331 51/87/332 58/35/333
f 58/35/334 51/87/335 57/34/336
f 60/89/337 59/90/338 42/68/339
f 42/68/340 59/90/341 41/69/342
f 61/91/343 60/89/344 45/76/345
f 45/76/346 60/89/347 42/68/348
f 62/92/349 61/91/350 46/80/351
f 46/80/352 61/91/353 45/76/354
f 63/93/355 62/94/356 44/74/357
f 44/74/358 62/94/359 46/78/360
f 63/93/361 44/74/362 64/95/363
f 64/95/364 44/74/365 43/72/366
f 59/90/367 64/95/368 41/69/369
f 41/69/370 64/95/371 43/72/372
f 65/62/373 59/90/374 66/61/375
f 66/61/376 59/90/377 60/89/378
f 66/61/379 60/89/380 67/65/381
f 67/65/382 60/89/383 61/91/384
f 68/67/385 67/65/386 62/92/387
f 62/92/388 67/65/389 61/91/390
f 68/66/391 62/94/392 69/64/393
f 69/64/394 62/94/395 63/93/396
f 70/63/397 69/64/398 64/95/399
f 64/95/400 69/64/401 63/93/402
f 70/63/403 64/95/404 65/62/405
f 65/62/406 64/95/407 59/90/408
