# This file uses centimeters as units for non-parametric coordinates.

mtllib StantlerFRLeg.mtl
g default
v 0.908186 -3.297365 1.705609
v -1.142088 -4.258957 1.888749
v 0.981483 -0.975885 2.510220
v -1.372789 -1.089260 2.183300
v 0.981483 -0.975885 -1.497535
v -1.799320 -1.089260 -1.497535
v 0.908186 -3.297365 -1.421163
v -0.925020 -4.258957 -1.421162
v 0.667790 -5.767306 -0.610603
v -1.214392 -5.522023 -0.610603
v -0.992165 -5.522023 1.574900
v 0.667790 -5.767306 1.574900
v 0.578655 -6.733630 -0.564209
v -1.073498 -6.680642 -0.564209
v -1.073498 -6.680642 1.238364
v 0.578655 -6.733630 1.238364
v 0.409127 -10.521697 0.250918
v -0.660417 -10.528177 0.250918
v -0.660418 -10.279078 1.610575
v 0.409127 -10.272598 1.610575
v 1.167760 0.141210 2.510220
v -0.288313 1.931314 2.510220
v -0.536621 1.360818 -1.497535
v 1.138621 0.141210 -1.497535
v 0.548403 -11.619842 1.088890
v -0.698249 -11.594011 0.896993
v -0.861826 -10.497606 1.671028
v 0.445374 -10.464118 1.758605
v 0.548403 -11.619842 3.037769
v -0.698249 -11.594011 3.016743
v -0.861826 -10.497606 1.761029
v 0.445374 -10.464118 1.848606
v 1.738869 0.549753 2.630428
v -0.017024 1.309748 2.630428
v -0.089222 0.472308 -1.377327
v 1.799062 0.549753 -1.377327
v 0.045719 -10.816545 0.429539
v 0.213681 -11.324994 0.817526
v -0.363527 -11.313034 0.728677
v -0.287189 -10.819545 0.429539
v 0.053296 -10.907916 0.490082
v 0.206332 -11.371184 0.504198
v -0.319584 -11.360287 0.500965
v -0.250030 -10.910650 0.490082
vt 0.289202 0.329053
vt 0.317528 0.317796
vt 0.277436 0.299888
vt 0.328294 0.282429
vt 0.294714 0.387144
vt 0.308008 0.366539
vt 0.297252 0.345097
vt 0.303499 0.348364
vt 0.340349 0.394811
vt 0.398981 0.373481
vt 0.351462 0.343324
vt 0.380843 0.316959
vt 0.876357 0.325403
vt 0.898744 0.371801
vt 0.922870 0.317093
vt 0.944571 0.363484
vt 0.217195 0.324769
vt 0.252819 0.370975
vt 0.435582 0.313308
vt 0.390493 0.290775
vt 0.332821 0.258529
vt 0.281897 0.247997
vt 0.221364 0.255099
vt 0.229972 0.203974
vt 0.192780 0.214765
vt 0.249619 0.231665
vt 0.195775 0.256368
vt 0.123867 0.218559
vt 0.125915 0.263644
vt 0.077469 0.251552
vt 0.082828 0.216386
vt 0.009563 0.238203
vt 0.017982 0.206518
vt 0.196404 0.072592
vt 0.168084 0.079615
vt 0.119538 0.087863
vt 0.091169 0.089798
vt 0.045747 0.078850
vt 0.294615 0.339721
vt 0.306823 0.346092
vt 0.315580 0.363006
vt 0.313750 0.390758
vt 0.276975 0.385060
vt 0.618287 0.716835
vt 0.620070 0.711169
vt 0.624169 0.715778
vt 0.625118 0.712351
vt 0.150004 0.040773
vt 0.124014 0.073324
vt 0.095348 0.080000
vt 0.074111 0.044573
vt 0.932840 0.276831
vt 0.963868 0.320821
vt 0.948001 0.367067
vt 0.897070 0.379690
vt 0.855272 0.382381
vt 0.196703 0.022667
vt 0.196703 0.022667
vt 0.196404 0.072592
vt 0.150004 0.040773
vt 0.168084 0.079615
vt 0.627030 0.718165
vt 0.615456 0.719150
vt 0.618105 0.707793
vt 0.628043 0.710624
vn -0.114980 -0.322067 0.939709
vn -0.114980 -0.322067 0.939709
vn -0.114980 -0.322067 0.939709
vn 0.006119 -0.205397 0.978660
vn 0.006119 -0.205397 0.978660
vn 0.127037 -0.082608 0.988452
vn -0.040979 0.999160 -0.000615
vn 0.179612 0.978556 -0.100837
vn 0.179612 0.978556 -0.100837
vn 0.179612 0.978556 -0.100837
vn 0.179612 0.978556 -0.100837
vn 0.389582 0.900091 -0.195097
vn 0.001342 -0.032923 -0.999457
vn 0.006190 -0.026984 -0.999617
vn 0.006190 -0.026984 -0.999617
vn 0.006190 -0.026984 -0.999617
vn 0.006190 -0.026984 -0.999617
vn 0.011038 -0.021043 -0.999718
vn 0.003109 0.717249 0.696810
vn -0.030191 0.733056 0.679498
vn -0.030191 0.733056 0.679498
vn -0.030191 0.733056 0.679498
vn -0.030191 0.733056 0.679498
vn -0.063441 0.747647 0.661059
vn -0.989949 -0.082712 0.114714
vn -0.984007 -0.176214 0.026039
vn -0.984007 -0.176214 0.026039
vn -0.984007 -0.176214 0.026039
vn -0.984007 -0.176214 0.026039
vn -0.961691 -0.266783 -0.063069
vn 0.999502 -0.031557 0.000000
vn 0.999502 -0.031557 0.000000
vn 0.999502 -0.031557 0.000000
vn 0.999502 -0.031557 0.000000
vn 0.999502 -0.031557 0.000000
vn 0.999502 -0.031557 0.000000
vn 0.168972 -0.322134 -0.931493
vn 0.050784 -0.430611 -0.901108
vn 0.050784 -0.430611 -0.901108
vn 0.050784 -0.430611 -0.901108
vn 0.050784 -0.430611 -0.901108
vn -0.068757 -0.527609 -0.846700
vn -0.980922 0.183449 -0.064330
vn -0.999610 0.021190 0.018209
vn -0.999610 0.021190 0.018209
vn -0.999610 0.021190 0.018209
vn -0.999610 0.021190 0.018209
vn -0.984820 -0.141779 0.100139
vn -0.036208 -0.245036 0.968838
vn 0.041451 -0.155621 0.986947
vn 0.041451 -0.155621 0.986947
vn 0.041451 -0.155621 0.986947
vn 0.041451 -0.155621 0.986947
vn 0.118514 -0.063972 0.990889
vn 0.995297 -0.096871 0.000000
vn 0.995297 -0.096871 0.000000
vn 0.995297 -0.096871 0.000000
vn 0.995297 -0.096871 0.000000
vn 0.995297 -0.096871 0.000000
vn 0.995297 -0.096871 0.000000
vn -0.001534 -0.047813 -0.998855
vn -0.003416 -0.044233 -0.999015
vn -0.003416 -0.044233 -0.999015
vn -0.003416 -0.044233 -0.999015
vn -0.003416 -0.044233 -0.999015
vn -0.005298 -0.040652 -0.999159
vn -0.992687 -0.120715 0.000000
vn -0.997896 -0.040329 0.050769
vn -0.997896 -0.040329 0.050769
vn -0.997896 -0.040329 0.050769
vn -0.997896 -0.040329 0.050769
vn -0.994057 0.040422 0.101078
vn -0.040792 -0.276061 0.960274
vn -0.025668 -0.302179 0.952906
vn -0.025668 -0.302179 0.952906
vn -0.025668 -0.302179 0.952906
vn -0.025668 -0.302179 0.952906
vn -0.010520 -0.328006 0.944617
vn 0.995773 -0.091852 0.000000
vn 0.995773 -0.091852 0.000000
vn 0.995773 -0.091852 0.000000
vn 0.995773 -0.091852 0.000000
vn 0.995773 -0.091852 0.000000
vn 0.995773 -0.091852 0.000000
vn 0.001275 -0.210422 -0.977610
vn -0.002697 -0.209182 -0.977873
vn -0.002697 -0.209182 -0.977873
vn -0.002697 -0.209182 -0.977873
vn -0.002697 -0.209182 -0.977873
vn -0.006669 -0.207937 -0.978119
vn -0.994286 -0.106749 0.000000
vn -0.993951 -0.109345 0.010253
vn -0.993951 -0.109345 0.010253
vn -0.993951 -0.109345 0.010253
vn -0.993951 -0.109345 0.010253
vn -0.993505 -0.111928 0.020505
vn 0.003312 0.103264 0.994649
vn 0.001339 0.103946 0.994582
vn 0.001339 0.103946 0.994582
vn 0.001339 0.103946 0.994582
vn 0.001339 0.103946 0.994582
vn -0.000634 0.104628 0.994511
vn 0.998860 -0.046944 0.008600
vn 0.998940 -0.045827 0.004300
vn 0.998940 -0.045827 0.004300
vn 0.998940 -0.045827 0.004300
vn 0.998940 -0.045827 0.004300
vn 0.999000 -0.044708 0.000000
vn -0.138598 0.023111 0.990079
vn -0.115302 -0.025763 0.992996
vn -0.115302 -0.025763 0.992996
vn -0.115302 -0.025763 0.992996
vn -0.115302 -0.025763 0.992996
vn -0.091667 -0.074562 0.992994
vn -0.941484 0.336898 0.010375
vn -0.915817 0.397587 0.056602
vn -0.915817 0.397587 0.056602
vn -0.915817 0.397587 0.056602
vn -0.915817 0.397587 0.056602
vn -0.884217 0.455699 0.102462
vn -0.000000 0.000000 -1.000000
vn -0.000000 0.000000 -1.000000
vn -0.000000 0.000000 -1.000000
vn -0.000000 0.000000 -1.000000
vn -0.000000 0.000000 -1.000000
vn 0.000000 0.000000 -1.000000
vn 0.990251 -0.139296 0.000000
vn 0.988390 -0.151899 -0.003586
vn 0.988390 -0.151899 -0.003586
vn 0.988390 -0.151899 -0.003586
vn 0.988390 -0.151899 -0.003586
vn 0.986355 -0.164476 -0.007171
vn 0.005552 -0.028625 -0.999575
vn 0.002885 -0.026429 -0.999647
vn 0.002885 -0.026429 -0.999647
vn 0.002885 -0.026429 -0.999647
vn 0.002885 -0.026429 -0.999647
vn 0.000219 -0.024233 -0.999706
vn -0.989036 -0.049279 -0.139211
vn -0.934945 0.326166 -0.139621
vn -0.934945 0.326166 -0.139621
vn -0.934945 0.326166 -0.139621
vn -0.934945 0.326166 -0.139621
vn -0.746330 0.654680 -0.119943
vn -0.071507 0.326621 0.942447
vn -0.038124 0.475341 0.878975
vn -0.038124 0.475341 0.878975
vn -0.038124 0.475341 0.878975
vn -0.038124 0.475341 0.878975
vn -0.003702 0.611103 0.791543
vn 0.988735 0.130557 -0.073195
vn 0.991599 0.120611 -0.046745
vn 0.991599 0.120611 -0.046745
vn 0.991599 0.120611 -0.046745
vn 0.991599 0.120611 -0.046745
vn 0.993662 0.110567 -0.020257
vn -0.020716 -0.999785 0.000000
vn -0.020716 -0.999785 0.000000
vn -0.020716 -0.999785 0.000000
vn -0.020716 -0.999785 0.000000
vn -0.020716 -0.999785 0.000000
vn -0.020716 -0.999785 0.000000
vn -0.989053 -0.147561 0.000000
vn -0.989053 -0.147560 0.000000
vn -0.989053 -0.147560 0.000000
vn -0.989053 -0.147560 0.000000
vn -0.989053 -0.147560 0.000000
vn -0.989053 -0.147560 0.000000
vn -0.025610 0.999672 0.000000
vn -0.025610 0.999672 0.000000
vn -0.025610 0.999672 0.000000
vn -0.025610 0.999672 0.000000
vn -0.025610 0.999672 0.000000
vn -0.025610 0.999672 0.000000
vn 0.996050 0.088795 0.000000
vn 0.996050 0.088795 0.000000
vn 0.996050 0.088795 0.000000
vn 0.996050 0.088795 0.000000
vn 0.996050 0.088794 0.000000
vn 0.996050 0.088795 0.000000
vn -0.077808 -0.179767 0.980627
vn -0.678329 -0.707983 0.196544
vn -0.678329 -0.707983 0.196544
vn -0.678329 -0.707983 0.196544
vn -0.678329 -0.707983 0.196544
vn -0.427938 -0.348089 -0.834088
vn 0.918938 0.382424 -0.096464
vn 0.906537 0.408383 -0.106841
vn 0.906537 0.408383 -0.106841
vn 0.906537 0.408383 -0.106841
vn 0.906537 0.408383 -0.106841
vn 0.893287 0.433960 -0.117119
vn 0.150341 0.206507 0.966826
vn 0.262556 0.964593 0.024990
vn 0.262556 0.964593 0.024990
vn 0.262556 0.964593 0.024990
vn -0.012326 0.300538 -0.953690
vn 0.262556 0.964593 0.024990
vn 0.526574 -0.850121 -0.003829
vn 0.553877 -0.832595 0.002447
vn 0.553877 -0.832595 0.002447
vn 0.553877 -0.832595 0.002447
vn 0.553877 -0.832595 0.002447
vn 0.580575 -0.814160 0.008720
vn 0.124201 -0.591934 -0.796360
vn 0.102634 -0.589905 -0.800923
vn 0.102634 -0.589905 -0.800923
vn 0.102634 -0.589905 -0.800923
vn 0.102634 -0.589905 -0.800923
vn 0.081016 -0.587588 -0.805094
vn 0.109112 -0.603254 -0.790050
vn 0.109112 -0.603254 -0.790050
vn 0.109112 -0.603254 -0.790050
vn 0.109112 -0.603254 -0.790050
vn 0.109112 -0.603254 -0.790050
vn 0.109112 -0.603254 -0.790050
vn 0.005273 -0.518499 -0.855062
vn 0.004685 -0.518664 -0.854965
vn 0.004685 -0.518664 -0.854965
vn 0.004685 -0.518664 -0.854965
vn 0.004685 -0.518664 -0.854965
vn 0.004096 -0.518827 -0.854869
vn 0.003149 -0.519712 -0.854336
vn 0.003928 -0.521046 -0.853520
vn 0.003928 -0.521046 -0.853520
vn 0.003928 -0.521046 -0.853520
vn 0.003928 -0.521046 -0.853520
vn 0.004708 -0.522377 -0.852702
vn 0.325118 -0.503459 -0.800517
vn 0.819681 -0.123872 -0.559266
vn 0.819681 -0.123872 -0.559266
vn 0.819681 -0.123872 -0.559266
vn 0.947944 0.311071 -0.068090
vn 0.819681 -0.123872 -0.559266
vn -0.043057 -0.988244 0.146694
vn -0.032304 -0.984393 0.172994
vn -0.032304 -0.984393 0.172994
vn -0.032304 -0.984393 0.172994
vn -0.032304 -0.984393 0.172994
vn -0.021524 -0.979732 0.199152
vn 0.087748 -0.526262 -0.845783
vn -0.613949 -0.267236 -0.742733
vn -0.613949 -0.267236 -0.742733
vn -0.613949 -0.267236 -0.742733
vn -0.613949 -0.267236 -0.742733
vn -0.965638 0.144140 -0.216257
vn 0.004975 -0.552054 -0.833794
vn 0.004976 -0.552054 -0.833793
vn 0.004976 -0.552054 -0.833793
vn 0.004976 -0.552054 -0.833793
vn 0.004976 -0.552054 -0.833793
vn 0.004976 -0.552054 -0.833794
s off
g rightFrontLeg
usemtl None
f 3/1/1 4/2/2 1/3/3
f 1/3/4 4/2/5 2/4/6
f 36/5/7 35/6/8 33/7/9
f 33/7/10 35/6/11 34/8/12
f 5/9/13 7/10/14 6/11/15
f 6/11/16 7/10/17 8/12/18
f 29/13/19 32/14/20 30/15/21
f 30/15/22 32/14/23 31/16/24
f 4/2/25 6/11/26 2/4/27
f 2/4/28 6/11/29 8/12/30
f 7/17/31 5/18/32 1/3/33
f 1/3/34 5/18/35 3/1/36
f 7/10/37 9/19/38 8/12/39
f 8/12/40 9/19/41 10/20/42
f 8/12/43 10/20/44 2/4/45
f 2/4/46 10/20/47 11/21/48
f 11/21/49 12/22/50 2/4/51
f 2/4/52 12/22/53 1/3/54
f 12/22/55 9/23/56 1/3/57
f 1/3/58 9/23/59 7/17/60
f 13/24/61 14/25/62 9/26/63
f 9/26/64 14/25/65 10/27/66
f 14/25/67 15/28/68 10/27/69
f 10/27/70 15/28/71 11/29/72
f 11/29/73 15/28/74 12/30/75
f 12/30/76 15/28/77 16/31/78
f 12/30/79 16/31/80 9/32/81
f 9/32/82 16/31/83 13/33/84
f 17/34/85 18/35/86 13/24/87
f 13/24/88 18/35/89 14/25/90
f 14/25/91 18/35/92 15/28/93
f 15/28/94 18/35/95 19/36/96
f 15/28/97 19/36/98 16/31/99
f 16/31/100 19/36/101 20/37/102
f 20/37/103 17/38/104 16/31/105
f 16/31/106 17/38/107 13/33/108
f 3/1/109 21/39/110 4/2/111
f 4/2/112 21/39/113 22/40/114
f 22/40/115 23/41/116 4/2/117
f 4/2/118 23/41/119 6/11/120
f 6/11/121 23/41/122 5/9/123
f 5/9/124 23/41/125 24/42/126
f 5/18/127 24/43/128 3/1/129
f 3/1/130 24/43/131 21/39/132
f 42/44/133 43/45/134 41/46/135
f 41/46/136 43/45/137 44/47/138
f 26/48/139 27/49/140 18/35/141
f 18/35/142 27/49/143 19/36/144
f 27/49/145 28/50/146 19/36/147
f 19/36/148 28/50/149 20/37/150
f 28/50/151 25/51/152 20/37/153
f 20/37/154 25/51/155 17/38/156
f 29/13/157 30/15/158 25/52/159
f 25/52/160 30/15/161 26/53/162
f 30/15/163 31/16/164 26/53/165
f 26/53/166 31/16/167 27/54/168
f 27/54/169 31/16/170 28/55/171
f 28/55/172 31/16/173 32/14/174
f 28/55/175 32/14/176 25/56/177
f 32/14/178 29/13/179 25/56/180
f 33/7/181 34/8/182 21/39/183
f 21/39/184 34/8/185 22/40/186
f 34/8/187 35/6/188 22/40/189
f 22/40/190 35/6/191 23/41/192
f 23/41/193 35/6/194 24/42/195
f 35/6/196 36/5/197 24/42/198
f 24/43/199 36/5/200 21/39/201
f 21/39/202 36/5/203 33/7/204
f 25/57/205 38/58/206 17/34/207
f 17/34/208 38/58/209 37/59/210
f 25/57/211 26/48/212 38/58/213
f 38/58/214 26/48/215 39/60/216
f 26/48/217 18/35/218 39/60/219
f 39/60/220 18/35/221 40/61/222
f 18/35/223 17/34/224 40/61/225
f 40/61/226 17/34/227 37/59/228
f 37/62/229 38/63/230 41/46/231
f 38/63/232 42/44/233 41/46/234
f 38/63/235 39/64/236 42/44/237
f 42/44/238 39/64/239 43/45/240
f 40/65/241 44/47/242 39/64/243
f 39/64/244 44/47/245 43/45/246
f 40/65/247 37/62/248 44/47/249
f 44/47/250 37/62/251 41/46/252
