# This file uses centimeters as units for non-parametric coordinates.

mtllib StantlerBody.mtl
g default
v 2.814949 11.725228 2.324019
v 2.894506 11.725228 -1.970587
v 2.195533 14.174061 3.434367
v 1.477743 14.328589 -1.970587
v 2.814949 9.450206 2.323045
v 2.666682 9.450206 -1.970587
v 1.329231 8.034339 2.324993
v 1.329231 8.323704 -1.970587
v 0.000000 14.199648 2.325480
v 0.000000 14.328589 -1.970587
v 0.000000 8.034339 2.324993
v 0.000000 8.323704 -1.970587
v 2.387014 11.725228 7.722336
v 2.195533 12.469751 7.742614
v 2.387014 9.450206 7.103735
v 1.329231 8.000438 6.444591
v 0.000000 12.469751 7.969518
v 0.000000 8.000438 6.444591
v 2.655535 11.725228 -6.585380
v 1.003821 14.636342 -6.600345
v 2.262843 9.450206 -6.585380
v 0.902938 7.908247 -6.090896
v 0.000000 14.636342 -6.600345
v 0.000000 7.976071 -6.417868
v -2.814950 11.725228 2.324019
v -2.894507 11.725228 -1.970587
v -2.195533 14.174061 3.755563
v -1.477743 14.328589 -1.970587
v -2.814950 9.450206 2.323045
v -2.666682 9.450206 -1.970587
v -1.329231 8.034339 2.324993
v -1.329231 8.323704 -1.970587
v -2.387015 11.725228 7.722336
v -2.195533 12.469751 7.742614
v -2.387015 9.450206 7.103735
v -1.329231 8.000438 6.444591
v -2.655535 11.725228 -6.585380
v -1.003822 14.636342 -6.600345
v -2.262843 9.450206 -6.585380
v -0.902938 7.908247 -6.090896
v 2.814949 11.725228 0.060832
v 1.655221 14.006377 0.061523
v 0.000000 14.006377 0.061523
v -1.655221 14.006377 0.061523
v -2.814950 11.725228 0.060832
v -2.814950 9.450206 0.060371
v -1.329231 7.845098 0.061293
v 0.000000 7.845098 0.061293
v 1.329231 7.845098 0.061293
v 2.814949 9.450206 0.060371
v 2.094103 14.365300 4.100620
v 1.857085 13.271835 7.621292
v 0.000000 14.365300 3.481754
v 0.000000 13.271835 7.792139
v -2.094103 14.365300 3.779424
v -1.857085 13.271835 7.621292
v 2.173004 15.704492 4.519002
v 1.707113 16.979174 7.552969
v 0.000000 15.704492 4.221332
v 0.000000 16.979174 7.552969
v -2.173004 15.704492 4.519002
v -1.707113 16.979174 7.552969
v 1.813278 17.777449 4.961070
v 1.996730 19.052130 6.688333
v 0.000000 17.777449 4.501502
v 0.000000 19.052130 6.688333
v -1.813278 17.777449 4.961070
v -1.996731 19.052130 6.688333
v 1.709736 19.307949 5.188991
v 1.996730 19.390352 6.689934
v 0.000000 19.307949 4.613697
v 0.000000 19.390352 6.689934
v -1.709736 19.307949 5.188991
v -1.996731 19.390352 6.689934
v 0.000000 11.725228 7.944906
v 0.000000 9.450206 7.294320
v 0.000000 11.725228 -6.585380
v 0.000000 9.450206 -6.585380
vt 0.575690 0.748648
vt 0.548279 0.808578
vt 0.513257 0.749164
vt 0.513001 0.808762
vt 0.450741 0.748046
vt 0.477674 0.808371
vt 0.131058 0.553040
vt 0.131052 0.502150
vt 0.180701 0.556117
vt 0.176422 0.502078
vt 0.561299 0.559763
vt 0.559322 0.591160
vt 0.514602 0.556913
vt 0.514223 0.605150
vt 0.469335 0.590461
vt 0.467857 0.559025
vt 0.130749 0.456939
vt 0.175623 0.456578
vt 0.175229 0.413308
vt 0.130256 0.407764
vt 0.591747 0.493595
vt 0.636839 0.493669
vt 0.587656 0.547160
vt 0.637103 0.544402
vt 0.637262 0.448052
vt 0.592559 0.447494
vt 0.216618 0.500156
vt 0.220915 0.556845
vt 0.551439 0.491707
vt 0.552767 0.446904
vt 0.592841 0.405030
vt 0.552279 0.411432
vt 0.620458 0.710907
vt 0.591106 0.710911
vt 0.620458 0.664795
vt 0.591097 0.664818
vt 0.649819 0.664818
vt 0.649810 0.710911
vt 0.215255 0.456063
vt 0.215910 0.419781
vt 0.513384 0.725072
vt 0.556896 0.724542
vt 0.469822 0.724051
vt 0.111363 0.565315
vt 0.093943 0.590543
vt 0.032794 0.553463
vt 0.031869 0.591798
vt 0.513627 0.686323
vt 0.555696 0.685447
vt 0.471536 0.684881
vt 0.089032 0.631956
vt 0.042862 0.633302
vt 0.560418 0.634373
vt 0.513980 0.637132
vt 0.385775 0.600255
vt 0.425688 0.600101
vt 0.385969 0.650505
vt 0.432653 0.650324
vt 0.467565 0.633683
vt 0.674009 0.581828
vt 0.736285 0.583005
vt 0.678888 0.623269
vt 0.725255 0.624572
vt 0.345862 0.600409
vt 0.339285 0.650685
vt 0.069175 0.662136
vt 0.042642 0.663603
vt 0.386108 0.686288
vt 0.432792 0.686108
vt 0.698766 0.653532
vt 0.725477 0.655004
vt 0.339424 0.686469
vt 0.620458 0.761605
vt 0.649808 0.761605
vt 0.033151 0.537182
vt 0.025789 0.502610
vt 0.034476 0.457518
vt 0.048724 0.407758
vt 0.649808 0.852570
vt 0.620458 0.852570
vt 0.734834 0.528976
vt 0.742339 0.494195
vt 0.733527 0.448664
vt 0.637779 0.399316
vt 0.719376 0.399266
vt 0.591108 0.852570
vt 0.591108 0.761605
vt 0.385562 0.544982
vt 0.329215 0.545200
vt 0.385405 0.504328
vt 0.319591 0.504582
vt 0.385196 0.450108
vt 0.319382 0.450361
vt 0.385002 0.399799
vt 0.353924 0.399919
vt 0.441909 0.544765
vt 0.425513 0.554818
vt 0.385600 0.554972
vt 0.656349 0.556632
vt 0.735293 0.544163
vt 0.345688 0.555126
vt 0.416079 0.399679
vt 0.451009 0.449854
vt 0.451218 0.504074
vt 0.548907 0.863576
vt 0.537560 0.989996
vt 0.512904 0.863663
vt 0.512964 0.990049
vt 0.488359 0.990031
vt 0.476868 0.863549
vt 0.307016 0.497135
vt 0.312074 0.559093
vt 0.305432 0.452679
vt 0.296820 0.410564
vt 0.640506 0.573344
vt 0.620458 0.566261
vt 0.455898 0.550443
vt 0.460841 0.488606
vt 0.547149 0.548197
vt 0.462479 0.443671
vt 0.471101 0.402062
vt 0.600410 0.573344
vt 0.856091 0.391485
vt 0.894572 0.391626
vt 0.855589 0.511374
vt 0.957577 0.511512
vt 0.855178 0.609063
vt 0.957578 0.608495
vt 0.854908 0.672654
vt 0.895112 0.677771
vt 0.814664 0.677431
vt 0.752788 0.607630
vt 0.753606 0.510655
vt 0.817610 0.391304
vn 0.039906 0.997634 -0.055991
vn 0.039906 0.997634 -0.055991
vn 0.039906 0.997634 -0.055991
vn 0.019959 0.997309 -0.070546
vn 0.019959 0.997309 -0.070546
vn 0.000000 0.996376 -0.085059
vn -0.045454 0.997616 -0.051934
vn -0.022736 0.997391 -0.068523
vn -0.022736 0.997391 -0.068523
vn -0.022736 0.997391 -0.068523
vn -0.022736 0.997391 -0.068523
vn 0.000000 0.996376 -0.085059
vn 0.935688 0.311666 -0.165387
vn 0.919238 0.384809 -0.083208
vn 0.919238 0.384809 -0.083208
vn 0.919238 0.384809 -0.083208
vn 0.919238 0.384809 -0.083208
vn 0.891413 0.453191 0.000000
vn 0.000000 0.998497 -0.054815
vn 0.006672 0.998861 -0.047238
vn 0.006672 0.998861 -0.047238
vn 0.006672 0.998861 -0.047238
vn 0.006672 0.998861 -0.047238
vn 0.013343 0.999124 -0.039655
vn -0.013343 0.999124 -0.039655
vn -0.006672 0.998861 -0.047238
vn -0.006672 0.998861 -0.047238
vn -0.006672 0.998861 -0.047238
vn -0.006672 0.998861 -0.047238
vn 0.000000 0.998497 -0.054815
vn 1.000000 -0.000000 0.000000
vn 1.000000 0.000000 0.000000
vn 1.000000 0.000000 0.000000
vn 1.000000 0.000000 0.000000
vn 1.000000 0.000000 0.000000
vn 1.000000 0.000000 0.000000
vn 0.732709 -0.678176 0.056694
vn 0.711932 -0.701675 0.028372
vn 0.711932 -0.701675 0.028372
vn 0.711932 -0.701675 0.028372
vn 0.711932 -0.701675 0.028372
vn 0.689884 -0.723920 0.000000
vn -0.891413 0.453192 0.000000
vn -0.917278 0.390921 -0.076042
vn -0.917278 0.390921 -0.076042
vn -0.917278 0.390921 -0.076042
vn -0.917278 0.390921 -0.076042
vn -0.933668 0.324612 -0.151299
vn -1.000000 0.000000 0.000000
vn -1.000000 0.000000 0.000000
vn -1.000000 0.000000 0.000000
vn -1.000000 0.000000 0.000000
vn -1.000000 0.000000 0.000000
vn -1.000000 0.000000 0.000000
vn 0.890875 0.452907 0.034889
vn 0.884844 0.465577 0.016989
vn 0.884844 0.465577 0.016989
vn 0.884844 0.465577 0.016989
vn 0.884844 0.465577 0.016989
vn 0.878356 0.478006 -0.000920
vn -0.999234 -0.000008 0.039133
vn -0.998618 -0.049834 -0.016705
vn -0.998618 -0.049834 -0.016705
vn -0.998618 -0.049834 -0.016705
vn -0.998618 -0.049834 -0.016705
vn -0.992408 -0.099382 -0.072449
vn -0.724609 -0.670802 -0.158007
vn -0.686426 -0.719890 -0.102848
vn -0.686426 -0.719890 -0.102848
vn -0.686426 -0.719890 -0.102848
vn -0.686426 -0.719890 -0.102848
vn -0.643501 -0.764003 -0.046978
vn 0.000000 -0.973362 -0.229274
vn 0.000000 -0.973362 -0.229274
vn 0.000000 -0.973362 -0.229274
vn 0.000000 -0.973362 -0.229274
vn 0.000000 -0.973362 -0.229274
vn 0.000000 -0.973362 -0.229274
vn 0.000000 -0.973362 -0.229274
vn 0.000000 -0.973362 -0.229274
vn 0.000000 -0.973362 -0.229274
vn 0.000000 -0.973362 -0.229274
vn 0.000000 -0.973362 -0.229274
vn 0.000000 -0.973362 -0.229274
vn 0.643501 -0.764003 -0.046978
vn 0.686427 -0.719890 -0.102848
vn 0.686427 -0.719890 -0.102848
vn 0.686427 -0.719890 -0.102848
vn 0.686427 -0.719890 -0.102848
vn 0.724609 -0.670802 -0.158007
vn 0.999234 -0.000008 0.039133
vn 0.998618 -0.049834 -0.016705
vn 0.998618 -0.049834 -0.016705
vn 0.998618 -0.049834 -0.016705
vn 0.998618 -0.049834 -0.016705
vn 0.992408 -0.099381 -0.072449
vn 0.082877 0.986488 -0.141327
vn 0.080616 0.975835 -0.203094
vn 0.080616 0.975835 -0.203094
vn 0.080616 0.975835 -0.203094
vn 0.080616 0.975835 -0.203094
vn 0.078037 0.961344 -0.264062
vn -0.103353 0.984592 -0.141056
vn -0.147313 0.719467 -0.678724
vn -0.147313 0.719467 -0.678724
vn -0.147313 0.719467 -0.678724
vn -0.147313 0.719467 -0.678724
vn -0.138047 0.194391 -0.971162
vn 0.996366 -0.072613 0.044525
vn 0.995865 -0.015085 0.089584
vn 0.995865 -0.015085 0.089584
vn 0.995865 -0.015085 0.089584
vn 0.995865 -0.015085 0.089584
vn 0.990046 0.042523 0.134165
vn 0.250454 0.468027 -0.847481
vn 0.191565 0.381078 -0.904479
vn 0.191565 0.381078 -0.904479
vn 0.191565 0.381078 -0.904479
vn 0.191565 0.381078 -0.904479
vn 0.129940 0.288689 -0.948564
vn -0.123481 0.479735 -0.868681
vn -0.121472 0.477156 -0.870383
vn -0.121472 0.477156 -0.870383
vn -0.121472 0.477156 -0.870383
vn -0.121472 0.477156 -0.870383
vn -0.119462 0.474570 -0.872074
vn 0.984488 0.152242 0.087214
vn 0.999057 0.006532 0.042934
vn 0.999057 0.006532 0.042934
vn 0.999057 0.006532 0.042934
vn 0.999057 0.006532 0.042934
vn 0.990243 -0.139330 -0.002351
vn 0.132124 0.228614 -0.964510
vn 0.188383 0.179757 -0.965505
vn 0.188383 0.179757 -0.965505
vn 0.188383 0.179757 -0.965505
vn 0.188383 0.179757 -0.965505
vn 0.243596 0.129903 -0.961138
vn 0.000000 0.384959 0.922934
vn 0.000000 0.384959 0.922934
vn 0.000000 0.384959 0.922934
vn 0.000000 0.384959 0.922934
vn 0.000000 0.384959 0.922934
vn 0.000000 0.384959 0.922934
vn -0.132124 0.228614 -0.964510
vn -0.188383 0.179757 -0.965505
vn -0.188383 0.179757 -0.965505
vn -0.188383 0.179757 -0.965505
vn -0.188383 0.179757 -0.965505
vn -0.243596 0.129903 -0.961138
vn -0.984488 0.152242 0.087214
vn -0.999057 0.006532 0.042933
vn -0.999057 0.006532 0.042933
vn -0.999057 0.006532 0.042933
vn -0.999057 0.006532 0.042933
vn -0.990243 -0.139330 -0.002352
vn 0.000000 0.384959 0.922934
vn 0.000000 0.384959 0.922934
vn 0.000000 0.384959 0.922934
vn 0.000000 0.384959 0.922934
vn 0.000000 0.384959 0.922934
vn 0.000000 0.384958 0.922934
vn 0.980787 0.091973 -0.172043
vn 0.982542 0.046481 -0.180142
vn 0.982542 0.046481 -0.180142
vn 0.982542 0.046481 -0.180142
vn 0.982542 0.046481 -0.180142
vn 0.982196 0.000889 -0.187856
vn 0.242556 0.158930 -0.957031
vn 0.280837 0.114319 -0.952923
vn 0.280837 0.114319 -0.952923
vn 0.280837 0.114319 -0.952923
vn 0.280837 0.114319 -0.952923
vn 0.318144 0.069311 -0.945505
vn 0.000000 -0.004733 0.999989
vn 0.000000 -0.004733 0.999989
vn 0.000000 -0.004733 0.999989
vn 0.000000 -0.004733 0.999989
vn 0.000000 -0.004733 0.999989
vn 0.000000 -0.004733 0.999989
vn -0.242556 0.158930 -0.957031
vn -0.280838 0.114319 -0.952923
vn -0.280838 0.114319 -0.952923
vn -0.280838 0.114319 -0.952923
vn -0.280838 0.114319 -0.952923
vn -0.318144 0.069311 -0.945505
vn -0.980787 0.091973 -0.172043
vn -0.982542 0.046481 -0.180143
vn -0.982542 0.046481 -0.180143
vn -0.982542 0.046481 -0.180143
vn -0.982542 0.046481 -0.180143
vn -0.982196 0.000889 -0.187857
vn 0.000000 -0.004733 0.999989
vn 0.000000 -0.004733 0.999989
vn 0.000000 -0.004733 0.999989
vn 0.000000 -0.004733 0.999989
vn 0.000000 -0.004733 0.999989
vn 0.000000 -0.004733 0.999989
vn 0.000000 -0.996524 0.083308
vn 0.000000 -0.996524 0.083308
vn 0.000000 -0.996524 0.083308
vn 0.000000 -0.996524 0.083308
vn 0.000000 -0.996524 0.083308
vn 0.000000 -0.996524 0.083307
vn 0.964542 0.245424 0.097088
vn 0.969639 0.228474 0.087180
vn 0.969639 0.228474 0.087180
vn 0.969639 0.228474 0.087180
vn 0.969639 0.228474 0.087180
vn 0.974336 0.211431 0.077237
vn 0.996643 -0.021482 0.079006
vn 0.996400 -0.010761 0.084087
vn 0.996400 -0.010761 0.084087
vn 0.996400 -0.010761 0.084087
vn 0.996400 -0.010761 0.084087
vn 0.996018 -0.000038 0.089157
vn 0.689868 -0.723911 -0.005957
vn 0.742763 -0.668765 0.032508
vn 0.742763 -0.668765 0.032508
vn 0.742763 -0.668765 0.032508
vn 0.742763 -0.668765 0.032508
vn 0.790222 -0.608724 0.070735
vn 0.000000 -0.999966 -0.008229
vn 0.000000 -0.999966 -0.008229
vn 0.000000 -0.999966 -0.008229
vn 0.000000 -0.999966 -0.008229
vn 0.000000 -0.999966 -0.008229
vn 0.000000 -0.999966 -0.008229
vn -0.963840 0.245035 0.104743
vn -0.970447 0.223457 0.091103
vn -0.970447 0.223457 0.091103
vn -0.970447 0.223457 0.091103
vn -0.970447 0.223457 0.091103
vn -0.976380 0.201723 0.077399
vn -0.996643 -0.021482 0.079006
vn -0.996400 -0.010761 0.084087
vn -0.996400 -0.010761 0.084087
vn -0.996400 -0.010761 0.084087
vn -0.996400 -0.010761 0.084087
vn -0.996018 -0.000038 0.089157
vn -0.689868 -0.723911 -0.005957
vn -0.742763 -0.668765 0.032508
vn -0.742763 -0.668765 0.032508
vn -0.742763 -0.668765 0.032508
vn -0.742763 -0.668765 0.032508
vn -0.790222 -0.608724 0.070735
vn 0.000000 -0.999966 -0.008229
vn 0.000000 -0.999966 -0.008229
vn 0.000000 -0.999966 -0.008229
vn 0.000000 -0.999966 -0.008229
vn 0.000000 -0.999966 -0.008229
vn 0.000000 -0.999966 -0.008229
vn -0.102745 -0.032864 0.994165
vn -0.097804 -0.018055 0.995042
vn -0.097804 -0.018055 0.995042
vn -0.097804 -0.018055 0.995042
vn -0.097804 -0.018055 0.995042
vn -0.092838 -0.003241 0.995676
vn -0.089290 -0.273849 0.957619
vn -0.083057 -0.267739 0.959905
vn -0.083057 -0.267739 0.959905
vn -0.083057 -0.267739 0.959905
vn -0.083057 -0.267739 0.959905
vn -0.076817 -0.261608 0.962112
vn 0.000000 -0.505660 0.862733
vn -0.035468 -0.480938 0.876037
vn -0.035468 -0.480938 0.876037
vn -0.035468 -0.480938 0.876037
vn -0.035468 -0.480938 0.876037
vn -0.070864 -0.455232 0.887548
vn 0.000000 -0.996524 0.083308
vn 0.000000 -0.996524 0.083308
vn 0.000000 -0.996524 0.083308
vn 0.000000 -0.996524 0.083308
vn 0.000000 -0.996524 0.083308
vn 0.000000 -0.996524 0.083307
vn -0.689884 -0.723920 0.000000
vn -0.711932 -0.701675 0.028373
vn -0.711932 -0.701675 0.028373
vn -0.711932 -0.701675 0.028373
vn -0.711932 -0.701675 0.028373
vn -0.732709 -0.678177 0.056695
vn 0.972424 0.216868 0.085791
vn 0.939719 0.313342 0.136914
vn 0.939719 0.313342 0.136914
vn 0.939719 0.313342 0.136914
vn 0.939719 0.313342 0.136914
vn 0.894806 0.405746 0.186258
vn 0.100922 0.190293 0.976526
vn 0.095203 0.202698 0.974603
vn 0.095203 0.202698 0.974603
vn 0.095203 0.202698 0.974603
vn 0.095203 0.202698 0.974603
vn 0.089467 0.215064 0.972493
vn -0.878088 0.443222 0.180321
vn -0.888141 0.424217 0.176766
vn -0.888141 0.424217 0.176766
vn -0.888141 0.424217 0.176766
vn -0.888141 0.424217 0.176766
vn -0.897771 0.405011 0.173126
vn -0.100922 0.190293 0.976526
vn -0.095204 0.202698 0.974602
vn -0.095204 0.202698 0.974602
vn -0.095204 0.202698 0.974602
vn -0.095204 0.202698 0.974602
vn -0.089467 0.215064 0.972493
vn 0.000000 0.064379 0.997926
vn 0.045853 0.043271 0.998011
vn 0.045853 0.043271 0.998011
vn 0.045853 0.043271 0.998011
vn 0.045853 0.043271 0.998011
vn 0.091588 0.022052 0.995553
vn -0.996042 -0.080038 0.038669
vn -0.996059 -0.018815 0.086679
vn -0.996059 -0.018815 0.086679
vn -0.996059 -0.018815 0.086679
vn -0.996059 -0.018815 0.086679
vn -0.990046 0.042523 0.134165
vn -0.091588 0.022052 0.995553
vn -0.045853 0.043271 0.998011
vn -0.045853 0.043271 0.998011
vn -0.045853 0.043271 0.998011
vn -0.045853 0.043271 0.998011
vn 0.000000 0.064379 0.997926
vn 0.000000 -0.505660 0.862733
vn 0.035468 -0.480938 0.876037
vn 0.035468 -0.480938 0.876037
vn 0.035468 -0.480938 0.876037
vn 0.035468 -0.480938 0.876037
vn 0.070864 -0.455232 0.887548
vn 0.089290 -0.273849 0.957619
vn 0.083057 -0.267740 0.959905
vn 0.083057 -0.267740 0.959905
vn 0.083057 -0.267740 0.959905
vn 0.083057 -0.267740 0.959905
vn 0.076818 -0.261608 0.962112
vn 0.102746 -0.032864 0.994165
vn 0.097804 -0.018055 0.995042
vn 0.097804 -0.018055 0.995042
vn 0.097804 -0.018055 0.995042
vn 0.097804 -0.018055 0.995042
vn 0.092838 -0.003241 0.995676
vn 0.000000 0.997798 0.066327
vn 0.000000 0.997798 0.066327
vn 0.000000 0.997798 0.066327
vn 0.000000 0.997798 0.066327
vn 0.000000 0.997798 0.066327
vn 0.000000 0.997798 0.066327
vn 0.000000 0.997798 0.066327
vn 0.000000 0.997798 0.066327
vn 0.000000 0.997798 0.066327
vn 0.000000 0.997798 0.066327
vn 0.000000 0.997798 0.066327
vn 0.000000 0.997798 0.066327
vn 0.877449 0.477513 -0.045438
vn 0.873023 0.485025 -0.050805
vn 0.873023 0.485025 -0.050805
vn 0.873023 0.485025 -0.050805
vn 0.873023 0.485025 -0.050805
vn 0.868506 0.492486 -0.056167
vn 0.981784 -0.169466 -0.085916
vn 0.988514 -0.134593 -0.068740
vn 0.988514 -0.134593 -0.068740
vn 0.988514 -0.134593 -0.068740
vn 0.988514 -0.134593 -0.068740
vn 0.993705 -0.099511 -0.051458
vn 0.644177 -0.764805 0.010469
vn 0.693126 -0.720305 -0.027138
vn 0.693126 -0.720305 -0.027138
vn 0.693126 -0.720305 -0.027138
vn 0.693126 -0.720305 -0.027138
vn 0.738062 -0.671634 -0.064588
vn 0.000000 -0.994955 0.100323
vn -0.051352 -0.994703 0.089044
vn -0.051352 -0.994703 0.089044
vn -0.051352 -0.994703 0.089044
vn -0.051352 -0.994703 0.089044
vn -0.102562 -0.991702 0.077518
vn -0.868506 0.492486 -0.056167
vn -0.873023 0.485025 -0.050805
vn -0.873023 0.485025 -0.050805
vn -0.873023 0.485025 -0.050805
vn -0.873023 0.485025 -0.050805
vn -0.877449 0.477513 -0.045438
vn -0.981784 -0.169466 -0.085916
vn -0.988514 -0.134593 -0.068740
vn -0.988514 -0.134593 -0.068740
vn -0.988514 -0.134593 -0.068740
vn -0.988514 -0.134593 -0.068740
vn -0.993705 -0.099511 -0.051458
vn -0.738062 -0.671634 -0.064588
vn -0.693126 -0.720305 -0.027138
vn -0.693126 -0.720305 -0.027138
vn -0.693126 -0.720305 -0.027138
vn -0.693126 -0.720305 -0.027138
vn -0.644177 -0.764805 0.010469
vn 0.000000 -0.994955 0.100322
vn 0.051352 -0.994703 0.089044
vn 0.051352 -0.994703 0.089044
vn 0.051352 -0.994703 0.089044
vn 0.051352 -0.994703 0.089044
vn 0.102563 -0.991701 0.077518
vn 0.000000 -0.005141 -0.999987
vn 0.000000 -0.005141 -0.999987
vn 0.000000 -0.005141 -0.999987
vn 0.000000 -0.005141 -0.999987
vn 0.000000 -0.005141 -0.999987
vn 0.000000 -0.005141 -0.999987
vn 0.000000 0.000000 -1.000000
vn 0.000000 0.000000 -1.000000
vn 0.000000 0.000000 -1.000000
vn 0.000000 0.000000 -1.000000
vn 0.000000 0.000000 -1.000000
vn 0.000000 0.000000 -1.000000
vn 0.331462 -0.106525 -0.937436
vn 0.168920 -0.209910 -0.963018
vn 0.168920 -0.209910 -0.963018
vn 0.168920 -0.209910 -0.963018
vn 0.168920 -0.209910 -0.963018
vn 0.000000 -0.305368 -0.952234
vn 0.000000 0.987661 0.156604
vn 0.000000 0.987662 0.156604
vn 0.000000 0.987662 0.156604
vn 0.000000 0.987662 0.156604
vn 0.000000 0.987662 0.156604
vn 0.000000 0.987661 0.156604
vn 0.000000 0.987661 0.156604
vn 0.000000 0.987661 0.156604
vn 0.000000 0.987661 0.156604
vn 0.000000 0.987661 0.156604
vn 0.000000 0.987661 0.156604
vn 0.000000 0.987662 0.156604
vn -0.890875 0.452907 0.034890
vn -0.884844 0.465577 0.016989
vn -0.884844 0.465577 0.016989
vn -0.884844 0.465577 0.016989
vn -0.884844 0.465577 0.016989
vn -0.878356 0.478006 -0.000920
vn -0.331462 -0.106525 -0.937436
vn -0.168921 -0.209910 -0.963018
vn -0.168921 -0.209910 -0.963018
vn -0.168921 -0.209910 -0.963018
vn -0.168921 -0.209910 -0.963018
vn 0.000000 -0.305368 -0.952234
vn 0.000000 0.000000 -1.000000
vn 0.000000 0.000000 -1.000000
vn 0.000000 0.000000 -1.000000
vn 0.000000 0.000000 -1.000000
vn 0.000000 0.000000 -1.000000
vn 0.000000 0.000000 -1.000000
vn 0.000000 -0.005141 -0.999987
vn 0.000000 -0.005141 -0.999987
vn 0.000000 -0.005141 -0.999987
vn 0.000000 -0.005141 -0.999987
vn 0.000000 -0.005141 -0.999987
vn 0.000000 -0.005141 -0.999987
s off
g torso
usemtl None
f 3/1/1 42/2/2 9/3/3
f 9/3/4 42/2/5 43/4/6
f 27/5/7 9/3/8 44/6/9
f 44/6/10 9/3/11 43/4/12
f 3/7/13 1/8/14 42/9/15
f 42/9/16 1/8/17 41/10/18
f 70/11/19 69/12/20 72/13/21
f 72/13/22 69/12/23 71/14/24
f 71/14/25 73/15/26 72/13/27
f 72/13/28 73/15/29 74/16/30
f 5/17/31 50/18/32 1/8/33
f 1/8/34 50/18/35 41/10/36
f 49/19/37 50/18/38 7/20/39
f 7/20/40 50/18/41 5/17/42
f 45/21/43 25/22/44 44/23/45
f 44/23/46 25/22/47 27/24/48
f 29/25/49 25/22/50 46/26/51
f 46/26/52 25/22/53 45/21/54
f 41/10/55 2/27/56 42/9/57
f 42/9/58 2/27/59 4/28/60
f 45/21/61 26/29/62 46/26/63
f 46/26/64 26/29/65 30/30/66
f 47/31/67 46/26/68 32/32/69
f 32/32/70 46/26/71 30/30/72
f 48/33/73 47/34/74 12/35/75
f 12/35/76 47/34/77 32/36/78
f 12/35/79 8/37/80 48/33/81
f 48/33/82 8/37/83 49/38/84
f 6/39/85 50/18/86 8/40/87
f 8/40/88 50/18/89 49/19/90
f 41/10/91 50/18/92 2/27/93
f 2/27/94 50/18/95 6/39/96
f 9/3/97 53/41/98 3/1/99
f 3/1/100 53/41/101 51/42/102
f 9/3/103 27/5/104 53/41/105
f 53/41/106 27/5/107 55/43/108
f 51/44/109 57/45/110 52/46/111
f 52/46/112 57/45/113 58/47/114
f 53/41/115 59/48/116 51/42/117
f 51/42/118 59/48/119 57/49/120
f 53/41/121 55/43/122 59/48/123
f 59/48/124 55/43/125 61/50/126
f 57/45/127 63/51/128 58/47/129
f 58/47/130 63/51/131 64/52/132
f 57/49/133 59/48/134 63/53/135
f 63/53/136 59/48/137 65/54/138
f 60/55/139 58/56/140 66/57/141
f 66/57/142 58/56/143 64/58/144
f 61/50/145 67/59/146 59/48/147
f 59/48/148 67/59/149 65/54/150
f 61/60/151 62/61/152 67/62/153
f 67/62/154 62/61/155 68/63/156
f 60/55/157 66/57/158 62/64/159
f 62/64/160 66/57/161 68/65/162
f 63/51/163 69/66/164 64/52/165
f 64/52/166 69/66/167 70/67/168
f 63/53/169 65/54/170 69/12/171
f 69/12/172 65/54/173 71/14/174
f 66/57/175 64/58/176 72/68/177
f 72/68/178 64/58/179 70/69/180
f 67/59/181 73/15/182 65/54/183
f 65/54/184 73/15/185 71/14/186
f 67/62/187 68/63/188 73/70/189
f 73/70/190 68/63/191 74/71/192
f 68/65/193 66/57/194 74/72/195
f 74/72/196 66/57/197 72/68/198
f 11/73/199 48/33/200 7/74/201
f 7/74/202 48/33/203 49/38/204
f 14/75/205 13/76/206 3/7/207
f 3/7/208 13/76/209 1/8/210
f 13/76/211 15/77/212 1/8/213
f 1/8/214 15/77/215 5/17/216
f 7/20/217 5/17/218 16/78/219
f 16/78/220 5/17/221 15/77/222
f 7/74/223 16/79/224 11/73/225
f 11/73/226 16/79/227 18/80/228
f 34/81/229 27/24/230 33/82/231
f 33/82/232 27/24/233 25/22/234
f 33/82/235 25/22/236 35/83/237
f 35/83/238 25/22/239 29/25/240
f 31/84/241 36/85/242 29/25/243
f 29/25/244 36/85/245 35/83/246
f 18/80/247 36/86/248 11/73/249
f 11/73/250 36/86/251 31/87/252
f 17/88/253 34/89/254 75/90/255
f 75/90/256 34/89/257 33/91/258
f 75/90/259 33/91/260 76/92/261
f 76/92/262 33/91/263 35/93/264
f 18/94/265 76/92/266 36/95/267
f 36/95/268 76/92/269 35/93/270
f 11/73/271 31/87/272 48/33/273
f 48/33/274 31/87/275 47/34/276
f 29/25/277 46/26/278 31/84/279
f 31/84/280 46/26/281 47/31/282
f 3/7/283 51/44/284 14/75/285
f 14/75/286 51/44/287 52/46/288
f 14/96/289 52/97/290 17/88/291
f 17/88/292 52/97/293 54/98/294
f 55/99/295 27/24/296 56/100/297
f 56/100/298 27/24/299 34/81/300
f 34/89/301 17/88/302 56/101/303
f 56/101/304 17/88/305 54/98/306
f 60/55/307 54/98/308 58/56/309
f 58/56/310 54/98/311 52/97/312
f 55/99/313 56/100/314 61/60/315
f 61/60/316 56/100/317 62/61/318
f 56/101/319 54/98/320 62/64/321
f 62/64/322 54/98/323 60/55/324
f 18/94/325 16/102/326 76/92/327
f 76/92/328 16/102/329 15/103/330
f 75/90/331 76/92/332 13/104/333
f 13/104/334 76/92/335 15/103/336
f 17/88/337 75/90/338 14/96/339
f 14/96/340 75/90/341 13/104/342
f 4/105/343 20/106/344 10/107/345
f 10/107/346 20/106/347 23/108/348
f 23/108/349 38/109/350 10/107/351
f 10/107/352 38/109/353 28/110/354
f 2/27/355 19/111/356 4/28/357
f 4/28/358 19/111/359 20/112/360
f 21/113/361 19/111/362 6/39/363
f 6/39/364 19/111/365 2/27/366
f 8/40/367 22/114/368 6/39/369
f 6/39/370 22/114/371 21/113/372
f 8/37/373 12/35/374 22/115/375
f 22/115/376 12/35/377 24/116/378
f 38/117/379 37/118/380 28/119/381
f 28/119/382 37/118/383 26/29/384
f 39/120/385 30/30/386 37/118/387
f 37/118/388 30/30/389 26/29/390
f 39/120/391 40/121/392 30/30/393
f 30/30/394 40/121/395 32/32/396
f 32/36/397 40/122/398 12/35/399
f 12/35/400 40/122/401 24/116/402
f 23/123/403 20/124/404 77/125/405
f 77/125/406 20/124/407 19/126/408
f 78/127/409 77/125/410 21/128/411
f 21/128/412 77/125/413 19/126/414
f 24/129/415 78/127/416 22/130/417
f 22/130/418 78/127/419 21/128/420
f 10/107/421 43/4/422 4/105/423
f 4/105/424 43/4/425 42/2/426
f 44/6/427 43/4/428 28/110/429
f 28/110/430 43/4/431 10/107/432
f 45/21/433 44/23/434 26/29/435
f 26/29/436 44/23/437 28/119/438
f 24/129/439 40/131/440 78/127/441
f 78/127/442 40/131/443 39/132/444
f 78/127/445 39/132/446 77/125/447
f 77/125/448 39/132/449 37/133/450
f 23/123/451 77/125/452 38/134/453
f 38/134/454 77/125/455 37/133/456
