# This file uses centimeters as units for non-parametric coordinates.

mtllib StantlerTail.mtl
g default
v -1.839787 -1.158849 -1.842425
v -1.998938 -1.158849 -4.290197
v -1.839787 1.131984 -1.842425
v -1.998938 1.131984 -4.290197
v -1.147681 -1.158849 0.083343
v -1.147681 1.131984 0.083343
v -1.147681 -1.158849 -6.215966
v -1.147681 1.131984 -6.215966
v -1.147681 -3.227133 -1.811499
v -1.147681 -2.622338 -4.072945
v -1.147681 2.622371 -1.842425
v -1.147681 3.063831 -4.290197
v 0.000000 -1.158849 0.083343
v 0.000000 1.131984 0.083343
v 0.000000 -1.158849 -6.215966
v 0.000000 1.131984 -6.215966
v 0.000000 -3.227133 -1.811499
v 0.000000 -2.622338 -4.072945
v 0.000000 2.622371 -1.842425
v 0.000000 3.063831 -4.290197
v 1.839787 -1.158849 -1.842425
v 1.998938 -1.158849 -4.290197
v 1.839787 1.131984 -1.842425
v 1.998938 1.131984 -4.290197
v 1.147681 -1.158849 0.083343
v 1.147681 1.131984 0.083343
v 1.147681 -1.158849 -6.215966
v 1.147681 1.131984 -6.215966
v 1.147681 -3.227133 -1.811499
v 1.147681 -2.622338 -4.072945
v 1.147681 2.622371 -1.842425
v 1.147681 3.063831 -4.290197
vt 0.902602 0.911136
vt 0.905800 0.952235
vt 0.868845 0.910266
vt 0.854553 0.949541
vt 0.841235 0.909363
vt 0.822716 0.953933
vt 0.822534 0.910687
vt 0.825906 0.823640
vt 0.776503 0.823640
vt 0.825906 0.724834
vt 0.776503 0.724834
vt 0.875309 0.823640
vt 0.875309 0.724834
vt 0.738099 0.953298
vt 0.708977 0.912774
vt 0.742861 0.912373
vt 0.902348 0.873972
vt 0.936248 0.873520
vt 0.936106 0.912338
vt 0.929480 0.964899
vt 0.959793 0.919006
vt 0.713924 0.963972
vt 0.685899 0.919070
vt 0.742622 0.874983
vt 0.709057 0.873852
vt 0.685338 0.867250
vt 0.959364 0.867210
vt 0.803992 0.909287
vt 0.790386 0.951218
vt 0.776284 0.911183
vt 0.776399 0.876022
vt 0.907101 0.832683
vt 0.868888 0.874840
vt 0.739326 0.834190
vt 0.931447 0.822140
vt 0.715745 0.821436
vt 0.803970 0.876829
vt 0.841242 0.876844
vt 0.822689 0.875480
vt 0.854776 0.835171
vt 0.790604 0.836420
vt 0.825906 0.724304
vt 0.875309 0.724304
vt 0.825906 0.823110
vt 0.875309 0.823110
vt 0.776503 0.724304
vt 0.776503 0.823110
vt 0.822549 0.832251
vn -0.905403 0.420452 0.058868
vn -0.905403 0.420452 0.058868
vn -0.905403 0.420452 0.058868
vn -0.909111 0.411340 0.065705
vn -0.909111 0.411340 0.065705
vn -0.912687 0.402170 0.072532
vn -0.848322 0.373808 -0.374989
vn -0.848322 0.373808 -0.374989
vn -0.848322 0.373808 -0.374989
vn 0.000000 0.705992 -0.708220
vn 0.000000 0.705991 -0.708220
vn 0.000000 0.705991 -0.708220
vn 0.000000 0.705991 -0.708220
vn 0.000000 0.705991 -0.708220
vn 0.000000 0.705990 -0.708221
vn 0.000000 0.984123 0.177488
vn 0.000000 0.984123 0.177488
vn 0.000000 0.984123 0.177488
vn 0.000000 0.984123 0.177488
vn 0.000000 0.984123 0.177488
vn 0.000000 0.984123 0.177489
vn 0.000000 0.984123 0.177488
vn 0.000000 0.984123 0.177488
vn 0.000000 0.984123 0.177488
vn 0.000000 0.984123 0.177488
vn 0.000000 0.984123 0.177488
vn 0.000000 0.984123 0.177489
vn 0.862321 0.400445 0.309912
vn 0.862321 0.400445 0.309912
vn 0.862321 0.400445 0.309912
vn -0.941070 0.000000 0.338213
vn -0.941070 0.000000 0.338213
vn -0.941070 0.000000 0.338213
vn -0.941070 0.000000 0.338213
vn -0.941070 0.000000 0.338213
vn -0.941070 0.000000 0.338213
vn -0.862322 0.400445 0.309912
vn -0.862322 0.400445 0.309912
vn -0.862322 0.400445 0.309912
vn 0.000000 0.790828 0.612038
vn 0.000000 0.790829 0.612037
vn 0.000000 0.790829 0.612037
vn 0.000000 0.790829 0.612037
vn 0.000000 0.790829 0.612037
vn 0.000000 0.790829 0.612037
vn 0.000000 0.790829 0.612037
vn 0.000000 0.790829 0.612037
vn 0.000000 0.790829 0.612037
vn 0.000000 0.790829 0.612037
vn 0.000000 0.790829 0.612037
vn 0.000000 0.790828 0.612038
vn 0.941070 0.000000 0.338213
vn 0.941070 0.000000 0.338213
vn 0.941070 0.000000 0.338213
vn 0.941070 0.000000 0.338213
vn 0.941070 0.000000 0.338213
vn 0.941069 0.000000 0.338214
vn 0.000000 0.000000 1.000000
vn 0.000000 0.000000 1.000000
vn 0.000000 0.000000 1.000000
vn 0.000000 0.000000 1.000000
vn 0.000000 0.000000 1.000000
vn 0.000000 0.000000 1.000000
vn 0.000000 0.000000 1.000000
vn 0.000000 0.000000 1.000000
vn 0.000000 0.000000 1.000000
vn 0.000000 0.000000 1.000000
vn 0.000000 0.000000 1.000000
vn 0.000000 0.000000 1.000000
vn 0.848323 0.373808 -0.374988
vn 0.848323 0.373808 -0.374988
vn 0.848323 0.373808 -0.374988
vn 0.000000 0.705991 -0.708221
vn 0.000000 0.705992 -0.708220
vn 0.000000 0.705992 -0.708220
vn 0.000000 0.705992 -0.708220
vn 0.000000 0.705992 -0.708220
vn 0.000000 0.705993 -0.708219
vn 0.905403 0.420451 0.058868
vn 0.909111 0.411340 0.065705
vn 0.909111 0.411340 0.065705
vn 0.909111 0.411340 0.065705
vn 0.909111 0.411340 0.065705
vn 0.912687 0.402170 0.072532
vn 0.997893 0.000000 0.064882
vn 0.997893 0.000000 0.064882
vn 0.997893 0.000000 0.064882
vn 0.997893 0.000000 0.064882
vn 0.997893 0.000000 0.064882
vn 0.997893 0.000000 0.064882
vn -0.898907 -0.295969 0.323061
vn -0.898907 -0.295969 0.323061
vn -0.898907 -0.295969 0.323061
vn -0.997893 0.000000 0.064882
vn -0.997893 0.000000 0.064882
vn -0.997893 0.000000 0.064882
vn -0.997893 0.000000 0.064882
vn -0.997893 0.000000 0.064882
vn -0.997893 0.000000 0.064882
vn 0.898907 -0.295969 0.323061
vn 0.898907 -0.295969 0.323061
vn 0.898907 -0.295969 0.323061
vn 0.000000 -0.675514 0.737347
vn 0.000000 -0.675514 0.737347
vn 0.000000 -0.675514 0.737347
vn 0.000000 -0.675514 0.737347
vn 0.000000 -0.675514 0.737347
vn 0.000000 -0.675514 0.737347
vn 0.000000 -0.675514 0.737347
vn 0.000000 -0.675514 0.737347
vn 0.000000 -0.675514 0.737347
vn 0.000000 -0.675514 0.737347
vn 0.000000 -0.675514 0.737347
vn 0.000000 -0.675515 0.737347
vn 0.914628 0.000000 -0.404297
vn 0.914627 0.000000 -0.404298
vn 0.914627 0.000000 -0.404298
vn 0.914627 0.000000 -0.404298
vn 0.914627 0.000000 -0.404298
vn 0.914627 0.000000 -0.404298
vn -0.914627 0.000000 -0.404298
vn -0.914628 0.000000 -0.404297
vn -0.914628 0.000000 -0.404297
vn -0.914628 0.000000 -0.404297
vn -0.914628 0.000000 -0.404297
vn -0.914628 0.000000 -0.404297
vn 0.000000 0.000000 -1.000000
vn 0.000000 0.000000 -1.000000
vn 0.000000 0.000000 -1.000000
vn 0.000000 0.000000 -1.000000
vn 0.000000 0.000000 -1.000000
vn 0.000000 0.000000 -1.000000
vn 0.000000 0.000000 -1.000000
vn 0.000000 0.000000 -1.000000
vn 0.000000 0.000000 -1.000000
vn 0.000000 0.000000 -1.000000
vn 0.000000 0.000000 -1.000000
vn 0.000000 0.000000 -1.000000
vn -0.944511 -0.317329 -0.084865
vn -0.912197 -0.409501 -0.014363
vn -0.912197 -0.409501 -0.014363
vn -0.912197 -0.409501 -0.014363
vn -0.912197 -0.409501 -0.014363
vn -0.866646 -0.495731 0.056348
vn 0.944511 -0.317329 -0.084866
vn 0.912197 -0.409501 -0.014363
vn 0.912197 -0.409501 -0.014363
vn 0.912197 -0.409501 -0.014363
vn 0.912197 -0.409501 -0.014363
vn 0.866646 -0.495731 0.056348
vn 0.000000 -0.966049 -0.258357
vn 0.000000 -0.966049 -0.258357
vn 0.000000 -0.966049 -0.258357
vn 0.000000 -0.966049 -0.258357
vn 0.000000 -0.966049 -0.258357
vn 0.000000 -0.966049 -0.258357
vn 0.000000 -0.966050 -0.258357
vn 0.000000 -0.966049 -0.258357
vn 0.000000 -0.966049 -0.258357
vn 0.000000 -0.966049 -0.258357
vn 0.000000 -0.966049 -0.258357
vn 0.000000 -0.966049 -0.258358
vn -0.787043 -0.509439 -0.347901
vn -0.787043 -0.509439 -0.347901
vn -0.787043 -0.509439 -0.347901
vn 0.787044 -0.509439 -0.347900
vn 0.787044 -0.509439 -0.347900
vn 0.787044 -0.509439 -0.347900
vn 0.000000 -0.825807 -0.563952
vn 0.000000 -0.825808 -0.563952
vn 0.000000 -0.825808 -0.563952
vn 0.000000 -0.825808 -0.563952
vn 0.000000 -0.825808 -0.563952
vn 0.000000 -0.825808 -0.563952
vn 0.000000 -0.825807 -0.563952
vn 0.000000 -0.825808 -0.563952
vn 0.000000 -0.825808 -0.563952
vn 0.000000 -0.825808 -0.563952
vn 0.000000 -0.825808 -0.563952
vn 0.000000 -0.825808 -0.563952
s off
g tail
usemtl None
f 3/1/1 11/2/2 4/3/3
f 4/3/4 11/2/5 12/4/6
f 12/4/7 8/5/8 4/3/9
f 12/4/10 20/6/11 8/5/12
f 8/5/13 20/6/14 16/7/15
f 20/8/16 12/9/17 19/10/18
f 19/10/19 12/9/20 11/11/21
f 20/8/22 19/10/23 32/12/24
f 32/12/25 19/10/26 31/13/27
f 31/14/28 26/15/29 23/16/30
f 1/17/31 5/18/32 3/1/33
f 3/1/34 5/18/35 6/19/36
f 6/19/37 11/2/38 3/1/39
f 11/2/40 6/19/41 19/20/42
f 19/20/43 6/19/44 14/21/45
f 19/22/46 14/23/47 31/14/48
f 31/14/49 14/23/50 26/15/51
f 21/24/52 23/16/53 25/25/54
f 25/25/55 23/16/56 26/15/57
f 13/26/58 25/25/59 14/23/60
f 14/23/61 25/25/62 26/15/63
f 14/21/64 6/19/65 13/27/66
f 13/27/67 6/19/68 5/18/69
f 28/28/70 32/29/71 24/30/72
f 28/28/73 16/7/74 32/29/75
f 32/29/76 16/7/77 20/6/78
f 23/16/79 24/30/80 31/14/81
f 31/14/82 24/30/83 32/29/84
f 22/31/85 24/30/86 21/24/87
f 21/24/88 24/30/89 23/16/90
f 9/32/91 5/18/92 1/17/93
f 1/17/94 3/1/95 2/33/96
f 2/33/97 3/1/98 4/3/99
f 25/25/100 29/34/101 21/24/102
f 5/18/103 9/32/104 13/27/105
f 13/27/106 9/32/107 17/35/108
f 13/26/109 17/36/110 25/25/111
f 25/25/112 17/36/113 29/34/114
f 28/28/115 24/30/116 27/37/117
f 27/37/118 24/30/119 22/31/120
f 2/33/121 4/3/122 7/38/123
f 7/38/124 4/3/125 8/5/126
f 7/38/127 8/5/128 15/39/129
f 15/39/130 8/5/131 16/7/132
f 15/39/133 16/7/134 27/37/135
f 27/37/136 16/7/137 28/28/138
f 9/32/139 1/17/140 10/40/141
f 10/40/142 1/17/143 2/33/144
f 29/34/145 30/41/146 21/24/147
f 21/24/148 30/41/149 22/31/150
f 17/42/151 9/43/152 18/44/153
f 18/44/154 9/43/155 10/45/156
f 17/42/157 18/44/158 29/46/159
f 29/46/160 18/44/161 30/47/162
f 7/38/163 10/40/164 2/33/165
f 30/41/166 27/37/167 22/31/168
f 18/48/169 10/40/170 15/39/171
f 15/39/172 10/40/173 7/38/174
f 30/41/175 18/48/176 27/37/177
f 27/37/178 18/48/179 15/39/180
