# This file uses centimeters as units for non-parametric coordinates.

mtllib StantlerBRLeg.mtl
g default
v -1.585567 -3.547267 1.242886
v -1.125173 -3.547267 -1.176697
v -1.405746 -0.225667 1.242886
v -1.405746 -0.225667 -1.416227
v -1.376371 -3.547267 2.589218
v -1.389756 -0.225667 2.581912
v -0.872355 -3.406042 -2.186993
v -1.048590 -0.225667 -3.172923
v 0.240028 2.420816 0.817153
v 0.240028 2.420816 -0.883379
v 0.420714 2.100163 2.016983
v 0.420714 2.100163 -2.254666
v -1.168430 -5.419517 0.349075
v -0.768322 -5.419550 -1.913383
v -0.146940 -5.419765 1.556211
v 0.105535 -5.419953 -1.927737
v 0.666626 -3.547267 2.589218
v 0.740167 -0.225667 2.581912
v 0.536115 -3.406042 -2.617907
v 0.348947 -0.225667 -3.036428
v 0.740596 0.786443 2.016983
v 0.740596 0.786443 -2.254666
v 0.667091 -5.419765 1.556211
v 0.869170 -5.419953 -1.921102
v 0.869170 -5.419860 -1.303728
v 0.801920 -5.419813 0.342817
v 0.728734 2.100163 -0.902003
v 0.740596 0.786443 -0.902003
v 0.740596 0.786443 0.821934
v 0.728734 2.100163 0.821934
v 0.740167 -0.225667 0.820135
v 0.801522 -3.547267 0.814226
v 0.348947 -0.225667 -0.891200
v 0.536115 -3.547267 -1.821933
v -0.544973 -7.900230 -2.448957
v 0.281029 -7.900541 -2.389242
v -0.544973 -7.900199 -0.429624
v 0.281030 -7.900494 -0.437453
v 0.773960 -7.900541 -2.556491
v 0.773960 -7.900495 -0.604703
v -0.630283 -11.726420 -1.170663
v 0.105536 -11.693505 -1.134901
v -0.862307 -10.867267 -0.332327
v 0.105536 -10.810461 -0.336883
v 0.537419 -11.693505 -1.134901
v 0.715001 -10.871862 -0.336883
v -0.967750 -12.208821 -0.417118
v 0.105588 -12.175905 -0.381355
v -0.967750 -10.897650 0.030541
v 0.105589 -10.902243 0.025986
v 0.740695 -12.175905 -0.381354
v 0.740695 -10.902244 0.025987
v -0.967750 -12.208821 1.254300
v 0.105588 -12.175905 1.166143
v -0.967750 -11.305315 0.920606
v 0.105589 -11.309907 0.792129
v 0.740695 -12.175905 1.290065
v 0.740695 -11.309908 0.916052
v 0.450619 -11.638011 -1.491717
v 0.020145 -11.638011 -1.491717
v -0.713271 -11.670002 -1.528144
v -0.623003 -10.470847 -0.370069
v 0.110414 -10.475321 -0.370234
v 0.540887 -10.475323 -0.370234
v 0.654464 -11.197995 -1.403866
v 0.097322 -11.197995 -1.403866
v -0.679073 -11.229101 -1.440933
v -0.660943 -10.299350 -0.355218
v 0.115090 -10.303709 -0.359951
v 0.670104 -10.303710 -0.359951
vt 0.203059 0.965975
vt 0.216067 0.956537
vt 0.192855 0.937449
vt 0.218165 0.933628
vt 0.177062 0.944129
vt 0.158269 0.901128
vt 0.182488 0.893686
vt 0.179921 0.856610
vt 0.137093 0.870108
vt 0.224947 0.893598
vt 0.227866 0.856387
vt 0.268962 0.867386
vt 0.245648 0.898872
vt 0.226543 0.955750
vt 0.232250 0.936297
vt 0.191504 0.973051
vt 0.196539 0.619516
vt 0.222510 0.620530
vt 0.195830 0.583608
vt 0.220644 0.597907
vt 0.134059 0.909694
vt 0.160620 0.957376
vt 0.171397 0.972541
vt 0.123365 0.877334
vt 0.222772 0.967378
vt 0.204879 0.987849
vt 0.167834 0.993769
vt 0.237417 0.953949
vt 0.241489 0.970320
vt 0.240580 0.998924
vt 0.243485 0.942798
vt 0.264543 0.904764
vt 0.284001 0.874531
vt 0.181442 0.595410
vt 0.180636 0.617371
vt 0.266694 0.992588
vt 0.257098 0.963198
vt 0.319068 0.940232
vt 0.278545 0.910938
vt 0.306175 0.887283
vt 0.339111 0.907522
vt 0.104002 0.920692
vt 0.099548 0.882431
vt 0.143379 0.982921
vt 0.168598 0.730551
vt 0.185992 0.729924
vt 0.166945 0.666383
vt 0.209836 0.661583
vt 0.237115 0.729650
vt 0.256385 0.733740
vt 0.255782 0.651510
vt 0.299064 0.646636
vt 0.158029 0.730939
vt 0.147920 0.668409
vt 0.117633 0.669786
vt 0.072448 0.671290
vt 0.109422 0.739115
vt 0.314666 0.654229
vt 0.267369 0.736896
vt 0.322859 0.685281
vt 0.171781 0.819694
vt 0.189864 0.818994
vt 0.231857 0.801831
vt 0.251719 0.801286
vt 0.160966 0.820012
vt 0.263484 0.801956
vt 0.120446 0.808350
vt 0.171964 0.824827
vt 0.170512 0.853323
vt 0.190087 0.824122
vt 0.202705 0.848880
vt 0.231554 0.805987
vt 0.229373 0.820240
vt 0.251796 0.815247
vt 0.251451 0.805175
vt 0.151675 0.850216
vt 0.161135 0.825141
vt 0.263261 0.805702
vt 0.268321 0.816470
vt 0.121265 0.824784
vt 0.121081 0.812336
vt 0.243721 0.568824
vt 0.258967 0.598581
vt 0.230014 0.644627
vt 0.192934 0.644520
vt 0.141460 0.601107
vt 0.145534 0.582396
vt 0.172401 0.642344
vt 0.161049 0.822522
vt 0.171870 0.822206
vt 0.189973 0.821504
vt 0.231709 0.803866
vt 0.251588 0.803189
vt 0.263375 0.803789
vt 0.120757 0.810301
vn -0.849190 0.528088 0.000000
vn -0.849190 0.528088 0.000000
vn -0.849190 0.528088 0.000000
vn -0.849190 0.528088 0.000000
vn -0.849190 0.528088 0.000000
vn -0.849190 0.528087 0.000000
vn -0.999921 -0.004003 0.011941
vn -0.996252 0.024780 0.082874
vn -0.996252 0.024780 0.082874
vn -0.996252 0.024780 0.082874
vn -0.996252 0.024780 0.082874
vn -0.986732 0.053418 0.153320
vn -0.688652 -0.431591 0.582655
vn -0.766850 -0.528138 0.364707
vn -0.766850 -0.528138 0.364707
vn -0.766850 -0.528138 0.364707
vn -0.766850 -0.528138 0.364707
vn -0.796784 -0.591446 0.123806
vn -0.996451 -0.084170 0.000000
vn -0.995453 -0.015637 -0.093966
vn -0.995453 -0.015637 -0.093966
vn -0.995453 -0.015637 -0.093966
vn -0.995453 -0.015637 -0.093966
vn -0.980988 0.053108 -0.186661
vn -0.977802 -0.118328 -0.172919
vn -0.976046 -0.123448 -0.179152
vn -0.976046 -0.123448 -0.179152
vn -0.976046 -0.123448 -0.179152
vn -0.976046 -0.123448 -0.179152
vn -0.974222 -0.128559 -0.185373
vn -0.016332 -0.135460 -0.990648
vn -0.613134 -0.137391 -0.777940
vn -0.613134 -0.137391 -0.777940
vn -0.613134 -0.137391 -0.777940
vn -0.613134 -0.137391 -0.777940
vn -0.963811 -0.084170 -0.252950
vn -0.803841 0.546964 -0.233816
vn -0.804316 0.559979 -0.198744
vn -0.804316 0.559979 -0.198744
vn -0.804316 0.559979 -0.198744
vn -0.804316 0.559979 -0.198744
vn -0.803665 0.572211 -0.163394
vn -0.973417 -0.115292 -0.197907
vn -0.968091 -0.107501 -0.226370
vn -0.968091 -0.107501 -0.226370
vn -0.968091 -0.107501 -0.226370
vn -0.968091 -0.107501 -0.226370
vn -0.961895 -0.099613 -0.254630
vn -0.787963 0.615651 0.009409
vn -0.800756 0.582824 0.138223
vn -0.800756 0.582824 0.138223
vn -0.800756 0.582824 0.138223
vn -0.800756 0.582824 0.138223
vn -0.799268 0.539603 0.264573
vn 0.110897 0.394044 0.912377
vn 0.088640 0.370096 0.924755
vn 0.088640 0.370096 0.924755
vn 0.088640 0.370096 0.924755
vn 0.088640 0.370096 0.924755
vn 0.066275 0.345696 0.936003
vn 0.000000 0.002200 0.999998
vn 0.000000 0.002200 0.999998
vn 0.000000 0.002200 0.999998
vn 0.000000 0.002200 0.999998
vn 0.000000 0.002200 0.999998
vn 0.000000 0.002200 0.999998
vn 0.894337 0.217765 0.390819
vn 0.528615 0.268225 0.805370
vn 0.528615 0.268225 0.805370
vn 0.528615 0.268225 0.805370
vn 0.528615 0.268225 0.805370
vn 0.000000 0.236031 0.971746
vn 0.000000 -0.483043 0.875597
vn 0.000000 -0.483043 0.875597
vn 0.000000 -0.483043 0.875597
vn 0.000000 -0.483043 0.875597
vn 0.000000 -0.483043 0.875597
vn 0.000000 -0.483043 0.875597
vn 0.541117 0.831871 -0.123221
vn 0.541117 0.831871 -0.123221
vn 0.541117 0.831871 -0.123221
vn 0.542244 0.828516 0.139763
vn 0.542244 0.828516 0.139763
vn 0.542244 0.828516 0.139763
vn 0.548584 0.836095 0.000000
vn 0.548584 0.836095 0.000000
vn 0.548584 0.836095 0.000000
vn 0.548584 0.836095 0.000000
vn 0.548584 0.836095 0.000000
vn 0.548585 0.836095 0.000000
vn 0.942507 0.229493 0.242928
vn 0.984986 0.120950 0.123184
vn 0.984986 0.120950 0.123184
vn 0.984986 0.120950 0.123184
vn 0.984986 0.120950 0.123184
vn 0.999959 0.009029 0.000000
vn 0.948670 0.230994 -0.216025
vn 0.986546 0.121518 -0.109368
vn 0.986546 0.121518 -0.109368
vn 0.986546 0.121518 -0.109368
vn 0.986546 0.121518 -0.109368
vn 0.999959 0.009029 0.000000
vn 0.999959 0.009029 0.000000
vn 0.999959 0.009029 0.000000
vn 0.999959 0.009029 0.000000
vn 0.999959 0.009029 0.000000
vn 0.999959 0.009029 0.000000
vn 0.999959 0.009029 0.000000
vn 0.409148 0.099624 -0.907013
vn 0.255608 0.361609 -0.896607
vn 0.255608 0.361609 -0.896607
vn 0.255608 0.361609 -0.896607
vn 0.255608 0.361609 -0.896607
vn 0.078471 0.590209 -0.803427
vn -0.289611 -0.141613 -0.946610
vn -0.100430 -0.220558 -0.970190
vn -0.100430 -0.220558 -0.970190
vn -0.100430 -0.220558 -0.970190
vn -0.100430 -0.220558 -0.970190
vn 0.093027 -0.290112 -0.952461
vn 0.008215 -0.325753 -0.945419
vn -0.138856 -0.294355 -0.945555
vn -0.138856 -0.294355 -0.945555
vn -0.138856 -0.294355 -0.945555
vn -0.138856 -0.294355 -0.945555
vn -0.282787 -0.256301 -0.924306
vn -0.176321 0.390277 0.903656
vn -0.176322 0.390277 0.903656
vn -0.176322 0.390277 0.903656
vn -0.176322 0.390277 0.903656
vn -0.176322 0.390277 0.903656
vn -0.176323 0.390278 0.903656
vn 1.000000 -0.000423 0.000000
vn 0.977559 -0.181726 -0.106557
vn 0.977559 -0.181726 -0.106557
vn 0.977559 -0.181726 -0.106557
vn 0.977559 -0.181726 -0.106557
vn 0.911393 -0.354899 -0.208349
vn 0.974686 0.018400 -0.222819
vn 0.985506 0.051245 -0.161718
vn 0.985506 0.051245 -0.161718
vn 0.985506 0.051245 -0.161718
vn 0.985506 0.051245 -0.161718
vn 0.991467 0.083838 -0.099820
vn 0.984071 0.147607 -0.099076
vn 0.997175 0.069160 -0.029298
vn 0.997175 0.069160 -0.029298
vn 0.997175 0.069160 -0.029298
vn 0.997175 0.069160 -0.029298
vn 0.999116 -0.010061 0.040807
vn 0.996265 -0.041522 0.075714
vn 0.995060 -0.034557 0.093072
vn 0.995060 -0.034557 0.093072
vn 0.995060 -0.034557 0.093072
vn 0.995060 -0.034557 0.093072
vn 0.993505 -0.027581 0.110396
vn 0.999829 0.018468 0.000000
vn 0.999279 -0.001720 0.037916
vn 0.999279 -0.001720 0.037916
vn 0.999279 -0.001720 0.037916
vn 0.999279 -0.001720 0.037916
vn 0.996885 -0.021905 0.075761
vn 1.000000 -0.000424 0.000000
vn 1.000000 -0.000424 0.000000
vn 1.000000 -0.000424 0.000000
vn 1.000000 -0.000424 0.000000
vn 1.000000 -0.000424 0.000000
vn 1.000000 -0.000423 0.000000
vn 0.932610 -0.360886 0.000000
vn 0.932610 -0.360886 0.000000
vn 0.932610 -0.360886 0.000000
vn 0.932610 -0.360886 0.000000
vn 0.932610 -0.360886 0.000000
vn 0.932610 -0.360886 0.000000
vn 0.998133 0.060145 0.010671
vn 0.998291 0.058203 0.005336
vn 0.998291 0.058203 0.005336
vn 0.998291 0.058203 0.005336
vn 0.998291 0.058203 0.005336
vn 0.998416 0.056259 0.000000
vn 0.984550 0.175102 -0.000026
vn 0.984574 0.174291 0.015375
vn 0.984574 0.174291 0.015375
vn 0.984574 0.174291 0.015375
vn 0.984574 0.174291 0.015375
vn 0.984364 0.173439 0.030772
vn 0.070899 0.187294 -0.979742
vn 0.027496 0.198664 -0.979682
vn 0.027496 0.198664 -0.979682
vn 0.027496 0.198664 -0.979682
vn 0.027496 0.198664 -0.979682
vn -0.015962 0.209636 -0.977649
vn 0.008943 -0.297438 0.954699
vn -0.344881 -0.460746 0.817783
vn -0.344881 -0.460746 0.817783
vn -0.344881 -0.460746 0.817783
vn -0.344881 -0.460746 0.817783
vn -0.639866 -0.545448 0.541348
vn -0.995971 -0.089673 0.000001
vn -0.986387 -0.140206 -0.085926
vn -0.986387 -0.140206 -0.085926
vn -0.986387 -0.140206 -0.085926
vn -0.986387 -0.140206 -0.085926
vn -0.966910 -0.189333 -0.170992
vn -0.311351 0.246997 -0.917634
vn -0.153543 0.218281 -0.963731
vn -0.153543 0.218281 -0.963731
vn -0.153543 0.218281 -0.963731
vn -0.153543 0.218281 -0.963731
vn 0.008542 0.183485 -0.982985
vn 0.999264 -0.038355 0.000006
vn 0.999264 -0.038355 0.000006
vn 0.999264 -0.038355 0.000006
vn 0.998807 -0.026840 0.040795
vn 0.999260 -0.032603 0.020403
vn 0.999260 -0.032603 0.020403
vn 0.999260 -0.032603 0.020403
vn 0.999260 -0.032603 0.020403
vn 0.999264 -0.038353 0.000001
vn 0.000000 -0.626433 0.779475
vn 0.125787 -0.633278 0.763634
vn 0.125787 -0.633278 0.763634
vn 0.125787 -0.633278 0.763634
vn 0.125787 -0.633278 0.763634
vn 0.249547 -0.629914 0.735483
vn 0.992470 -0.053309 0.110282
vn 0.992470 -0.053309 0.110282
vn 0.992470 -0.053309 0.110282
vn 0.068918 -0.289161 -0.954797
vn 0.063093 -0.290312 -0.954850
vn 0.063093 -0.290312 -0.954850
vn 0.063093 -0.290312 -0.954850
vn 0.063093 -0.290312 -0.954850
vn 0.057265 -0.291453 -0.954870
vn -0.999253 0.035977 -0.014123
vn -0.999087 0.042131 -0.007062
vn -0.999087 0.042131 -0.007062
vn -0.999087 0.042131 -0.007062
vn -0.999087 0.042131 -0.007062
vn -0.998834 0.048282 -0.000001
vn 0.006271 0.030695 0.999509
vn 0.007877 0.031136 0.999484
vn 0.007877 0.031136 0.999484
vn 0.007877 0.031136 0.999484
vn 0.007877 0.031136 0.999484
vn 0.009483 0.031577 0.999456
vn -0.306079 -0.304232 -0.902086
vn -0.154932 -0.298928 -0.941615
vn -0.154932 -0.298928 -0.941615
vn -0.154932 -0.298928 -0.941615
vn -0.154932 -0.298928 -0.941615
vn 0.000000 -0.286319 -0.958134
vn -0.000003 0.032232 0.999480
vn 0.162316 0.058045 0.985030
vn 0.162316 0.058045 0.985030
vn 0.162316 0.058045 0.985030
vn 0.162316 0.058045 0.985030
vn 0.320217 0.082278 0.943765
vn 0.999067 -0.043175 0.000001
vn 0.999276 -0.037539 0.006177
vn 0.999276 -0.037539 0.006177
vn 0.999276 -0.037539 0.006177
vn 0.999276 -0.037539 0.006177
vn 0.999415 -0.031900 0.012353
vn 0.063749 -0.840490 -0.538063
vn 0.053657 -0.845391 -0.531446
vn 0.053657 -0.845391 -0.531446
vn 0.053657 -0.845391 -0.531446
vn 0.053657 -0.845391 -0.531446
vn 0.043555 -0.850148 -0.524739
vn -0.929868 0.095540 -0.355270
vn -0.944984 0.094075 -0.313298
vn -0.944984 0.094075 -0.313298
vn -0.944984 0.094075 -0.313298
vn -0.944984 0.094075 -0.313298
vn -0.958216 0.092423 -0.270702
vn 0.004623 0.996390 0.084772
vn -0.025615 0.985889 0.165428
vn -0.025615 0.985889 0.165428
vn -0.025615 0.985889 0.165428
vn -0.025615 0.985889 0.165428
vn -0.055661 0.967965 0.244839
vn 0.000000 -0.842205 -0.539157
vn 0.000000 -0.842205 -0.539157
vn 0.000000 -0.842205 -0.539157
vn 0.000000 -0.842205 -0.539157
vn 0.000000 -0.842205 -0.539157
vn 0.000000 -0.842206 -0.539157
vn 0.097208 0.964882 0.244037
vn 0.048826 0.985171 0.164482
vn 0.048826 0.985171 0.164482
vn 0.048826 0.985171 0.164482
vn 0.048826 0.985171 0.164482
vn 0.000001 0.996513 0.083433
vn 0.997389 0.021997 -0.068780
vn 0.987289 0.024806 -0.156985
vn 0.987289 0.024806 -0.156985
vn 0.987289 0.024806 -0.156985
vn 0.987289 0.024806 -0.156985
vn 0.969400 0.027420 -0.243951
vn 0.030653 -0.999530 0.000000
vn 0.030653 -0.999530 0.000000
vn 0.030653 -0.999530 0.000000
vn 0.030653 -0.999530 0.000000
vn 0.030653 -0.999530 0.000000
vn 0.030653 -0.999530 0.000000
vn -1.000000 0.000000 0.000000
vn -1.000000 0.000000 0.000000
vn -1.000000 0.000000 0.000000
vn -1.000000 0.000000 0.000000
vn -1.000000 0.000000 0.000000
vn -1.000000 0.000000 0.000000
vn 0.053657 0.907865 0.415816
vn 0.029736 0.895980 0.443097
vn 0.029736 0.895980 0.443097
vn 0.029736 0.895980 0.443097
vn 0.029736 0.895980 0.443097
vn 0.005771 0.882790 0.469732
vn 0.000000 -1.000000 0.000000
vn 0.000000 -1.000000 0.000000
vn 0.000000 -1.000000 0.000000
vn 0.000000 -1.000000 0.000000
vn 0.000000 -1.000000 0.000000
vn 0.000000 -1.000000 0.000000
vn -0.000001 0.882805 0.469740
vn -0.040544 0.895627 0.442954
vn -0.040544 0.895627 0.442954
vn -0.040544 0.895627 0.442954
vn -0.040544 0.895627 0.442954
vn -0.080984 0.906188 0.415049
vn 1.000000 -0.000000 0.000000
vn 1.000000 -0.000000 0.000000
vn 1.000000 -0.000000 0.000000
vn 1.000000 -0.000000 0.000000
vn 1.000000 -0.000000 0.000000
vn 1.000000 0.000000 0.000000
vn 0.000000 -0.988121 -0.153679
vn 0.000000 -0.988121 -0.153679
vn 0.000000 -0.988121 -0.153679
vn 0.000000 -0.988121 -0.153679
vn 0.000000 -0.988121 -0.153679
vn 0.000000 -0.988121 -0.153679
vn 0.051255 -0.984575 -0.167285
vn 0.051679 -0.984693 -0.166459
vn 0.051679 -0.984693 -0.166459
vn 0.051679 -0.984693 -0.166459
vn 0.051679 -0.984693 -0.166459
vn 0.052103 -0.984810 -0.165633
vn -0.801297 0.445718 -0.399072
vn -0.988986 0.031741 -0.144566
vn -0.988986 0.031741 -0.144566
vn -0.988986 0.031741 -0.144566
vn -0.988986 0.031741 -0.144566
vn -0.908286 -0.390850 0.149172
vn 0.000826 0.099011 0.995086
vn -0.000041 0.097167 0.995268
vn -0.000041 0.097167 0.995268
vn -0.000041 0.097167 0.995268
vn -0.000041 0.097167 0.995268
vn -0.000908 0.095322 0.995446
vn 0.000000 0.099023 0.995085
vn 0.004415 0.093341 0.995624
vn 0.004415 0.093341 0.995624
vn 0.004415 0.093341 0.995624
vn 0.004415 0.093341 0.995624
vn 0.008830 0.087654 0.996112
vn 0.844879 0.335959 -0.416307
vn 0.926178 0.179917 -0.331397
vn 0.926178 0.179917 -0.331397
vn 0.926178 0.179917 -0.331397
vn 0.926178 0.179917 -0.331397
vn 0.972127 0.017008 -0.233837
vn 0.000000 0.195789 -0.980646
vn 0.000000 0.195789 -0.980646
vn 0.000000 0.195789 -0.980646
vn 0.000000 0.195789 -0.980646
vn 0.000000 0.195789 -0.980646
vn 0.000000 0.195789 -0.980646
vn 0.039270 0.189010 -0.981190
vn 0.039830 0.189940 -0.980987
vn 0.039830 0.189940 -0.980987
vn 0.039830 0.189940 -0.980987
vn 0.039830 0.189940 -0.980987
vn 0.040389 0.190869 -0.980784
vn -0.950262 -0.228546 0.211585
vn -0.991382 -0.076690 0.106212
vn -0.991382 -0.076690 0.106212
vn -0.991382 -0.076690 0.106212
vn -0.991382 -0.076690 0.106212
vn -0.996956 0.077916 -0.002970
vn 0.005600 -0.085045 0.996361
vn 0.002729 -0.072432 0.997370
vn 0.002729 -0.072432 0.997370
vn 0.002729 -0.072432 0.997370
vn 0.002729 -0.072432 0.997370
vn -0.000142 -0.059806 0.998210
vn 0.000000 -0.059810 0.998210
vn 0.000000 -0.059810 0.998210
vn 0.000000 -0.059810 0.998210
vn 0.000000 -0.059810 0.998210
vn 0.000000 -0.059810 0.998210
vn 0.000000 -0.059810 0.998210
vn 0.695124 -0.551063 0.461662
vn 0.748607 -0.501933 0.433188
vn 0.748607 -0.501933 0.433188
vn 0.748607 -0.501933 0.433188
vn 0.748607 -0.501933 0.433188
vn 0.797534 -0.449747 0.402078
s off
g rightBackLeg
usemtl None
f 9/1/1 10/2/2 3/3/3
f 3/3/4 10/2/5 4/4/6
f 6/5/7 3/3/8 5/6/9
f 5/6/10 3/3/11 1/7/12
f 13/8/13 15/9/14 1/7/15
f 1/7/16 15/9/17 5/6/18
f 4/4/19 2/10/20 3/3/21
f 3/3/22 2/10/23 1/7/24
f 14/11/25 13/8/26 2/10/27
f 2/10/28 13/8/29 1/7/30
f 16/12/31 14/11/32 7/13/33
f 7/13/34 14/11/35 2/10/36
f 10/2/37 12/14/38 4/4/39
f 4/4/40 12/14/41 8/15/42
f 8/15/43 7/13/44 4/4/45
f 4/4/46 7/13/47 2/10/48
f 6/5/49 11/16/50 3/3/51
f 3/3/52 11/16/53 9/1/54
f 56/17/55 55/18/56 54/19/57
f 54/19/58 55/18/59 53/20/60
f 5/6/61 17/21/62 6/5/63
f 6/5/64 17/21/65 18/22/66
f 21/23/67 11/16/68 18/22/69
f 18/22/70 11/16/71 6/5/72
f 23/24/73 17/21/74 15/9/75
f 15/9/76 17/21/77 5/6/78
f 27/25/79 12/14/80 10/2/81
f 9/1/82 11/16/83 30/26/84
f 9/1/85 30/26/86 10/2/87
f 10/2/88 30/26/89 27/25/90
f 11/16/91 21/23/92 30/26/93
f 30/26/94 21/23/95 29/27/96
f 12/14/97 27/25/98 22/28/99
f 22/28/100 27/25/101 28/29/102
f 28/29/103 27/25/104 29/30/105
f 29/30/106 27/25/107 30/26/108
f 12/14/109 22/28/110 8/15/111
f 8/15/112 22/28/113 20/31/114
f 19/32/115 7/13/116 20/31/117
f 20/31/118 7/13/119 8/15/120
f 24/33/121 16/12/122 19/32/123
f 19/32/124 16/12/125 7/13/126
f 57/34/127 58/35/128 54/19/129
f 54/19/130 58/35/131 56/17/132
f 29/30/133 31/36/134 28/29/135
f 28/29/136 31/36/137 33/37/138
f 31/36/139 32/38/140 33/37/141
f 33/37/142 32/38/143 34/39/144
f 34/39/145 32/38/146 25/40/147
f 25/40/148 32/38/149 26/41/150
f 17/21/151 23/24/152 32/42/153
f 32/42/154 23/24/155 26/43/156
f 31/44/157 18/22/158 32/42/159
f 32/42/160 18/22/161 17/21/162
f 18/22/163 31/44/164 21/23/165
f 21/23/166 31/44/167 29/27/168
f 20/31/169 22/28/170 33/37/171
f 33/37/172 22/28/173 28/29/174
f 19/32/175 20/31/176 34/39/177
f 34/39/178 20/31/179 33/37/180
f 25/40/181 24/33/182 34/39/183
f 34/39/184 24/33/185 19/32/186
f 36/45/187 35/46/188 16/47/189
f 16/47/190 35/46/191 14/48/192
f 37/49/193 38/50/194 13/51/195
f 13/51/196 38/50/197 15/52/198
f 35/46/199 37/49/200 14/48/201
f 14/48/202 37/49/203 13/51/204
f 39/53/205 36/45/206 24/54/207
f 24/54/208 36/45/209 16/47/210
f 25/55/211 39/53/212 24/54/213
f 26/56/214 40/57/215 25/55/216
f 25/55/217 40/57/218 39/53/219
f 15/52/220 38/50/221 23/58/222
f 23/58/223 38/50/224 40/59/225
f 23/58/226 40/59/227 26/60/228
f 36/45/229 66/61/230 35/46/231
f 35/46/232 66/61/233 67/62/234
f 67/62/235 68/63/236 35/46/237
f 35/46/238 68/63/239 37/49/240
f 68/63/241 69/64/242 37/49/243
f 37/49/244 69/64/245 38/50/246
f 39/53/247 65/65/248 36/45/249
f 36/45/250 65/65/251 66/61/252
f 69/64/253 70/66/254 38/50/255
f 38/50/256 70/66/257 40/59/258
f 40/57/259 70/67/260 39/53/261
f 39/53/262 70/67/263 65/65/264
f 42/68/265 48/69/266 41/70/267
f 41/70/268 48/69/269 47/71/270
f 41/70/271 47/71/272 43/72/273
f 43/72/274 47/71/275 49/73/276
f 49/73/277 50/74/278 43/72/279
f 43/72/280 50/74/281 44/75/282
f 51/76/283 48/69/284 45/77/285
f 45/77/286 48/69/287 42/68/288
f 44/75/289 50/74/290 46/78/291
f 46/78/292 50/74/293 52/79/294
f 52/80/295 51/76/296 46/81/297
f 46/81/298 51/76/299 45/77/300
f 48/82/301 54/19/302 47/83/303
f 47/83/304 54/19/305 53/20/306
f 53/20/307 55/18/308 47/83/309
f 47/83/310 55/18/311 49/84/312
f 55/18/313 56/17/314 49/84/315
f 49/84/316 56/17/317 50/85/318
f 57/34/319 54/19/320 51/86/321
f 51/86/322 54/19/323 48/87/324
f 50/85/325 56/17/326 52/88/327
f 52/88/328 56/17/329 58/35/330
f 52/88/331 58/35/332 51/86/333
f 51/86/334 58/35/335 57/34/336
f 45/77/337 42/68/338 59/89/339
f 59/89/340 42/68/341 60/90/342
f 61/91/343 60/90/344 41/70/345
f 41/70/346 60/90/347 42/68/348
f 62/92/349 61/91/350 43/72/351
f 43/72/352 61/91/353 41/70/354
f 63/93/355 62/92/356 44/75/357
f 44/75/358 62/92/359 43/72/360
f 63/93/361 44/75/362 64/94/363
f 64/94/364 44/75/365 46/78/366
f 64/95/367 46/81/368 59/89/369
f 59/89/370 46/81/371 45/77/372
f 65/65/373 59/89/374 66/61/375
f 66/61/376 59/89/377 60/90/378
f 66/61/379 60/90/380 67/62/381
f 67/62/382 60/90/383 61/91/384
f 68/63/385 67/62/386 62/92/387
f 62/92/388 67/62/389 61/91/390
f 68/63/391 62/92/392 69/64/393
f 69/64/394 62/92/395 63/93/396
f 70/66/397 69/64/398 64/94/399
f 64/94/400 69/64/401 63/93/402
f 70/67/403 64/95/404 65/65/405
f 65/65/406 64/95/407 59/89/408
