# This file uses centimeters as units for non-parametric coordinates.

mtllib StantlerFLLeg.mtl
g default
v -0.908186 -3.297365 1.705609
v 1.142088 -4.258957 1.888749
v -0.981483 -0.975885 2.510220
v 1.372789 -1.089260 2.183300
v -0.981483 -0.975885 -1.497535
v 1.372789 -1.089260 -1.497535
v -0.908186 -3.297365 -1.421163
v 1.142088 -4.258957 -1.421162
v -0.667790 -5.767306 -0.610603
v 1.214392 -5.522023 -0.610603
v 0.992165 -5.522023 1.574900
v -0.667790 -5.767306 1.574900
v -0.578655 -6.733630 -0.564209
v 1.073498 -6.680642 -0.564209
v 1.073498 -6.680642 1.238364
v -0.578655 -6.733630 1.238364
v -0.409127 -10.521697 -0.003389
v 0.660417 -10.528177 -0.003389
v 0.660418 -10.279078 1.356268
v -0.409127 -10.272598 1.356268
v -1.167760 0.141210 2.510220
v 0.288313 1.931314 2.510220
v 0.707416 1.360818 -1.497535
v -0.967826 0.141210 -1.497535
v -0.548403 -11.619842 0.834583
v 0.698249 -11.594011 0.642687
v 0.861826 -10.497606 1.416722
v -0.445374 -10.464118 1.504299
v -0.548403 -11.619842 2.783462
v 0.698249 -11.594011 2.762436
v 0.861826 -10.497606 1.506722
v -0.445374 -10.464118 1.594299
v -1.738869 0.549753 2.630428
v 0.017024 1.309748 2.630428
v 0.260017 0.472308 -1.377327
v -1.628268 0.549753 -1.377327
v -0.014726 -10.816066 0.174867
v 0.290574 -10.819072 0.174867
v 0.367056 -11.313490 0.474569
v -0.183004 -11.325473 0.563585
v -0.012947 -10.975870 0.238787
v 0.165763 -10.977789 0.238787
v 0.214585 -11.293404 0.246427
v -0.120368 -11.301053 0.248696
vt 0.328294 0.282429
vt 0.317528 0.317796
vt 0.277436 0.299888
vt 0.289202 0.329053
vt 0.297252 0.345097
vt 0.303499 0.348364
vt 0.294714 0.387144
vt 0.308008 0.366539
vt 0.340349 0.394811
vt 0.351462 0.343324
vt 0.398981 0.373481
vt 0.380843 0.316959
vt 0.876357 0.325403
vt 0.922870 0.317093
vt 0.898744 0.371801
vt 0.944571 0.363484
vt 0.217195 0.324769
vt 0.252819 0.370975
vt 0.435582 0.313308
vt 0.390493 0.290775
vt 0.332821 0.258529
vt 0.281897 0.247997
vt 0.221364 0.255099
vt 0.195775 0.256368
vt 0.192780 0.214765
vt 0.249619 0.231665
vt 0.229972 0.203974
vt 0.125915 0.263644
vt 0.123867 0.218559
vt 0.077469 0.251552
vt 0.082828 0.216386
vt 0.009563 0.238203
vt 0.017982 0.206518
vt 0.168084 0.079615
vt 0.196404 0.072592
vt 0.119538 0.087863
vt 0.091169 0.089798
vt 0.045747 0.078850
vt 0.294615 0.339721
vt 0.306823 0.346092
vt 0.315580 0.363006
vt 0.313750 0.390758
vt 0.276975 0.385060
vt 0.627528 0.717323
vt 0.630593 0.721367
vt 0.624131 0.718585
vt 0.625236 0.724242
vt 0.124014 0.073324
vt 0.150004 0.040773
vt 0.095348 0.080000
vt 0.074111 0.044573
vt 0.963868 0.320821
vt 0.932840 0.276831
vt 0.948001 0.367067
vt 0.897070 0.379690
vt 0.855272 0.382381
vt 0.196404 0.072592
vt 0.168084 0.079615
vt 0.150004 0.040773
vt 0.196703 0.022667
vt 0.196703 0.022667
vt 0.629317 0.712574
vt 0.622947 0.714973
vt 0.636330 0.721284
vt 0.618165 0.728866
vt 0.612602 0.721417
vt 0.620162 0.723561
vt 0.618305 0.719691
vt 0.620263 0.727788
vn -0.127037 -0.082608 0.988452
vn -0.006119 -0.205397 0.978660
vn -0.006119 -0.205397 0.978660
vn -0.006119 -0.205397 0.978660
vn -0.006119 -0.205397 0.978660
vn 0.114981 -0.322067 0.939709
vn -0.397191 0.917671 -0.010961
vn -0.183930 0.976796 -0.109723
vn -0.183930 0.976796 -0.109723
vn -0.183930 0.976796 -0.109723
vn -0.183930 0.976796 -0.109723
vn 0.040134 0.978554 -0.202041
vn -0.001586 -0.032930 -0.999456
vn -0.006255 -0.028112 -0.999585
vn -0.006255 -0.028112 -0.999585
vn -0.006255 -0.028112 -0.999585
vn -0.006255 -0.028112 -0.999585
vn -0.010924 -0.023292 -0.999669
vn -0.003109 0.717249 0.696810
vn 0.030191 0.733056 0.679498
vn 0.030191 0.733056 0.679498
vn 0.030191 0.733056 0.679498
vn 0.030191 0.733056 0.679498
vn 0.063442 0.747647 0.661059
vn 0.997362 -0.072592 0.000000
vn 0.997362 -0.072591 0.000000
vn 0.997362 -0.072591 0.000000
vn 0.997362 -0.072591 0.000000
vn 0.997362 -0.072591 0.000000
vn 0.997362 -0.072591 0.000000
vn -0.999502 -0.031557 0.000000
vn -0.999502 -0.031557 0.000000
vn -0.999502 -0.031557 0.000000
vn -0.999502 -0.031557 0.000000
vn -0.999502 -0.031557 0.000000
vn -0.999502 -0.031557 0.000000
vn -0.150767 -0.321461 -0.934843
vn -0.040996 -0.434351 -0.899810
vn -0.040996 -0.434351 -0.899810
vn -0.040996 -0.434351 -0.899810
vn -0.040996 -0.434351 -0.899810
vn 0.069843 -0.535939 -0.841363
vn 0.998366 0.057151 0.000000
vn 0.997822 -0.042580 0.050384
vn 0.997822 -0.042580 0.050384
vn 0.997822 -0.042580 0.050384
vn 0.997822 -0.042580 0.050384
vn 0.984820 -0.141779 0.100139
vn -0.118514 -0.063972 0.990889
vn -0.041451 -0.155621 0.986947
vn -0.041451 -0.155621 0.986947
vn -0.041451 -0.155621 0.986947
vn -0.041451 -0.155621 0.986947
vn 0.036208 -0.245036 0.968838
vn -0.995297 -0.096871 0.000000
vn -0.995297 -0.096871 0.000000
vn -0.995297 -0.096871 0.000000
vn -0.995297 -0.096871 0.000000
vn -0.995297 -0.096871 0.000000
vn -0.995297 -0.096871 0.000000
vn 0.005298 -0.040652 -0.999159
vn 0.003416 -0.044233 -0.999015
vn 0.003416 -0.044233 -0.999015
vn 0.003416 -0.044233 -0.999015
vn 0.003416 -0.044233 -0.999015
vn 0.001534 -0.047813 -0.998855
vn 0.994057 0.040422 0.101078
vn 0.997896 -0.040329 0.050769
vn 0.997896 -0.040329 0.050769
vn 0.997896 -0.040329 0.050769
vn 0.997896 -0.040329 0.050769
vn 0.992687 -0.120715 0.000000
vn 0.040792 -0.276061 0.960274
vn 0.025668 -0.302179 0.952906
vn 0.025668 -0.302179 0.952906
vn 0.025668 -0.302179 0.952906
vn 0.025668 -0.302179 0.952906
vn 0.010520 -0.328006 0.944617
vn -0.995773 -0.091852 0.000000
vn -0.995773 -0.091852 0.000000
vn -0.995773 -0.091852 0.000000
vn -0.995773 -0.091852 0.000000
vn -0.995773 -0.091852 0.000000
vn -0.995773 -0.091852 0.000000
vn 0.004642 -0.144723 -0.989461
vn 0.001877 -0.145608 -0.989341
vn 0.001877 -0.145608 -0.989341
vn 0.001877 -0.145608 -0.989341
vn 0.001877 -0.145608 -0.989341
vn -0.000888 -0.146492 -0.989211
vn 0.994286 -0.106749 0.000000
vn 0.993871 -0.110056 0.010383
vn 0.993871 -0.110056 0.010383
vn 0.993871 -0.110056 0.010383
vn 0.993871 -0.110056 0.010383
vn 0.993338 -0.113349 0.020766
vn -0.001054 0.032869 0.999459
vn -0.000426 0.033088 0.999452
vn -0.000426 0.033088 0.999452
vn -0.000426 0.033088 0.999452
vn -0.000426 0.033088 0.999452
vn 0.000201 0.033307 0.999445
vn -0.999000 -0.044708 0.000000
vn -0.998926 -0.046133 0.004356
vn -0.998926 -0.046133 0.004356
vn -0.998926 -0.046133 0.004356
vn -0.998926 -0.046133 0.004356
vn -0.998831 -0.047557 0.008713
vn 0.138598 0.023111 0.990079
vn 0.115302 -0.025763 0.992996
vn 0.115302 -0.025763 0.992996
vn 0.115302 -0.025763 0.992996
vn 0.115302 -0.025763 0.992996
vn 0.091667 -0.074562 0.992994
vn 0.965046 0.262080 0.000000
vn 0.954340 0.297623 0.025594
vn 0.954340 0.297623 0.025594
vn 0.954340 0.297623 0.025594
vn 0.954340 0.297623 0.025594
vn 0.941694 0.332562 0.051136
vn 0.000000 0.000000 -1.000000
vn 0.000000 0.000000 -1.000000
vn 0.000000 0.000000 -1.000000
vn 0.000000 0.000000 -1.000000
vn 0.000000 0.000000 -1.000000
vn 0.000000 0.000000 -1.000000
vn -0.999925 0.012224 0.000000
vn -0.996776 -0.076352 -0.024678
vn -0.996776 -0.076352 -0.024678
vn -0.996776 -0.076352 -0.024678
vn -0.996776 -0.076352 -0.024678
vn -0.985188 -0.164282 -0.049148
vn -0.000262 -0.024239 -0.999706
vn -0.003191 -0.026338 -0.999648
vn -0.003191 -0.026338 -0.999648
vn -0.003191 -0.026338 -0.999648
vn -0.003191 -0.026338 -0.999648
vn -0.006121 -0.028437 -0.999577
vn 0.746329 0.654680 -0.119943
vn 0.934945 0.326166 -0.139621
vn 0.934945 0.326166 -0.139621
vn 0.934945 0.326166 -0.139621
vn 0.934945 0.326166 -0.139621
vn 0.989036 -0.049279 -0.139211
vn 0.003702 0.611103 0.791543
vn 0.038124 0.475341 0.878975
vn 0.038124 0.475341 0.878975
vn 0.038124 0.475341 0.878975
vn 0.038124 0.475341 0.878975
vn 0.071507 0.326622 0.942446
vn -0.993662 0.110567 -0.020257
vn -0.991599 0.120611 -0.046745
vn -0.991599 0.120611 -0.046745
vn -0.991599 0.120611 -0.046745
vn -0.991599 0.120611 -0.046745
vn -0.988735 0.130557 -0.073194
vn 0.020716 -0.999785 0.000000
vn 0.020716 -0.999785 0.000000
vn 0.020716 -0.999785 0.000000
vn 0.020716 -0.999785 0.000000
vn 0.020716 -0.999785 0.000000
vn 0.020716 -0.999785 0.000000
vn 0.989053 -0.147561 0.000000
vn 0.989053 -0.147562 0.000000
vn 0.989053 -0.147562 0.000000
vn 0.989053 -0.147562 0.000000
vn 0.989053 -0.147564 0.000000
vn 0.989053 -0.147562 0.000000
vn 0.025610 0.999672 0.000000
vn 0.025610 0.999672 0.000000
vn 0.025610 0.999672 0.000000
vn 0.025610 0.999672 0.000000
vn 0.025610 0.999672 0.000000
vn 0.025610 0.999672 0.000000
vn -0.996050 0.088795 0.000000
vn -0.996050 0.088794 0.000000
vn -0.996050 0.088794 0.000000
vn -0.996050 0.088794 0.000000
vn -0.996050 0.088794 0.000000
vn -0.996050 0.088794 0.000000
vn 0.077808 -0.179767 0.980627
vn 0.678329 -0.707984 0.196543
vn 0.678329 -0.707984 0.196543
vn 0.678329 -0.707984 0.196543
vn 0.427937 -0.348088 -0.834089
vn 0.678329 -0.707984 0.196543
vn -0.890715 0.427672 -0.154023
vn -0.904548 0.401310 -0.144029
vn -0.904548 0.401310 -0.144029
vn -0.904548 0.401310 -0.144029
vn -0.904548 0.401310 -0.144029
vn -0.917488 0.374552 -0.133893
vn -0.150341 0.206507 0.966826
vn -0.262557 0.964593 0.024989
vn -0.262557 0.964593 0.024989
vn -0.262557 0.964593 0.024989
vn 0.012326 0.300538 -0.953690
vn -0.262557 0.964593 0.024989
vn -0.529363 -0.847984 -0.026408
vn -0.556978 -0.830255 -0.021274
vn -0.556978 -0.830255 -0.021274
vn -0.556978 -0.830255 -0.021274
vn -0.556978 -0.830255 -0.021274
vn -0.583978 -0.811609 -0.016116
vn -0.003157 -0.521074 -0.853506
vn -0.004128 -0.519419 -0.854510
vn -0.004128 -0.519419 -0.854510
vn -0.004128 -0.519419 -0.854510
vn -0.004128 -0.519419 -0.854510
vn -0.005098 -0.517763 -0.855509
vn -0.005124 -0.518496 -0.855065
vn -0.004545 -0.518655 -0.854972
vn -0.004545 -0.518655 -0.854972
vn -0.004545 -0.518655 -0.854972
vn -0.004545 -0.518655 -0.854972
vn -0.003965 -0.518814 -0.854878
vn -0.110122 -0.595736 -0.795595
vn -0.112135 -0.601073 -0.791288
vn -0.112135 -0.601073 -0.791288
vn -0.112135 -0.601073 -0.791288
vn -0.112135 -0.601073 -0.791288
vn -0.114142 -0.606379 -0.786941
vn -0.112618 -0.593708 -0.796761
vn -0.094271 -0.591420 -0.800834
vn -0.094271 -0.591420 -0.800834
vn -0.094271 -0.591420 -0.800834
vn -0.094271 -0.591420 -0.800834
vn -0.075890 -0.588920 -0.804620
vn -0.003653 -0.371092 -0.928589
vn -0.003822 -0.371253 -0.928524
vn -0.003822 -0.371253 -0.928524
vn -0.003822 -0.371253 -0.928524
vn -0.003822 -0.371253 -0.928524
vn -0.003990 -0.371414 -0.928459
vn 0.184382 -0.488467 -0.852879
vn 0.574295 -0.211168 -0.790945
vn 0.574295 -0.211168 -0.790945
vn 0.574295 -0.211168 -0.790945
vn 0.574295 -0.211168 -0.790945
vn 0.830534 0.115284 -0.544907
vn 0.006771 -0.995718 -0.092190
vn 0.014525 -0.996481 -0.082548
vn 0.014525 -0.996481 -0.082548
vn 0.014525 -0.996481 -0.082548
vn 0.014525 -0.996481 -0.082548
vn 0.022276 -0.997091 -0.072892
vn -0.701095 -0.271531 -0.659345
vn -0.893703 0.018242 -0.448288
vn -0.893703 0.018242 -0.448288
vn -0.893703 0.018242 -0.448288
vn -0.893703 0.018242 -0.448288
vn -0.938303 0.304995 -0.162988
s off
g leftFrontLeg
usemtl None
f 2/1/1 4/2/2 1/3/3
f 1/3/4 4/2/5 3/4/6
f 33/5/7 34/6/8 36/7/9
f 36/7/10 34/6/11 35/8/12
f 5/9/13 6/10/14 7/11/15
f 7/11/16 6/10/17 8/12/18
f 29/13/19 30/14/20 32/15/21
f 32/15/22 30/14/23 31/16/24
f 8/12/25 6/10/26 2/1/27
f 2/1/28 6/10/29 4/2/30
f 7/17/31 1/3/32 5/18/33
f 5/18/34 1/3/35 3/4/36
f 7/11/37 8/12/38 9/19/39
f 9/19/40 8/12/41 10/20/42
f 8/12/43 2/1/44 10/20/45
f 10/20/46 2/1/47 11/21/48
f 1/3/49 12/22/50 2/1/51
f 2/1/52 12/22/53 11/21/54
f 7/17/55 9/23/56 1/3/57
f 1/3/58 9/23/59 12/22/60
f 10/24/61 14/25/62 9/26/63
f 9/26/64 14/25/65 13/27/66
f 11/28/67 15/29/68 10/24/69
f 10/24/70 15/29/71 14/25/72
f 11/28/73 12/30/74 15/29/75
f 15/29/76 12/30/77 16/31/78
f 12/30/79 9/32/80 16/31/81
f 16/31/82 9/32/83 13/33/84
f 14/25/85 18/34/86 13/27/87
f 13/27/88 18/34/89 17/35/90
f 14/25/91 15/29/92 18/34/93
f 18/34/94 15/29/95 19/36/96
f 15/29/97 16/31/98 19/36/99
f 19/36/100 16/31/101 20/37/102
f 13/33/103 17/38/104 16/31/105
f 16/31/106 17/38/107 20/37/108
f 3/4/109 4/2/110 21/39/111
f 21/39/112 4/2/113 22/40/114
f 6/10/115 23/41/116 4/2/117
f 4/2/118 23/41/119 22/40/120
f 5/9/121 24/42/122 6/10/123
f 6/10/124 24/42/125 23/41/126
f 5/18/127 3/4/128 24/43/129
f 24/43/130 3/4/131 21/39/132
f 42/44/133 43/45/134 41/46/135
f 41/46/136 43/45/137 44/47/138
f 19/36/139 27/48/140 18/34/141
f 18/34/142 27/48/143 26/49/144
f 20/37/145 28/50/146 19/36/147
f 19/36/148 28/50/149 27/48/150
f 17/38/151 25/51/152 20/37/153
f 20/37/154 25/51/155 28/50/156
f 26/52/157 30/14/158 25/53/159
f 25/53/160 30/14/161 29/13/162
f 30/14/163 26/52/164 31/16/165
f 26/52/166 27/54/167 31/16/168
f 27/54/169 28/55/170 31/16/171
f 31/16/172 28/55/173 32/15/174
f 28/55/175 25/56/176 32/15/177
f 25/56/178 29/13/179 32/15/180
f 33/5/181 21/39/182 34/6/183
f 21/39/184 22/40/185 34/6/186
f 23/41/187 35/8/188 22/40/189
f 22/40/190 35/8/191 34/6/192
f 23/41/193 24/42/194 35/8/195
f 24/42/196 36/7/197 35/8/198
f 24/43/199 21/39/200 36/7/201
f 36/7/202 21/39/203 33/5/204
f 17/35/205 18/34/206 37/57/207
f 37/57/208 18/34/209 38/58/210
f 26/49/211 39/59/212 18/34/213
f 18/34/214 39/59/215 38/58/216
f 25/60/217 40/61/218 26/49/219
f 26/49/220 40/61/221 39/59/222
f 25/60/223 17/35/224 40/61/225
f 40/61/226 17/35/227 37/57/228
f 38/62/229 42/44/230 37/63/231
f 37/63/232 42/44/233 41/46/234
f 38/62/235 39/64/236 42/44/237
f 42/44/238 39/64/239 43/45/240
f 39/65/241 40/66/242 43/67/243
f 43/67/244 40/66/245 44/68/246
f 37/63/247 41/46/248 40/69/249
f 40/69/250 41/46/251 44/47/252
