# This file uses centimeters as units for non-parametric coordinates.

mtllib KrookodileTail4.mtl
g default
v -0.673600 0.612900 0.267861
v 0.000000 0.159300 -5.088640
v -0.952600 -0.060800 0.267861
v 0.000000 0.159300 -5.088640
v 0.673600 0.612900 0.267861
v 0.952600 -0.060800 0.267861
v -0.000000 0.891900 0.267861
v 0.673600 -0.734400 0.267861
v 0.000000 -1.013400 0.267861
v -0.952600 -0.060800 0.267861
v -0.673600 0.612900 0.267861
v -0.673600 -0.734400 0.267861
vt 0.467900 0.658500
vt 0.461200 0.584800
vt 0.457900 0.659800
vt 0.467900 0.658500
vt 0.457900 0.659800
vt 0.461200 0.584800
vt 0.478900 0.653600
vt 0.447700 0.658500
vt 0.432600 0.653600
vt 0.467900 0.658500
vt 0.447700 0.658500
vt 0.457900 0.659800
vt 0.447700 0.658500
vn -0.913845 0.378519 -0.147007
vn -0.913845 0.378519 -0.147007
vn -0.913845 0.378519 -0.147007
vn 0.913845 0.378519 -0.147007
vn 0.913845 0.378519 -0.147007
vn 0.913845 0.378519 -0.147007
vn 0.379690 0.916576 -0.125397
vn 0.379690 0.916576 -0.125397
vn 0.379690 0.916576 -0.125397
vn 0.375109 -0.905521 -0.198305
vn 0.375109 -0.905521 -0.198305
vn 0.375109 -0.905521 -0.198305
vn 0.909276 -0.376590 -0.177195
vn 0.909276 -0.376590 -0.177195
vn 0.909276 -0.376590 -0.177195
vn -0.379690 0.916576 -0.125397
vn -0.379690 0.916576 -0.125397
vn -0.379690 0.916576 -0.125397
vn -0.375109 -0.905521 -0.198305
vn -0.375109 -0.905521 -0.198305
vn -0.375109 -0.905521 -0.198305
vn -0.909276 -0.376590 -0.177195
vn -0.909276 -0.376590 -0.177195
vn -0.909276 -0.376590 -0.177195
s off
g Tail4
usemtl None
f 1/1/1 2/2/2 3/3/3
f 5/4/4 6/5/5 4/6/6
f 7/7/7 5/4/8 4/6/9
f 8/8/10 9/9/11 4/6/12
f 6/5/13 8/8/14 4/6/15
f 7/7/16 4/6/17 11/10/18
f 12/11/19 4/6/20 9/9/21
f 10/12/22 4/6/23 12/13/24
