# This file uses centimeters as units for non-parametric coordinates.

mtllib KrookodileLLeg.mtl
g default
v 2.137700 -9.249400 3.538000
v 2.586400 -9.249400 3.667700
v 2.495700 -9.249400 4.510700
v 2.586400 -8.538000 3.667700
v 2.274700 -8.852000 3.577600
v 3.035200 -9.249400 3.797400
v 2.898200 -8.852000 3.757800
v 2.796700 -9.249400 1.713000
v 2.796700 -8.210200 1.713000
v 3.238800 -8.582600 1.840800
v 3.345800 -9.249400 1.871700
v 2.247600 -9.249400 1.554300
v 2.354600 -8.582600 1.585200
v 3.161900 -9.249400 3.680000
v 3.617600 -9.249400 3.680000
v 3.617600 -9.249400 4.536000
v 3.617600 -8.538000 3.680000
v 3.301000 -8.852000 3.680000
v 4.073300 -9.249400 3.680000
v 3.934200 -8.852000 3.680000
v 3.617600 -9.249400 1.695100
v 3.617600 -8.210200 1.695100
v 4.066500 -8.582600 1.695100
v 4.175200 -9.249400 1.695100
v 3.060000 -9.249400 1.695100
v 3.168600 -8.582600 1.695100
v 4.144700 -9.249400 3.797400
v 4.593400 -9.249400 3.667700
v 4.684100 -9.249400 4.510700
v 4.593400 -8.538000 3.667700
v 4.281700 -8.852000 3.757800
v 5.042200 -9.249400 3.538000
v 4.905200 -8.852000 3.577600
v 4.383100 -9.249400 1.713000
v 4.383100 -8.210200 1.713000
v 4.825200 -8.582600 1.585200
v 4.932200 -9.249400 1.554300
v 3.834000 -9.249400 1.871700
v 3.941000 -8.582600 1.840800
v 5.879500 -7.752600 0.160900
v 4.723200 -7.752600 -2.842900
v 4.731600 -4.890600 -2.921900
v 6.033900 -4.890600 0.333000
v 2.410600 -7.752600 -2.842900
v 2.516000 -5.636800 -2.921900
v 1.356900 -7.752600 0.160900
v 1.177200 -6.366000 0.333000
v 2.267600 -7.752600 2.957100
v 2.341100 -5.636800 3.588000
v 4.866200 -7.752600 2.957100
v 4.731600 -4.890600 3.588000
v 4.363000 -2.469500 -2.905900
v 5.712300 -2.351500 0.364100
v 2.187000 -3.666600 -3.527700
v 0.019700 -5.326900 -0.453900
v 2.367000 -3.361000 3.634000
v 4.363000 -2.469500 3.634000
v 3.391900 0.336900 -2.734600
v 4.522500 0.748400 0.057100
v 1.410600 -2.334800 3.632100
v 3.030600 0.579100 3.064500
v 5.504600 -9.303100 -0.046600
v 4.535700 -9.303100 -2.476400
v 2.598100 -9.303100 -2.476400
v 1.629300 -9.303100 -0.046600
v 2.333500 -9.303100 2.383200
v 4.800300 -9.303100 2.383200
v -0.590400 -2.809900 -0.274600
v 0.732200 -1.796600 -2.150500
v 1.467600 0.646800 -1.666500
v 1.674100 1.223400 0.037300
v 0.258400 -0.983800 2.219100
v 1.247100 0.794500 1.872700
v -0.017900 -0.005500 0.006400
vt 0.245600 0.639800
vt 0.258100 0.636200
vt 0.255600 0.612600
vt 0.258100 0.636200
vt 0.249400 0.638700
vt 0.270600 0.632600
vt 0.266800 0.633700
vt 0.015700 0.005300
vt 0.015700 0.027400
vt 0.004600 0.027400
vt 0.004600 0.027400
vt 0.004600 0.005300
vt 0.015700 0.005300
vt 0.248600 0.695200
vt 0.251600 0.694300
vt 0.264000 0.690700
vt 0.279300 0.686300
vt 0.258100 0.636200
vt 0.026700 0.005300
vt 0.026700 0.027400
vt 0.015700 0.027400
vt 0.015700 0.027400
vt 0.015700 0.005300
vt 0.026700 0.005300
vt 0.287800 0.667500
vt 0.251000 0.677000
vt 0.247800 0.666200
vt 0.285600 0.659200
vt 0.276300 0.687200
vt 0.264000 0.690700
vt 0.258100 0.636200
vt 0.258100 0.636200
vt 0.274200 0.635800
vt 0.286900 0.635800
vt 0.286900 0.611900
vt 0.286900 0.635800
vt 0.278000 0.635800
vt 0.299600 0.635800
vt 0.295700 0.635800
vt 0.015700 0.005300
vt 0.015700 0.027400
vt 0.004600 0.027400
vt 0.004600 0.027400
vt 0.004600 0.005300
vt 0.015700 0.005300
vt 0.271300 0.691200
vt 0.274300 0.691200
vt 0.286900 0.691200
vt 0.302400 0.691200
vt 0.286900 0.635800
vt 0.026700 0.005300
vt 0.026700 0.027400
vt 0.015700 0.027400
vt 0.015700 0.027400
vt 0.015700 0.005300
vt 0.026700 0.005300
vt 0.286900 0.635800
vt 0.286900 0.691200
vt 0.286900 0.635800
vt 0.299400 0.691200
vt 0.286900 0.691200
vt 0.286900 0.635800
vt 0.286900 0.635800
vt 0.301600 0.632600
vt 0.314100 0.636200
vt 0.316600 0.612600
vt 0.314100 0.636200
vt 0.305400 0.633700
vt 0.326600 0.639800
vt 0.322800 0.638700
vt 0.015700 0.005300
vt 0.015700 0.027400
vt 0.004600 0.027400
vt 0.004600 0.005300
vt 0.292900 0.686300
vt 0.295900 0.687200
vt 0.308200 0.690700
vt 0.323600 0.695200
vt 0.314100 0.636200
vt 0.026700 0.005300
vt 0.026700 0.027400
vt 0.314100 0.636200
vt 0.308200 0.690700
vt 0.314100 0.636200
vt 0.320600 0.694300
vt 0.308200 0.690700
vt 0.314100 0.636200
vt 0.314100 0.636200
vt 0.627000 0.828100
vt 0.673200 0.829300
vt 0.674400 0.873200
vt 0.624300 0.871800
vt 0.701900 0.839400
vt 0.739100 0.839100
vt 0.737500 0.873200
vt 0.701900 0.885500
vt 0.852900 0.831200
vt 0.914300 0.839800
vt 0.914400 0.880300
vt 0.851400 0.873100
vt 0.975200 0.835500
vt 0.988600 0.878100
vt 0.769600 0.834400
vt 0.811900 0.834300
vt 0.809800 0.881700
vt 0.771000 0.869700
vt 0.584100 0.829200
vt 0.574400 0.873200
vt 0.674200 0.910700
vt 0.623900 0.911100
vt 0.743600 0.905800
vt 0.707800 0.924300
vt 0.838000 0.914600
vt 0.907300 0.925400
vt 0.989700 0.923900
vt 0.803900 0.921000
vt 0.771400 0.906600
vt 0.573700 0.910800
vt 0.671700 0.954800
vt 0.628700 0.959900
vt 0.987800 0.950800
vt 0.782100 0.969300
vt 0.755900 0.923200
vt 0.582600 0.958900
vt 0.630200 0.804700
vt 0.667600 0.805800
vt 0.704500 0.813900
vt 0.735700 0.813700
vt 0.861000 0.798900
vt 0.910500 0.806600
vt 0.963200 0.803500
vt 0.770500 0.808300
vt 0.810600 0.808300
vt 0.592900 0.805500
vt 0.644500 0.824000
vt 0.636700 0.824000
vt 0.634500 0.816300
vt 0.637500 0.808600
vt 0.643700 0.808600
vt 0.646800 0.816300
vt 0.723200 0.968900
vt 0.310400 0.082200
vt 0.383700 0.030100
vt 0.389400 0.066800
vt 0.344600 0.098700
vt 0.381700 0.196800
vt 0.324100 0.169900
vt 0.353000 0.152200
vt 0.389600 0.168100
vt 0.468800 0.108100
vt 0.441300 0.114500
vt 0.451600 0.179600
vt 0.430900 0.158100
vt 0.393900 0.124300
vn 0.000000 -1.000000 0.000000
vn 0.000000 -1.000000 0.000000
vn 0.000000 -1.000000 0.000000
vn -0.702702 0.579202 0.413201
vn -0.702702 0.579202 0.413201
vn -0.702702 0.579202 0.413201
vn 0.756284 0.317593 0.571988
vn 0.756284 0.317593 0.571988
vn 0.756284 0.317593 0.571988
vn 0.277599 0.000000 -0.960697
vn 0.277599 0.000000 -0.960697
vn 0.277599 0.000000 -0.960697
vn 0.277599 0.000000 -0.960697
vn 0.277599 0.000000 -0.960697
vn 0.277599 0.000000 -0.960697
vn -0.942501 0.330100 -0.052200
vn -0.942501 0.330100 -0.052200
vn -0.942501 0.330100 -0.052200
vn -0.987081 0.159197 -0.018100
vn -0.987081 0.159197 -0.018100
vn -0.987081 0.159197 -0.018100
vn 0.000000 -1.000000 0.000000
vn 0.000000 -1.000000 0.000000
vn 0.000000 -1.000000 0.000000
vn 0.000000 -1.000000 0.000000
vn 0.000000 -1.000000 0.000000
vn 0.000000 -1.000000 0.000000
vn 0.477682 0.645376 0.596078
vn 0.477682 0.645376 0.596078
vn 0.477682 0.645376 0.596078
vn 0.277599 0.000000 -0.960697
vn 0.277599 0.000000 -0.960697
vn 0.277599 0.000000 -0.960697
vn 0.277599 0.000000 -0.960697
vn 0.277599 0.000000 -0.960697
vn 0.277599 0.000000 -0.960697
vn 0.000000 -1.000000 0.000000
vn 0.000000 -1.000000 0.000000
vn 0.000000 -1.000000 0.000000
vn 0.000000 -1.000000 0.000000
vn 0.000000 -1.000000 0.000000
vn 0.000000 -1.000000 0.000000
vn -0.652703 0.755504 0.056500
vn -0.652703 0.755504 0.056500
vn -0.652703 0.755504 0.056500
vn -0.717313 0.693712 0.065001
vn -0.717313 0.693712 0.065001
vn -0.717313 0.693712 0.065001
vn 0.966982 0.164197 0.194896
vn 0.966982 0.164197 0.194896
vn 0.966982 0.164197 0.194896
vn 0.930019 0.335507 0.150003
vn 0.930019 0.335507 0.150003
vn 0.930019 0.335507 0.150003
vn -0.901510 0.277703 0.331904
vn -0.901510 0.277703 0.331904
vn -0.901510 0.277703 0.331904
vn 0.000000 -1.000000 0.000000
vn 0.000000 -1.000000 0.000000
vn 0.000000 -1.000000 0.000000
vn 0.598391 0.777188 0.194697
vn 0.598391 0.777188 0.194697
vn 0.598391 0.777188 0.194697
vn 0.660392 0.718491 0.218297
vn 0.660392 0.718491 0.218297
vn 0.660392 0.718491 0.218297
vn 0.000000 -1.000000 0.000000
vn 0.000000 -1.000000 0.000000
vn 0.000000 -1.000000 0.000000
vn -0.606424 0.611524 0.508220
vn -0.606424 0.611524 0.508220
vn -0.606424 0.611524 0.508220
vn 0.843372 0.295190 0.448985
vn 0.843372 0.295190 0.448985
vn 0.843372 0.295190 0.448985
vn 0.000000 0.000000 -1.000000
vn 0.000000 0.000000 -1.000000
vn 0.000000 0.000000 -1.000000
vn 0.000000 0.000000 -1.000000
vn 0.000000 0.000000 -1.000000
vn 0.000000 0.000000 -1.000000
vn -0.942746 0.329981 0.048397
vn -0.942746 0.329981 0.048397
vn -0.942746 0.329981 0.048397
vn -0.983216 0.160203 0.087301
vn -0.983216 0.160203 0.087301
vn -0.983216 0.160203 0.087301
vn 0.000000 -1.000000 0.000000
vn 0.000000 -1.000000 0.000000
vn 0.000000 -1.000000 0.000000
vn 0.000000 -1.000000 0.000000
vn 0.000000 -1.000000 0.000000
vn 0.000000 -1.000000 0.000000
vn 0.606424 0.611524 0.508220
vn 0.606424 0.611524 0.508220
vn 0.606424 0.611524 0.508220
vn 0.000000 0.000000 -1.000000
vn 0.000000 0.000000 -1.000000
vn 0.000000 0.000000 -1.000000
vn 0.000000 0.000000 -1.000000
vn 0.000000 0.000000 -1.000000
vn 0.000000 0.000000 -1.000000
vn 0.000000 -1.000000 0.000000
vn 0.000000 -1.000000 0.000000
vn 0.000000 -1.000000 0.000000
vn 0.000000 -1.000000 0.000000
vn 0.000000 -1.000000 0.000000
vn 0.000000 -1.000000 0.000000
vn -0.633391 0.763489 0.126098
vn -0.633391 0.763489 0.126098
vn -0.633391 0.763489 0.126098
vn -0.696995 0.702895 0.141899
vn -0.696995 0.702895 0.141899
vn -0.696995 0.702895 0.141899
vn 0.983216 0.160203 0.087301
vn 0.983216 0.160203 0.087301
vn 0.983216 0.160203 0.087301
vn 0.942746 0.329981 0.048397
vn 0.942746 0.329981 0.048397
vn 0.942746 0.329981 0.048397
vn -0.843372 0.295190 0.448985
vn -0.843372 0.295190 0.448985
vn -0.843372 0.295190 0.448985
vn 0.000000 -1.000000 0.000000
vn 0.000000 -1.000000 0.000000
vn 0.000000 -1.000000 0.000000
vn 0.633391 0.763489 0.126098
vn 0.633391 0.763489 0.126098
vn 0.633391 0.763489 0.126098
vn 0.696995 0.702895 0.141899
vn 0.696995 0.702895 0.141899
vn 0.696995 0.702895 0.141899
vn 0.000000 -1.000000 0.000000
vn 0.000000 -1.000000 0.000000
vn 0.000000 -1.000000 0.000000
vn -0.477682 0.645376 0.596078
vn -0.477682 0.645376 0.596078
vn -0.477682 0.645376 0.596078
vn 0.901510 0.277703 0.331904
vn 0.901510 0.277703 0.331904
vn 0.901510 0.277703 0.331904
vn -0.277599 0.000000 -0.960697
vn -0.277599 0.000000 -0.960697
vn -0.277599 0.000000 -0.960697
vn -0.277599 0.000000 -0.960697
vn -0.277599 0.000000 -0.960697
vn -0.277599 0.000000 -0.960697
vn -0.930019 0.335507 0.150003
vn -0.930019 0.335507 0.150003
vn -0.930019 0.335507 0.150003
vn -0.966982 0.164197 0.194896
vn -0.966982 0.164197 0.194896
vn -0.966982 0.164197 0.194896
vn 0.000000 -1.000000 0.000000
vn 0.000000 -1.000000 0.000000
vn 0.000000 -1.000000 0.000000
vn 0.000000 -1.000000 0.000000
vn 0.000000 -1.000000 0.000000
vn 0.000000 -1.000000 0.000000
vn 0.702702 0.579202 0.413201
vn 0.702702 0.579202 0.413201
vn 0.702702 0.579202 0.413201
vn -0.277599 0.000000 -0.960697
vn -0.277599 0.000000 -0.960697
vn -0.277599 0.000000 -0.960697
vn -0.277599 0.000000 -0.960697
vn -0.277599 0.000000 -0.960697
vn -0.277599 0.000000 -0.960697
vn 0.000000 -1.000000 0.000000
vn 0.000000 -1.000000 0.000000
vn 0.000000 -1.000000 0.000000
vn 0.000000 -1.000000 0.000000
vn 0.000000 -1.000000 0.000000
vn 0.000000 -1.000000 0.000000
vn -0.598391 0.777188 0.194697
vn -0.598391 0.777188 0.194697
vn -0.598391 0.777188 0.194697
vn -0.660392 0.718491 0.218297
vn -0.660392 0.718491 0.218297
vn -0.660392 0.718491 0.218297
vn 0.987081 0.159197 -0.018100
vn 0.987081 0.159197 -0.018100
vn 0.987081 0.159197 -0.018100
vn 0.942501 0.330100 -0.052200
vn 0.942501 0.330100 -0.052200
vn 0.942501 0.330100 -0.052200
vn -0.756284 0.317593 0.571988
vn -0.756284 0.317593 0.571988
vn -0.756284 0.317593 0.571988
vn 0.000000 -1.000000 0.000000
vn 0.000000 -1.000000 0.000000
vn 0.000000 -1.000000 0.000000
vn 0.652703 0.755504 0.056500
vn 0.652703 0.755504 0.056500
vn 0.652703 0.755504 0.056500
vn 0.717313 0.693712 0.065001
vn 0.717313 0.693712 0.065001
vn 0.717313 0.693712 0.065001
vn 0.933178 -0.012700 -0.359191
vn 0.933178 -0.012700 -0.359191
vn 0.933178 -0.012700 -0.359191
vn 0.928100 -0.027700 -0.371300
vn 0.928100 -0.027700 -0.371300
vn 0.928100 -0.027700 -0.371300
vn 0.000000 -0.037300 -0.999304
vn 0.000000 -0.037300 -0.999304
vn 0.000000 -0.037300 -0.999304
vn 0.009300 -0.027599 -0.999576
vn 0.009300 -0.027599 -0.999576
vn 0.009300 -0.027599 -0.999576
vn -0.940530 -0.081003 -0.329911
vn -0.940530 -0.081003 -0.329911
vn -0.940530 -0.081003 -0.329911
vn -0.926874 0.032199 -0.373989
vn -0.926874 0.032199 -0.373989
vn -0.926874 0.032199 -0.373989
vn -0.949187 -0.059199 0.309096
vn -0.949187 -0.059199 0.309096
vn -0.949187 -0.059199 0.309096
vn -0.916625 -0.164105 0.364510
vn -0.916625 -0.164105 0.364510
vn -0.916625 -0.164105 0.364510
vn 0.000000 -0.215289 0.976550
vn 0.000000 -0.215289 0.976550
vn 0.000000 -0.215289 0.976550
vn 0.089700 -0.287400 0.953601
vn 0.089700 -0.287400 0.953601
vn 0.089700 -0.287400 0.953601
vn 0.937812 -0.071001 0.339804
vn 0.937812 -0.071001 0.339804
vn 0.937812 -0.071001 0.339804
vn 0.927772 -0.038199 0.371189
vn 0.927772 -0.038199 0.371189
vn 0.927772 -0.038199 0.371189
vn 0.918981 0.142397 -0.367692
vn 0.918981 0.142397 -0.367692
vn 0.918981 0.142397 -0.367692
vn 0.916083 0.120698 -0.382393
vn 0.916083 0.120698 -0.382393
vn 0.916083 0.120698 -0.382393
vn 0.093704 -0.278211 -0.955938
vn 0.093704 -0.278211 -0.955938
vn 0.093704 -0.278211 -0.955938
vn 0.251600 0.044700 -0.966799
vn 0.251600 0.044700 -0.966799
vn 0.251600 0.044700 -0.966799
vn -0.866614 -0.273104 -0.417607
vn -0.866614 -0.273104 -0.417607
vn -0.866614 -0.273104 -0.417607
vn -0.270502 -0.754307 -0.598205
vn -0.270502 -0.754307 -0.598205
vn -0.270502 -0.754307 -0.598205
vn -0.941890 0.004000 0.335897
vn -0.941890 0.004000 0.335897
vn -0.941890 0.004000 0.335897
vn -0.723681 -0.360190 0.588684
vn -0.723681 -0.360190 0.588684
vn -0.723681 -0.360190 0.588684
vn 0.005700 -0.018200 0.999818
vn 0.005700 -0.018200 0.999818
vn 0.005700 -0.018200 0.999818
vn 0.009100 -0.020299 0.999753
vn 0.009100 -0.020299 0.999753
vn 0.009100 -0.020299 0.999753
vn 0.922583 0.112298 0.369093
vn 0.922583 0.112298 0.369093
vn 0.922583 0.112298 0.369093
vn 0.914603 0.132000 0.382201
vn 0.914603 0.132000 0.382201
vn 0.914603 0.132000 0.382201
vn 0.870396 0.323798 -0.370898
vn 0.870396 0.323798 -0.370898
vn 0.870396 0.323798 -0.370898
vn 0.869809 0.294703 -0.395704
vn 0.869809 0.294703 -0.395704
vn 0.869809 0.294703 -0.395704
vn -0.586363 -0.545365 0.598962
vn -0.586363 -0.545365 0.598962
vn -0.586363 -0.545365 0.598962
vn -0.068797 0.154093 0.985658
vn -0.068797 0.154093 0.985658
vn -0.068797 0.154093 0.985658
vn 0.127605 0.120805 0.984441
vn 0.127605 0.120805 0.984441
vn 0.127605 0.120805 0.984441
vn 0.855973 0.364788 0.366388
vn 0.855973 0.364788 0.366388
vn 0.855973 0.364788 0.366388
vn 0.799755 0.428129 0.420829
vn 0.799755 0.428129 0.420829
vn 0.799755 0.428129 0.420829
vn 0.918867 -0.174894 -0.353687
vn 0.918867 -0.174894 -0.353687
vn 0.918867 -0.174894 -0.353687
vn 0.910869 -0.195993 -0.363187
vn 0.910869 -0.195993 -0.363187
vn 0.910869 -0.195993 -0.363187
vn 0.000000 -0.229998 -0.973191
vn 0.000000 -0.229998 -0.973191
vn 0.000000 -0.229998 -0.973191
vn 0.000000 -0.229998 -0.973191
vn 0.000000 -0.229998 -0.973191
vn 0.000000 -0.229998 -0.973191
vn -0.926618 -0.188904 -0.325106
vn -0.926618 -0.188904 -0.325106
vn -0.926618 -0.188904 -0.325106
vn -0.922939 -0.112905 -0.368016
vn -0.922939 -0.112905 -0.368016
vn -0.922939 -0.112905 -0.368016
vn -0.930811 -0.204102 0.303204
vn -0.930811 -0.204102 0.303204
vn -0.930811 -0.204102 0.303204
vn -0.950696 -0.142399 0.275499
vn -0.950696 -0.142399 0.275499
vn -0.950696 -0.142399 0.275499
vn 0.000000 -0.347109 0.937825
vn 0.000000 -0.347109 0.937825
vn 0.000000 -0.347109 0.937825
vn 0.000000 -0.347109 0.937825
vn 0.000000 -0.347109 0.937825
vn 0.000000 -0.347109 0.937825
vn 0.927477 -0.163796 0.336092
vn 0.927477 -0.163796 0.336092
vn 0.927477 -0.163796 0.336092
vn 0.927387 -0.260196 0.268796
vn 0.927387 -0.260196 0.268796
vn 0.927387 -0.260196 0.268796
vn 0.000000 -1.000000 0.000000
vn 0.000000 -1.000000 0.000000
vn 0.000000 -1.000000 0.000000
vn 0.000000 -1.000000 0.000000
vn 0.000000 -1.000000 0.000000
vn 0.000000 -1.000000 0.000000
vn 0.000000 -1.000000 0.000000
vn 0.000000 -1.000000 0.000000
vn 0.000000 -1.000000 0.000000
vn 0.000000 -1.000000 0.000000
vn 0.000000 -1.000000 0.000000
vn 0.000000 -1.000000 0.000000
vn 0.205509 0.130306 -0.969942
vn 0.205509 0.130306 -0.969942
vn 0.205509 0.130306 -0.969942
vn -0.770972 -0.142695 -0.620677
vn -0.770972 -0.142695 -0.620677
vn -0.770972 -0.142695 -0.620677
vn -0.770972 -0.142695 -0.620677
vn -0.770972 -0.142695 -0.620677
vn -0.770972 -0.142695 -0.620677
vn 0.063598 0.983269 -0.170695
vn 0.063598 0.983269 -0.170695
vn 0.063598 0.983269 -0.170695
vn 0.157300 0.929499 -0.333600
vn 0.157300 0.929499 -0.333600
vn 0.157300 0.929499 -0.333600
vn -0.851979 -0.239694 0.465488
vn -0.851979 -0.239694 0.465488
vn -0.851979 -0.239694 0.465488
vn -0.851979 -0.239694 0.465488
vn -0.851979 -0.239694 0.465488
vn -0.851979 -0.239694 0.465488
vn -0.470794 0.413595 0.779290
vn -0.470794 0.413595 0.779290
vn -0.470794 0.413595 0.779290
vn -0.470794 0.413595 0.779290
vn -0.470794 0.413595 0.779290
vn -0.470794 0.413595 0.779290
vn 0.162009 0.977455 0.135408
vn 0.162009 0.977455 0.135408
vn 0.162009 0.977455 0.135408
vn -0.029799 0.974866 0.220792
vn -0.029799 0.974866 0.220792
vn -0.029799 0.974866 0.220792
vn -0.426286 0.297490 -0.854272
vn -0.426286 0.297490 -0.854272
vn -0.426286 0.297490 -0.854272
vn -0.426286 0.297490 -0.854272
vn -0.426286 0.297490 -0.854272
vn -0.426286 0.297490 -0.854272
vn -0.849317 0.221404 -0.479209
vn -0.849317 0.221404 -0.479209
vn -0.849317 0.221404 -0.479209
vn -0.573485 0.794579 -0.199395
vn -0.573485 0.794579 -0.199395
vn -0.573485 0.794579 -0.199395
vn -0.963985 0.176897 0.198597
vn -0.963985 0.176897 0.198597
vn -0.963985 0.176897 0.198597
vn -0.798707 0.507104 0.323903
vn -0.798707 0.507104 0.323903
vn -0.798707 0.507104 0.323903
vn -0.587477 0.807569 0.051998
vn -0.587477 0.807569 0.051998
vn -0.587477 0.807569 0.051998
vn -0.765240 0.338718 -0.547429
vn -0.765240 0.338718 -0.547429
vn -0.765240 0.338718 -0.547429
s off
g LLeg
usemtl None
f 1/1/1 2/2/2 3/3/3
f 3/3/4 4/4/5 5/5/6
f 3/3/7 6/6/8 7/7/9
f 8/8/10 9/9/11 10/10/12
f 10/11/13 11/12/14 8/13/15
f 12/14/16 1/1/17 5/5/18
f 5/5/19 13/15/20 12/14/21
f 8/16/22 11/17/23 6/6/24
f 6/6/25 2/2/26 8/16/27
f 3/3/28 7/7/29 4/18/30
f 12/19/31 13/20/32 9/21/33
f 9/22/34 8/23/35 12/24/36
f 1/1/37 12/14/38 8/16/39
f 8/16/40 2/2/41 1/1/42
f 4/25/43 9/26/44 13/27/45
f 13/27/46 5/28/47 4/25/48
f 11/17/49 10/29/50 7/7/51
f 7/7/52 6/6/53 11/17/54
f 1/1/55 3/3/56 5/5/57
f 6/6/58 3/3/59 2/2/60
f 10/29/61 9/30/62 4/31/63
f 4/32/64 7/7/65 10/29/66
f 14/33/67 15/34/68 16/35/69
f 16/35/70 17/36/71 18/37/72
f 16/35/73 19/38/74 20/39/75
f 21/40/76 22/41/77 23/42/78
f 23/43/79 24/44/80 21/45/81
f 25/46/82 14/33/83 18/37/84
f 18/37/85 26/47/86 25/46/87
f 21/48/88 24/49/89 19/38/90
f 19/38/91 15/34/92 21/48/93
f 16/35/94 20/39/95 17/50/96
f 25/51/97 26/52/98 22/53/99
f 22/54/100 21/55/101 25/56/102
f 14/33/103 25/46/104 21/48/105
f 21/48/106 15/34/107 14/33/108
f 17/57/109 22/58/110 26/47/111
f 26/47/112 18/37/113 17/59/114
f 24/49/115 23/60/116 20/39/117
f 20/39/118 19/38/119 24/49/120
f 14/33/121 16/35/122 18/37/123
f 19/38/124 16/35/125 15/34/126
f 23/60/127 22/61/128 17/62/129
f 17/63/130 20/39/131 23/60/132
f 27/64/133 28/65/134 29/66/135
f 29/66/136 30/67/137 31/68/138
f 29/66/139 32/69/140 33/70/141
f 34/71/142 35/72/143 36/73/144
f 36/73/145 37/74/146 34/71/147
f 38/75/148 27/64/149 31/68/150
f 31/68/151 39/76/152 38/75/153
f 34/77/154 37/78/155 32/69/156
f 32/69/157 28/65/158 34/77/159
f 29/66/160 33/70/161 30/79/162
f 38/80/163 39/81/164 35/72/165
f 35/72/166 34/71/167 38/80/168
f 27/64/169 38/75/170 34/77/171
f 34/77/172 28/65/173 27/64/174
f 30/82/175 35/83/176 39/76/177
f 39/76/178 31/68/179 30/84/180
f 37/78/181 36/85/182 33/70/183
f 33/70/184 32/69/185 37/78/186
f 27/64/187 29/66/188 31/68/189
f 32/69/190 29/66/191 28/65/192
f 36/85/193 35/86/194 30/87/195
f 30/88/196 33/70/197 36/85/198
f 40/89/199 41/90/200 42/91/201
f 42/91/202 43/92/203 40/89/204
f 41/93/205 44/94/206 45/95/207
f 45/95/208 42/96/209 41/93/210
f 44/97/211 46/98/212 47/99/213
f 47/99/214 45/100/215 44/97/216
f 46/98/217 48/101/218 49/102/219
f 49/102/220 47/99/221 46/98/222
f 48/103/223 50/104/224 51/105/225
f 51/105/226 49/106/227 48/103/228
f 50/107/229 40/89/230 43/92/231
f 43/92/232 51/108/233 50/107/234
f 43/92/235 42/91/236 52/109/237
f 52/109/238 53/110/239 43/92/240
f 42/96/241 45/95/242 54/111/243
f 54/111/244 52/112/245 42/96/246
f 54/113/247 45/100/248 47/99/249
f 47/99/250 55/114/251 54/113/252
f 47/99/253 49/102/254 56/115/255
f 56/115/256 55/114/257 47/99/258
f 49/106/259 51/105/260 57/116/261
f 57/116/262 56/117/263 49/106/264
f 51/108/265 43/92/266 53/110/267
f 53/110/268 57/118/269 51/108/270
f 53/110/271 52/109/272 58/119/273
f 58/119/274 59/120/275 53/110/276
f 55/114/277 56/115/278 60/121/279
f 56/117/280 57/116/281 61/122/282
f 61/122/283 60/123/284 56/117/285
f 57/118/286 53/110/287 59/120/288
f 59/120/289 61/124/290 57/118/291
f 41/90/292 40/89/293 62/125/294
f 62/125/295 63/126/296 41/90/297
f 44/94/298 41/93/299 63/127/300
f 63/127/301 64/128/302 44/94/303
f 46/98/304 44/97/305 64/129/306
f 64/129/307 65/130/308 46/98/309
f 48/101/310 46/98/311 65/130/312
f 65/130/313 66/131/314 48/101/315
f 50/104/316 48/103/317 66/132/318
f 66/132/319 67/133/320 50/104/321
f 40/89/322 50/107/323 67/134/324
f 67/134/325 62/125/326 40/89/327
f 67/135/328 66/136/329 65/137/330
f 65/137/331 64/138/332 63/139/333
f 67/135/334 65/137/335 63/139/336
f 62/140/337 67/135/338 63/139/339
f 52/112/340 54/111/341 58/141/342
f 54/142/343 55/143/344 68/144/345
f 68/144/346 69/145/347 54/142/348
f 59/146/349 58/147/350 70/148/351
f 70/148/352 71/149/353 59/146/354
f 55/143/355 60/150/356 72/151/357
f 72/151/358 68/144/359 55/143/360
f 60/150/361 61/152/362 73/153/363
f 73/153/364 72/151/365 60/150/366
f 61/152/367 59/146/368 71/149/369
f 71/149/370 73/153/371 61/152/372
f 58/147/373 54/142/374 69/145/375
f 69/145/376 70/148/377 58/147/378
f 69/145/379 68/144/380 74/154/381
f 71/149/382 70/148/383 74/154/384
f 68/144/385 72/151/386 74/154/387
f 72/151/388 73/153/389 74/154/390
f 73/153/391 71/149/392 74/154/393
f 70/148/394 69/145/395 74/154/396
