# This file uses centimeters as units for non-parametric coordinates.

mtllib KrookodileBody.mtl
g default
v 4.399200 8.869000 -5.793900
v 5.129100 5.485600 -5.509000
v 0.000000 9.990200 -6.734700
v 3.842300 3.476900 -4.857600
v 0.000000 2.397200 -4.937800
v 0.000000 13.008100 -4.254600
v 4.840200 12.080500 -3.270200
v 4.269700 3.976200 0.266100
v 5.660600 6.968300 4.352100
v 0.000000 6.064900 4.934500
v 0.000000 2.333900 -0.310300
v 6.845100 12.600700 0.812100
v 3.275300 17.422001 -1.644900
v 4.631900 17.422001 0.929400
v 0.000000 17.422001 -2.711200
v 0.000000 11.791500 6.467700
v 5.424000 11.820800 4.899100
v 3.650800 17.422001 3.503700
v 0.000000 17.422001 4.807700
v 1.944600 22.035299 -1.267500
v 2.750100 22.035299 0.444400
v 0.000000 22.035299 -1.976600
v 1.944600 22.035299 2.156200
v 0.000000 22.035299 2.865300
v 6.437000 5.636600 -2.807700
v 8.772500 10.051600 0.777100
v 7.641900 9.640100 -2.014600
v 7.280600 9.882200 3.784500
v -5.129100 5.485600 -5.509000
v -4.399200 8.869000 -5.793900
v -3.842300 3.476900 -4.857600
v -4.840200 12.080500 -3.270200
v -4.269700 3.976200 0.266100
v -5.660600 6.968300 4.352100
v -6.845100 12.600700 0.812100
v -4.631900 17.422001 0.929400
v -3.275300 17.422001 -1.644900
v -3.650800 17.422001 3.503700
v -5.424000 11.820800 4.899100
v -2.750100 22.035299 0.444400
v -1.944600 22.035299 -1.267500
v -1.944600 22.035299 2.156200
v -6.437000 5.636600 -2.807700
v -8.772500 10.051600 0.777100
v -7.641900 9.640100 -2.014600
v -7.280600 9.882200 3.784500
v -2.509300 14.888300 -2.666300
v -2.902400 17.896999 -1.530500
v -2.019800 18.911900 -6.046200
v -1.563700 20.425501 -1.581200
v -1.261000 17.646799 -1.599900
v 2.509300 14.888300 -2.666300
v 2.019800 18.911900 -6.046200
v 2.902400 17.896999 -1.530500
v 1.563700 20.425501 -1.581200
v 1.261000 17.646799 -1.599900
v 3.537800 8.931800 -5.699800
v 2.955400 15.045400 -7.897900
v 3.846900 12.527400 -3.195100
v 2.432900 15.775300 -2.351800
v 2.203900 12.303000 -3.325700
v -3.537800 8.931800 -5.699800
v -3.846900 12.527400 -3.195100
v -2.955400 15.045400 -7.897900
v -2.432900 15.775300 -2.351800
v -2.203900 12.303000 -3.325700
vt 0.306300 0.855300
vt 0.252800 0.860800
vt 0.239000 0.803100
vt 0.295100 0.795400
vt 0.114900 0.597200
vt 0.127000 0.676700
vt 0.039300 0.665600
vt 0.050700 0.567400
vt 0.176400 0.771500
vt 0.182200 0.871600
vt 0.144800 0.847000
vt 0.201300 0.905200
vt 0.038900 0.756500
vt 0.126000 0.752400
vt 0.110800 0.843000
vt 0.051400 0.845800
vt 0.147300 0.935800
vt 0.122500 0.920300
vt 0.159700 0.956100
vt 0.098300 0.919400
vt 0.064800 0.921500
vt 0.130300 0.518500
vt 0.167400 0.519700
vt 0.170700 0.565300
vt 0.191700 0.724900
vt 0.234600 0.743800
vt 0.153300 0.720700
vt 0.072200 0.499700
vt 0.292700 0.735200
vt 0.320700 0.760000
vt 0.295100 0.795400
vt 0.239000 0.803100
vt 0.239000 0.803100
vt 0.114900 0.597200
vt 0.127000 0.676700
vt 0.114900 0.597200
vt 0.176400 0.771500
vt 0.144800 0.847000
vt 0.182200 0.871600
vt 0.182200 0.871600
vt 0.239000 0.803100
vt 0.176400 0.771500
vt 0.239000 0.803100
vt 0.182200 0.871600
vt 0.239000 0.803100
vt 0.110800 0.843000
vt 0.110800 0.843000
vt 0.126000 0.752400
vt 0.126000 0.752400
vt 0.110800 0.843000
vt 0.144800 0.847000
vt 0.144800 0.847000
vt 0.176400 0.771500
vt 0.126000 0.752400
vt 0.144800 0.847000
vt 0.122500 0.920300
vt 0.147300 0.935800
vt 0.147300 0.935800
vt 0.182200 0.871600
vt 0.144800 0.847000
vt 0.182200 0.871600
vt 0.147300 0.935800
vt 0.182200 0.871600
vt 0.098300 0.919400
vt 0.098300 0.919400
vt 0.110800 0.843000
vt 0.110800 0.843000
vt 0.098300 0.919400
vt 0.122500 0.920300
vt 0.122500 0.920300
vt 0.144800 0.847000
vt 0.110800 0.843000
vt 0.126000 0.752400
vt 0.127000 0.676700
vt 0.126000 0.752400
vt 0.114900 0.597200
vt 0.170700 0.565300
vt 0.167400 0.519700
vt 0.167400 0.519700
vt 0.130300 0.518500
vt 0.114900 0.597200
vt 0.191700 0.724900
vt 0.176400 0.771500
vt 0.239000 0.803100
vt 0.239000 0.803100
vt 0.234600 0.743800
vt 0.191700 0.724900
vt 0.127000 0.676700
vt 0.126000 0.752400
vt 0.153300 0.720700
vt 0.153300 0.720700
vt 0.126000 0.752400
vt 0.176400 0.771500
vt 0.176400 0.771500
vt 0.191700 0.724900
vt 0.153300 0.720700
vt 0.130300 0.518500
vt 0.114900 0.597200
vt 0.130300 0.518500
vt 0.234600 0.743800
vt 0.239000 0.803100
vt 0.295100 0.795400
vt 0.295100 0.795400
vt 0.292700 0.735200
vt 0.234600 0.743800
vt 0.292700 0.735200
vt 0.295100 0.795400
vt 0.320700 0.760000
vt 0.669500 0.681600
vt 0.596300 0.671800
vt 0.598500 0.778500
vt 0.596300 0.671800
vt 0.532300 0.683700
vt 0.598500 0.778500
vt 0.669500 0.681600
vt 0.598500 0.778500
vt 0.596300 0.671800
vt 0.596300 0.671800
vt 0.598500 0.778500
vt 0.532300 0.683700
vt 0.669500 0.681600
vt 0.598500 0.778500
vt 0.596300 0.671800
vt 0.596300 0.671800
vt 0.598500 0.778500
vt 0.532300 0.683700
vt 0.669500 0.681600
vt 0.596300 0.671800
vt 0.598500 0.778500
vt 0.596300 0.671800
vt 0.532300 0.683700
vt 0.598500 0.778500
vt 0.669500 0.681600
vt 0.598500 0.778500
vt 0.596300 0.671800
vt 0.596300 0.671800
vt 0.598500 0.778500
vt 0.532300 0.683700
vt 0.669500 0.681600
vt 0.596300 0.671800
vt 0.598500 0.778500
vt 0.596300 0.671800
vt 0.532300 0.683700
vt 0.598500 0.778500
vt 0.669500 0.681600
vt 0.596300 0.671800
vt 0.598500 0.778500
vt 0.596300 0.671800
vt 0.532300 0.683700
vt 0.598500 0.778500
vt 0.669500 0.681600
vt 0.598500 0.778500
vt 0.596300 0.671800
vt 0.596300 0.671800
vt 0.598500 0.778500
vt 0.532300 0.683700
vt 0.828139 0.648615
vt 0.833601 0.644389
vt 0.835335 0.650261
vt 0.822880 0.662768
vt 0.813873 0.662541
vt 0.824687 0.648486
vt 0.826540 0.652857
vt 0.832813 0.659384
vt 0.832686 0.653667
vt 0.830409 0.670048
vt 0.828137 0.663141
vt 0.824987 0.655260
vn 0.268595 0.611590 -0.744187
vn 0.268595 0.611590 -0.744187
vn 0.268595 0.611590 -0.744187
vn 0.307391 0.561483 -0.768276
vn 0.307391 0.561483 -0.768276
vn 0.307391 0.561483 -0.768276
vn 0.186605 -0.821824 0.538316
vn 0.186605 -0.821824 0.538316
vn 0.186605 -0.821824 0.538316
vn 0.228900 -0.793202 0.564301
vn 0.228900 -0.793202 0.564301
vn 0.228900 -0.793202 0.564301
vn 0.812675 0.374088 -0.446786
vn 0.812675 0.374088 -0.446786
vn 0.812675 0.374088 -0.446786
vn 0.816416 0.385208 -0.430209
vn 0.816416 0.385208 -0.430209
vn 0.816416 0.385208 -0.430209
vn 0.247310 0.319812 -0.914636
vn 0.247310 0.319812 -0.914636
vn 0.247310 0.319812 -0.914636
vn 0.289391 0.355189 -0.888872
vn 0.289391 0.355189 -0.888872
vn 0.289391 0.355189 -0.888872
vn 0.262510 0.310712 0.913535
vn 0.262510 0.310712 0.913535
vn 0.262510 0.310712 0.913535
vn 0.324105 0.267504 0.907413
vn 0.324105 0.267504 0.907413
vn 0.324105 0.267504 0.907413
vn 0.848495 0.380598 0.367698
vn 0.848495 0.380598 0.367698
vn 0.848495 0.380598 0.367698
vn 0.872186 0.358894 0.332395
vn 0.872186 0.358894 0.332395
vn 0.872186 0.358894 0.332395
vn 0.848907 0.281402 -0.447404
vn 0.848907 0.281402 -0.447404
vn 0.848907 0.281402 -0.447404
vn 0.860699 0.308500 -0.405000
vn 0.860699 0.308500 -0.405000
vn 0.860699 0.308500 -0.405000
vn 0.306087 0.149694 -0.940161
vn 0.306087 0.149694 -0.940161
vn 0.306087 0.149694 -0.940161
vn 0.337409 0.173005 -0.925324
vn 0.337409 0.173005 -0.925324
vn 0.337409 0.173005 -0.925324
vn 0.312402 0.371003 0.874507
vn 0.312402 0.371003 0.874507
vn 0.312402 0.371003 0.874507
vn 0.318606 0.367807 0.873618
vn 0.318606 0.367807 0.873618
vn 0.318606 0.367807 0.873618
vn 0.861987 0.386094 0.328495
vn 0.861987 0.386094 0.328495
vn 0.861987 0.386094 0.328495
vn 0.822363 0.417181 0.386883
vn 0.822363 0.417181 0.386883
vn 0.822363 0.417181 0.386883
vn 0.270305 -0.249005 0.930017
vn 0.270305 -0.249005 0.930017
vn 0.270305 -0.249005 0.930017
vn 0.118405 -0.105505 0.987344
vn 0.118405 -0.105505 0.987344
vn 0.118405 -0.105505 0.987344
vn 0.839375 -0.543284 -0.017099
vn 0.839375 -0.543284 -0.017099
vn 0.839375 -0.543284 -0.017099
vn 0.441986 -0.881773 -0.164695
vn 0.441986 -0.881773 -0.164695
vn 0.441986 -0.881773 -0.164695
vn 0.698787 0.610388 -0.372993
vn 0.698787 0.610388 -0.372993
vn 0.698787 0.610388 -0.372993
vn 0.719782 0.549987 -0.423590
vn 0.719782 0.549987 -0.423590
vn 0.719782 0.549987 -0.423590
vn 0.451917 -0.078103 0.888634
vn 0.451917 -0.078103 0.888634
vn 0.451917 -0.078103 0.888634
vn 0.735186 0.550390 0.395693
vn 0.735186 0.550390 0.395693
vn 0.735186 0.550390 0.395693
vn 0.768133 0.524523 0.367216
vn 0.768133 0.524523 0.367216
vn 0.768133 0.524523 0.367216
vn 0.351011 -0.934330 0.061802
vn 0.351011 -0.934330 0.061802
vn 0.351011 -0.934330 0.061802
vn 0.270786 -0.962549 -0.013199
vn 0.270786 -0.962549 -0.013199
vn 0.270786 -0.962549 -0.013199
vn 0.765227 -0.104504 -0.635222
vn 0.765227 -0.104504 -0.635222
vn 0.765227 -0.104504 -0.635222
vn 0.647402 0.414001 -0.639902
vn 0.647402 0.414001 -0.639902
vn 0.647402 0.414001 -0.639902
vn 0.885885 0.154297 -0.437493
vn 0.885885 0.154297 -0.437493
vn 0.885885 0.154297 -0.437493
vn -0.307391 0.561483 -0.768276
vn -0.307391 0.561483 -0.768276
vn -0.307391 0.561483 -0.768276
vn -0.268595 0.611590 -0.744187
vn -0.268595 0.611590 -0.744187
vn -0.268595 0.611590 -0.744187
vn -0.228900 -0.793202 0.564301
vn -0.228900 -0.793202 0.564301
vn -0.228900 -0.793202 0.564301
vn -0.186605 -0.821824 0.538316
vn -0.186605 -0.821824 0.538316
vn -0.186605 -0.821824 0.538316
vn -0.816416 0.385208 -0.430209
vn -0.816416 0.385208 -0.430209
vn -0.816416 0.385208 -0.430209
vn -0.812675 0.374088 -0.446786
vn -0.812675 0.374088 -0.446786
vn -0.812675 0.374088 -0.446786
vn -0.289391 0.355189 -0.888872
vn -0.289391 0.355189 -0.888872
vn -0.289391 0.355189 -0.888872
vn -0.247310 0.319812 -0.914636
vn -0.247310 0.319812 -0.914636
vn -0.247310 0.319812 -0.914636
vn -0.324105 0.267504 0.907413
vn -0.324105 0.267504 0.907413
vn -0.324105 0.267504 0.907413
vn -0.262510 0.310712 0.913535
vn -0.262510 0.310712 0.913535
vn -0.262510 0.310712 0.913535
vn -0.872186 0.358894 0.332395
vn -0.872186 0.358894 0.332395
vn -0.872186 0.358894 0.332395
vn -0.848495 0.380598 0.367698
vn -0.848495 0.380598 0.367698
vn -0.848495 0.380598 0.367698
vn -0.860699 0.308500 -0.405000
vn -0.860699 0.308500 -0.405000
vn -0.860699 0.308500 -0.405000
vn -0.848907 0.281402 -0.447404
vn -0.848907 0.281402 -0.447404
vn -0.848907 0.281402 -0.447404
vn -0.337409 0.173005 -0.925324
vn -0.337409 0.173005 -0.925324
vn -0.337409 0.173005 -0.925324
vn -0.306087 0.149694 -0.940161
vn -0.306087 0.149694 -0.940161
vn -0.306087 0.149694 -0.940161
vn -0.318606 0.367807 0.873618
vn -0.318606 0.367807 0.873618
vn -0.318606 0.367807 0.873618
vn -0.312402 0.371003 0.874507
vn -0.312402 0.371003 0.874507
vn -0.312402 0.371003 0.874507
vn -0.822363 0.417181 0.386883
vn -0.822363 0.417181 0.386883
vn -0.822363 0.417181 0.386883
vn -0.861987 0.386094 0.328495
vn -0.861987 0.386094 0.328495
vn -0.861987 0.386094 0.328495
vn -0.118405 -0.105505 0.987344
vn -0.118405 -0.105505 0.987344
vn -0.118405 -0.105505 0.987344
vn -0.270305 -0.249005 0.930017
vn -0.270305 -0.249005 0.930017
vn -0.270305 -0.249005 0.930017
vn -0.441986 -0.881773 -0.164695
vn -0.441986 -0.881773 -0.164695
vn -0.441986 -0.881773 -0.164695
vn -0.839375 -0.543284 -0.017099
vn -0.839375 -0.543284 -0.017099
vn -0.839375 -0.543284 -0.017099
vn -0.719782 0.549987 -0.423590
vn -0.719782 0.549987 -0.423590
vn -0.719782 0.549987 -0.423590
vn -0.698787 0.610388 -0.372993
vn -0.698787 0.610388 -0.372993
vn -0.698787 0.610388 -0.372993
vn -0.451917 -0.078103 0.888634
vn -0.451917 -0.078103 0.888634
vn -0.451917 -0.078103 0.888634
vn -0.768133 0.524523 0.367216
vn -0.768133 0.524523 0.367216
vn -0.768133 0.524523 0.367216
vn -0.735186 0.550390 0.395693
vn -0.735186 0.550390 0.395693
vn -0.735186 0.550390 0.395693
vn -0.270786 -0.962549 -0.013199
vn -0.270786 -0.962549 -0.013199
vn -0.270786 -0.962549 -0.013199
vn -0.351011 -0.934330 0.061802
vn -0.351011 -0.934330 0.061802
vn -0.351011 -0.934330 0.061802
vn -0.647402 0.414001 -0.639902
vn -0.647402 0.414001 -0.639902
vn -0.647402 0.414001 -0.639902
vn -0.765227 -0.104504 -0.635222
vn -0.765227 -0.104504 -0.635222
vn -0.765227 -0.104504 -0.635222
vn -0.885885 0.154297 -0.437493
vn -0.885885 0.154297 -0.437493
vn -0.885885 0.154297 -0.437493
vn -0.977896 -0.051300 -0.202699
vn -0.977896 -0.051300 -0.202699
vn -0.977896 -0.051300 -0.202699
vn -0.882291 0.465795 -0.067799
vn -0.882291 0.465795 -0.067799
vn -0.882291 0.465795 -0.067799
vn 0.915151 -0.318718 -0.246814
vn 0.915151 -0.318718 -0.246814
vn 0.915151 -0.318718 -0.246814
vn 0.984616 0.108202 -0.137202
vn 0.984616 0.108202 -0.137202
vn 0.984616 0.108202 -0.137202
vn 0.977896 -0.051300 -0.202699
vn 0.977896 -0.051300 -0.202699
vn 0.977896 -0.051300 -0.202699
vn 0.882291 0.465795 -0.067799
vn 0.882291 0.465795 -0.067799
vn 0.882291 0.465795 -0.067799
vn -0.915151 -0.318718 -0.246814
vn -0.915151 -0.318718 -0.246814
vn -0.915151 -0.318718 -0.246814
vn -0.984616 0.108202 -0.137202
vn -0.984616 0.108202 -0.137202
vn -0.984616 0.108202 -0.137202
vn 0.985061 0.033099 -0.168993
vn 0.985061 0.033099 -0.168993
vn 0.985061 0.033099 -0.168993
vn 0.919631 0.391213 0.035101
vn 0.919631 0.391213 0.035101
vn 0.919631 0.391213 0.035101
vn -0.945562 -0.186092 -0.266989
vn -0.945562 -0.186092 -0.266989
vn -0.945562 -0.186092 -0.266989
vn -0.989860 0.094896 -0.105696
vn -0.989860 0.094896 -0.105696
vn -0.989860 0.094896 -0.105696
vn -0.985061 0.033099 -0.168993
vn -0.985061 0.033099 -0.168993
vn -0.985061 0.033099 -0.168993
vn -0.919631 0.391213 0.035101
vn -0.919631 0.391213 0.035101
vn -0.919631 0.391213 0.035101
vn 0.945562 -0.186092 -0.266989
vn 0.945562 -0.186092 -0.266989
vn 0.945562 -0.186092 -0.266989
vn 0.989860 0.094896 -0.105696
vn 0.989860 0.094896 -0.105696
vn 0.989860 0.094896 -0.105696
vn -0.757372 -0.622282 0.197871
vn -0.848338 -0.504116 0.161830
vn -0.893211 -0.414615 0.173976
vn -0.886571 -0.454701 0.085082
vn -0.673232 -0.737723 -0.050235
vn -0.834346 -0.387488 0.392072
vn 0.757372 -0.622282 0.197871
vn 0.893211 -0.414615 0.173976
vn 0.848338 -0.504116 0.161830
vn 0.886571 -0.454701 0.085082
vn 0.673232 -0.737723 -0.050235
vn 0.834346 -0.387488 0.392072
s off
g Body
usemtl None
f 3/1/1 6/2/2 7/3/3
f 7/3/4 1/4/5 3/1/6
f 8/5/7 9/6/8 10/7/9
f 10/7/10 11/8/11 8/5/12
f 12/9/13 7/3/14 13/10/15
f 13/10/16 14/11/17 12/9/18
f 7/3/19 6/2/20 15/12/21
f 15/12/22 13/10/23 7/3/24
f 16/13/25 17/14/26 18/15/27
f 18/15/28 19/16/29 16/13/30
f 17/14/31 12/9/32 14/11/33
f 14/11/34 18/15/35 17/14/36
f 14/11/37 13/10/38 20/17/39
f 20/17/40 21/18/41 14/11/42
f 13/10/43 15/12/44 22/19/45
f 22/19/46 20/17/47 13/10/48
f 19/16/49 18/15/50 23/20/51
f 23/20/52 24/21/53 19/16/54
f 18/15/55 14/11/56 21/18/57
f 21/18/58 23/20/59 18/15/60
f 17/14/61 16/13/62 10/7/63
f 10/7/64 9/6/65 17/14/66
f 8/5/67 4/22/68 2/23/69
f 2/23/70 25/24/71 8/5/72
f 26/25/73 27/26/74 7/3/75
f 7/3/76 12/9/77 26/25/78
f 9/6/79 28/27/80 17/14/81
f 28/27/82 26/25/83 12/9/84
f 12/9/85 17/14/86 28/27/87
f 4/22/88 8/5/89 11/8/90
f 11/8/91 5/28/92 4/22/93
f 27/26/94 25/29/95 1/4/96
f 1/4/97 7/3/98 27/26/99
f 25/29/100 2/30/101 1/4/102
f 3/1/103 30/31/104 32/32/105
f 32/33/106 6/2/107 3/1/108
f 33/34/109 11/8/110 10/7/111
f 10/7/112 34/35/113 33/36/114
f 35/37/115 36/38/116 37/39/117
f 37/40/118 32/41/119 35/42/120
f 32/43/121 37/44/122 15/12/123
f 15/12/124 6/2/125 32/45/126
f 16/13/127 19/16/128 38/46/129
f 38/47/130 39/48/131 16/13/132
f 39/49/133 38/50/134 36/51/135
f 36/52/136 35/53/137 39/54/138
f 36/55/139 40/56/140 41/57/141
f 41/58/142 37/59/143 36/60/144
f 37/61/145 41/62/146 22/19/147
f 22/19/148 15/12/149 37/63/150
f 19/16/151 24/21/152 42/64/153
f 42/65/154 38/66/155 19/16/156
f 38/67/157 42/68/158 40/69/159
f 40/70/160 36/71/161 38/72/162
f 39/73/163 34/74/164 10/7/165
f 10/7/166 16/13/167 39/75/168
f 33/76/169 43/77/170 29/78/171
f 29/79/172 31/80/173 33/81/174
f 44/82/175 35/83/176 32/84/177
f 32/85/178 45/86/179 44/87/180
f 34/88/181 39/89/182 46/90/183
f 46/91/184 39/92/185 35/93/186
f 35/94/187 44/95/188 46/96/189
f 31/97/190 5/28/191 11/8/192
f 11/8/193 33/98/194 31/99/195
f 45/100/196 32/101/197 30/102/198
f 30/103/199 43/104/200 45/105/201
f 43/106/202 30/107/203 29/108/204
f 47/109/205 48/110/206 49/111/207
f 48/112/208 50/113/209 49/114/210
f 47/115/211 49/116/212 51/117/213
f 51/118/214 49/119/215 50/120/216
f 52/121/217 53/122/218 54/123/219
f 54/124/220 53/125/221 55/126/222
f 52/127/223 56/128/224 53/129/225
f 56/130/226 55/131/227 53/132/228
f 57/133/229 58/134/230 59/135/231
f 59/136/232 58/137/233 60/138/234
f 57/139/235 61/140/236 58/141/237
f 61/142/238 60/143/239 58/144/240
f 62/145/241 63/146/242 64/147/243
f 63/148/244 65/149/245 64/150/246
f 62/151/247 64/152/248 66/153/249
f 66/154/250 64/155/251 65/156/252
s 1
f 33/160/253 34/161/254 43/159/255
f 43/159/255 34/161/254 45/158/256
f 45/158/256 34/161/254 44/157/257
f 44/157/257 34/161/254 46/162/258
s 2
f 8/168/259 25/163/260 9/167/261
f 25/163/260 27/164/262 9/167/261
f 27/164/262 26/165/263 9/167/261
f 26/165/263 28/166/264 9/167/261
