# This file uses centimeters as units for non-parametric coordinates.

mtllib KrookodileLArm.mtl
g default
v 1.795400 -0.698601 -0.826600
v 1.497600 -1.309900 0.222500
v 0.229100 -1.520300 0.177500
v -0.051000 -0.877300 -1.302400
v 2.236000 0.218300 -0.847500
v -0.611100 0.655701 -1.436500
v 2.236000 0.801901 -0.014100
v -0.891200 1.545799 -0.090700
v 1.795400 0.468599 0.840400
v -0.611100 0.902901 1.389200
v 1.497600 -0.726299 1.056000
v -0.051000 -0.630100 1.523300
v 5.755000 -3.168000 1.195800
v 5.215500 -3.305600 1.788600
v 6.294600 -2.563900 1.269200
v 6.294600 -2.097400 1.935400
v 5.755000 -2.235100 2.528200
v 5.215500 -2.839100 2.454800
v 6.335400 -4.011100 2.277000
v 5.553900 -3.724100 2.478600
v 7.018000 -3.504500 2.382300
v 6.919100 -2.710900 2.689200
v 6.048300 -2.434200 2.890800
v 5.430700 -2.987000 2.785500
v 6.835200 -5.190300 5.848700
v 6.126300 -4.930100 6.031600
v 7.454300 -4.730800 5.944200
v 7.364600 -4.011000 6.222600
v 6.655800 -3.750800 6.405500
v 6.036600 -4.210300 6.310000
v 6.295800 -6.737800 6.717800
v 5.666500 -6.545800 6.807800
v 7.152200 -6.359300 6.842000
v 7.960100 -5.668700 7.069300
v 8.740400 -4.357800 7.342900
v 8.798000 -4.945800 7.117300
v 6.818900 -3.545200 7.979200
v 7.814500 -3.894700 7.702000
v 5.556900 -3.552500 8.027800
v 5.982900 -3.292200 8.154700
v 5.500500 -5.695300 7.168200
v 5.334600 -4.385000 7.663500
v 9.224100 -5.259500 8.455900
v 8.694600 -5.678100 8.409000
v 8.640000 -4.634800 8.759000
v 9.197100 -4.916300 8.586800
v 5.730800 -3.740200 9.837900
v 6.469900 -3.948000 9.641500
v 5.484800 -4.584200 9.459700
v 5.401700 -3.941300 9.739800
v 6.839700 -7.373900 8.307600
v 6.238700 -7.812400 8.187700
v 5.829800 -7.685800 8.254400
v 5.738800 -6.968200 8.529300
v 8.015300 -5.772300 9.923100
v 8.265600 -5.274900 8.760900
v 7.775600 -4.852500 7.552100
v 6.660600 -5.148100 10.327000
v 6.236500 -4.482700 9.438600
v 6.335100 -4.282100 7.921500
v 6.741400 -6.706300 9.775900
v 6.525500 -6.860800 8.505000
v 6.583300 -5.856100 7.277300
vt 0.686600 0.120200
vt 0.674700 0.078300
vt 0.624000 0.080100
vt 0.612800 0.139300
vt 0.704200 0.121100
vt 0.590400 0.144600
vt 0.704200 0.087800
vt 0.579200 0.090800
vt 0.686600 0.053600
vt 0.590400 0.031700
vt 0.674700 0.045000
vt 0.612800 0.026300
vt 0.875100 0.110100
vt 0.871600 0.076500
vt 0.757200 0.069800
vt 0.745600 0.117100
vt 0.878900 0.117200
vt 0.742600 0.126100
vt 0.879200 0.090700
vt 0.742900 0.092900
vt 0.875700 0.057100
vt 0.746300 0.050700
vt 0.871900 0.050000
vt 0.757600 0.036600
vt 0.828700 0.206200
vt 0.803600 0.173700
vt 0.776900 0.204200
vt 0.782000 0.252600
vt 0.840400 0.218400
vt 0.787400 0.262800
vt 0.827200 0.198100
vt 0.787800 0.224700
vt 0.799700 0.163300
vt 0.782700 0.176300
vt 0.790600 0.152800
vt 0.777300 0.166000
vt 0.966500 0.242800
vt 0.965500 0.209500
vt 0.870600 0.214300
vt 0.871700 0.251100
vt 0.967800 0.257300
vt 0.873200 0.267000
vt 0.968100 0.238400
vt 0.873500 0.246200
vt 0.967100 0.205100
vt 0.872000 0.206200
vt 0.965700 0.190600
vt 0.871200 0.193500
vt 0.657100 0.361500
vt 0.639000 0.358900
vt 0.652200 0.381300
vt 0.672600 0.386600
vt 0.681800 0.357900
vt 0.690500 0.383800
vt 0.705100 0.351400
vt 0.727600 0.343500
vt 0.729200 0.350000
vt 0.687900 0.375800
vt 0.672200 0.325100
vt 0.700900 0.333100
vt 0.667500 0.370500
vt 0.635800 0.323700
vt 0.648100 0.320100
vt 0.649600 0.373300
vt 0.634200 0.348500
vt 0.629400 0.334200
vt 0.741500 0.311400
vt 0.726300 0.312800
vt 0.724700 0.302700
vt 0.740700 0.307600
vt 0.640800 0.271600
vt 0.662100 0.277200
vt 0.633700 0.282500
vt 0.631300 0.274400
vt 0.672800 0.315700
vt 0.655500 0.319100
vt 0.643700 0.317200
vt 0.641000 0.309300
vt 0.489600 0.571700
vt 0.504100 0.570400
vt 0.470900 0.530100
vt 0.503400 0.566800
vt 0.488100 0.562100
vt 0.477800 0.562000
vt 0.699800 0.337500
vt 0.713900 0.302600
vt 0.428500 0.537800
vt 0.408200 0.532400
vt 0.433700 0.519000
vt 0.399100 0.535100
vt 0.401400 0.542800
vt 0.422100 0.543400
vt 0.658200 0.326800
vt 0.655400 0.283100
vt 0.422100 0.577800
vt 0.438600 0.574500
vt 0.435900 0.534100
vt 0.408400 0.568400
vt 0.410900 0.575900
vt 0.430000 0.569000
vt 0.665400 0.345400
vt 0.663700 0.310000
vn 0.160990 -0.871948 -0.462373
vn 0.160990 -0.871948 -0.462373
vn 0.160990 -0.871948 -0.462373
vn 0.194400 -0.885699 -0.421600
vn 0.194400 -0.885699 -0.421600
vn 0.194400 -0.885699 -0.421600
vn 0.260207 -0.146804 -0.954327
vn 0.260207 -0.146804 -0.954327
vn 0.260207 -0.146804 -0.954327
vn 0.200695 -0.012400 -0.979575
vn 0.200695 -0.012400 -0.979575
vn 0.200695 -0.012400 -0.979575
vn 0.237498 0.795693 -0.557195
vn 0.237498 0.795693 -0.557195
vn 0.237498 0.795693 -0.557195
vn 0.211101 0.834904 -0.508303
vn 0.211101 0.834904 -0.508303
vn 0.211101 0.834904 -0.508303
vn 0.197203 0.874612 0.442906
vn 0.197203 0.874612 0.442906
vn 0.197203 0.874612 0.442906
vn 0.242706 0.905722 0.347508
vn 0.242706 0.905722 0.347508
vn 0.242706 0.905722 0.347508
vn 0.240390 0.113995 0.963960
vn 0.240390 0.113995 0.963960
vn 0.240390 0.113995 0.963960
vn 0.294493 0.189496 0.936678
vn 0.294493 0.189496 0.936678
vn 0.294493 0.189496 0.936678
vn 0.121402 -0.813111 0.569308
vn 0.121402 -0.813111 0.569308
vn 0.121402 -0.813111 0.569308
vn 0.115495 -0.817262 0.564574
vn 0.115495 -0.817262 0.564574
vn 0.115495 -0.817262 0.564574
vn -0.270895 -0.853684 -0.444792
vn -0.270895 -0.853684 -0.444792
vn -0.270895 -0.853684 -0.444792
vn -0.230901 -0.810703 -0.538002
vn -0.230901 -0.810703 -0.538002
vn -0.230901 -0.810703 -0.538002
vn 0.345609 -0.197205 -0.917423
vn 0.345609 -0.197205 -0.917423
vn 0.345609 -0.197205 -0.917423
vn 0.349298 -0.188799 -0.917794
vn 0.349298 -0.188799 -0.917794
vn 0.349298 -0.188799 -0.917794
vn 0.652308 0.620907 -0.434705
vn 0.652308 0.620907 -0.434705
vn 0.652308 0.620907 -0.434705
vn 0.652308 0.620907 -0.434705
vn 0.652308 0.620907 -0.434705
vn 0.652308 0.620907 -0.434705
vn 0.336590 0.802476 0.492685
vn 0.336590 0.802476 0.492685
vn 0.336590 0.802476 0.492685
vn 0.340208 0.803319 0.488812
vn 0.340208 0.803319 0.488812
vn 0.340208 0.803319 0.488812
vn -0.298101 0.151700 0.942403
vn -0.298101 0.151700 0.942403
vn -0.298101 0.151700 0.942403
vn -0.226989 0.227489 0.946955
vn -0.226989 0.227489 0.946955
vn -0.226989 0.227489 0.946955
vn -0.563076 -0.676971 0.473980
vn -0.563076 -0.676971 0.473980
vn -0.563076 -0.676971 0.473980
vn -0.563076 -0.676971 0.473980
vn -0.563076 -0.676971 0.473980
vn -0.563076 -0.676971 0.473980
vn -0.398705 -0.857710 -0.324604
vn -0.398705 -0.857710 -0.324604
vn -0.398705 -0.857710 -0.324604
vn -0.311495 -0.823187 -0.474693
vn -0.311495 -0.823187 -0.474693
vn -0.311495 -0.823187 -0.474693
vn 0.500196 -0.531896 -0.683294
vn 0.500196 -0.531896 -0.683294
vn 0.500196 -0.531896 -0.683294
vn 0.561827 -0.414820 -0.715734
vn 0.561827 -0.414820 -0.715734
vn 0.561827 -0.414820 -0.715734
vn 0.894817 0.253605 -0.367407
vn 0.894817 0.253605 -0.367407
vn 0.894817 0.253605 -0.367407
vn 0.831494 0.455097 -0.318598
vn 0.831494 0.455097 -0.318598
vn 0.831494 0.455097 -0.318598
vn 0.359716 0.847039 0.391318
vn 0.359716 0.847039 0.391318
vn 0.359716 0.847039 0.391318
vn 0.168806 0.915132 0.366113
vn 0.168806 0.915132 0.366113
vn 0.168806 0.915132 0.366113
vn -0.540805 0.471604 0.696506
vn -0.540805 0.471604 0.696506
vn -0.540805 0.471604 0.696506
vn -0.621608 0.479906 0.619108
vn -0.621608 0.479906 0.619108
vn -0.621608 0.479906 0.619108
vn -0.853688 -0.315296 0.414494
vn -0.853688 -0.315296 0.414494
vn -0.853688 -0.315296 0.414494
vn -0.909121 -0.341208 0.238906
vn -0.909121 -0.341208 0.238906
vn -0.909121 -0.341208 0.238906
vn -0.388502 -0.889805 -0.239401
vn -0.388502 -0.889805 -0.239401
vn -0.388502 -0.889805 -0.239401
vn -0.388502 -0.889805 -0.239401
vn -0.388502 -0.889805 -0.239401
vn -0.388502 -0.889805 -0.239401
vn 0.595295 -0.734493 -0.325797
vn 0.595295 -0.734493 -0.325797
vn 0.595295 -0.734493 -0.325797
vn 0.595295 -0.734493 -0.325797
vn 0.595295 -0.734493 -0.325797
vn 0.595295 -0.734493 -0.325797
vn 0.986300 0.149700 -0.069300
vn 0.986300 0.149700 -0.069300
vn 0.986300 0.149700 -0.069300
vn 0.986300 0.149700 -0.069300
vn 0.986300 0.149700 -0.069300
vn 0.986300 0.149700 -0.069300
vn 0.392889 0.877975 0.273492
vn 0.392889 0.877975 0.273492
vn 0.392889 0.877975 0.273492
vn 0.348480 0.895949 0.275384
vn 0.348480 0.895949 0.275384
vn 0.348480 0.895949 0.275384
vn -0.589709 0.717511 0.370705
vn -0.589709 0.717511 0.370705
vn -0.589709 0.717511 0.370705
vn -0.657912 0.669213 0.345407
vn -0.657912 0.669213 0.345407
vn -0.657912 0.669213 0.345407
vn -0.979989 -0.165098 0.111199
vn -0.979989 -0.165098 0.111199
vn -0.979989 -0.165098 0.111199
vn -0.975687 -0.200197 0.089199
vn -0.975687 -0.200197 0.089199
vn -0.975687 -0.200197 0.089199
vn -0.239907 -0.364111 -0.899927
vn -0.239907 -0.364111 -0.899927
vn -0.239907 -0.364111 -0.899927
vn -0.354994 -0.360694 -0.862485
vn -0.354994 -0.360694 -0.862485
vn -0.354994 -0.360694 -0.862485
vn 0.476599 -0.490599 -0.729498
vn 0.476599 -0.490599 -0.729498
vn 0.476599 -0.490599 -0.729498
vn 0.587867 -0.471473 -0.657363
vn 0.587867 -0.471473 -0.657363
vn 0.587867 -0.471473 -0.657363
vn 0.650683 0.326691 -0.685482
vn 0.650683 0.326691 -0.685482
vn 0.650683 0.326691 -0.685482
vn 0.643452 0.344574 -0.683549
vn 0.643452 0.344574 -0.683549
vn 0.643452 0.344574 -0.683549
vn 0.286497 0.944389 -0.161398
vn 0.286497 0.944389 -0.161398
vn 0.286497 0.944389 -0.161398
vn 0.305197 0.939689 -0.154398
vn 0.305197 0.939689 -0.154398
vn 0.305197 0.939689 -0.154398
vn -0.400184 0.836966 -0.373285
vn -0.400184 0.836966 -0.373285
vn -0.400184 0.836966 -0.373285
vn -0.495219 0.756129 -0.427816
vn -0.495219 0.756129 -0.427816
vn -0.495219 0.756129 -0.427816
vn -0.889266 0.058898 -0.453583
vn -0.889266 0.058898 -0.453583
vn -0.889266 0.058898 -0.453583
vn -0.891496 0.062500 -0.448698
vn -0.891496 0.062500 -0.448698
vn -0.891496 0.062500 -0.448698
vn 0.352512 -0.548618 -0.758125
vn 0.352512 -0.548618 -0.758125
vn 0.352512 -0.548618 -0.758125
vn 0.503497 -0.538697 -0.675497
vn 0.503497 -0.538697 -0.675497
vn 0.503497 -0.538697 -0.675497
vn 0.380499 0.905698 -0.186900
vn 0.380499 0.905698 -0.186900
vn 0.380499 0.905698 -0.186900
vn 0.257092 0.954470 -0.151295
vn 0.257092 0.954470 -0.151295
vn 0.257092 0.954470 -0.151295
vn -0.836628 0.391213 -0.383413
vn -0.836628 0.391213 -0.383413
vn -0.836628 0.391213 -0.383413
vn -0.883080 0.026199 -0.468490
vn -0.883080 0.026199 -0.468490
vn -0.883080 0.026199 -0.468490
vn 0.602380 -0.724376 -0.335289
vn 0.602380 -0.724376 -0.335289
vn 0.602380 -0.724376 -0.335289
vn 0.621036 -0.695841 -0.360721
vn 0.621036 -0.695841 -0.360721
vn 0.621036 -0.695841 -0.360721
vn 0.490506 0.848011 0.200703
vn 0.490506 0.848011 0.200703
vn 0.490506 0.848011 0.200703
vn 0.499283 0.842971 0.200293
vn 0.499283 0.842971 0.200293
vn 0.499283 0.842971 0.200293
vn 0.949348 0.174509 -0.261313
vn 0.949348 0.174509 -0.261313
vn 0.949348 0.174509 -0.261313
vn 0.945969 0.192694 -0.260791
vn 0.945969 0.192694 -0.260791
vn 0.945969 0.192694 -0.260791
vn 0.329187 0.899564 0.287089
vn 0.329187 0.899564 0.287089
vn 0.329187 0.899564 0.287089
vn 0.332301 0.897902 0.288701
vn 0.332301 0.897902 0.288701
vn 0.332301 0.897902 0.288701
vn -0.990813 -0.081001 -0.108301
vn -0.990813 -0.081001 -0.108301
vn -0.990813 -0.081001 -0.108301
vn -0.971295 0.213499 0.104899
vn -0.971295 0.213499 0.104899
vn -0.971295 0.213499 0.104899
vn -0.546011 0.826317 0.138103
vn -0.546011 0.826317 0.138103
vn -0.546011 0.826317 0.138103
vn -0.546011 0.826317 0.138103
vn -0.546011 0.826317 0.138103
vn -0.546011 0.826317 0.138103
vn 0.580383 -0.667981 -0.465787
vn 0.580383 -0.667981 -0.465787
vn 0.580383 -0.667981 -0.465787
vn 0.414287 -0.787276 -0.456686
vn 0.414287 -0.787276 -0.456686
vn 0.414287 -0.787276 -0.456686
vn -0.989131 -0.141204 0.041001
vn -0.989131 -0.141204 0.041001
vn -0.989131 -0.141204 0.041001
vn -0.983368 -0.179094 -0.030199
vn -0.983368 -0.179094 -0.030199
vn -0.983368 -0.179094 -0.030199
vn -0.327096 -0.759792 -0.561894
vn -0.327096 -0.759792 -0.561894
vn -0.327096 -0.759792 -0.561894
vn -0.313514 -0.760734 -0.568325
vn -0.313514 -0.760734 -0.568325
vn -0.313514 -0.760734 -0.568325
vn 0.593300 -0.774900 0.218000
vn 0.593300 -0.774900 0.218000
vn 0.593300 -0.774900 0.218000
vn 0.473684 0.489283 0.732275
vn 0.473684 0.489283 0.732275
vn 0.473684 0.489283 0.732275
vn 0.788726 -0.163805 0.592519
vn 0.788726 -0.163805 0.592519
vn 0.788726 -0.163805 0.592519
vn -0.862775 0.504685 0.030199
vn -0.862775 0.504685 0.030199
vn -0.862775 0.504685 0.030199
vn -0.791401 -0.433700 0.430800
vn -0.791401 -0.433700 0.430800
vn -0.791401 -0.433700 0.430800
vn -0.677143 -0.735646 0.017401
vn -0.677143 -0.735646 0.017401
vn -0.677143 -0.735646 0.017401
vn -0.763211 0.447706 0.465907
vn -0.763211 0.447706 0.465907
vn -0.763211 0.447706 0.465907
vn -0.806478 -0.059298 0.588284
vn -0.806478 -0.059298 0.588284
vn -0.806478 -0.059298 0.588284
vn 0.351497 0.505796 0.787794
vn 0.351497 0.505796 0.787794
vn 0.351497 0.505796 0.787794
vn -0.659885 -0.370292 0.653785
vn -0.659885 -0.370292 0.653785
vn -0.659885 -0.370292 0.653785
vn -0.339896 0.100399 0.935089
vn -0.339896 0.100399 0.935089
vn -0.339896 0.100399 0.935089
vn 0.835671 -0.166194 -0.523482
vn 0.835671 -0.166194 -0.523482
vn 0.835671 -0.166194 -0.523482
vn 0.833722 -0.550615 0.041601
vn 0.833722 -0.550615 0.041601
vn 0.833722 -0.550615 0.041601
vn 0.915578 -0.402090 0.006300
vn 0.915578 -0.402090 0.006300
vn 0.915578 -0.402090 0.006300
vn 0.129498 -0.984083 -0.121698
vn 0.129498 -0.984083 -0.121698
vn 0.129498 -0.984083 -0.121698
vn 0.132201 -0.983908 -0.120201
vn 0.132201 -0.983908 -0.120201
vn 0.132201 -0.983908 -0.120201
vn -0.779633 -0.497221 -0.380716
vn -0.779633 -0.497221 -0.380716
vn -0.779633 -0.497221 -0.380716
vn 0.087403 -0.776826 -0.623621
vn 0.087403 -0.776826 -0.623621
vn 0.087403 -0.776826 -0.623621
vn 0.491697 -0.779795 0.387497
vn 0.491697 -0.779795 0.387497
vn 0.491697 -0.779795 0.387497
vn -0.700118 -0.331108 0.632616
vn -0.700118 -0.331108 0.632616
vn -0.700118 -0.331108 0.632616
vn -0.146996 -0.789277 0.596183
vn -0.146996 -0.789277 0.596183
vn -0.146996 -0.789277 0.596183
vn 0.797808 0.567206 -0.204402
vn 0.797808 0.567206 -0.204402
vn 0.797808 0.567206 -0.204402
vn 0.758466 0.448880 0.472479
vn 0.758466 0.448880 0.472479
vn 0.758466 0.448880 0.472479
vn 0.851877 0.384989 0.355090
vn 0.851877 0.384989 0.355090
vn 0.851877 0.384989 0.355090
vn 0.040500 0.733299 0.678699
vn 0.040500 0.733299 0.678699
vn 0.040500 0.733299 0.678699
vn -0.086201 0.773011 0.628509
vn -0.086201 0.773011 0.628509
vn -0.086201 0.773011 0.628509
vn -0.137598 0.985786 -0.096399
vn -0.137598 0.985786 -0.096399
vn -0.137598 0.985786 -0.096399
vn 0.193796 -0.466590 0.862981
vn 0.193796 -0.466590 0.862981
vn 0.193796 -0.466590 0.862981
vn 0.195707 -0.505517 0.840328
vn 0.195707 -0.505517 0.840328
vn 0.195707 -0.505517 0.840328
vn 0.195699 -0.203599 0.959296
vn 0.195699 -0.203599 0.959296
vn 0.195699 -0.203599 0.959296
vn 0.185605 -0.159304 0.969625
vn 0.185605 -0.159304 0.969625
vn 0.185605 -0.159304 0.969625
vn -0.196405 -0.368309 0.908721
vn -0.196405 -0.368309 0.908721
vn -0.196405 -0.368309 0.908721
vn -0.149900 -0.394700 0.906500
vn -0.149900 -0.394700 0.906500
vn -0.149900 -0.394700 0.906500
vn 0.093302 -0.364506 0.926515
vn 0.093302 -0.364506 0.926515
vn 0.093302 -0.364506 0.926515
s off
g LArm
usemtl None
f 1/1/1 2/2/2 3/3/3
f 3/3/4 4/4/5 1/1/6
f 5/5/7 1/1/8 4/4/9
f 4/4/10 6/6/11 5/5/12
f 7/7/13 5/5/14 6/6/15
f 6/6/16 8/8/17 7/7/18
f 9/9/19 7/7/20 8/8/21
f 8/8/22 10/10/23 9/9/24
f 11/11/25 9/9/26 10/10/27
f 10/10/28 12/12/29 11/11/30
f 2/2/31 11/11/32 12/12/33
f 12/12/34 3/3/35 2/2/36
f 13/13/37 14/14/38 2/15/39
f 2/15/40 1/16/41 13/13/42
f 15/17/43 13/13/44 1/16/45
f 1/16/46 5/18/47 15/17/48
f 16/19/49 15/17/50 5/18/51
f 5/18/52 7/20/53 16/19/54
f 17/21/55 16/19/56 7/20/57
f 7/20/58 9/22/59 17/21/60
f 18/23/61 17/21/62 9/22/63
f 9/22/64 11/24/65 18/23/66
f 14/14/67 18/23/68 11/24/69
f 11/24/70 2/15/71 14/14/72
f 19/25/73 20/26/74 14/27/75
f 14/27/76 13/28/77 19/25/78
f 21/29/79 19/25/80 13/28/81
f 13/28/82 15/30/83 21/29/84
f 22/31/85 21/29/86 15/30/87
f 15/30/88 16/32/89 22/31/90
f 23/33/91 22/31/92 16/32/93
f 16/32/94 17/34/95 23/33/96
f 24/35/97 23/33/98 17/34/99
f 17/34/100 18/36/101 24/35/102
f 20/26/103 24/35/104 18/36/105
f 18/36/106 14/27/107 20/26/108
f 25/37/109 26/38/110 20/39/111
f 20/39/112 19/40/113 25/37/114
f 27/41/115 25/37/116 19/40/117
f 19/40/118 21/42/119 27/41/120
f 28/43/121 27/41/122 21/42/123
f 21/42/124 22/44/125 28/43/126
f 29/45/127 28/43/128 22/44/129
f 22/44/130 23/46/131 29/45/132
f 30/47/133 29/45/134 23/46/135
f 23/46/136 24/48/137 30/47/138
f 26/38/139 30/47/140 24/48/141
f 24/48/142 20/39/143 26/38/144
f 31/49/145 32/50/146 26/51/147
f 26/51/148 25/52/149 31/49/150
f 33/53/151 25/52/152 27/54/153
f 27/54/154 34/55/155 33/53/156
f 35/56/157 36/57/158 27/54/159
f 27/54/160 28/58/161 35/56/162
f 37/59/163 38/60/164 28/58/165
f 28/58/166 29/61/167 37/59/168
f 39/62/169 40/63/170 29/61/171
f 29/61/172 30/64/173 39/62/174
f 41/65/175 42/66/176 30/64/177
f 30/64/178 26/51/179 41/65/180
f 25/52/181 33/53/182 31/49/183
f 27/54/184 36/57/185 34/55/186
f 28/58/187 38/60/188 35/56/189
f 29/61/190 40/63/191 37/59/192
f 30/64/193 42/66/194 39/62/195
f 26/51/196 32/50/197 41/65/198
f 43/67/199 44/68/200 34/55/201
f 34/55/202 36/57/203 43/67/204
f 45/69/205 46/70/206 35/56/207
f 35/56/208 38/60/209 45/69/210
f 46/70/211 43/67/212 36/57/213
f 36/57/214 35/56/215 46/70/216
f 47/71/217 48/72/218 37/59/219
f 37/59/220 40/63/221 47/71/222
f 49/73/223 50/74/224 39/62/225
f 39/62/226 42/66/227 49/73/228
f 50/74/229 47/71/230 40/63/231
f 40/63/232 39/62/233 50/74/234
f 51/75/235 52/76/236 31/49/237
f 31/49/238 33/53/239 51/75/240
f 53/77/241 54/78/242 41/65/243
f 41/65/244 32/50/245 53/77/246
f 52/76/247 53/77/248 32/50/249
f 32/50/250 31/49/251 52/76/252
f 44/79/253 43/80/254 55/81/255
f 46/82/256 45/83/257 55/81/258
f 43/80/259 46/82/260 55/81/261
f 45/83/262 56/84/263 55/81/264
f 57/85/265 34/55/266 44/68/267
f 44/68/268 56/86/269 57/85/270
f 57/85/271 56/86/272 45/69/273
f 45/69/274 38/60/275 57/85/276
f 48/87/277 47/88/278 58/89/279
f 50/90/280 49/91/281 58/89/282
f 47/88/283 50/90/284 58/89/285
f 58/89/286 59/92/287 48/87/288
f 60/93/289 37/59/290 48/72/291
f 48/72/292 59/94/293 60/93/294
f 60/93/295 59/94/296 49/73/297
f 49/73/298 42/66/299 60/93/300
f 56/84/301 44/79/302 55/81/303
f 58/89/304 49/91/305 59/92/306
f 52/95/307 51/96/308 61/97/309
f 54/98/310 53/99/311 61/97/312
f 53/99/313 52/95/314 61/97/315
f 51/96/316 62/100/317 61/97/318
f 51/75/319 33/53/320 63/101/321
f 63/101/322 62/102/323 51/75/324
f 63/101/325 41/65/326 54/78/327
f 54/78/328 62/102/329 63/101/330
f 62/100/331 54/98/332 61/97/333
f 34/55/334 57/85/335 63/101/336
f 63/101/337 33/53/338 34/55/339
f 38/60/340 37/59/341 60/93/342
f 60/93/343 57/85/344 38/60/345
f 60/93/346 42/66/347 41/65/348
f 41/65/349 63/101/350 60/93/351
f 57/85/352 60/93/353 63/101/354
