# This file uses centimeters as units for non-parametric coordinates.

mtllib KrookodileRArm.mtl
g default
v -1.795400 -0.698601 -0.826600
v 0.051000 -0.877300 -1.302400
v -0.229100 -1.520300 0.177500
v -1.497600 -1.309900 0.222500
v -2.236000 0.218300 -0.847500
v 0.611100 0.655701 -1.436500
v -2.236000 0.801901 -0.014100
v 0.891200 1.545799 -0.090700
v -1.795400 0.468599 0.840400
v 0.611100 0.902901 1.389200
v -1.497600 -0.726299 1.056000
v 0.051000 -0.630100 1.523300
v -5.755000 -3.168000 1.195800
v -5.215500 -3.305600 1.788600
v -6.294600 -2.563900 1.269200
v -6.294600 -2.097400 1.935400
v -5.755000 -2.235100 2.528200
v -5.215500 -2.839100 2.454800
v -6.335400 -4.011100 2.277000
v -5.553900 -3.724100 2.478600
v -7.018000 -3.504500 2.382300
v -6.919100 -2.710900 2.689200
v -6.048300 -2.434200 2.890800
v -5.430700 -2.987000 2.785500
v -6.835200 -5.190300 5.848700
v -6.126300 -4.930100 6.031600
v -7.454300 -4.730800 5.944200
v -7.364600 -4.011000 6.222600
v -6.655800 -3.750800 6.405500
v -6.036600 -4.210300 6.310000
v -6.295800 -6.737800 6.717800
v -5.666500 -6.545800 6.807800
v -7.152200 -6.359300 6.842000
v -7.960100 -5.668700 7.069300
v -8.740400 -4.357800 7.342900
v -8.798000 -4.945800 7.117300
v -6.818900 -3.545200 7.979200
v -7.814500 -3.894700 7.702000
v -5.556900 -3.552500 8.027800
v -5.982900 -3.292200 8.154700
v -5.500500 -5.695300 7.168200
v -5.334600 -4.385000 7.663500
v -9.224100 -5.259500 8.455900
v -8.694600 -5.678100 8.409000
v -8.640000 -4.634800 8.759000
v -9.197100 -4.916300 8.586800
v -5.730800 -3.740200 9.837900
v -6.469900 -3.948000 9.641500
v -5.484800 -4.584200 9.459700
v -5.401700 -3.941300 9.739800
v -6.839700 -7.373900 8.307600
v -6.238700 -7.812400 8.187700
v -5.829800 -7.685800 8.254400
v -5.738800 -6.968200 8.529300
v -8.015300 -5.772300 9.923100
v -8.265600 -5.274900 8.760900
v -7.775600 -4.852500 7.552100
v -6.660600 -5.148100 10.327000
v -6.236500 -4.482700 9.438600
v -6.335100 -4.282100 7.921500
v -6.741400 -6.706300 9.775900
v -6.525500 -6.860800 8.505000
v -6.583300 -5.856100 7.277300
vt 0.686600 0.120200
vt 0.612800 0.139300
vt 0.624000 0.080100
vt 0.624000 0.080100
vt 0.674700 0.078300
vt 0.686600 0.120200
vt 0.704200 0.121100
vt 0.590400 0.144600
vt 0.612800 0.139300
vt 0.612800 0.139300
vt 0.686600 0.120200
vt 0.704200 0.121100
vt 0.704200 0.087800
vt 0.579200 0.090800
vt 0.590400 0.144600
vt 0.590400 0.144600
vt 0.704200 0.121100
vt 0.704200 0.087800
vt 0.686600 0.053600
vt 0.590400 0.031700
vt 0.579200 0.090800
vt 0.579200 0.090800
vt 0.704200 0.087800
vt 0.686600 0.053600
vt 0.674700 0.045000
vt 0.612800 0.026300
vt 0.590400 0.031700
vt 0.590400 0.031700
vt 0.686600 0.053600
vt 0.674700 0.045000
vt 0.674700 0.078300
vt 0.624000 0.080100
vt 0.612800 0.026300
vt 0.612800 0.026300
vt 0.674700 0.045000
vt 0.674700 0.078300
vt 0.875100 0.110100
vt 0.745600 0.117100
vt 0.757200 0.069800
vt 0.757200 0.069800
vt 0.871600 0.076500
vt 0.875100 0.110100
vt 0.878900 0.117200
vt 0.742600 0.126100
vt 0.745600 0.117100
vt 0.745600 0.117100
vt 0.875100 0.110100
vt 0.878900 0.117200
vt 0.879200 0.090700
vt 0.742900 0.092900
vt 0.742600 0.126100
vt 0.742600 0.126100
vt 0.878900 0.117200
vt 0.879200 0.090700
vt 0.875700 0.057100
vt 0.746300 0.050700
vt 0.742900 0.092900
vt 0.742900 0.092900
vt 0.879200 0.090700
vt 0.875700 0.057100
vt 0.871900 0.050000
vt 0.757600 0.036600
vt 0.746300 0.050700
vt 0.746300 0.050700
vt 0.875700 0.057100
vt 0.871900 0.050000
vt 0.871600 0.076500
vt 0.757200 0.069800
vt 0.757600 0.036600
vt 0.757600 0.036600
vt 0.871900 0.050000
vt 0.871600 0.076500
vt 0.828700 0.206200
vt 0.782000 0.252600
vt 0.776900 0.204200
vt 0.776900 0.204200
vt 0.803600 0.173700
vt 0.828700 0.206200
vt 0.840400 0.218400
vt 0.787400 0.262800
vt 0.782000 0.252600
vt 0.782000 0.252600
vt 0.828700 0.206200
vt 0.840400 0.218400
vt 0.827200 0.198100
vt 0.787800 0.224700
vt 0.787400 0.262800
vt 0.787400 0.262800
vt 0.840400 0.218400
vt 0.827200 0.198100
vt 0.799700 0.163300
vt 0.782700 0.176300
vt 0.787800 0.224700
vt 0.787800 0.224700
vt 0.827200 0.198100
vt 0.799700 0.163300
vt 0.790600 0.152800
vt 0.777300 0.166000
vt 0.782700 0.176300
vt 0.782700 0.176300
vt 0.799700 0.163300
vt 0.790600 0.152800
vt 0.803600 0.173700
vt 0.776900 0.204200
vt 0.777300 0.166000
vt 0.777300 0.166000
vt 0.790600 0.152800
vt 0.803600 0.173700
vt 0.966500 0.242800
vt 0.871700 0.251100
vt 0.870600 0.214300
vt 0.870600 0.214300
vt 0.965500 0.209500
vt 0.966500 0.242800
vt 0.967800 0.257300
vt 0.873200 0.267000
vt 0.871700 0.251100
vt 0.871700 0.251100
vt 0.966500 0.242800
vt 0.967800 0.257300
vt 0.968100 0.238400
vt 0.873500 0.246200
vt 0.873200 0.267000
vt 0.873200 0.267000
vt 0.967800 0.257300
vt 0.968100 0.238400
vt 0.967100 0.205100
vt 0.872000 0.206200
vt 0.873500 0.246200
vt 0.873500 0.246200
vt 0.968100 0.238400
vt 0.967100 0.205100
vt 0.965700 0.190600
vt 0.871200 0.193500
vt 0.872000 0.206200
vt 0.872000 0.206200
vt 0.967100 0.205100
vt 0.965700 0.190600
vt 0.965500 0.209500
vt 0.870600 0.214300
vt 0.871200 0.193500
vt 0.871200 0.193500
vt 0.965700 0.190600
vt 0.965500 0.209500
vt 0.657100 0.361500
vt 0.672600 0.386600
vt 0.652200 0.381300
vt 0.652200 0.381300
vt 0.639000 0.358900
vt 0.657100 0.361500
vt 0.681800 0.357900
vt 0.705100 0.351400
vt 0.690500 0.383800
vt 0.690500 0.383800
vt 0.672600 0.386600
vt 0.681800 0.357900
vt 0.727600 0.343500
vt 0.687900 0.375800
vt 0.690500 0.383800
vt 0.690500 0.383800
vt 0.729200 0.350000
vt 0.727600 0.343500
vt 0.672200 0.325100
vt 0.667500 0.370500
vt 0.687900 0.375800
vt 0.687900 0.375800
vt 0.700900 0.333100
vt 0.672200 0.325100
vt 0.635800 0.323700
vt 0.649600 0.373300
vt 0.667500 0.370500
vt 0.667500 0.370500
vt 0.648100 0.320100
vt 0.635800 0.323700
vt 0.634200 0.348500
vt 0.652200 0.381300
vt 0.649600 0.373300
vt 0.649600 0.373300
vt 0.629400 0.334200
vt 0.634200 0.348500
vt 0.672600 0.386600
vt 0.657100 0.361500
vt 0.681800 0.357900
vt 0.690500 0.383800
vt 0.705100 0.351400
vt 0.729200 0.350000
vt 0.687900 0.375800
vt 0.727600 0.343500
vt 0.700900 0.333100
vt 0.667500 0.370500
vt 0.672200 0.325100
vt 0.648100 0.320100
vt 0.649600 0.373300
vt 0.635800 0.323700
vt 0.629400 0.334200
vt 0.652200 0.381300
vt 0.634200 0.348500
vt 0.639000 0.358900
vt 0.741500 0.311400
vt 0.729200 0.350000
vt 0.705100 0.351400
vt 0.705100 0.351400
vt 0.726300 0.312800
vt 0.741500 0.311400
vt 0.724700 0.302700
vt 0.700900 0.333100
vt 0.727600 0.343500
vt 0.727600 0.343500
vt 0.740700 0.307600
vt 0.724700 0.302700
vt 0.740700 0.307600
vt 0.727600 0.343500
vt 0.729200 0.350000
vt 0.729200 0.350000
vt 0.741500 0.311400
vt 0.740700 0.307600
vt 0.640800 0.271600
vt 0.648100 0.320100
vt 0.672200 0.325100
vt 0.672200 0.325100
vt 0.662100 0.277200
vt 0.640800 0.271600
vt 0.633700 0.282500
vt 0.629400 0.334200
vt 0.635800 0.323700
vt 0.635800 0.323700
vt 0.631300 0.274400
vt 0.633700 0.282500
vt 0.631300 0.274400
vt 0.635800 0.323700
vt 0.648100 0.320100
vt 0.648100 0.320100
vt 0.640800 0.271600
vt 0.631300 0.274400
vt 0.672800 0.315700
vt 0.681800 0.357900
vt 0.657100 0.361500
vt 0.657100 0.361500
vt 0.655500 0.319100
vt 0.672800 0.315700
vt 0.643700 0.317200
vt 0.639000 0.358900
vt 0.634200 0.348500
vt 0.634200 0.348500
vt 0.641000 0.309300
vt 0.643700 0.317200
vt 0.655500 0.319100
vt 0.657100 0.361500
vt 0.639000 0.358900
vt 0.639000 0.358900
vt 0.643700 0.317200
vt 0.655500 0.319100
vt 0.489600 0.571700
vt 0.470900 0.530100
vt 0.504100 0.570400
vt 0.503400 0.566800
vt 0.470900 0.530100
vt 0.488100 0.562100
vt 0.504100 0.570400
vt 0.470900 0.530100
vt 0.503400 0.566800
vt 0.488100 0.562100
vt 0.470900 0.530100
vt 0.477800 0.562000
vt 0.699800 0.337500
vt 0.713900 0.302600
vt 0.726300 0.312800
vt 0.726300 0.312800
vt 0.705100 0.351400
vt 0.699800 0.337500
vt 0.699800 0.337500
vt 0.700900 0.333100
vt 0.724700 0.302700
vt 0.724700 0.302700
vt 0.713900 0.302600
vt 0.699800 0.337500
vt 0.428500 0.537800
vt 0.433700 0.519000
vt 0.408200 0.532400
vt 0.399100 0.535100
vt 0.433700 0.519000
vt 0.401400 0.542800
vt 0.408200 0.532400
vt 0.433700 0.519000
vt 0.399100 0.535100
vt 0.433700 0.519000
vt 0.428500 0.537800
vt 0.422100 0.543400
vt 0.658200 0.326800
vt 0.655400 0.283100
vt 0.662100 0.277200
vt 0.662100 0.277200
vt 0.672200 0.325100
vt 0.658200 0.326800
vt 0.658200 0.326800
vt 0.629400 0.334200
vt 0.633700 0.282500
vt 0.633700 0.282500
vt 0.655400 0.283100
vt 0.658200 0.326800
vt 0.477800 0.562000
vt 0.470900 0.530100
vt 0.489600 0.571700
vt 0.433700 0.519000
vt 0.422100 0.543400
vt 0.401400 0.542800
vt 0.422100 0.577800
vt 0.435900 0.534100
vt 0.438600 0.574500
vt 0.408400 0.568400
vt 0.435900 0.534100
vt 0.410900 0.575900
vt 0.410900 0.575900
vt 0.435900 0.534100
vt 0.422100 0.577800
vt 0.438600 0.574500
vt 0.435900 0.534100
vt 0.430000 0.569000
vt 0.672800 0.315700
vt 0.663700 0.310000
vt 0.665400 0.345400
vt 0.665400 0.345400
vt 0.681800 0.357900
vt 0.672800 0.315700
vt 0.665400 0.345400
vt 0.663700 0.310000
vt 0.641000 0.309300
vt 0.641000 0.309300
vt 0.634200 0.348500
vt 0.665400 0.345400
vt 0.430000 0.569000
vt 0.435900 0.534100
vt 0.408400 0.568400
vt 0.705100 0.351400
vt 0.681800 0.357900
vt 0.665400 0.345400
vt 0.665400 0.345400
vt 0.699800 0.337500
vt 0.705100 0.351400
vt 0.700900 0.333100
vt 0.699800 0.337500
vt 0.658200 0.326800
vt 0.658200 0.326800
vt 0.672200 0.325100
vt 0.700900 0.333100
vt 0.658200 0.326800
vt 0.665400 0.345400
vt 0.634200 0.348500
vt 0.634200 0.348500
vt 0.629400 0.334200
vt 0.658200 0.326800
vt 0.699800 0.337500
vt 0.665400 0.345400
vt 0.658200 0.326800
vn -0.194400 -0.885699 -0.421600
vn -0.194400 -0.885699 -0.421600
vn -0.194400 -0.885699 -0.421600
vn -0.160990 -0.871948 -0.462373
vn -0.160990 -0.871948 -0.462373
vn -0.160990 -0.871948 -0.462373
vn -0.200695 -0.012400 -0.979575
vn -0.200695 -0.012400 -0.979575
vn -0.200695 -0.012400 -0.979575
vn -0.260207 -0.146804 -0.954327
vn -0.260207 -0.146804 -0.954327
vn -0.260207 -0.146804 -0.954327
vn -0.211101 0.834904 -0.508303
vn -0.211101 0.834904 -0.508303
vn -0.211101 0.834904 -0.508303
vn -0.237498 0.795693 -0.557195
vn -0.237498 0.795693 -0.557195
vn -0.237498 0.795693 -0.557195
vn -0.242706 0.905722 0.347508
vn -0.242706 0.905722 0.347508
vn -0.242706 0.905722 0.347508
vn -0.197203 0.874612 0.442906
vn -0.197203 0.874612 0.442906
vn -0.197203 0.874612 0.442906
vn -0.294493 0.189496 0.936678
vn -0.294493 0.189496 0.936678
vn -0.294493 0.189496 0.936678
vn -0.240390 0.113995 0.963960
vn -0.240390 0.113995 0.963960
vn -0.240390 0.113995 0.963960
vn -0.115495 -0.817262 0.564574
vn -0.115495 -0.817262 0.564574
vn -0.115495 -0.817262 0.564574
vn -0.121402 -0.813111 0.569308
vn -0.121402 -0.813111 0.569308
vn -0.121402 -0.813111 0.569308
vn 0.230901 -0.810703 -0.538002
vn 0.230901 -0.810703 -0.538002
vn 0.230901 -0.810703 -0.538002
vn 0.270895 -0.853684 -0.444792
vn 0.270895 -0.853684 -0.444792
vn 0.270895 -0.853684 -0.444792
vn -0.349298 -0.188799 -0.917794
vn -0.349298 -0.188799 -0.917794
vn -0.349298 -0.188799 -0.917794
vn -0.345609 -0.197205 -0.917423
vn -0.345609 -0.197205 -0.917423
vn -0.345609 -0.197205 -0.917423
vn -0.652308 0.620907 -0.434705
vn -0.652308 0.620907 -0.434705
vn -0.652308 0.620907 -0.434705
vn -0.652308 0.620907 -0.434705
vn -0.652308 0.620907 -0.434705
vn -0.652308 0.620907 -0.434705
vn -0.340208 0.803319 0.488812
vn -0.340208 0.803319 0.488812
vn -0.340208 0.803319 0.488812
vn -0.336590 0.802476 0.492685
vn -0.336590 0.802476 0.492685
vn -0.336590 0.802476 0.492685
vn 0.226989 0.227489 0.946955
vn 0.226989 0.227489 0.946955
vn 0.226989 0.227489 0.946955
vn 0.298101 0.151700 0.942403
vn 0.298101 0.151700 0.942403
vn 0.298101 0.151700 0.942403
vn 0.563076 -0.676971 0.473980
vn 0.563076 -0.676971 0.473980
vn 0.563076 -0.676971 0.473980
vn 0.563076 -0.676971 0.473980
vn 0.563076 -0.676971 0.473980
vn 0.563076 -0.676971 0.473980
vn 0.311495 -0.823187 -0.474693
vn 0.311495 -0.823187 -0.474693
vn 0.311495 -0.823187 -0.474693
vn 0.398705 -0.857710 -0.324604
vn 0.398705 -0.857710 -0.324604
vn 0.398705 -0.857710 -0.324604
vn -0.561827 -0.414820 -0.715734
vn -0.561827 -0.414820 -0.715734
vn -0.561827 -0.414820 -0.715734
vn -0.500196 -0.531896 -0.683294
vn -0.500196 -0.531896 -0.683294
vn -0.500196 -0.531896 -0.683294
vn -0.831494 0.455097 -0.318598
vn -0.831494 0.455097 -0.318598
vn -0.831494 0.455097 -0.318598
vn -0.894817 0.253605 -0.367407
vn -0.894817 0.253605 -0.367407
vn -0.894817 0.253605 -0.367407
vn -0.168806 0.915132 0.366113
vn -0.168806 0.915132 0.366113
vn -0.168806 0.915132 0.366113
vn -0.359716 0.847039 0.391318
vn -0.359716 0.847039 0.391318
vn -0.359716 0.847039 0.391318
vn 0.621608 0.479906 0.619108
vn 0.621608 0.479906 0.619108
vn 0.621608 0.479906 0.619108
vn 0.540805 0.471604 0.696506
vn 0.540805 0.471604 0.696506
vn 0.540805 0.471604 0.696506
vn 0.909121 -0.341208 0.238906
vn 0.909121 -0.341208 0.238906
vn 0.909121 -0.341208 0.238906
vn 0.853688 -0.315296 0.414494
vn 0.853688 -0.315296 0.414494
vn 0.853688 -0.315296 0.414494
vn 0.388502 -0.889805 -0.239401
vn 0.388502 -0.889805 -0.239401
vn 0.388502 -0.889805 -0.239401
vn 0.388502 -0.889805 -0.239401
vn 0.388502 -0.889805 -0.239401
vn 0.388502 -0.889805 -0.239401
vn -0.595295 -0.734493 -0.325797
vn -0.595295 -0.734493 -0.325797
vn -0.595295 -0.734493 -0.325797
vn -0.595295 -0.734493 -0.325797
vn -0.595295 -0.734493 -0.325797
vn -0.595295 -0.734493 -0.325797
vn -0.986300 0.149700 -0.069300
vn -0.986300 0.149700 -0.069300
vn -0.986300 0.149700 -0.069300
vn -0.986300 0.149700 -0.069300
vn -0.986300 0.149700 -0.069300
vn -0.986300 0.149700 -0.069300
vn -0.348480 0.895949 0.275384
vn -0.348480 0.895949 0.275384
vn -0.348480 0.895949 0.275384
vn -0.392889 0.877975 0.273492
vn -0.392889 0.877975 0.273492
vn -0.392889 0.877975 0.273492
vn 0.657912 0.669213 0.345407
vn 0.657912 0.669213 0.345407
vn 0.657912 0.669213 0.345407
vn 0.589709 0.717511 0.370705
vn 0.589709 0.717511 0.370705
vn 0.589709 0.717511 0.370705
vn 0.975687 -0.200197 0.089199
vn 0.975687 -0.200197 0.089199
vn 0.975687 -0.200197 0.089199
vn 0.979989 -0.165098 0.111199
vn 0.979989 -0.165098 0.111199
vn 0.979989 -0.165098 0.111199
vn 0.354994 -0.360694 -0.862485
vn 0.354994 -0.360694 -0.862485
vn 0.354994 -0.360694 -0.862485
vn 0.239907 -0.364111 -0.899927
vn 0.239907 -0.364111 -0.899927
vn 0.239907 -0.364111 -0.899927
vn -0.587867 -0.471473 -0.657363
vn -0.587867 -0.471473 -0.657363
vn -0.587867 -0.471473 -0.657363
vn -0.476599 -0.490599 -0.729498
vn -0.476599 -0.490599 -0.729498
vn -0.476599 -0.490599 -0.729498
vn -0.643452 0.344574 -0.683549
vn -0.643452 0.344574 -0.683549
vn -0.643452 0.344574 -0.683549
vn -0.650683 0.326691 -0.685482
vn -0.650683 0.326691 -0.685482
vn -0.650683 0.326691 -0.685482
vn -0.305197 0.939689 -0.154398
vn -0.305197 0.939689 -0.154398
vn -0.305197 0.939689 -0.154398
vn -0.286497 0.944389 -0.161398
vn -0.286497 0.944389 -0.161398
vn -0.286497 0.944389 -0.161398
vn 0.495219 0.756129 -0.427816
vn 0.495219 0.756129 -0.427816
vn 0.495219 0.756129 -0.427816
vn 0.400184 0.836966 -0.373285
vn 0.400184 0.836966 -0.373285
vn 0.400184 0.836966 -0.373285
vn 0.891496 0.062500 -0.448698
vn 0.891496 0.062500 -0.448698
vn 0.891496 0.062500 -0.448698
vn 0.889266 0.058898 -0.453583
vn 0.889266 0.058898 -0.453583
vn 0.889266 0.058898 -0.453583
vn -0.352512 -0.548618 -0.758125
vn -0.352512 -0.548618 -0.758125
vn -0.352512 -0.548618 -0.758125
vn -0.503497 -0.538697 -0.675497
vn -0.503497 -0.538697 -0.675497
vn -0.503497 -0.538697 -0.675497
vn -0.380499 0.905698 -0.186900
vn -0.380499 0.905698 -0.186900
vn -0.380499 0.905698 -0.186900
vn -0.257092 0.954470 -0.151295
vn -0.257092 0.954470 -0.151295
vn -0.257092 0.954470 -0.151295
vn 0.836628 0.391213 -0.383413
vn 0.836628 0.391213 -0.383413
vn 0.836628 0.391213 -0.383413
vn 0.883080 0.026199 -0.468490
vn 0.883080 0.026199 -0.468490
vn 0.883080 0.026199 -0.468490
vn -0.621036 -0.695841 -0.360721
vn -0.621036 -0.695841 -0.360721
vn -0.621036 -0.695841 -0.360721
vn -0.602380 -0.724376 -0.335289
vn -0.602380 -0.724376 -0.335289
vn -0.602380 -0.724376 -0.335289
vn -0.499283 0.842971 0.200293
vn -0.499283 0.842971 0.200293
vn -0.499283 0.842971 0.200293
vn -0.490506 0.848011 0.200703
vn -0.490506 0.848011 0.200703
vn -0.490506 0.848011 0.200703
vn -0.945969 0.192694 -0.260791
vn -0.945969 0.192694 -0.260791
vn -0.945969 0.192694 -0.260791
vn -0.949348 0.174509 -0.261313
vn -0.949348 0.174509 -0.261313
vn -0.949348 0.174509 -0.261313
vn -0.332301 0.897902 0.288701
vn -0.332301 0.897902 0.288701
vn -0.332301 0.897902 0.288701
vn -0.329187 0.899564 0.287089
vn -0.329187 0.899564 0.287089
vn -0.329187 0.899564 0.287089
vn 0.971295 0.213499 0.104899
vn 0.971295 0.213499 0.104899
vn 0.971295 0.213499 0.104899
vn 0.990813 -0.081001 -0.108301
vn 0.990813 -0.081001 -0.108301
vn 0.990813 -0.081001 -0.108301
vn 0.546011 0.826317 0.138103
vn 0.546011 0.826317 0.138103
vn 0.546011 0.826317 0.138103
vn 0.546011 0.826317 0.138103
vn 0.546011 0.826317 0.138103
vn 0.546011 0.826317 0.138103
vn -0.414287 -0.787276 -0.456686
vn -0.414287 -0.787276 -0.456686
vn -0.414287 -0.787276 -0.456686
vn -0.580383 -0.667981 -0.465787
vn -0.580383 -0.667981 -0.465787
vn -0.580383 -0.667981 -0.465787
vn 0.983368 -0.179094 -0.030199
vn 0.983368 -0.179094 -0.030199
vn 0.983368 -0.179094 -0.030199
vn 0.989131 -0.141204 0.041001
vn 0.989131 -0.141204 0.041001
vn 0.989131 -0.141204 0.041001
vn 0.313514 -0.760734 -0.568325
vn 0.313514 -0.760734 -0.568325
vn 0.313514 -0.760734 -0.568325
vn 0.327096 -0.759792 -0.561894
vn 0.327096 -0.759792 -0.561894
vn 0.327096 -0.759792 -0.561894
vn -0.593300 -0.774900 0.218000
vn -0.593300 -0.774900 0.218000
vn -0.593300 -0.774900 0.218000
vn -0.473684 0.489283 0.732275
vn -0.473684 0.489283 0.732275
vn -0.473684 0.489283 0.732275
vn -0.788726 -0.163805 0.592519
vn -0.788726 -0.163805 0.592519
vn -0.788726 -0.163805 0.592519
vn 0.862775 0.504685 0.030199
vn 0.862775 0.504685 0.030199
vn 0.862775 0.504685 0.030199
vn 0.677143 -0.735646 0.017401
vn 0.677143 -0.735646 0.017401
vn 0.677143 -0.735646 0.017401
vn 0.791401 -0.433700 0.430800
vn 0.791401 -0.433700 0.430800
vn 0.791401 -0.433700 0.430800
vn 0.806478 -0.059298 0.588284
vn 0.806478 -0.059298 0.588284
vn 0.806478 -0.059298 0.588284
vn 0.763211 0.447706 0.465907
vn 0.763211 0.447706 0.465907
vn 0.763211 0.447706 0.465907
vn -0.351497 0.505796 0.787794
vn -0.351497 0.505796 0.787794
vn -0.351497 0.505796 0.787794
vn 0.659885 -0.370292 0.653785
vn 0.659885 -0.370292 0.653785
vn 0.659885 -0.370292 0.653785
vn 0.339896 0.100399 0.935089
vn 0.339896 0.100399 0.935089
vn 0.339896 0.100399 0.935089
vn -0.835671 -0.166194 -0.523482
vn -0.835671 -0.166194 -0.523482
vn -0.835671 -0.166194 -0.523482
vn -0.915578 -0.402090 0.006300
vn -0.915578 -0.402090 0.006300
vn -0.915578 -0.402090 0.006300
vn -0.833722 -0.550615 0.041601
vn -0.833722 -0.550615 0.041601
vn -0.833722 -0.550615 0.041601
vn -0.132201 -0.983908 -0.120201
vn -0.132201 -0.983908 -0.120201
vn -0.132201 -0.983908 -0.120201
vn -0.129498 -0.984083 -0.121698
vn -0.129498 -0.984083 -0.121698
vn -0.129498 -0.984083 -0.121698
vn 0.779633 -0.497221 -0.380716
vn 0.779633 -0.497221 -0.380716
vn 0.779633 -0.497221 -0.380716
vn -0.087403 -0.776826 -0.623621
vn -0.087403 -0.776826 -0.623621
vn -0.087403 -0.776826 -0.623621
vn -0.491697 -0.779795 0.387497
vn -0.491697 -0.779795 0.387497
vn -0.491697 -0.779795 0.387497
vn 0.700118 -0.331108 0.632616
vn 0.700118 -0.331108 0.632616
vn 0.700118 -0.331108 0.632616
vn 0.146996 -0.789277 0.596183
vn 0.146996 -0.789277 0.596183
vn 0.146996 -0.789277 0.596183
vn -0.797808 0.567206 -0.204402
vn -0.797808 0.567206 -0.204402
vn -0.797808 0.567206 -0.204402
vn -0.851877 0.384989 0.355090
vn -0.851877 0.384989 0.355090
vn -0.851877 0.384989 0.355090
vn -0.758466 0.448880 0.472479
vn -0.758466 0.448880 0.472479
vn -0.758466 0.448880 0.472479
vn 0.086201 0.773011 0.628509
vn 0.086201 0.773011 0.628509
vn 0.086201 0.773011 0.628509
vn -0.040500 0.733299 0.678699
vn -0.040500 0.733299 0.678699
vn -0.040500 0.733299 0.678699
vn 0.137598 0.985786 -0.096399
vn 0.137598 0.985786 -0.096399
vn 0.137598 0.985786 -0.096399
vn -0.195707 -0.505517 0.840328
vn -0.195707 -0.505517 0.840328
vn -0.195707 -0.505517 0.840328
vn -0.193796 -0.466590 0.862981
vn -0.193796 -0.466590 0.862981
vn -0.193796 -0.466590 0.862981
vn -0.185605 -0.159304 0.969625
vn -0.185605 -0.159304 0.969625
vn -0.185605 -0.159304 0.969625
vn -0.195699 -0.203599 0.959296
vn -0.195699 -0.203599 0.959296
vn -0.195699 -0.203599 0.959296
vn 0.149900 -0.394700 0.906500
vn 0.149900 -0.394700 0.906500
vn 0.149900 -0.394700 0.906500
vn 0.196405 -0.368309 0.908721
vn 0.196405 -0.368309 0.908721
vn 0.196405 -0.368309 0.908721
vn -0.093302 -0.364506 0.926515
vn -0.093302 -0.364506 0.926515
vn -0.093302 -0.364506 0.926515
s off
g RArm
usemtl None
f 1/1/1 2/2/2 3/3/3
f 3/4/4 4/5/5 1/6/6
f 5/7/7 6/8/8 2/9/9
f 2/10/10 1/11/11 5/12/12
f 7/13/13 8/14/14 6/15/15
f 6/16/16 5/17/17 7/18/18
f 9/19/19 10/20/20 8/21/21
f 8/22/22 7/23/23 9/24/24
f 11/25/25 12/26/26 10/27/27
f 10/28/28 9/29/29 11/30/30
f 4/31/31 3/32/32 12/33/33
f 12/34/34 11/35/35 4/36/36
f 13/37/37 1/38/38 4/39/39
f 4/40/40 14/41/41 13/42/42
f 15/43/43 5/44/44 1/45/45
f 1/46/46 13/47/47 15/48/48
f 16/49/49 7/50/50 5/51/51
f 5/52/52 15/53/53 16/54/54
f 17/55/55 9/56/56 7/57/57
f 7/58/58 16/59/59 17/60/60
f 18/61/61 11/62/62 9/63/63
f 9/64/64 17/65/65 18/66/66
f 14/67/67 4/68/68 11/69/69
f 11/70/70 18/71/71 14/72/72
f 19/73/73 13/74/74 14/75/75
f 14/76/76 20/77/77 19/78/78
f 21/79/79 15/80/80 13/81/81
f 13/82/82 19/83/83 21/84/84
f 22/85/85 16/86/86 15/87/87
f 15/88/88 21/89/89 22/90/90
f 23/91/91 17/92/92 16/93/93
f 16/94/94 22/95/95 23/96/96
f 24/97/97 18/98/98 17/99/99
f 17/100/100 23/101/101 24/102/102
f 20/103/103 14/104/104 18/105/105
f 18/106/106 24/107/107 20/108/108
f 25/109/109 19/110/110 20/111/111
f 20/112/112 26/113/113 25/114/114
f 27/115/115 21/116/116 19/117/117
f 19/118/118 25/119/119 27/120/120
f 28/121/121 22/122/122 21/123/123
f 21/124/124 27/125/125 28/126/126
f 29/127/127 23/128/128 22/129/129
f 22/130/130 28/131/131 29/132/132
f 30/133/133 24/134/134 23/135/135
f 23/136/136 29/137/137 30/138/138
f 26/139/139 20/140/140 24/141/141
f 24/142/142 30/143/143 26/144/144
f 31/145/145 25/146/146 26/147/147
f 26/148/148 32/149/149 31/150/150
f 33/151/151 34/152/152 27/153/153
f 27/154/154 25/155/155 33/156/156
f 35/157/157 28/158/158 27/159/159
f 27/160/160 36/161/161 35/162/162
f 37/163/163 29/164/164 28/165/165
f 28/166/166 38/167/167 37/168/168
f 39/169/169 30/170/170 29/171/171
f 29/172/172 40/173/173 39/174/174
f 41/175/175 26/176/176 30/177/177
f 30/178/178 42/179/179 41/180/180
f 25/181/181 31/182/182 33/183/183
f 27/184/184 34/185/185 36/186/186
f 28/187/187 35/188/188 38/189/189
f 29/190/190 37/191/191 40/192/192
f 30/193/193 39/194/194 42/195/195
f 26/196/196 41/197/197 32/198/198
f 43/199/199 36/200/200 34/201/201
f 34/202/202 44/203/203 43/204/204
f 45/205/205 38/206/206 35/207/207
f 35/208/208 46/209/209 45/210/210
f 46/211/211 35/212/212 36/213/213
f 36/214/214 43/215/215 46/216/216
f 47/217/217 40/218/218 37/219/219
f 37/220/220 48/221/221 47/222/222
f 49/223/223 42/224/224 39/225/225
f 39/226/226 50/227/227 49/228/228
f 50/229/229 39/230/230 40/231/231
f 40/232/232 47/233/233 50/234/234
f 51/235/235 33/236/236 31/237/237
f 31/238/238 52/239/239 51/240/240
f 53/241/241 32/242/242 41/243/243
f 41/244/244 54/245/245 53/246/246
f 52/247/247 31/248/248 32/249/249
f 32/250/250 53/251/251 52/252/252
f 44/253/253 55/254/254 43/255/255
f 46/256/256 55/257/257 45/258/258
f 43/259/259 55/260/260 46/261/261
f 45/262/262 55/263/263 56/264/264
f 57/265/265 56/266/266 44/267/267
f 44/268/268 34/269/269 57/270/270
f 57/271/271 38/272/272 45/273/273
f 45/274/274 56/275/275 57/276/276
f 48/277/277 58/278/278 47/279/279
f 50/280/280 58/281/281 49/282/282
f 47/283/283 58/284/284 50/285/285
f 58/286/286 48/287/287 59/288/288
f 60/289/289 59/290/290 48/291/291
f 48/292/292 37/293/293 60/294/294
f 60/295/295 42/296/296 49/297/297
f 49/298/298 59/299/299 60/300/300
f 56/301/301 55/302/302 44/303/303
f 58/304/304 59/305/305 49/306/306
f 52/307/307 61/308/308 51/309/309
f 54/310/310 61/311/311 53/312/312
f 53/313/313 61/314/314 52/315/315
f 51/316/316 61/317/317 62/318/318
f 51/319/319 62/320/320 63/321/321
f 63/322/322 33/323/323 51/324/324
f 63/325/325 62/326/326 54/327/327
f 54/328/328 41/329/329 63/330/330
f 62/331/331 61/332/332 54/333/333
f 34/334/334 33/335/335 63/336/336
f 63/337/337 57/338/338 34/339/339
f 38/340/340 57/341/341 60/342/342
f 60/343/343 37/344/344 38/345/345
f 60/346/346 63/347/347 41/348/348
f 41/349/349 42/350/350 60/351/351
f 57/352/352 63/353/353 60/354/354
