# This file uses centimeters as units for non-parametric coordinates.

mtllib VileplumeLLeg.mtl
g default
v 4.956001 -26.239900 -0.139700
v 2.409700 -22.249200 -0.181700
v 4.181501 -22.249200 4.108500
v 9.430600 -26.239900 6.779800
v -1.791300 -22.249200 1.712300
v -3.445900 -26.239900 3.648300
v -0.597000 -26.239900 11.300800
v -0.019400 -22.249200 6.002500
v -1.253400 -30.230700 2.914900
v 3.692500 -30.230700 13.875500
v 2.947499 -30.230700 1.020900
v 7.893399 -30.230700 11.981500
v 9.931100 -20.978400 14.881900
v 14.457900 -26.269700 15.628000
v 4.361200 -20.978400 17.393100
v 2.418700 -26.269700 21.055900
v 5.465100 -30.633400 20.446100
v 11.034999 -30.633400 17.934900
v 16.847600 -26.239900 22.603400
v 13.914001 -20.666100 23.926101
v 14.631601 -23.181400 29.051000
v 16.241401 -26.239900 28.325200
v 8.793700 -20.666100 29.871801
v 11.412000 -23.181400 30.502601
v 5.113000 -26.239900 27.894000
v 9.802200 -26.239900 31.228400
v 8.046600 -30.137100 26.571300
v 11.412000 -29.298500 30.502601
v 13.914001 -30.137100 23.926101
v 14.631601 -29.298500 29.051000
v 0.783100 1.254899 -2.901000
v 2.750699 1.254899 1.463300
v -3.983500 1.254899 -0.751900
v -2.015900 1.254899 3.612300
vt 0.967700 0.069300
vt 0.967000 0.111500
vt 0.921700 0.110300
vt 0.894600 0.067300
vt 0.958300 0.169000
vt 0.938800 0.213400
vt 0.855100 0.216500
vt 0.911400 0.170700
vt 0.920100 0.257800
vt 0.828600 0.261200
vt 0.909200 0.025500
vt 0.929200 0.026100
vt 0.840800 0.023600
vt 0.820700 0.023100
vt 0.807400 0.120600
vt 0.801100 0.064500
vt 0.786400 0.161500
vt 0.813800 0.160500
vt 0.932100 0.170000
vt 0.748500 0.220800
vt 0.742700 0.268800
vt 0.849300 0.260400
vt 0.770200 0.267800
vt 0.764200 0.017300
vt 0.702000 0.062100
vt 0.686400 0.120600
vt 0.633000 0.092600
vt 0.641500 0.060400
vt 0.658500 0.119900
vt 0.617600 0.092100
vt 0.659800 0.162800
vt 0.647600 0.224300
vt 0.611200 0.225600
vt 0.617800 0.191900
vt 0.663700 0.266300
vt 0.620300 0.258800
vt 0.661200 0.019700
vt 0.689200 0.020500
vt 0.634700 0.027900
vt 0.619400 0.027500
vt 0.613400 0.044400
vt 0.583000 0.026800
vt 0.552500 0.044400
vt 0.552500 0.079600
vt 0.583000 0.097200
vt 0.613400 0.079600
vt 0.598300 0.180100
vt 0.562400 0.180100
vt 0.544500 0.146000
vt 0.562400 0.111900
vt 0.598300 0.111900
vt 0.616200 0.146000
vt 0.620500 0.338800
vt 0.634100 0.289500
vt 0.923200 0.294800
vt 0.909400 0.344900
vt 0.903600 0.384500
vt 0.908700 0.406500
vt 0.620300 0.403400
vt 0.614500 0.378400
vt 0.920400 0.456300
vt 0.632200 0.454000
vt 0.614500 0.360600
vt 0.902600 0.369600
vt 0.688700 0.161700
vt 0.737600 0.016600
vn 0.797524 0.505415 -0.329410
vn 0.797524 0.505415 -0.329410
vn 0.797524 0.505415 -0.329410
vn 0.674673 0.595376 -0.436283
vn 0.674673 0.595376 -0.436283
vn 0.674673 0.595376 -0.436283
vn -0.818446 0.487128 0.304717
vn -0.818446 0.487128 0.304717
vn -0.818446 0.487128 0.304717
vn -0.778300 0.539400 0.321400
vn -0.778300 0.539400 0.321400
vn -0.778300 0.539400 0.321400
vn -0.789721 -0.499313 0.356409
vn -0.789721 -0.499313 0.356409
vn -0.789721 -0.499313 0.356409
vn -0.738188 -0.616090 0.274795
vn -0.738188 -0.616090 0.274795
vn -0.738188 -0.616090 0.274795
vn 0.000000 -1.000000 0.000000
vn 0.000000 -1.000000 0.000000
vn 0.000000 -1.000000 0.000000
vn 0.000000 -1.000000 0.000000
vn 0.000000 -1.000000 0.000000
vn 0.000000 -1.000000 0.000000
vn 0.726202 -0.502101 -0.469601
vn 0.726202 -0.502101 -0.469601
vn 0.726202 -0.502101 -0.469601
vn 0.681790 -0.663691 -0.307696
vn 0.681790 -0.663691 -0.307696
vn 0.681790 -0.663691 -0.307696
vn 0.674805 0.599205 -0.430803
vn 0.674805 0.599205 -0.430803
vn 0.674805 0.599205 -0.430803
vn 0.721388 0.559590 -0.407993
vn 0.721388 0.559590 -0.407993
vn 0.721388 0.559590 -0.407993
vn -0.042600 0.994603 -0.094600
vn -0.042600 0.994603 -0.094600
vn -0.042600 0.994603 -0.094600
vn -0.042600 0.994603 -0.094600
vn -0.042600 0.994603 -0.094600
vn -0.042600 0.994603 -0.094600
vn -0.834561 0.485977 0.259488
vn -0.834561 0.485977 0.259488
vn -0.834561 0.485977 0.259488
vn -0.836601 0.477500 0.268500
vn -0.836601 0.477500 0.268500
vn -0.836601 0.477500 0.268500
vn -0.794801 -0.579901 0.178900
vn -0.794801 -0.579901 0.178900
vn -0.794801 -0.579901 0.178900
vn -0.732586 -0.642588 0.224496
vn -0.732586 -0.642588 0.224496
vn -0.732586 -0.642588 0.224496
vn -0.024600 -0.998211 -0.054501
vn -0.024600 -0.998211 -0.054501
vn -0.024600 -0.998211 -0.054501
vn -0.024600 -0.998211 -0.054501
vn -0.024600 -0.998211 -0.054501
vn -0.024600 -0.998211 -0.054501
vn 0.619497 -0.700497 -0.354298
vn 0.619497 -0.700497 -0.354298
vn 0.619497 -0.700497 -0.354298
vn 0.622720 -0.686722 -0.375012
vn 0.622720 -0.686722 -0.375012
vn 0.622720 -0.686722 -0.375012
vn 0.890001 0.446101 0.094300
vn 0.890001 0.446101 0.094300
vn 0.890001 0.446101 0.094300
vn 0.890001 0.446101 0.094300
vn 0.890001 0.446101 0.094300
vn 0.890001 0.446101 0.094300
vn 0.548696 0.689695 0.472497
vn 0.548696 0.689695 0.472497
vn 0.548696 0.689695 0.472497
vn 0.185709 0.892142 0.411819
vn 0.185709 0.892142 0.411819
vn 0.185709 0.892142 0.411819
vn -0.577010 0.093102 0.811414
vn -0.577010 0.093102 0.811414
vn -0.577010 0.093102 0.811414
vn -0.008400 0.235013 0.971956
vn -0.008400 0.235013 0.971956
vn -0.008400 0.235013 0.971956
vn -0.537105 -0.604106 0.588706
vn -0.537105 -0.604106 0.588706
vn -0.537105 -0.604106 0.588706
vn -0.518679 -0.446082 0.729371
vn -0.518679 -0.446082 0.729371
vn -0.518679 -0.446082 0.729371
vn 0.068403 -0.986041 0.151806
vn 0.068403 -0.986041 0.151806
vn 0.068403 -0.986041 0.151806
vn 0.068403 -0.986041 0.151806
vn 0.068403 -0.986041 0.151806
vn 0.068403 -0.986041 0.151806
vn 0.809799 -0.580399 0.085800
vn 0.809799 -0.580399 0.085800
vn 0.809799 -0.580399 0.085800
vn 0.879504 -0.473702 -0.045600
vn 0.879504 -0.473702 -0.045600
vn 0.879504 -0.473702 -0.045600
vn -0.562704 -0.160101 -0.811006
vn -0.562704 -0.160101 -0.811006
vn -0.562704 -0.160101 -0.811006
vn -0.396607 -0.262305 -0.879715
vn -0.396607 -0.262305 -0.879715
vn -0.396607 -0.262305 -0.879715
vn -0.349418 -0.162609 -0.922749
vn -0.349418 -0.162609 -0.922749
vn -0.349418 -0.162609 -0.922749
vn -0.410297 -0.058200 -0.910093
vn -0.410297 -0.058200 -0.910093
vn -0.410297 -0.058200 -0.910093
vn 0.411013 0.000000 0.911629
vn 0.411013 0.000000 0.911629
vn 0.411013 0.000000 0.911629
vn 0.411013 0.000000 0.911629
vn 0.411013 0.000000 0.911629
vn 0.411013 0.000000 0.911629
vn 0.411013 0.000000 0.911629
vn 0.411013 0.000000 0.911629
vn 0.411013 0.000000 0.911629
vn 0.411013 0.000000 0.911629
vn 0.411013 0.000000 0.911629
vn 0.411013 0.000000 0.911629
vn 0.924078 0.019800 -0.381691
vn 0.924078 0.019800 -0.381691
vn 0.924078 0.019800 -0.381691
vn 0.911591 0.009200 -0.410996
vn 0.911591 0.009200 -0.410996
vn 0.911591 0.009200 -0.410996
vn -0.407384 -0.132695 -0.903565
vn -0.407384 -0.132695 -0.903565
vn -0.407384 -0.132695 -0.903565
vn -0.407384 -0.132695 -0.903565
vn -0.407384 -0.132695 -0.903565
vn -0.407384 -0.132695 -0.903565
vn -0.923549 -0.039702 0.381420
vn -0.923549 -0.039702 0.381420
vn -0.923549 -0.039702 0.381420
vn -0.910843 -0.041902 0.410620
vn -0.910843 -0.041902 0.410620
vn -0.910843 -0.041902 0.410620
vn 0.407699 0.126600 0.904298
vn 0.407699 0.126600 0.904298
vn 0.407699 0.126600 0.904298
vn 0.407699 0.126600 0.904298
vn 0.407699 0.126600 0.904298
vn 0.407699 0.126600 0.904298
vn 0.819494 0.498396 -0.282898
vn 0.819494 0.498396 -0.282898
vn 0.819494 0.498396 -0.282898
vn 0.736758 0.581767 -0.344580
vn 0.736758 0.581767 -0.344580
vn 0.736758 0.581767 -0.344580
vn -0.026500 0.999389 -0.022800
vn -0.026500 0.999389 -0.022800
vn -0.026500 0.999389 -0.022800
vn -0.009700 0.999720 -0.021600
vn -0.009700 0.999720 -0.021600
vn -0.009700 0.999720 -0.021600
vn -0.837629 0.436715 0.328111
vn -0.837629 0.436715 0.328111
vn -0.837629 0.436715 0.328111
vn -0.822329 0.495517 0.279710
vn -0.822329 0.495517 0.279710
vn -0.822329 0.495517 0.279710
vn -0.690957 -0.636460 0.342779
vn -0.690957 -0.636460 0.342779
vn -0.690957 -0.636460 0.342779
vn -0.761199 -0.573699 0.302400
vn -0.761199 -0.573699 0.302400
vn -0.761199 -0.573699 0.302400
vn 0.030601 -0.997223 0.067902
vn 0.030601 -0.997223 0.067902
vn 0.030601 -0.997223 0.067902
vn 0.030601 -0.997223 0.067902
vn 0.030601 -0.997223 0.067902
vn 0.030601 -0.997223 0.067902
vn 0.714468 -0.636471 -0.290587
vn 0.714468 -0.636471 -0.290587
vn 0.714468 -0.636471 -0.290587
vn 0.699724 -0.674024 -0.236808
vn 0.699724 -0.674024 -0.236808
vn 0.699724 -0.674024 -0.236808
s off
g LLeg
usemtl None
f 1/1/1 2/2/2 3/3/3
f 3/3/4 4/4/5 1/1/6
f 5/5/7 6/6/8 7/7/9
f 7/7/10 8/8/11 5/5/12
f 6/6/13 9/9/14 10/10/15
f 10/10/16 7/7/17 6/6/18
f 9/11/19 11/12/20 12/13/21
f 12/13/22 10/14/23 9/11/24
f 11/12/25 1/1/26 4/4/27
f 4/4/28 12/13/29 11/12/30
f 4/4/31 3/3/32 13/15/33
f 13/15/34 14/16/35 4/4/36
f 8/8/37 15/17/38 13/18/39
f 13/18/40 3/19/41 8/8/42
f 7/7/43 16/20/44 15/17/45
f 15/17/46 8/8/47 7/7/48
f 10/10/49 17/21/50 16/20/51
f 16/20/52 7/7/53 10/10/54
f 12/22/55 18/23/56 17/21/57
f 17/21/58 10/10/59 12/22/60
f 12/13/61 4/4/62 14/16/63
f 14/16/64 18/24/65 12/13/66
f 19/25/67 20/26/68 21/27/69
f 21/27/70 22/28/71 19/25/72
f 20/26/73 23/29/74 24/30/75
f 24/30/76 21/27/77 20/26/78
f 23/31/79 25/32/80 26/33/81
f 26/33/82 24/34/83 23/31/84
f 25/32/85 27/35/86 28/36/87
f 28/36/88 26/33/89 25/32/90
f 27/37/91 29/38/92 30/39/93
f 30/39/94 28/40/95 27/37/96
f 29/38/97 19/25/98 22/28/99
f 22/28/100 30/39/101 29/38/102
f 9/41/103 6/42/104 5/43/105
f 5/43/106 2/44/107 1/45/108
f 9/41/109 5/43/110 1/45/111
f 11/46/112 9/41/113 1/45/114
f 21/47/115 24/48/116 26/49/117
f 26/49/118 28/50/119 30/51/120
f 21/47/121 26/49/122 30/51/123
f 22/52/124 21/47/125 30/51/126
f 3/53/127 2/54/128 31/55/129
f 31/55/130 32/56/131 3/53/132
f 2/57/133 5/58/134 33/59/135
f 33/59/136 31/60/137 2/57/138
f 5/58/139 8/61/140 34/62/141
f 34/62/142 33/59/143 5/58/144
f 8/63/145 3/53/146 32/56/147
f 32/56/148 34/64/149 8/63/150
f 20/26/151 19/25/152 14/16/153
f 14/16/154 13/15/155 20/26/156
f 23/31/157 20/65/158 13/18/159
f 13/18/160 15/17/161 23/31/162
f 16/20/163 25/32/164 23/31/165
f 23/31/166 15/17/167 16/20/168
f 17/21/169 27/35/170 25/32/171
f 25/32/172 16/20/173 17/21/174
f 29/38/175 27/37/176 17/66/177
f 17/66/178 18/24/179 29/38/180
f 19/25/181 29/38/182 18/24/183
f 18/24/184 14/16/185 19/25/186
