# This file uses centimeters as units for non-parametric coordinates.

mtllib VileplumeRLeg.mtl
g default
v -4.956001 -26.239900 -0.139700
v -9.430600 -26.239900 6.779800
v -4.181501 -22.249200 4.108500
v -2.409700 -22.249200 -0.181700
v 1.791300 -22.249200 1.712300
v 0.019400 -22.249200 6.002500
v 0.597000 -26.239900 11.300800
v 3.445900 -26.239900 3.648300
v -3.692500 -30.230700 13.875500
v 1.253400 -30.230700 2.914900
v -7.893399 -30.230700 11.981500
v -2.947499 -30.230700 1.020900
v -14.457900 -26.269700 15.628000
v -9.931100 -20.978400 14.881900
v -4.361200 -20.978400 17.393100
v -2.418700 -26.269700 21.055900
v -5.465100 -30.633400 20.446100
v -11.034999 -30.633400 17.934900
v -16.847600 -26.239900 22.603400
v -16.241401 -26.239900 28.325200
v -14.631601 -23.181400 29.051000
v -13.914001 -20.666100 23.926101
v -11.412000 -23.181400 30.502601
v -8.793700 -20.666100 29.871801
v -9.802200 -26.239900 31.228400
v -5.113000 -26.239900 27.894000
v -11.412000 -29.298500 30.502601
v -8.046600 -30.137100 26.571300
v -14.631601 -29.298500 29.051000
v -13.914001 -30.137100 23.926101
v -2.750699 1.254899 1.463300
v -0.783100 1.254899 -2.901000
v 3.983500 1.254899 -0.751900
v 2.015900 1.254899 3.612300
vt 0.967700 0.069300
vt 0.894600 0.067300
vt 0.921700 0.110300
vt 0.921700 0.110300
vt 0.967000 0.111500
vt 0.967700 0.069300
vt 0.958300 0.169000
vt 0.911400 0.170700
vt 0.855100 0.216500
vt 0.855100 0.216500
vt 0.938800 0.213400
vt 0.958300 0.169000
vt 0.938800 0.213400
vt 0.855100 0.216500
vt 0.828600 0.261200
vt 0.828600 0.261200
vt 0.920100 0.257800
vt 0.938800 0.213400
vt 0.909200 0.025500
vt 0.820700 0.023100
vt 0.840800 0.023600
vt 0.840800 0.023600
vt 0.929200 0.026100
vt 0.909200 0.025500
vt 0.929200 0.026100
vt 0.840800 0.023600
vt 0.894600 0.067300
vt 0.894600 0.067300
vt 0.967700 0.069300
vt 0.929200 0.026100
vt 0.894600 0.067300
vt 0.801100 0.064500
vt 0.807400 0.120600
vt 0.807400 0.120600
vt 0.921700 0.110300
vt 0.894600 0.067300
vt 0.911400 0.170700
vt 0.932100 0.170000
vt 0.813800 0.160500
vt 0.813800 0.160500
vt 0.786400 0.161500
vt 0.911400 0.170700
vt 0.855100 0.216500
vt 0.911400 0.170700
vt 0.786400 0.161500
vt 0.786400 0.161500
vt 0.748500 0.220800
vt 0.855100 0.216500
vt 0.828600 0.261200
vt 0.855100 0.216500
vt 0.748500 0.220800
vt 0.748500 0.220800
vt 0.742700 0.268800
vt 0.828600 0.261200
vt 0.849300 0.260400
vt 0.828600 0.261200
vt 0.742700 0.268800
vt 0.742700 0.268800
vt 0.770200 0.267800
vt 0.849300 0.260400
vt 0.840800 0.023600
vt 0.764200 0.017300
vt 0.801100 0.064500
vt 0.801100 0.064500
vt 0.894600 0.067300
vt 0.840800 0.023600
vt 0.702000 0.062100
vt 0.641500 0.060400
vt 0.633000 0.092600
vt 0.633000 0.092600
vt 0.686400 0.120600
vt 0.702000 0.062100
vt 0.686400 0.120600
vt 0.633000 0.092600
vt 0.617600 0.092100
vt 0.617600 0.092100
vt 0.658500 0.119900
vt 0.686400 0.120600
vt 0.659800 0.162800
vt 0.617800 0.191900
vt 0.611200 0.225600
vt 0.611200 0.225600
vt 0.647600 0.224300
vt 0.659800 0.162800
vt 0.647600 0.224300
vt 0.611200 0.225600
vt 0.620300 0.258800
vt 0.620300 0.258800
vt 0.663700 0.266300
vt 0.647600 0.224300
vt 0.661200 0.019700
vt 0.619400 0.027500
vt 0.634700 0.027900
vt 0.634700 0.027900
vt 0.689200 0.020500
vt 0.661200 0.019700
vt 0.689200 0.020500
vt 0.634700 0.027900
vt 0.641500 0.060400
vt 0.641500 0.060400
vt 0.702000 0.062100
vt 0.689200 0.020500
vt 0.583000 0.097200
vt 0.552500 0.079600
vt 0.552500 0.044400
vt 0.552500 0.044400
vt 0.583000 0.026800
vt 0.613400 0.044400
vt 0.583000 0.097200
vt 0.552500 0.044400
vt 0.613400 0.044400
vt 0.613400 0.079600
vt 0.583000 0.097200
vt 0.613400 0.044400
vt 0.598300 0.111900
vt 0.562400 0.111900
vt 0.544500 0.146000
vt 0.544500 0.146000
vt 0.562400 0.180100
vt 0.598300 0.180100
vt 0.598300 0.111900
vt 0.544500 0.146000
vt 0.598300 0.180100
vt 0.616200 0.146000
vt 0.598300 0.111900
vt 0.598300 0.180100
vt 0.620500 0.338800
vt 0.909400 0.344900
vt 0.923200 0.294800
vt 0.923200 0.294800
vt 0.634100 0.289500
vt 0.620500 0.338800
vt 0.903600 0.384500
vt 0.614500 0.378400
vt 0.620300 0.403400
vt 0.620300 0.403400
vt 0.908700 0.406500
vt 0.903600 0.384500
vt 0.908700 0.406500
vt 0.620300 0.403400
vt 0.632200 0.454000
vt 0.632200 0.454000
vt 0.920400 0.456300
vt 0.908700 0.406500
vt 0.614500 0.360600
vt 0.902600 0.369600
vt 0.909400 0.344900
vt 0.909400 0.344900
vt 0.620500 0.338800
vt 0.614500 0.360600
vt 0.686400 0.120600
vt 0.807400 0.120600
vt 0.801100 0.064500
vt 0.801100 0.064500
vt 0.702000 0.062100
vt 0.686400 0.120600
vt 0.659800 0.162800
vt 0.786400 0.161500
vt 0.813800 0.160500
vt 0.813800 0.160500
vt 0.688700 0.161700
vt 0.659800 0.162800
vt 0.748500 0.220800
vt 0.786400 0.161500
vt 0.659800 0.162800
vt 0.659800 0.162800
vt 0.647600 0.224300
vt 0.748500 0.220800
vt 0.742700 0.268800
vt 0.748500 0.220800
vt 0.647600 0.224300
vt 0.647600 0.224300
vt 0.663700 0.266300
vt 0.742700 0.268800
vt 0.689200 0.020500
vt 0.764200 0.017300
vt 0.737600 0.016600
vt 0.737600 0.016600
vt 0.661200 0.019700
vt 0.689200 0.020500
vt 0.702000 0.062100
vt 0.801100 0.064500
vt 0.764200 0.017300
vt 0.764200 0.017300
vt 0.689200 0.020500
vt 0.702000 0.062100
vn -0.674673 0.595376 -0.436283
vn -0.674673 0.595376 -0.436283
vn -0.674673 0.595376 -0.436283
vn -0.797524 0.505415 -0.329410
vn -0.797524 0.505415 -0.329410
vn -0.797524 0.505415 -0.329410
vn 0.778300 0.539400 0.321400
vn 0.778300 0.539400 0.321400
vn 0.778300 0.539400 0.321400
vn 0.818446 0.487128 0.304717
vn 0.818446 0.487128 0.304717
vn 0.818446 0.487128 0.304717
vn 0.738188 -0.616090 0.274795
vn 0.738188 -0.616090 0.274795
vn 0.738188 -0.616090 0.274795
vn 0.789721 -0.499313 0.356409
vn 0.789721 -0.499313 0.356409
vn 0.789721 -0.499313 0.356409
vn 0.000000 -1.000000 0.000000
vn 0.000000 -1.000000 0.000000
vn 0.000000 -1.000000 0.000000
vn 0.000000 -1.000000 0.000000
vn 0.000000 -1.000000 0.000000
vn 0.000000 -1.000000 0.000000
vn -0.681790 -0.663691 -0.307696
vn -0.681790 -0.663691 -0.307696
vn -0.681790 -0.663691 -0.307696
vn -0.726202 -0.502101 -0.469601
vn -0.726202 -0.502101 -0.469601
vn -0.726202 -0.502101 -0.469601
vn -0.721388 0.559590 -0.407993
vn -0.721388 0.559590 -0.407993
vn -0.721388 0.559590 -0.407993
vn -0.674805 0.599205 -0.430803
vn -0.674805 0.599205 -0.430803
vn -0.674805 0.599205 -0.430803
vn 0.042600 0.994603 -0.094600
vn 0.042600 0.994603 -0.094600
vn 0.042600 0.994603 -0.094600
vn 0.042600 0.994603 -0.094600
vn 0.042600 0.994603 -0.094600
vn 0.042600 0.994603 -0.094600
vn 0.836601 0.477500 0.268500
vn 0.836601 0.477500 0.268500
vn 0.836601 0.477500 0.268500
vn 0.834561 0.485977 0.259488
vn 0.834561 0.485977 0.259488
vn 0.834561 0.485977 0.259488
vn 0.732586 -0.642588 0.224496
vn 0.732586 -0.642588 0.224496
vn 0.732586 -0.642588 0.224496
vn 0.794801 -0.579901 0.178900
vn 0.794801 -0.579901 0.178900
vn 0.794801 -0.579901 0.178900
vn 0.024600 -0.998211 -0.054501
vn 0.024600 -0.998211 -0.054501
vn 0.024600 -0.998211 -0.054501
vn 0.024600 -0.998211 -0.054501
vn 0.024600 -0.998211 -0.054501
vn 0.024600 -0.998211 -0.054501
vn -0.622720 -0.686722 -0.375012
vn -0.622720 -0.686722 -0.375012
vn -0.622720 -0.686722 -0.375012
vn -0.619497 -0.700497 -0.354298
vn -0.619497 -0.700497 -0.354298
vn -0.619497 -0.700497 -0.354298
vn -0.890001 0.446101 0.094300
vn -0.890001 0.446101 0.094300
vn -0.890001 0.446101 0.094300
vn -0.890001 0.446101 0.094300
vn -0.890001 0.446101 0.094300
vn -0.890001 0.446101 0.094300
vn -0.185709 0.892142 0.411819
vn -0.185709 0.892142 0.411819
vn -0.185709 0.892142 0.411819
vn -0.548696 0.689695 0.472497
vn -0.548696 0.689695 0.472497
vn -0.548696 0.689695 0.472497
vn 0.008400 0.235013 0.971956
vn 0.008400 0.235013 0.971956
vn 0.008400 0.235013 0.971956
vn 0.577010 0.093102 0.811414
vn 0.577010 0.093102 0.811414
vn 0.577010 0.093102 0.811414
vn 0.518679 -0.446082 0.729371
vn 0.518679 -0.446082 0.729371
vn 0.518679 -0.446082 0.729371
vn 0.537105 -0.604106 0.588706
vn 0.537105 -0.604106 0.588706
vn 0.537105 -0.604106 0.588706
vn -0.068403 -0.986041 0.151806
vn -0.068403 -0.986041 0.151806
vn -0.068403 -0.986041 0.151806
vn -0.068403 -0.986041 0.151806
vn -0.068403 -0.986041 0.151806
vn -0.068403 -0.986041 0.151806
vn -0.879504 -0.473702 -0.045600
vn -0.879504 -0.473702 -0.045600
vn -0.879504 -0.473702 -0.045600
vn -0.809799 -0.580399 0.085800
vn -0.809799 -0.580399 0.085800
vn -0.809799 -0.580399 0.085800
vn 0.396607 -0.262305 -0.879715
vn 0.396607 -0.262305 -0.879715
vn 0.396607 -0.262305 -0.879715
vn 0.562704 -0.160101 -0.811006
vn 0.562704 -0.160101 -0.811006
vn 0.562704 -0.160101 -0.811006
vn 0.349418 -0.162609 -0.922749
vn 0.349418 -0.162609 -0.922749
vn 0.349418 -0.162609 -0.922749
vn 0.410297 -0.058200 -0.910093
vn 0.410297 -0.058200 -0.910093
vn 0.410297 -0.058200 -0.910093
vn -0.411013 0.000000 0.911629
vn -0.411013 0.000000 0.911629
vn -0.411013 0.000000 0.911629
vn -0.411013 0.000000 0.911629
vn -0.411013 0.000000 0.911629
vn -0.411013 0.000000 0.911629
vn -0.411013 0.000000 0.911629
vn -0.411013 0.000000 0.911629
vn -0.411013 0.000000 0.911629
vn -0.411013 0.000000 0.911629
vn -0.411013 0.000000 0.911629
vn -0.411013 0.000000 0.911629
vn -0.911591 0.009200 -0.410996
vn -0.911591 0.009200 -0.410996
vn -0.911591 0.009200 -0.410996
vn -0.924078 0.019800 -0.381691
vn -0.924078 0.019800 -0.381691
vn -0.924078 0.019800 -0.381691
vn 0.407384 -0.132695 -0.903565
vn 0.407384 -0.132695 -0.903565
vn 0.407384 -0.132695 -0.903565
vn 0.407384 -0.132695 -0.903565
vn 0.407384 -0.132695 -0.903565
vn 0.407384 -0.132695 -0.903565
vn 0.910843 -0.041902 0.410620
vn 0.910843 -0.041902 0.410620
vn 0.910843 -0.041902 0.410620
vn 0.923549 -0.039702 0.381420
vn 0.923549 -0.039702 0.381420
vn 0.923549 -0.039702 0.381420
vn -0.407699 0.126600 0.904298
vn -0.407699 0.126600 0.904298
vn -0.407699 0.126600 0.904298
vn -0.407699 0.126600 0.904298
vn -0.407699 0.126600 0.904298
vn -0.407699 0.126600 0.904298
vn -0.736758 0.581767 -0.344580
vn -0.736758 0.581767 -0.344580
vn -0.736758 0.581767 -0.344580
vn -0.819494 0.498396 -0.282898
vn -0.819494 0.498396 -0.282898
vn -0.819494 0.498396 -0.282898
vn 0.009700 0.999720 -0.021600
vn 0.009700 0.999720 -0.021600
vn 0.009700 0.999720 -0.021600
vn 0.026500 0.999389 -0.022800
vn 0.026500 0.999389 -0.022800
vn 0.026500 0.999389 -0.022800
vn 0.822329 0.495517 0.279710
vn 0.822329 0.495517 0.279710
vn 0.822329 0.495517 0.279710
vn 0.837629 0.436715 0.328111
vn 0.837629 0.436715 0.328111
vn 0.837629 0.436715 0.328111
vn 0.761199 -0.573699 0.302400
vn 0.761199 -0.573699 0.302400
vn 0.761199 -0.573699 0.302400
vn 0.690957 -0.636460 0.342779
vn 0.690957 -0.636460 0.342779
vn 0.690957 -0.636460 0.342779
vn -0.030601 -0.997223 0.067902
vn -0.030601 -0.997223 0.067902
vn -0.030601 -0.997223 0.067902
vn -0.030601 -0.997223 0.067902
vn -0.030601 -0.997223 0.067902
vn -0.030601 -0.997223 0.067902
vn -0.699724 -0.674024 -0.236808
vn -0.699724 -0.674024 -0.236808
vn -0.699724 -0.674024 -0.236808
vn -0.714468 -0.636471 -0.290587
vn -0.714468 -0.636471 -0.290587
vn -0.714468 -0.636471 -0.290587
s off
g RLeg
usemtl None
f 1/1/1 2/2/2 3/3/3
f 3/4/4 4/5/5 1/6/6
f 5/7/7 6/8/8 7/9/9
f 7/10/10 8/11/11 5/12/12
f 8/13/13 7/14/14 9/15/15
f 9/16/16 10/17/17 8/18/18
f 10/19/19 9/20/20 11/21/21
f 11/22/22 12/23/23 10/24/24
f 12/25/25 11/26/26 2/27/27
f 2/28/28 1/29/29 12/30/30
f 2/31/31 13/32/32 14/33/33
f 14/34/34 3/35/35 2/36/36
f 6/37/37 3/38/38 14/39/39
f 14/40/40 15/41/41 6/42/42
f 7/43/43 6/44/44 15/45/45
f 15/46/46 16/47/47 7/48/48
f 9/49/49 7/50/50 16/51/51
f 16/52/52 17/53/53 9/54/54
f 11/55/55 9/56/56 17/57/57
f 17/58/58 18/59/59 11/60/60
f 11/61/61 18/62/62 13/63/63
f 13/64/64 2/65/65 11/66/66
f 19/67/67 20/68/68 21/69/69
f 21/70/70 22/71/71 19/72/72
f 22/73/73 21/74/74 23/75/75
f 23/76/76 24/77/77 22/78/78
f 24/79/79 23/80/80 25/81/81
f 25/82/82 26/83/83 24/84/84
f 26/85/85 25/86/86 27/87/87
f 27/88/88 28/89/89 26/90/90
f 28/91/91 27/92/92 29/93/93
f 29/94/94 30/95/95 28/96/96
f 30/97/97 29/98/98 20/99/99
f 20/100/100 19/101/101 30/102/102
f 1/103/103 4/104/104 5/105/105
f 5/106/106 8/107/107 10/108/108
f 1/109/109 5/110/110 10/111/111
f 12/112/112 1/113/113 10/114/114
f 29/115/115 27/116/116 25/117/117
f 25/118/118 23/119/119 21/120/120
f 29/121/121 25/122/122 21/123/123
f 20/124/124 29/125/125 21/126/126
f 3/127/127 31/128/128 32/129/129
f 32/130/130 4/131/131 3/132/132
f 4/133/133 32/134/134 33/135/135
f 33/136/136 5/137/137 4/138/138
f 5/139/139 33/140/140 34/141/141
f 34/142/142 6/143/143 5/144/144
f 6/145/145 34/146/146 31/147/147
f 31/148/148 3/149/149 6/150/150
f 22/151/151 14/152/152 13/153/153
f 13/154/154 19/155/155 22/156/156
f 24/157/157 15/158/158 14/159/159
f 14/160/160 22/161/161 24/162/162
f 16/163/163 15/164/164 24/165/165
f 24/166/166 26/167/167 16/168/168
f 17/169/169 16/170/170 26/171/171
f 26/172/172 28/173/173 17/174/174
f 30/175/175 18/176/176 17/177/177
f 17/178/178 28/179/179 30/180/180
f 19/181/181 13/182/182 18/183/183
f 18/184/184 30/185/185 19/186/186
