# This file uses centimeters as units for non-parametric coordinates.

mtllib MinunTail.mtl
g default
v -0.064176 -0.035649 -0.337345
v -0.079323 -0.051750 0.024951
v 0.007679 -0.077722 -0.338075
v 0.006536 -0.102024 0.024079
v 0.080049 -0.036548 -0.336950
v 0.093011 -0.052824 0.025424
v 0.080563 0.046700 -0.335095
v 0.093624 0.046649 0.027641
v 0.008707 0.088774 -0.334364
v 0.007764 0.096923 0.028513
v -0.063662 0.047600 -0.335489
v -0.078710 0.047724 0.027169
v -0.029132 -0.014309 -0.404696
v 0.008122 -0.036122 -0.405075
v 0.045642 -0.014775 -0.404491
v 0.045909 0.028385 -0.403529
v 0.008655 0.050198 -0.403151
v -0.028865 0.028851 -0.403734
v -0.017929 -0.302450 -0.479220
v -0.018408 -0.306146 -0.313299
v -0.013777 0.370378 -0.464218
v -0.014257 0.366680 -0.298298
v 0.031289 -0.302756 -0.479085
v 0.030810 -0.306454 -0.313165
v 0.035440 0.370070 -0.464083
v 0.034962 0.366374 -0.298163
vt 0.742144 0.947493
vt 0.620764 0.877415
vt 0.620764 0.737258
vt 0.742144 0.667179
vt 0.863523 0.737258
vt 0.863523 0.877415
vt 0.601987 0.667179
vt 0.601987 0.947493
vt 0.882301 0.947493
vt 0.882301 0.667179
vt 0.601987 0.667179
vt 0.601987 0.947493
vt 0.882301 0.947493
vt 0.882301 0.667179
vt 0.601987 0.667179
vt 0.601987 0.947493
vt 0.882301 0.947493
vt 0.882301 0.667179
vt 0.601987 0.667179
vt 0.601987 0.947493
vt 0.882301 0.947493
vt 0.882301 0.667179
vt 0.601987 0.667179
vt 0.601987 0.947493
vt 0.882301 0.947493
vt 0.882301 0.667179
vt 0.601987 0.667179
vt 0.601987 0.947493
vt 0.882301 0.947493
vt 0.882301 0.667179
vt 0.601987 0.667179
vt 0.601987 0.947493
vt 0.882301 0.947493
vt 0.882301 0.667179
vt 0.742144 0.947493
vt 0.620764 0.877415
vt 0.620764 0.737258
vt 0.742144 0.667179
vt 0.863523 0.737258
vt 0.863523 0.877415
vt 0.601987 0.667179
vt 0.601987 0.947493
vt 0.882301 0.947493
vt 0.882301 0.667179
vt 0.601987 0.667179
vt 0.601987 0.947493
vt 0.882301 0.947493
vt 0.882301 0.667179
vt 0.601987 0.667179
vt 0.601987 0.947493
vt 0.882301 0.947493
vt 0.882301 0.667179
vt 0.601987 0.667179
vt 0.601987 0.947493
vt 0.882301 0.947493
vt 0.601987 0.667179
vt 0.601987 0.947493
vt 0.882301 0.947493
vt 0.882301 0.667179
vt 0.235683 0.964729
vt 0.349203 0.899188
vt 0.349203 0.768105
vt 0.122162 0.899188
vt 0.235683 0.964729
vt 0.349203 0.899188
vt 0.122162 0.768105
vt 0.122162 0.899188
vt 0.104600 0.702564
vt 0.366765 0.702564
vt 0.366765 0.964729
vt 0.104600 0.964729
vt 0.104600 0.702564
vt 0.366765 0.702564
vt 0.366765 0.964729
vt 0.104600 0.964729
vt 0.104600 0.702564
vt 0.366765 0.702564
vt 0.366765 0.964729
vt 0.104600 0.964729
vt 0.104600 0.702564
vt 0.366765 0.702564
vt 0.104600 0.964729
vt 0.104600 0.702564
vn -0.002883 -0.022269 0.999748
vn -0.002876 -0.022265 0.999748
vn -0.002878 -0.022269 0.999748
vn -0.002877 -0.022267 0.999748
vn -0.002878 -0.022270 0.999748
vn -0.002878 -0.022272 0.999748
vn 0.494386 -0.867395 -0.056643
vn 0.494385 -0.867396 -0.056643
vn 0.494381 -0.867398 -0.056645
vn 0.494379 -0.867399 -0.056645
vn 0.505068 0.862891 -0.018065
vn 0.505067 0.862891 -0.018065
vn 0.505062 0.862894 -0.018064
vn 0.505061 0.862895 -0.018064
vn -0.494158 0.869123 -0.020802
vn -0.494158 0.869123 -0.020802
vn -0.494160 0.869122 -0.020802
vn -0.494160 0.869122 -0.020802
vn -0.999115 0.007085 -0.041459
vn -0.999115 0.007085 -0.041459
vn -0.999115 0.007087 -0.041459
vn -0.999115 0.007088 -0.041459
vn -0.504849 -0.861163 -0.059381
vn -0.504848 -0.861164 -0.059381
vn -0.504842 -0.861167 -0.059379
vn -0.504840 -0.861168 -0.059379
vn 0.999338 -0.005362 -0.035984
vn 0.999338 -0.005363 -0.035984
vn 0.999338 -0.005365 -0.035985
vn 0.999338 -0.005365 -0.035986
vn -0.439092 0.783769 -0.439208
vn -0.439092 0.783769 -0.439208
vn -0.439092 0.783769 -0.439208
vn -0.439092 0.783769 -0.439208
vn 0.002864 0.022278 -0.999748
vn 0.002882 0.022270 -0.999748
vn 0.002877 0.022272 -0.999748
vn 0.002880 0.022273 -0.999748
vn 0.002876 0.022275 -0.999748
vn 0.002877 0.022259 -0.999748
vn 0.891632 0.004589 -0.452737
vn 0.891632 0.004590 -0.452738
vn 0.891632 0.004590 -0.452738
vn 0.891631 0.004592 -0.452741
vn -0.889018 0.015686 -0.457604
vn -0.889019 0.015688 -0.457602
vn -0.889019 0.015687 -0.457602
vn -0.889021 0.015694 -0.457597
vn 0.451224 0.778221 -0.436771
vn 0.451227 0.778220 -0.436769
vn 0.451226 0.778220 -0.436770
vn 0.451234 0.778219 -0.436765
vn 0.441708 -0.763495 -0.471137
vn 0.441708 -0.763494 -0.471137
vn 0.441708 -0.763494 -0.471137
vn 0.441709 -0.763494 -0.471138
vn -0.448609 -0.757944 -0.473573
vn -0.448610 -0.757944 -0.473572
vn -0.448610 -0.757944 -0.473572
vn -0.448612 -0.757944 -0.473570
vn -0.999977 0.006231 -0.002745
vn -0.999977 0.006232 -0.002751
vn -0.999977 0.006231 -0.002746
vn -0.999977 0.006233 -0.002752
vn 0.999977 -0.006232 0.002749
vn 0.999977 -0.006232 0.002749
vn 0.999977 -0.006231 0.002746
vn 0.999977 -0.006231 0.002745
vn -0.002883 -0.022273 0.999748
vn -0.002865 -0.022274 0.999748
vn -0.002882 -0.022274 0.999748
vn -0.002864 -0.022274 0.999748
vn -0.006186 -0.999732 -0.022289
vn -0.006169 -0.999732 -0.022294
vn -0.006182 -0.999732 -0.022290
vn -0.006165 -0.999732 -0.022295
vn 0.006192 0.999732 0.022295
vn 0.006171 0.999733 0.022290
vn 0.006187 0.999732 0.022294
vn 0.006166 0.999733 0.022288
vn 0.002885 0.022273 -0.999748
vn 0.002885 0.022273 -0.999748
vn 0.002879 0.022273 -0.999748
vn 0.002878 0.022273 -0.999748
s 1
g polySurface7
usemtl None
f 8/1/1 10/2/2 6/6/3
f 10/2/2 12/3/4 6/6/3
f 12/3/4 2/4/5 6/6/3
f 2/4/5 4/5/6 6/6/3
s 2
f 6/7/7 4/8/8 5/10/9
f 5/10/9 4/8/8 3/9/10
s 3
f 10/11/11 8/12/12 9/14/13
f 9/14/13 8/12/12 7/13/14
s 4
f 12/15/15 10/16/16 11/18/17
f 11/18/17 10/16/16 9/17/18
s 5
f 2/19/19 12/20/20 1/22/21
f 1/22/21 12/20/20 11/21/22
s 6
f 4/23/23 2/24/24 3/26/25
f 3/26/25 2/24/24 1/25/26
s 7
f 8/27/27 6/28/28 7/30/29
f 7/30/29 6/28/28 5/29/30
s 8
f 9/31/31 17/32/32 11/34/33
f 11/34/33 17/32/32 18/33/34
s 9
f 15/35/35 14/36/36 16/40/37
f 14/36/36 13/37/38 16/40/37
f 13/37/38 18/38/39 16/40/37
f 18/38/39 17/39/40 16/40/37
s 10
f 5/41/41 15/42/42 7/44/43
f 7/44/43 15/42/42 16/43/44
s 11
f 11/45/45 18/46/46 1/48/47
f 1/48/47 18/46/46 13/47/48
s 12
f 7/49/49 16/50/50 9/52/51
f 9/52/51 16/50/50 17/51/52
s 13
f 3/53/53 14/54/54 5/10/55
f 5/10/55 14/54/54 15/55/56
s 14
f 1/56/57 13/57/58 3/59/59
f 3/59/59 13/57/58 14/58/60
s 15
f 20/60/61 22/61/62 19/63/63
f 19/63/63 22/61/62 21/62/64
s 16
f 24/64/65 23/65/66 26/67/67
f 26/67/67 23/65/66 25/66/68
s 17
f 22/68/69 20/69/70 26/71/71
f 26/71/71 20/69/70 24/70/72
s 18
f 20/72/73 19/73/74 24/75/75
f 24/75/75 19/73/74 23/74/76
s 19
f 21/76/77 22/77/78 25/79/79
f 25/79/79 22/77/78 26/78/80
s 20
f 21/80/81 25/81/82 19/83/83
f 19/83/83 25/81/82 23/82/84
