# This file uses centimeters as units for non-parametric coordinates.

mtllib PlusleMinunPTail.mtl
g default
v 0.253477 -0.068170 -0.262892
v 0.078632 -0.025244 0.052281
v 0.196585 -0.123023 -0.289126
v 0.010651 -0.090789 0.020934
v 0.130984 -0.097040 -0.333346
v -0.067735 -0.059741 -0.031904
v 0.122276 -0.016203 -0.351331
v -0.078141 0.036851 -0.053394
v 0.179168 0.038651 -0.325096
v -0.010160 0.102396 -0.022047
v 0.244769 0.012668 -0.280877
v 0.068227 0.071349 0.030791
v 0.257027 -0.064645 -0.341598
v 0.227531 -0.093084 -0.355199
v 0.193520 -0.079613 -0.378125
v 0.189006 -0.037703 -0.387449
v 0.218502 -0.009264 -0.373848
v 0.252512 -0.022735 -0.350922
v 0.311701 -0.357414 -0.342877
v 0.225825 -0.335449 -0.202569
v 0.241320 0.295928 -0.488233
v 0.155444 0.317893 -0.347924
v 0.269900 -0.367266 -0.366920
v 0.184024 -0.345302 -0.226612
v 0.199519 0.286076 -0.512275
v 0.113643 0.308041 -0.371967
v 0.367857 -0.152479 -0.625245
v 0.409658 -0.142627 -0.601202
v 0.350614 0.007590 -0.660857
v 0.392415 0.017442 -0.636814
v 0.267889 0.049292 -0.433361
v 0.226088 0.039439 -0.457404
v 0.285132 -0.110777 -0.397749
v 0.243331 -0.120630 -0.421792
vt 0.742144 0.947493
vt 0.863523 0.877415
vt 0.863523 0.737258
vt 0.742144 0.667179
vt 0.620764 0.737258
vt 0.620764 0.877415
vt 0.601987 0.667179
vt 0.882301 0.667179
vt 0.882301 0.947493
vt 0.601987 0.947493
vt 0.601987 0.667179
vt 0.882301 0.667179
vt 0.882301 0.947493
vt 0.601987 0.947493
vt 0.601987 0.667179
vt 0.882301 0.667179
vt 0.882301 0.947493
vt 0.601987 0.947493
vt 0.601987 0.667179
vt 0.882301 0.667179
vt 0.882301 0.947493
vt 0.601987 0.947493
vt 0.601987 0.667179
vt 0.882301 0.667179
vt 0.882301 0.947493
vt 0.601987 0.947493
vt 0.601987 0.667179
vt 0.882301 0.667179
vt 0.882301 0.947493
vt 0.601987 0.947493
vt 0.601987 0.667179
vt 0.882301 0.667179
vt 0.882301 0.947493
vt 0.601987 0.947493
vt 0.742144 0.947493
vt 0.863523 0.877415
vt 0.863523 0.737258
vt 0.742144 0.667179
vt 0.620764 0.737258
vt 0.620764 0.877415
vt 0.601987 0.667179
vt 0.882301 0.667179
vt 0.882301 0.947493
vt 0.601987 0.947493
vt 0.601987 0.667179
vt 0.882301 0.667179
vt 0.882301 0.947493
vt 0.601987 0.947493
vt 0.601987 0.667179
vt 0.882301 0.667179
vt 0.882301 0.947493
vt 0.601987 0.947493
vt 0.601987 0.667179
vt 0.882301 0.947493
vt 0.601987 0.947493
vt 0.601987 0.667179
vt 0.882301 0.667179
vt 0.882301 0.947493
vt 0.601987 0.947493
vt 0.235683 0.964729
vt 0.122162 0.899188
vt 0.349203 0.899188
vt 0.122162 0.768105
vt 0.235683 0.702564
vt 0.349203 0.768105
vt 0.235683 0.964729
vt 0.122162 0.899188
vt 0.349203 0.899188
vt 0.349203 0.768105
vt 0.235683 0.702564
vt 0.122162 0.768105
vt 0.104600 0.702564
vt 0.104600 0.964729
vt 0.366765 0.702564
vt 0.366765 0.964729
vt 0.104600 0.702564
vt 0.104600 0.964729
vt 0.366765 0.702564
vt 0.366765 0.964729
vt 0.104600 0.702564
vt 0.104600 0.964729
vt 0.366765 0.702564
vt 0.366765 0.964729
vt 0.104600 0.702564
vt 0.104600 0.964729
vt 0.366765 0.702564
vt 0.366765 0.964729
vt 0.104600 0.702564
vt 0.104600 0.964729
vt 0.366765 0.702564
vt 0.366765 0.964729
vt 0.104600 0.702564
vt 0.104600 0.964729
vt 0.366765 0.702564
vt 0.366765 0.964729
vt 0.104600 0.702564
vt 0.104600 0.964729
vt 0.366765 0.702564
vt 0.366765 0.964729
vt 0.104600 0.702564
vt 0.104600 0.964729
vt 0.366765 0.702564
vt 0.366765 0.964729
vt 0.104600 0.702564
vt 0.104600 0.964729
vt 0.366765 0.702564
vt 0.366765 0.964729
vt 0.104600 0.702564
vt 0.104600 0.964729
vt 0.366765 0.702564
vt 0.366765 0.964729
vn -0.517440 0.132347 0.845423
vn -0.517449 0.132350 0.845417
vn -0.517447 0.132350 0.845419
vn -0.517448 0.132351 0.845418
vn -0.517445 0.132352 0.845419
vn -0.517448 0.132349 0.845418
vn -0.313794 -0.945225 -0.089904
vn -0.313785 -0.945228 -0.089901
vn -0.313792 -0.945226 -0.089904
vn -0.313783 -0.945229 -0.089900
vn -0.494792 0.734951 -0.463711
vn -0.494790 0.734952 -0.463711
vn -0.494792 0.734951 -0.463711
vn -0.494790 0.734952 -0.463711
vn 0.353867 0.934977 0.024407
vn 0.353868 0.934977 0.024409
vn 0.353867 0.934977 0.024408
vn 0.353869 0.934977 0.024409
vn 0.868705 0.194890 0.455378
vn 0.868705 0.194891 0.455378
vn 0.868705 0.194890 0.455378
vn 0.868705 0.194892 0.455378
vn 0.534875 -0.745204 0.398221
vn 0.534872 -0.745206 0.398221
vn 0.534875 -0.745204 0.398221
vn 0.534871 -0.745207 0.398221
vn -0.828620 -0.205152 -0.520866
vn -0.828621 -0.205148 -0.520867
vn -0.828620 -0.205151 -0.520866
vn -0.828621 -0.205147 -0.520867
vn 0.533029 0.777389 -0.333984
vn 0.533033 0.777387 -0.333985
vn 0.533035 0.777385 -0.333985
vn 0.533049 0.777376 -0.333986
vn 0.517455 -0.132352 -0.845413
vn 0.517447 -0.132356 -0.845417
vn 0.517452 -0.132352 -0.845415
vn 0.517454 -0.132355 -0.845413
vn 0.517460 -0.132352 -0.845410
vn 0.517443 -0.132343 -0.845422
vn -0.520584 -0.238479 -0.819829
vn -0.520582 -0.238476 -0.819831
vn -0.520581 -0.238474 -0.819833
vn -0.520575 -0.238464 -0.819839
vn 0.991758 0.117961 0.050011
vn 0.991758 0.117962 0.050012
vn 0.991758 0.117964 0.050013
vn 0.991757 0.117970 0.050016
vn -0.223128 0.599163 -0.768906
vn -0.223130 0.599163 -0.768906
vn -0.223131 0.599163 -0.768906
vn -0.223136 0.599162 -0.768906
vn -0.061857 -0.897902 -0.435828
vn -0.061857 -0.897902 -0.435828
vn -0.061857 -0.897902 -0.435828
vn -0.061858 -0.897901 -0.435830
vn 0.694308 -0.719678 -0.000916
vn 0.694308 -0.719678 -0.000915
vn 0.694308 -0.719678 -0.000915
vn 0.694308 -0.719677 -0.000913
vn 0.849304 0.200168 0.488484
vn 0.849304 0.200168 0.488483
vn 0.849304 0.200169 0.488482
vn 0.849306 0.200168 0.488479
vn 0.849303 0.200167 0.488484
vn 0.849305 0.200170 0.488481
vn -0.849303 -0.200168 -0.488484
vn -0.849304 -0.200168 -0.488484
vn -0.849304 -0.200168 -0.488484
vn -0.849307 -0.200169 -0.488477
vn -0.849303 -0.200167 -0.488485
vn -0.849303 -0.200168 -0.488484
vn -0.517452 0.132345 0.845416
vn -0.517453 0.132345 0.845416
vn -0.517459 0.132343 0.845412
vn -0.517459 0.132343 0.845412
vn 0.104591 -0.970778 0.215989
vn 0.104589 -0.970779 0.215987
vn 0.104580 -0.970782 0.215977
vn 0.104578 -0.970782 0.215975
vn -0.104579 0.970781 -0.215981
vn -0.104578 0.970781 -0.215980
vn -0.104577 0.970781 -0.215980
vn -0.104576 0.970782 -0.215980
vn 0.517443 -0.132349 -0.845421
vn 0.517454 -0.132343 -0.845415
vn 0.517444 -0.132348 -0.845420
vn 0.517455 -0.132342 -0.845414
vn 0.517456 -0.132346 -0.845414
vn 0.517456 -0.132345 -0.845413
vn 0.517459 -0.132345 -0.845412
vn 0.517459 -0.132345 -0.845412
vn -0.849300 -0.200167 -0.488490
vn -0.849300 -0.200167 -0.488490
vn -0.849300 -0.200167 -0.488490
vn -0.849300 -0.200167 -0.488490
vn 0.517458 -0.132346 -0.845412
vn 0.517457 -0.132346 -0.845413
vn 0.517456 -0.132346 -0.845413
vn 0.517456 -0.132346 -0.845414
vn 0.104594 -0.970778 0.215986
vn 0.104578 -0.970781 0.215979
vn 0.104591 -0.970779 0.215985
vn 0.104575 -0.970782 0.215978
vn -0.104592 0.970778 -0.215989
vn -0.104580 0.970781 -0.215979
vn -0.104590 0.970778 -0.215988
vn -0.104578 0.970782 -0.215978
vn 0.849300 0.200168 0.488490
vn 0.849300 0.200167 0.488490
vn 0.849300 0.200168 0.488490
vn 0.849300 0.200167 0.488490
s 1
g polySurface7
usemtl None
f 8/1/1 6/2/2 10/6/3
f 6/2/2 4/3/4 10/6/3
f 4/3/4 2/4/5 10/6/3
f 2/4/5 12/5/6 10/6/3
s 2
f 6/7/7 5/8/8 4/10/9
f 4/10/9 5/8/8 3/9/10
s 3
f 10/11/11 9/12/12 8/14/13
f 8/14/13 9/12/12 7/13/14
s 4
f 12/15/15 11/16/16 10/18/17
f 10/18/17 11/16/16 9/17/18
s 5
f 2/19/19 1/20/20 12/22/21
f 12/22/21 1/20/20 11/21/22
s 6
f 4/23/23 3/24/24 2/26/25
f 2/26/25 3/24/24 1/25/26
s 7
f 8/27/27 7/28/28 6/30/29
f 6/30/29 7/28/28 5/29/30
s 8
f 9/31/31 11/32/32 17/34/33
f 17/34/33 11/32/32 18/33/34
s 9
f 15/35/35 16/36/36 14/40/37
f 16/36/36 17/37/38 14/40/37
f 17/37/38 18/38/39 14/40/37
f 18/38/39 13/39/40 14/40/37
s 10
f 5/41/41 7/42/42 15/44/43
f 15/44/43 7/42/42 16/43/44
s 11
f 11/45/45 1/46/46 18/48/47
f 18/48/47 1/46/46 13/47/48
s 12
f 7/49/49 9/50/50 16/52/51
f 16/52/51 9/50/50 17/51/52
s 13
f 3/53/53 5/8/54 14/55/55
f 14/55/55 5/8/54 15/54/56
s 14
f 1/56/57 3/57/58 13/59/59
f 13/59/59 3/57/58 14/58/60
s 15
f 20/60/61 19/61/62 22/62/63
f 19/61/62 33/63/64 22/62/63
f 33/63/64 31/64/65 22/62/63
f 31/64/65 21/65/66 22/62/63
s 16
f 24/66/67 26/67/68 23/68/69
f 23/68/69 26/67/68 34/69/70
f 34/69/70 26/67/68 32/70/71
f 26/67/68 25/71/72 32/70/71
s 17
f 22/72/73 26/73/74 20/74/75
f 20/74/75 26/73/74 24/75/76
s 18
f 20/76/77 24/77/78 19/78/79
f 19/78/79 24/77/78 23/79/80
s 19
f 21/80/81 25/81/82 22/82/83
f 22/82/83 25/81/82 26/83/84
s 20
f 21/84/85 31/85/86 25/86/87
f 25/86/87 31/85/86 32/87/88
s 21
f 19/88/89 23/89/90 33/90/91
f 33/90/91 23/89/90 34/91/92
s 22
f 32/92/93 29/93/94 34/94/95
f 34/94/95 29/93/94 27/95/96
s 23
f 28/96/97 27/97/98 30/98/99
f 30/98/99 27/97/98 29/99/100
s 24
f 34/100/101 27/101/102 33/102/103
f 33/102/103 27/101/102 28/103/104
s 25
f 31/104/105 30/105/106 32/106/107
f 32/106/107 30/105/106 29/107/108
s 26
f 33/108/109 28/109/110 31/110/111
f 31/110/111 28/109/110 30/111/112
