# This file uses centimeters as units for non-parametric coordinates.

mtllib PlusleTail.mtl
g default
v 0.077064 -0.050916 -0.337316
v 0.086074 -0.042655 0.025449
v 0.005981 -0.094277 -0.336425
v 0.001137 -0.094469 0.026513
v -0.067108 -0.054476 -0.339242
v -0.086196 -0.046910 0.023148
v -0.069112 0.028687 -0.342949
v -0.088592 0.052462 0.018719
v 0.001971 0.072050 -0.343838
v -0.003654 0.104276 0.017654
v 0.075059 0.032249 -0.341023
v 0.083679 0.056718 0.021020
v 0.042848 -0.034749 -0.406508
v 0.005995 -0.057230 -0.406046
v -0.031898 -0.036595 -0.407507
v -0.032936 0.006521 -0.409429
v 0.003917 0.029002 -0.409891
v 0.041809 0.008367 -0.408430
v 0.038016 -0.327359 -0.461832
v 0.035621 -0.320027 -0.296049
v 0.021815 0.344785 -0.491789
v 0.019421 0.352117 -0.326005
v -0.011183 -0.328574 -0.462489
v -0.013578 -0.321243 -0.296706
v -0.027383 0.343570 -0.492446
v -0.029778 0.350902 -0.326663
v -0.013825 -0.085469 -0.714192
v 0.035374 -0.084254 -0.713534
v -0.017794 0.079206 -0.721531
v 0.031405 0.080421 -0.720874
v 0.027931 0.091052 -0.480480
v -0.021268 0.089836 -0.481138
v 0.031900 -0.073624 -0.473141
v -0.017299 -0.074840 -0.473798
vt 0.742144 0.947493
vt 0.863523 0.877415
vt 0.863523 0.737258
vt 0.742144 0.667179
vt 0.620764 0.737258
vt 0.620764 0.877415
vt 0.601987 0.667179
vt 0.882301 0.667179
vt 0.882301 0.947493
vt 0.601987 0.947493
vt 0.601987 0.667179
vt 0.882301 0.667179
vt 0.882301 0.947493
vt 0.601987 0.947493
vt 0.601987 0.667179
vt 0.882301 0.667179
vt 0.882301 0.947493
vt 0.601987 0.947493
vt 0.601987 0.667179
vt 0.882301 0.667179
vt 0.882301 0.947493
vt 0.601987 0.947493
vt 0.601987 0.667179
vt 0.882301 0.667179
vt 0.882301 0.947493
vt 0.601987 0.947493
vt 0.601987 0.667179
vt 0.882301 0.667179
vt 0.882301 0.947493
vt 0.601987 0.947493
vt 0.601987 0.667179
vt 0.882301 0.667179
vt 0.882301 0.947493
vt 0.601987 0.947493
vt 0.742144 0.947493
vt 0.863523 0.877415
vt 0.863523 0.737258
vt 0.742144 0.667179
vt 0.620764 0.737258
vt 0.620764 0.877415
vt 0.601987 0.667179
vt 0.882301 0.667179
vt 0.882301 0.947493
vt 0.601987 0.947493
vt 0.601987 0.667179
vt 0.882301 0.667179
vt 0.882301 0.947493
vt 0.601987 0.947493
vt 0.601987 0.667179
vt 0.882301 0.667179
vt 0.882301 0.947493
vt 0.601987 0.947493
vt 0.601987 0.667179
vt 0.882301 0.947493
vt 0.601987 0.947493
vt 0.601987 0.667179
vt 0.882301 0.667179
vt 0.882301 0.947493
vt 0.601987 0.947493
vt 0.235683 0.964729
vt 0.122162 0.899188
vt 0.349203 0.899188
vt 0.122162 0.768105
vt 0.235683 0.702564
vt 0.349203 0.768105
vt 0.235683 0.964729
vt 0.122162 0.899188
vt 0.349203 0.899188
vt 0.349203 0.768105
vt 0.235683 0.702564
vt 0.122162 0.768105
vt 0.104600 0.702564
vt 0.104600 0.964729
vt 0.366765 0.702564
vt 0.366765 0.964729
vt 0.104600 0.702564
vt 0.104600 0.964729
vt 0.366765 0.702564
vt 0.366765 0.964729
vt 0.104600 0.702564
vt 0.104600 0.964729
vt 0.366765 0.702564
vt 0.366765 0.964729
vt 0.104600 0.702564
vt 0.104600 0.964729
vt 0.366765 0.702564
vt 0.366765 0.964729
vt 0.104600 0.702564
vt 0.104600 0.964729
vt 0.366765 0.702564
vt 0.366765 0.964729
vt 0.104600 0.702564
vt 0.104600 0.964729
vt 0.366765 0.702564
vt 0.366765 0.964729
vt 0.104600 0.702564
vt 0.104600 0.964729
vt 0.366765 0.702564
vt 0.366765 0.964729
vt 0.104600 0.702564
vt 0.104600 0.964729
vt 0.366765 0.702564
vt 0.366765 0.964729
vt 0.104600 0.702564
vt 0.104600 0.964729
vt 0.366765 0.702564
vt 0.366765 0.964729
vt 0.104600 0.702564
vt 0.104600 0.964729
vt 0.366765 0.702564
vt 0.366765 0.964729
vn -0.014426 0.044171 0.998920
vn -0.014436 0.044176 0.998919
vn -0.014432 0.044176 0.998919
vn -0.014434 0.044177 0.998919
vn -0.014430 0.044177 0.998920
vn -0.014434 0.044175 0.998920
vn -0.478041 -0.878311 -0.006842
vn -0.478032 -0.878316 -0.006844
vn -0.478039 -0.878312 -0.006843
vn -0.478030 -0.878317 -0.006844
vn -0.519704 0.850218 -0.083881
vn -0.519703 0.850219 -0.083882
vn -0.519704 0.850219 -0.083881
vn -0.519703 0.850219 -0.083882
vn 0.479147 0.874896 -0.070539
vn 0.479149 0.874895 -0.070538
vn 0.479148 0.874895 -0.070539
vn 0.479149 0.874894 -0.070538
vn 0.999415 0.022955 -0.025347
vn 0.999415 0.022957 -0.025347
vn 0.999415 0.022955 -0.025347
vn 0.999415 0.022957 -0.025347
vn 0.520822 -0.853641 0.006500
vn 0.520819 -0.853643 0.006502
vn 0.520822 -0.853641 0.006500
vn 0.520818 -0.853643 0.006502
vn -0.998297 -0.026387 -0.052034
vn -0.998297 -0.026383 -0.052033
vn -0.998297 -0.026386 -0.052034
vn -0.998297 -0.026382 -0.052033
vn 0.433000 0.760958 -0.483172
vn 0.433002 0.760954 -0.483174
vn 0.433004 0.760952 -0.483176
vn 0.433013 0.760942 -0.483184
vn 0.014442 -0.044180 -0.998919
vn 0.014433 -0.044182 -0.998919
vn 0.014439 -0.044179 -0.998919
vn 0.014441 -0.044182 -0.998919
vn 0.014447 -0.044180 -0.998919
vn 0.014429 -0.044168 -0.998920
vn -0.883423 -0.042095 -0.466682
vn -0.883422 -0.042092 -0.466684
vn -0.883421 -0.042091 -0.466686
vn -0.883417 -0.042081 -0.466694
vn 0.896564 0.001867 -0.442911
vn 0.896564 0.001868 -0.442910
vn 0.896565 0.001869 -0.442909
vn 0.896567 0.001875 -0.442905
vn -0.456984 0.738969 -0.495066
vn -0.456985 0.738969 -0.495065
vn -0.456986 0.738969 -0.495065
vn -0.456990 0.738968 -0.495062
vn -0.419857 -0.801181 -0.426414
vn -0.419857 -0.801181 -0.426414
vn -0.419857 -0.801181 -0.426414
vn -0.419858 -0.801180 -0.426415
vn 0.470128 -0.779194 -0.414532
vn 0.470128 -0.779194 -0.414531
vn 0.470129 -0.779194 -0.414531
vn 0.470130 -0.779194 -0.414530
vn 0.999606 0.024687 0.013347
vn 0.999606 0.024688 0.013346
vn 0.999606 0.024688 0.013345
vn 0.999606 0.024688 0.013342
vn 0.999606 0.024686 0.013348
vn 0.999606 0.024689 0.013344
vn -0.999606 -0.024687 -0.013347
vn -0.999606 -0.024687 -0.013347
vn -0.999606 -0.024687 -0.013347
vn -0.999606 -0.024689 -0.013339
vn -0.999606 -0.024686 -0.013348
vn -0.999606 -0.024687 -0.013347
vn -0.014440 0.044172 0.998920
vn -0.014440 0.044172 0.998920
vn -0.014447 0.044172 0.998920
vn -0.014447 0.044172 0.998919
vn 0.024089 -0.998718 0.044513
vn 0.024086 -0.998718 0.044512
vn 0.024073 -0.998719 0.044508
vn 0.024070 -0.998719 0.044507
vn -0.024074 0.998719 -0.044512
vn -0.024073 0.998719 -0.044512
vn -0.024072 0.998719 -0.044512
vn -0.024071 0.998719 -0.044512
vn 0.014428 -0.044174 -0.998920
vn 0.014442 -0.044170 -0.998920
vn 0.014430 -0.044174 -0.998920
vn 0.014444 -0.044170 -0.998920
vn 0.014444 -0.044173 -0.998919
vn 0.014444 -0.044173 -0.998919
vn 0.014447 -0.044173 -0.998919
vn 0.014447 -0.044173 -0.998919
vn -0.999606 -0.024685 -0.013354
vn -0.999606 -0.024685 -0.013354
vn -0.999606 -0.024685 -0.013354
vn -0.999606 -0.024686 -0.013354
vn 0.014446 -0.044174 -0.998919
vn 0.014445 -0.044174 -0.998919
vn 0.014444 -0.044173 -0.998920
vn 0.014443 -0.044173 -0.998919
vn 0.024090 -0.998719 0.044509
vn 0.024072 -0.998719 0.044511
vn 0.024087 -0.998719 0.044510
vn 0.024069 -0.998719 0.044512
vn -0.024089 0.998718 -0.044513
vn -0.024074 0.998719 -0.044510
vn -0.024087 0.998718 -0.044513
vn -0.024071 0.998719 -0.044510
vn 0.999606 0.024686 0.013354
vn 0.999606 0.024686 0.013354
vn 0.999606 0.024686 0.013354
vn 0.999606 0.024686 0.013354
s 1
g polySurface7
usemtl None
f 8/1/1 6/2/2 10/6/3
f 6/2/2 4/3/4 10/6/3
f 4/3/4 2/4/5 10/6/3
f 2/4/5 12/5/6 10/6/3
s 2
f 6/7/7 5/8/8 4/10/9
f 4/10/9 5/8/8 3/9/10
s 3
f 10/11/11 9/12/12 8/14/13
f 8/14/13 9/12/12 7/13/14
s 4
f 12/15/15 11/16/16 10/18/17
f 10/18/17 11/16/16 9/17/18
s 5
f 2/19/19 1/20/20 12/22/21
f 12/22/21 1/20/20 11/21/22
s 6
f 4/23/23 3/24/24 2/26/25
f 2/26/25 3/24/24 1/25/26
s 7
f 8/27/27 7/28/28 6/30/29
f 6/30/29 7/28/28 5/29/30
s 8
f 9/31/31 11/32/32 17/34/33
f 17/34/33 11/32/32 18/33/34
s 9
f 15/35/35 16/36/36 14/40/37
f 16/36/36 17/37/38 14/40/37
f 17/37/38 18/38/39 14/40/37
f 18/38/39 13/39/40 14/40/37
s 10
f 5/41/41 7/42/42 15/44/43
f 15/44/43 7/42/42 16/43/44
s 11
f 11/45/45 1/46/46 18/48/47
f 18/48/47 1/46/46 13/47/48
s 12
f 7/49/49 9/50/50 16/52/51
f 16/52/51 9/50/50 17/51/52
s 13
f 3/53/53 5/8/54 14/55/55
f 14/55/55 5/8/54 15/54/56
s 14
f 1/56/57 3/57/58 13/59/59
f 13/59/59 3/57/58 14/58/60
s 15
f 20/60/61 19/61/62 22/62/63
f 19/61/62 33/63/64 22/62/63
f 33/63/64 31/64/65 22/62/63
f 31/64/65 21/65/66 22/62/63
s 16
f 24/66/67 26/67/68 23/68/69
f 23/68/69 26/67/68 34/69/70
f 34/69/70 26/67/68 32/70/71
f 26/67/68 25/71/72 32/70/71
s 17
f 22/72/73 26/73/74 20/74/75
f 20/74/75 26/73/74 24/75/76
s 18
f 20/76/77 24/77/78 19/78/79
f 19/78/79 24/77/78 23/79/80
s 19
f 21/80/81 25/81/82 22/82/83
f 22/82/83 25/81/82 26/83/84
s 20
f 21/84/85 31/85/86 25/86/87
f 25/86/87 31/85/86 32/87/88
s 21
f 19/88/89 23/89/90 33/90/91
f 33/90/91 23/89/90 34/91/92
s 22
f 32/92/93 29/93/94 34/94/95
f 34/94/95 29/93/94 27/95/96
s 23
f 28/96/97 27/97/98 30/98/99
f 30/98/99 27/97/98 29/99/100
s 24
f 34/100/101 27/101/102 33/102/103
f 33/102/103 27/101/102 28/103/104
s 25
f 31/104/105 30/105/106 32/106/107
f 32/106/107 30/105/106 29/107/108
s 26
f 33/108/109 28/109/110 31/110/111
f 31/110/111 28/109/110 30/111/112
