# This file uses centimeters as units for non-parametric coordinates.

mtllib PlusleMinunLLeg.mtl
g default
v -0.044220 -0.149581 -0.292554
v -0.183697 -0.149581 -0.220661
v -0.259281 -0.149581 -0.058574
v -0.242101 -0.149581 0.131795
v -0.111781 -0.149581 0.290987
v 0.011374 -0.149581 0.323493
v 0.150851 -0.149581 0.251599
v 0.226435 -0.149581 0.089513
v 0.209255 -0.149581 -0.100856
v 0.107365 -0.149581 -0.224047
v -0.046020 -0.010542 -0.299271
v -0.168162 -0.010542 -0.191313
v -0.234352 -0.010542 -0.049371
v -0.219307 -0.010542 0.117337
v -0.128775 -0.010542 0.280136
v 0.002665 -0.019889 0.356755
v 0.130183 -0.020402 0.274830
v 0.221580 -0.010542 0.090310
v 0.209327 -0.017203 -0.086399
v 0.126216 -0.018871 -0.225062
v -0.019335 -0.309297 -0.205888
v -0.115772 -0.309297 -0.156180
v -0.168032 -0.309297 -0.044110
v -0.156153 -0.309297 0.087514
v -0.084674 -0.309297 0.200808
v 0.019104 -0.309297 0.220057
v 0.115540 -0.309297 0.170349
v 0.167800 -0.309297 0.058280
v 0.170523 -0.309297 -0.073345
v 0.099437 -0.309297 -0.174248
v 0.006336 -0.441235 -0.206041
v -0.088076 -0.441235 -0.149545
v -0.137836 -0.441235 -0.019451
v -0.123938 -0.441235 0.134549
v -0.046378 -0.441235 0.266855
v 0.056623 -0.441235 0.305536
v 0.151034 -0.441235 0.249039
v 0.195480 -0.441235 0.105724
v 0.181583 -0.441235 -0.048277
v 0.109336 -0.441235 -0.167360
v -0.038837 0.040495 -0.240758
v -0.138784 0.040495 -0.152418
v -0.192946 0.040495 -0.036269
v -0.180635 0.040495 0.100146
v -0.106554 0.040495 0.233361
v 0.001001 0.040495 0.266153
v 0.105346 0.032427 0.229019
v 0.180135 0.040495 0.078030
v 0.170109 0.035044 -0.066568
v 0.102100 0.033680 -0.180034
vt 0.585930 0.679063
vt 0.585930 0.926297
vt 0.833165 0.926297
vt 0.833165 0.679063
vt 0.585930 0.679063
vt 0.585930 0.926297
vt 0.833165 0.926297
vt 0.833165 0.679063
vt 0.585930 0.679063
vt 0.585930 0.926297
vt 0.833165 0.926297
vt 0.833165 0.679063
vt 0.585930 0.679063
vt 0.585930 0.926297
vt 0.833165 0.926297
vt 0.585930 0.679063
vt 0.585930 0.926297
vt 0.833165 0.926297
vt 0.833165 0.679063
vt 0.585930 0.679063
vt 0.585930 0.926297
vt 0.833165 0.926297
vt 0.833165 0.679063
vt 0.585930 0.679063
vt 0.585930 0.926297
vt 0.833165 0.926297
vt 0.833165 0.679063
vt 0.585930 0.679063
vt 0.585930 0.926297
vt 0.833165 0.926297
vt 0.833165 0.679063
vt 0.585930 0.679063
vt 0.585930 0.926297
vt 0.833165 0.926297
vt 0.833165 0.679063
vt 0.585930 0.679063
vt 0.585930 0.926297
vt 0.833165 0.926297
vt 0.833165 0.679063
vt 0.585930 0.679063
vt 0.585930 0.926297
vt 0.833165 0.926297
vt 0.833165 0.679063
vt 0.585930 0.926297
vt 0.833165 0.926297
vt 0.833165 0.679063
vt 0.585930 0.679063
vt 0.585930 0.926297
vt 0.833165 0.926297
vt 0.833165 0.679063
vt 0.585930 0.679063
vt 0.585930 0.926297
vt 0.833165 0.926297
vt 0.833165 0.679063
vt 0.585930 0.679063
vt 0.585930 0.926297
vt 0.833165 0.926297
vt 0.833165 0.679063
vt 0.585930 0.679063
vt 0.585930 0.926297
vt 0.833165 0.926297
vt 0.833165 0.679063
vt 0.585930 0.679063
vt 0.585930 0.926297
vt 0.833165 0.926297
vt 0.833165 0.679063
vt 0.585930 0.679063
vt 0.585930 0.926297
vt 0.833165 0.926297
vt 0.833165 0.679063
vt 0.585930 0.679063
vt 0.585930 0.926297
vt 0.833165 0.926297
vt 0.833165 0.679063
vt 0.585930 0.679063
vt 0.585930 0.926297
vt 0.833165 0.926297
vt 0.833165 0.679063
vt 0.585930 0.679063
vt 0.585930 0.926297
vt 0.833165 0.926297
vt 0.833165 0.679063
vt 0.585930 0.679063
vt 0.585930 0.926297
vt 0.833165 0.926297
vt 0.833165 0.679063
vt 0.709548 0.926297
vt 0.636887 0.902688
vt 0.591981 0.840880
vt 0.591981 0.764480
vt 0.636887 0.702671
vt 0.709548 0.679063
vt 0.782208 0.702671
vt 0.827114 0.764480
vt 0.827114 0.840880
vt 0.782208 0.902688
vt 0.585930 0.679063
vt 0.585930 0.926297
vt 0.833165 0.926297
vt 0.833165 0.679063
vt 0.585930 0.679063
vt 0.585930 0.926297
vt 0.833165 0.926297
vt 0.833165 0.679063
vt 0.585930 0.679063
vt 0.585930 0.926297
vt 0.833165 0.926297
vt 0.833165 0.679063
vt 0.585930 0.679063
vt 0.585930 0.926297
vt 0.833165 0.926297
vt 0.833165 0.679063
vt 0.585930 0.679063
vt 0.585930 0.926297
vt 0.833165 0.926297
vt 0.833165 0.679063
vt 0.585930 0.679063
vt 0.585930 0.926297
vt 0.833165 0.926297
vt 0.833165 0.679063
vt 0.585930 0.679063
vt 0.585930 0.926297
vt 0.833165 0.926297
vt 0.833165 0.679063
vt 0.585930 0.679063
vt 0.585930 0.926297
vt 0.833165 0.926297
vt 0.833165 0.679063
vt 0.585930 0.679063
vt 0.585930 0.926297
vt 0.833165 0.926297
vt 0.833165 0.679063
vt 0.709548 0.926297
vt 0.636887 0.902688
vt 0.591981 0.840880
vt 0.591981 0.764480
vt 0.636887 0.702671
vt 0.709548 0.679063
vt 0.782208 0.702671
vt 0.827114 0.764480
vt 0.827114 0.840880
vt 0.782208 0.902688
vt 0.585930 0.679063
vt 0.585930 0.926297
vt 0.833165 0.926297
vt 0.833165 0.679063
vt 0.585930 0.679063
vt 0.585930 0.926297
vt 0.833165 0.926297
vt 0.833165 0.679063
vt 0.585930 0.679063
vt 0.585930 0.926297
vt 0.833165 0.926297
vt 0.833165 0.679063
vt 0.585930 0.679063
vt 0.585930 0.926297
vt 0.833165 0.926297
vt 0.833165 0.679063
vt 0.585930 0.679063
vt 0.585930 0.926297
vt 0.833165 0.926297
vt 0.833165 0.679063
vt 0.585930 0.679063
vt 0.585930 0.926297
vt 0.833165 0.926297
vt 0.833165 0.679063
vt 0.585930 0.679063
vt 0.585930 0.926297
vt 0.833165 0.926297
vt 0.833165 0.679063
vt 0.585930 0.679063
vt 0.585930 0.926297
vt 0.833165 0.926297
vt 0.833165 0.679063
vt 0.585930 0.679063
vt 0.585930 0.926297
vt 0.833165 0.926297
vt 0.833165 0.679063
vn -0.157339 -0.505654 0.848268
vn -0.182326 -0.520006 0.834477
vn -0.199060 -0.529378 0.824703
vn -0.215094 -0.538175 0.814925
vn 0.653851 0.642476 -0.399630
vn 0.653850 0.642477 -0.399629
vn 0.653850 0.642479 -0.399627
vn 0.653849 0.642480 -0.399626
vn -0.246682 -0.256261 0.934601
vn -0.401181 -0.107294 0.909693
vn -0.404093 -0.104250 0.908758
vn -0.503282 0.005924 0.864102
vn 0.456463 -0.086222 0.885555
vn 0.490706 -0.126558 0.862085
vn 0.498194 -0.135586 0.856399
vn 0.531505 -0.176769 0.828405
vn 0.905917 0.029211 0.422447
vn 0.900663 0.043370 0.432349
vn 0.897751 0.050890 0.437554
vn 0.892995 0.062726 0.445673
vn -0.645106 0.226136 -0.729863
vn -0.558195 0.086160 -0.825224
vn -0.573327 0.108563 -0.812102
vn -0.457618 -0.048814 -0.887808
vn 0.995910 0.009274 -0.089877
vn 0.996418 0.019397 -0.082308
vn 0.996612 0.024452 -0.078523
vn 0.996893 0.035213 -0.070452
vn -0.890299 0.187106 -0.415162
vn -0.890299 0.187106 -0.415162
vn -0.890299 0.187106 -0.415162
vn -0.890299 0.187106 -0.415162
vn 0.765442 -0.115308 -0.633089
vn 0.810879 -0.039669 -0.583867
vn 0.822356 -0.017955 -0.568689
vn 0.856106 0.055646 -0.513797
vn -0.981437 0.170106 0.088571
vn -0.981437 0.170106 0.088571
vn -0.981437 0.170105 0.088571
vn -0.981438 0.170104 0.088572
vn 0.411525 -0.038663 -0.910578
vn 0.403033 -0.049790 -0.913830
vn 0.399783 -0.054017 -0.915017
vn 0.392288 -0.063701 -0.917634
vn -0.772999 -0.045094 0.632803
vn -0.811857 0.040284 0.582465
vn -0.830448 0.090378 0.549716
vn -0.857990 0.190273 0.477126
vn 0.420285 0.574537 0.702331
vn 0.407034 0.564712 0.717930
vn 0.398224 0.558108 0.727965
vn 0.383552 0.546982 0.744109
vn 0.400865 -0.484252 0.777693
vn 0.400865 -0.484251 0.777694
vn 0.400865 -0.484252 0.777694
vn 0.400864 -0.484251 0.777695
vn 0.836973 -0.383594 0.390298
vn 0.836973 -0.383594 0.390297
vn 0.836973 -0.383594 0.390297
vn 0.836973 -0.383594 0.390297
vn -0.400820 -0.484407 -0.777620
vn -0.400821 -0.484407 -0.777620
vn -0.400821 -0.484407 -0.777620
vn -0.400822 -0.484407 -0.777620
vn 0.940606 -0.328716 -0.084886
vn 0.954378 -0.294833 -0.047292
vn 0.953235 -0.297946 -0.050714
vn 0.972424 -0.232353 0.020117
vn -0.792082 -0.485981 -0.369362
vn -0.792082 -0.485982 -0.369361
vn -0.792082 -0.485982 -0.369361
vn -0.792082 -0.485982 -0.369360
vn 0.783571 -0.285106 -0.552024
vn 0.766200 -0.255979 -0.589417
vn 0.762516 -0.250115 -0.596668
vn 0.749817 -0.230585 -0.620166
vn -0.868653 -0.489179 0.078396
vn -0.868652 -0.489181 0.078393
vn -0.868652 -0.489181 0.078393
vn -0.868652 -0.489182 0.078392
vn 0.245588 -0.299637 -0.921902
vn 0.321714 -0.355008 -0.877764
vn 0.338266 -0.366869 -0.866593
vn 0.378296 -0.395265 -0.837053
vn -0.724239 -0.516419 0.456934
vn -0.707991 -0.470129 0.526998
vn -0.706103 -0.465364 0.533718
vn -0.695131 -0.439280 0.569058
vn 0.000000 -1.000000 0.000000
vn 0.000000 -1.000000 0.000000
vn 0.000000 -1.000000 0.000000
vn 0.000000 -1.000000 0.000000
vn 0.000000 -1.000000 0.000000
vn 0.000000 -1.000000 -0.000000
vn 0.000000 -1.000000 0.000000
vn 0.000000 -1.000000 -0.000000
vn 0.000000 -1.000000 0.000000
vn 0.000000 -1.000000 0.000000
vn 0.876289 0.397822 0.271762
vn 0.871383 0.370366 0.321747
vn 0.870219 0.365388 0.330472
vn 0.857510 0.323694 0.399874
vn -0.510991 -0.098433 -0.853931
vn -0.486902 -0.116017 -0.865717
vn -0.478820 -0.121809 -0.869422
vn -0.453683 -0.139499 -0.880177
vn 0.980772 0.173936 -0.088505
vn 0.989934 0.135749 -0.040036
vn 0.989587 0.137569 -0.042335
vn 0.995960 0.087403 0.020604
vn -0.886690 -0.206925 -0.413478
vn -0.894811 -0.242955 -0.374549
vn -0.894529 -0.241495 -0.376161
vn -0.899292 -0.270104 -0.343973
vn 0.854649 -0.026873 -0.518511
vn 0.838709 -0.000905 -0.544580
vn 0.838271 -0.000222 -0.545254
vn 0.817101 0.031252 -0.575646
vn -0.974468 -0.206585 0.087945
vn -0.974469 -0.206584 0.087944
vn -0.974469 -0.206584 0.087944
vn -0.974469 -0.206583 0.087943
vn 0.351481 -0.022491 -0.935925
vn 0.305079 0.014180 -0.952222
vn 0.296472 0.020878 -0.954814
vn 0.257079 0.051139 -0.965036
vn -0.845630 -0.016279 0.533521
vn -0.855343 -0.005610 0.518032
vn -0.854929 -0.006072 0.518709
vn -0.862691 0.002759 0.505724
vn -0.166973 0.402172 0.900210
vn -0.264678 0.436384 0.859950
vn -0.224517 0.422837 0.877953
vn -0.313626 0.451875 0.835134
vn 0.032469 0.998797 0.036735
vn 0.018830 0.999800 0.006704
vn 0.026210 0.999494 -0.018036
vn 0.007739 0.999670 -0.024511
vn 0.015155 0.999884 0.001702
vn 0.011631 0.999932 0.000949
vn -0.000007 1.000000 -0.000118
vn 0.012699 0.999328 0.034383
vn 0.050142 0.997234 -0.054863
vn 0.000000 1.000000 0.000000
vn -0.783433 0.617442 0.070702
vn -0.783432 0.617443 0.070703
vn -0.783432 0.617442 0.070703
vn -0.783432 0.617443 0.070703
vn 0.312012 0.696683 -0.645973
vn 0.312012 0.696683 -0.645973
vn 0.312012 0.696683 -0.645973
vn 0.312012 0.696683 -0.645973
vn -0.673839 0.636810 0.374719
vn -0.673839 0.636809 0.374720
vn -0.673840 0.636807 0.374722
vn -0.673840 0.636806 0.374724
vn -0.257277 0.801925 0.539189
vn -0.248178 0.786142 0.566028
vn -0.237419 0.767018 0.596084
vn -0.205842 0.708385 0.675144
vn 0.286599 0.701015 0.653024
vn 0.327385 0.772100 0.544684
vn 0.317912 0.755934 0.572273
vn 0.336000 0.786582 0.518067
vn 0.676081 0.637795 0.368961
vn 0.676080 0.637797 0.368959
vn 0.676081 0.637795 0.368960
vn 0.676080 0.637797 0.368959
vn -0.479604 0.689598 -0.542619
vn -0.479604 0.689599 -0.542617
vn -0.479604 0.689598 -0.542618
vn -0.479604 0.689600 -0.542616
vn 0.782994 0.617175 -0.077557
vn 0.782994 0.617175 -0.077557
vn 0.782994 0.617175 -0.077556
vn 0.782994 0.617175 -0.077556
vn -0.692673 0.644882 -0.323004
vn -0.692674 0.644880 -0.323005
vn -0.692674 0.644881 -0.323005
vn -0.692674 0.644880 -0.323006
s 1
g polySurface5
usemtl None
f 25/2/1 26/3/2 5/1/3
f 5/1/3 26/3/2 6/4/4
s 2
f 20/5/5 50/6/6 19/8/7
f 19/8/7 50/6/6 49/7/8
s 3
f 6/9/9 16/10/10 5/12/11
f 5/12/11 16/10/10 15/11/12
s 4
f 7/13/13 17/14/14 6/4/15
f 6/4/15 17/14/14 16/15/16
s 5
f 8/16/17 18/17/18 7/19/19
f 7/19/19 18/17/18 17/18/20
s 6
f 12/21/21 11/22/22 2/20/23
f 2/20/23 11/22/22 1/23/24
s 7
f 9/24/25 19/25/26 8/27/27
f 8/27/27 19/25/26 18/26/28
s 8
f 13/29/29 12/30/30 3/28/31
f 3/28/31 12/30/30 2/31/32
s 9
f 10/32/33 20/33/34 9/35/35
f 9/35/35 20/33/34 19/34/36
s 10
f 4/36/37 14/37/38 3/39/39
f 3/39/39 14/37/38 13/38/40
s 11
f 1/40/41 11/41/42 10/43/43
f 10/43/43 11/41/42 20/42/44
s 12
f 5/1/45 15/44/46 4/46/47
f 4/46/47 15/44/46 14/45/48
s 13
f 36/48/49 37/49/50 26/47/51
f 26/47/51 37/49/50 27/50/52
s 14
f 6/51/53 26/52/54 7/54/55
f 7/54/55 26/52/54 27/53/56
s 15
f 7/55/57 27/56/58 8/58/59
f 8/58/59 27/56/58 28/57/60
s 16
f 21/60/61 22/61/62 1/59/63
f 1/59/63 22/61/62 2/62/64
s 17
f 8/63/65 28/64/66 9/66/67
f 9/66/67 28/64/66 29/65/68
s 18
f 2/67/69 22/68/70 3/70/71
f 3/70/71 22/68/70 23/69/72
s 19
f 29/72/73 30/73/74 9/71/75
f 9/71/75 30/73/74 10/74/76
s 20
f 23/76/77 24/77/78 3/75/79
f 3/75/79 24/77/78 4/78/80
s 21
f 30/80/81 21/81/82 10/79/83
f 10/79/83 21/81/82 1/82/84
s 22
f 24/84/85 25/85/86 4/83/87
f 4/83/87 25/85/86 5/86/88
s 23
f 31/89/89 40/90/90 32/88/91
f 32/88/91 40/90/90 33/87/92
f 40/90/90 39/91/93 33/87/92
f 33/87/92 39/91/93 34/96/94
f 39/91/93 38/92/95 34/96/94
f 34/96/94 38/92/95 35/95/96
f 38/92/95 37/93/97 35/95/96
f 37/93/97 36/94/98 35/95/96
s 24
f 37/98/99 38/99/100 27/97/101
f 27/97/101 38/99/100 28/100/102
s 25
f 31/102/103 32/103/104 21/101/105
f 21/101/105 32/103/104 22/104/106
s 26
f 38/106/107 39/107/108 28/105/109
f 28/105/109 39/107/108 29/108/110
s 27
f 22/109/111 32/110/112 23/112/113
f 23/112/113 32/110/112 33/111/114
s 28
f 39/114/115 40/115/116 29/113/117
f 29/113/117 40/115/116 30/116/118
s 29
f 23/117/119 33/118/120 24/120/121
f 24/120/121 33/118/120 34/119/122
s 30
f 40/122/123 31/123/124 30/121/125
f 30/121/125 31/123/124 21/124/126
s 31
f 24/125/127 34/126/128 25/128/129
f 25/128/129 34/126/128 35/127/130
s 32
f 25/129/131 35/130/132 26/132/133
f 26/132/133 35/130/132 36/131/134
s 33
f 41/141/135 42/142/136 50/140/137
f 50/140/137 42/142/136 49/139/138
f 42/142/136 43/133/139 49/139/138
f 43/133/139 44/134/140 49/139/138
f 49/139/138 44/134/140 48/138/141
f 48/138/141 44/134/140 47/137/142
f 47/137/142 44/134/140 46/136/143
f 44/134/140 45/135/144 46/136/143
s 34
f 44/144/145 43/145/146 14/143/147
f 14/143/147 43/145/146 13/146/148
s 35
f 11/147/149 41/148/150 20/150/151
f 20/150/151 41/148/150 50/149/152
s 36
f 15/151/153 45/152/154 14/154/155
f 14/154/155 45/152/154 44/153/156
s 37
f 16/155/157 46/156/158 15/158/159
f 15/158/159 46/156/158 45/157/160
s 38
f 47/160/161 46/161/162 17/159/163
f 17/159/163 46/161/162 16/162/164
s 39
f 48/164/165 47/165/166 18/163/167
f 18/163/167 47/165/166 17/166/168
s 40
f 42/168/169 41/169/170 12/167/171
f 12/167/171 41/169/170 11/170/172
s 41
f 19/171/173 49/172/174 18/174/175
f 18/174/175 49/172/174 48/173/176
s 42
f 43/176/177 42/177/178 13/175/179
f 13/175/179 42/177/178 12/178/180
