# This file uses centimeters as units for non-parametric coordinates.

mtllib PlusleMinunRArm.mtl
g default
v 0.033011 -0.119075 0.000000
v -0.112679 -0.250834 0.000000
v -0.477828 -0.585286 0.000000
v 0.018282 -0.105610 -0.064546
v -0.132267 -0.232927 -0.085838
v -0.255919 -0.393963 -0.099117
v -0.378595 -0.494632 -0.085838
v -0.491065 -0.573185 -0.058007
v -0.020279 -0.070358 -0.104438
v -0.183548 -0.186047 -0.138888
v -0.315133 -0.339830 -0.160375
v -0.429876 -0.447752 -0.138888
v -0.525720 -0.541504 -0.093857
v 0.003521 0.003533 0.000000
v -0.067943 -0.026784 -0.104438
v -0.246936 -0.128099 -0.138888
v -0.388327 -0.272918 -0.160375
v -0.493264 -0.389804 -0.138888
v -0.568555 -0.502345 -0.093857
v -0.106505 0.008468 -0.064546
v -0.298217 -0.081219 -0.085838
v -0.447541 -0.218785 -0.099117
v -0.544545 -0.342924 -0.085838
v -0.603209 -0.470665 -0.058007
v -0.121234 0.021933 0.000000
v -0.317805 -0.063312 0.000000
v -0.470159 -0.198108 0.000000
v -0.564133 -0.325017 0.000000
v -0.616446 -0.458564 0.000000
v -0.106505 0.008468 0.064546
v -0.298217 -0.081219 0.085838
v -0.447541 -0.218785 0.099117
v -0.544545 -0.342924 0.085838
v -0.603209 -0.470665 0.058007
v -0.067943 -0.026784 0.104438
v -0.246936 -0.128099 0.138889
v -0.388327 -0.272918 0.160375
v -0.493264 -0.389804 0.138889
v -0.568555 -0.502345 0.093857
v -0.588915 -0.593132 0.000000
v -0.020279 -0.070358 0.104438
v -0.183548 -0.186047 0.138889
v -0.315133 -0.339830 0.160375
v -0.429876 -0.447752 0.138889
v -0.525719 -0.541504 0.093857
v 0.018283 -0.105610 0.064546
v -0.132267 -0.232927 0.085838
v -0.255918 -0.393963 0.099117
v -0.378595 -0.494632 0.085838
v -0.491065 -0.573185 0.058007
v -0.233300 -0.414640 0.000000
v -0.359007 -0.512539 0.000000
v -0.591275 -0.590974 -0.010343
v -0.597455 -0.585325 -0.016736
v -0.605093 -0.578342 -0.016736
v -0.611273 -0.572693 -0.010343
v -0.613633 -0.570535 0.000000
v -0.611273 -0.572693 0.010344
v -0.605093 -0.578342 0.016736
v -0.597455 -0.585325 0.016736
v -0.591275 -0.590974 0.010344
vt 0.598358 0.668207
vt 0.598358 0.927839
vt 0.857990 0.927839
vt 0.857990 0.668207
vt 0.598358 0.668207
vt 0.598358 0.927839
vt 0.857990 0.927839
vt 0.857990 0.668207
vt 0.104388 0.702872
vt 0.104388 0.962504
vt 0.364020 0.962504
vt 0.364020 0.702872
vt 0.598358 0.668207
vt 0.598358 0.927839
vt 0.857990 0.927839
vt 0.857990 0.668207
vt 0.598358 0.668207
vt 0.598358 0.927839
vt 0.857990 0.927839
vt 0.857990 0.668207
vt 0.598358 0.668207
vt 0.598358 0.927839
vt 0.857990 0.927839
vt 0.857990 0.668207
vt 0.104388 0.702872
vt 0.104388 0.962504
vt 0.364020 0.962504
vt 0.364020 0.702872
vt 0.598358 0.668207
vt 0.598358 0.927839
vt 0.857990 0.927839
vt 0.857990 0.668207
vt 0.598358 0.668207
vt 0.598358 0.927839
vt 0.857990 0.927839
vt 0.857990 0.668207
vt 0.598358 0.668207
vt 0.598358 0.927839
vt 0.857990 0.927839
vt 0.857990 0.668207
vt 0.598358 0.668207
vt 0.598358 0.927839
vt 0.857990 0.927839
vt 0.857990 0.668207
vt 0.104388 0.702872
vt 0.104388 0.962504
vt 0.364020 0.962504
vt 0.364020 0.702872
vt 0.598358 0.668207
vt 0.598358 0.927839
vt 0.857990 0.927839
vt 0.857990 0.668207
vt 0.598358 0.668207
vt 0.598358 0.927839
vt 0.857990 0.927839
vt 0.857990 0.668207
vt 0.598358 0.668207
vt 0.598358 0.927839
vt 0.857990 0.927839
vt 0.857990 0.668207
vt 0.104388 0.702872
vt 0.104388 0.962504
vt 0.364020 0.962504
vt 0.364020 0.702872
vt 0.598358 0.668207
vt 0.598358 0.927839
vt 0.857990 0.927839
vt 0.857990 0.668207
vt 0.598358 0.668207
vt 0.598358 0.927839
vt 0.857990 0.927839
vt 0.857990 0.668207
vt 0.598358 0.668207
vt 0.598358 0.927839
vt 0.857990 0.927839
vt 0.857990 0.668207
vt 0.598358 0.668207
vt 0.598358 0.927839
vt 0.857990 0.927839
vt 0.857990 0.668207
vt 0.104388 0.702872
vt 0.104388 0.962504
vt 0.364020 0.962504
vt 0.364020 0.702872
vt 0.104388 0.702872
vt 0.104388 0.962504
vt 0.364020 0.962504
vt 0.364020 0.702872
vt 0.598358 0.668207
vt 0.598358 0.927839
vt 0.857990 0.927839
vt 0.857990 0.668207
vt 0.598358 0.668207
vt 0.598358 0.927839
vt 0.857990 0.927839
vt 0.857990 0.668207
vt 0.598358 0.668207
vt 0.598358 0.927839
vt 0.857990 0.927839
vt 0.857990 0.668207
vt 0.598358 0.668207
vt 0.598358 0.927839
vt 0.857990 0.927839
vt 0.857990 0.668207
vt 0.104388 0.702872
vt 0.104388 0.962504
vt 0.364020 0.962504
vt 0.364020 0.702872
vt 0.598358 0.668207
vt 0.598358 0.927839
vt 0.857990 0.927839
vt 0.857990 0.668207
vt 0.598358 0.668207
vt 0.598358 0.927839
vt 0.857990 0.927839
vt 0.857990 0.668207
vt 0.598358 0.668207
vt 0.598358 0.927839
vt 0.857990 0.927839
vt 0.857990 0.668207
vt 0.104388 0.702872
vt 0.104388 0.962504
vt 0.364020 0.962504
vt 0.364020 0.702872
vt 0.598358 0.668207
vt 0.598358 0.927839
vt 0.857990 0.927839
vt 0.857990 0.668207
vt 0.598358 0.668207
vt 0.598358 0.927839
vt 0.857990 0.927839
vt 0.857990 0.668207
vt 0.598358 0.668207
vt 0.598358 0.927839
vt 0.857990 0.927839
vt 0.857990 0.668207
vt 0.598358 0.668207
vt 0.857990 0.668207
vt 0.598358 0.668207
vt 0.598358 0.927839
vt 0.857990 0.927839
vt 0.857990 0.668207
vt 0.598358 0.668207
vt 0.598358 0.927839
vt 0.857990 0.927839
vt 0.857990 0.668207
vt 0.104388 0.702872
vt 0.104388 0.702872
vt 0.104388 0.962504
vt 0.104388 0.962504
vt 0.104388 0.702872
vt 0.104388 0.962504
vt 0.364020 0.962504
vt 0.364020 0.702872
vt 0.598358 0.668207
vt 0.857990 0.927839
vt 0.857990 0.668207
vt 0.104388 0.702872
vt 0.104388 0.702872
vt 0.104388 0.962504
vt 0.104388 0.962504
vt 0.104388 0.702872
vt 0.104388 0.702872
vt 0.104388 0.962504
vt 0.104388 0.962504
vt 0.598358 0.668207
vt 0.857990 0.927839
vt 0.857990 0.668207
vt 0.104388 0.702872
vt 0.104388 0.702872
vt 0.104388 0.962504
vt 0.104388 0.962504
vt 0.598358 0.668207
vt 0.857990 0.927839
vt 0.857990 0.668207
vt 0.104388 0.702872
vt 0.104388 0.702872
vt 0.104388 0.962504
vt 0.104388 0.962504
vt 0.598358 0.668207
vt 0.857990 0.927839
vt 0.857990 0.668207
vt 0.598358 0.668207
vt 0.857990 0.927839
vt 0.857990 0.668207
vt 0.104388 0.702872
vt 0.104388 0.702872
vt 0.104388 0.962504
vt 0.104388 0.962504
vt 0.598358 0.668207
vt 0.857990 0.927839
vt 0.857990 0.668207
vt 0.104388 0.702872
vt 0.104388 0.702872
vt 0.104388 0.962504
vt 0.104388 0.962504
vt 0.598358 0.668207
vt 0.857990 0.927839
vt 0.857990 0.668207
vt 0.104388 0.702872
vt 0.104388 0.702872
vt 0.104388 0.962504
vt 0.104388 0.962504
vt 0.364020 0.702872
vt 0.364020 0.702872
vt 0.364020 0.702872
vt 0.364020 0.702872
vt 0.364020 0.702872
vt 0.364020 0.702872
vt 0.364020 0.702872
vt 0.364020 0.702872
vt 0.364020 0.702872
vt 0.364020 0.702872
vt 0.598358 0.668207
vt 0.857990 0.927839
vt 0.857990 0.668207
vt 0.598358 0.668207
vt 0.598358 0.927839
vt 0.857990 0.927839
vt 0.857990 0.668207
vt 0.104388 0.702872
vt 0.104388 0.702872
vt 0.104388 0.962504
vt 0.104388 0.962504
vt 0.598358 0.668207
vt 0.598358 0.927839
vt 0.857990 0.927839
vt 0.857990 0.668207
vt 0.104388 0.702872
vt 0.104388 0.962504
vt 0.364020 0.962504
vt 0.364020 0.702872
vt 0.598358 0.668207
vt 0.857990 0.927839
vt 0.857990 0.668207
vt 0.104388 0.702872
vt 0.104388 0.962504
vn 0.641077 -0.708861 -0.294172
vn 0.641079 -0.708861 -0.294167
vn 0.641077 -0.708861 -0.294171
vn 0.641080 -0.708861 -0.294165
vn 0.453488 -0.403325 -0.794782
vn 0.453491 -0.403327 -0.794778
vn 0.453489 -0.403325 -0.794781
vn 0.453493 -0.403328 -0.794777
vn 0.234214 -0.604969 -0.761023
vn 0.234215 -0.604971 -0.761021
vn 0.234215 -0.604973 -0.761020
vn 0.234216 -0.604974 -0.761019
vn 0.339566 -0.517415 -0.785479
vn 0.339570 -0.517415 -0.785477
vn 0.339568 -0.517415 -0.785478
vn 0.339572 -0.517416 -0.785476
vn 0.515519 -0.330653 -0.790511
vn 0.515514 -0.330652 -0.790515
vn 0.515518 -0.330653 -0.790513
vn 0.515512 -0.330651 -0.790517
vn 0.117064 0.128054 -0.984834
vn 0.117065 0.128054 -0.984834
vn 0.117065 0.128054 -0.984834
vn 0.117065 0.128053 -0.984834
vn -0.215128 -0.235323 -0.947810
vn -0.215128 -0.235324 -0.947809
vn -0.215128 -0.235324 -0.947809
vn -0.215129 -0.235324 -0.947809
vn -0.091448 -0.100033 -0.990773
vn -0.091448 -0.100033 -0.990773
vn -0.091448 -0.100033 -0.990773
vn -0.091448 -0.100033 -0.990773
vn 0.071269 0.077960 -0.994406
vn 0.071269 0.077960 -0.994406
vn 0.071269 0.077959 -0.994406
vn 0.071269 0.077959 -0.994406
vn -0.375459 0.483861 -0.790512
vn -0.375458 0.483859 -0.790513
vn -0.375457 0.483856 -0.790516
vn -0.375456 0.483854 -0.790517
vn -0.208369 0.624165 -0.752994
vn -0.208371 0.624168 -0.752992
vn -0.208369 0.624166 -0.752994
vn -0.208371 0.624169 -0.752991
vn -0.649841 0.135497 -0.747895
vn -0.649840 0.135492 -0.747897
vn -0.649839 0.135488 -0.747898
vn -0.649839 0.135486 -0.747899
vn -0.521561 0.323085 -0.789677
vn -0.521566 0.323085 -0.789674
vn -0.521564 0.323085 -0.789675
vn -0.521569 0.323085 -0.789672
vn -0.633373 0.715876 -0.293871
vn -0.633373 0.715875 -0.293872
vn -0.633374 0.715875 -0.293873
vn -0.633374 0.715874 -0.293874
vn -0.382907 0.882965 -0.271580
vn -0.382908 0.882966 -0.271574
vn -0.382907 0.882965 -0.271579
vn -0.382909 0.882966 -0.271572
vn -0.894609 0.350437 -0.277252
vn -0.894609 0.350436 -0.277252
vn -0.894609 0.350436 -0.277253
vn -0.894609 0.350436 -0.277253
vn -0.768151 0.568803 -0.293949
vn -0.768152 0.568803 -0.293949
vn -0.768152 0.568803 -0.293949
vn -0.768152 0.568802 -0.293949
vn -0.768152 0.568803 0.293949
vn -0.768152 0.568803 0.293949
vn -0.768152 0.568803 0.293949
vn -0.768153 0.568802 0.293949
vn -0.633373 0.715876 0.293871
vn -0.633374 0.715875 0.293873
vn -0.633373 0.715875 0.293872
vn -0.633374 0.715874 0.293874
vn -0.382907 0.882965 0.271580
vn -0.382907 0.882965 0.271579
vn -0.382908 0.882966 0.271575
vn -0.382909 0.882966 0.271573
vn -0.894609 0.350437 0.277252
vn -0.894609 0.350436 0.277253
vn -0.894609 0.350436 0.277253
vn -0.894609 0.350436 0.277253
vn -0.649844 0.135491 0.747894
vn -0.649844 0.135491 0.747894
vn -0.649844 0.135491 0.747894
vn -0.649844 0.135490 0.747894
vn -0.521566 0.323090 0.789672
vn -0.521566 0.323089 0.789672
vn -0.521566 0.323089 0.789672
vn -0.521566 0.323089 0.789673
vn -0.375462 0.483858 0.790513
vn -0.375461 0.483859 0.790512
vn -0.375462 0.483858 0.790513
vn -0.375461 0.483859 0.790512
vn -0.208372 0.624171 0.752988
vn -0.208372 0.624171 0.752989
vn -0.208370 0.624171 0.752989
vn -0.208368 0.624171 0.752990
vn 0.117068 0.128058 0.984833
vn 0.117068 0.128058 0.984833
vn 0.117068 0.128057 0.984833
vn 0.117068 0.128057 0.984833
vn -0.215131 -0.235332 0.947807
vn -0.215132 -0.235329 0.947807
vn -0.215132 -0.235330 0.947807
vn -0.215133 -0.235329 0.947807
vn -0.091444 -0.100028 0.990774
vn -0.091444 -0.100028 0.990774
vn -0.091443 -0.100028 0.990774
vn -0.091443 -0.100029 0.990774
vn 0.071265 0.077956 0.994406
vn 0.071265 0.077956 0.994406
vn 0.071266 0.077956 0.994406
vn 0.071266 0.077956 0.994406
vn 0.453494 -0.403329 0.794776
vn 0.453493 -0.403328 0.794777
vn 0.453490 -0.403326 0.794780
vn 0.453488 -0.403325 0.794782
vn 0.234216 -0.604970 0.761022
vn 0.234218 -0.604979 0.761014
vn 0.234217 -0.604975 0.761018
vn 0.234219 -0.604981 0.761012
vn 0.339575 -0.517416 0.785474
vn 0.339572 -0.517415 0.785476
vn 0.339570 -0.517415 0.785477
vn 0.339569 -0.517415 0.785477
vn 0.515514 -0.330653 0.790515
vn 0.515515 -0.330654 0.790514
vn 0.515517 -0.330654 0.790512
vn 0.515519 -0.330654 0.790511
vn 0.587740 -0.754689 0.291560
vn 0.587740 -0.754689 0.291558
vn 0.587741 -0.754689 0.291557
vn 0.587742 -0.754689 0.291556
vn 0.958028 0.230427 -0.170547
vn 0.958028 0.230427 -0.170547
vn 0.958028 0.230427 -0.170547
vn 0.587742 -0.754687 -0.291560
vn 0.587741 -0.754687 -0.291561
vn 0.587742 -0.754687 -0.291561
vn 0.587741 -0.754687 -0.291562
vn 0.769681 -0.566768 -0.293879
vn 0.769682 -0.566768 -0.293877
vn 0.769681 -0.566768 -0.293878
vn 0.769683 -0.566768 -0.293875
vn -0.788614 -0.207991 0.578644
vn -0.788650 -0.207971 0.578601
vn -0.788666 -0.207963 0.578583
vn -0.788666 -0.207963 0.578582
vn 0.500532 -0.817542 -0.284769
vn 0.500532 -0.817541 -0.284769
vn 0.500532 -0.817541 -0.284770
vn 0.500532 -0.817541 -0.284770
vn 0.809753 0.375945 -0.450517
vn 0.809753 0.375945 -0.450517
vn 0.809753 0.375945 -0.450517
vn -0.975752 -0.024514 0.217504
vn -0.975745 -0.024510 0.217535
vn -0.975742 -0.024509 0.217547
vn -0.975742 -0.024509 0.217548
vn -0.466044 -0.509760 -0.723152
vn -0.466036 -0.509774 -0.723147
vn -0.466032 -0.509780 -0.723145
vn -0.466032 -0.509780 -0.723145
vn 0.559003 0.611474 -0.560014
vn 0.559003 0.611474 -0.560014
vn 0.559003 0.611474 -0.560014
vn -0.466026 -0.509784 0.723146
vn -0.466030 -0.509777 0.723148
vn -0.466026 -0.509784 0.723146
vn -0.466040 -0.509762 0.723153
vn 0.301976 0.840146 -0.450516
vn 0.301976 0.840146 -0.450516
vn 0.301976 0.840146 -0.450516
vn 0.068747 -0.973358 0.218744
vn 0.068747 -0.973357 0.218744
vn 0.068747 -0.973357 0.218744
vn 0.068747 -0.973357 0.218745
vn 0.143773 0.974803 -0.170551
vn 0.143773 0.974803 -0.170551
vn 0.143773 0.974803 -0.170551
vn 0.143773 0.974803 0.170551
vn 0.143773 0.974803 0.170551
vn 0.143773 0.974803 0.170551
vn -0.133588 -0.803143 0.580616
vn -0.133589 -0.803142 0.580618
vn -0.133588 -0.803143 0.580616
vn -0.133592 -0.803139 0.580621
vn 0.301976 0.840146 0.450517
vn 0.301976 0.840146 0.450517
vn 0.301976 0.840146 0.450517
vn 0.068747 -0.973353 -0.218766
vn 0.068746 -0.973356 -0.218750
vn 0.068745 -0.973358 -0.218744
vn 0.068745 -0.973358 -0.218744
vn 0.559004 0.611474 0.560013
vn 0.559004 0.611474 0.560013
vn 0.559004 0.611474 0.560013
vn -0.788666 -0.207963 -0.578582
vn -0.788661 -0.207967 -0.578588
vn -0.788666 -0.207963 -0.578582
vn -0.788648 -0.207976 -0.578602
vn -0.674747 -0.738049 -0.000099
vn -0.674715 -0.738078 0.000035
vn -0.674713 -0.738081 0.000035
vn -0.674728 -0.738067 -0.000012
vn -0.674725 -0.738069 -0.000012
vn -0.674726 -0.738068 -0.000005
vn -0.674727 -0.738067 -0.000022
vn -0.674712 -0.738081 0.000036
vn -0.674716 -0.738077 -0.000034
vn -0.674749 -0.738048 0.000113
vn 0.809746 0.375954 0.450522
vn 0.809746 0.375954 0.450522
vn 0.809746 0.375954 0.450522
vn 0.769684 -0.566767 0.293873
vn 0.769684 -0.566767 0.293873
vn 0.769683 -0.566768 0.293874
vn 0.769683 -0.566768 0.293875
vn -0.975742 -0.024511 -0.217547
vn -0.975744 -0.024512 -0.217540
vn -0.975742 -0.024511 -0.217547
vn -0.975747 -0.024513 -0.217524
vn 0.641074 -0.708863 0.294171
vn 0.641076 -0.708863 0.294169
vn 0.641079 -0.708863 0.294162
vn 0.641081 -0.708863 0.294157
vn 0.500532 -0.817542 0.284769
vn 0.500532 -0.817541 0.284770
vn 0.500532 -0.817542 0.284769
vn 0.500532 -0.817541 0.284770
vn 0.958030 0.230428 0.170533
vn 0.958030 0.230428 0.170533
vn 0.958030 0.230428 0.170533
vn -0.133572 -0.803174 -0.580577
vn -0.133582 -0.803154 -0.580603
vn -0.133587 -0.803145 -0.580614
vn -0.133587 -0.803145 -0.580615
s 1
g polySurface4
usemtl None
f 5/2/1 4/3/2 2/1/3
f 2/1/3 4/3/2 1/4/4
s 2
f 10/6/5 9/7/6 5/5/7
f 5/5/7 9/7/6 4/8/8
s 3
f 8/9/9 13/10/10 7/12/11
f 7/12/11 13/10/10 12/11/12
s 4
f 12/14/13 11/15/14 7/13/15
f 7/13/15 11/15/14 6/16/16
s 5
f 11/18/17 10/19/18 6/17/19
f 6/17/19 10/19/18 5/20/20
s 6
f 16/22/21 15/23/22 10/21/23
f 10/21/23 15/23/22 9/24/24
s 7
f 13/25/25 19/26/26 12/28/27
f 12/28/27 19/26/26 18/27/28
s 8
f 18/30/29 17/31/30 12/29/31
f 12/29/31 17/31/30 11/32/32
s 9
f 11/33/33 17/34/34 10/36/35
f 10/36/35 17/34/34 16/35/36
s 10
f 17/37/37 22/38/38 16/40/39
f 16/40/39 22/38/38 21/39/40
s 11
f 21/42/41 20/43/42 16/41/43
f 16/41/43 20/43/42 15/44/44
s 12
f 19/45/45 24/46/46 18/48/47
f 18/48/47 24/46/46 23/47/48
s 13
f 23/50/49 22/51/50 18/49/51
f 18/49/51 22/51/50 17/52/52
s 14
f 22/53/53 27/54/54 21/56/55
f 21/56/55 27/54/54 26/55/56
s 15
f 26/58/57 25/59/58 21/57/59
f 21/57/59 25/59/58 20/60/60
s 16
f 24/61/61 29/62/62 23/64/63
f 23/64/63 29/62/62 28/63/64
s 17
f 28/66/65 27/67/66 23/65/67
f 23/65/67 27/67/66 22/68/68
s 18
f 28/69/69 33/70/70 27/72/71
f 27/72/71 33/70/70 32/71/72
s 19
f 32/74/73 31/75/74 27/73/75
f 27/73/75 31/75/74 26/76/76
s 20
f 26/77/77 31/78/78 25/80/79
f 25/80/79 31/78/78 30/79/80
s 21
f 34/82/81 33/83/82 29/81/83
f 29/81/83 33/83/82 28/84/84
s 22
f 39/86/85 38/87/86 34/85/87
f 34/85/87 38/87/86 33/88/88
s 23
f 33/89/89 38/90/90 32/92/91
f 32/92/91 38/90/90 37/91/92
s 24
f 37/94/93 36/95/94 32/93/95
f 32/93/95 36/95/94 31/96/96
s 25
f 31/97/97 36/98/98 30/100/99
f 30/100/99 36/98/98 35/99/100
s 26
f 36/101/101 42/102/102 35/104/103
f 35/104/103 42/102/102 41/103/104
s 27
f 45/106/105 44/107/106 39/105/107
f 39/105/107 44/107/106 38/108/108
s 28
f 38/109/109 44/110/110 37/112/111
f 37/112/111 44/110/110 43/111/112
s 29
f 37/113/113 43/114/114 36/116/115
f 36/116/115 43/114/114 42/115/116
s 30
f 42/117/117 47/118/118 41/120/119
f 41/120/119 47/118/118 46/119/120
s 31
f 50/122/121 49/123/122 45/121/123
f 45/121/123 49/123/122 44/124/124
s 32
f 44/125/125 49/126/126 43/128/127
f 43/128/127 49/126/126 48/127/128
s 33
f 43/129/129 48/130/130 42/132/131
f 42/132/131 48/130/130 47/131/132
s 34
f 49/133/133 52/134/134 48/136/135
f 48/136/135 52/134/134 51/135/136
s off
f 1/137/137 4/3/138 14/138/139
s 35
f 7/140/140 6/141/141 52/139/142
f 52/139/142 6/141/141 51/142/143
s 36
f 6/144/144 5/145/145 51/143/146
f 51/143/146 5/145/145 2/146/147
s 37
f 58/148/148 59/149/149 34/147/150
f 34/147/150 59/149/149 39/150/151
s 38
f 3/151/152 8/152/153 52/154/154
f 52/154/154 8/152/153 7/153/155
s off
f 4/155/156 9/156/157 14/157/158
s 39
f 57/159/159 58/160/160 29/158/161
f 29/158/161 58/160/160 34/161/162
s 40
f 54/163/163 55/164/164 13/162/165
f 13/162/165 55/164/164 19/165/166
s off
f 9/166/167 15/167/168 14/168/169
s 41
f 39/169/170 59/170/171 45/172/172
f 45/172/172 59/170/171 60/171/173
s off
f 15/173/174 20/174/175 14/175/176
s 42
f 50/176/177 61/177/178 3/179/179
f 3/179/179 61/177/178 40/178/180
s off
f 20/180/181 25/181/182 14/182/183
f 25/183/184 30/184/185 14/185/186
s 43
f 45/186/187 60/187/188 50/189/189
f 50/189/189 60/187/188 61/188/190
s off
f 30/190/191 35/191/192 14/192/193
s 44
f 40/194/194 53/195/195 3/193/196
f 3/193/196 53/195/195 8/196/197
s off
f 35/197/198 41/198/199 14/199/200
s 45
f 19/200/201 55/201/202 24/203/203
f 24/203/203 55/201/202 56/202/204
s 46
f 60/206/205 59/207/206 61/205/207
f 59/207/206 58/208/208 61/205/207
f 61/205/207 58/208/208 40/204/209
f 58/208/208 57/209/210 40/204/209
f 40/204/209 57/209/210 53/213/211
f 57/209/210 56/210/212 53/213/211
f 56/210/212 55/211/213 53/213/211
f 55/211/213 54/212/214 53/213/211
s off
f 41/214/215 46/215/216 14/216/217
s 47
f 48/217/218 51/218/219 47/220/220
f 47/220/220 51/218/219 2/219/221
s 48
f 24/221/222 56/222/223 29/224/224
f 29/224/224 56/222/223 57/223/225
s 49
f 47/225/226 2/226/227 46/228/228
f 46/228/228 2/226/227 1/227/229
s 50
f 3/230/230 52/231/231 50/229/232
f 50/229/232 52/231/231 49/232/233
s off
f 46/233/234 1/234/235 14/235/236
s 51
f 53/236/237 54/237/238 8/9/239
f 8/9/239 54/237/238 13/10/240
