# This file uses centimeters as units for non-parametric coordinates.

mtllib PlusleMinunRLeg.mtl
g default
v 0.042470 -0.149581 -0.292554
v 0.181947 -0.149581 -0.220661
v 0.257530 -0.149581 -0.058574
v 0.240351 -0.149581 0.131795
v 0.110030 -0.149581 0.290987
v -0.013125 -0.149581 0.323493
v -0.152601 -0.149581 0.251599
v -0.228185 -0.149581 0.089513
v -0.211005 -0.149581 -0.100856
v -0.109116 -0.149581 -0.224047
v 0.044270 -0.010542 -0.299271
v 0.166411 -0.010542 -0.191313
v 0.232601 -0.010542 -0.049371
v 0.217557 -0.010542 0.117337
v 0.127024 -0.010542 0.280136
v -0.004415 -0.019889 0.356755
v -0.131933 -0.020402 0.274830
v -0.223330 -0.010542 0.090310
v -0.211078 -0.017203 -0.086399
v -0.127966 -0.018871 -0.225062
v 0.017585 -0.309297 -0.205888
v 0.114021 -0.309297 -0.156180
v 0.166281 -0.309297 -0.044110
v 0.154403 -0.309297 0.087514
v 0.082923 -0.309297 0.200808
v -0.020854 -0.309297 0.220057
v -0.117291 -0.309297 0.170349
v -0.169551 -0.309297 0.058280
v -0.172273 -0.309297 -0.073345
v -0.101188 -0.309297 -0.174248
v -0.008086 -0.441235 -0.206041
v 0.086325 -0.441235 -0.149545
v 0.136085 -0.441235 -0.019451
v 0.122188 -0.441235 0.134549
v 0.044627 -0.441235 0.266855
v -0.058373 -0.441235 0.305536
v -0.152784 -0.441235 0.249040
v -0.197231 -0.441235 0.105724
v -0.183333 -0.441235 -0.048277
v -0.111086 -0.441235 -0.167360
v 0.037087 0.040495 -0.240758
v 0.137033 0.040495 -0.152418
v 0.191195 0.040495 -0.036269
v 0.178885 0.040495 0.100146
v 0.104804 0.040495 0.233361
v -0.002751 0.040495 0.266153
v -0.107096 0.032427 0.229019
v -0.181885 0.040495 0.078030
v -0.171859 0.035044 -0.066568
v -0.103851 0.033680 -0.180034
vt 0.647931 0.667463
vt 0.906756 0.667463
vt 0.906756 0.926287
vt 0.647931 0.926287
vt 0.647931 0.667463
vt 0.906756 0.667463
vt 0.906756 0.926287
vt 0.647931 0.926287
vt 0.647931 0.667463
vt 0.906756 0.667463
vt 0.906756 0.926287
vt 0.647931 0.926287
vt 0.647931 0.667463
vt 0.906756 0.926287
vt 0.647931 0.926287
vt 0.647931 0.667463
vt 0.906756 0.667463
vt 0.906756 0.926287
vt 0.647931 0.926287
vt 0.647931 0.667463
vt 0.906756 0.667463
vt 0.906756 0.926287
vt 0.647931 0.926287
vt 0.647931 0.667463
vt 0.906756 0.667463
vt 0.906756 0.926287
vt 0.647931 0.926287
vt 0.647931 0.667463
vt 0.906756 0.667463
vt 0.906756 0.926287
vt 0.647931 0.926287
vt 0.647931 0.667463
vt 0.906756 0.667463
vt 0.906756 0.926287
vt 0.647931 0.926287
vt 0.647931 0.667463
vt 0.906756 0.667463
vt 0.906756 0.926287
vt 0.647931 0.926287
vt 0.647931 0.667463
vt 0.906756 0.667463
vt 0.906756 0.926287
vt 0.647931 0.926287
vt 0.906756 0.667463
vt 0.906756 0.926287
vt 0.647931 0.926287
vt 0.647931 0.667463
vt 0.906756 0.667463
vt 0.906756 0.926287
vt 0.647931 0.926287
vt 0.647931 0.667463
vt 0.906756 0.667463
vt 0.906756 0.926287
vt 0.647931 0.926287
vt 0.647931 0.667463
vt 0.906756 0.667463
vt 0.906756 0.926287
vt 0.647931 0.926287
vt 0.647931 0.667463
vt 0.906756 0.667463
vt 0.906756 0.926287
vt 0.647931 0.926287
vt 0.647931 0.667463
vt 0.906756 0.667463
vt 0.906756 0.926287
vt 0.647931 0.926287
vt 0.647931 0.667463
vt 0.906756 0.667463
vt 0.906756 0.926287
vt 0.647931 0.926287
vt 0.647931 0.667463
vt 0.906756 0.667463
vt 0.906756 0.926287
vt 0.647931 0.926287
vt 0.647931 0.667463
vt 0.906756 0.667463
vt 0.906756 0.926287
vt 0.647931 0.926287
vt 0.647931 0.667463
vt 0.906756 0.667463
vt 0.906756 0.926287
vt 0.647931 0.926287
vt 0.647931 0.667463
vt 0.906756 0.667463
vt 0.906756 0.926287
vt 0.647931 0.926287
vt 0.777344 0.926287
vt 0.853410 0.901572
vt 0.900422 0.836866
vt 0.900422 0.756884
vt 0.853410 0.692178
vt 0.777344 0.667463
vt 0.701277 0.692178
vt 0.654265 0.756884
vt 0.654265 0.836866
vt 0.701277 0.901572
vt 0.647931 0.667463
vt 0.906756 0.667463
vt 0.906756 0.926287
vt 0.647931 0.926287
vt 0.647931 0.667463
vt 0.906756 0.667463
vt 0.906756 0.926287
vt 0.647931 0.926287
vt 0.647931 0.667463
vt 0.906756 0.667463
vt 0.906756 0.926287
vt 0.647931 0.926287
vt 0.647931 0.667463
vt 0.906756 0.667463
vt 0.906756 0.926287
vt 0.647931 0.926287
vt 0.647931 0.667463
vt 0.906756 0.667463
vt 0.906756 0.926287
vt 0.647931 0.926287
vt 0.647931 0.667463
vt 0.906756 0.667463
vt 0.906756 0.926287
vt 0.647931 0.926287
vt 0.647931 0.667463
vt 0.906756 0.667463
vt 0.906756 0.926287
vt 0.647931 0.926287
vt 0.647931 0.667463
vt 0.906756 0.667463
vt 0.906756 0.926287
vt 0.647931 0.926287
vt 0.647931 0.667463
vt 0.906756 0.667463
vt 0.906756 0.926287
vt 0.647931 0.926287
vt 0.777344 0.926287
vt 0.853410 0.901572
vt 0.900422 0.836866
vt 0.900422 0.756884
vt 0.853410 0.692178
vt 0.777344 0.667463
vt 0.701277 0.692178
vt 0.654265 0.756884
vt 0.654265 0.836866
vt 0.701277 0.901572
vt 0.647931 0.667463
vt 0.906756 0.667463
vt 0.906756 0.926287
vt 0.647931 0.926287
vt 0.647931 0.667463
vt 0.906756 0.667463
vt 0.906756 0.926287
vt 0.647931 0.926287
vt 0.647931 0.667463
vt 0.906756 0.667463
vt 0.906756 0.926287
vt 0.647931 0.926287
vt 0.647931 0.667463
vt 0.906756 0.667463
vt 0.906756 0.926287
vt 0.647931 0.926287
vt 0.647931 0.667463
vt 0.906756 0.667463
vt 0.906756 0.926287
vt 0.647931 0.926287
vt 0.647931 0.667463
vt 0.906756 0.667463
vt 0.906756 0.926287
vt 0.647931 0.926287
vt 0.647931 0.667463
vt 0.906756 0.667463
vt 0.906756 0.926287
vt 0.647931 0.926287
vt 0.647931 0.667463
vt 0.906756 0.667463
vt 0.906756 0.926287
vt 0.647931 0.926287
vt 0.647931 0.667463
vt 0.906756 0.667463
vt 0.906756 0.926287
vt 0.647931 0.926287
vn 0.215094 -0.538174 0.814925
vn 0.182327 -0.520005 0.834477
vn 0.199061 -0.529377 0.824703
vn 0.157341 -0.505654 0.848268
vn -0.653853 0.642470 -0.399635
vn -0.653849 0.642481 -0.399625
vn -0.653852 0.642474 -0.399632
vn -0.653846 0.642487 -0.399619
vn 0.246682 -0.256263 0.934600
vn 0.404094 -0.104252 0.908757
vn 0.401182 -0.107295 0.909693
vn 0.503284 0.005923 0.864101
vn -0.456465 -0.086222 0.885554
vn -0.498195 -0.135584 0.856399
vn -0.490707 -0.126556 0.862085
vn -0.531505 -0.176765 0.828406
vn -0.905917 0.029211 0.422447
vn -0.897751 0.050890 0.437554
vn -0.900663 0.043370 0.432349
vn -0.892996 0.062727 0.445673
vn 0.457618 -0.048815 -0.887808
vn 0.558196 0.086162 -0.825223
vn 0.573328 0.108565 -0.812101
vn 0.645108 0.226140 -0.729860
vn -0.995910 0.009267 -0.089877
vn -0.996613 0.024449 -0.078519
vn -0.996418 0.019393 -0.082305
vn -0.996894 0.035213 -0.070446
vn 0.890300 0.187111 -0.415157
vn 0.890300 0.187109 -0.415159
vn 0.890299 0.187108 -0.415159
vn 0.890299 0.187106 -0.415162
vn -0.765446 -0.115303 -0.633086
vn -0.822356 -0.017956 -0.568690
vn -0.810880 -0.039669 -0.583867
vn -0.856103 0.055641 -0.513801
vn 0.981438 0.170106 0.088565
vn 0.981438 0.170105 0.088566
vn 0.981438 0.170106 0.088566
vn 0.981438 0.170105 0.088567
vn -0.411522 -0.038663 -0.910579
vn -0.399782 -0.054016 -0.915017
vn -0.403032 -0.049788 -0.913831
vn -0.392288 -0.063699 -0.917634
vn 0.772996 -0.045093 0.632806
vn 0.830446 0.090378 0.549719
vn 0.811854 0.040284 0.582469
vn 0.857988 0.190273 0.477130
vn -0.383548 0.546984 0.744110
vn -0.407029 0.564713 0.717932
vn -0.398219 0.558109 0.727967
vn -0.420280 0.574537 0.702333
vn -0.400867 -0.484253 0.777692
vn -0.400865 -0.484252 0.777693
vn -0.400864 -0.484251 0.777694
vn -0.400861 -0.484249 0.777698
vn -0.836975 -0.383589 0.390298
vn -0.836975 -0.383589 0.390298
vn -0.836975 -0.383589 0.390298
vn -0.836975 -0.383589 0.390298
vn 0.400821 -0.484409 -0.777619
vn 0.400822 -0.484408 -0.777619
vn 0.400822 -0.484408 -0.777619
vn 0.400824 -0.484407 -0.777618
vn -0.940608 -0.328711 -0.084886
vn -0.953236 -0.297943 -0.050716
vn -0.954378 -0.294831 -0.047295
vn -0.972423 -0.232354 0.020110
vn 0.792082 -0.485984 -0.369357
vn 0.792082 -0.485984 -0.369358
vn 0.792082 -0.485984 -0.369358
vn 0.792082 -0.485982 -0.369360
vn -0.749820 -0.230584 -0.620162
vn -0.766203 -0.255979 -0.589413
vn -0.762519 -0.250114 -0.596664
vn -0.783575 -0.285107 -0.552019
vn 0.868653 -0.489181 0.078388
vn 0.868653 -0.489181 0.078388
vn 0.868653 -0.489181 0.078388
vn 0.868653 -0.489180 0.078389
vn -0.378294 -0.395266 -0.837054
vn -0.321712 -0.355009 -0.877764
vn -0.338264 -0.366869 -0.866594
vn -0.245586 -0.299637 -0.921903
vn 0.695128 -0.439280 0.569060
vn 0.707988 -0.470130 0.527002
vn 0.706100 -0.465365 0.533721
vn 0.724236 -0.516419 0.456939
vn 0.000000 -1.000000 0.000000
vn 0.000000 -1.000000 0.000000
vn 0.000000 -1.000000 0.000000
vn 0.000000 -1.000000 0.000000
vn 0.000000 -1.000000 0.000000
vn 0.000000 -1.000000 0.000000
vn 0.000000 -1.000000 0.000000
vn 0.000000 -1.000000 0.000000
vn 0.000000 -1.000000 0.000000
vn 0.000000 -1.000000 0.000000
vn -0.857510 0.323694 0.399874
vn -0.871382 0.370365 0.321749
vn -0.870218 0.365387 0.330474
vn -0.876289 0.397821 0.271766
vn 0.453687 -0.139499 -0.880175
vn 0.486906 -0.116017 -0.865715
vn 0.478824 -0.121810 -0.869420
vn 0.510995 -0.098433 -0.853929
vn -0.995960 0.087402 0.020596
vn -0.989934 0.135747 -0.040043
vn -0.989587 0.137567 -0.042342
vn -0.980772 0.173934 -0.088511
vn 0.886690 -0.206924 -0.413478
vn 0.894529 -0.241495 -0.376161
vn 0.894811 -0.242955 -0.374549
vn 0.899292 -0.270104 -0.343973
vn -0.817105 0.031247 -0.575641
vn -0.838710 -0.000908 -0.544577
vn -0.838273 -0.000225 -0.545251
vn -0.854649 -0.026874 -0.518511
vn 0.974469 -0.206586 0.087938
vn 0.974469 -0.206586 0.087937
vn 0.974469 -0.206586 0.087937
vn 0.974469 -0.206585 0.087936
vn -0.257077 0.051138 -0.965037
vn -0.305077 0.014179 -0.952222
vn -0.296470 0.020877 -0.954814
vn -0.351481 -0.022493 -0.935925
vn 0.845627 -0.016276 0.533527
vn 0.854926 -0.006069 0.518714
vn 0.855340 -0.005607 0.518037
vn 0.862688 0.002762 0.505729
vn 0.166975 0.402171 0.900210
vn 0.224519 0.422836 0.877953
vn 0.264681 0.436383 0.859950
vn 0.313629 0.451874 0.835133
vn -0.032469 0.998798 0.036734
vn -0.026210 0.999494 -0.018036
vn -0.018831 0.999800 0.006704
vn -0.007739 0.999670 -0.024511
vn -0.015155 0.999884 0.001702
vn -0.011631 0.999932 0.000949
vn 0.000007 1.000000 -0.000118
vn -0.012699 0.999328 0.034383
vn -0.050142 0.997234 -0.054864
vn 0.000000 1.000000 0.000000
vn 0.783432 0.617444 0.070698
vn 0.783432 0.617443 0.070698
vn 0.783433 0.617442 0.070697
vn 0.783434 0.617441 0.070697
vn -0.312012 0.696683 -0.645973
vn -0.312011 0.696681 -0.645976
vn -0.312012 0.696683 -0.645974
vn -0.312011 0.696680 -0.645977
vn 0.673842 0.636803 0.374725
vn 0.673841 0.636805 0.374724
vn 0.673841 0.636804 0.374725
vn 0.673840 0.636806 0.374724
vn 0.257279 0.801925 0.539188
vn 0.237420 0.767017 0.596085
vn 0.248180 0.786142 0.566028
vn 0.205842 0.708383 0.675146
vn -0.336000 0.786582 0.518066
vn -0.327385 0.772100 0.544684
vn -0.317912 0.755934 0.572273
vn -0.286599 0.701015 0.653023
vn -0.676080 0.637796 0.368960
vn -0.676080 0.637796 0.368960
vn -0.676081 0.637795 0.368961
vn -0.676081 0.637795 0.368961
vn 0.479607 0.689599 -0.542615
vn 0.479607 0.689598 -0.542615
vn 0.479607 0.689598 -0.542616
vn 0.479607 0.689597 -0.542617
vn -0.782988 0.617184 -0.077553
vn -0.782993 0.617177 -0.077555
vn -0.782989 0.617182 -0.077553
vn -0.782995 0.617174 -0.077557
vn 0.692674 0.644879 -0.323006
vn 0.692674 0.644880 -0.323005
vn 0.692674 0.644881 -0.323005
vn 0.692673 0.644882 -0.323004
s 1
g polySurface6
usemtl None
f 6/2/1 26/3/2 5/1/3
f 5/1/3 26/3/2 25/4/4
s 2
f 20/5/5 19/6/6 50/8/7
f 50/8/7 19/6/6 49/7/8
s 3
f 6/9/9 5/10/10 16/12/11
f 16/12/11 5/10/10 15/11/12
s 4
f 7/13/13 6/2/14 17/15/15
f 17/15/15 6/2/14 16/14/16
s 5
f 8/16/17 7/17/18 18/19/19
f 18/19/19 7/17/18 17/18/20
s 6
f 1/21/21 11/22/22 2/20/23
f 2/20/23 11/22/22 12/23/24
s 7
f 9/24/25 8/25/26 19/27/27
f 19/27/27 8/25/26 18/26/28
s 8
f 2/29/29 12/30/30 3/28/31
f 3/28/31 12/30/30 13/31/32
s 9
f 10/32/33 9/33/34 20/35/35
f 20/35/35 9/33/34 19/34/36
s 10
f 4/36/37 3/37/38 14/39/39
f 14/39/39 3/37/38 13/38/40
s 11
f 1/40/41 10/41/42 11/43/43
f 11/43/43 10/41/42 20/42/44
s 12
f 5/1/45 4/44/46 15/46/47
f 15/46/47 4/44/46 14/45/48
s 13
f 27/48/49 37/49/50 26/47/51
f 26/47/51 37/49/50 36/50/52
s 14
f 6/51/53 7/52/54 26/54/55
f 26/54/55 7/52/54 27/53/56
s 15
f 7/55/57 8/56/58 27/58/59
f 27/58/59 8/56/58 28/57/60
s 16
f 2/60/61 22/61/62 1/59/63
f 1/59/63 22/61/62 21/62/64
s 17
f 8/63/65 9/64/66 28/66/67
f 28/66/67 9/64/66 29/65/68
s 18
f 2/67/69 3/68/70 22/70/71
f 22/70/71 3/68/70 23/69/72
s 19
f 10/72/73 30/73/74 9/71/75
f 9/71/75 30/73/74 29/74/76
s 20
f 4/76/77 24/77/78 3/75/79
f 3/75/79 24/77/78 23/78/80
s 21
f 1/80/81 21/81/82 10/79/83
f 10/79/83 21/81/82 30/82/84
s 22
f 5/84/85 25/85/86 4/83/87
f 4/83/87 25/85/86 24/86/88
s 23
f 36/90/89 37/91/90 35/89/91
f 37/91/90 38/92/92 35/89/91
f 35/89/91 38/92/92 34/88/93
f 34/88/93 38/92/92 33/87/94
f 38/92/92 39/93/95 33/87/94
f 33/87/94 39/93/95 32/96/96
f 39/93/95 40/94/97 32/96/96
f 40/94/97 31/95/98 32/96/96
s 24
f 28/98/99 38/99/100 27/97/101
f 27/97/101 38/99/100 37/100/102
s 25
f 22/102/103 32/103/104 21/101/105
f 21/101/105 32/103/104 31/104/106
s 26
f 29/106/107 39/107/108 28/105/109
f 28/105/109 39/107/108 38/108/110
s 27
f 22/109/111 23/110/112 32/112/113
f 32/112/113 23/110/112 33/111/114
s 28
f 30/114/115 40/115/116 29/113/117
f 29/113/117 40/115/116 39/116/118
s 29
f 23/117/119 24/118/120 33/120/121
f 33/120/121 24/118/120 34/119/122
s 30
f 21/122/123 31/123/124 30/121/125
f 30/121/125 31/123/124 40/124/126
s 31
f 24/125/127 25/126/128 34/128/129
f 34/128/129 25/126/128 35/127/130
s 32
f 25/129/131 26/130/132 35/132/133
f 35/132/133 26/130/132 36/131/134
s 33
f 41/135/135 50/136/136 42/134/137
f 50/136/136 49/137/138 42/134/137
f 42/134/137 49/137/138 43/133/139
f 43/133/139 49/137/138 44/142/140
f 49/137/138 48/138/141 44/142/140
f 48/138/141 47/139/142 44/142/140
f 47/139/142 46/140/143 44/142/140
f 46/140/143 45/141/144 44/142/140
s 34
f 13/144/145 43/145/146 14/143/147
f 14/143/147 43/145/146 44/146/148
s 35
f 11/147/149 20/148/150 41/150/151
f 41/150/151 20/148/150 50/149/152
s 36
f 15/151/153 14/152/154 45/154/155
f 45/154/155 14/152/154 44/153/156
s 37
f 16/155/157 15/156/158 46/158/159
f 46/158/159 15/156/158 45/157/160
s 38
f 16/160/161 46/161/162 17/159/163
f 17/159/163 46/161/162 47/162/164
s 39
f 17/164/165 47/165/166 18/163/167
f 18/163/167 47/165/166 48/166/168
s 40
f 11/168/169 41/169/170 12/167/171
f 12/167/171 41/169/170 42/170/172
s 41
f 19/171/173 18/172/174 49/174/175
f 49/174/175 18/172/174 48/173/176
s 42
f 12/176/177 42/177/178 13/175/179
f 13/175/179 42/177/178 43/178/180
