# This file uses centimeters as units for non-parametric coordinates.

mtllib VolcaronaBackR.mtl
g default
v -2.212482 1.961244 -0.225932
v -0.992952 1.120780 -0.297374
v -1.212948 1.788329 0.119893
v -0.970728 0.242383 -0.466555
v -0.009660 0.005295 0.006526
v -0.088005 1.361655 0.660419
v -1.087485 -0.767214 -0.219566
v -1.275813 -1.500915 0.101695
v -0.149995 -1.347710 0.472319
v -1.998299 -0.194014 -1.110164
v -2.001102 0.605158 -0.940005
v -2.224426 -1.331882 -0.543745
vt 0.030501 0.057248
vt 0.038562 0.085165
vt 0.045876 0.090648
vt 0.055025 0.116899
vt 0.073436 0.118297
vt 0.061915 0.091201
vt 0.108671 0.084275
vt 0.087143 0.088691
vt 0.110007 0.115597
vt 0.062135 0.062178
vt 0.047783 0.062178
vt 0.095823 0.057248
vn 0.354423 0.576836 -0.735965
vn 0.520866 0.430827 -0.736944
vn 0.549360 0.374131 -0.747148
vn 0.520866 0.430827 -0.736944
vn 0.568411 0.380035 -0.729714
vn 0.549360 0.374131 -0.747148
vn 0.568411 0.380035 -0.729714
vn 0.568411 0.380035 -0.729714
vn 0.549360 0.374131 -0.747148
vn 0.549360 0.374131 -0.747148
vn 0.568411 0.380035 -0.729714
vn 0.552728 0.346794 -0.757777
vn 0.397099 -0.366726 -0.841323
vn 0.411144 -0.343316 -0.844449
vn 0.383359 -0.342982 -0.857554
vn 0.383359 -0.342982 -0.857554
vn 0.411144 -0.343316 -0.844449
vn 0.383359 -0.342982 -0.857554
vn 0.383359 -0.342982 -0.857554
vn 0.411144 -0.343316 -0.844449
vn 0.436469 -0.323169 -0.839676
vn 0.588830 -0.255675 -0.766753
vn 0.436469 -0.323169 -0.839676
vn 0.411144 -0.343316 -0.844449
vn 0.549360 0.374131 -0.747148
vn 0.552728 0.346794 -0.757777
vn 0.462118 0.178981 -0.868569
vn 0.411144 -0.343316 -0.844449
vn 0.397099 -0.366726 -0.841323
vn 0.445098 -0.452584 -0.772694
s off
g polySurface5
usemtl None
f 1/1/1 3/2/2 2/3/3
f 3/2/4 6/4/5 2/3/6
f 6/4/7 5/5/8 2/3/9
f 2/3/10 5/5/11 4/6/12
f 8/7/13 7/8/14 9/9/15
f 9/9/16 7/8/17 5/5/18
f 5/5/19 7/8/20 4/6/21
f 10/10/22 4/6/23 7/8/24
f 2/3/25 4/6/26 11/11/27
f 7/8/28 8/7/29 12/12/30
