# This file uses centimeters as units for non-parametric coordinates.

mtllib VolcaronaBack1.mtl
g default
v 0.959667 0.242383 -0.466555
v 0.981891 1.120780 -0.297374
v 1.201887 1.788329 0.119893
v 2.201421 1.961244 -0.225932
v -0.001401 0.005295 0.006526
v 0.076945 1.361655 0.660419
v 1.264753 -1.500915 0.101695
v 0.138934 -1.347710 0.472319
v 1.987238 -0.194014 -1.110164
v 1.076424 -0.767214 -0.219566
v 1.990041 0.605158 -0.940005
v 2.213366 -1.331882 -0.543745
vt 0.030501 0.057248
vt 0.045876 0.090648
vt 0.038562 0.085165
vt 0.055025 0.116899
vt 0.073436 0.118297
vt 0.061915 0.091201
vt 0.087143 0.088691
vt 0.110007 0.115597
vt 0.108671 0.084275
vt 0.062135 0.062178
vt 0.047783 0.062178
vt 0.095823 0.057248
vn -0.354423 0.576836 -0.735965
vn -0.549360 0.374131 -0.747148
vn -0.520866 0.430827 -0.736944
vn -0.520866 0.430827 -0.736944
vn -0.549360 0.374131 -0.747148
vn -0.568411 0.380035 -0.729714
vn -0.568411 0.380035 -0.729714
vn -0.549360 0.374131 -0.747148
vn -0.568411 0.380035 -0.729714
vn -0.549360 0.374131 -0.747148
vn -0.552728 0.346794 -0.757777
vn -0.568411 0.380035 -0.729714
vn -0.436469 -0.323169 -0.839677
vn -0.411144 -0.343316 -0.844449
vn -0.383358 -0.342981 -0.857555
vn -0.383358 -0.342981 -0.857555
vn -0.411144 -0.343316 -0.844449
vn -0.383358 -0.342981 -0.857555
vn -0.411144 -0.343316 -0.844449
vn -0.397099 -0.366726 -0.841323
vn -0.383358 -0.342981 -0.857555
vn -0.588830 -0.255675 -0.766753
vn -0.411144 -0.343316 -0.844449
vn -0.436469 -0.323169 -0.839677
vn -0.549360 0.374131 -0.747148
vn -0.462118 0.178981 -0.868569
vn -0.552728 0.346794 -0.757777
vn -0.411144 -0.343316 -0.844449
vn -0.445098 -0.452583 -0.772694
vn -0.397099 -0.366726 -0.841323
s off
g polySurface4
usemtl None
f 4/1/1 2/2/2 3/3/3
f 3/3/4 2/2/5 6/4/6
f 6/4/7 2/2/8 5/5/9
f 2/2/10 1/6/11 5/5/12
f 1/6/13 10/7/14 5/5/15
f 5/5/16 10/7/17 8/8/18
f 10/7/19 7/9/20 8/8/21
f 9/10/22 10/7/23 1/6/24
f 2/2/25 11/11/26 1/6/27
f 10/7/28 12/12/29 7/9/30
