# This file uses centimeters as units for non-parametric coordinates.

mtllibRLeg.mtl
g default
v 5.427400 -6.224700 4.378799
v -4.257500 -6.232200 -5.308300
v 4.738700 -6.228400 -13.025300
v 11.529600 -6.228400 -5.868900
v -13.009998 -3.713600 9.335600
v -14.986198 -6.228400 9.702400
v -9.596201 -6.228400 15.092400
v -9.267900 -3.713600 13.077700
v -6.315399 -0.626000 -0.145100
v 0.232100 -0.626000 6.402399
v -1.228399 -6.224900 11.018400
v -10.899401 -6.232000 1.349900
v 9.867200 -0.714700 -5.669400
v 6.007000 1.033700 0.116600
v 4.617500 0.908900 -10.693300
v 0.068501 2.089100 -5.242800
vt 0.123600 0.568500
vt 0.261000 0.568400
vt 0.133400 0.568500
vt 0.133400 0.568500
vt 0.037000 0.568500
vt 0.123600 0.568500
vt 0.385200 0.606100
vt 0.413200 0.568500
vt 0.336700 0.568500
vt 0.336700 0.568500
vt 0.332100 0.606100
vt 0.385200 0.606100
vt 0.115400 0.677200
vt 0.123600 0.568500
vt 0.037000 0.568500
vt 0.037000 0.568500
vt 0.060600 0.651000
vt 0.115400 0.677200
vt 0.371900 0.485300
vt 0.395500 0.402700
vt 0.299100 0.402700
vt 0.299100 0.402700
vt 0.297400 0.509600
vt 0.371900 0.485300
vt 0.297400 0.509600
vt 0.299100 0.402700
vt 0.171500 0.402600
vt 0.171500 0.402600
vt 0.232900 0.527200
vt 0.297400 0.509600
vt 0.115400 0.677200
vt 0.199600 0.693000
vt 0.290200 0.652400
vt 0.290200 0.652400
vt 0.197300 0.652400
vt 0.115400 0.677200
vt 0.123600 0.568500
vt 0.115400 0.677200
vt 0.197300 0.652400
vt 0.197300 0.652400
vt 0.218000 0.568500
vt 0.123600 0.568500
vt 0.261000 0.568400
vt 0.123600 0.568500
vt 0.218000 0.568500
vt 0.218000 0.568500
vt 0.355200 0.568400
vt 0.261000 0.568400
vt 0.171500 0.402600
vt 0.077300 0.402600
vt 0.142300 0.486600
vt 0.142300 0.486600
vt 0.232900 0.527200
vt 0.171500 0.402600
vt 0.332100 0.606100
vt 0.197300 0.652400
vt 0.290200 0.652400
vt 0.290200 0.652400
vt 0.385200 0.606100
vt 0.332100 0.606100
vt 0.218000 0.568500
vt 0.197300 0.652400
vt 0.332100 0.606100
vt 0.332100 0.606100
vt 0.336700 0.568500
vt 0.218000 0.568500
vt 0.413200 0.568500
vt 0.355200 0.568400
vt 0.218000 0.568500
vt 0.218000 0.568500
vt 0.336700 0.568500
vt 0.413200 0.568500
vt 0.047300 0.440300
vt 0.142300 0.486600
vt 0.077300 0.402600
vt 0.077300 0.402600
vt 0.019300 0.402700
vt 0.047300 0.440300
vt 0.567892 0.600980
vt 0.639473 0.555594
vt 0.637356 0.613759
vt 0.628999 0.665977
vn 0.000600 -1.000000 0.000200
vn 0.000600 -1.000000 0.000200
vn 0.000600 -1.000000 0.000200
vn -0.000300 -1.000000 0.000200
vn -0.000300 -1.000000 0.000200
vn -0.000300 -1.000000 0.000200
vn -0.599833 0.529529 0.599833
vn -0.599833 0.529529 0.599833
vn -0.599833 0.529529 0.599833
vn -0.599833 0.529529 0.599833
vn -0.599833 0.529529 0.599833
vn -0.599833 0.529529 0.599833
vn 0.839214 0.214504 0.499708
vn 0.839214 0.214504 0.499708
vn 0.839214 0.214504 0.499708
vn 0.842209 0.223803 0.490506
vn 0.842209 0.223803 0.490506
vn 0.842209 0.223803 0.490506
vn 0.706805 0.224902 -0.670705
vn 0.706805 0.224902 -0.670705
vn 0.706805 0.224902 -0.670705
vn 0.711008 0.218402 -0.668407
vn 0.711008 0.218402 -0.668407
vn 0.711008 0.218402 -0.668407
vn -0.635329 0.219010 -0.740534
vn -0.635329 0.219010 -0.740534
vn -0.635329 0.219010 -0.740534
vn -0.681998 0.340799 -0.647098
vn -0.681998 0.340799 -0.647098
vn -0.681998 0.340799 -0.647098
vn -0.139197 0.927481 0.346993
vn -0.139197 0.927481 0.346993
vn -0.139197 0.927481 0.346993
vn -0.142292 0.979544 0.142292
vn -0.142292 0.979544 0.142292
vn -0.142292 0.979544 0.142292
vn 0.646275 0.333087 0.686573
vn 0.646275 0.333087 0.686573
vn 0.646275 0.333087 0.686573
vn 0.660516 0.354008 0.662116
vn 0.660516 0.354008 0.662116
vn 0.660516 0.354008 0.662116
vn 0.000400 -1.000000 0.000400
vn 0.000400 -1.000000 0.000400
vn 0.000400 -1.000000 0.000400
vn 0.000400 -1.000000 0.000400
vn 0.000400 -1.000000 0.000400
vn 0.000400 -1.000000 0.000400
vn -0.663974 0.346986 -0.662374
vn -0.663974 0.346986 -0.662374
vn -0.663974 0.346986 -0.662374
vn -0.675198 0.337499 -0.655898
vn -0.675198 0.337499 -0.655898
vn -0.675198 0.337499 -0.655898
vn -0.193802 0.961708 0.193802
vn -0.193802 0.961708 0.193802
vn -0.193802 0.961708 0.193802
vn -0.193802 0.961708 0.193802
vn -0.193802 0.961708 0.193802
vn -0.193802 0.961708 0.193802
vn 0.368003 0.514204 0.774705
vn 0.368003 0.514204 0.774705
vn 0.368003 0.514204 0.774705
vn 0.370390 0.532085 0.761378
vn 0.370390 0.532085 0.761378
vn 0.370390 0.532085 0.761378
vn 0.000200 -1.000000 0.000600
vn 0.000200 -1.000000 0.000600
vn 0.000200 -1.000000 0.000600
vn 0.000300 -1.000000 -0.000300
vn 0.000300 -1.000000 -0.000300
vn 0.000300 -1.000000 -0.000300
vn -0.776508 0.507105 -0.374004
vn -0.776508 0.507105 -0.374004
vn -0.776508 0.507105 -0.374004
vn -0.767426 0.519517 -0.375712
vn -0.767426 0.519517 -0.375712
vn -0.767426 0.519517 -0.375712
vn 0.269025 0.956870 -0.109662
vn 0.272692 0.960752 -0.050943
vn 0.273043 0.960978 -0.044363
vn 0.275926 0.960922 0.022219
s off
g RLeg
usemtl None
f 1/1/1 2/2/2 3/3/3
f 3/4/4 4/5/5 1/6/6
f 5/7/7 6/8/8 7/9/9
f 7/10/10 8/11/11 5/12/12
f 14/13/13 1/14/14 4/15/15
f 4/16/16 13/17/17 14/18/18
f 13/19/19 4/20/20 3/21/21
f 3/22/22 15/23/23 13/24/24
f 15/25/25 3/26/26 2/27/27
f 2/28/28 16/29/29 15/30/30
f 14/31/31 16/32/32 9/33/33
f 9/34/34 10/35/35 14/36/36
f 1/37/37 14/38/38 10/39/39
f 10/40/40 11/41/41 1/42/42
f 2/43/43 1/44/44 11/45/45
f 11/46/46 12/47/47 2/48/48
f 2/49/49 12/50/50 9/51/51
f 9/52/52 16/53/53 2/54/54
f 8/55/55 10/56/56 9/57/57
f 9/58/58 5/59/59 8/60/60
f 11/61/61 10/62/62 8/63/63
f 8/64/64 7/65/65 11/66/66
f 6/67/67 12/68/68 11/69/69
f 11/70/70 7/71/71 6/72/72
f 5/73/73 9/74/74 12/75/75
f 12/76/76 6/77/77 5/78/78
s 1
f 14/80/79 13/81/80 16/79/81
f 16/79/81 13/81/80 15/82/82
