# This file uses centimeters as units for non-parametric coordinates.

mtllibRArm.mtl
g default
v -8.159401 -2.905199 5.740700
v -4.638901 -3.555000 8.903400
v -4.201500 -7.161600 6.720200
v -7.631500 -6.559700 3.728600
v -6.125099 -4.934401 8.882702
v -5.938202 -6.849701 7.719601
v -7.878201 -6.605700 6.109001
v -8.076599 -4.672001 7.203201
v 3.088301 3.129299 5.864899
v -4.279301 5.110201 -1.119499
v 4.397600 -4.969900 0.811199
v -2.444000 -3.163200 -5.613100
vt 0.652500 0.820800
vt 0.754900 0.890100
vt 0.792500 0.849300
vt 0.792500 0.849300
vt 0.728300 0.757800
vt 0.652500 0.820800
vt 0.750600 0.745800
vt 0.792500 0.849300
vt 0.857300 0.851300
vt 0.857300 0.851300
vt 0.857400 0.741900
vt 0.750600 0.745800
vt 0.891800 0.747400
vt 0.857300 0.851300
vt 0.900900 0.883500
vt 0.900900 0.883500
vt 0.971000 0.775600
vt 0.891800 0.747400
vt 0.638600 0.951500
vt 0.767200 0.952100
vt 0.754900 0.890100
vt 0.754900 0.890100
vt 0.640100 0.844500
vt 0.638600 0.951500
vt 0.857300 0.851300
vt 0.792500 0.849300
vt 0.820800 0.897600
vt 0.820800 0.897600
vt 0.850900 0.891400
vt 0.857300 0.851300
vt 0.754900 0.890100
vt 0.767200 0.952100
vt 0.801200 0.945100
vt 0.801200 0.945100
vt 0.803100 0.915300
vt 0.754900 0.890100
vt 0.900900 0.883500
vt 0.857300 0.851300
vt 0.850900 0.891400
vt 0.850900 0.891400
vt 0.875400 0.907100
vt 0.900900 0.883500
vt 0.792500 0.849300
vt 0.754900 0.890100
vt 0.803100 0.915300
vt 0.803100 0.915300
vt 0.820800 0.897600
vt 0.792500 0.849300
vt 0.343800 0.706400
vt 0.353200 0.671400
vt 0.312400 0.671700
vt 0.312400 0.671700
vt 0.305200 0.706300
vt 0.343800 0.706400
vt 0.648033 0.728778
vt 0.690679 0.729760
vt 0.682309 0.760165
vt 0.633128 0.764552
vn -0.411908 0.680413 0.606111
vn -0.411908 0.680413 0.606111
vn -0.411908 0.680413 0.606111
vn -0.386782 0.688068 0.613972
vn -0.386782 0.688068 0.613972
vn -0.386782 0.688068 0.613972
vn 0.599310 -0.345306 0.722212
vn 0.599310 -0.345306 0.722212
vn 0.599310 -0.345306 0.722212
vn 0.593028 -0.340516 0.729635
vn 0.593028 -0.340516 0.729635
vn 0.593028 -0.340516 0.729635
vn 0.066001 -0.958019 -0.279005
vn 0.066001 -0.958019 -0.279005
vn 0.066001 -0.958019 -0.279005
vn 0.050500 -0.941503 -0.333201
vn 0.050500 -0.941503 -0.333201
vn 0.050500 -0.941503 -0.333201
vn -0.886417 0.112902 -0.448908
vn -0.886417 0.112902 -0.448908
vn -0.886417 0.112902 -0.448908
vn -0.891931 0.044102 -0.450016
vn -0.891931 0.044102 -0.450016
vn -0.891931 0.044102 -0.450016
vn 0.400788 -0.420687 0.813875
vn 0.400788 -0.420687 0.813875
vn 0.400788 -0.420687 0.813875
vn 0.386579 -0.432876 0.814356
vn 0.386579 -0.432876 0.814356
vn 0.386579 -0.432876 0.814356
vn -0.991215 -0.081201 -0.104402
vn -0.991215 -0.081201 -0.104402
vn -0.991215 -0.081201 -0.104402
vn -0.996347 -0.075504 -0.039902
vn -0.996347 -0.075504 -0.039902
vn -0.996347 -0.075504 -0.039902
vn -0.184602 -0.982809 0.002900
vn -0.184602 -0.982809 0.002900
vn -0.184602 -0.982809 0.002900
vn -0.105997 -0.993874 -0.031299
vn -0.105997 -0.993874 -0.031299
vn -0.105997 -0.993874 -0.031299
vn -0.515378 0.514578 0.685270
vn -0.515378 0.514578 0.685270
vn -0.515378 0.514578 0.685270
vn -0.515285 0.516385 0.683980
vn -0.515285 0.516385 0.683980
vn -0.515285 0.516385 0.683980
vn -0.612287 -0.418991 0.670486
vn -0.612287 -0.418991 0.670486
vn -0.612287 -0.418991 0.670486
vn -0.622611 -0.432708 0.652012
vn -0.622611 -0.432708 0.652012
vn -0.622611 -0.432708 0.652012
vn 0.668399 0.464011 -0.581324
vn 0.669824 0.465832 -0.578219
vn 0.669884 0.465909 -0.578087
vn 0.671125 0.467500 -0.575356
s off
g RArm
usemtl None
f 10/1/1 1/2/2 2/3/3
f 2/4/4 9/5/5 10/6/6
f 9/7/7 2/8/8 3/9/9
f 3/10/10 11/11/11 9/12/12
f 11/13/13 3/14/14 4/15/15
f 4/16/16 12/17/17 11/18/18
f 12/19/19 4/20/20 1/21/21
f 1/22/22 10/23/23 12/24/24
f 3/25/25 2/26/26 5/27/27
f 5/28/28 6/29/29 3/30/30
f 1/31/31 4/32/32 7/33/33
f 7/34/34 8/35/35 1/36/36
f 4/37/37 3/38/38 6/39/39
f 6/40/40 7/41/41 4/42/42
f 2/43/43 1/44/44 8/45/45
f 8/46/46 5/47/47 2/48/48
f 8/49/49 7/50/50 6/51/51
f 6/52/52 5/53/53 8/54/54
s 1
f 12/55/55 10/56/56 11/58/57
f 11/58/57 10/56/56 9/57/58
