# This file uses centimeters as units for non-parametric coordinates.

mtllib CryogonalBigOrb.mtl
g default
v 0.243187 -0.475927 -0.250971
v 0.000256 -0.475927 -0.354266
v 0.000256 -0.181296 -0.572229
v 0.393326 -0.181296 -0.405094
v -0.242674 -0.475927 -0.250971
v -0.392814 -0.181296 -0.405094
v -0.343300 -0.475927 -0.001595
v -0.555629 -0.181296 -0.001595
v -0.242674 -0.475927 0.247781
v -0.392814 -0.181296 0.401904
v 0.000256 -0.475927 0.351076
v 0.000256 -0.181296 0.569039
v 0.243187 -0.475927 0.247781
v 0.393326 -0.181296 0.401904
v 0.343812 -0.475927 -0.001595
v 0.556141 -0.181296 -0.001595
v 0.000256 0.182887 -0.572229
v 0.393326 0.182887 -0.405094
v -0.392814 0.182887 -0.405094
v -0.555629 0.182887 -0.001595
v -0.392814 0.182887 0.401904
v 0.000256 0.182887 0.569039
v 0.393326 0.182887 0.401904
v 0.556141 0.182887 -0.001595
v 0.000256 0.477518 -0.354266
v 0.243187 0.477518 -0.250971
v -0.242674 0.477518 -0.250971
v -0.343300 0.477518 -0.001595
v -0.242674 0.477518 0.247781
v 0.000256 0.477518 0.351076
v 0.243187 0.477518 0.247781
v 0.343812 0.477518 -0.001595
v 0.000256 -0.588466 -0.001595
v 0.000256 0.590057 -0.001595
vt 0.150368 0.920006
vt 0.156904 0.910454
vt 0.164970 0.928383
vt 0.168306 0.913678
vt 0.159897 0.902205
vt 0.169305 0.903700
vt 0.160900 0.894699
vt 0.169605 0.894827
vt 0.160119 0.887170
vt 0.169557 0.885986
vt 0.157381 0.878801
vt 0.168894 0.876080
vt 0.151161 0.868829
vt 0.166293 0.861241
vt 0.132942 0.856414
vt 0.155831 0.826296
vt 0.132942 0.930843
vt 0.152560 0.958765
vt 0.180355 0.928181
vt 0.177754 0.913341
vt 0.177092 0.903436
vt 0.177043 0.894595
vt 0.177344 0.885722
vt 0.178342 0.875744
vt 0.181678 0.861039
vt 0.194087 0.830656
vt 0.190817 0.963126
vt 0.189267 0.910621
vt 0.195487 0.920592
vt 0.186529 0.902252
vt 0.185748 0.894723
vt 0.186751 0.887217
vt 0.189744 0.878968
vt 0.196280 0.869415
vt 0.213706 0.858578
vt 0.213706 0.933008
vt 0.134990 0.894322
vt 0.211658 0.895100
vn 0.323456 -0.562759 -0.760709
vn 0.323457 -0.562759 -0.760709
vn 0.323457 -0.562759 -0.760709
vn 0.323457 -0.562759 -0.760709
vn 0.323457 -0.562759 -0.760709
vn 0.323457 -0.562760 -0.760708
vn -0.323456 -0.562759 -0.760709
vn -0.323457 -0.562760 -0.760708
vn -0.323457 -0.562760 -0.760708
vn -0.323457 -0.562760 -0.760708
vn -0.323457 -0.562760 -0.760708
vn -0.323457 -0.562760 -0.760708
vn -0.771018 -0.555642 -0.311116
vn -0.771018 -0.555644 -0.311113
vn -0.771018 -0.555644 -0.311113
vn -0.771018 -0.555644 -0.311113
vn -0.771018 -0.555644 -0.311113
vn -0.771018 -0.555645 -0.311111
vn -0.771018 -0.555641 0.311117
vn -0.771018 -0.555644 0.311113
vn -0.771018 -0.555644 0.311113
vn -0.771018 -0.555644 0.311113
vn -0.771018 -0.555644 0.311113
vn -0.771018 -0.555645 0.311111
vn -0.323456 -0.562760 0.760709
vn -0.323457 -0.562760 0.760708
vn -0.323457 -0.562760 0.760708
vn -0.323457 -0.562760 0.760708
vn -0.323457 -0.562760 0.760708
vn -0.323457 -0.562760 0.760708
vn 0.323456 -0.562758 0.760710
vn 0.323457 -0.562759 0.760709
vn 0.323457 -0.562759 0.760709
vn 0.323457 -0.562759 0.760709
vn 0.323457 -0.562759 0.760709
vn 0.323457 -0.562760 0.760708
vn 0.771019 -0.555642 0.311114
vn 0.771019 -0.555643 0.311112
vn 0.771019 -0.555643 0.311113
vn 0.771019 -0.555643 0.311113
vn 0.771019 -0.555643 0.311112
vn 0.771019 -0.555643 0.311112
vn 0.771018 -0.555644 -0.311112
vn 0.771019 -0.555643 -0.311112
vn 0.771019 -0.555643 -0.311112
vn 0.771019 -0.555643 -0.311112
vn 0.771019 -0.555643 -0.311112
vn 0.771019 -0.555643 -0.311112
vn 0.391300 0.000000 -0.920263
vn 0.391300 0.000000 -0.920263
vn 0.391300 0.000000 -0.920263
vn 0.391300 0.000000 -0.920263
vn 0.391300 0.000000 -0.920263
vn 0.391300 0.000000 -0.920263
vn -0.391300 0.000000 -0.920263
vn -0.391299 0.000000 -0.920264
vn -0.391299 0.000000 -0.920264
vn -0.391299 0.000000 -0.920264
vn -0.391299 0.000000 -0.920264
vn -0.391299 0.000000 -0.920264
vn -0.927351 0.000000 -0.374192
vn -0.927351 0.000000 -0.374193
vn -0.927351 0.000000 -0.374193
vn -0.927351 0.000000 -0.374193
vn -0.927351 0.000000 -0.374193
vn -0.927351 0.000000 -0.374193
vn -0.927351 0.000000 0.374192
vn -0.927351 0.000000 0.374193
vn -0.927351 0.000000 0.374193
vn -0.927351 0.000000 0.374193
vn -0.927351 0.000000 0.374193
vn -0.927351 0.000000 0.374193
vn -0.391300 0.000000 0.920263
vn -0.391299 0.000000 0.920264
vn -0.391299 0.000000 0.920264
vn -0.391299 0.000000 0.920264
vn -0.391299 0.000000 0.920264
vn -0.391299 0.000000 0.920264
vn 0.391300 0.000000 0.920263
vn 0.391300 0.000000 0.920263
vn 0.391300 0.000000 0.920263
vn 0.391300 0.000000 0.920263
vn 0.391300 0.000000 0.920263
vn 0.391300 0.000000 0.920263
vn 0.927351 0.000000 0.374193
vn 0.927351 0.000000 0.374193
vn 0.927351 0.000000 0.374193
vn 0.927351 0.000000 0.374193
vn 0.927351 0.000000 0.374193
vn 0.927351 0.000000 0.374193
vn 0.927351 0.000000 -0.374193
vn 0.927351 0.000000 -0.374193
vn 0.927351 0.000000 -0.374193
vn 0.927351 0.000000 -0.374193
vn 0.927351 0.000000 -0.374193
vn 0.927351 0.000000 -0.374193
vn 0.323457 0.562760 -0.760708
vn 0.323457 0.562759 -0.760709
vn 0.323457 0.562759 -0.760709
vn 0.323457 0.562759 -0.760709
vn 0.323457 0.562759 -0.760709
vn 0.323456 0.562757 -0.760711
vn -0.323457 0.562760 -0.760708
vn -0.323457 0.562760 -0.760708
vn -0.323457 0.562760 -0.760708
vn -0.323457 0.562760 -0.760708
vn -0.323457 0.562760 -0.760708
vn -0.323457 0.562761 -0.760708
vn -0.771017 0.555645 -0.311113
vn -0.771018 0.555644 -0.311113
vn -0.771018 0.555644 -0.311114
vn -0.771018 0.555644 -0.311114
vn -0.771018 0.555644 -0.311113
vn -0.771019 0.555642 -0.311115
vn -0.771017 0.555645 0.311113
vn -0.771018 0.555644 0.311113
vn -0.771018 0.555644 0.311113
vn -0.771018 0.555644 0.311113
vn -0.771018 0.555644 0.311113
vn -0.771019 0.555642 0.311115
vn -0.323457 0.562760 0.760708
vn -0.323457 0.562760 0.760708
vn -0.323457 0.562760 0.760708
vn -0.323457 0.562760 0.760708
vn -0.323457 0.562760 0.760708
vn -0.323457 0.562761 0.760708
vn 0.323457 0.562760 0.760708
vn 0.323457 0.562759 0.760709
vn 0.323457 0.562759 0.760709
vn 0.323457 0.562759 0.760709
vn 0.323457 0.562759 0.760709
vn 0.323456 0.562757 0.760711
vn 0.771019 0.555643 0.311113
vn 0.771019 0.555643 0.311112
vn 0.771019 0.555643 0.311112
vn 0.771019 0.555643 0.311112
vn 0.771019 0.555643 0.311112
vn 0.771020 0.555643 0.311111
vn 0.771019 0.555643 -0.311113
vn 0.771019 0.555643 -0.311112
vn 0.771019 0.555643 -0.311112
vn 0.771019 0.555643 -0.311112
vn 0.771019 0.555643 -0.311112
vn 0.771019 0.555644 -0.311110
vn 0.128196 -0.944812 -0.301491
vn 0.128196 -0.944812 -0.301491
vn 0.128196 -0.944812 -0.301491
vn -0.128197 -0.944811 -0.301491
vn -0.128197 -0.944811 -0.301491
vn -0.128197 -0.944812 -0.301491
vn -0.308867 -0.942904 -0.124632
vn -0.308867 -0.942904 -0.124632
vn -0.308867 -0.942904 -0.124632
vn -0.308867 -0.942904 0.124632
vn -0.308867 -0.942904 0.124632
vn -0.308867 -0.942904 0.124632
vn -0.128197 -0.944812 0.301490
vn -0.128197 -0.944812 0.301490
vn -0.128197 -0.944812 0.301490
vn 0.128196 -0.944812 0.301491
vn 0.128196 -0.944812 0.301491
vn 0.128196 -0.944812 0.301491
vn 0.308868 -0.942904 0.124627
vn 0.308868 -0.942904 0.124627
vn 0.308868 -0.942904 0.124627
vn 0.308868 -0.942904 -0.124630
vn 0.308868 -0.942904 -0.124630
vn 0.308868 -0.942904 -0.124630
vn 0.128196 0.944811 -0.301494
vn 0.128196 0.944811 -0.301494
vn 0.128196 0.944811 -0.301494
vn -0.128197 0.944810 -0.301496
vn -0.128197 0.944810 -0.301496
vn -0.128197 0.944810 -0.301496
vn -0.308868 0.942904 -0.124632
vn -0.308868 0.942904 -0.124632
vn -0.308868 0.942904 -0.124632
vn -0.308868 0.942904 0.124632
vn -0.308868 0.942904 0.124632
vn -0.308868 0.942904 0.124632
vn -0.128197 0.944810 0.301495
vn -0.128197 0.944810 0.301495
vn -0.128197 0.944810 0.301495
vn 0.128196 0.944811 0.301494
vn 0.128196 0.944811 0.301494
vn 0.128196 0.944811 0.301494
vn 0.308869 0.942903 0.124632
vn 0.308869 0.942903 0.124632
vn 0.308869 0.942903 0.124632
vn 0.308869 0.942903 -0.124632
vn 0.308869 0.942903 -0.124632
vn 0.308869 0.942903 -0.124632
s off
g polySurface5
usemtl None
f 1/1/1 2/2/2 4/3/3
f 4/3/4 2/2/5 3/4/6
f 5/5/7 6/6/8 2/2/9
f 2/2/10 6/6/11 3/4/12
f 7/7/13 8/8/14 5/5/15
f 5/5/16 8/8/17 6/6/18
f 7/7/19 9/9/20 8/8/21
f 8/8/22 9/9/23 10/10/24
f 9/9/25 11/11/26 10/10/27
f 10/10/28 11/11/29 12/12/30
f 13/13/31 14/14/32 11/11/33
f 11/11/34 14/14/35 12/12/36
f 15/15/37 16/16/38 13/13/39
f 13/13/40 16/16/41 14/14/42
f 15/17/43 1/1/44 16/18/45
f 16/18/46 1/1/47 4/3/48
f 4/3/49 3/4/50 18/19/51
f 18/19/52 3/4/53 17/20/54
f 3/4/55 6/6/56 17/20/57
f 17/20/58 6/6/59 19/21/60
f 6/6/61 8/8/62 19/21/63
f 19/21/64 8/8/65 20/22/66
f 8/8/67 10/10/68 20/22/69
f 20/22/70 10/10/71 21/23/72
f 10/10/73 12/12/74 21/23/75
f 21/23/76 12/12/77 22/24/78
f 12/12/79 14/14/80 22/24/81
f 22/24/82 14/14/83 23/25/84
f 14/14/85 16/16/86 23/25/87
f 23/25/88 16/16/89 24/26/90
f 16/18/91 4/3/92 24/27/93
f 24/27/94 4/3/95 18/19/96
f 17/20/97 25/28/98 18/19/99
f 18/19/100 25/28/101 26/29/102
f 17/20/103 19/21/104 25/28/105
f 25/28/106 19/21/107 27/30/108
f 19/21/109 20/22/110 27/30/111
f 27/30/112 20/22/113 28/31/114
f 21/23/115 29/32/116 20/22/117
f 20/22/118 29/32/119 28/31/120
f 22/24/121 30/33/122 21/23/123
f 21/23/124 30/33/125 29/32/126
f 22/24/127 23/25/128 30/33/129
f 30/33/130 23/25/131 31/34/132
f 23/25/133 24/26/134 31/34/135
f 31/34/136 24/26/137 32/35/138
f 18/19/139 26/29/140 24/27/141
f 24/27/142 26/29/143 32/36/144
f 2/2/145 1/1/146 33/37/147
f 5/5/148 2/2/149 33/37/150
f 7/7/151 5/5/152 33/37/153
f 9/9/154 7/7/155 33/37/156
f 11/11/157 9/9/158 33/37/159
f 13/13/160 11/11/161 33/37/162
f 15/15/163 13/13/164 33/37/165
f 1/1/166 15/17/167 33/37/168
f 26/29/169 25/28/170 34/38/171
f 25/28/172 27/30/173 34/38/174
f 27/30/175 28/31/176 34/38/177
f 28/31/178 29/32/179 34/38/180
f 29/32/181 30/33/182 34/38/183
f 30/33/184 31/34/185 34/38/186
f 31/34/187 32/35/188 34/38/189
f 32/36/190 26/29/191 34/38/192
