# This file uses centimeters as units for non-parametric coordinates.

mtllib EmboarLLeg.mtl
g default
v -2.413410 -3.488250 3.173335
v 4.690601 1.244825 3.518044
v -2.413410 -3.488250 -2.699229
v 5.860044 1.848309 -1.320398
v 6.328041 -2.740055 3.431866
v -0.318809 -5.413865 3.108702
v -0.318809 -5.413865 -2.699229
v 6.328041 -2.740055 -2.031357
v 6.115335 0.027988 3.518044
v -1.340947 -4.261173 3.194880
v -1.340947 -4.261173 -2.699229
v 6.115335 0.027988 -2.117534
v 2.964888 -2.239340 5.584881
v 3.828609 -4.061134 5.119939
v 2.934734 -3.882272 -4.374561
v 1.700588 -1.768061 -5.060583
v -0.358982 0.096139 -5.339601
v 0.105702 0.096139 4.884504
v 4.388547 -5.960517 4.188745
v 6.554409 -5.811398 3.289862
v 6.554409 -5.811398 -2.037991
v 3.698975 -5.958935 -3.396592
v 0.425543 -6.116550 -2.361155
v 0.425543 -6.116550 3.117508
v 4.725293 -8.051105 2.793825
v 6.357023 -8.009663 2.509013
v 6.357023 -7.933217 -1.419278
v 4.047964 -8.044080 -2.777880
v 1.841755 -8.201697 -1.742442
v 1.841755 -8.278143 2.336659
v 5.935289 -9.499822 1.495799
v 5.935289 -9.500527 -1.017658
v 3.736247 -9.500445 -2.376260
v 2.611881 -9.501012 -1.340822
v 2.611881 -9.500307 1.323446
v 4.891773 -9.500064 1.409622
v 4.206823 -9.320412 4.980132
v 4.328663 -9.320412 4.980132
v 4.206823 -8.924807 4.980132
v 4.328663 -8.924807 4.980132
v 4.174313 -8.325109 3.747972
v 5.283875 -8.325109 3.747972
v 5.283875 -9.315372 3.450643
v 4.174313 -9.315372 3.450643
v 4.168116 -7.947147 2.357075
v 6.017761 -7.947147 2.357075
v 5.712931 -9.375846 1.611230
v 4.168116 -9.375846 1.611230
v 3.942721 -9.320412 4.980132
v 3.820881 -9.320412 4.980132
v 3.942721 -8.924807 4.980132
v 3.820881 -8.924807 4.980132
v 3.975231 -8.325109 3.747972
v 2.865670 -8.325109 3.747972
v 2.865670 -9.315372 3.450643
v 3.975231 -9.315372 3.450643
v 3.981430 -7.947147 2.357075
v 2.131783 -7.947147 2.357075
v 2.436614 -9.375846 1.611230
v 3.981430 -9.375846 1.611230
vt 0.183887 0.418201
vt 0.211246 0.389218
vt 0.203286 0.452018
vt 0.253112 0.424139
vt 0.086399 0.326176
vt 0.103632 0.340518
vt 0.070301 0.329994
vt 0.094561 0.368831
vt 0.340763 0.270640
vt 0.311383 0.345272
vt 0.294210 0.262889
vt 0.264116 0.312896
vt 0.123049 0.462104
vt 0.121223 0.483059
vt 0.018495 0.449579
vt 0.010165 0.468403
vt 0.218236 0.485695
vt 0.290414 0.457531
vt 0.006956 0.498627
vt 0.121537 0.513194
vt 0.390229 0.273196
vt 0.354585 0.375825
vt 0.229436 0.527638
vt 0.305231 0.489358
vt 0.117410 0.538960
vt 0.003849 0.523753
vt 0.419641 0.277291
vt 0.377919 0.407440
vt 0.337067 0.195016
vt 0.316529 0.199593
vt 0.366632 0.186503
vt 0.389373 0.174736
vt 0.055817 0.349308
vt 0.070742 0.370910
vt 0.183145 0.357485
vt 0.225142 0.296720
vt 0.251140 0.250359
vt 0.264403 0.204726
vt 0.196549 0.282283
vt 0.226449 0.233808
vt 0.234145 0.204165
vt 0.159197 0.376387
vt 0.113730 0.408753
vt 0.035966 0.400719
vt 0.161697 0.329254
vt 0.101021 0.376151
vt 0.046791 0.372246
vt 0.142059 0.341967
vt 0.160860 0.326901
vt 0.144624 0.331809
vt 0.145909 0.289030
vt 0.104694 0.281640
vt 0.109760 0.344073
vt 0.093912 0.303930
vt 0.092855 0.296256
vt 0.089944 0.295842
vt 0.090803 0.286077
vt 0.087933 0.287139
vt 0.067706 0.326901
vt 0.049017 0.308325
vt 0.098500 0.280506
vt 0.080922 0.246598
vt 0.064515 0.264193
vt 0.048449 0.284199
vt 0.036727 0.243113
vt 0.010550 0.282853
vt 0.007827 0.324006
vt 0.030993 0.354536
vt 0.055067 0.209046
vt 0.119557 0.277800
vt 0.111598 0.271282
vt 0.120674 0.275060
vt 0.113861 0.269216
vt 0.158398 0.270200
vt 0.151114 0.244911
vt 0.102975 0.275341
vt 0.081445 0.243814
vt 0.104583 0.237644
vt 0.129936 0.232801
vt 0.099192 0.203105
vt 0.146730 0.198894
vt 0.184257 0.216000
vt 0.200208 0.250866
vt 0.060591 0.203129
vn 0.382334 -0.313442 0.869238
vn 0.382334 -0.313442 0.869238
vn 0.382334 -0.313442 0.869238
vn 0.558662 0.002828 0.829391
vn 0.558662 0.002828 0.829391
vn 0.558662 0.002828 0.829391
vn -0.223572 0.972365 0.067243
vn -0.223572 0.972365 0.067243
vn -0.223572 0.972365 0.067243
vn -0.278741 0.960283 0.012669
vn -0.278741 0.960283 0.012669
vn -0.278741 0.960283 0.012669
vn 0.595774 -0.152130 -0.788612
vn 0.595774 -0.152130 -0.788612
vn 0.595774 -0.152130 -0.788612
vn 0.427989 0.033495 -0.903163
vn 0.427989 0.033495 -0.903163
vn 0.427989 0.033495 -0.903163
vn 0.997295 0.073504 0.000000
vn 0.997295 0.073504 0.000000
vn 0.997295 0.073504 0.000000
vn 0.997295 0.073504 0.000000
vn 0.997295 0.073504 0.000000
vn 0.997295 0.073504 0.000000
vn -0.686462 -0.727166 0.000000
vn -0.686462 -0.727166 0.000000
vn -0.686462 -0.727166 0.000000
vn -0.686462 -0.727166 0.000000
vn -0.686462 -0.727166 0.000000
vn -0.686462 -0.727166 0.000000
vn 0.543241 0.043572 0.838445
vn 0.543241 0.043572 0.838445
vn 0.543241 0.043572 0.838445
vn 0.540718 0.015366 0.841064
vn 0.540718 0.015366 0.841064
vn 0.540718 0.015366 0.841064
vn -0.748208 -0.663465 0.000000
vn -0.748208 -0.663465 0.000000
vn -0.748208 -0.663465 0.000000
vn -0.748207 -0.663465 0.000000
vn -0.748207 -0.663465 0.000000
vn -0.748207 -0.663465 0.000000
vn 0.541736 0.043861 -0.839403
vn 0.541736 0.043861 -0.839403
vn 0.541736 0.043861 -0.839403
vn 0.564107 0.017647 -0.825513
vn 0.564107 0.017647 -0.825513
vn 0.564107 0.017647 -0.825513
vn 0.997061 0.076617 0.000000
vn 0.997061 0.076617 0.000000
vn 0.997061 0.076617 0.000000
vn 0.997061 0.076617 0.000000
vn 0.997061 0.076617 0.000000
vn 0.997061 0.076617 0.000000
vn 0.150312 0.448268 0.881171
vn 0.150312 0.448268 0.881171
vn 0.150312 0.448268 0.881171
vn 0.312199 0.365538 0.876877
vn 0.312199 0.365538 0.876877
vn 0.312199 0.365538 0.876877
vn -0.584678 -0.811265 0.000000
vn -0.584678 -0.811265 0.000000
vn -0.584678 -0.811265 0.000000
vn -0.584678 -0.811265 0.000000
vn -0.584678 -0.811265 0.000000
vn -0.584678 -0.811265 0.000000
vn 0.434381 0.356073 -0.827360
vn 0.434381 0.356073 -0.827360
vn 0.434381 0.356073 -0.827360
vn 0.381632 0.415161 -0.825832
vn 0.381632 0.415161 -0.825832
vn 0.381632 0.415161 -0.825832
vn 0.990308 0.138887 0.000000
vn 0.990308 0.138887 0.000000
vn 0.990308 0.138887 0.000000
vn 0.629787 0.737387 0.244190
vn 0.629787 0.737387 0.244190
vn 0.629787 0.737387 0.244190
vn -0.305415 -0.368844 0.877882
vn -0.305415 -0.368844 0.877882
vn -0.305415 -0.368844 0.877882
vn -0.322593 -0.351753 0.878751
vn -0.322593 -0.351753 0.878751
vn -0.322593 -0.351753 0.878751
vn -0.211296 -0.479780 0.851566
vn -0.211296 -0.479780 0.851566
vn -0.211296 -0.479780 0.851566
vn -0.322405 -0.330406 0.887066
vn -0.322405 -0.330406 0.887066
vn -0.322405 -0.330406 0.887066
vn -0.156821 -0.558133 -0.814797
vn -0.156821 -0.558133 -0.814797
vn -0.156821 -0.558133 -0.814797
vn -0.242442 -0.484934 -0.840274
vn -0.242442 -0.484934 -0.840274
vn -0.242442 -0.484934 -0.840274
vn -0.292194 -0.445210 -0.846411
vn -0.292194 -0.445210 -0.846411
vn -0.292194 -0.445210 -0.846411
vn -0.326797 -0.289784 -0.899571
vn -0.326797 -0.289784 -0.899571
vn -0.326797 -0.289784 -0.899571
vn -0.294610 -0.451540 -0.842210
vn -0.294610 -0.451540 -0.842210
vn -0.294610 -0.451540 -0.842210
vn -0.308543 -0.428116 -0.849422
vn -0.308543 -0.428116 -0.849422
vn -0.308543 -0.428116 -0.849422
vn -0.818154 0.574999 0.000000
vn -0.818154 0.574999 0.000000
vn -0.818154 0.574999 0.000000
vn -0.854334 0.518273 0.038829
vn -0.854334 0.518273 0.038829
vn -0.854334 0.518273 0.038829
vn -0.394688 -0.215326 0.893228
vn -0.394688 -0.215326 0.893228
vn -0.394688 -0.215326 0.893228
vn -0.225109 -0.286388 0.931294
vn -0.225109 -0.286388 0.931294
vn -0.225109 -0.286388 0.931294
vn 0.995993 -0.089433 0.000000
vn 0.995993 -0.089433 0.000000
vn 0.995993 -0.089433 0.000000
vn 0.995650 -0.093151 -0.001813
vn 0.995650 -0.093151 -0.001813
vn 0.995650 -0.093151 -0.001813
vn 0.429804 -0.189984 -0.882709
vn 0.429804 -0.189984 -0.882709
vn 0.429804 -0.189984 -0.882709
vn 0.496178 -0.285271 -0.820017
vn 0.496178 -0.285271 -0.820017
vn 0.496178 -0.285271 -0.820017
vn -0.253511 -0.429386 -0.866811
vn -0.253511 -0.429386 -0.866811
vn -0.253511 -0.429386 -0.866811
vn -0.383465 -0.321122 -0.865930
vn -0.383465 -0.321122 -0.865930
vn -0.383465 -0.321122 -0.865930
vn 0.489312 -0.337706 -0.804070
vn 0.489312 -0.337706 -0.804070
vn 0.489312 -0.337706 -0.804070
vn 0.496527 -0.327912 -0.803701
vn 0.496527 -0.327912 -0.803701
vn 0.496527 -0.327912 -0.803701
vn -0.410016 -0.159870 -0.897958
vn -0.410016 -0.159870 -0.897958
vn -0.410016 -0.159870 -0.897958
vn -0.573313 -0.532334 -0.622843
vn -0.573313 -0.532334 -0.622843
vn -0.573313 -0.532334 -0.622843
vn 0.364965 -0.475353 0.800525
vn 0.364965 -0.475353 0.800525
vn 0.364965 -0.475353 0.800525
vn 0.169948 -0.343368 0.923697
vn 0.169948 -0.343368 0.923697
vn 0.169948 -0.343368 0.923697
vn -0.836462 -0.548025 0.000000
vn -0.836462 -0.548025 0.000000
vn -0.836462 -0.548025 0.000000
vn -0.825731 -0.563965 -0.010569
vn -0.825731 -0.563965 -0.010569
vn -0.825731 -0.563965 -0.010569
vn -0.215844 -0.453740 0.864599
vn -0.215844 -0.453740 0.864599
vn -0.215844 -0.453740 0.864599
vn -0.086077 -0.562526 0.822286
vn -0.086077 -0.562526 0.822286
vn -0.086077 -0.562526 0.822286
vn 0.963122 -0.269015 -0.005235
vn 0.963122 -0.269015 -0.005235
vn 0.963122 -0.269015 -0.005235
vn 0.965656 -0.259823 0.000073
vn 0.965656 -0.259823 0.000073
vn 0.965656 -0.259823 0.000073
vn -0.849674 -0.527216 -0.009881
vn -0.849674 -0.527216 -0.009881
vn -0.849674 -0.527216 -0.009881
vn -0.860263 -0.509851 0.000135
vn -0.860263 -0.509851 0.000135
vn -0.860263 -0.509851 0.000135
vn -0.059168 -0.693101 0.718408
vn -0.059168 -0.693101 0.718408
vn -0.059168 -0.693101 0.718408
vn 0.153851 -0.584987 0.796317
vn 0.153851 -0.584987 0.796317
vn 0.153851 -0.584987 0.796317
vn -0.027188 -0.692141 0.721250
vn -0.027188 -0.692141 0.721250
vn -0.027188 -0.692141 0.721250
vn -0.066396 -0.661284 0.747192
vn -0.066396 -0.661284 0.747192
vn -0.066396 -0.661284 0.747192
vn 0.000209 -1.000000 0.000280
vn 0.000209 -1.000000 0.000280
vn 0.000209 -1.000000 0.000280
vn -0.000123 -1.000000 0.000138
vn -0.000123 -1.000000 0.000138
vn -0.000123 -1.000000 0.000138
vn 0.000097 -1.000000 0.000265
vn 0.000097 -1.000000 0.000265
vn 0.000097 -1.000000 0.000265
vn 0.000466 -1.000000 -0.000042
vn 0.000466 -1.000000 -0.000042
vn 0.000466 -1.000000 -0.000042
vn 0.000000 0.000000 1.000000
vn 0.000000 0.000000 1.000000
vn 0.000000 0.000000 1.000000
vn 0.000000 0.000000 1.000000
vn 0.000000 0.000000 1.000000
vn 0.000000 0.000000 1.000000
vn 0.000000 -0.999995 -0.003295
vn 0.000000 -0.999995 -0.003295
vn 0.000000 -0.999995 -0.003295
vn 0.000000 -0.999995 -0.003295
vn 0.000000 -0.999995 -0.003295
vn 0.000000 -0.999995 -0.003295
vn -0.999774 0.000000 0.021251
vn -0.999774 0.000000 0.021251
vn -0.999774 0.000000 0.021251
vn -0.999711 -0.006911 0.023014
vn -0.999711 -0.006911 0.023014
vn -0.999711 -0.006911 0.023014
vn 0.000000 0.899158 0.437625
vn 0.000000 0.899158 0.437625
vn 0.000000 0.899158 0.437625
vn 0.000000 0.899158 0.437624
vn 0.000000 0.899158 0.437624
vn 0.000000 0.899158 0.437624
vn 0.848177 0.000000 0.529713
vn 0.848177 0.000000 0.529713
vn 0.848177 0.000000 0.529713
vn 0.816837 -0.165890 0.552501
vn 0.816837 -0.165890 0.552501
vn 0.816837 -0.165890 0.552501
vn 0.000000 0.965005 0.262230
vn 0.000000 0.965005 0.262230
vn 0.000000 0.965005 0.262230
vn 0.000000 0.965005 0.262230
vn 0.000000 0.965005 0.262230
vn 0.000000 0.965005 0.262230
vn 0.891071 -0.130518 0.434693
vn 0.891071 -0.130518 0.434693
vn 0.891071 -0.130518 0.434693
vn 0.922125 -0.314430 0.225429
vn 0.922125 -0.314430 0.225429
vn 0.922125 -0.314430 0.225429
vn 0.000000 -0.999460 0.032859
vn 0.000000 -0.999460 0.032859
vn 0.000000 -0.999460 0.032859
vn 0.000000 -0.999460 0.032859
vn 0.000000 -0.999460 0.032859
vn 0.000000 -0.999460 0.032859
vn -0.999991 -0.001238 0.004119
vn -0.999991 -0.001238 0.004119
vn -0.999991 -0.001238 0.004119
vn -0.999993 -0.001790 0.003428
vn -0.999993 -0.001790 0.003428
vn -0.999993 -0.001790 0.003428
vn 0.000000 0.000000 1.000000
vn 0.000000 0.000000 1.000000
vn 0.000000 0.000000 1.000000
vn 0.000000 0.000000 1.000000
vn 0.000000 0.000000 1.000000
vn 0.000000 0.000000 1.000000
vn 0.000000 -0.999995 -0.003295
vn 0.000000 -0.999995 -0.003295
vn 0.000000 -0.999995 -0.003295
vn 0.000000 -0.999995 -0.003295
vn 0.000000 -0.999995 -0.003295
vn 0.000000 -0.999995 -0.003295
vn 0.999774 0.000000 0.021251
vn 0.999774 0.000000 0.021251
vn 0.999774 0.000000 0.021251
vn 0.999711 -0.006910 0.023014
vn 0.999711 -0.006910 0.023014
vn 0.999711 -0.006910 0.023014
vn 0.000000 0.899158 0.437623
vn 0.000000 0.899158 0.437623
vn 0.000000 0.899158 0.437623
vn 0.000000 0.899158 0.437624
vn 0.000000 0.899158 0.437624
vn 0.000000 0.899158 0.437624
vn -0.848178 0.000000 0.529712
vn -0.848178 0.000000 0.529712
vn -0.848178 0.000000 0.529712
vn -0.816838 -0.165890 0.552500
vn -0.816838 -0.165890 0.552500
vn -0.816838 -0.165890 0.552500
vn 0.000000 0.965005 0.262230
vn 0.000000 0.965005 0.262230
vn 0.000000 0.965005 0.262230
vn 0.000000 0.965005 0.262230
vn 0.000000 0.965005 0.262230
vn 0.000000 0.965005 0.262230
vn -0.891070 -0.130517 0.434694
vn -0.891070 -0.130517 0.434694
vn -0.891070 -0.130517 0.434694
vn -0.922125 -0.314431 0.225430
vn -0.922125 -0.314431 0.225430
vn -0.922125 -0.314431 0.225430
vn 0.000000 -0.999460 0.032859
vn 0.000000 -0.999460 0.032859
vn 0.000000 -0.999460 0.032859
vn 0.000000 -0.999460 0.032859
vn 0.000000 -0.999460 0.032859
vn 0.000000 -0.999460 0.032859
vn 0.999993 -0.001790 0.003429
vn 0.999993 -0.001790 0.003429
vn 0.999993 -0.001790 0.003429
vn 0.999991 -0.001237 0.004121
vn 0.999991 -0.001237 0.004121
vn 0.999991 -0.001237 0.004121
s off
g leftLeg
usemtl None
f 19/1/1 20/2/2 14/3/3
f 14/3/4 20/2/5 5/4/6
f 2/5/7 4/6/8 18/7/9
f 18/7/10 4/6/11 17/8/12
f 15/9/13 8/10/14 22/11/15
f 22/11/16 8/10/17 21/12/18
f 21/12/19 8/10/20 20/2/21
f 20/2/22 8/10/23 5/4/24
f 24/13/25 6/14/26 23/15/27
f 23/15/28 6/14/29 7/16/30
f 14/3/31 5/4/32 13/17/33
f 13/17/34 5/4/35 9/18/36
f 7/16/37 6/14/38 11/19/39
f 11/19/40 6/14/41 10/20/42
f 16/21/43 12/22/44 15/9/45
f 15/9/46 12/22/47 8/10/48
f 5/4/49 8/10/50 9/18/51
f 9/18/52 8/10/53 12/22/54
f 18/23/55 13/17/56 2/24/57
f 2/24/58 13/17/59 9/18/60
f 10/20/61 1/25/62 11/19/63
f 11/19/64 1/25/65 3/26/66
f 17/27/67 4/28/68 16/21/69
f 16/21/70 4/28/71 12/22/72
f 12/22/73 4/28/74 9/18/75
f 9/18/76 4/28/77 2/24/78
f 14/3/79 13/17/80 6/14/81
f 6/14/82 13/17/83 10/20/84
f 19/1/85 14/3/86 24/13/87
f 24/13/88 14/3/89 6/14/90
f 7/29/91 15/9/92 23/30/93
f 23/30/94 15/9/95 22/11/96
f 16/21/97 15/9/98 11/31/99
f 11/31/100 15/9/101 7/29/102
f 17/27/103 16/21/104 3/32/105
f 3/32/106 16/21/107 11/31/108
f 1/33/109 18/7/110 3/34/111
f 3/34/112 18/7/113 17/8/114
f 13/17/115 18/23/116 10/20/117
f 10/20/118 18/23/119 1/25/120
f 20/2/121 26/35/122 21/12/123
f 21/12/124 26/35/125 27/36/126
f 22/11/127 21/12/128 28/37/129
f 28/37/130 21/12/131 27/36/132
f 23/30/133 22/11/134 29/38/135
f 29/38/136 22/11/137 28/37/138
f 27/36/139 32/39/140 28/37/141
f 28/37/142 32/39/143 33/40/144
f 28/37/145 33/40/146 29/38/147
f 29/38/148 33/40/149 34/41/150
f 19/1/151 25/42/152 20/2/153
f 20/2/154 25/42/155 26/35/156
f 24/13/157 23/15/158 30/43/159
f 30/43/160 23/15/161 29/44/162
f 24/13/163 30/43/164 19/1/165
f 19/1/166 30/43/167 25/42/168
f 26/35/169 31/45/170 27/36/171
f 27/36/172 31/45/173 32/39/174
f 30/43/175 29/44/176 35/46/177
f 35/46/178 29/44/179 34/47/180
f 36/48/181 31/45/182 25/42/183
f 25/42/184 31/45/185 26/35/186
f 36/48/187 25/42/188 35/46/189
f 35/46/190 25/42/191 30/43/192
f 31/49/193 36/50/194 32/51/195
f 32/51/196 36/50/197 33/52/198
f 35/53/199 34/54/200 36/50/201
f 36/50/202 34/54/203 33/52/204
f 37/55/205 38/56/206 39/57/207
f 39/57/208 38/56/209 40/58/210
f 37/55/211 44/59/212 38/56/213
f 38/56/214 44/59/215 43/60/216
f 37/61/217 39/57/218 44/62/219
f 44/62/220 39/57/221 41/63/222
f 39/57/223 40/58/224 41/63/225
f 40/58/226 42/64/227 41/63/228
f 38/56/229 43/60/230 40/58/231
f 40/58/232 43/60/233 42/64/234
f 41/63/235 42/64/236 45/65/237
f 45/65/238 42/64/239 46/66/240
f 42/64/241 43/60/242 46/66/243
f 46/66/244 43/60/245 47/67/246
f 44/59/247 48/68/248 43/60/249
f 43/60/250 48/68/251 47/67/252
f 41/63/253 45/65/254 44/62/255
f 44/62/256 45/65/257 48/69/258
f 49/70/259 51/71/260 50/72/261
f 50/72/262 51/71/263 52/73/264
f 49/70/265 50/72/266 56/74/267
f 50/72/268 55/75/269 56/74/270
f 49/76/271 56/77/272 51/71/273
f 51/71/274 56/77/275 53/78/276
f 51/71/277 53/78/278 52/73/279
f 52/73/280 53/78/281 54/79/282
f 50/72/283 52/73/284 55/75/285
f 55/75/286 52/73/287 54/79/288
f 53/78/289 57/80/290 54/79/291
f 54/79/292 57/80/293 58/81/294
f 54/79/295 58/81/296 55/75/297
f 55/75/298 58/81/299 59/82/300
f 59/82/301 60/83/302 55/75/303
f 55/75/304 60/83/305 56/74/306
f 60/84/307 57/80/308 56/77/309
f 56/77/310 57/80/311 53/78/312
