# This file uses centimeters as units for non-parametric coordinates.

mtllib EmboarTail4.mtl
g default
v -0.973426 0.910644 -1.880201
v -0.334475 0.910644 -1.880201
v 0.304475 0.910644 -1.880201
v 0.943426 0.910644 -1.880201
v -2.603192 0.848410 -2.582365
v -0.958240 1.115862 -4.719247
v 0.928240 1.115862 -4.719247
v 2.573192 0.848410 -2.582365
v -1.930573 -0.728692 -2.609022
v -0.958240 -0.975443 -4.706651
v 0.928240 -0.975443 -4.706651
v 1.900573 -0.728692 -2.609022
v -0.973426 -0.783420 -1.930454
v -0.334475 -0.783420 -1.930454
v 0.304475 -0.783420 -1.930454
v 0.943426 -0.783420 -1.930454
v -2.383272 2.427259 -6.073785
v -2.279985 2.427259 -6.073785
v -2.279985 2.323970 -6.073785
v -2.383272 2.323970 -6.073785
v -0.053798 3.599966 -4.532344
v 0.023798 3.599966 -4.532344
v 0.023798 3.543248 -4.585298
v -0.053798 3.543248 -4.585298
v 2.249985 2.427259 -6.073785
v 2.353272 2.427259 -6.073785
v 2.353272 2.323970 -6.073785
v 2.249985 2.323970 -6.073785
v -3.487642 0.123949 -4.458204
v -3.376582 0.123949 -4.558286
v -3.376582 -0.025554 -4.558286
v -3.487642 -0.025554 -4.458204
v -0.109658 0.143857 -7.757448
v 0.079658 0.143857 -7.757448
v 0.079658 -0.045461 -7.757448
v -0.109658 -0.045461 -7.757448
v 3.346581 0.123949 -4.558286
v 3.457642 0.123949 -4.458204
v 3.457642 -0.025554 -4.458204
v 3.346581 -0.025554 -4.558286
v -2.415228 -2.194431 -6.128477
v -2.297623 -2.194431 -6.128477
v -2.297623 -2.261509 -6.031881
v -2.415228 -2.261509 -6.031881
v -0.061013 -3.357505 -4.606058
v 0.031013 -3.357505 -4.606058
v 0.031013 -3.414697 -4.533964
v -0.061013 -3.414697 -4.533964
v 2.267623 -2.194431 -6.128477
v 2.385228 -2.194431 -6.128477
v 2.385228 -2.261509 -6.031881
v 2.267623 -2.261509 -6.031881
v -0.014749 -1.238038 0.083609
v -1.096038 -0.510992 0.083609
v -1.096038 0.043641 0.100304
v -0.014749 0.957736 0.100304
v 1.066038 0.043641 0.100304
v 1.066038 -0.510992 0.083609
vt 0.015207 0.171216
vt 0.015902 0.173205
vt 0.012553 0.172105
vt 0.014355 0.174932
vt 0.051223 0.034178
vt 0.051384 0.034002
vt 0.051390 0.034271
vt 0.051600 0.034169
vt 0.072771 0.019452
vt 0.073276 0.019057
vt 0.073113 0.020058
vt 0.073473 0.019642
vt 0.052461 0.040628
vt 0.061940 0.035435
vt 0.084776 0.063875
vt 0.084348 0.064299
vt 0.077956 0.048672
vt 0.069197 0.057364
vt 0.114174 0.195239
vt 0.114537 0.193496
vt 0.116654 0.195061
vt 0.116086 0.193048
vt 0.113598 0.073229
vt 0.121614 0.108849
vt 0.105778 0.109116
vt 0.175998 0.026420
vt 0.177081 0.026119
vt 0.176299 0.027504
vt 0.177383 0.027203
vt 0.133604 0.042842
vt 0.108249 0.045841
vt 0.131512 0.035318
vt 0.033102 0.059470
vt 0.027276 0.077159
vt 0.032157 0.059364
vt 0.007652 0.089283
vt 0.085348 0.064062
vt 0.095354 0.041942
vt 0.084531 0.064873
vt 0.062334 0.074710
vt 0.047135 0.101936
vt 0.047527 0.103001
vt 0.028319 0.113723
vt 0.019880 0.139897
vt 0.179947 0.001594
vt 0.181365 0.001361
vt 0.180180 0.003012
vt 0.181598 0.002778
vt 0.130247 0.027614
vt 0.105497 0.030158
vt 0.048447 0.048701
vt 0.048246 0.048861
vt 0.048478 0.048436
vt 0.048138 0.048447
vt 0.039919 0.035678
vt 0.066342 0.162496
vt 0.055777 0.052800
vt 0.033987 0.059120
vt 0.041695 0.089235
vt 0.034891 0.059413
vt 0.050331 0.093194
vt 0.051857 0.024970
vt 0.162316 0.160135
vt 0.211818 0.168805
vt 0.213417 0.170481
vt 0.030205 0.014580
vt 0.030722 0.014094
vt 0.192519 0.046724
vt 0.191987 0.045389
vt 0.193854 0.046192
vt 0.193322 0.044856
vt 0.091540 0.102592
vt 0.138819 0.016103
vt 0.103710 0.023617
vt 0.064420 0.069282
vt 0.047007 0.059108
vt 0.054613 0.098160
vt 0.002016 0.044312
vt 0.002302 0.043118
vt 0.097611 0.064331
vt 0.135560 0.102057
vt 0.212468 0.166796
vt 0.129186 0.064614
vt 0.215145 0.167613
vt 0.136497 0.050095
vt 0.113983 0.060690
vt 0.171571 0.096783
vt 0.091317 0.029561
vt 0.079238 0.003367
vt 0.047289 0.100813
vt 0.010231 0.100475
vt 0.027527 0.001915
vt 0.027414 0.003373
vt 0.046691 0.099849
vt 0.003186 0.091607
vt 0.131921 0.002888
vt 0.149782 0.055531
vt 0.115829 0.067215
vn 0.000000 0.000000 -1.000000
vn 0.000000 0.000000 -1.000000
vn 0.000000 0.000000 -1.000000
vn 0.000000 0.000000 -1.000000
vn 0.000000 0.000000 -1.000000
vn 0.000000 0.000000 -1.000000
vn 0.000000 0.000000 -1.000000
vn 0.000000 0.000000 -1.000000
vn 0.000000 0.000000 -1.000000
vn 0.000000 0.000000 -1.000000
vn 0.000000 0.000000 -1.000000
vn 0.000000 0.000000 -1.000000
vn 0.669440 0.000000 -0.742866
vn 0.669440 0.000000 -0.742866
vn 0.669440 0.000000 -0.742866
vn 0.669437 0.000000 -0.742869
vn 0.669437 0.000000 -0.742869
vn 0.669437 0.000000 -0.742869
vn 0.000000 -0.956545 -0.291586
vn 0.000000 -0.956545 -0.291586
vn 0.000000 -0.956545 -0.291586
vn 0.000000 -0.956545 -0.291586
vn 0.000000 -0.956545 -0.291586
vn 0.000000 -0.956545 -0.291586
vn 0.000000 -0.042192 -0.999110
vn 0.000000 -0.042192 -0.999110
vn 0.000000 -0.042192 -0.999110
vn 0.000000 -0.042192 -0.999110
vn 0.000000 -0.042192 -0.999110
vn 0.000000 -0.042192 -0.999110
vn 0.000000 0.682435 -0.730946
vn 0.000000 0.682435 -0.730946
vn 0.000000 0.682435 -0.730946
vn 0.000000 0.682435 -0.730946
vn 0.000000 0.682435 -0.730946
vn 0.000000 0.682435 -0.730946
vn 0.000000 0.999717 -0.023771
vn 0.000000 0.999717 -0.023771
vn 0.000000 0.999717 -0.023771
vn 0.000000 0.702169 0.712011
vn 0.000000 0.702169 0.712011
vn 0.000000 0.702169 0.712011
vn 0.000000 0.702168 0.712012
vn 0.000000 0.702168 0.712012
vn 0.000000 0.702168 0.712012
vn 0.000000 -0.783420 -0.621493
vn 0.000000 -0.783420 -0.621492
vn 0.000000 -0.783420 -0.621493
vn 0.000000 -0.783420 -0.621492
vn 0.000000 -0.783420 -0.621493
vn 0.000000 -0.783420 -0.621493
vn 0.000000 -0.975459 -0.220182
vn 0.000000 -0.975459 -0.220182
vn 0.000000 -0.975459 -0.220182
vn 0.804193 -0.488199 -0.339021
vn 0.804193 -0.488199 -0.339021
vn 0.804193 -0.488199 -0.339021
vn 0.747946 -0.652276 -0.122934
vn 0.747946 -0.652276 -0.122934
vn 0.747946 -0.652276 -0.122934
vn 0.997249 -0.058067 -0.046065
vn 0.997249 -0.058067 -0.046065
vn 0.997249 -0.058067 -0.046065
vn 0.914192 -0.334687 0.228553
vn 0.914192 -0.334688 0.228553
vn 0.914192 -0.334687 0.228553
vn 0.000000 -0.703346 0.710847
vn 0.000000 -0.703346 0.710847
vn 0.000000 -0.703346 0.710847
vn 0.000000 -0.703346 0.710847
vn 0.000000 -0.703346 0.710847
vn 0.000000 -0.703346 0.710847
vn -0.997249 -0.058067 -0.046065
vn -0.997249 -0.058067 -0.046065
vn -0.997249 -0.058067 -0.046065
vn -0.914192 -0.334687 0.228553
vn -0.914192 -0.334687 0.228553
vn -0.914193 -0.334687 0.228553
vn -0.804192 -0.488200 -0.339023
vn -0.804192 -0.488200 -0.339023
vn -0.804192 -0.488200 -0.339023
vn -0.747945 -0.652277 -0.122935
vn -0.747945 -0.652277 -0.122935
vn -0.747945 -0.652277 -0.122935
vn 0.000000 -0.821381 -0.570380
vn 0.000000 -0.821381 -0.570380
vn 0.000000 -0.821381 -0.570380
vn 0.000000 -0.821380 -0.570382
vn 0.000000 -0.821380 -0.570382
vn 0.000000 -0.821380 -0.570382
vn 0.000000 -0.940772 0.339040
vn 0.000000 -0.940772 0.339040
vn 0.000000 -0.940772 0.339040
vn 0.000000 -0.940772 0.339039
vn 0.000000 -0.940772 0.339039
vn 0.000000 -0.940772 0.339039
vn -0.555282 -0.825837 -0.098260
vn -0.555282 -0.825837 -0.098260
vn -0.555282 -0.825837 -0.098260
vn 0.000000 -0.990976 0.134042
vn 0.000000 -0.990976 0.134042
vn 0.000000 -0.990976 0.134042
vn -0.669443 0.000000 -0.742864
vn -0.669443 0.000000 -0.742864
vn -0.669443 0.000000 -0.742864
vn -0.669440 0.000000 -0.742866
vn -0.669440 0.000000 -0.742866
vn -0.669440 0.000000 -0.742866
vn -0.061239 0.000000 -0.998123
vn -0.061239 0.000000 -0.998123
vn -0.061239 0.000000 -0.998123
vn -0.063956 -0.006011 -0.997935
vn -0.063956 -0.006011 -0.997935
vn -0.063956 -0.006011 -0.997935
vn -0.963137 0.000000 -0.269010
vn -0.963137 0.000000 -0.269010
vn -0.963137 0.000000 -0.269010
vn -0.963297 -0.001617 -0.268435
vn -0.963297 -0.001617 -0.268435
vn -0.963297 -0.001617 -0.268435
vn 0.907134 0.000000 -0.420841
vn 0.907134 0.000000 -0.420841
vn 0.907134 0.000000 -0.420841
vn 0.730414 0.673797 -0.111773
vn 0.730414 0.673797 -0.111773
vn 0.730414 0.673797 -0.111773
vn -0.997246 0.050616 -0.054215
vn -0.997246 0.050616 -0.054215
vn -0.997246 0.050616 -0.054215
vn -0.916983 0.329236 0.225268
vn -0.916983 0.329236 0.225268
vn -0.916983 0.329236 0.225268
vn -0.187058 -0.960166 -0.207582
vn -0.187058 -0.960166 -0.207582
vn -0.187058 -0.960166 -0.207582
vn -0.368170 -0.927720 -0.061531
vn -0.368170 -0.927720 -0.061531
vn -0.368170 -0.927720 -0.061531
vn 0.000000 0.923143 -0.384457
vn 0.000000 0.923143 -0.384457
vn 0.000000 0.923143 -0.384457
vn -0.443564 0.842838 -0.304754
vn -0.443564 0.842838 -0.304754
vn -0.443564 0.842838 -0.304754
vn -0.988803 0.122574 0.085118
vn -0.988803 0.122574 0.085118
vn -0.988803 0.122574 0.085118
vn -0.348228 -0.836163 0.423756
vn -0.348228 -0.836163 0.423756
vn -0.348228 -0.836163 0.423756
vn 0.963425 0.000000 -0.267978
vn 0.963425 0.000000 -0.267978
vn 0.963425 0.000000 -0.267978
vn 0.963270 -0.001617 -0.268528
vn 0.963270 -0.001617 -0.268528
vn 0.963270 -0.001617 -0.268528
vn 0.061240 0.000000 -0.998123
vn 0.061240 0.000000 -0.998123
vn 0.061240 0.000000 -0.998123
vn 0.063956 -0.006011 -0.997935
vn 0.063956 -0.006011 -0.997935
vn 0.063956 -0.006011 -0.997935
vn 0.997246 0.050616 -0.054215
vn 0.997246 0.050616 -0.054215
vn 0.997246 0.050616 -0.054215
vn 0.916983 0.329236 0.225268
vn 0.916983 0.329236 0.225268
vn 0.916983 0.329236 0.225268
vn -0.907133 0.000000 -0.420844
vn -0.907133 0.000000 -0.420844
vn -0.907133 0.000000 -0.420844
vn -0.730414 0.673797 -0.111773
vn -0.730414 0.673797 -0.111773
vn -0.730414 0.673797 -0.111773
vn 0.000000 0.055099 -0.998481
vn 0.000000 0.055099 -0.998481
vn 0.000000 0.055099 -0.998481
vn 0.000000 0.055099 -0.998481
vn 0.000000 0.055099 -0.998481
vn 0.000000 0.055099 -0.998481
vn 0.000000 0.952444 -0.304712
vn 0.000000 0.952445 -0.304712
vn 0.000000 0.952445 -0.304712
vn 0.000000 0.952444 -0.304714
vn 0.000000 0.952444 -0.304714
vn 0.000000 0.952444 -0.304714
vn 0.000000 -0.821381 -0.570380
vn 0.000000 -0.821381 -0.570380
vn 0.000000 -0.821381 -0.570380
vn 0.000000 -0.821380 -0.570382
vn 0.000000 -0.821380 -0.570382
vn 0.000000 -0.821380 -0.570382
vn 0.000000 0.940391 0.340094
vn 0.000000 0.940391 0.340094
vn 0.000000 0.940391 0.340094
vn 0.000000 0.940391 0.340094
vn 0.000000 0.940391 0.340094
vn 0.000000 0.940391 0.340094
vn -0.295513 -0.890876 0.344982
vn -0.295513 -0.890876 0.344982
vn -0.295513 -0.890876 0.344982
vn -0.998135 0.001836 -0.061013
vn -0.998135 0.001836 -0.061013
vn -0.998135 0.001836 -0.061013
vn -0.852952 -0.369999 0.368202
vn -0.852952 -0.369999 0.368202
vn -0.852952 -0.369999 0.368202
vn -0.947868 0.000000 0.318662
vn -0.947868 0.000000 0.318662
vn -0.947868 0.000000 0.318662
vn -0.194682 0.907830 0.371408
vn -0.194682 0.907830 0.371408
vn -0.194682 0.907830 0.371408
vn -0.764943 0.000000 0.644098
vn -0.764943 0.000000 0.644098
vn -0.764943 0.000000 0.644098
vn -0.790238 -0.345583 0.506060
vn -0.790238 -0.345583 0.506060
vn -0.790238 -0.345583 0.506060
vn 0.000000 -0.921117 -0.389286
vn 0.000000 -0.921117 -0.389286
vn 0.000000 -0.921117 -0.389286
vn -0.370229 -0.842879 -0.390494
vn -0.370229 -0.842879 -0.390494
vn -0.370229 -0.842879 -0.390494
vn -0.229456 0.939424 -0.254623
vn -0.229456 0.939424 -0.254623
vn -0.229456 0.939424 -0.254623
vn -0.383491 0.905458 -0.181880
vn -0.383491 0.905458 -0.181880
vn -0.383491 0.905458 -0.181880
vn -0.199289 0.902164 0.382601
vn -0.199289 0.902164 0.382601
vn -0.199289 0.902164 0.382602
vn -0.619323 0.732603 0.282368
vn -0.619323 0.732603 0.282368
vn -0.619323 0.732603 0.282368
vn 0.000000 0.999717 -0.023771
vn 0.000000 0.999718 -0.023771
vn 0.000000 0.999718 -0.023771
vn 0.000000 0.940391 0.340094
vn 0.000000 0.940391 0.340094
vn 0.000000 0.940391 0.340094
vn 0.000000 0.940391 0.340096
vn 0.000000 0.940391 0.340096
vn 0.000000 0.940391 0.340096
vn 0.000000 0.999717 -0.023771
vn 0.000000 0.999717 -0.023771
vn 0.000000 0.999717 -0.023771
vn 0.619504 0.732476 0.282302
vn 0.619504 0.732476 0.282302
vn 0.619504 0.732476 0.282302
vn 0.000000 0.000000 -1.000000
vn 0.000000 0.000000 -1.000000
vn 0.000000 0.000000 -1.000000
vn 0.000000 0.000000 -1.000000
vn 0.000000 0.000000 -1.000000
vn 0.000000 0.000000 -1.000000
vn 0.000000 -0.990976 0.134042
vn 0.000000 -0.990976 0.134042
vn 0.000000 -0.990976 0.134042
vn 0.555455 -0.825711 -0.098343
vn 0.555455 -0.825711 -0.098343
vn 0.555455 -0.825711 -0.098343
vn 0.000000 -0.940772 0.339039
vn 0.000000 -0.940772 0.339039
vn 0.000000 -0.940772 0.339039
vn 0.000000 -0.940772 0.339039
vn 0.000000 -0.940772 0.339039
vn 0.000000 -0.940772 0.339039
vn 0.199289 0.902164 0.382601
vn 0.199289 0.902164 0.382602
vn 0.199289 0.902164 0.382602
vn 0.947869 0.000000 0.318660
vn 0.947869 0.000000 0.318660
vn 0.947869 0.000000 0.318660
vn 0.194682 0.907830 0.371408
vn 0.194682 0.907830 0.371408
vn 0.194682 0.907830 0.371408
vn 0.764943 0.000000 0.644098
vn 0.764943 0.000000 0.644098
vn 0.764943 0.000000 0.644098
vn 0.790238 -0.345582 0.506060
vn 0.790238 -0.345582 0.506060
vn 0.790238 -0.345582 0.506060
vn 0.187058 -0.960166 -0.207582
vn 0.187058 -0.960166 -0.207582
vn 0.187058 -0.960166 -0.207582
vn 0.368170 -0.927720 -0.061531
vn 0.368170 -0.927720 -0.061531
vn 0.368170 -0.927720 -0.061531
vn 0.000000 0.923143 -0.384457
vn 0.000000 0.923143 -0.384457
vn 0.000000 0.923143 -0.384457
vn 0.443564 0.842838 -0.304754
vn 0.443564 0.842838 -0.304754
vn 0.443564 0.842838 -0.304754
vn 0.000000 -0.921117 -0.389286
vn 0.000000 -0.921117 -0.389286
vn 0.000000 -0.921117 -0.389286
vn 0.370229 -0.842879 -0.390495
vn 0.370229 -0.842879 -0.390495
vn 0.370229 -0.842879 -0.390495
vn 0.229454 0.939424 -0.254625
vn 0.229454 0.939424 -0.254625
vn 0.229454 0.939424 -0.254625
vn 0.383491 0.905458 -0.181880
vn 0.383491 0.905458 -0.181880
vn 0.383491 0.905458 -0.181880
vn 0.988803 0.122573 0.085117
vn 0.988803 0.122573 0.085117
vn 0.988803 0.122573 0.085117
vn 0.348229 -0.836162 0.423756
vn 0.348229 -0.836162 0.423756
vn 0.348229 -0.836162 0.423756
vn 0.852952 -0.369999 0.368202
vn 0.852952 -0.369999 0.368202
vn 0.852952 -0.369999 0.368202
vn 0.295513 -0.890876 0.344982
vn 0.295513 -0.890876 0.344982
vn 0.295513 -0.890876 0.344982
vn 0.998135 0.001837 -0.061013
vn 0.998135 0.001837 -0.061013
vn 0.998135 0.001837 -0.061013
s off
g Tail4
usemtl None
f 17/1/1 18/2/2 20/3/3
f 20/3/4 18/2/5 19/4/6
f 33/5/7 34/6/8 36/7/9
f 36/7/10 34/6/11 35/8/12
f 37/9/13 38/10/14 40/11/15
f 40/11/16 38/10/17 39/12/18
f 36/7/19 35/8/20 10/13/21
f 11/14/22 10/13/23 35/8/24
f 46/15/25 45/16/26 11/17/27
f 10/18/28 11/17/29 45/16/30
f 24/19/31 21/20/32 23/21/33
f 23/21/34 21/20/35 22/22/36
f 56/23/37 3/24/38 2/25/39
f 22/22/40 21/20/41 3/24/42
f 3/24/43 21/20/44 2/25/45
f 48/26/46 45/27/47 47/28/48
f 47/28/49 45/27/50 46/29/51
f 15/30/52 53/31/53 14/32/54
f 42/33/55 10/34/56 43/35/57
f 43/35/58 10/34/59 14/36/60
f 47/37/61 46/15/62 15/38/63
f 15/38/64 46/15/65 11/17/66
f 48/26/67 47/28/68 14/32/69
f 14/32/70 47/28/71 15/30/72
f 48/39/73 14/40/74 45/16/75
f 45/16/76 14/40/77 10/18/78
f 49/41/79 52/42/80 11/43/81
f 11/43/82 52/42/83 15/44/84
f 44/45/85 41/46/86 43/47/87
f 43/47/88 41/46/89 42/48/90
f 14/32/91 13/49/92 43/47/93
f 43/47/94 13/49/95 44/45/96
f 53/31/97 54/50/98 14/32/99
f 14/32/100 54/50/101 13/49/102
f 32/51/103 29/52/104 31/53/105
f 31/53/106 29/52/107 30/54/108
f 31/53/109 30/54/110 10/13/111
f 10/13/112 30/54/113 6/55/114
f 33/5/115 36/7/116 6/55/117
f 6/55/118 36/7/119 10/13/120
f 18/2/121 2/25/122 19/4/123
f 19/4/124 2/25/125 6/56/126
f 21/20/127 24/19/128 2/25/129
f 2/25/130 24/19/131 6/56/132
f 32/51/133 31/53/134 9/57/135
f 9/57/136 31/53/137 10/13/138
f 41/58/139 9/59/140 42/33/141
f 42/33/142 9/59/143 10/34/144
f 41/58/145 44/60/146 9/59/147
f 9/59/148 44/60/149 13/61/150
f 35/8/151 34/6/152 11/14/153
f 11/14/154 34/6/155 7/62/156
f 40/11/157 11/14/158 37/9/159
f 37/9/160 11/14/161 7/62/162
f 22/22/163 3/24/164 23/21/165
f 23/21/166 3/24/167 7/63/168
f 25/64/169 28/65/170 3/24/171
f 3/24/172 28/65/173 7/63/174
f 24/66/175 23/67/176 6/55/177
f 6/55/178 23/67/179 7/62/180
f 34/6/181 33/5/182 7/62/183
f 7/62/184 33/5/185 6/55/186
f 51/68/187 52/69/188 50/70/189
f 50/70/190 52/69/191 49/71/192
f 2/25/193 18/2/194 1/72/195
f 1/72/196 18/2/197 17/1/198
f 9/73/199 13/49/200 55/74/201
f 55/74/202 13/49/203 54/50/204
f 55/75/205 5/76/206 9/57/207
f 17/1/208 20/3/209 1/72/210
f 1/72/211 20/3/212 5/77/213
f 32/51/214 9/57/215 29/52/216
f 29/52/217 9/57/218 5/76/219
f 20/78/220 19/79/221 5/76/222
f 5/76/223 19/79/224 6/55/225
f 29/52/226 5/76/227 30/54/228
f 30/54/229 5/76/230 6/55/231
f 55/80/232 1/72/233 5/77/234
f 55/80/235 56/23/236 1/72/237
f 1/72/238 56/23/239 2/25/240
f 3/24/241 4/81/242 25/64/243
f 25/64/244 4/81/245 26/82/246
f 3/24/247 56/23/248 4/81/249
f 4/81/250 56/23/251 57/83/252
f 26/82/253 27/84/254 25/64/255
f 25/64/256 27/84/257 28/65/258
f 16/85/259 58/86/260 15/30/261
f 15/30/262 58/86/263 53/31/264
f 15/30/265 52/69/266 16/85/267
f 16/85/268 52/69/269 51/68/270
f 4/81/271 57/83/272 8/87/273
f 26/82/274 4/81/275 27/84/276
f 27/84/277 4/81/278 8/87/279
f 39/12/280 38/10/281 12/88/282
f 12/88/283 38/10/284 8/89/285
f 39/12/286 12/88/287 40/11/288
f 40/11/289 12/88/290 11/14/291
f 50/90/292 49/41/293 12/91/294
f 12/91/295 49/41/296 11/43/297
f 27/92/298 8/89/299 28/93/300
f 28/93/301 8/89/302 7/62/303
f 38/10/304 37/9/305 8/89/306
f 8/89/307 37/9/308 7/62/309
f 50/90/310 12/91/311 51/94/312
f 51/94/313 12/91/314 16/95/315
f 57/96/316 12/88/317 8/89/318
f 12/97/319 57/98/320 16/85/321
f 16/85/322 57/98/323 58/86/324
