# This file uses centimeters as units for non-parametric coordinates.

mtllib EmboarRLeg.mtl
g default
v 2.443010 -3.487833 3.173335
v -4.661000 1.245241 3.518044
v 2.443010 -3.487833 -2.699229
v -5.830444 1.848725 -1.320398
v -6.298440 -2.739639 3.431866
v 0.348409 -5.413449 3.108702
v 0.348409 -5.413449 -2.699229
v -6.298440 -2.739639 -2.031357
v -6.085733 0.028404 3.518044
v 1.370547 -4.260756 3.194880
v 1.370547 -4.260756 -2.699229
v -6.085733 0.028404 -2.117534
v -2.935288 -2.238923 5.584881
v -3.799009 -4.060717 5.119939
v -2.905135 -3.881855 -4.374561
v -1.670988 -1.767645 -5.060583
v 0.388582 0.096556 -5.339601
v -0.076103 0.096556 4.884504
v -4.358946 -5.960101 4.188745
v -6.524808 -5.810981 3.289862
v -6.524808 -5.810981 -2.037991
v -3.669374 -5.958518 -3.396592
v -0.395943 -6.116134 -2.361155
v -0.395943 -6.116134 3.117508
v -4.695692 -8.050689 2.793825
v -6.327423 -8.009246 2.509013
v -6.327423 -7.932800 -1.419278
v -4.018362 -8.043664 -2.777880
v -1.812155 -8.201280 -1.742442
v -1.812155 -8.277726 2.336659
v -5.905688 -9.499405 1.495799
v -5.905688 -9.500110 -1.017658
v -3.706646 -9.500028 -2.376260
v -2.582281 -9.500595 -1.340822
v -2.582281 -9.499890 1.323446
v -4.862173 -9.499647 1.409622
v -4.177223 -9.319995 4.980132
v -4.299062 -9.319995 4.980132
v -4.177223 -8.924390 4.980132
v -4.299062 -8.924390 4.980132
v -4.144712 -8.324692 3.747972
v -5.254274 -8.324692 3.747972
v -5.254274 -9.314955 3.450643
v -4.144712 -9.314955 3.450643
v -4.138515 -7.946730 2.357075
v -5.988161 -7.946730 2.357075
v -5.683331 -9.375429 1.611230
v -4.138515 -9.375429 1.611230
v -3.913120 -9.319995 4.980132
v -3.791281 -9.319995 4.980132
v -3.913120 -8.924390 4.980132
v -3.791281 -8.924390 4.980132
v -3.945631 -8.324692 3.747972
v -2.836071 -8.324692 3.747972
v -2.836071 -9.314955 3.450643
v -3.945631 -9.314955 3.450643
v -3.951828 -7.946730 2.357075
v -2.102183 -7.946730 2.357075
v -2.407014 -9.375429 1.611230
v -3.951828 -9.375429 1.611230
vt 0.183887 0.418201
vt 0.203286 0.452018
vt 0.211246 0.389218
vt 0.253112 0.424139
vt 0.094561 0.368831
vt 0.103632 0.340518
vt 0.070301 0.329994
vt 0.086399 0.326176
vt 0.340763 0.270640
vt 0.294210 0.262889
vt 0.311383 0.345272
vt 0.264116 0.312896
vt 0.010165 0.468403
vt 0.121223 0.483059
vt 0.018495 0.449579
vt 0.123049 0.462104
vt 0.218236 0.485695
vt 0.290414 0.457531
vt 0.006956 0.498627
vt 0.121537 0.513194
vt 0.390229 0.273196
vt 0.354585 0.375825
vt 0.229436 0.527638
vt 0.305231 0.489358
vt 0.003849 0.523753
vt 0.117410 0.538960
vt 0.419641 0.277291
vt 0.377919 0.407440
vt 0.337067 0.195016
vt 0.316529 0.199593
vt 0.366632 0.186503
vt 0.389373 0.174736
vt 0.055817 0.349308
vt 0.070742 0.370910
vt 0.225142 0.296720
vt 0.183145 0.357485
vt 0.251140 0.250359
vt 0.264403 0.204726
vt 0.226449 0.233808
vt 0.196549 0.282283
vt 0.234145 0.204165
vt 0.159197 0.376387
vt 0.035966 0.400719
vt 0.113730 0.408753
vt 0.161697 0.329254
vt 0.046791 0.372246
vt 0.101021 0.376151
vt 0.142059 0.341967
vt 0.104694 0.281640
vt 0.144624 0.331809
vt 0.145909 0.289030
vt 0.160860 0.326901
vt 0.093912 0.303930
vt 0.109760 0.344073
vt 0.092855 0.296256
vt 0.090803 0.286077
vt 0.089944 0.295842
vt 0.087933 0.287139
vt 0.067706 0.326901
vt 0.049017 0.308325
vt 0.098500 0.280506
vt 0.080922 0.246598
vt 0.064515 0.264193
vt 0.048449 0.284199
vt 0.036727 0.243113
vt 0.010550 0.282853
vt 0.007827 0.324006
vt 0.030993 0.354536
vt 0.055067 0.209046
vt 0.119557 0.277800
vt 0.120674 0.275060
vt 0.111598 0.271282
vt 0.113861 0.269216
vt 0.158398 0.270200
vt 0.151114 0.244911
vt 0.102975 0.275341
vt 0.081445 0.243814
vt 0.104583 0.237644
vt 0.129936 0.232801
vt 0.099192 0.203105
vt 0.146730 0.198894
vt 0.184257 0.216000
vt 0.200208 0.250866
vt 0.060591 0.203129
vn -0.382334 -0.313442 0.869238
vn -0.382334 -0.313442 0.869238
vn -0.382334 -0.313442 0.869238
vn -0.558662 0.002828 0.829391
vn -0.558662 0.002828 0.829391
vn -0.558662 0.002828 0.829391
vn 0.278741 0.960283 0.012669
vn 0.278741 0.960283 0.012669
vn 0.278741 0.960283 0.012669
vn 0.223572 0.972365 0.067243
vn 0.223572 0.972365 0.067243
vn 0.223572 0.972365 0.067243
vn -0.595775 -0.152131 -0.788612
vn -0.595775 -0.152131 -0.788612
vn -0.595775 -0.152131 -0.788612
vn -0.427990 0.033495 -0.903163
vn -0.427990 0.033495 -0.903163
vn -0.427990 0.033495 -0.903163
vn -0.997295 0.073504 0.000000
vn -0.997295 0.073504 0.000000
vn -0.997295 0.073504 0.000000
vn -0.997295 0.073504 0.000000
vn -0.997295 0.073504 0.000000
vn -0.997295 0.073504 0.000000
vn 0.686461 -0.727166 0.000000
vn 0.686461 -0.727166 0.000000
vn 0.686461 -0.727166 0.000000
vn 0.686462 -0.727166 0.000000
vn 0.686462 -0.727166 0.000000
vn 0.686462 -0.727166 0.000000
vn -0.543241 0.043573 0.838445
vn -0.543241 0.043573 0.838445
vn -0.543241 0.043573 0.838445
vn -0.540718 0.015366 0.841064
vn -0.540718 0.015366 0.841064
vn -0.540718 0.015366 0.841064
vn 0.748208 -0.663465 0.000000
vn 0.748208 -0.663465 0.000000
vn 0.748208 -0.663465 0.000000
vn 0.748207 -0.663465 0.000000
vn 0.748207 -0.663465 0.000000
vn 0.748207 -0.663465 0.000000
vn -0.541736 0.043862 -0.839404
vn -0.541736 0.043862 -0.839404
vn -0.541736 0.043862 -0.839404
vn -0.564107 0.017648 -0.825513
vn -0.564107 0.017648 -0.825513
vn -0.564107 0.017648 -0.825513
vn -0.997061 0.076617 0.000000
vn -0.997061 0.076617 0.000000
vn -0.997061 0.076617 0.000000
vn -0.997061 0.076618 0.000000
vn -0.997061 0.076618 0.000000
vn -0.997061 0.076618 0.000000
vn -0.150312 0.448268 0.881171
vn -0.150312 0.448268 0.881171
vn -0.150312 0.448268 0.881171
vn -0.312199 0.365538 0.876877
vn -0.312199 0.365538 0.876877
vn -0.312199 0.365538 0.876877
vn 0.584678 -0.811265 0.000000
vn 0.584678 -0.811265 0.000000
vn 0.584678 -0.811265 0.000000
vn 0.584678 -0.811265 0.000000
vn 0.584678 -0.811265 0.000000
vn 0.584678 -0.811265 0.000000
vn -0.434381 0.356073 -0.827360
vn -0.434381 0.356073 -0.827360
vn -0.434381 0.356073 -0.827360
vn -0.381633 0.415161 -0.825832
vn -0.381633 0.415161 -0.825832
vn -0.381633 0.415161 -0.825832
vn -0.629787 0.737387 0.244191
vn -0.629787 0.737387 0.244191
vn -0.629787 0.737387 0.244191
vn -0.990309 0.138885 0.000000
vn -0.990309 0.138885 0.000000
vn -0.990309 0.138885 0.000000
vn 0.322593 -0.351753 0.878751
vn 0.322593 -0.351753 0.878751
vn 0.322593 -0.351753 0.878751
vn 0.305415 -0.368844 0.877882
vn 0.305415 -0.368844 0.877882
vn 0.305415 -0.368844 0.877882
vn 0.322405 -0.330406 0.887066
vn 0.322405 -0.330406 0.887066
vn 0.322405 -0.330406 0.887066
vn 0.211296 -0.479780 0.851566
vn 0.211296 -0.479780 0.851566
vn 0.211296 -0.479780 0.851566
vn 0.156821 -0.558132 -0.814798
vn 0.156821 -0.558132 -0.814798
vn 0.156821 -0.558132 -0.814798
vn 0.242442 -0.484934 -0.840274
vn 0.242442 -0.484934 -0.840274
vn 0.242442 -0.484934 -0.840274
vn 0.326797 -0.289784 -0.899572
vn 0.326797 -0.289784 -0.899572
vn 0.326797 -0.289784 -0.899572
vn 0.292194 -0.445210 -0.846411
vn 0.292194 -0.445210 -0.846411
vn 0.292194 -0.445210 -0.846411
vn 0.308543 -0.428116 -0.849422
vn 0.308543 -0.428116 -0.849422
vn 0.308543 -0.428116 -0.849422
vn 0.294610 -0.451540 -0.842210
vn 0.294610 -0.451540 -0.842210
vn 0.294610 -0.451540 -0.842210
vn 0.818154 0.575000 0.000000
vn 0.818154 0.575000 0.000000
vn 0.818154 0.575000 0.000000
vn 0.854333 0.518273 0.038829
vn 0.854333 0.518273 0.038829
vn 0.854333 0.518273 0.038829
vn 0.225109 -0.286388 0.931294
vn 0.225109 -0.286388 0.931294
vn 0.225109 -0.286388 0.931294
vn 0.394688 -0.215326 0.893228
vn 0.394688 -0.215326 0.893228
vn 0.394688 -0.215326 0.893228
vn -0.995651 -0.093149 -0.001813
vn -0.995651 -0.093149 -0.001813
vn -0.995651 -0.093149 -0.001813
vn -0.995993 -0.089433 0.000000
vn -0.995993 -0.089433 0.000000
vn -0.995993 -0.089433 0.000000
vn -0.496177 -0.285271 -0.820018
vn -0.496177 -0.285271 -0.820018
vn -0.496177 -0.285271 -0.820018
vn -0.429804 -0.189985 -0.882708
vn -0.429804 -0.189985 -0.882708
vn -0.429804 -0.189985 -0.882708
vn 0.383465 -0.321122 -0.865930
vn 0.383465 -0.321122 -0.865930
vn 0.383465 -0.321122 -0.865930
vn 0.253511 -0.429386 -0.866810
vn 0.253511 -0.429386 -0.866810
vn 0.253511 -0.429386 -0.866810
vn -0.496527 -0.327910 -0.803702
vn -0.496527 -0.327910 -0.803702
vn -0.496527 -0.327910 -0.803702
vn -0.489311 -0.337707 -0.804070
vn -0.489311 -0.337707 -0.804070
vn -0.489311 -0.337707 -0.804070
vn 0.573313 -0.532334 -0.622842
vn 0.573313 -0.532334 -0.622842
vn 0.573313 -0.532334 -0.622842
vn 0.410017 -0.159870 -0.897958
vn 0.410017 -0.159870 -0.897958
vn 0.410017 -0.159870 -0.897958
vn -0.169948 -0.343368 0.923697
vn -0.169948 -0.343368 0.923697
vn -0.169948 -0.343368 0.923697
vn -0.364964 -0.475353 0.800525
vn -0.364964 -0.475353 0.800525
vn -0.364964 -0.475353 0.800525
vn 0.825731 -0.563965 -0.010569
vn 0.825731 -0.563965 -0.010569
vn 0.825731 -0.563965 -0.010569
vn 0.836462 -0.548025 0.000000
vn 0.836462 -0.548025 0.000000
vn 0.836462 -0.548025 0.000000
vn 0.086077 -0.562526 0.822287
vn 0.086077 -0.562526 0.822287
vn 0.086077 -0.562526 0.822287
vn 0.215844 -0.453741 0.864599
vn 0.215844 -0.453741 0.864599
vn 0.215844 -0.453741 0.864599
vn -0.965656 -0.259823 0.000073
vn -0.965656 -0.259823 0.000073
vn -0.965656 -0.259823 0.000073
vn -0.963122 -0.269016 -0.005235
vn -0.963122 -0.269016 -0.005235
vn -0.963122 -0.269016 -0.005235
vn 0.860262 -0.509852 0.000135
vn 0.860262 -0.509852 0.000135
vn 0.860262 -0.509852 0.000135
vn 0.849674 -0.527216 -0.009881
vn 0.849674 -0.527216 -0.009881
vn 0.849674 -0.527216 -0.009881
vn -0.153851 -0.584988 0.796316
vn -0.153851 -0.584988 0.796316
vn -0.153851 -0.584988 0.796316
vn 0.059168 -0.693100 0.718409
vn 0.059168 -0.693100 0.718409
vn 0.059168 -0.693100 0.718409
vn 0.066396 -0.661284 0.747192
vn 0.066396 -0.661284 0.747192
vn 0.066396 -0.661284 0.747192
vn 0.027188 -0.692141 0.721250
vn 0.027188 -0.692141 0.721250
vn 0.027188 -0.692141 0.721250
vn 0.000123 -1.000000 0.000138
vn 0.000123 -1.000000 0.000138
vn 0.000123 -1.000000 0.000138
vn -0.000209 -1.000000 0.000280
vn -0.000209 -1.000000 0.000280
vn -0.000209 -1.000000 0.000280
vn -0.000466 -1.000000 -0.000042
vn -0.000466 -1.000000 -0.000042
vn -0.000466 -1.000000 -0.000042
vn -0.000097 -1.000000 0.000265
vn -0.000097 -1.000000 0.000265
vn -0.000097 -1.000000 0.000265
vn 0.000000 0.000000 1.000000
vn 0.000000 0.000000 1.000000
vn 0.000000 0.000000 1.000000
vn 0.000000 0.000000 1.000000
vn 0.000000 0.000000 1.000000
vn 0.000000 0.000000 1.000000
vn 0.000000 -0.999995 -0.003295
vn 0.000000 -0.999995 -0.003295
vn 0.000000 -0.999995 -0.003295
vn 0.000000 -0.999995 -0.003295
vn 0.000000 -0.999995 -0.003295
vn 0.000000 -0.999995 -0.003295
vn 0.999774 0.000000 0.021251
vn 0.999774 0.000000 0.021251
vn 0.999774 0.000000 0.021251
vn 0.999711 -0.006910 0.023014
vn 0.999711 -0.006910 0.023014
vn 0.999711 -0.006910 0.023014
vn 0.000000 0.899159 0.437622
vn 0.000000 0.899159 0.437622
vn 0.000000 0.899159 0.437622
vn 0.000000 0.899158 0.437624
vn 0.000000 0.899158 0.437624
vn 0.000000 0.899158 0.437624
vn -0.848177 0.000000 0.529713
vn -0.848177 0.000000 0.529713
vn -0.848177 0.000000 0.529713
vn -0.816837 -0.165890 0.552501
vn -0.816837 -0.165890 0.552501
vn -0.816837 -0.165890 0.552501
vn 0.000000 0.965005 0.262231
vn 0.000000 0.965005 0.262231
vn 0.000000 0.965005 0.262231
vn 0.000000 0.965005 0.262230
vn 0.000000 0.965005 0.262230
vn 0.000000 0.965005 0.262230
vn -0.891071 -0.130517 0.434694
vn -0.891071 -0.130517 0.434694
vn -0.891071 -0.130517 0.434694
vn -0.922125 -0.314431 0.225430
vn -0.922125 -0.314431 0.225430
vn -0.922125 -0.314431 0.225430
vn 0.000000 -0.999460 0.032859
vn 0.000000 -0.999460 0.032859
vn 0.000000 -0.999460 0.032859
vn 0.000000 -0.999460 0.032859
vn 0.000000 -0.999460 0.032859
vn 0.000000 -0.999460 0.032859
vn 0.999993 -0.001790 0.003428
vn 0.999993 -0.001790 0.003428
vn 0.999993 -0.001790 0.003428
vn 0.999991 -0.001236 0.004119
vn 0.999991 -0.001236 0.004119
vn 0.999991 -0.001236 0.004119
vn 0.000000 0.000000 1.000000
vn 0.000000 0.000000 1.000000
vn 0.000000 0.000000 1.000000
vn 0.000000 0.000000 1.000000
vn 0.000000 0.000000 1.000000
vn 0.000000 0.000000 1.000000
vn 0.000000 -0.999995 -0.003295
vn 0.000000 -0.999995 -0.003295
vn 0.000000 -0.999995 -0.003295
vn 0.000000 -0.999995 -0.003295
vn 0.000000 -0.999995 -0.003295
vn 0.000000 -0.999995 -0.003295
vn -0.999774 0.000000 0.021251
vn -0.999774 0.000000 0.021251
vn -0.999774 0.000000 0.021251
vn -0.999711 -0.006911 0.023014
vn -0.999711 -0.006911 0.023014
vn -0.999711 -0.006911 0.023014
vn 0.000000 0.899158 0.437625
vn 0.000000 0.899158 0.437625
vn 0.000000 0.899158 0.437625
vn 0.000000 0.899158 0.437624
vn 0.000000 0.899158 0.437624
vn 0.000000 0.899158 0.437624
vn 0.848178 0.000000 0.529711
vn 0.848178 0.000000 0.529711
vn 0.848178 0.000000 0.529711
vn 0.816838 -0.165891 0.552500
vn 0.816838 -0.165891 0.552500
vn 0.816838 -0.165891 0.552500
vn 0.000000 0.965005 0.262230
vn 0.000000 0.965005 0.262230
vn 0.000000 0.965005 0.262230
vn 0.000000 0.965005 0.262230
vn 0.000000 0.965005 0.262230
vn 0.000000 0.965005 0.262230
vn 0.891070 -0.130517 0.434694
vn 0.891070 -0.130517 0.434694
vn 0.891070 -0.130517 0.434694
vn 0.922125 -0.314432 0.225430
vn 0.922125 -0.314432 0.225430
vn 0.922125 -0.314432 0.225430
vn 0.000000 -0.999460 0.032859
vn 0.000000 -0.999460 0.032859
vn 0.000000 -0.999460 0.032859
vn 0.000000 -0.999460 0.032859
vn 0.000000 -0.999460 0.032859
vn 0.000000 -0.999460 0.032859
vn -0.999991 -0.001236 0.004119
vn -0.999991 -0.001236 0.004119
vn -0.999991 -0.001236 0.004119
vn -0.999993 -0.001790 0.003428
vn -0.999993 -0.001790 0.003428
vn -0.999993 -0.001790 0.003428
s off
g rightLeg
usemtl None
f 19/1/1 14/2/2 20/3/3
f 20/3/4 14/2/5 5/4/6
f 17/5/7 4/6/8 18/7/9
f 18/7/10 4/6/11 2/8/12
f 15/9/13 22/10/14 8/11/15
f 8/11/16 22/10/17 21/12/18
f 5/4/19 8/11/20 20/3/21
f 20/3/22 8/11/23 21/12/24
f 7/13/25 6/14/26 23/15/27
f 23/15/28 6/14/29 24/16/30
f 14/2/31 13/17/32 5/4/33
f 5/4/34 13/17/35 9/18/36
f 7/13/37 11/19/38 6/14/39
f 6/14/40 11/19/41 10/20/42
f 16/21/43 15/9/44 12/22/45
f 12/22/46 15/9/47 8/11/48
f 5/4/49 9/18/50 8/11/51
f 8/11/52 9/18/53 12/22/54
f 18/23/55 2/24/56 13/17/57
f 13/17/58 2/24/59 9/18/60
f 3/25/61 1/26/62 11/19/63
f 11/19/64 1/26/65 10/20/66
f 17/27/67 16/21/68 4/28/69
f 4/28/70 16/21/71 12/22/72
f 2/24/73 4/28/74 9/18/75
f 9/18/76 4/28/77 12/22/78
f 10/20/79 13/17/80 6/14/81
f 6/14/82 13/17/83 14/2/84
f 6/14/85 14/2/86 24/16/87
f 24/16/88 14/2/89 19/1/90
f 7/29/91 23/30/92 15/9/93
f 15/9/94 23/30/95 22/10/96
f 7/29/97 15/9/98 11/31/99
f 11/31/100 15/9/101 16/21/102
f 11/31/103 16/21/104 3/32/105
f 3/32/106 16/21/107 17/27/108
f 1/33/109 3/34/110 18/7/111
f 18/7/112 3/34/113 17/5/114
f 1/26/115 18/23/116 10/20/117
f 10/20/118 18/23/119 13/17/120
f 27/35/121 26/36/122 21/12/123
f 21/12/124 26/36/125 20/3/126
f 27/35/127 21/12/128 28/37/129
f 28/37/130 21/12/131 22/10/132
f 28/37/133 22/10/134 29/38/135
f 29/38/136 22/10/137 23/30/138
f 33/39/139 32/40/140 28/37/141
f 28/37/142 32/40/143 27/35/144
f 34/41/145 33/39/146 29/38/147
f 29/38/148 33/39/149 28/37/150
f 26/36/151 25/42/152 20/3/153
f 20/3/154 25/42/155 19/1/156
f 29/43/157 23/15/158 30/44/159
f 30/44/160 23/15/161 24/16/162
f 25/42/163 30/44/164 19/1/165
f 19/1/166 30/44/167 24/16/168
f 32/40/169 31/45/170 27/35/171
f 27/35/172 31/45/173 26/36/174
f 34/46/175 29/43/176 35/47/177
f 35/47/178 29/43/179 30/44/180
f 26/36/181 31/45/182 25/42/183
f 25/42/184 31/45/185 36/48/186
f 30/44/187 25/42/188 35/47/189
f 35/47/190 25/42/191 36/48/192
f 33/49/193 36/50/194 32/51/195
f 32/51/196 36/50/197 31/52/198
f 33/49/199 34/53/200 36/50/201
f 36/50/202 34/53/203 35/54/204
f 37/55/205 39/56/206 38/57/207
f 38/57/208 39/56/209 40/58/210
f 37/55/211 38/57/212 44/59/213
f 38/57/214 43/60/215 44/59/216
f 37/61/217 44/62/218 39/56/219
f 39/56/220 44/62/221 41/63/222
f 39/56/223 41/63/224 40/58/225
f 40/58/226 41/63/227 42/64/228
f 38/57/229 40/58/230 43/60/231
f 43/60/232 40/58/233 42/64/234
f 41/63/235 45/65/236 42/64/237
f 42/64/238 45/65/239 46/66/240
f 42/64/241 46/66/242 43/60/243
f 43/60/244 46/66/245 47/67/246
f 47/67/247 48/68/248 43/60/249
f 43/60/250 48/68/251 44/59/252
f 48/69/253 45/65/254 44/62/255
f 44/62/256 45/65/257 41/63/258
f 49/70/259 50/71/260 51/72/261
f 51/72/262 50/71/263 52/73/264
f 49/70/265 56/74/266 50/71/267
f 50/71/268 56/74/269 55/75/270
f 49/76/271 51/72/272 56/77/273
f 56/77/274 51/72/275 53/78/276
f 51/72/277 52/73/278 53/78/279
f 52/73/280 54/79/281 53/78/282
f 50/71/283 55/75/284 52/73/285
f 52/73/286 55/75/287 54/79/288
f 53/78/289 54/79/290 57/80/291
f 57/80/292 54/79/293 58/81/294
f 54/79/295 55/75/296 58/81/297
f 58/81/298 55/75/299 59/82/300
f 56/74/301 60/83/302 55/75/303
f 55/75/304 60/83/305 59/82/306
f 53/78/307 57/80/308 56/77/309
f 56/77/310 57/80/311 60/84/312
