# This file uses centimeters as units for non-parametric coordinates.

mtllib EmboarTail2.mtl
g default
v -0.932971 -0.605995 -5.471295
v 0.902971 -0.605995 -5.471295
v 0.902971 -1.003551 -5.471295
v -0.932971 -1.003551 -5.471295
v -0.015251 -1.722743 -5.471295
v -0.015251 0.113197 -5.471295
v -0.932971 0.320781 0.238476
v -0.015251 1.039975 0.238476
v 0.902971 0.320781 0.238476
v -0.932971 -0.076774 0.238476
v -0.015251 -0.795966 0.238476
v 0.902971 -0.076774 0.238476
vt 0.440637 0.179514
vt 0.421458 0.094621
vt 0.456270 0.172505
vt 0.437744 0.090057
vt 0.423496 0.180105
vt 0.404822 0.097639
vt 0.461022 0.169528
vt 0.443178 0.088416
vt 0.476284 0.162833
vt 0.459502 0.084583
vt 0.417924 0.179499
vt 0.401255 0.180081
vt 0.399217 0.098531
vt 0.382848 0.102162
vn -0.611856 0.780752 -0.126727
vn -0.611856 0.780751 -0.126727
vn -0.611856 0.780752 -0.126727
vn -0.611854 0.780753 -0.126727
vn -0.611854 0.780752 -0.126727
vn -0.611854 0.780752 -0.126727
vn 0.611646 0.780911 -0.126753
vn 0.611646 0.780911 -0.126753
vn 0.611646 0.780911 -0.126753
vn 0.611645 0.780912 -0.126753
vn 0.611645 0.780912 -0.126753
vn 0.611645 0.780912 -0.126753
vn -1.000000 0.000000 0.000000
vn -1.000000 0.000000 0.000000
vn -1.000000 0.000000 0.000000
vn -1.000000 0.000000 0.000000
vn -1.000000 0.000000 0.000000
vn -1.000000 0.000000 0.000000
vn -0.611854 -0.780753 0.126727
vn -0.611854 -0.780753 0.126727
vn -0.611854 -0.780753 0.126727
vn -0.611854 -0.780752 0.126727
vn -0.611854 -0.780752 0.126727
vn -0.611854 -0.780752 0.126727
vn 0.611645 -0.780912 0.126753
vn 0.611645 -0.780912 0.126753
vn 0.611645 -0.780912 0.126753
vn 0.611645 -0.780912 0.126753
vn 0.611645 -0.780912 0.126753
vn 0.611645 -0.780912 0.126753
vn 1.000000 0.000000 0.000000
vn 1.000000 0.000000 0.000000
vn 1.000000 0.000000 0.000000
vn 1.000000 0.000000 0.000000
vn 1.000000 0.000000 0.000000
vn 1.000000 0.000000 0.000000
s off
g Tail2
usemtl None
f 8/1/1 6/2/2 7/3/3
f 7/3/4 6/2/5 1/4/6
f 8/1/7 9/5/8 6/2/9
f 6/2/10 9/5/11 2/6/12
f 7/3/13 1/4/14 10/7/15
f 10/7/16 1/4/17 4/8/18
f 10/7/19 4/8/20 11/9/21
f 11/9/22 4/8/23 5/10/24
f 12/11/25 11/12/26 3/13/27
f 3/13/28 11/12/29 5/14/30
f 9/5/31 12/11/32 2/6/33
f 2/6/34 12/11/35 3/13/36
