# This file uses centimeters as units for non-parametric coordinates.

mtllib SnorlaxRFoot.mtl
g default
v -0.383845 -0.554215 0.949305
v -0.650265 -0.895775 0.956070
v -0.644350 -0.895775 1.537515
v -0.262170 -0.895775 1.114360
v 0.454170 -0.561190 0.936980
v 0.274145 -0.892765 1.112890
v 0.666830 -0.895775 1.593555
v 0.651235 -0.895775 0.964060
v -0.001125 -0.544480 1.168620
v -0.221305 -0.895775 1.145380
v -0.001880 -0.895775 1.751230
v 0.220865 -0.895775 1.147540
v 1.082025 -0.907615 -0.002910
v 0.002180 -0.907615 -1.318925
v -1.077670 -0.907615 -0.002910
v 0.002180 -0.907615 1.313105
v 0.002180 -0.907615 -0.002910
v 0.002180 0.005645 -0.002910
v 0.645215 -0.090575 -0.002910
v 0.812065 -0.907615 -0.989925
v 0.812065 -0.907615 -0.002910
v 0.812065 -0.907615 0.984100
v 0.002180 -0.090575 -0.786580
v -0.807710 -0.907615 -0.989925
v 0.002180 -0.907615 -0.989925
v -0.640860 -0.090575 -0.002910
v -0.807710 -0.907615 0.984100
v -0.807710 -0.907615 -0.002910
v 0.002180 -0.090575 0.780760
v 0.002180 -0.907615 0.984100
v 0.602095 -0.907615 0.728210
v 0.602095 -0.907615 -0.734030
v -0.597740 -0.907615 -0.734030
v -0.597740 -0.907615 0.728210
v 0.478500 -0.185685 0.577585
v 0.478500 -0.185685 -0.583410
v -0.474145 -0.185685 -0.583410
v -0.474145 -0.185685 0.577585
v 0.955375 -0.396565 -0.002910
v 0.002180 -0.396565 -1.164575
v -0.951020 -0.396565 -0.002910
v 0.002180 -0.396565 1.158755
v 0.711885 -0.479445 -0.867835
v 0.711885 -0.479445 0.862015
v -0.707530 -0.479445 -0.867835
v -0.707530 -0.479445 0.862015
vt 0.184326 0.404053
vt 0.184326 0.404053
vt 0.184326 0.404053
vt 0.184326 0.404053
vt 0.184326 0.404053
vt 0.184326 0.404053
vt 0.184326 0.404053
vt 0.184326 0.404053
vt 0.184326 0.404053
vt 0.184326 0.404053
vt 0.184326 0.404053
vt 0.184326 0.404053
vt 0.184326 0.404053
vt 0.184326 0.404053
vt 0.184326 0.404053
vt 0.184326 0.404053
vt 0.184326 0.404053
vt 0.184326 0.404053
vt 0.184326 0.404053
vt 0.184326 0.404053
vt 0.184326 0.404053
vt 0.184326 0.404053
vt 0.184326 0.404053
vt 0.184326 0.404053
vt 0.184326 0.404053
vt 0.184326 0.404053
vt 0.184326 0.404053
vt 0.184326 0.404053
vt 0.184326 0.404053
vt 0.184326 0.404053
vt 0.184326 0.404053
vt 0.184326 0.404053
vt 0.184326 0.404053
vt 0.184326 0.404053
vt 0.184326 0.404053
vt 0.184326 0.404053
vt 0.283392 0.186365
vt 0.140588 0.186365
vt 0.283392 0.329169
vt 0.140588 0.329169
vt 0.283392 0.186365
vt 0.140588 0.186365
vt 0.283392 0.329169
vt 0.140588 0.329169
vt 0.283392 0.186365
vt 0.140588 0.186365
vt 0.283392 0.329169
vt 0.140588 0.329169
vt 0.283392 0.186365
vt 0.140588 0.186365
vt 0.283392 0.329169
vt 0.140588 0.329169
vt 0.283392 0.186365
vt 0.140588 0.186365
vt 0.283392 0.329169
vt 0.140588 0.329169
vt 0.283392 0.186365
vt 0.140588 0.186365
vt 0.283392 0.329169
vt 0.140588 0.329169
vt 0.283392 0.329169
vt 0.283392 0.186365
vt 0.140588 0.329169
vt 0.140588 0.186365
vt 0.283392 0.329169
vt 0.283392 0.186365
vt 0.140588 0.329169
vt 0.140588 0.186365
vt 0.283392 0.186365
vt 0.140588 0.186365
vt 0.283392 0.329169
vt 0.140588 0.329169
vt 0.283392 0.186365
vt 0.140588 0.186365
vt 0.283392 0.329169
vt 0.140588 0.329169
vt 0.283392 0.186365
vt 0.140588 0.186365
vt 0.283392 0.329169
vt 0.140588 0.329169
vt 0.283392 0.186365
vt 0.140588 0.186365
vt 0.283392 0.329169
vt 0.140588 0.329169
vt 0.283392 0.186365
vt 0.140588 0.186365
vt 0.283392 0.329169
vt 0.140588 0.329169
vt 0.283392 0.186365
vt 0.140588 0.186365
vt 0.283392 0.329169
vt 0.140588 0.329169
vt 0.283392 0.329169
vt 0.283392 0.186365
vt 0.140588 0.329169
vt 0.140588 0.186365
vt 0.283392 0.329169
vt 0.283392 0.186365
vt 0.140588 0.329169
vt 0.140588 0.186365
vt 0.283392 0.186365
vt 0.140588 0.186365
vt 0.283392 0.329169
vt 0.140588 0.329169
vt 0.283392 0.186365
vt 0.140588 0.186365
vt 0.283392 0.329169
vt 0.140588 0.329169
vt 0.283392 0.186365
vt 0.140588 0.186365
vt 0.283392 0.329169
vt 0.140588 0.329169
vt 0.283392 0.186365
vt 0.140588 0.186365
vt 0.283392 0.329169
vt 0.140588 0.329169
vt 0.283392 0.186365
vt 0.140588 0.186365
vt 0.283392 0.329169
vt 0.140588 0.329169
vt 0.283392 0.186365
vt 0.140588 0.186365
vt 0.283392 0.329169
vt 0.140588 0.329169
vt 0.283392 0.186365
vt 0.140588 0.186365
vt 0.283392 0.329169
vt 0.140588 0.329169
vt 0.283392 0.186365
vt 0.140588 0.186365
vt 0.283392 0.329169
vt 0.140588 0.329169
vt 0.283392 0.186365
vt 0.140588 0.186365
vt 0.283392 0.329169
vt 0.140588 0.329169
vt 0.283392 0.186365
vt 0.140588 0.186365
vt 0.283392 0.329169
vt 0.140588 0.329169
vt 0.283392 0.186365
vt 0.140588 0.186365
vt 0.283392 0.329169
vt 0.140588 0.329169
vt 0.283392 0.186365
vt 0.140588 0.186365
vt 0.283392 0.329169
vt 0.140588 0.329169
vt 0.283392 0.186365
vt 0.140588 0.186365
vt 0.283392 0.329169
vt 0.140588 0.329169
vt 0.283392 0.186365
vt 0.140588 0.186365
vt 0.283392 0.329169
vt 0.140588 0.329169
vt 0.283392 0.186365
vt 0.140588 0.186365
vt 0.283392 0.329169
vt 0.140588 0.329169
vt 0.283392 0.186365
vt 0.140588 0.186365
vt 0.283392 0.329169
vt 0.140588 0.329169
vn 0.639654 0.507040 0.577714
vn 0.639654 0.507040 0.577714
vn 0.639654 0.507040 0.577714
vn -0.788397 0.615115 0.008020
vn -0.788397 0.615115 0.008020
vn -0.788397 0.615115 0.008020
vn 0.000000 -1.000000 0.000000
vn 0.000000 -1.000000 0.000000
vn 0.000000 -1.000000 0.000000
vn 0.360426 -0.298638 -0.883690
vn 0.360426 -0.298638 -0.883690
vn 0.360426 -0.298638 -0.883690
vn 0.862211 0.506099 -0.021360
vn 0.862211 0.506099 -0.021360
vn 0.862211 0.506099 -0.021360
vn -0.615792 0.603239 0.506856
vn -0.615792 0.603239 0.506856
vn -0.615792 0.603239 0.506856
vn -0.007905 -0.999969 0.000196
vn -0.007905 -0.999969 0.000196
vn -0.007905 -0.999969 0.000196
vn -0.354282 -0.280859 -0.891966
vn -0.354282 -0.280859 -0.891966
vn -0.354282 -0.280859 -0.891966
vn 0.814336 0.496564 0.300468
vn 0.814336 0.496564 0.300468
vn 0.814336 0.496564 0.300468
vn -0.817984 0.493087 0.296255
vn -0.817984 0.493087 0.296255
vn -0.817984 0.493087 0.296255
vn 0.000000 -1.000000 0.000000
vn 0.000000 -1.000000 0.000000
vn 0.000000 -1.000000 0.000000
vn 0.004875 0.062968 -0.998004
vn 0.004875 0.062968 -0.998004
vn 0.004875 0.062968 -0.998004
vn 0.421557 0.906802 0.000000
vn 0.399165 0.862497 0.311072
vn 0.896316 0.443415 0.000000
vn 0.896316 0.443415 0.000000
vn 0.399165 0.862497 0.311072
vn 0.668133 0.501656 0.549490
vn 0.668134 0.501656 -0.549489
vn 0.399165 0.862497 -0.311073
vn 0.896316 0.443415 0.000000
vn 0.896316 0.443415 0.000000
vn 0.399165 0.862497 -0.311073
vn 0.421557 0.906802 0.000000
vn 0.000000 -1.000000 0.000000
vn 0.000000 -1.000000 0.000000
vn 0.987046 -0.160440 0.000000
vn 0.987046 -0.160440 0.000000
vn 0.000000 -1.000000 0.000000
vn 0.751282 -0.167901 -0.638266
vn 0.751283 -0.167905 0.638264
vn 0.000000 -1.000000 0.000000
vn 0.987046 -0.160440 0.000000
vn 0.987046 -0.160440 0.000000
vn 0.000000 -1.000000 0.000000
vn 0.000000 -1.000000 0.000000
vn -0.000000 0.926246 -0.376919
vn 0.399165 0.862497 -0.311073
vn -0.000000 0.509268 -0.860608
vn -0.000000 0.509268 -0.860608
vn 0.399165 0.862497 -0.311073
vn 0.668134 0.501656 -0.549489
vn -0.668133 0.501657 -0.549490
vn -0.399163 0.862498 -0.311073
vn -0.000000 0.509268 -0.860608
vn -0.000000 0.509268 -0.860608
vn -0.399163 0.862498 -0.311073
vn -0.000000 0.926246 -0.376919
vn 0.000000 -0.266096 -0.963946
vn 0.000000 -1.000000 0.000000
vn -0.751281 -0.167901 -0.638268
vn -0.751281 -0.167901 -0.638268
vn 0.000000 -1.000000 0.000000
vn 0.000000 -1.000000 0.000000
vn 0.000000 -0.266096 -0.963946
vn 0.751282 -0.167901 -0.638266
vn 0.000000 -1.000000 0.000000
vn 0.000000 -1.000000 0.000000
vn 0.751282 -0.167901 -0.638266
vn 0.000000 -1.000000 0.000000
vn -0.421556 0.906802 -0.000000
vn -0.399163 0.862498 -0.311073
vn -0.896316 0.443415 0.000000
vn -0.896316 0.443415 0.000000
vn -0.399163 0.862498 -0.311073
vn -0.668133 0.501657 -0.549490
vn -0.668132 0.501657 0.549491
vn -0.399163 0.862498 0.311072
vn -0.896316 0.443415 0.000000
vn -0.896316 0.443415 0.000000
vn -0.399163 0.862498 0.311072
vn -0.421556 0.906802 -0.000000
vn 0.000000 -1.000000 0.000000
vn 0.000000 -1.000000 0.000000
vn -0.987046 -0.160439 0.000000
vn -0.987046 -0.160439 0.000000
vn 0.000000 -1.000000 0.000000
vn -0.751282 -0.167905 0.638266
vn -0.751281 -0.167901 -0.638268
vn 0.000000 -1.000000 0.000000
vn -0.987046 -0.160439 0.000000
vn -0.987046 -0.160439 0.000000
vn 0.000000 -1.000000 0.000000
vn 0.000000 -1.000000 0.000000
vn 0.000000 0.926246 0.376921
vn -0.399163 0.862498 0.311072
vn 0.000000 0.509270 0.860607
vn 0.000000 0.509270 0.860607
vn -0.399163 0.862498 0.311072
vn -0.668132 0.501657 0.549491
vn 0.668133 0.501656 0.549490
vn 0.399165 0.862497 0.311072
vn 0.000000 0.509270 0.860607
vn 0.000000 0.509270 0.860607
vn 0.399165 0.862497 0.311072
vn 0.000000 0.926246 0.376921
vn 0.000000 -0.266106 0.963944
vn 0.000000 -1.000000 0.000000
vn 0.751283 -0.167905 0.638264
vn 0.751283 -0.167905 0.638264
vn 0.000000 -1.000000 0.000000
vn 0.000000 -1.000000 0.000000
vn 0.000000 -0.266106 0.963944
vn -0.751282 -0.167905 0.638266
vn 0.000000 -1.000000 0.000000
vn 0.000000 -1.000000 0.000000
vn -0.751282 -0.167905 0.638266
vn 0.000000 -1.000000 0.000000
vn 0.000000 -1.000000 0.000000
vn 0.000000 -1.000000 0.000000
vn 0.000000 -1.000000 0.000000
vn 0.000000 -1.000000 0.000000
vn 0.000000 -1.000000 0.000000
vn 0.000000 -1.000000 0.000000
vn 0.000000 -1.000000 0.000000
vn 0.000000 -1.000000 0.000000
vn 0.000000 -1.000000 0.000000
vn 0.000000 -1.000000 0.000000
vn 0.000000 -1.000000 0.000000
vn 0.000000 -1.000000 0.000000
vn 0.000000 -1.000000 0.000000
vn 0.000000 -1.000000 0.000000
vn 0.000000 -1.000000 0.000000
vn 0.000000 -1.000000 0.000000
vn 0.000000 -1.000000 0.000000
vn 0.000000 -1.000000 0.000000
vn 0.000000 -1.000000 0.000000
vn 0.000000 -1.000000 0.000000
vn 0.000000 -1.000000 0.000000
vn 0.000000 -1.000000 0.000000
vn 0.000000 -1.000000 0.000000
vn 0.000000 -1.000000 0.000000
vn -0.421556 0.906802 -0.000000
vn -0.399163 0.862498 0.311072
vn -0.000000 1.000000 -0.000000
vn -0.000000 1.000000 -0.000000
vn -0.399163 0.862498 0.311072
vn 0.000000 0.926246 0.376921
vn -0.000000 0.926246 -0.376919
vn -0.399163 0.862498 -0.311073
vn -0.000000 1.000000 -0.000000
vn -0.000000 1.000000 -0.000000
vn -0.399163 0.862498 -0.311073
vn -0.421556 0.906802 -0.000000
vn 0.421557 0.906802 0.000000
vn 0.399165 0.862497 -0.311073
vn -0.000000 1.000000 -0.000000
vn -0.000000 1.000000 -0.000000
vn 0.399165 0.862497 -0.311073
vn -0.000000 0.926246 -0.376919
vn 0.000000 0.926246 0.376921
vn 0.399165 0.862497 0.311072
vn -0.000000 1.000000 -0.000000
vn -0.000000 1.000000 -0.000000
vn 0.399165 0.862497 0.311072
vn 0.421557 0.906802 0.000000
vn 0.896316 0.443415 0.000000
vn 0.668133 0.501656 0.549490
vn 0.987046 -0.160440 0.000000
vn 0.987046 -0.160440 0.000000
vn 0.668133 0.501656 0.549490
vn 0.751283 -0.167905 0.638264
vn 0.751282 -0.167901 -0.638266
vn 0.668134 0.501656 -0.549489
vn 0.987046 -0.160440 0.000000
vn 0.987046 -0.160440 0.000000
vn 0.668134 0.501656 -0.549489
vn 0.896316 0.443415 0.000000
vn -0.000000 0.509268 -0.860608
vn 0.668134 0.501656 -0.549489
vn 0.000000 -0.266096 -0.963946
vn 0.000000 -0.266096 -0.963946
vn 0.668134 0.501656 -0.549489
vn 0.751282 -0.167901 -0.638266
vn -0.751281 -0.167901 -0.638268
vn -0.668133 0.501657 -0.549490
vn 0.000000 -0.266096 -0.963946
vn 0.000000 -0.266096 -0.963946
vn -0.668133 0.501657 -0.549490
vn -0.000000 0.509268 -0.860608
vn -0.896316 0.443415 0.000000
vn -0.668133 0.501657 -0.549490
vn -0.987046 -0.160439 0.000000
vn -0.987046 -0.160439 0.000000
vn -0.668133 0.501657 -0.549490
vn -0.751281 -0.167901 -0.638268
vn -0.751282 -0.167905 0.638266
vn -0.668132 0.501657 0.549491
vn -0.987046 -0.160439 0.000000
vn -0.987046 -0.160439 0.000000
vn -0.668132 0.501657 0.549491
vn -0.896316 0.443415 0.000000
vn 0.000000 0.509270 0.860607
vn -0.668132 0.501657 0.549491
vn 0.000000 -0.266106 0.963944
vn 0.000000 -0.266106 0.963944
vn -0.668132 0.501657 0.549491
vn -0.751282 -0.167905 0.638266
vn 0.751283 -0.167905 0.638264
vn 0.668133 0.501656 0.549490
vn 0.000000 -0.266106 0.963944
vn 0.000000 -0.266106 0.963944
vn 0.668133 0.501656 0.549490
vn 0.000000 0.509270 0.860607
s off
g polySurface5
usemtl None
f 4/1/1 1/2/2 3/3/3
f 1/4/4 2/5/5 3/6/6
f 2/7/7 4/8/8 3/9/9
f 1/10/10 4/11/11 2/12/12
f 8/13/13 5/14/14 7/15/15
f 5/16/16 6/17/17 7/18/18
f 6/19/19 8/20/20 7/21/21
f 5/22/22 8/23/23 6/24/24
f 12/25/25 9/26/26 11/27/27
f 9/28/28 10/29/29 11/30/30
f 10/31/31 12/32/32 11/33/33
f 9/34/34 12/35/35 10/36/36
f 19/37/37 35/38/38 39/39/39
f 39/39/40 35/38/41 44/40/42
f 43/41/43 36/42/44 39/43/45
f 39/43/46 36/42/47 19/44/48
f 21/45/49 32/46/50 13/47/51
f 13/47/52 32/46/53 20/48/54
f 22/49/55 31/50/56 13/51/57
f 13/51/58 31/50/59 21/52/60
f 23/53/61 36/54/62 40/55/63
f 40/55/64 36/54/65 43/56/66
f 45/57/67 37/58/68 40/59/69
f 40/59/70 37/58/71 23/60/72
f 14/61/73 25/62/74 24/63/75
f 24/63/76 25/62/77 33/64/78
f 14/65/79 20/66/80 25/67/81
f 25/67/82 20/66/83 32/68/84
f 26/69/85 37/70/86 41/71/87
f 41/71/88 37/70/89 45/72/90
f 46/73/91 38/74/92 41/75/93
f 41/75/94 38/74/95 26/76/96
f 28/77/97 34/78/98 15/79/99
f 15/79/100 34/78/101 27/80/102
f 24/81/103 33/82/104 15/83/105
f 15/83/106 33/82/107 28/84/108
f 29/85/109 38/86/110 42/87/111
f 42/87/112 38/86/113 46/88/114
f 44/89/115 35/90/116 42/91/117
f 42/91/118 35/90/119 29/92/120
f 16/93/121 30/94/122 22/95/123
f 22/95/124 30/94/125 31/96/126
f 16/97/127 27/98/128 30/99/129
f 30/99/130 27/98/131 34/100/132
f 21/101/133 31/102/134 17/103/135
f 17/103/136 31/102/137 30/104/138
f 25/105/139 32/106/140 17/107/141
f 17/107/142 32/106/143 21/108/144
f 28/109/145 33/110/146 17/111/147
f 17/111/148 33/110/149 25/112/150
f 30/113/151 34/114/152 17/115/153
f 17/115/154 34/114/155 28/116/156
f 26/117/157 38/118/158 18/119/159
f 18/119/160 38/118/161 29/120/162
f 23/121/163 37/122/164 18/123/165
f 18/123/166 37/122/167 26/124/168
f 19/125/169 36/126/170 18/127/171
f 18/127/172 36/126/173 23/128/174
f 29/129/175 35/130/176 18/131/177
f 18/131/178 35/130/179 19/132/180
f 39/133/181 44/134/182 13/135/183
f 13/135/184 44/134/185 22/136/186
f 20/137/187 43/138/188 13/139/189
f 13/139/190 43/138/191 39/140/192
f 40/141/193 43/142/194 14/143/195
f 14/143/196 43/142/197 20/144/198
f 24/145/199 45/146/200 14/147/201
f 14/147/202 45/146/203 40/148/204
f 41/149/205 45/150/206 15/151/207
f 15/151/208 45/150/209 24/152/210
f 27/153/211 46/154/212 15/155/213
f 15/155/214 46/154/215 41/156/216
f 42/157/217 46/158/218 16/159/219
f 16/159/220 46/158/221 27/160/222
f 22/161/223 44/162/224 16/163/225
f 16/163/226 44/162/227 42/164/228
