# This file uses centimeters as units for non-parametric coordinates.

mtllib SnorlaxLArm.mtl
g default
v 2.478870 -1.623180 0.460460
v 2.416175 -1.893600 0.327675
v 2.438055 -2.131710 0.709415
v 2.244920 -1.794550 0.563365
v 1.912595 -1.271610 0.731745
v 1.931080 -1.578515 0.719075
v 1.872895 -1.640450 1.161435
v 1.685575 -1.444320 0.847185
v 2.636865 -1.703300 0.182345
v 2.454830 -1.903410 0.035685
v 2.621910 -2.267700 0.241300
v 2.461765 -1.898565 0.343285
v 2.664560 -1.695245 -0.130260
v 2.407855 -1.832255 -0.230355
v 2.551390 -2.251230 -0.148145
v 2.512715 -1.890230 0.053075
v 2.431775 -1.654870 -0.399455
v 2.185485 -1.820840 -0.597615
v 2.570735 -2.248465 -0.426320
v 2.434900 -1.904685 -0.320030
v -0.084340 -0.030240 -0.954480
v 0.678435 -0.926550 -1.236590
v 1.258425 -0.024100 0.002305
v -0.253250 -0.138880 0.000025
v -0.084340 -0.030240 0.954535
v 0.678435 -0.926550 1.236645
v 0.678435 -0.926550 0.000025
v 0.127910 0.199690 -0.621205
v 1.258425 -0.024100 -0.805485
v 0.272175 0.253585 0.000025
v 0.127910 0.199690 0.625815
v 1.258425 -0.024100 0.810095
v 1.428485 -1.559775 -1.006745
v 1.317935 -1.636405 0.000025
v 1.428485 -1.559775 1.006795
v 2.103710 -0.873920 -0.655345
v 2.263390 -0.849595 0.000030
v 2.103710 -0.873920 0.659955
v 2.182405 -2.026200 -0.658785
v 2.375370 -2.092915 0.000030
v 2.260555 -1.991775 0.590590
v 2.646405 -1.590550 -0.393525
v 2.787865 -1.717415 0.000030
v 2.646400 -1.590550 0.441045
vt 0.184326 0.404053
vt 0.184326 0.404053
vt 0.184326 0.404053
vt 0.184326 0.404053
vt 0.184326 0.404053
vt 0.184326 0.404053
vt 0.184326 0.404053
vt 0.184326 0.404053
vt 0.184326 0.404053
vt 0.184326 0.404053
vt 0.184326 0.404053
vt 0.184326 0.404053
vt 0.184326 0.404053
vt 0.184326 0.404053
vt 0.184326 0.404053
vt 0.184326 0.404053
vt 0.184326 0.404053
vt 0.184326 0.404053
vt 0.184326 0.404053
vt 0.184326 0.404053
vt 0.184326 0.404053
vt 0.184326 0.404053
vt 0.184326 0.404053
vt 0.184326 0.404053
vt 0.184326 0.404053
vt 0.184326 0.404053
vt 0.184326 0.404053
vt 0.184326 0.404053
vt 0.184326 0.404053
vt 0.184326 0.404053
vt 0.184326 0.404053
vt 0.184326 0.404053
vt 0.184326 0.404053
vt 0.184326 0.404053
vt 0.184326 0.404053
vt 0.184326 0.404053
vt 0.184326 0.404053
vt 0.184326 0.404053
vt 0.184326 0.404053
vt 0.184326 0.404053
vt 0.184326 0.404053
vt 0.184326 0.404053
vt 0.184326 0.404053
vt 0.184326 0.404053
vt 0.184326 0.404053
vt 0.184326 0.404053
vt 0.184326 0.404053
vt 0.184326 0.404053
vt 0.184326 0.404053
vt 0.184326 0.404053
vt 0.184326 0.404053
vt 0.184326 0.404053
vt 0.184326 0.404053
vt 0.184326 0.404053
vt 0.184326 0.404053
vt 0.184326 0.404053
vt 0.184326 0.404053
vt 0.184326 0.404053
vt 0.547409 0.629425
vt 0.547409 0.629425
vt 0.547042 0.629058
vt 0.547042 0.629058
vt 0.842057 0.924073
vt 0.547409 0.629425
vt 0.842057 0.924073
vt 0.547409 0.629425
vt 0.547042 0.629058
vt 0.547409 0.629425
vt 0.547409 0.629425
vt 0.842057 0.629058
vt 0.842057 0.629058
vt 0.842057 0.924073
vt 0.547042 0.629058
vt 0.547042 0.924073
vt 0.547409 0.629425
vt 0.547042 0.924073
vt 0.547042 0.629058
vt 0.547409 0.629425
vt 0.547409 0.629425
vt 0.547409 0.629425
vt 0.547042 0.629058
vt 0.547409 0.629425
vt 0.547409 0.629425
vt 0.547409 0.629425
vt 0.547409 0.629425
vt 0.547042 0.629058
vt 0.547042 0.629058
vt 0.842057 0.629058
vt 0.547042 0.924073
vt 0.842057 0.924073
vt 0.842057 0.629058
vt 0.842057 0.924073
vt 0.547042 0.924073
vt 0.547042 0.629058
vt 0.842057 0.629058
vt 0.547042 0.924073
vt 0.842057 0.924073
vt 0.547409 0.629425
vt 0.842057 0.924073
vt 0.547409 0.629425
vt 0.842057 0.629058
vt 0.842057 0.924073
vt 0.547042 0.629058
vt 0.547042 0.924073
vt 0.842057 0.629058
vt 0.842057 0.924073
vt 0.547042 0.629058
vt 0.547042 0.924073
vt 0.547409 0.629425
vt 0.547409 0.629425
vt 0.547042 0.629058
vt 0.547409 0.629425
vt 0.547042 0.629058
vt 0.842057 0.629058
vt 0.547042 0.924073
vt 0.842057 0.924073
vt 0.842057 0.629058
vt 0.842057 0.924073
vt 0.547042 0.629058
vt 0.547042 0.924073
vt 0.842057 0.629058
vt 0.842057 0.924073
vt 0.547042 0.629058
vt 0.547042 0.924073
vt 0.547042 0.629058
vt 0.842057 0.629058
vt 0.547042 0.924073
vt 0.842057 0.924073
vt 0.547042 0.629058
vt 0.842057 0.629058
vt 0.547042 0.924073
vt 0.842057 0.924073
vt 0.547042 0.629058
vt 0.842057 0.629058
vt 0.547042 0.924073
vt 0.842057 0.924073
vt 0.547042 0.629058
vt 0.547409 0.629425
vt 0.547409 0.629425
vt 0.547409 0.629425
vt 0.000000 0.000000
vt 0.759821 0.000000
vt 0.057340 0.934099
vt 1.000000 0.844853
vn 0.077515 0.433347 0.897887
vn 0.077515 0.433347 0.897887
vn 0.077515 0.433347 0.897887
vn 0.976732 -0.152310 -0.150986
vn 0.976732 -0.152310 -0.150986
vn 0.976732 -0.152310 -0.150985
vn -0.759675 -0.570427 -0.312262
vn -0.759675 -0.570427 -0.312261
vn -0.759675 -0.570427 -0.312262
vn -0.616839 0.457500 -0.640471
vn -0.616839 0.457500 -0.640471
vn -0.616840 0.457500 -0.640471
vn -0.253645 0.745435 0.616434
vn -0.253645 0.745435 0.616434
vn -0.253645 0.745435 0.616434
vn 0.989017 0.053883 0.137633
vn 0.989017 0.053883 0.137633
vn 0.989017 0.053883 0.137633
vn -0.544256 -0.818013 -0.186119
vn -0.544256 -0.818013 -0.186119
vn -0.544256 -0.818013 -0.186119
vn -0.458711 0.009052 -0.888539
vn -0.458711 0.009052 -0.888539
vn -0.458711 0.009052 -0.888540
vn 0.636053 0.063477 0.769030
vn 0.636053 0.063477 0.769030
vn 0.636053 0.063477 0.769030
vn 0.685008 -0.093619 -0.722496
vn 0.685008 -0.093619 -0.722496
vn 0.685008 -0.093619 -0.722496
vn -0.914309 -0.404117 0.026979
vn -0.914309 -0.404117 0.026979
vn -0.914309 -0.404117 0.026979
vn -0.741957 0.670419 0.006167
vn -0.741957 0.670419 0.006167
vn -0.741957 0.670419 0.006167
vn 0.845325 -0.188151 0.500025
vn 0.845325 -0.188151 0.500025
vn 0.845325 -0.188151 0.500025
vn 0.385348 -0.048795 -0.921480
vn 0.385348 -0.048795 -0.921480
vn 0.385348 -0.048795 -0.921480
vn -0.921851 -0.259301 0.288017
vn -0.921851 -0.259301 0.288017
vn -0.921851 -0.259301 0.288017
vn -0.544320 0.759269 0.356689
vn -0.544320 0.759269 0.356689
vn -0.544320 0.759269 0.356689
vn 0.840699 0.173594 0.512923
vn 0.840699 0.173594 0.512923
vn 0.840699 0.173594 0.512923
vn 0.548158 0.165427 -0.819852
vn 0.548158 0.165427 -0.819852
vn 0.548158 0.165427 -0.819852
vn -0.728048 -0.448076 0.518820
vn -0.728048 -0.448076 0.518820
vn -0.728048 -0.448076 0.518820
vn -0.694879 0.209979 0.687787
vn -0.694879 0.209979 0.687787
vn -0.694879 0.209979 0.687787
vn -0.945979 -0.266818 0.184208
vn -0.701527 -0.712028 0.029600
vn -0.717277 -0.230662 0.657502
vn -0.717277 -0.230662 0.657502
vn -0.701527 -0.712028 0.029600
vn -0.416528 -0.398780 0.816994
vn -0.148305 0.955041 -0.256714
vn -0.019437 0.999811 -0.000122
vn 0.432325 0.634464 -0.640742
vn 0.432325 0.634464 -0.640742
vn -0.019437 0.999811 -0.000122
vn 0.506861 0.862028 0.000100
vn -0.179582 -0.620175 0.763632
vn 0.614154 0.411396 0.673475
vn -0.416528 -0.398780 0.816994
vn -0.416528 -0.398780 0.816994
vn 0.614154 0.411396 0.673475
vn 0.431202 0.633951 0.642006
vn -0.717277 -0.230662 0.657502
vn -0.147850 0.954972 0.257233
vn -0.945979 -0.266818 0.184208
vn -0.945979 -0.266818 0.184208
vn -0.147850 0.954972 0.257233
vn -0.019437 0.999811 -0.000122
vn -0.198981 -0.595441 -0.778368
vn -0.052360 -0.098134 -0.993795
vn 0.614327 0.414197 -0.671597
vn 0.614327 0.414197 -0.671597
vn -0.052360 -0.098134 -0.993795
vn 0.432325 0.634464 -0.640742
vn 0.728664 0.684870 -0.000861
vn 0.506861 0.862028 0.000100
vn 0.614154 0.411396 0.673475
vn 0.614154 0.411396 0.673475
vn 0.506861 0.862028 0.000100
vn 0.431202 0.633951 0.642006
vn 0.432325 0.634464 -0.640742
vn 0.506861 0.862028 0.000100
vn 0.614327 0.414197 -0.671597
vn 0.614327 0.414197 -0.671597
vn 0.506861 0.862028 0.000100
vn 0.728664 0.684870 -0.000861
vn -0.048961 0.611645 -0.789616
vn -0.945979 -0.266818 0.184208
vn -0.148305 0.955041 -0.256714
vn -0.148305 0.955041 -0.256714
vn -0.945979 -0.266818 0.184208
vn -0.019437 0.999811 -0.000122
vn -0.416528 -0.398780 0.816994
vn 0.431202 0.633951 0.642006
vn -0.717277 -0.230662 0.657502
vn -0.717277 -0.230662 0.657502
vn 0.431202 0.633951 0.642006
vn -0.147850 0.954972 0.257233
vn -0.052360 -0.098134 -0.993795
vn -0.048961 0.611645 -0.789616
vn 0.432325 0.634464 -0.640742
vn 0.432325 0.634464 -0.640742
vn -0.048961 0.611645 -0.789616
vn -0.148305 0.955041 -0.256714
vn -0.147850 0.954972 0.257233
vn 0.431202 0.633951 0.642006
vn -0.019437 0.999811 -0.000122
vn -0.019437 0.999811 -0.000122
vn 0.431202 0.633951 0.642006
vn 0.506861 0.862028 0.000100
vn -0.198981 -0.595441 -0.778368
vn 0.078110 -0.764989 -0.639290
vn -0.611961 -0.790838 0.008917
vn -0.611961 -0.790838 0.008917
vn 0.078110 -0.764989 -0.639290
vn 0.008460 -0.999708 0.022655
vn -0.179582 -0.620175 0.763632
vn 0.085165 -0.763023 0.640736
vn 0.614154 0.411396 0.673475
vn 0.614154 0.411396 0.673475
vn 0.085165 -0.763023 0.640736
vn 0.807361 0.105534 0.580544
vn -0.611961 -0.790838 0.008917
vn -0.701527 -0.712028 0.029600
vn -0.198981 -0.595441 -0.778368
vn -0.198981 -0.595441 -0.778368
vn -0.701527 -0.712028 0.029600
vn -0.052360 -0.098134 -0.993795
vn 0.085165 -0.763023 0.640736
vn 0.008460 -0.999708 0.022655
vn 0.807361 0.105534 0.580544
vn 0.807361 0.105534 0.580544
vn 0.008460 -0.999708 0.022655
vn 0.999914 -0.012930 0.002054
vn 0.078110 -0.764989 -0.639290
vn 0.813307 0.076968 -0.576721
vn 0.008460 -0.999708 0.022655
vn 0.008460 -0.999708 0.022655
vn 0.813307 0.076968 -0.576721
vn 0.999914 -0.012930 0.002054
vn 0.614154 0.411396 0.673475
vn 0.807361 0.105534 0.580544
vn 0.728664 0.684870 -0.000861
vn 0.728664 0.684870 -0.000861
vn 0.807361 0.105534 0.580544
vn 0.999914 -0.012930 0.002054
vn 0.614327 0.414197 -0.671597
vn 0.728664 0.684870 -0.000861
vn 0.813307 0.076968 -0.576721
vn 0.813307 0.076968 -0.576721
vn 0.728664 0.684870 -0.000861
vn 0.999914 -0.012930 0.002054
vn -0.198981 -0.595441 -0.778368
vn 0.614327 0.414197 -0.671597
vn 0.078110 -0.764989 -0.639290
vn 0.078110 -0.764989 -0.639290
vn 0.614327 0.414197 -0.671597
vn 0.813307 0.076968 -0.576721
vn -0.179582 -0.620175 0.763632
vn -0.611961 -0.790838 0.008917
vn 0.085165 -0.763023 0.640736
vn 0.085165 -0.763023 0.640736
vn -0.611961 -0.790838 0.008917
vn 0.008460 -0.999708 0.022655
vn -0.611961 -0.790838 0.008917
vn -0.179582 -0.620175 0.763632
vn -0.701527 -0.712028 0.029600
vn -0.701527 -0.712028 0.029600
vn -0.179582 -0.620175 0.763632
vn -0.416528 -0.398780 0.816994
vn -0.632938 -0.748662 -0.197216
vn -0.708965 -0.699446 -0.090245
vn -0.716963 -0.692779 -0.077593
vn -0.716963 -0.692779 -0.077593
vn -0.708965 -0.699446 -0.090245
vn -0.761557 -0.648098 0.000000
s off
g polySurface2
usemtl None
f 4/1/1 3/2/2 1/3/3
f 1/4/4 3/5/5 2/6/6
f 2/7/7 3/8/8 4/9/9
f 1/10/10 2/11/11 4/12/12
f 8/13/13 7/14/14 5/15/15
f 5/16/16 7/17/17 6/18/18
f 6/19/19 7/20/20 8/13/21
f 5/21/22 6/22/23 8/13/24
f 12/23/25 11/24/26 9/25/27
f 9/26/28 11/27/29 10/28/30
f 10/29/31 11/30/32 12/31/33
f 9/32/34 10/33/35 12/34/36
f 16/35/37 15/36/38 13/37/39
f 13/38/40 15/39/41 14/40/42
f 14/41/43 15/42/44 16/43/45
f 13/44/46 14/45/47 16/46/48
f 20/47/49 19/48/50 17/49/51
f 17/50/52 19/51/53 18/52/54
f 18/53/55 19/54/56 20/55/57
f 17/56/58 18/57/59 20/58/60
f 24/59/61 27/60/62 25/61/63
f 25/61/64 27/60/65 26/62/66
f 28/63/67 30/64/68 29/65/69
f 29/65/70 30/64/71 23/66/72
f 35/67/73 38/68/74 26/69/75
f 26/69/76 38/68/77 32/70/78
f 25/71/79 31/72/80 24/73/81
f 24/73/82 31/72/83 30/74/84
f 33/75/85 22/76/86 36/77/87
f 36/77/88 22/76/89 29/78/90
f 37/79/91 23/80/92 38/81/93
f 38/81/94 23/80/95 32/82/96
f 29/83/97 23/84/98 36/85/99
f 36/85/100 23/84/101 37/86/102
f 21/87/103 24/88/104 28/89/105
f 28/89/106 24/88/107 30/90/108
f 26/91/109 32/92/110 25/61/111
f 25/61/112 32/92/113 31/93/114
f 22/94/115 21/95/116 29/96/117
f 29/96/118 21/95/119 28/63/120
f 31/97/121 32/98/122 30/99/123
f 30/99/124 32/98/125 23/100/126
f 33/101/127 39/102/128 34/103/129
f 34/103/130 39/102/131 40/104/132
f 35/105/133 41/106/134 38/107/135
f 38/107/136 41/106/137 44/108/138
f 34/109/139 27/110/140 33/111/141
f 33/111/142 27/110/143 22/112/144
f 41/113/145 40/114/146 44/115/147
f 44/115/148 40/114/149 43/116/150
f 39/117/151 42/118/152 40/119/153
f 40/119/154 42/118/155 43/120/156
f 38/121/157 44/122/158 37/123/159
f 37/123/160 44/122/161 43/124/162
f 36/125/163 37/126/164 42/127/165
f 42/127/166 37/126/167 43/128/168
f 33/129/169 36/130/170 39/131/171
f 39/131/172 36/130/173 42/132/174
f 35/133/175 34/134/176 41/135/177
f 41/135/178 34/134/179 40/136/180
f 34/137/181 35/138/182 27/139/183
f 27/139/184 35/138/185 26/140/186
f 24/141/187 21/142/188 27/143/189
f 27/143/190 21/142/191 22/144/192
