# This file uses centimeters as units for non-parametric coordinates.

mtllib SnorlaxRArm.mtl
g default
v -2.664560 -1.695245 -0.130260
v -2.407855 -1.832255 -0.230355
v -2.551390 -2.251230 -0.148145
v -2.512715 -1.890230 0.053075
v -2.431775 -1.654870 -0.399455
v -2.185485 -1.820840 -0.597615
v -2.570735 -2.248465 -0.426320
v -2.434900 -1.904685 -0.320030
v -2.636865 -1.703300 0.182345
v -2.454830 -1.903410 0.035685
v -2.621910 -2.267700 0.241300
v -2.461765 -1.898565 0.343285
v -2.478870 -1.623180 0.460460
v -2.416175 -1.893600 0.327675
v -2.438055 -2.131710 0.709415
v -2.244920 -1.794550 0.563365
v -1.912595 -1.271610 0.731745
v -1.931080 -1.578515 0.719075
v -1.872895 -1.640450 1.161435
v -1.685575 -1.444320 0.847185
v 0.084340 -0.030240 -0.954480
v -0.678435 -0.926550 -1.236590
v -1.258425 -0.024100 0.002305
v 0.253250 -0.138880 0.000025
v 0.084340 -0.030240 0.954535
v -0.678435 -0.926550 1.236645
v -0.678435 -0.926550 0.000025
v -0.127910 0.199690 -0.621205
v -1.258425 -0.024100 -0.805485
v -0.272175 0.253585 0.000025
v -0.127910 0.199690 0.625815
v -1.258425 -0.024100 0.810095
v -1.428485 -1.559775 -1.006745
v -1.317935 -1.636405 0.000025
v -1.428485 -1.559775 1.006795
v -2.103710 -0.873920 -0.655345
v -2.263390 -0.849595 0.000030
v -2.103710 -0.873920 0.659955
v -2.182405 -2.026200 -0.658785
v -2.375370 -2.092915 0.000030
v -2.260555 -1.991775 0.590590
v -2.646405 -1.590550 -0.393525
v -2.787865 -1.717415 0.000030
v -2.646400 -1.590550 0.441045
vt 0.184326 0.404053
vt 0.184326 0.404053
vt 0.184326 0.404053
vt 0.184326 0.404053
vt 0.184326 0.404053
vt 0.184326 0.404053
vt 0.184326 0.404053
vt 0.184326 0.404053
vt 0.184326 0.404053
vt 0.184326 0.404053
vt 0.184326 0.404053
vt 0.184326 0.404053
vt 0.184326 0.404053
vt 0.184326 0.404053
vt 0.184326 0.404053
vt 0.184326 0.404053
vt 0.184326 0.404053
vt 0.184326 0.404053
vt 0.184326 0.404053
vt 0.184326 0.404053
vt 0.184326 0.404053
vt 0.184326 0.404053
vt 0.184326 0.404053
vt 0.184326 0.404053
vt 0.184326 0.404053
vt 0.184326 0.404053
vt 0.184326 0.404053
vt 0.184326 0.404053
vt 0.184326 0.404053
vt 0.184326 0.404053
vt 0.184326 0.404053
vt 0.184326 0.404053
vt 0.184326 0.404053
vt 0.184326 0.404053
vt 0.184326 0.404053
vt 0.184326 0.404053
vt 0.184326 0.404053
vt 0.184326 0.404053
vt 0.184326 0.404053
vt 0.184326 0.404053
vt 0.184326 0.404053
vt 0.184326 0.404053
vt 0.184326 0.404053
vt 0.184326 0.404053
vt 0.184326 0.404053
vt 0.184326 0.404053
vt 0.184326 0.404053
vt 0.184326 0.404053
vt 0.184326 0.404053
vt 0.184326 0.404053
vt 0.184326 0.404053
vt 0.184326 0.404053
vt 0.184326 0.404053
vt 0.184326 0.404053
vt 0.184326 0.404053
vt 0.184326 0.404053
vt 0.184326 0.404053
vt 0.184326 0.404053
vt 0.184326 0.404053
vt 0.184326 0.404053
vt 0.547042 0.629058
vt 0.547409 0.629425
vt 0.547042 0.629058
vt 0.547409 0.629425
vt 0.842057 0.924073
vt 0.842057 0.924073
vt 0.547409 0.629425
vt 0.547409 0.629425
vt 0.547042 0.629058
vt 0.547409 0.629425
vt 0.547409 0.629425
vt 0.842057 0.629058
vt 0.547042 0.924073
vt 0.842057 0.924073
vt 0.547042 0.629058
vt 0.842057 0.629058
vt 0.547409 0.629425
vt 0.547042 0.629058
vt 0.547042 0.924073
vt 0.547409 0.629425
vt 0.547409 0.629425
vt 0.547409 0.629425
vt 0.547042 0.629058
vt 0.547409 0.629425
vt 0.547409 0.629425
vt 0.547409 0.629425
vt 0.547409 0.629425
vt 0.547042 0.629058
vt 0.547042 0.629058
vt 0.547042 0.924073
vt 0.842057 0.629058
vt 0.842057 0.924073
vt 0.547042 0.924073
vt 0.842057 0.924073
vt 0.547042 0.629058
vt 0.842057 0.629058
vt 0.547042 0.629058
vt 0.547042 0.924073
vt 0.842057 0.629058
vt 0.842057 0.924073
vt 0.547409 0.629425
vt 0.547409 0.629425
vt 0.842057 0.924073
vt 0.842057 0.924073
vt 0.547042 0.924073
vt 0.842057 0.924073
vt 0.547042 0.629058
vt 0.842057 0.629058
vt 0.547042 0.924073
vt 0.842057 0.924073
vt 0.547042 0.629058
vt 0.842057 0.629058
vt 0.547409 0.629425
vt 0.547409 0.629425
vt 0.547042 0.629058
vt 0.547409 0.629425
vt 0.547042 0.629058
vt 0.547042 0.924073
vt 0.842057 0.629058
vt 0.842057 0.924073
vt 0.547042 0.924073
vt 0.842057 0.924073
vt 0.547042 0.629058
vt 0.842057 0.629058
vt 0.547042 0.924073
vt 0.842057 0.924073
vt 0.547042 0.629058
vt 0.842057 0.629058
vt 0.547042 0.629058
vt 0.547042 0.924073
vt 0.842057 0.629058
vt 0.842057 0.924073
vt 0.547042 0.629058
vt 0.547042 0.924073
vt 0.842057 0.629058
vt 0.842057 0.924073
vt 0.547042 0.629058
vt 0.547042 0.924073
vt 0.842057 0.629058
vt 0.842057 0.924073
vt 0.547409 0.629425
vt 0.547409 0.629425
vt 0.547409 0.629425
vt 0.547042 0.629058
vt 1.000000 0.000000
vt 0.942660 0.934099
vt 0.240179 0.000000
vt 0.000000 0.844853
vn -0.845325 -0.188151 0.500025
vn -0.845325 -0.188151 0.500025
vn -0.845325 -0.188151 0.500025
vn -0.385348 -0.048795 -0.921480
vn -0.385348 -0.048795 -0.921480
vn -0.385348 -0.048795 -0.921480
vn 0.921851 -0.259301 0.288017
vn 0.921851 -0.259301 0.288017
vn 0.921851 -0.259301 0.288017
vn 0.544320 0.759269 0.356689
vn 0.544320 0.759269 0.356689
vn 0.544320 0.759269 0.356689
vn -0.840699 0.173594 0.512923
vn -0.840699 0.173594 0.512923
vn -0.840699 0.173594 0.512923
vn -0.548158 0.165427 -0.819852
vn -0.548158 0.165427 -0.819852
vn -0.548158 0.165427 -0.819852
vn 0.728048 -0.448076 0.518820
vn 0.728048 -0.448076 0.518820
vn 0.728048 -0.448076 0.518820
vn 0.694880 0.209979 0.687787
vn 0.694880 0.209979 0.687787
vn 0.694880 0.209979 0.687787
vn -0.636053 0.063476 0.769030
vn -0.636053 0.063476 0.769030
vn -0.636053 0.063476 0.769030
vn -0.685008 -0.093619 -0.722496
vn -0.685008 -0.093619 -0.722496
vn -0.685008 -0.093619 -0.722496
vn 0.914309 -0.404117 0.026979
vn 0.914309 -0.404117 0.026979
vn 0.914309 -0.404117 0.026979
vn 0.741957 0.670419 0.006167
vn 0.741957 0.670419 0.006167
vn 0.741957 0.670419 0.006167
vn -0.077515 0.433347 0.897887
vn -0.077515 0.433347 0.897887
vn -0.077515 0.433347 0.897887
vn -0.976732 -0.152310 -0.150985
vn -0.976732 -0.152310 -0.150985
vn -0.976732 -0.152310 -0.150985
vn 0.759674 -0.570427 -0.312262
vn 0.759675 -0.570427 -0.312262
vn 0.759674 -0.570427 -0.312262
vn 0.616839 0.457500 -0.640471
vn 0.616840 0.457500 -0.640471
vn 0.616839 0.457500 -0.640471
vn 0.253645 0.745435 0.616434
vn 0.253645 0.745435 0.616434
vn 0.253645 0.745435 0.616434
vn -0.989017 0.053884 0.137633
vn -0.989016 0.053884 0.137633
vn -0.989017 0.053884 0.137633
vn 0.544255 -0.818014 -0.186118
vn 0.544255 -0.818014 -0.186118
vn 0.544255 -0.818014 -0.186118
vn 0.458711 0.009052 -0.888539
vn 0.458711 0.009052 -0.888539
vn 0.458711 0.009052 -0.888539
vn 0.416528 -0.398780 0.816994
vn 0.701527 -0.712028 0.029600
vn 0.717277 -0.230662 0.657502
vn 0.717277 -0.230662 0.657502
vn 0.701527 -0.712028 0.029600
vn 0.945979 -0.266818 0.184208
vn 0.148305 0.955041 -0.256714
vn -0.432325 0.634464 -0.640742
vn 0.019437 0.999811 -0.000122
vn 0.019437 0.999811 -0.000122
vn -0.432325 0.634464 -0.640742
vn -0.506861 0.862028 0.000100
vn 0.179582 -0.620175 0.763632
vn 0.416528 -0.398780 0.816994
vn -0.614154 0.411396 0.673475
vn -0.614154 0.411396 0.673475
vn 0.416528 -0.398780 0.816994
vn -0.431202 0.633951 0.642006
vn 0.019437 0.999811 -0.000122
vn 0.147850 0.954972 0.257233
vn 0.945979 -0.266818 0.184208
vn 0.945979 -0.266818 0.184208
vn 0.147850 0.954972 0.257233
vn 0.717277 -0.230662 0.657502
vn 0.198981 -0.595441 -0.778368
vn -0.614327 0.414197 -0.671597
vn 0.052360 -0.098134 -0.993795
vn 0.052360 -0.098134 -0.993795
vn -0.614327 0.414197 -0.671597
vn -0.432325 0.634464 -0.640742
vn -0.431202 0.633951 0.642006
vn -0.506861 0.862028 0.000100
vn -0.614154 0.411396 0.673475
vn -0.614154 0.411396 0.673475
vn -0.506861 0.862028 0.000100
vn -0.728664 0.684870 -0.000861
vn -0.432325 0.634464 -0.640742
vn -0.614327 0.414197 -0.671597
vn -0.506861 0.862028 0.000100
vn -0.506861 0.862028 0.000100
vn -0.614327 0.414197 -0.671597
vn -0.728664 0.684870 -0.000861
vn 0.048961 0.611646 -0.789615
vn 0.148305 0.955041 -0.256714
vn 0.945979 -0.266818 0.184208
vn 0.945979 -0.266818 0.184208
vn 0.148305 0.955041 -0.256714
vn 0.019437 0.999811 -0.000122
vn 0.147850 0.954972 0.257233
vn -0.431202 0.633951 0.642006
vn 0.717277 -0.230662 0.657502
vn 0.717277 -0.230662 0.657502
vn -0.431202 0.633951 0.642006
vn 0.416528 -0.398780 0.816994
vn 0.052360 -0.098134 -0.993795
vn -0.432325 0.634464 -0.640742
vn 0.048961 0.611646 -0.789615
vn 0.048961 0.611646 -0.789615
vn -0.432325 0.634464 -0.640742
vn 0.148305 0.955041 -0.256714
vn -0.506861 0.862028 0.000100
vn -0.431202 0.633951 0.642006
vn 0.019437 0.999811 -0.000122
vn 0.019437 0.999811 -0.000122
vn -0.431202 0.633951 0.642006
vn 0.147850 0.954972 0.257233
vn -0.008460 -0.999708 0.022655
vn -0.078110 -0.764989 -0.639290
vn 0.611961 -0.790838 0.008917
vn 0.611961 -0.790838 0.008917
vn -0.078110 -0.764989 -0.639290
vn 0.198981 -0.595441 -0.778368
vn -0.807361 0.105534 0.580544
vn -0.085165 -0.763023 0.640736
vn -0.614154 0.411396 0.673475
vn -0.614154 0.411396 0.673475
vn -0.085165 -0.763023 0.640736
vn 0.179582 -0.620175 0.763632
vn 0.052360 -0.098134 -0.993795
vn 0.701527 -0.712028 0.029600
vn 0.198981 -0.595441 -0.778368
vn 0.198981 -0.595441 -0.778368
vn 0.701527 -0.712028 0.029600
vn 0.611961 -0.790838 0.008917
vn -0.085165 -0.763023 0.640736
vn -0.807361 0.105534 0.580544
vn -0.008460 -0.999708 0.022655
vn -0.008460 -0.999708 0.022655
vn -0.807361 0.105534 0.580544
vn -0.999914 -0.012930 0.002054
vn -0.999914 -0.012930 0.002054
vn -0.813307 0.076968 -0.576721
vn -0.008460 -0.999708 0.022655
vn -0.008460 -0.999708 0.022655
vn -0.813307 0.076968 -0.576721
vn -0.078110 -0.764989 -0.639290
vn -0.999914 -0.012930 0.002054
vn -0.807361 0.105534 0.580544
vn -0.728664 0.684870 -0.000861
vn -0.728664 0.684870 -0.000861
vn -0.807361 0.105534 0.580544
vn -0.614154 0.411396 0.673475
vn -0.614327 0.414197 -0.671597
vn -0.813307 0.076968 -0.576721
vn -0.728664 0.684870 -0.000861
vn -0.728664 0.684870 -0.000861
vn -0.813307 0.076968 -0.576721
vn -0.999914 -0.012930 0.002054
vn 0.198981 -0.595441 -0.778368
vn -0.078110 -0.764989 -0.639290
vn -0.614327 0.414197 -0.671597
vn -0.614327 0.414197 -0.671597
vn -0.078110 -0.764989 -0.639290
vn -0.813307 0.076968 -0.576721
vn 0.179582 -0.620175 0.763632
vn -0.085165 -0.763023 0.640736
vn 0.611961 -0.790838 0.008917
vn 0.611961 -0.790838 0.008917
vn -0.085165 -0.763023 0.640736
vn -0.008460 -0.999708 0.022655
vn 0.416528 -0.398780 0.816994
vn 0.179582 -0.620175 0.763632
vn 0.701527 -0.712028 0.029600
vn 0.701527 -0.712028 0.029600
vn 0.179582 -0.620175 0.763632
vn 0.611961 -0.790838 0.008917
vn 0.632938 -0.748662 -0.197217
vn 0.716963 -0.692779 -0.077593
vn 0.708965 -0.699446 -0.090245
vn 0.708965 -0.699446 -0.090245
vn 0.716963 -0.692779 -0.077593
vn 0.761557 -0.648098 0.000000
s off
g polySurface3
usemtl None
f 4/1/1 1/2/2 3/3/3
f 1/4/4 2/5/5 3/6/6
f 2/7/7 4/8/8 3/9/9
f 1/10/10 4/11/11 2/12/12
f 8/13/13 5/14/14 7/15/15
f 5/16/16 6/17/17 7/18/18
f 6/19/19 8/20/20 7/21/21
f 5/22/22 8/23/23 6/24/24
f 12/25/25 9/26/26 11/27/27
f 9/28/28 10/29/29 11/30/30
f 10/31/31 12/32/32 11/33/33
f 9/34/34 12/35/35 10/36/36
f 16/37/37 13/38/38 15/39/39
f 13/40/40 14/41/41 15/42/42
f 14/43/43 16/44/44 15/45/45
f 13/46/46 16/47/47 14/48/48
f 20/49/49 17/50/50 19/51/51
f 17/52/52 18/53/53 19/54/54
f 18/55/55 20/56/56 19/57/57
f 17/58/58 20/59/59 18/60/60
f 26/61/61 27/62/62 25/63/63
f 25/63/64 27/62/65 24/64/66
f 28/65/67 29/66/68 30/67/69
f 30/67/70 29/66/71 23/68/72
f 35/69/73 26/70/74 38/71/75
f 38/71/76 26/70/77 32/72/78
f 30/73/79 31/74/80 24/75/81
f 24/75/82 31/74/83 25/76/84
f 33/77/85 36/78/86 22/79/87
f 22/79/88 36/78/89 29/80/90
f 32/81/91 23/82/92 38/83/93
f 38/83/94 23/82/95 37/84/96
f 29/85/97 36/86/98 23/87/99
f 23/87/100 36/86/101 37/88/102
f 21/89/103 28/90/104 24/91/105
f 24/91/106 28/90/107 30/92/108
f 31/93/109 32/94/110 25/95/111
f 25/95/112 32/94/113 26/96/114
f 22/97/115 29/98/116 21/99/117
f 21/99/118 29/98/119 28/100/120
f 23/101/121 32/102/122 30/103/123
f 30/103/124 32/102/125 31/104/126
f 40/105/127 39/106/128 34/107/129
f 34/107/130 39/106/131 33/108/132
f 44/109/133 41/110/134 38/111/135
f 38/111/136 41/110/137 35/112/138
f 22/113/139 27/114/140 33/115/141
f 33/115/142 27/114/143 34/116/144
f 41/117/145 44/118/146 40/119/147
f 40/119/148 44/118/149 43/120/150
f 43/121/151 42/122/152 40/123/153
f 40/123/154 42/122/155 39/124/156
f 43/125/157 44/126/158 37/127/159
f 37/127/160 44/126/161 38/128/162
f 36/129/163 42/130/164 37/131/165
f 37/131/166 42/130/167 43/132/168
f 33/133/169 39/134/170 36/135/171
f 36/135/172 39/134/173 42/136/174
f 35/137/175 41/138/176 34/139/177
f 34/139/178 41/138/179 40/140/180
f 26/141/181 35/142/182 27/143/183
f 27/143/184 35/142/185 34/144/186
f 24/145/187 27/146/188 21/147/189
f 21/147/190 27/146/191 22/148/192
