# This file uses centimeters as units for non-parametric coordinates.

mtllib SnorlaxLFoot.mtl
g default
v -0.454170 -0.561190 0.936980
v -0.274145 -0.892765 1.112890
v -0.666830 -0.895775 1.593555
v -0.651235 -0.895775 0.964060
v 0.001125 -0.544480 1.168620
v 0.221305 -0.895775 1.145380
v 0.001880 -0.895775 1.751230
v -0.220865 -0.895775 1.147540
v 0.383845 -0.554215 0.949305
v 0.650265 -0.895775 0.956070
v 0.644350 -0.895775 1.537515
v 0.262170 -0.895775 1.114360
v -1.082025 -0.907615 -0.002910
v -0.002180 -0.907615 -1.318925
v 1.077670 -0.907615 -0.002910
v -0.002180 -0.907615 1.313105
v -0.002180 -0.907615 -0.002910
v -0.002180 0.005645 -0.002910
v -0.645215 -0.090575 -0.002910
v -0.812065 -0.907615 -0.989925
v -0.812065 -0.907615 -0.002910
v -0.812065 -0.907615 0.984100
v -0.002180 -0.090575 -0.786580
v 0.807710 -0.907615 -0.989925
v -0.002180 -0.907615 -0.989925
v 0.640860 -0.090575 -0.002910
v 0.807710 -0.907615 0.984100
v 0.807710 -0.907615 -0.002910
v -0.002180 -0.090575 0.780760
v -0.002180 -0.907615 0.984100
v -0.602095 -0.907615 0.728210
v -0.602095 -0.907615 -0.734030
v 0.597740 -0.907615 -0.734030
v 0.597740 -0.907615 0.728210
v -0.478500 -0.185685 0.577585
v -0.478500 -0.185685 -0.583410
v 0.474145 -0.185685 -0.583410
v 0.474145 -0.185685 0.577585
v -0.955375 -0.396565 -0.002910
v -0.002180 -0.396565 -1.164575
v 0.951020 -0.396565 -0.002910
v -0.002180 -0.396565 1.158755
v -0.711885 -0.479445 -0.867835
v -0.711885 -0.479445 0.862015
v 0.707530 -0.479445 -0.867835
v 0.707530 -0.479445 0.862015
vt 0.184326 0.404053
vt 0.184326 0.404053
vt 0.184326 0.404053
vt 0.184326 0.404053
vt 0.184326 0.404053
vt 0.184326 0.404053
vt 0.184326 0.404053
vt 0.184326 0.404053
vt 0.184326 0.404053
vt 0.184326 0.404053
vt 0.184326 0.404053
vt 0.184326 0.404053
vt 0.184326 0.404053
vt 0.184326 0.404053
vt 0.184326 0.404053
vt 0.184326 0.404053
vt 0.184326 0.404053
vt 0.184326 0.404053
vt 0.184326 0.404053
vt 0.184326 0.404053
vt 0.184326 0.404053
vt 0.184326 0.404053
vt 0.184326 0.404053
vt 0.184326 0.404053
vt 0.184326 0.404053
vt 0.184326 0.404053
vt 0.184326 0.404053
vt 0.184326 0.404053
vt 0.184326 0.404053
vt 0.184326 0.404053
vt 0.184326 0.404053
vt 0.184326 0.404053
vt 0.184326 0.404053
vt 0.184326 0.404053
vt 0.140588 0.329169
vt 0.140588 0.186365
vt 0.283392 0.329169
vt 0.283392 0.186365
vt 0.140588 0.329169
vt 0.140588 0.186365
vt 0.283392 0.186365
vt 0.140588 0.329169
vt 0.140588 0.186365
vt 0.283392 0.329169
vt 0.283392 0.186365
vt 0.140588 0.329169
vt 0.140588 0.186365
vt 0.283392 0.329169
vt 0.283392 0.186365
vt 0.140588 0.329169
vt 0.140588 0.186365
vt 0.283392 0.329169
vt 0.283392 0.186365
vt 0.140588 0.329169
vt 0.140588 0.186365
vt 0.283392 0.329169
vt 0.283392 0.186365
vt 0.283392 0.329169
vt 0.140588 0.329169
vt 0.283392 0.186365
vt 0.140588 0.186365
vt 0.283392 0.329169
vt 0.140588 0.329169
vt 0.283392 0.186365
vt 0.140588 0.186365
vt 0.140588 0.329169
vt 0.140588 0.186365
vt 0.283392 0.329169
vt 0.283392 0.186365
vt 0.140588 0.329169
vt 0.140588 0.186365
vt 0.283392 0.329169
vt 0.283392 0.186365
vt 0.140588 0.329169
vt 0.140588 0.186365
vt 0.283392 0.329169
vt 0.283392 0.186365
vt 0.140588 0.329169
vt 0.140588 0.186365
vt 0.283392 0.329169
vt 0.283392 0.186365
vt 0.140588 0.329169
vt 0.140588 0.186365
vt 0.283392 0.329169
vt 0.283392 0.186365
vt 0.140588 0.329169
vt 0.283392 0.329169
vt 0.283392 0.186365
vt 0.283392 0.329169
vt 0.140588 0.329169
vt 0.283392 0.186365
vt 0.140588 0.186365
vt 0.283392 0.329169
vt 0.140588 0.329169
vt 0.283392 0.186365
vt 0.140588 0.186365
vt 0.140588 0.329169
vt 0.140588 0.186365
vt 0.283392 0.329169
vt 0.283392 0.186365
vt 0.140588 0.329169
vt 0.140588 0.186365
vt 0.283392 0.329169
vt 0.283392 0.186365
vt 0.140588 0.329169
vt 0.140588 0.186365
vt 0.283392 0.329169
vt 0.283392 0.186365
vt 0.140588 0.329169
vt 0.140588 0.186365
vt 0.283392 0.329169
vt 0.283392 0.186365
vt 0.140588 0.329169
vt 0.140588 0.186365
vt 0.283392 0.329169
vt 0.283392 0.186365
vt 0.140588 0.329169
vt 0.140588 0.186365
vt 0.283392 0.329169
vt 0.283392 0.186365
vt 0.140588 0.329169
vt 0.140588 0.186365
vt 0.283392 0.329169
vt 0.140588 0.329169
vt 0.283392 0.329169
vt 0.283392 0.186365
vt 0.140588 0.329169
vt 0.140588 0.186365
vt 0.283392 0.329169
vt 0.283392 0.186365
vt 0.140588 0.329169
vt 0.140588 0.186365
vt 0.283392 0.329169
vt 0.283392 0.186365
vt 0.140588 0.329169
vt 0.140588 0.186365
vt 0.283392 0.329169
vt 0.283392 0.186365
vt 0.140588 0.329169
vt 0.140588 0.186365
vt 0.283392 0.329169
vt 0.283392 0.186365
vt 0.140588 0.329169
vt 0.140588 0.186365
vt 0.283392 0.329169
vt 0.283392 0.186365
vt 0.140588 0.329169
vt 0.140588 0.186365
vt 0.283392 0.329169
vt 0.283392 0.186365
vt 0.140588 0.329169
vt 0.140588 0.186365
vt 0.283392 0.329169
vt 0.283392 0.186365
vt 0.140588 0.329169
vt 0.140588 0.186365
vt 0.283392 0.329169
vt 0.283392 0.186365
vn -0.862211 0.506099 -0.021360
vn -0.862211 0.506099 -0.021360
vn -0.862211 0.506099 -0.021360
vn 0.615792 0.603239 0.506856
vn 0.615792 0.603239 0.506856
vn 0.615792 0.603239 0.506856
vn 0.007905 -0.999969 0.000196
vn 0.007905 -0.999969 0.000196
vn 0.007905 -0.999969 0.000196
vn 0.354283 -0.280859 -0.891965
vn 0.354283 -0.280859 -0.891965
vn 0.354282 -0.280859 -0.891965
vn -0.814336 0.496564 0.300467
vn -0.814336 0.496564 0.300467
vn -0.814336 0.496564 0.300467
vn 0.817984 0.493087 0.296255
vn 0.817984 0.493087 0.296255
vn 0.817984 0.493087 0.296255
vn 0.000000 -1.000000 0.000000
vn 0.000000 -1.000000 0.000000
vn 0.000000 -1.000000 0.000000
vn -0.004875 0.062968 -0.998004
vn -0.004875 0.062968 -0.998004
vn -0.004875 0.062968 -0.998004
vn -0.639653 0.507040 0.577714
vn -0.639653 0.507040 0.577714
vn -0.639653 0.507040 0.577714
vn 0.788397 0.615115 0.008020
vn 0.788397 0.615115 0.008020
vn 0.788397 0.615115 0.008020
vn 0.000000 -1.000000 0.000000
vn 0.000000 -1.000000 0.000000
vn 0.000000 -1.000000 0.000000
vn -0.360426 -0.298638 -0.883690
vn -0.360426 -0.298638 -0.883690
vn -0.360426 -0.298638 -0.883690
vn -0.668133 0.501656 0.549490
vn -0.399165 0.862497 0.311072
vn -0.896316 0.443415 0.000000
vn -0.896316 0.443415 0.000000
vn -0.399165 0.862497 0.311072
vn -0.421557 0.906802 -0.000000
vn -0.421557 0.906802 -0.000000
vn -0.399165 0.862497 -0.311073
vn -0.896316 0.443415 0.000000
vn -0.896316 0.443415 0.000000
vn -0.399165 0.862497 -0.311073
vn -0.668134 0.501656 -0.549489
vn -0.751282 -0.167901 -0.638266
vn 0.000000 -1.000000 0.000000
vn -0.987046 -0.160440 0.000000
vn -0.987046 -0.160440 0.000000
vn 0.000000 -1.000000 0.000000
vn 0.000000 -1.000000 0.000000
vn 0.000000 -1.000000 0.000000
vn 0.000000 -1.000000 0.000000
vn -0.987046 -0.160440 0.000000
vn -0.987046 -0.160440 0.000000
vn 0.000000 -1.000000 0.000000
vn -0.751283 -0.167905 0.638264
vn -0.668134 0.501656 -0.549489
vn -0.399165 0.862497 -0.311073
vn 0.000000 0.509268 -0.860608
vn 0.000000 0.509268 -0.860608
vn -0.399165 0.862497 -0.311073
vn 0.000000 0.926246 -0.376919
vn 0.000000 0.926246 -0.376919
vn 0.399163 0.862498 -0.311073
vn 0.000000 0.509268 -0.860608
vn 0.000000 0.509268 -0.860608
vn 0.399163 0.862498 -0.311073
vn 0.668133 0.501657 -0.549490
vn 0.000000 -0.266096 -0.963946
vn 0.751281 -0.167901 -0.638268
vn 0.000000 -1.000000 0.000000
vn 0.000000 -1.000000 0.000000
vn 0.751281 -0.167901 -0.638268
vn 0.000000 -1.000000 0.000000
vn 0.000000 -0.266096 -0.963946
vn 0.000000 -1.000000 0.000000
vn -0.751282 -0.167901 -0.638266
vn -0.751282 -0.167901 -0.638266
vn 0.000000 -1.000000 0.000000
vn 0.000000 -1.000000 0.000000
vn 0.668133 0.501657 -0.549490
vn 0.399163 0.862498 -0.311073
vn 0.896316 0.443415 0.000000
vn 0.896316 0.443415 0.000000
vn 0.399163 0.862498 -0.311073
vn 0.421556 0.906802 0.000000
vn 0.421556 0.906802 0.000000
vn 0.399163 0.862498 0.311072
vn 0.896316 0.443415 0.000000
vn 0.896316 0.443415 0.000000
vn 0.399163 0.862498 0.311072
vn 0.668132 0.501657 0.549491
vn 0.751282 -0.167905 0.638266
vn 0.000000 -1.000000 0.000000
vn 0.987046 -0.160439 0.000000
vn 0.987046 -0.160439 0.000000
vn 0.000000 -1.000000 0.000000
vn 0.000000 -1.000000 0.000000
vn 0.000000 -1.000000 0.000000
vn 0.000000 -1.000000 0.000000
vn 0.987046 -0.160439 0.000000
vn 0.987046 -0.160439 0.000000
vn 0.000000 -1.000000 0.000000
vn 0.751281 -0.167901 -0.638268
vn 0.668132 0.501657 0.549491
vn 0.399163 0.862498 0.311072
vn 0.000000 0.509270 0.860607
vn 0.000000 0.509270 0.860607
vn 0.399163 0.862498 0.311072
vn 0.000000 0.926246 0.376921
vn 0.000000 0.926246 0.376921
vn -0.399165 0.862497 0.311072
vn 0.000000 0.509270 0.860607
vn 0.000000 0.509270 0.860607
vn -0.399165 0.862497 0.311072
vn -0.668133 0.501656 0.549490
vn 0.000000 -0.266105 0.963944
vn -0.751283 -0.167905 0.638264
vn 0.000000 -1.000000 0.000000
vn 0.000000 -1.000000 0.000000
vn -0.751283 -0.167905 0.638264
vn 0.000000 -1.000000 0.000000
vn 0.000000 -0.266105 0.963944
vn 0.000000 -1.000000 0.000000
vn 0.751282 -0.167905 0.638266
vn 0.751282 -0.167905 0.638266
vn 0.000000 -1.000000 0.000000
vn 0.000000 -1.000000 0.000000
vn 0.000000 -1.000000 0.000000
vn 0.000000 -1.000000 0.000000
vn 0.000000 -1.000000 0.000000
vn 0.000000 -1.000000 0.000000
vn 0.000000 -1.000000 0.000000
vn 0.000000 -1.000000 0.000000
vn 0.000000 -1.000000 0.000000
vn 0.000000 -1.000000 0.000000
vn 0.000000 -1.000000 0.000000
vn 0.000000 -1.000000 0.000000
vn 0.000000 -1.000000 0.000000
vn 0.000000 -1.000000 0.000000
vn 0.000000 -1.000000 0.000000
vn 0.000000 -1.000000 0.000000
vn 0.000000 -1.000000 0.000000
vn 0.000000 -1.000000 0.000000
vn 0.000000 -1.000000 0.000000
vn 0.000000 -1.000000 0.000000
vn 0.000000 -1.000000 0.000000
vn 0.000000 -1.000000 0.000000
vn 0.000000 -1.000000 0.000000
vn 0.000000 -1.000000 0.000000
vn 0.000000 -1.000000 0.000000
vn 0.000000 -1.000000 0.000000
vn 0.000000 0.926246 0.376921
vn 0.399163 0.862498 0.311072
vn 0.000000 1.000000 0.000000
vn 0.000000 1.000000 0.000000
vn 0.399163 0.862498 0.311072
vn 0.421556 0.906802 0.000000
vn 0.421556 0.906802 0.000000
vn 0.399163 0.862498 -0.311073
vn 0.000000 1.000000 0.000000
vn 0.000000 1.000000 0.000000
vn 0.399163 0.862498 -0.311073
vn 0.000000 0.926246 -0.376919
vn 0.000000 0.926246 -0.376919
vn -0.399165 0.862497 -0.311073
vn 0.000000 1.000000 0.000000
vn 0.000000 1.000000 0.000000
vn -0.399165 0.862497 -0.311073
vn -0.421557 0.906802 -0.000000
vn -0.421557 0.906802 -0.000000
vn -0.399165 0.862497 0.311072
vn 0.000000 1.000000 0.000000
vn 0.000000 1.000000 0.000000
vn -0.399165 0.862497 0.311072
vn 0.000000 0.926246 0.376921
vn -0.751283 -0.167905 0.638264
vn -0.668133 0.501656 0.549490
vn -0.987046 -0.160440 0.000000
vn -0.987046 -0.160440 0.000000
vn -0.668133 0.501656 0.549490
vn -0.896316 0.443415 0.000000
vn -0.896316 0.443415 0.000000
vn -0.668134 0.501656 -0.549489
vn -0.987046 -0.160440 0.000000
vn -0.987046 -0.160440 0.000000
vn -0.668134 0.501656 -0.549489
vn -0.751282 -0.167901 -0.638266
vn -0.751282 -0.167901 -0.638266
vn -0.668134 0.501656 -0.549489
vn 0.000000 -0.266096 -0.963946
vn 0.000000 -0.266096 -0.963946
vn -0.668134 0.501656 -0.549489
vn 0.000000 0.509268 -0.860608
vn 0.000000 0.509268 -0.860608
vn 0.668133 0.501657 -0.549490
vn 0.000000 -0.266096 -0.963946
vn 0.000000 -0.266096 -0.963946
vn 0.668133 0.501657 -0.549490
vn 0.751281 -0.167901 -0.638268
vn 0.751281 -0.167901 -0.638268
vn 0.668133 0.501657 -0.549490
vn 0.987046 -0.160439 0.000000
vn 0.987046 -0.160439 0.000000
vn 0.668133 0.501657 -0.549490
vn 0.896316 0.443415 0.000000
vn 0.896316 0.443415 0.000000
vn 0.668132 0.501657 0.549491
vn 0.987046 -0.160439 0.000000
vn 0.987046 -0.160439 0.000000
vn 0.668132 0.501657 0.549491
vn 0.751282 -0.167905 0.638266
vn 0.751282 -0.167905 0.638266
vn 0.668132 0.501657 0.549491
vn 0.000000 -0.266105 0.963944
vn 0.000000 -0.266105 0.963944
vn 0.668132 0.501657 0.549491
vn 0.000000 0.509270 0.860607
vn 0.000000 0.509270 0.860607
vn -0.668133 0.501656 0.549490
vn 0.000000 -0.266105 0.963944
vn 0.000000 -0.266105 0.963944
vn -0.668133 0.501656 0.549490
vn -0.751283 -0.167905 0.638264
s off
g polySurface4
usemtl None
f 4/1/1 3/2/2 1/3/3
f 1/4/4 3/5/5 2/6/6
f 2/7/7 3/8/8 4/9/9
f 1/10/10 2/11/11 4/12/12
f 8/13/13 7/14/14 5/15/15
f 5/16/16 7/17/17 6/18/18
f 6/19/19 7/20/20 8/13/21
f 5/21/22 6/22/23 8/13/24
f 12/23/25 11/24/26 9/25/27
f 9/26/28 11/27/29 10/28/30
f 10/29/31 11/30/32 12/31/33
f 9/32/34 10/33/35 12/34/36
f 44/35/37 35/36/38 39/37/39
f 39/37/40 35/36/41 19/38/42
f 19/39/43 36/40/44 39/37/45
f 39/37/46 36/40/47 43/41/48
f 20/42/49 32/43/50 13/44/51
f 13/44/52 32/43/53 21/45/54
f 21/46/55 31/47/56 13/48/57
f 13/48/58 31/47/59 22/49/60
f 43/50/61 36/51/62 40/52/63
f 40/52/64 36/51/65 23/53/66
f 23/54/67 37/55/68 40/56/69
f 40/56/70 37/55/71 45/57/72
f 14/58/73 24/59/74 25/60/75
f 25/60/76 24/59/77 33/61/78
f 14/62/79 25/63/80 20/64/81
f 20/64/82 25/63/83 32/65/84
f 45/66/85 37/67/86 41/68/87
f 41/68/88 37/67/89 26/69/90
f 26/70/91 38/71/92 41/72/93
f 41/72/94 38/71/95 46/73/96
f 27/74/97 34/75/98 15/76/99
f 15/76/100 34/75/101 28/77/102
f 28/78/103 33/79/104 15/80/105
f 15/80/106 33/79/107 24/81/108
f 46/82/109 38/83/110 42/84/111
f 42/84/112 38/83/113 29/85/114
f 29/86/115 35/36/116 42/87/117
f 42/87/118 35/36/119 44/88/120
f 16/89/121 22/90/122 30/91/123
f 30/91/124 22/90/125 31/92/126
f 16/93/127 30/94/128 27/95/129
f 27/95/130 30/94/131 34/96/132
f 30/97/133 31/98/134 17/99/135
f 17/99/136 31/98/137 21/100/138
f 21/101/139 32/102/140 17/103/141
f 17/103/142 32/102/143 25/104/144
f 25/105/145 33/106/146 17/107/147
f 17/107/148 33/106/149 28/108/150
f 28/109/151 34/110/152 17/111/153
f 17/111/154 34/110/155 30/112/156
f 29/113/157 38/114/158 18/115/159
f 18/115/160 38/114/161 26/116/162
f 26/117/163 37/118/164 18/119/165
f 18/119/166 37/118/167 23/120/168
f 23/121/169 36/122/170 18/123/171
f 18/123/172 36/122/173 19/38/174
f 19/124/175 35/36/176 18/125/177
f 18/125/178 35/36/179 29/126/180
f 22/127/181 44/128/182 13/129/183
f 13/129/184 44/128/185 39/130/186
f 39/131/187 43/132/188 13/133/189
f 13/133/190 43/132/191 20/134/192
f 20/135/193 43/136/194 14/137/195
f 14/137/196 43/136/197 40/138/198
f 40/139/199 45/140/200 14/141/201
f 14/141/202 45/140/203 24/142/204
f 24/143/205 45/144/206 15/145/207
f 15/145/208 45/144/209 41/146/210
f 41/147/211 46/148/212 15/149/213
f 15/149/214 46/148/215 27/150/216
f 27/151/217 46/152/218 16/153/219
f 16/153/220 46/152/221 42/154/222
f 42/155/223 44/156/224 16/157/225
f 16/157/226 44/156/227 22/158/228
