# Blender v2.71 (sub 0) OBJ File: 'Luxio fix.blend'
# www.blender.org
mtllib Luxio_M_Right_Leg_Front.mtl
o Luxio_L_Leg1
v -0.962427 -1.543523 -0.321733
v -0.949458 -0.946662 -0.335808
v -0.699234 -0.959524 -0.440410
v -0.718715 -1.544102 -0.431527
v -0.448237 -0.968856 -0.336103
v -0.475342 -1.538609 -0.321240
v -0.345934 -0.971357 -0.089668
v -0.375896 -1.529057 -0.057405
v -0.446547 -0.968156 0.157453
v -0.477886 -1.521569 0.206630
v -0.698114 -0.958681 0.262672
v -0.718583 -1.522593 0.315555
v -0.949368 -0.945820 0.157162
v -0.959589 -1.526086 0.207008
v -1.050538 -0.940341 -0.089666
v -1.062115 -1.535600 -0.057457
v -0.880793 -0.170124 0.290137
v -0.988789 -0.160469 -0.052894
v -0.614476 -0.186369 0.433912
v -0.347880 -0.195276 0.289915
v -0.239457 -0.195755 -0.052916
v -0.347476 -0.191931 -0.396080
v -0.614217 -0.181456 -0.540338
v -0.880790 -0.166718 -0.396205
v -0.989671 -2.020656 -0.340075
v -1.017592 -1.847772 -0.378069
v -0.723538 -1.850690 -0.526272
v -0.726294 -2.023051 -0.473121
v -0.429484 -1.853609 -0.378069
v -0.462923 -2.025884 -0.340075
v -0.307462 -1.854820 -0.067175
v -0.354909 -2.028356 -0.063521
v -0.325768 -1.854638 0.344100
v -0.367568 -2.026799 0.294729
v -0.723538 -1.850690 0.570512
v -0.726319 -2.024920 0.497704
v -1.121309 -1.846743 0.344100
v -1.085025 -2.019678 0.294729
v -1.139615 -1.846561 -0.067175
v -1.097723 -2.020984 -0.063521
v -0.994178 -1.665538 -0.350660
v -0.721208 -1.671078 -0.489723
v -0.447945 -1.671767 -0.350969
v -0.337052 -1.667123 -0.064598
v -0.355523 -1.660834 0.301294
v -0.720982 -1.655044 0.508576
v -1.086192 -1.652988 0.300956
v -1.104570 -1.658439 -0.064611
v -0.726550 -2.042206 -0.053817
v -0.598869 0.438655 0.416022
v -0.922366 0.565284 -0.071284
v -0.343935 0.189967 0.435767
v -0.178444 0.111898 -0.147296
v -0.318975 0.166712 -0.354881
v -0.725104 0.101605 -0.381490
v -0.977106 0.209671 -0.245120
v -0.587402 0.381460 0.204617
v -0.735039 0.439251 -0.017780
v -0.471055 0.267965 0.213628
v -0.395528 0.232336 -0.052470
v -0.459664 0.257351 -0.147207
v -0.645013 0.227638 -0.159351
v -0.760022 0.276957 -0.097115
vt 0.044150 0.521619
vt 0.044150 0.657352
vt 0.069354 0.657352
vt 0.069354 0.521619
vt 0.094558 0.657352
vt 0.119763 0.657352
vt 0.119763 0.521619
vt 0.144967 0.657352
vt 0.144967 0.521619
vt 0.170172 0.657352
vt 0.170172 0.521619
vt 0.195376 0.657352
vt 0.195376 0.521619
vt 0.220581 0.657352
vt 0.245785 0.657352
vt 0.245785 0.521619
vt 0.220581 0.521619
vt 0.195376 0.851551
vt 0.213738 0.851551
vt 0.170172 0.851551
vt 0.144967 0.851552
vt 0.119763 0.851551
vt 0.094558 0.851552
vt 0.069354 0.851551
vt 0.044150 0.851551
vt 0.231243 0.851552
vt 0.502743 0.642999
vt 0.636866 0.642999
vt 0.636866 0.508876
vt 0.502743 0.508876
vt 0.195376 0.994173
vt 0.213738 0.994173
vt 0.184004 0.994174
vt 0.147315 0.994174
vt 0.170172 0.994173
vt 0.119763 0.994174
vt 0.094558 0.994174
vt 0.069354 0.994173
vt 0.044150 0.994173
vt 0.231243 0.994173
vt 0.281363 0.986827
vt 0.394452 0.986827
vt 0.394452 0.873737
vt 0.281363 0.873737
vt 0.094558 0.521619
vn -0.721100 0.186300 -0.667300
vn -0.722300 -0.005000 -0.691500
vn -0.009100 -0.065900 -0.997800
vn -0.004500 0.217400 -0.976000
vn 0.708700 -0.091600 -0.699500
vn 0.994600 -0.101100 -0.023200
vn 0.983600 0.170400 -0.057900
vn 0.722400 -0.101000 0.684000
vn 0.645900 0.465800 0.604900
vn -0.012700 -0.062700 0.997900
vn -0.007400 0.557300 0.830300
vn -0.735300 0.006600 0.677700
vn -0.629300 0.512100 0.584600
vn -0.999200 0.036000 -0.013700
vn -0.969800 0.235800 -0.061100
vn -0.776300 0.105300 0.621400
vn -0.991300 0.124200 0.042000
vn 0.008000 -0.078800 0.996900
vn 0.743400 -0.156500 0.650300
vn 0.989800 -0.142200 -0.003000
vn 0.756000 -0.072500 -0.650500
vn 0.004600 0.095000 -0.995500
vn -0.737800 0.097000 -0.668000
vn -0.516800 -0.725000 -0.455200
vn -0.733800 -0.031600 -0.678600
vn -0.000200 -0.045600 -0.998900
vn 0.733000 -0.052700 -0.678200
vn 0.499000 -0.738100 -0.454100
vn 0.985400 -0.053900 -0.161700
vn 0.650200 -0.751600 -0.110700
vn 0.836700 -0.049000 0.545500
vn 0.592200 -0.735300 0.329600
vn -0.000200 -0.040100 0.999200
vn -0.837400 -0.025400 0.545900
vn -0.610600 -0.719800 0.330200
vn -0.986500 -0.025000 -0.161700
vn -0.669100 -0.734700 -0.111200
vn -0.716200 0.259100 -0.648000
vn 0.000800 0.288200 -0.957600
vn 0.723300 0.228200 -0.651800
vn 0.963500 0.214400 -0.160500
vn 0.756700 0.453100 0.471200
vn 0.003400 0.541100 0.840900
vn -0.740000 0.486800 0.464100
vn -0.953500 0.255400 -0.159900
vn 0.728400 0.134700 -0.671800
vn -0.008400 -0.718900 -0.695000
vn -0.009900 -0.999900 -0.006500
vn -0.008800 -0.750700 0.660600
vn 0.030000 0.742400 0.669200
vn -0.452500 0.842000 -0.293600
vn 0.499000 0.228900 0.835800
vn 0.934100 0.294300 -0.201900
vn 0.521400 0.573700 -0.631600
vn -0.138000 0.621500 -0.771100
vn -0.465100 0.752600 0.466100
vn 0.633500 0.754900 -0.169900
vn 0.576900 0.644200 -0.502300
vn 0.601000 0.796700 -0.064200
vn 0.477900 0.878200 -0.021400
vn 0.172300 0.940300 -0.293700
vn -0.015800 0.872100 -0.489100
vn 0.305000 0.615200 -0.727000
usemtl lambert2SG
s 1
f 1/1/1 2/2/2 3/3/3
f 4/4/4 3/3/3 5/5/5
f 5/5/5 7/6/6 8/7/7
f 7/6/6 9/8/8 10/9/9
f 9/8/8 11/10/10 12/11/11
f 12/11/11 11/10/10 13/12/12
f 14/13/13 13/12/12 15/14/14
f 2/15/2 1/16/1 16/17/15
f 17/18/16 18/19/17 15/14/14
f 19/20/18 17/18/16 13/12/12
f 9/8/8 20/21/19 19/20/18
f 7/6/6 21/22/20 20/21/19
f 5/5/5 22/23/21 21/22/20
f 3/3/3 23/24/22 22/23/21
f 2/2/2 24/25/23 23/24/22
f 15/14/14 18/19/17 24/26/23
f 25/27/24 26/28/25 27/29/26
f 27/28/26 29/29/27 30/30/28
f 29/28/27 31/29/29 32/30/30
f 32/27/30 31/28/29 33/29/31
f 34/27/32 33/28/31 35/29/33
f 35/28/33 37/29/34 38/30/35
f 37/28/34 39/29/36 40/30/37
f 40/27/37 39/28/36 26/29/25
f 41/28/38 42/29/39 27/30/26
f 27/27/26 42/28/39 43/29/40
f 29/27/27 43/28/40 44/29/41
f 44/28/41 45/29/42 33/30/31
f 45/28/42 46/29/43 35/30/33
f 35/27/33 46/28/43 47/29/44
f 37/27/34 47/28/44 48/29/45
f 48/28/45 41/29/38 26/30/25
f 1/28/1 4/29/4 42/30/39
f 42/27/39 4/28/4 6/29/46
f 43/27/40 6/28/46 8/29/7
f 8/28/7 10/29/9 45/30/42
f 10/28/9 12/29/11 46/30/43
f 46/27/43 12/28/11 14/29/13
f 47/27/44 14/28/13 16/29/15
f 41/30/38 48/27/45 16/28/15
f 40/27/37 25/28/24 28/29/47
f 28/27/47 30/28/28 32/29/30
f 40/27/37 49/28/48 36/29/49
f 32/27/30 34/28/32 36/29/49
f 50/31/50 51/32/51 18/19/17
f 19/20/18 50/33/50 17/18/16
f 20/21/19 52/34/52 50/35/50
f 21/22/20 53/36/53 52/34/52
f 54/37/54 53/36/53 21/22/20
f 23/24/22 55/38/55 54/37/54
f 56/39/56 55/38/55 23/24/22
f 51/32/51 56/40/56 24/26/23
f 57/41/57 58/42/58 51/43/51
f 52/44/52 59/41/59 57/42/57
f 60/41/60 59/42/59 52/43/52
f 54/44/54 61/41/61 60/42/60
f 55/44/55 62/41/62 61/42/61
f 56/44/56 63/41/63 62/42/62
f 58/41/58 63/42/63 56/43/56
f 4/4/4 1/1/1 3/3/3
f 6/45/46 4/4/4 5/5/5
f 6/45/46 5/5/5 8/7/7
f 8/7/7 7/6/6 10/9/9
f 10/9/9 9/8/8 12/11/11
f 14/13/13 12/11/11 13/12/12
f 16/17/15 14/13/13 15/14/14
f 15/14/14 2/15/2 16/17/15
f 13/12/12 17/18/16 15/14/14
f 11/10/10 19/20/18 13/12/12
f 11/10/10 9/8/8 19/20/18
f 9/8/8 7/6/6 20/21/19
f 7/6/6 5/5/5 21/22/20
f 5/5/5 3/3/3 22/23/21
f 3/3/3 2/2/2 23/24/22
f 2/15/2 15/14/14 24/26/23
f 28/30/47 25/27/24 27/29/26
f 28/27/47 27/28/26 30/30/28
f 30/27/28 29/28/27 32/30/30
f 34/30/32 32/27/30 33/29/31
f 36/30/49 34/27/32 35/29/33
f 36/27/49 35/28/33 38/30/35
f 38/27/35 37/28/34 40/30/37
f 25/30/24 40/27/37 26/29/25
f 26/27/25 41/28/38 27/30/26
f 29/30/27 27/27/26 43/29/40
f 31/30/29 29/27/27 44/29/41
f 31/27/29 44/28/41 33/30/31
f 33/27/31 45/28/42 35/30/33
f 37/30/34 35/27/33 47/29/44
f 39/30/36 37/27/34 48/29/45
f 39/27/36 48/28/45 26/30/25
f 41/27/38 1/28/1 42/30/39
f 43/30/40 42/27/39 6/29/46
f 44/30/41 43/27/40 8/29/7
f 44/27/41 8/28/7 45/30/42
f 45/27/42 10/28/9 46/30/43
f 47/30/44 46/27/43 14/29/13
f 48/30/45 47/27/44 16/29/15
f 1/29/1 41/30/38 16/28/15
f 49/30/48 40/27/37 28/29/47
f 49/30/48 28/27/47 32/29/30
f 38/30/35 40/27/37 36/29/49
f 49/30/48 32/27/30 36/29/49
f 17/18/16 50/31/50 18/19/17
f 19/20/18 20/21/19 50/35/50
f 20/21/19 21/22/20 52/34/52
f 22/23/21 54/37/54 21/22/20
f 22/23/21 23/24/22 54/37/54
f 24/25/23 56/39/56 23/24/22
f 18/19/17 51/32/51 24/26/23
f 50/44/50 57/41/57 51/43/51
f 50/43/50 52/44/52 57/42/57
f 53/44/53 60/41/60 52/43/52
f 53/43/53 54/44/54 60/42/60
f 54/43/54 55/44/55 61/42/61
f 55/43/55 56/44/56 62/42/62
f 51/44/51 58/41/58 56/43/56
