# Blender v2.71 (sub 0) OBJ File: 'Luxio fix.blend'
# www.blender.org
mtllib Luxio_M_Tail.mtl
o Luxio_Tail1.001
v 0.030706 -0.059073 0.147965
v -0.080390 -0.022976 0.147934
v -0.080390 -0.023213 -0.131821
v 0.030706 -0.059310 -0.131790
v -0.080390 0.093837 0.147836
v -0.080390 0.093601 -0.131919
v 0.030706 0.129935 0.147805
v 0.030706 0.129698 -0.131950
v 0.099367 0.035431 0.147885
v 0.099367 0.035194 -0.131870
v -0.080390 -0.062049 -0.378684
v 0.030706 -0.095963 -0.367317
v -0.080390 0.047971 -0.415645
v 0.030706 0.082002 -0.427077
v 0.099367 -0.007050 -0.397171
v -0.080390 -0.256316 -0.858265
v 0.030706 -0.285937 -0.839799
v -0.080390 -0.160343 -0.917154
v 0.030706 -0.130502 -0.935424
v 0.099367 -0.208220 -0.888181
v -0.079523 -0.556171 -1.294503
v 0.031573 -0.584378 -1.272861
v -0.079523 -0.464843 -1.363246
v 0.031573 -0.436471 -1.384500
v 0.100235 -0.510443 -1.329427
v -0.080390 -0.819295 -1.769554
v 0.030706 -0.854774 -1.762354
v -0.080390 -0.704993 -1.792404
v 0.030706 -0.669592 -1.799532
v 0.099367 -0.762103 -1.781068
v -0.080390 -0.920650 -2.242441
v 0.030706 -0.956178 -2.248747
v -0.080390 -0.805844 -2.222037
v 0.030706 -0.770248 -2.215783
v 0.099367 -0.863278 -2.232196
v -0.080390 -0.844905 -2.693805
v 0.030706 -0.877576 -2.707639
v -0.080390 -0.738913 -2.649527
v 0.030706 -0.705760 -2.635995
v 0.099367 -0.791991 -2.671570
v -0.080390 -0.519679 -3.089102
v 0.030706 -0.543377 -3.114007
v -0.080390 -0.439143 -3.007768
v 0.030706 -0.414112 -2.982683
v 0.099367 -0.479432 -3.048377
v -0.080390 -0.050784 -3.410589
v 0.030706 -0.058699 -3.445206
v -0.080390 -0.024308 -3.297517
v 0.030706 -0.016157 -3.262668
v 0.099367 -0.037613 -3.354132
v -0.080390 0.426725 -3.362637
v 0.030706 0.431690 -3.398392
v -0.080390 0.410658 -3.246935
v 0.030706 0.405693 -3.211181
v 0.099367 0.418692 -3.304787
v -0.080390 0.888997 -3.164117
v 0.030706 0.902698 -3.197512
v -0.080390 0.844659 -3.056044
v 0.030706 0.830958 -3.022650
v 0.099367 0.866828 -3.110080
v 0.785999 0.283434 -3.681290
v 0.448665 0.912562 -3.210129
v 0.000000 0.735265 -2.973390
v 0.000000 0.553442 -3.479077
v -0.785999 0.283434 -3.681290
v -0.448665 0.912562 -3.210129
v -0.785999 1.541689 -2.738966
v 0.000000 1.271681 -2.941179
v 0.785999 1.541689 -2.738966
v 0.000000 1.089858 -3.446866
vt 0.655504 0.508876
vt 0.789627 0.508876
vt 0.789626 0.642999
vt 0.655504 0.642999
vt 0.809287 0.642999
vt 0.809287 0.508876
vt 0.943410 0.508876
vn -0.309000 -0.951100 0.000800
vn -0.308200 -0.948500 0.073500
vn -1.000000 0.000000 0.000000
vn -0.309000 0.951100 -0.000800
vn -0.308200 0.948300 -0.075400
vn 0.809000 0.587800 -0.000500
vn 0.807800 0.587400 -0.049300
vn 0.809000 -0.587800 0.000500
vn 0.807700 -0.587600 0.048500
vn -0.307700 -0.948500 0.075500
vn -0.306500 -0.917100 0.254800
vn -0.307900 0.948200 -0.077700
vn -0.307400 0.914800 -0.261900
vn 0.806200 0.569600 -0.159700
vn 0.807300 0.567200 -0.163000
vn 0.805800 -0.571100 0.156700
vn 0.806900 -0.568500 0.160400
vn -0.300300 -0.839800 0.452200
vn -0.299100 -0.841400 0.450100
vn -0.305300 -0.918200 0.252300
vn -1.000000 -0.000500 -0.000700
vn -1.000000 -0.000400 -0.000700
vn -0.300700 0.838200 -0.455000
vn -0.300200 0.839300 -0.453200
vn -0.306500 0.915700 -0.259800
vn 0.797700 0.531900 -0.284200
vn 0.798900 0.528900 -0.286500
vn 0.799600 -0.530200 0.281900
vn 0.800200 -0.527300 0.285600
vn -0.303000 -0.811200 0.500200
vn -0.303100 -0.810200 0.501700
vn -1.000000 0.000000 0.000100
vn -1.000000 -0.000000 -0.000100
vn -0.302200 0.810800 -0.501400
vn -0.302900 0.809800 -0.502400
vn 0.800800 0.509000 -0.315700
vn 0.800600 0.510400 -0.314000
vn 0.803500 -0.505500 0.314600
vn 0.802600 -0.508100 0.312500
vn -0.304600 -0.891100 0.336500
vn -0.307000 -0.893500 0.327700
vn -1.000000 0.000200 0.001000
vn -1.000000 0.000200 0.000800
vn -0.302900 0.886300 -0.350300
vn -0.305700 0.889000 -0.340900
vn 0.805400 0.555700 -0.206500
vn 0.801900 0.554200 -0.223200
vn 0.806500 -0.556400 0.199700
vn 0.803400 -0.555000 0.215600
vn -0.302100 -0.952900 0.027300
vn -0.305500 -0.952100 0.012800
vn -0.301500 0.952300 -0.047600
vn -0.305300 0.951700 -0.031100
vn 0.805500 0.592500 -0.010600
vn 0.799900 0.598900 -0.038500
vn 0.805600 -0.592500 0.004000
vn 0.800400 -0.598700 0.029700
vn -0.304100 -0.866400 -0.396100
vn -0.305200 -0.867000 -0.393800
vn -0.306500 0.866000 0.395100
vn -0.308300 0.867100 0.391400
vn 0.807100 0.538600 0.241800
vn 0.805100 0.538700 0.248200
vn 0.805600 -0.540000 -0.243700
vn 0.804000 -0.540200 -0.248600
vn -0.295100 -0.644600 -0.705200
vn -0.295600 -0.645200 -0.704500
vn -0.301900 0.643400 0.703500
vn -0.303700 0.644500 0.701700
vn 0.803200 0.403600 0.438100
vn 0.801600 0.402600 0.442100
vn 0.800100 -0.405800 -0.441700
vn 0.799000 -0.404800 -0.444700
vn -0.304400 -0.237800 -0.922400
vn -0.306400 -0.234800 -0.922500
vn -0.306600 0.232800 0.922900
vn -0.309500 0.230700 0.922500
vn 0.810100 0.141800 0.569000
vn 0.807300 0.145900 0.571800
vn 0.808300 -0.143600 -0.571000
vn 0.805900 -0.148800 -0.573100
vn -0.305800 0.239500 -0.921500
vn -0.308100 0.232600 -0.922500
vn -0.305000 -0.254900 0.917600
vn -0.307700 -0.247100 0.918900
vn 0.808000 -0.147500 0.570400
vn 0.805000 -0.160900 0.571100
vn 0.808200 0.142100 -0.571500
vn 0.805500 0.154600 -0.572100
vn -0.307600 0.373600 -0.875100
vn -0.309000 0.373100 -0.874800
vn -0.307300 -0.383500 0.870900
vn -0.308900 -0.382900 0.870600
vn 0.809000 -0.234300 0.539200
vn 0.807300 -0.235800 0.541000
vn 0.809000 0.230600 -0.540700
vn 0.807500 0.231900 -0.542300
vn 0.707100 -0.566000 -0.423800
vn 1.000000 0.000000 0.000000
vn 0.000000 -0.599400 0.800400
vn 0.000000 -0.800400 -0.599400
vn -0.707100 -0.566000 -0.423800
vn -0.707100 0.566000 0.423800
vn 0.000000 0.800400 0.599400
vn 0.707100 0.566000 0.423800
vn 0.000000 0.599400 -0.800400
vn 0.808200 0.587100 -0.045600
vn 0.808200 -0.587200 0.044900
usemtl lambert2SG.001
s 1
f 1/1/1 2/2/1 3/3/2
f 5/2/3 6/3/3 3/4/3
f 5/1/4 7/2/4 8/3/5
f 7/1/6 9/2/6 10/3/7
f 9/1/8 1/2/8 4/3/9
f 4/1/10 3/2/2 11/3/11
f 3/1/3 6/2/3 13/3/3
f 6/1/12 8/2/5 14/3/13
f 10/2/7 15/3/14 14/4/15
f 4/2/9 12/3/16 15/4/17
f 16/2/18 17/3/19 12/4/20
f 18/2/21 16/3/22 11/4/3
f 19/2/23 18/3/24 13/4/25
f 15/1/14 20/2/26 19/3/27
f 12/1/16 17/2/28 20/3/29
f 16/1/18 21/2/30 22/3/31
f 18/1/21 23/2/32 21/3/33
f 24/2/34 23/3/35 18/4/24
f 25/2/36 24/3/37 19/4/27
f 17/1/28 22/2/38 25/3/39
f 21/1/30 26/2/40 27/3/41
f 23/1/32 28/2/42 26/3/43
f 24/1/34 29/2/44 28/3/45
f 30/2/46 29/3/47 24/4/37
f 27/2/48 30/3/49 25/4/39
f 26/1/40 31/2/50 32/3/51
f 28/1/42 33/2/3 31/3/3
f 29/1/44 34/2/52 33/3/53
f 35/2/54 34/3/55 29/4/47
f 32/2/56 35/3/57 30/4/49
f 31/1/50 36/2/58 37/3/59
f 33/1/3 38/2/3 36/3/3
f 34/1/52 39/2/60 38/3/61
f 40/2/62 39/3/63 34/4/55
f 37/2/64 40/3/65 35/4/57
f 41/2/66 42/3/67 37/4/59
f 43/2/3 41/3/3 36/4/3
f 44/2/68 43/3/69 38/4/61
f 40/1/62 45/2/70 44/3/71
f 37/1/64 42/2/72 45/3/73
f 41/1/66 46/2/74 47/3/75
f 43/1/3 48/2/3 46/3/3
f 44/1/68 49/2/76 48/3/77
f 50/2/78 49/3/79 44/4/71
f 47/2/80 50/3/81 45/4/73
f 51/2/82 52/3/83 47/4/75
f 53/2/3 51/3/3 46/4/3
f 54/2/84 53/3/85 48/4/77
f 50/1/78 55/2/86 54/3/87
f 47/1/80 52/2/88 55/3/89
f 56/2/90 57/3/91 52/4/83
f 58/2/3 56/3/3 51/4/3
f 59/2/92 58/3/93 53/4/85
f 55/1/86 60/2/94 59/3/95
f 52/1/88 57/2/96 60/3/97
f 61/5/98 62/6/99 63/7/100
f 64/5/101 61/6/98 63/7/100
f 65/5/102 64/6/101 63/7/100
f 66/5/3 65/6/102 63/7/100
f 67/5/103 66/6/3 63/7/100
f 68/5/104 67/6/103 63/7/100
f 69/5/105 68/6/104 63/7/100
f 62/5/99 69/6/105 63/7/100
f 61/5/98 70/6/106 62/7/99
f 64/5/101 70/6/106 61/7/98
f 65/5/102 70/6/106 64/7/101
f 66/5/3 70/6/106 65/7/102
f 67/5/103 70/6/106 66/7/3
f 68/5/104 70/6/106 67/7/103
f 69/5/105 70/6/106 68/7/104
f 62/5/99 70/6/106 69/7/105
f 4/4/10 1/1/1 3/3/2
f 2/1/3 5/2/3 3/4/3
f 6/4/12 5/1/4 8/3/5
f 8/4/107 7/1/6 10/3/7
f 10/4/108 9/1/8 4/3/9
f 12/4/20 4/1/10 11/3/11
f 11/4/3 3/1/3 13/3/3
f 13/4/25 6/1/12 14/3/13
f 8/1/107 10/2/7 14/4/15
f 10/1/108 4/2/9 15/4/17
f 11/1/11 16/2/18 12/4/20
f 13/1/3 18/2/21 11/4/3
f 14/1/13 19/2/23 13/4/25
f 14/4/15 15/1/14 19/3/27
f 15/4/17 12/1/16 20/3/29
f 17/4/19 16/1/18 22/3/31
f 16/4/22 18/1/21 21/3/33
f 19/1/23 24/2/34 18/4/24
f 20/1/26 25/2/36 19/4/27
f 20/4/29 17/1/28 25/3/39
f 22/4/31 21/1/30 27/3/41
f 21/4/33 23/1/32 26/3/43
f 23/4/35 24/1/34 28/3/45
f 25/1/36 30/2/46 24/4/37
f 22/1/38 27/2/48 25/4/39
f 27/4/41 26/1/40 32/3/51
f 26/4/43 28/1/42 31/3/3
f 28/4/45 29/1/44 33/3/53
f 30/1/46 35/2/54 29/4/47
f 27/1/48 32/2/56 30/4/49
f 32/4/51 31/1/50 37/3/59
f 31/4/3 33/1/3 36/3/3
f 33/4/53 34/1/52 38/3/61
f 35/1/54 40/2/62 34/4/55
f 32/1/56 37/2/64 35/4/57
f 36/1/58 41/2/66 37/4/59
f 38/1/3 43/2/3 36/4/3
f 39/1/60 44/2/68 38/4/61
f 39/4/63 40/1/62 44/3/71
f 40/4/65 37/1/64 45/3/73
f 42/4/67 41/1/66 47/3/75
f 41/4/3 43/1/3 46/3/3
f 43/4/69 44/1/68 48/3/77
f 45/1/70 50/2/78 44/4/71
f 42/1/72 47/2/80 45/4/73
f 46/1/74 51/2/82 47/4/75
f 48/1/3 53/2/3 46/4/3
f 49/1/76 54/2/84 48/4/77
f 49/4/79 50/1/78 54/3/87
f 50/4/81 47/1/80 55/3/89
f 51/1/82 56/2/90 52/4/83
f 53/1/3 58/2/3 51/4/3
f 54/1/84 59/2/92 53/4/85
f 54/4/87 55/1/86 59/3/95
f 55/4/89 52/1/88 60/3/97
