# Blender v2.71 (sub 0) OBJ File: 'Luxio fix.blend'
# www.blender.org
mtllib Luxio_M_Right_Leg_Back.mtl
o Luxio_R_Flank
v -0.324423 -1.673217 -0.306113
v -0.387045 -1.217407 -0.319082
v -0.103779 -1.208867 -0.438058
v -0.074505 -1.671173 -0.419899
v 0.180410 -1.195781 -0.320013
v 0.174258 -1.662426 -0.304714
v 0.296181 -1.190630 -0.039999
v 0.275076 -1.649183 -0.032836
v 0.181952 -1.201281 0.240974
v 0.169782 -1.638769 0.243708
v -0.103450 -1.217447 0.360131
v -0.074661 -1.643262 0.357643
v -0.388160 -1.222832 0.240069
v -0.320541 -1.648745 0.245323
v -0.501965 -1.221280 -0.039975
v -0.426875 -1.663812 -0.033043
v -0.406626 -0.895160 0.308653
v -0.516426 -0.881552 -0.009894
v -0.121564 -0.916175 0.450334
v 0.186754 -0.903894 0.313504
v 0.307700 -0.876881 -0.012717
v 0.191188 -0.875720 -0.338607
v -0.107790 -0.880351 -0.480311
v -0.401887 -0.879111 -0.335870
v -0.367332 -2.146403 -0.311482
v -0.406822 -1.963279 -0.355288
v -0.075587 -1.963279 -0.507487
v -0.075587 -2.146403 -0.445536
v 0.255647 -1.963279 -0.355288
v 0.216157 -2.146403 -0.311482
v 0.391436 -1.963279 -0.005970
v 0.333097 -2.149254 -0.000872
v 0.365889 -1.963279 0.359391
v 0.317192 -2.146731 0.304937
v -0.075587 -1.963279 0.589336
v -0.075587 -2.149262 0.507716
v -0.517064 -1.963279 0.359391
v -0.468366 -2.146731 0.304937
v -0.542611 -1.963279 -0.005970
v -0.484272 -2.149254 -0.000872
v -0.384299 -1.783907 -0.327789
v -0.075707 -1.787744 -0.471692
v 0.233258 -1.785117 -0.328253
v 0.355102 -1.774649 -0.000561
v 0.328883 -1.766194 0.315447
v -0.075684 -1.763648 0.525486
v -0.479748 -1.765254 0.314896
v -0.505505 -1.772966 -0.000610
v -0.075587 -2.175712 0.012152
v -0.431953 0.006093 0.107789
v -0.335166 -0.101134 -0.368399
v -0.350195 -0.117192 0.575180
v -0.121658 -0.413373 0.783985
v 0.136999 -0.688785 0.589766
v 0.337968 -0.765635 0.119613
v 0.244526 -0.645052 -0.371230
v -0.045947 -0.367369 -0.527852
v 0.061040 0.334198 -0.252443
v 0.243508 0.007851 -0.457570
v 0.421349 -0.314071 -0.246074
v 0.480570 -0.455352 0.238389
v 0.391817 -0.345321 0.718652
v 0.203447 -0.020504 0.918487
v 0.036799 0.319983 0.711240
v -0.016518 0.462794 0.232069
vt 0.789627 0.508876
vt 0.789626 0.642999
vt 0.655504 0.642999
vt 0.655504 0.508876
vt 0.502743 0.642999
vt 0.502743 0.508876
vt 0.636866 0.508876
vt 0.636866 0.642999
vn -0.402900 -0.081100 -0.911600
vn -0.383200 -0.092100 -0.919000
vn -0.402100 -0.074200 -0.912600
vn 0.402200 -0.058100 -0.913700
vn 0.385100 -0.051300 -0.921400
vn 0.407300 -0.018800 -0.913100
vn 0.932600 -0.039700 -0.358800
vn 0.928800 -0.026100 -0.369700
vn 0.926600 -0.016300 -0.375700
vn 0.930500 -0.056200 0.362100
vn 0.925200 -0.066000 0.373600
vn 0.930900 -0.032200 0.363900
vn 0.399400 -0.113900 0.909700
vn 0.388300 -0.117500 0.914000
vn 0.407700 0.004300 0.913100
vn -0.403600 -0.045400 0.913800
vn -0.380800 -0.161900 0.910400
vn -0.405400 -0.147400 0.902200
vn -0.919500 -0.147000 0.364500
vn -0.918200 -0.135300 0.372400
vn -0.925900 -0.121800 0.357500
vn -0.922000 -0.152600 -0.355900
vn -0.925700 -0.162400 -0.341700
vn -0.924400 -0.073300 -0.374400
vn -0.940400 -0.066100 0.333600
vn -0.952900 -0.037400 0.301000
vn -0.496800 -0.266900 0.825800
vn -0.446500 -0.233200 0.863800
vn 0.318100 -0.398900 0.860100
vn 0.382400 -0.393000 0.836300
vn 0.903500 -0.227500 0.363300
vn 0.927700 -0.159700 0.337600
vn 0.946800 -0.127300 -0.295700
vn 0.935800 0.078700 -0.343700
vn 0.426600 -0.122100 -0.896100
vn 0.393800 -0.127300 -0.910300
vn -0.440700 -0.032500 -0.897100
vn -0.436300 -0.045900 -0.898600
vn -0.938300 0.054300 -0.341600
vn -0.949400 0.031600 -0.312500
vn -0.926100 -0.083900 -0.367900
vn -0.494200 -0.739200 -0.457400
vn -0.725100 -0.054700 -0.686500
vn -0.000100 -0.057700 -0.998300
vn 0.725100 -0.055200 -0.686500
vn 0.494200 -0.739200 -0.457400
vn 0.987400 -0.054200 -0.148400
vn 0.645900 -0.757000 -0.098300
vn 0.822600 -0.046300 0.566600
vn 0.579900 -0.738000 0.344900
vn -0.000100 -0.046700 0.998900
vn -0.822700 -0.045500 0.566700
vn -0.579900 -0.738000 0.344900
vn -0.987500 -0.053200 -0.148400
vn -0.645900 -0.757000 -0.098300
vn -0.704400 0.323900 -0.631500
vn -0.001300 0.296000 -0.955200
vn 0.706000 0.308100 -0.637700
vn 0.927600 0.351700 -0.125700
vn 0.720700 0.509100 0.470400
vn -0.000600 0.548400 0.836200
vn -0.716200 0.523600 0.461400
vn -0.918100 0.376400 -0.123800
vn -0.613400 0.456600 -0.644400
vn 0.006800 0.402800 -0.915300
vn 0.630700 0.425600 -0.648900
vn 0.817700 0.559200 -0.136400
vn 0.419600 0.782700 0.459700
vn 0.003400 0.802000 0.597300
vn -0.406000 0.808800 0.425400
vn -0.790200 0.596800 -0.139500
vn 0.000000 -0.730600 -0.682900
vn 0.000000 -1.000000 -0.004100
vn 0.000000 -0.758000 0.652200
vn -0.964600 0.091200 -0.247300
vn -0.973800 0.074500 -0.214700
vn -0.974500 0.043300 0.220300
vn -0.979600 0.068100 0.189300
vn -0.828200 -0.310000 0.466900
vn -0.723300 -0.303900 0.620100
vn -0.417500 -0.751900 0.510300
vn 0.088600 -0.659900 0.746100
vn 0.662000 -0.641400 0.387800
vn 0.860800 -0.362600 0.357100
vn 0.937800 -0.250800 -0.240100
vn 0.954700 -0.057500 -0.292000
vn 0.382800 -0.160200 -0.909900
vn 0.307600 -0.202600 -0.929700
vn -0.474000 -0.011900 -0.880400
vn -0.497100 -0.020500 -0.867500
vn -0.536800 0.617700 -0.574700
vn 0.038500 0.216200 -0.975600
vn 0.113500 0.126900 -0.985400
vn 0.824400 -0.248000 -0.508800
vn 0.766000 -0.253500 -0.590800
vn 0.894000 -0.444600 0.055700
vn 0.893300 -0.449400 -0.006200
vn 0.404200 -0.541200 0.737400
vn 0.486000 -0.596600 0.638600
vn -0.325200 -0.057300 0.943900
vn -0.168100 -0.175300 0.970000
vn -0.699500 0.436000 0.566300
vn -0.742400 0.669700 0.019400
vn -0.738000 0.673800 -0.037400
vn -0.426100 0.574400 -0.698900
vn -0.412400 -0.082500 -0.907300
vn 0.420400 -0.009000 -0.907300
vn 0.937300 -0.048500 -0.345200
vn 0.933400 -0.037400 0.356800
vn 0.422500 -0.006100 0.906300
vn -0.413900 -0.054500 0.908700
vn -0.920800 -0.150600 0.359900
vn -0.685400 0.422000 0.593400
usemtl lambert2SG
s 1
f 2/1/1 3/2/2 4/3/3
f 3/1/4 5/2/5 6/3/6
f 6/4/7 5/1/8 7/2/9
f 7/1/10 9/2/11 10/3/12
f 9/1/13 11/2/14 12/3/15
f 12/4/16 11/1/17 13/2/18
f 14/4/19 13/1/20 15/2/21
f 1/3/22 16/4/23 15/1/24
f 17/1/25 18/2/26 15/3/21
f 19/1/27 17/2/28 13/3/18
f 9/4/13 20/1/29 19/2/30
f 7/4/10 21/1/31 20/2/32
f 5/4/8 22/1/33 21/2/34
f 3/4/4 23/1/35 22/2/36
f 2/4/1 24/1/37 23/2/38
f 18/1/39 24/2/40 2/3/41
f 25/5/42 26/6/43 27/7/44
f 27/6/44 29/7/45 30/8/46
f 29/6/45 31/7/47 32/8/48
f 32/5/48 31/6/47 33/7/49
f 34/5/50 33/6/49 35/7/51
f 35/6/51 37/7/52 38/8/53
f 37/6/52 39/7/54 40/8/55
f 40/5/55 39/6/54 26/7/43
f 41/6/56 42/7/57 27/8/44
f 27/5/44 42/6/57 43/7/58
f 29/5/45 43/6/58 44/7/59
f 44/6/59 45/7/60 33/8/49
f 45/6/60 46/7/61 35/8/51
f 35/5/51 46/6/61 47/7/62
f 37/5/52 47/6/62 48/7/63
f 48/6/63 41/7/56 26/8/43
f 41/5/56 1/6/64 4/7/65
f 4/6/65 6/7/66 43/8/58
f 6/6/66 8/7/67 44/8/59
f 8/6/67 10/7/68 45/8/60
f 45/5/60 10/6/68 12/7/69
f 12/6/69 14/7/70 47/8/62
f 47/5/62 14/6/70 16/7/71
f 1/7/64 41/8/56 48/5/63
f 40/5/55 25/6/42 28/7/72
f 28/5/72 30/6/46 32/7/48
f 40/5/55 49/6/73 36/7/74
f 32/5/48 34/6/50 36/7/74
f 50/1/75 51/2/76 24/3/40
f 52/1/77 50/2/78 18/3/26
f 19/4/27 53/1/79 52/2/80
f 20/4/29 54/1/81 53/2/82
f 21/4/31 55/1/83 54/2/84
f 22/4/33 56/1/85 55/2/86
f 57/1/87 56/2/88 22/3/36
f 51/1/89 57/2/90 23/3/38
f 58/1/91 59/2/92 57/3/93
f 59/1/92 60/2/94 56/3/95
f 56/4/95 60/1/94 61/2/96
f 55/4/97 61/1/96 62/2/98
f 54/4/99 62/1/98 63/2/100
f 53/4/101 63/1/100 64/2/102
f 64/1/102 65/2/103 50/3/104
f 65/1/103 58/2/91 51/3/105
f 1/4/106 2/1/1 4/3/3
f 4/4/107 3/1/4 6/3/6
f 8/3/108 6/4/7 7/2/9
f 8/4/109 7/1/10 10/3/12
f 10/4/110 9/1/13 12/3/15
f 14/3/111 12/4/16 13/2/18
f 16/3/112 14/4/19 15/2/21
f 2/2/41 1/3/22 15/1/24
f 13/4/20 17/1/25 15/3/21
f 11/4/17 19/1/27 13/3/18
f 11/3/14 9/4/13 19/2/30
f 9/3/11 7/4/10 20/2/32
f 7/3/9 5/4/8 21/2/34
f 5/3/5 3/4/4 22/2/36
f 3/3/2 2/4/1 23/2/38
f 15/4/24 18/1/39 2/3/41
f 28/8/72 25/5/42 27/7/44
f 28/5/72 27/6/44 30/8/46
f 30/5/46 29/6/45 32/8/48
f 34/8/50 32/5/48 33/7/49
f 36/8/74 34/5/50 35/7/51
f 36/5/74 35/6/51 38/8/53
f 38/5/53 37/6/52 40/8/55
f 25/8/42 40/5/55 26/7/43
f 26/5/43 41/6/56 27/8/44
f 29/8/45 27/5/44 43/7/58
f 31/8/47 29/5/45 44/7/59
f 31/5/47 44/6/59 33/8/49
f 33/5/49 45/6/60 35/8/51
f 37/8/52 35/5/51 47/7/62
f 39/8/54 37/5/52 48/7/63
f 39/5/54 48/6/63 26/8/43
f 42/8/57 41/5/56 4/7/65
f 42/5/57 4/6/65 43/8/58
f 43/5/58 6/6/66 44/8/59
f 44/5/59 8/6/67 45/8/60
f 46/8/61 45/5/60 12/7/69
f 46/5/61 12/6/69 47/8/62
f 48/8/63 47/5/62 16/7/71
f 16/6/71 1/7/64 48/5/63
f 49/8/73 40/5/55 28/7/72
f 49/8/73 28/5/72 32/7/48
f 38/8/53 40/5/55 36/7/74
f 49/8/73 32/5/48 36/7/74
f 18/4/39 50/1/75 24/3/40
f 17/4/25 52/1/77 18/3/26
f 17/3/28 19/4/27 52/2/80
f 19/3/30 20/4/29 53/2/82
f 20/3/32 21/4/31 54/2/84
f 21/3/34 22/4/33 55/2/86
f 23/4/35 57/1/87 22/3/36
f 24/4/37 51/1/89 23/3/38
f 51/4/105 58/1/91 57/3/93
f 57/4/93 59/1/92 56/3/95
f 55/3/97 56/4/95 61/2/96
f 54/3/99 55/4/97 62/2/98
f 53/3/101 54/4/99 63/2/100
f 52/3/113 53/4/101 64/2/102
f 52/4/113 64/1/102 50/3/104
f 50/4/104 65/1/103 51/3/105
