# Blender v2.71 (sub 0) OBJ File: 'Luxio fix.blend'
# www.blender.org
mtllib Luxio_M_Left_Leg_Front.mtl
o Luxio_L_Leg
v 0.961483 -1.544668 -0.315316
v 0.717771 -1.545247 -0.425110
v 0.698290 -0.960669 -0.433994
v 0.948514 -0.947807 -0.329392
v 0.474398 -1.539754 -0.314823
v 0.447293 -0.970001 -0.329687
v 0.374952 -1.530202 -0.050988
v 0.344990 -0.972502 -0.083252
v 0.476942 -1.522714 0.213047
v 0.445603 -0.969301 0.163869
v 0.717639 -1.523738 0.321972
v 0.697170 -0.959826 0.269088
v 0.958645 -1.527231 0.213425
v 0.948424 -0.946965 0.163578
v 1.061171 -1.536745 -0.051040
v 1.049594 -0.941486 -0.083250
v 0.987845 -0.161614 -0.046477
v 0.879849 -0.171269 0.296553
v 0.613532 -0.187514 0.440328
v 0.346936 -0.196421 0.296331
v 0.238513 -0.196900 -0.046500
v 0.346532 -0.193076 -0.389664
v 0.613273 -0.182601 -0.533921
v 0.879846 -0.167863 -0.389788
v 0.988727 -2.021801 -0.333658
v 0.725350 -2.024196 -0.466704
v 0.722594 -1.851835 -0.519855
v 1.016648 -1.848917 -0.371652
v 0.461979 -2.027029 -0.333658
v 0.428540 -1.854753 -0.371652
v 0.353965 -2.029500 -0.057104
v 0.306518 -1.855965 -0.060758
v 0.366624 -2.027944 0.301146
v 0.324824 -1.855783 0.350517
v 0.725375 -2.026065 0.504121
v 0.722594 -1.851835 0.576929
v 1.084081 -2.020823 0.301146
v 1.120365 -1.847888 0.350517
v 1.096779 -2.022129 -0.057104
v 1.138671 -1.847706 -0.060758
v 0.720264 -1.672223 -0.483306
v 0.993234 -1.666682 -0.344243
v 0.447001 -1.672912 -0.344552
v 0.336108 -1.668268 -0.058181
v 0.354579 -1.661979 0.307711
v 0.720038 -1.656189 0.514993
v 1.085248 -1.654133 0.307372
v 1.103626 -1.659584 -0.058194
v 0.725606 -2.043351 -0.047400
v 0.921422 0.564139 -0.064867
v 0.597925 0.437510 0.422439
v 0.342991 0.188822 0.442184
v 0.177500 0.110753 -0.140879
v 0.318031 0.165567 -0.348464
v 0.724160 0.100460 -0.375073
v 0.976162 0.208526 -0.238703
v 0.734095 0.438106 -0.011363
v 0.586458 0.380315 0.211034
v 0.470111 0.266820 0.220045
v 0.394584 0.231191 -0.046053
v 0.458720 0.256206 -0.140790
v 0.644069 0.226493 -0.152934
v 0.759078 0.275812 -0.090698
vt 0.044150 0.521619
vt 0.069354 0.521619
vt 0.069354 0.657352
vt 0.094558 0.521619
vt 0.094558 0.657352
vt 0.119763 0.521619
vt 0.119763 0.657352
vt 0.144967 0.521619
vt 0.144967 0.657352
vt 0.170172 0.521619
vt 0.170172 0.657352
vt 0.195376 0.521619
vt 0.195376 0.657352
vt 0.220581 0.521619
vt 0.220581 0.657352
vt 0.245785 0.521619
vt 0.245785 0.657352
vt 0.213738 0.851551
vt 0.195376 0.851551
vt 0.170172 0.851551
vt 0.144967 0.851552
vt 0.119763 0.851551
vt 0.094558 0.851552
vt 0.044150 0.657352
vt 0.069354 0.851551
vt 0.231243 0.851552
vt 0.502743 0.642999
vt 0.502743 0.508876
vt 0.636866 0.508876
vt 0.636866 0.642999
vt 0.213738 0.994173
vt 0.195376 0.994173
vt 0.184004 0.994174
vt 0.170172 0.994173
vt 0.147315 0.994173
vt 0.119763 0.994174
vt 0.094558 0.994174
vt 0.069354 0.994174
vt 0.044150 0.994173
vt 0.231243 0.994173
vt 0.394452 0.873737
vt 0.394452 0.986827
vt 0.281363 0.986827
vt 0.281363 0.873737
vt 0.044150 0.851551
vn 0.721100 0.186300 -0.667300
vn 0.004500 0.217400 -0.976000
vn 0.009100 -0.065900 -0.997800
vn -0.728400 0.134700 -0.671800
vn -0.708700 -0.091600 -0.699500
vn -0.983600 0.170400 -0.057900
vn -0.994600 -0.101100 -0.023200
vn -0.645900 0.465800 0.604900
vn -0.722400 -0.101000 0.684000
vn 0.007400 0.557300 0.830300
vn 0.012700 -0.062700 0.997900
vn 0.629300 0.512100 0.584600
vn 0.735300 0.006600 0.677700
vn 0.969800 0.235800 -0.061100
vn 0.999200 0.036000 -0.013700
vn 0.722300 -0.005000 -0.691500
vn 0.991300 0.124200 0.042000
vn 0.776300 0.105300 0.621400
vn -0.008000 -0.078800 0.996900
vn -0.743400 -0.156500 0.650300
vn -0.989800 -0.142200 -0.003000
vn -0.756000 -0.072500 -0.650500
vn -0.004600 0.095000 -0.995500
vn 0.737800 0.097000 -0.668000
vn 0.516800 -0.725000 -0.455200
vn 0.008400 -0.718900 -0.695000
vn 0.000200 -0.045600 -0.998900
vn -0.499000 -0.738100 -0.454100
vn -0.733000 -0.052700 -0.678200
vn -0.650200 -0.751600 -0.110700
vn -0.985400 -0.053900 -0.161700
vn -0.592200 -0.735300 0.329600
vn -0.836700 -0.049000 0.545500
vn 0.008800 -0.750700 0.660600
vn 0.000200 -0.040100 0.999200
vn 0.610600 -0.719800 0.330200
vn 0.837400 -0.025400 0.545900
vn 0.669100 -0.734700 -0.111200
vn 0.986500 -0.025000 -0.161700
vn 0.733800 -0.031600 -0.678600
vn -0.000800 0.288200 -0.957600
vn 0.716200 0.259100 -0.648000
vn -0.723300 0.228200 -0.651800
vn -0.963500 0.214400 -0.160500
vn -0.756700 0.453100 0.471200
vn -0.003400 0.541100 0.840900
vn 0.740000 0.486800 0.464100
vn 0.953500 0.255400 -0.159900
vn 0.009900 -0.999900 -0.006500
vn 0.452500 0.842000 -0.293600
vn -0.030000 0.742400 0.669200
vn -0.499000 0.228900 0.835800
vn -0.934100 0.294300 -0.201900
vn -0.521400 0.573700 -0.631600
vn 0.138000 0.621500 -0.771100
vn 0.465100 0.752600 0.466100
vn -0.576900 0.644200 -0.502300
vn -0.633500 0.754900 -0.169900
vn -0.601000 0.796700 -0.064200
vn -0.477900 0.878200 -0.021400
vn -0.172300 0.940300 -0.293700
vn 0.015800 0.872100 -0.489100
vn -0.305000 0.615200 -0.727000
usemtl lambert2SG
s 1
f 1/1/1 2/2/2 3/3/3
f 2/2/2 5/4/4 6/5/5
f 7/6/6 8/7/7 6/5/5
f 9/8/8 10/9/9 8/7/7
f 11/10/10 12/11/11 10/9/9
f 11/10/10 13/12/12 14/13/13
f 13/12/12 15/14/14 16/15/15
f 15/14/14 1/16/1 4/17/16
f 16/15/15 17/18/17 18/19/18
f 14/13/13 18/19/18 19/20/19
f 10/9/9 12/11/11 19/20/19
f 8/7/7 10/9/9 20/21/20
f 6/5/5 8/7/7 21/22/21
f 3/3/3 6/5/5 22/23/22
f 4/24/16 3/3/3 23/25/23
f 16/15/15 4/17/16 24/26/24
f 25/27/25 26/28/26 27/29/27
f 29/28/28 30/29/29 27/30/27
f 31/28/30 32/29/31 30/30/29
f 31/27/30 33/28/32 34/29/33
f 33/27/32 35/28/34 36/29/35
f 37/28/36 38/29/37 36/30/35
f 39/28/38 40/29/39 38/30/37
f 39/27/38 25/28/25 28/29/40
f 27/28/27 41/29/41 42/30/42
f 27/27/27 30/28/29 43/29/43
f 30/27/29 32/28/31 44/29/44
f 34/28/33 45/29/45 44/30/44
f 36/28/35 46/29/46 45/30/45
f 36/27/35 38/28/37 47/29/47
f 38/27/37 40/28/39 48/29/48
f 28/28/40 42/29/42 48/30/48
f 1/30/1 42/27/42 41/28/41
f 41/27/41 43/28/43 5/29/4
f 43/27/43 44/28/44 7/29/6
f 45/28/45 9/29/8 7/30/6
f 46/28/46 11/29/10 9/30/8
f 46/27/46 47/28/47 13/29/12
f 47/27/47 48/28/48 15/29/14
f 15/30/14 48/27/48 42/28/42
f 39/27/38 49/28/49 26/29/26
f 26/27/26 49/28/49 31/29/30
f 39/27/38 37/28/36 35/29/34
f 31/27/30 49/28/49 35/29/34
f 17/18/17 50/31/50 51/32/51
f 19/20/19 18/19/18 51/33/51
f 20/21/20 19/20/19 51/34/51
f 21/22/21 20/21/20 52/35/52
f 21/22/21 53/36/53 54/37/54
f 23/25/23 22/23/22 54/37/54
f 23/25/23 55/38/55 56/39/56
f 24/26/24 56/40/56 50/31/50
f 50/41/50 57/42/57 58/43/58
f 52/44/52 51/41/51 58/42/58
f 52/41/52 59/42/59 60/43/60
f 54/44/54 53/41/53 60/42/60
f 55/44/55 54/41/54 61/42/61
f 56/44/56 55/41/55 62/42/62
f 56/41/56 63/42/63 57/43/57
f 4/24/16 1/1/1 3/3/3
f 3/3/3 2/2/2 6/5/5
f 5/4/4 7/6/6 6/5/5
f 7/6/6 9/8/8 8/7/7
f 9/8/8 11/10/10 10/9/9
f 12/11/11 11/10/10 14/13/13
f 14/13/13 13/12/12 16/15/15
f 16/15/15 15/14/14 4/17/16
f 14/13/13 16/15/15 18/19/18
f 12/11/11 14/13/13 19/20/19
f 20/21/20 10/9/9 19/20/19
f 21/22/21 8/7/7 20/21/20
f 22/23/22 6/5/5 21/22/21
f 23/25/23 3/3/3 22/23/22
f 24/45/24 4/24/16 23/25/23
f 17/18/17 16/15/15 24/26/24
f 28/30/40 25/27/25 27/29/27
f 26/27/26 29/28/28 27/30/27
f 29/27/28 31/28/30 30/30/29
f 32/30/31 31/27/30 34/29/33
f 34/30/33 33/27/32 36/29/35
f 35/27/34 37/28/36 36/30/35
f 37/27/36 39/28/38 38/30/37
f 40/30/39 39/27/38 28/29/40
f 28/27/40 27/28/27 42/30/42
f 41/30/41 27/27/27 43/29/43
f 43/30/43 30/27/29 44/29/44
f 32/27/31 34/28/33 44/30/44
f 34/27/33 36/28/35 45/30/45
f 46/30/46 36/27/35 47/29/47
f 47/30/47 38/27/37 48/29/48
f 40/27/39 28/28/40 48/30/48
f 2/29/2 1/30/1 41/28/41
f 2/30/2 41/27/41 5/29/4
f 5/30/4 43/27/43 7/29/6
f 44/27/44 45/28/45 7/30/6
f 45/27/45 46/28/46 9/30/8
f 11/30/10 46/27/46 13/29/12
f 13/30/12 47/27/47 15/29/14
f 1/29/1 15/30/14 42/28/42
f 25/30/25 39/27/38 26/29/26
f 29/30/28 26/27/26 31/29/30
f 49/30/49 39/27/38 35/29/34
f 33/30/32 31/27/30 35/29/34
f 18/19/18 17/18/17 51/32/51
f 52/35/52 20/21/20 51/34/51
f 53/36/53 21/22/21 52/35/52
f 22/23/22 21/22/21 54/37/54
f 55/38/55 23/25/23 54/37/54
f 24/45/24 23/25/23 56/39/56
f 17/18/17 24/26/24 50/31/50
f 51/44/51 50/41/50 58/43/58
f 59/43/59 52/44/52 58/42/58
f 53/44/53 52/41/52 60/43/60
f 61/43/61 54/44/54 60/42/60
f 62/43/62 55/44/55 61/42/61
f 63/43/63 56/44/56 62/42/62
f 50/44/50 56/41/56 57/43/57
