# Blender v2.76 (sub 0) OBJ File: ''
# www.blender.org
mtllib liechiTaller.mtl
o Cylinder.024
v 0.000000 0.425380 -0.694808
v 0.000000 0.634984 -0.584889
v 0.285483 0.634984 -0.342472
v 0.491726 0.350286 -0.057649
v 0.491726 0.350286 0.089281
v 0.409056 0.634984 0.342708
v 0.000000 0.634984 0.669599
v 0.000000 0.425380 0.726440
v -0.409056 0.634984 0.342708
v -0.491726 0.416991 0.116846
v -0.354325 1.251532 0.594585
v 0.011111 1.251532 0.324921
v 0.000000 0.634984 0.015816
v -0.491726 0.416991 -0.085214
v -0.285483 0.634984 -0.342472
v 0.000000 0.006173 -0.839052
v 0.740337 0.006173 -0.411618
v 0.740337 0.006173 0.443250
v 0.000000 0.006173 0.870684
v -0.740337 0.006173 0.443250
v -0.740337 0.006173 -0.411618
v -0.619468 0.215776 0.373466
v -0.619468 0.215776 -0.341834
v 0.000000 0.215776 -0.699483
v 0.000000 0.215776 0.731116
v 0.619468 0.215776 0.373466
v 0.619468 0.215776 -0.341834
v -0.413060 1.371177 -0.624738
v 0.000000 1.371177 -1.021343
v 0.413060 1.371177 -0.624738
v 0.000000 2.510819 -1.338258
v 0.416524 2.510819 -0.939097
v 0.000000 1.371177 -0.319932
v 0.000000 2.510819 -0.631735
v 0.577466 3.480984 -1.014938
v 0.015726 3.302444 -0.599146
v -0.416524 2.510819 -0.939097
v -0.571496 3.430787 -0.973925
v 0.008458 3.383935 -0.564150
v -0.578764 3.710130 -0.788936
v -0.009756 3.609326 -1.501661
v 0.570198 3.774878 -0.792018
v 0.409039 3.778745 -0.455736
v -0.008127 3.448601 -0.518430
v -0.017024 4.167698 -1.106762
v -0.027051 4.152258 -0.440827
v -0.444217 3.740948 -0.485547
v -0.293655 3.578363 -0.321145
v -0.034811 3.755232 -0.135082
v -0.230236 3.459581 -0.332276
v -0.029119 3.401363 -0.426928
v -0.035169 3.315827 -0.430930
v -0.166818 3.340798 -0.343406
v -0.023069 3.453089 -0.453913
v 0.235775 3.584313 -0.291875
v 0.084738 3.328580 -0.336186
v -0.046911 3.263955 -0.308842
v -0.039140 3.252817 -0.407478
v 0.160257 3.456447 -0.314030
v -0.040861 3.445877 -0.150610
v 0.011111 1.251532 0.945463
v 0.011111 2.078128 1.218533
v -0.405412 2.078128 0.819372
v 0.011111 2.078128 0.512010
v -0.579601 2.840000 0.886177
v -0.005436 2.657512 0.461187
v 0.376547 1.251532 0.594585
v 0.427635 2.078128 0.819372
v 0.594775 2.788693 0.844256
v 0.001993 2.740806 0.425417
v 0.602204 3.074215 0.655175
v 0.020610 2.971182 1.383665
v -0.572172 3.140395 0.658327
v -0.407449 3.144348 0.314607
v 0.018945 2.806902 0.378687
v 0.028039 3.541903 0.980032
v 0.038287 3.526123 0.299368
v 0.464680 3.105715 0.345078
v 0.310788 2.939533 0.177038
v 0.046219 3.120315 -0.013140
v 0.245967 2.818124 0.188414
v 0.040401 2.758619 0.285160
v 0.046585 2.690970 0.283311
v 0.181146 2.696714 0.199791
v 0.034217 2.811489 0.312743
v -0.230352 2.945615 0.147120
v -0.075974 2.684226 0.192411
v 0.058587 2.646203 0.132258
v 0.050644 2.613028 0.227304
v -0.153163 2.814920 0.169766
v 0.052403 2.804117 0.002731
vt 0.565142 0.147509
vt 0.551728 0.164099
vt 0.520760 0.152222
vt 0.451823 0.146182
vt 0.408647 0.155572
vt 0.399479 0.137702
vt 0.374837 0.186097
vt 0.105642 0.092734
vt 0.104332 0.186197
vt 0.057170 0.185424
vt 0.570022 0.192311
vt 0.603958 0.209904
vt 0.556310 0.231516
vt 0.877369 0.825207
vt 0.785657 0.666231
vt 0.877424 0.666263
vt 0.633172 0.249304
vt 0.622869 0.182670
vt 0.644048 0.172988
vt 0.607091 0.228875
vt 0.578200 0.132274
vt 0.389689 0.120203
vt 0.335367 0.157610
vt 0.319192 0.145091
vt 0.347036 0.184662
vt 0.447010 0.070380
vt 0.451007 0.093317
vt 0.477637 0.114045
vt 0.521038 0.096039
vt 0.493247 0.115230
vt 0.527257 0.074272
vt 0.362029 0.229138
vt 0.140990 0.099730
vt 0.162261 0.094781
vt 0.177640 0.194660
vt 0.486766 0.171874
vt 0.141081 0.203649
vt 0.141398 0.312513
vt 0.089133 0.317522
vt 0.185901 0.082760
vt 0.215379 0.183313
vt 0.119700 0.094789
vt 0.104422 0.194731
vt 0.066565 0.183426
vt 0.114280 0.381655
vt 0.070904 0.437138
vt 0.026505 0.329907
vt 0.193338 0.317473
vt 0.255698 0.329108
vt 0.170945 0.382029
vt 0.217214 0.437184
vt 0.208819 0.443586
vt 0.142567 0.374190
vt 0.078861 0.443865
vt 0.122100 0.394950
vt 0.125833 0.406372
vt 0.141460 0.389893
vt 0.164230 0.394162
vt 0.160083 0.405725
vt 0.158028 0.418312
vt 0.142326 0.416831
vt 0.198664 0.444443
vt 0.141822 0.403265
vt 0.180636 0.453233
vt 0.162440 0.464170
vt 0.155297 0.437543
vt 0.188929 0.446280
vt 0.089012 0.447233
vt 0.127978 0.419197
vt 0.132487 0.439821
vt 0.144572 0.443217
vt 0.146332 0.465569
vt 0.142981 0.428441
vt 0.108168 0.458686
vt 0.128543 0.428652
vt 0.157910 0.427315
vt 0.099051 0.451373
vt 0.129558 0.467474
vt 0.151252 0.193416
vt 0.151847 0.278368
vt 0.102262 0.286063
vt 0.126098 0.334021
vt 0.081020 0.387299
vt 0.039897 0.306459
vt 0.197678 0.186548
vt 0.200880 0.285765
vt 0.244161 0.184881
vt 0.262795 0.304599
vt 0.180593 0.333833
vt 0.228618 0.385979
vt 0.220501 0.392756
vt 0.153118 0.326906
vt 0.088779 0.394360
vt 0.133338 0.346873
vt 0.136811 0.358146
vt 0.152181 0.342017
vt 0.174450 0.345801
vt 0.170722 0.357254
vt 0.169088 0.369921
vt 0.153238 0.368809
vt 0.210465 0.394008
vt 0.152633 0.355172
vt 0.193093 0.403468
vt 0.180346 0.411984
vt 0.167187 0.389762
vt 0.200904 0.396243
vt 0.098850 0.398009
vt 0.138721 0.371077
vt 0.142808 0.392574
vt 0.155618 0.393581
vt 0.157217 0.413626
vt 0.154019 0.380831
vt 0.117555 0.410047
vt 0.139053 0.380785
vt 0.169355 0.379093
vt 0.108765 0.402446
vt 0.132822 0.417868
vt 0.196199 0.093806
vt 0.150860 0.102293
vt 0.059097 0.089913
vt 0.923280 0.745751
vt 0.785603 0.825175
vt 0.739747 0.745687
vt 0.656621 0.252213
vt 0.592919 0.114048
vt 0.377692 0.100696
vt 0.096016 0.082760
vt 0.242335 0.089913
vn 0.007100 0.305100 -0.952300
vn 0.000000 -0.012000 -0.999900
vn 0.964900 0.215100 -0.150900
vn 0.986300 0.148700 0.071900
vn -0.004500 -0.059000 0.998200
vn 0.005000 0.198600 0.980100
vn -0.980500 0.169900 0.099000
vn -0.999600 -0.010600 -0.025700
vn 0.004300 0.341200 -0.940000
vn -0.951700 0.249200 -0.179500
vn -0.681500 0.727200 -0.082100
vn 0.031500 0.992900 -0.114700
vn 0.799500 -0.384200 -0.461600
vn -0.799500 -0.384200 0.461600
vn -0.799500 -0.384200 -0.461600
vn -0.692400 0.607000 0.390000
vn -0.692400 0.607000 -0.390000
vn -0.718400 0.694000 0.048200
vn 0.000000 0.329200 -0.944300
vn 0.000000 0.329200 0.944300
vn 0.799500 -0.384200 0.461600
vn 0.660800 0.657800 0.361600
vn 0.678600 0.734300 0.014900
vn 0.660800 0.657800 -0.361600
vn 0.646900 0.761400 -0.042500
vn -0.995100 -0.084100 0.052700
vn 0.000000 -0.372900 -0.927900
vn -0.004300 -0.222500 -0.974900
vn 0.995300 -0.093400 0.024800
vn -0.000000 0.280500 0.959900
vn 0.995100 -0.084100 0.052700
vn 0.989600 -0.015400 -0.142900
vn 0.053700 -0.214800 0.975200
vn -0.003700 0.119900 0.992800
vn -0.996300 -0.083300 0.021900
vn -0.994600 -0.073800 -0.072900
vn 0.011300 -0.549400 0.835500
vn -0.028200 0.236900 -0.971100
vn 0.968700 0.229200 0.095400
vn 0.849100 0.045700 0.526300
vn -0.046000 0.886100 -0.461200
vn -0.974800 0.184200 0.125900
vn -0.907000 0.027300 0.420200
vn -0.840700 -0.398700 0.366500
vn -0.047100 0.298700 0.953200
vn -0.100800 -0.871200 0.480400
vn -0.067100 0.906200 0.417600
vn 0.044700 -0.247600 -0.967800
vn 0.032200 -0.159200 -0.986700
vn -0.828000 -0.543200 -0.139200
vn -0.010400 -0.898300 -0.439200
vn 0.802200 -0.395100 0.447600
vn 0.795100 -0.601600 -0.077200
vn -0.070400 -0.887300 0.455900
vn -0.006300 -0.837700 -0.546000
vn -0.045600 -0.370300 0.927800
vn 0.858100 -0.507500 -0.077900
vn -0.872800 -0.462000 -0.157600
vn 0.002200 -0.354400 0.935100
vn 0.004900 -0.265100 0.964200
vn -0.987400 -0.155200 -0.032500
vn -0.988300 -0.039700 0.147100
vn -0.053700 -0.238800 -0.969600
vn 0.005500 0.072000 -0.997400
vn 0.999200 -0.027500 -0.029100
vn 0.988900 -0.146100 -0.028500
vn 0.992000 -0.100300 0.076700
vn -0.011300 -0.549400 -0.835500
vn 0.028000 0.222400 0.974600
vn -0.968700 0.229200 -0.095400
vn -0.849100 0.045700 -0.526300
vn 0.046000 0.886100 0.461200
vn 0.974800 0.184200 -0.125900
vn 0.907000 0.027300 -0.420200
vn 0.840700 -0.398700 -0.366500
vn 0.047100 0.298700 -0.953200
vn 0.100800 -0.871200 -0.480400
vn 0.067100 0.906200 -0.417600
vn -0.044000 -0.272900 0.961000
vn -0.014300 -0.291900 0.956300
vn 0.801500 -0.575500 0.162300
vn 0.010400 -0.898300 0.439200
vn -0.802200 -0.395100 -0.447600
vn -0.769200 -0.630600 0.103500
vn 0.071000 -0.802400 -0.592500
vn 0.012600 -0.949300 0.314000
vn 0.045200 -0.364400 -0.930200
vn -0.858100 -0.507500 0.077900
vn 0.872800 -0.462000 0.157600
vn 0.000000 -0.384200 -0.923200
vn -0.000000 -0.384200 0.923200
usemtl Material.029
s 1
f 1/1/1 2/2/2 3/3/3
f 6/4/4 7/5/5 8/6/6
f 8/6/6 7/5/5 9/7/7
f 9/8/7 11/9/8 12/10/9
f 15/11/10 2/2/2 1/1/1
f 14/12/11 13/13/12 15/11/10
f 17/14/13 20/15/14 21/16/15
f 22/17/16 23/18/17 21/19/15
f 22/17/16 10/20/18 14/12/11
f 21/19/15 23/18/17 24/21/19
f 23/18/17 14/12/11 1/1/1
f 25/22/20 22/23/16 20/24/14
f 8/6/6 10/25/18 22/23/16
f 18/26/21 26/27/22 25/22/20
f 26/27/22 5/28/23 8/6/6
f 27/29/24 26/27/22 18/26/21
f 4/30/25 5/28/23 26/27/22
f 24/21/19 27/29/24 17/31/13
f 1/1/1 4/30/25 27/29/24
f 10/25/18 9/7/7 13/32/12
f 2/33/2 15/34/10 28/35/26
f 3/3/3 13/36/12 4/30/25
f 29/37/27 31/38/28 32/39/29
f 15/34/10 13/40/12 33/41/30
f 3/42/3 30/43/31 33/44/30
f 2/33/2 29/37/27 30/43/31
f 32/39/29 35/45/32 36/46/33
f 30/43/31 32/39/29 34/47/34
f 29/37/27 28/35/26 37/48/35
f 28/35/26 33/41/30 34/49/34
f 38/50/36 36/51/33 39/52/37
f 31/38/28 37/48/35 38/50/36
f 37/48/35 34/49/34 36/51/33
f 31/38/28 41/53/38 35/45/32
f 39/54/37 42/55/39 43/56/40
f 35/45/32 41/53/38 45/57/41
f 35/45/32 42/55/39 39/54/37
f 41/53/38 38/50/36 40/58/42
f 47/59/43 48/60/44 49/61/45
f 45/57/41 40/58/42 47/59/43
f 40/58/42 39/52/37 44/62/46
f 42/55/39 45/57/41 46/63/47
f 51/64/48 52/65/49 53/66/50
f 44/62/46 54/67/51 48/60/44
f 43/56/40 46/63/47 49/61/45
f 44/68/46 43/56/40 55/69/52
f 56/70/53 57/71/54 58/72/55
f 60/73/56 57/71/54 56/70/53
f 51/74/48 59/75/57 56/70/53
f 60/73/56 50/76/58 53/66/50
f 48/60/44 50/76/58 60/73/56
f 54/77/51 55/69/52 59/75/57
f 55/69/52 49/61/45 60/73/56
f 54/67/51 51/64/48 50/76/58
f 57/71/54 53/66/50 58/72/55
f 52/78/49 56/70/53 58/72/55
f 53/66/50 52/65/49 58/72/55
f 61/79/59 62/80/60 63/81/61
f 63/81/61 65/82/62 66/83/63
f 11/9/8 63/81/61 64/84/64
f 61/79/59 67/85/65 68/86/66
f 67/85/65 12/87/9 64/88/64
f 69/89/67 66/90/63 70/91/68
f 62/80/60 68/86/66 69/89/67
f 68/86/66 64/88/64 66/90/63
f 62/80/60 72/92/69 65/82/62
f 70/93/68 73/94/70 74/95/71
f 65/82/62 72/92/69 76/96/72
f 65/82/62 73/94/70 70/93/68
f 72/92/69 69/89/67 71/97/73
f 78/98/74 79/99/75 80/100/76
f 76/96/72 71/97/73 78/98/74
f 71/97/73 70/91/68 75/101/77
f 73/94/70 76/96/72 77/102/78
f 82/103/79 83/104/80 84/105/81
f 75/101/77 85/106/82 79/99/75
f 74/95/71 77/102/78 80/100/76
f 75/107/77 74/95/71 86/108/83
f 87/109/84 88/110/85 89/111/86
f 91/112/87 88/110/85 87/109/84
f 82/113/79 90/114/88 87/109/84
f 91/112/87 81/115/89 84/105/81
f 79/99/75 81/115/89 91/112/87
f 85/116/82 86/108/83 90/114/88
f 86/108/83 80/100/76 91/112/87
f 85/106/82 82/103/79 81/115/89
f 88/110/85 84/105/81 89/111/86
f 83/117/80 87/109/84 89/111/86
f 84/105/81 83/104/80 89/111/86
f 12/87/9 67/85/65 6/118/4
f 7/119/5 6/118/4 67/85/65
f 11/9/8 9/8/7 7/119/5
f 5/28/23 4/30/25 13/36/12
f 14/12/11 10/20/18 13/13/12
f 6/4/4 5/28/23 13/36/12
f 4/30/25 1/1/1 3/3/3
f 5/28/23 6/4/4 8/6/6
f 10/25/18 8/6/6 9/7/7
f 13/120/12 9/8/7 12/10/9
f 14/12/11 15/11/10 1/1/1
f 21/16/15 16/121/90 17/14/13
f 17/14/13 18/122/21 19/123/91
f 19/123/91 20/15/14 17/14/13
f 20/124/14 22/17/16 21/19/15
f 23/18/17 22/17/16 14/12/11
f 16/125/90 21/19/15 24/21/19
f 24/21/19 23/18/17 1/1/1
f 19/126/91 25/22/20 20/24/14
f 25/22/20 8/6/6 22/23/16
f 19/126/91 18/26/21 25/22/20
f 25/22/20 26/27/22 8/6/6
f 17/31/13 27/29/24 18/26/21
f 27/29/24 4/30/25 26/27/22
f 16/125/90 24/21/19 17/31/13
f 24/21/19 1/1/1 27/29/24
f 29/37/27 2/33/2 28/35/26
f 30/43/31 29/37/27 32/39/29
f 28/35/26 15/34/10 33/41/30
f 13/127/12 3/42/3 33/44/30
f 3/42/3 2/33/2 30/43/31
f 34/47/34 32/39/29 36/46/33
f 33/44/30 30/43/31 34/47/34
f 31/38/28 29/37/27 37/48/35
f 37/48/35 28/35/26 34/49/34
f 40/58/42 38/50/36 39/52/37
f 41/53/38 31/38/28 38/50/36
f 38/50/36 37/48/35 36/51/33
f 32/39/29 31/38/28 35/45/32
f 44/68/46 39/54/37 43/56/40
f 42/55/39 35/45/32 45/57/41
f 36/46/33 35/45/32 39/54/37
f 45/57/41 41/53/38 40/58/42
f 46/63/47 47/59/43 49/61/45
f 46/63/47 45/57/41 47/59/43
f 47/59/43 40/58/42 44/62/46
f 43/56/40 42/55/39 46/63/47
f 50/76/58 51/64/48 53/66/50
f 47/59/43 44/62/46 48/60/44
f 55/69/52 43/56/40 49/61/45
f 54/77/51 44/68/46 55/69/52
f 59/75/57 60/73/56 56/70/53
f 52/78/49 51/74/48 56/70/53
f 57/71/54 60/73/56 53/66/50
f 49/61/45 48/60/44 60/73/56
f 51/74/48 54/77/51 59/75/57
f 59/75/57 55/69/52 60/73/56
f 48/60/44 54/67/51 50/76/58
f 11/9/8 61/79/59 63/81/61
f 64/84/64 63/81/61 66/83/63
f 12/10/9 11/9/8 64/84/64
f 62/80/60 61/79/59 68/86/66
f 68/86/66 67/85/65 64/88/64
f 71/97/73 69/89/67 70/91/68
f 72/92/69 62/80/60 69/89/67
f 69/89/67 68/86/66 66/90/63
f 63/81/61 62/80/60 65/82/62
f 75/107/77 70/93/68 74/95/71
f 73/94/70 65/82/62 76/96/72
f 66/83/63 65/82/62 70/93/68
f 76/96/72 72/92/69 71/97/73
f 77/102/78 78/98/74 80/100/76
f 77/102/78 76/96/72 78/98/74
f 78/98/74 71/97/73 75/101/77
f 74/95/71 73/94/70 77/102/78
f 81/115/89 82/103/79 84/105/81
f 78/98/74 75/101/77 79/99/75
f 86/108/83 74/95/71 80/100/76
f 85/116/82 75/107/77 86/108/83
f 90/114/88 91/112/87 87/109/84
f 83/117/80 82/113/79 87/109/84
f 88/110/85 91/112/87 84/105/81
f 80/100/76 79/99/75 91/112/87
f 82/113/79 85/116/82 90/114/88
f 90/114/88 86/108/83 91/112/87
f 79/99/75 85/106/82 81/115/89
f 13/128/12 12/87/9 6/118/4
f 61/79/59 7/119/5 67/85/65
f 61/79/59 11/9/8 7/119/5
