# Blender v2.71 (sub 0) OBJ File: ''
# www.blender.org
mtllib BackRightLeg.mtl
o BackRightLeg
v 0.243238 3.419647 -2.554739
v -0.029230 2.962546 -3.886693
v -0.189063 3.471200 -2.533129
v -0.189063 3.471200 -2.019689
v -0.029230 3.499187 -1.720857
v 0.243238 3.419647 -2.014143
v -0.476127 -11.106421 -4.174996
v -0.476127 -11.106416 -2.700247
v -1.091526 -11.106421 -3.610878
v -1.091526 -11.106410 -2.531752
v -1.795750 -11.106374 -3.286560
v -1.336204 1.301343 -1.360296
v -1.336204 0.936903 -2.786949
v -0.918875 1.360377 0.158849
v -1.145944 -2.145652 0.220183
v -1.385249 -2.150460 -1.390819
v -1.364947 -4.184340 -2.701379
v -0.507494 -4.184340 -1.798595
v -1.385249 -2.150460 -2.746583
v -1.078740 -4.180007 -4.194099
v -0.507494 -4.180005 -4.418273
v -1.001462 -2.150458 -4.105844
v -0.848706 0.572464 -4.618293
v 0.876698 0.819682 -0.700559
v 0.934388 -2.145652 0.220183
v 0.253731 2.111244 0.101345
v 0.269172 -4.184340 -1.798595
v 0.253731 2.111244 -1.285262
v 0.596681 2.111245 -3.522254
v 0.596681 2.111244 -2.190300
v 1.044201 0.572464 -4.459920
v 1.128139 -2.150458 -4.136785
v 0.507777 -4.180007 -4.226264
v 1.446720 1.703565 -2.177763
v 1.158664 1.703565 -0.213273
v 1.221965 -2.150460 -0.860560
v 1.489275 -2.150458 -3.732902
v 0.529439 -4.184340 -2.385192
v 0.718304 -4.184340 -3.742550
v -1.364947 -4.647313 -3.185080
v -0.294483 -4.848701 -2.797197
v -1.364335 -4.647316 -4.655154
v -0.293871 -4.647384 -4.886365
v 0.454817 -4.848701 -2.800399
v 0.455429 -4.647384 -4.676507
v 0.454817 -4.848711 -3.566254
v 0.454817 -4.647367 -4.380479
v -1.222548 -5.209146 -3.722884
v -0.412541 -5.209176 -2.976958
v -1.222548 -5.209146 -4.683347
v -0.412541 -5.209195 -4.846193
v 0.130916 -5.209176 -2.968147
v 0.130915 -5.209195 -4.694367
v 0.130916 -5.209179 -3.143255
v 0.130916 -5.209186 -4.197715
v -1.771891 -8.296349 -3.568135
v -0.665818 -8.296353 -2.905850
v -1.771891 -8.296349 -4.329599
v -1.017348 -8.296350 -4.453983
v -0.381875 -8.296353 -2.903839
v -0.405282 -8.296350 -4.335259
v -0.405282 -8.296350 -3.053643
v -0.405282 -8.296350 -3.965446
v -0.476127 -9.770877 -4.619608
v -1.091526 -9.770877 -4.748581
v -0.496251 -9.738297 -4.599066
v -1.092138 -9.738297 -4.724896
v -0.496251 -9.738283 -4.220943
v -0.476127 -9.770863 -4.233572
v -1.795750 -9.770823 -4.614781
v -1.795750 -9.770818 -3.790322
v -1.774033 -9.738244 -4.594359
v -1.774033 -9.738240 -3.788500
v -0.476127 -9.770857 -3.204009
v -0.496251 -9.738278 -3.216476
v -0.476127 -9.770852 -3.035515
v -0.465641 -9.738273 -3.052087
v -1.091526 -9.770852 -3.035515
v -0.632439 -9.738273 -3.052087
v -1.795750 -11.106380 -4.556207
v -0.476127 -11.106410 -2.531752
v -1.091526 -11.106432 -4.690005
v -0.476127 -11.106432 -4.561032
v -0.384304 -9.414292 -4.421548
v -1.237798 -9.414292 -4.568587
v -0.384304 -9.414276 -3.972998
v -0.384304 -9.414273 -2.799218
v -0.343373 -9.414267 -2.607119
v -0.623096 -9.414267 -2.607119
v -2.234103 -9.414227 -3.467659
v -2.234103 -9.414232 -4.416048
vt 0.163774 0.679575
vt 0.204783 0.662528
vt 0.171597 0.665774
vt 0.162961 0.653033
vt 0.152287 0.641824
vt 0.153114 0.660209
vt 0.214057 0.331894
vt 0.243845 0.306653
vt 0.218001 0.297171
vt 0.248225 0.288723
vt 0.224891 0.277215
vt 0.178476 0.605460
vt 0.202951 0.611852
vt 0.160945 0.602066
vt 0.159798 0.564164
vt 0.183105 0.558021
vt 0.198511 0.514228
vt 0.156444 0.520057
vt 0.215510 0.557098
vt 0.252503 0.516523
vt 0.280073 0.532367
vt 0.248209 0.566792
vt 0.218930 0.619293
vt 0.125389 0.603041
vt 0.126767 0.562231
vt 0.134782 0.624349
vt 0.129843 0.521922
vt 0.118671 0.648437
vt 0.229375 0.667159
vt 0.224274 0.699398
vt 0.102222 0.662811
vt 0.255622 0.657115
vt 0.299978 0.603725
vt 0.308606 0.551512
vt 0.077384 0.633449
vt 0.112637 0.618585
vt 0.112356 0.558587
vt 0.049102 0.549191
vt 0.111720 0.511485
vt 0.070143 0.501019
vt 0.258581 0.698279
vt 0.313094 0.614055
vt 0.324428 0.557370
vt 0.219098 0.502238
vt 0.163205 0.499158
vt 0.268177 0.503217
vt 0.291976 0.514765
vt 0.129860 0.497699
vt 0.308889 0.528730
vt 0.101726 0.487320
vt 0.051785 0.481010
vt 0.316575 0.538766
vt 0.193968 0.458269
vt 0.163267 0.462320
vt 0.183297 0.467605
vt 0.159724 0.482701
vt 0.220803 0.456607
vt 0.220124 0.462686
vt 0.240500 0.458334
vt 0.242534 0.464869
vt 0.145608 0.462594
vt 0.142768 0.486753
vt 0.260731 0.468754
vt 0.258111 0.460102
vt 0.140474 0.460775
vt 0.110352 0.452967
vt 0.139626 0.469538
vt 0.105801 0.460873
vt 0.271897 0.457962
vt 0.271191 0.466992
vt 0.195474 0.390595
vt 0.160461 0.394381
vt 0.216123 0.389576
vt 0.235914 0.390966
vt 0.151803 0.395634
vt 0.253351 0.392165
vt 0.148021 0.394192
vt 0.123653 0.388462
vt 0.263358 0.390855
vt 0.250983 0.357378
vt 0.233632 0.356481
vt 0.250969 0.358177
vt 0.233619 0.357262
vt 0.259086 0.357282
vt 0.259114 0.356524
vt 0.213758 0.355249
vt 0.196207 0.355984
vt 0.213782 0.356041
vt 0.196227 0.356738
vt 0.151566 0.360063
vt 0.130545 0.355469
vt 0.151797 0.360880
vt 0.130308 0.356190
vt 0.155289 0.360892
vt 0.154903 0.362135
vt 0.171024 0.354405
vt 0.159058 0.360391
vt 0.268537 0.263906
vt 0.215900 0.239804
vt 0.200978 0.281691
vt 0.177270 0.252959
vt 0.247318 0.301158
vt 0.283133 0.301419
vt 0.195733 0.305618
vt 0.154504 0.290808
vt 0.203727 0.329204
vt 0.152203 0.328240
vt 0.282963 0.308770
vt 0.268486 0.349460
vt 0.155530 0.344757
vt 0.251451 0.365063
vt 0.234084 0.364091
vt 0.259951 0.364084
vt 0.151032 0.367630
vt 0.128959 0.362729
vt 0.154275 0.368923
vt 0.159342 0.367278
vt 0.196075 0.363598
vt 0.214256 0.362836
vn 0.094500 0.935500 -0.340400
vn 0.118900 0.980700 -0.155500
vn 0.000000 -1.000000 0.000000
vn -0.000100 -1.000000 0.000000
vn -0.628700 0.765200 0.138600
vn -0.628900 0.771100 -0.100000
vn -0.955800 0.276400 0.100200
vn -0.963200 0.209600 -0.167900
vn -0.488600 0.228800 0.841900
vn -0.569100 -0.269100 0.777000
vn -0.980800 -0.145500 0.129500
vn -0.881300 -0.375500 0.286700
vn -0.341600 -0.716100 0.608600
vn -0.991800 0.009000 -0.127400
vn -0.759800 0.412900 -0.502200
vn -0.053700 0.475400 -0.878100
vn -0.636900 -0.010700 -0.770900
vn -0.028900 0.626700 -0.778700
vn -0.523200 0.179000 -0.833200
vn -0.016800 0.741100 0.671200
vn -0.162800 -0.155400 0.974300
vn 0.546200 -0.221200 0.807900
vn 0.258400 0.466300 0.846000
vn 0.398400 -0.720800 0.567200
vn 0.762000 0.597000 0.250800
vn 0.765500 0.640400 -0.062800
vn 0.777100 0.614500 0.135500
vn 0.734200 0.445200 -0.512500
vn 0.746100 0.652500 0.132200
vn 0.581100 0.228100 -0.781200
vn 0.457500 -0.133200 -0.879100
vn 0.668100 0.140200 -0.730700
vn 0.854500 0.519200 -0.013700
vn 0.655000 0.292900 0.696500
vn 0.952300 -0.222100 0.209100
vn 0.941100 -0.176200 -0.288700
vn 0.899600 -0.368200 0.234600
vn 0.945200 -0.305400 -0.115600
vn -0.899000 -0.297700 0.321200
vn -0.191900 -0.633000 0.750000
vn -0.766500 0.264400 -0.585200
vn 0.062400 0.332100 -0.941200
vn 0.723800 -0.581900 0.370800
vn 0.766600 0.074400 -0.637700
vn 0.868100 -0.496200 -0.007500
vn 0.940400 -0.331000 -0.077700
vn -0.930500 -0.160200 0.329300
vn -0.327200 -0.221800 0.918500
vn -0.717600 -0.057000 -0.694100
vn 0.032000 -0.100500 -0.994400
vn 0.571600 -0.480600 0.665000
vn 0.710200 -0.288000 -0.642300
vn 0.899600 -0.436800 0.000000
vn 0.929800 -0.367000 -0.025500
vn -0.823000 0.273900 0.497600
vn -0.291300 0.160500 0.943100
vn -0.733600 0.211600 -0.645700
vn 0.010400 -0.009300 -0.999900
vn 0.769100 0.037800 0.637900
vn 0.773800 -0.079800 -0.628300
vn 0.994100 -0.082500 -0.070600
vn 0.997000 -0.076500 0.000000
vn 0.730400 0.300100 -0.613500
vn 0.009500 0.277900 -0.960600
vn 0.626100 0.505100 -0.593900
vn 0.026000 0.526000 -0.850000
vn 0.993900 0.110100 0.000000
vn 0.961900 0.273100 0.000000
vn -0.725100 0.306900 -0.616500
vn -0.906500 0.308800 0.287900
vn -0.572700 0.386700 -0.722800
vn -0.858200 -0.273100 0.434600
vn 0.971600 0.231900 -0.045900
vn 0.991300 0.119900 -0.054400
vn 0.673400 0.235900 0.700600
vn 0.885500 -0.313600 0.342800
vn -0.312600 0.703000 0.638700
vn -0.155300 -0.159700 0.974900
vn -0.356000 -0.264800 0.896200
vn -0.874700 -0.238200 0.422200
vn -0.624400 -0.598100 -0.502400
vn 0.560700 -0.471000 0.681000
vn 0.006900 -0.681600 -0.731600
vn 0.628400 -0.599100 -0.496100
vn 0.776700 -0.629800 0.000000
vn 0.805300 -0.592800 0.000000
vn 0.831200 -0.002100 -0.556000
vn -0.025500 0.261500 -0.964800
vn 0.987700 -0.156300 0.000000
vn 0.987500 -0.071600 -0.140300
vn 0.678400 -0.280600 0.678900
vn -0.227700 -0.310600 0.922800
vn -0.834300 -0.273200 0.478800
vn -0.828100 -0.183200 -0.529800
usemtl lambert5SG.001
s off
f 1/1/1 2/2/1 3/3/1
f 4/4/2 5/5/2 6/6/2
f 7/7/3 8/8/3 9/9/3
f 9/9/4 10/10/4 11/11/4
s 1
f 4/4/5 3/3/6 12/12/7
f 12/12/7 3/3/6 13/13/8
f 14/14/9 12/12/7 15/15/10
f 15/15/10 12/12/7 16/16/11
f 17/17/12 18/18/13 16/16/11
f 16/16/11 18/18/13 15/15/10
f 19/19/14 16/16/11 13/13/8
f 13/13/8 16/16/11 12/12/7
f 20/20/15 17/17/12 19/19/14
f 19/19/14 17/17/12 16/16/11
f 21/21/16 20/20/15 22/22/17
f 22/22/17 20/20/15 19/19/14
f 3/3/6 2/2/18 13/13/8
f 13/13/8 2/2/18 23/23/19
f 13/13/8 23/23/19 19/19/14
f 19/19/14 23/23/19 22/22/17
f 14/14/9 5/5/20 12/12/7
f 5/5/20 4/4/5 12/12/7
f 14/14/9 15/15/10 24/24/21
f 24/24/21 15/15/10 25/25/22
f 24/24/21 26/26/23 14/14/9
f 14/14/9 26/26/23 5/5/20
f 18/18/13 27/27/24 15/15/10
f 15/15/10 27/27/24 25/25/22
f 4/4/5 6/6/25 3/3/6
f 6/6/25 1/1/26 3/3/6
f 26/26/23 28/28/27 5/5/20
f 5/5/20 28/28/27 6/6/25
f 2/2/18 1/1/26 29/29/28
f 29/29/28 1/1/26 30/30/29
f 1/1/26 6/6/25 30/31/29
f 30/31/29 6/6/25 28/28/27
f 2/2/18 29/29/28 23/23/19
f 23/23/19 29/29/28 31/32/30
f 31/32/30 32/33/31 23/23/19
f 23/23/19 32/33/31 22/22/17
f 32/33/31 33/34/32 22/22/17
f 22/22/17 33/34/32 21/21/16
f 30/31/29 28/28/27 34/35/33
f 34/35/33 28/28/27 35/36/34
f 35/36/34 36/37/35 34/35/33
f 34/35/33 36/37/35 37/38/36
f 36/37/35 38/39/37 37/38/36
f 37/38/36 38/39/37 39/40/38
f 25/25/22 27/27/24 36/37/35
f 36/37/35 27/27/24 38/39/37
f 25/25/22 36/37/35 24/24/21
f 35/36/34 24/24/21 36/37/35
f 24/24/21 35/36/34 26/26/23
f 26/26/23 35/36/34 28/28/27
f 31/32/30 29/29/28 34/41/33
f 34/41/33 29/29/28 30/30/29
f 32/33/31 31/32/30 37/42/36
f 37/42/36 31/32/30 34/41/33
f 33/34/32 32/33/31 39/43/38
f 39/43/38 32/33/31 37/42/36
f 40/44/39 41/45/40 17/17/12
f 17/17/12 41/45/40 18/18/13
f 42/46/41 40/44/39 20/20/15
f 20/20/15 40/44/39 17/17/12
f 43/47/42 42/46/41 21/21/16
f 21/21/16 42/46/41 20/20/15
f 18/18/13 41/45/40 27/27/24
f 27/27/24 41/45/40 44/48/43
f 33/34/32 45/49/44 21/21/16
f 21/21/16 45/49/44 43/47/42
f 38/39/37 46/50/45 39/40/38
f 39/40/38 46/50/45 47/51/46
f 27/27/24 44/48/43 38/39/37
f 38/39/37 44/48/43 46/50/45
f 39/43/38 47/52/46 33/34/32
f 33/34/32 47/52/46 45/49/44
f 48/53/47 49/54/48 40/55/39
f 40/55/39 49/54/48 41/56/40
f 50/57/49 48/53/47 42/58/41
f 42/58/41 48/53/47 40/55/39
f 51/59/50 50/57/49 43/60/42
f 43/60/42 50/57/49 42/58/41
f 49/54/48 52/61/51 41/56/40
f 41/56/40 52/61/51 44/62/43
f 45/63/44 53/64/52 43/60/42
f 43/60/42 53/64/52 51/59/50
f 54/65/53 55/66/54 46/67/45
f 46/67/45 55/66/54 47/68/46
f 52/61/51 54/65/53 44/62/43
f 44/62/43 54/65/53 46/67/45
f 55/69/54 53/64/52 47/70/46
f 47/70/46 53/64/52 45/63/44
f 56/71/55 57/72/56 48/53/47
f 48/53/47 57/72/56 49/54/48
f 50/57/49 58/73/57 48/53/47
f 48/53/47 58/73/57 56/71/55
f 51/59/50 59/74/58 50/57/49
f 50/57/49 59/74/58 58/73/57
f 57/72/56 60/75/59 49/54/48
f 49/54/48 60/75/59 52/61/51
f 53/64/52 61/76/60 51/59/50
f 51/59/50 61/76/60 59/74/58
f 62/77/61 63/78/62 54/65/53
f 54/65/53 63/78/62 55/66/54
f 60/75/59 62/77/61 52/61/51
f 52/61/51 62/77/61 54/65/53
f 63/79/62 61/76/60 55/69/54
f 55/69/54 61/76/60 53/64/52
f 64/80/63 65/81/64 66/82/65
f 66/82/65 65/81/64 67/83/66
f 68/84/67 69/85/68 66/82/65
f 66/82/65 69/85/68 64/80/63
f 70/86/69 71/87/70 72/88/71
f 72/88/71 71/87/70 73/89/72
f 74/90/73 69/91/68 75/92/74
f 75/92/74 69/91/68 68/93/67
f 76/94/75 74/90/73 77/95/76
f 77/95/76 74/90/73 75/92/74
f 78/96/77 76/94/75 79/97/78
f 79/97/78 76/94/75 77/95/76
f 71/87/70 78/96/77 73/89/72
f 73/89/72 78/96/77 79/97/78
f 10/10/79 78/98/77 11/11/80
f 11/11/80 78/98/77 71/99/70
f 11/11/80 71/99/70 80/100/81
f 80/100/81 71/99/70 70/101/69
f 81/102/82 76/103/75 10/10/79
f 10/10/79 76/103/75 78/98/77
f 67/83/66 65/81/64 72/88/71
f 72/88/71 65/81/64 70/86/69
f 80/100/81 70/101/69 82/104/83
f 82/104/83 70/101/69 65/105/64
f 83/106/84 82/104/83 64/107/63
f 64/107/63 82/104/83 65/105/64
f 8/8/85 7/7/86 74/108/73
f 74/108/73 7/7/86 69/109/68
f 81/102/82 8/8/85 76/103/75
f 76/103/75 8/8/85 74/108/73
f 7/7/86 83/106/84 69/110/68
f 69/110/68 83/106/84 64/107/63
f 11/11/80 80/100/81 9/9/3
f 9/9/3 80/100/81 82/104/83
f 9/9/3 8/8/85 10/10/79
f 10/10/79 8/8/85 81/102/82
f 83/106/84 7/7/86 82/104/83
f 82/104/83 7/7/86 9/9/3
f 84/111/87 66/82/65 85/112/88
f 85/112/88 66/82/65 67/83/66
f 86/113/89 68/84/67 84/111/87
f 84/111/87 68/84/67 66/82/65
f 87/114/90 75/92/74 86/115/89
f 86/115/89 75/92/74 68/93/67
f 88/116/91 77/95/76 87/114/90
f 87/114/90 77/95/76 75/92/74
f 79/97/78 77/95/76 89/117/92
f 89/117/92 77/95/76 88/116/91
f 90/118/93 73/89/72 89/117/92
f 89/117/92 73/89/72 79/97/78
f 72/88/71 73/89/72 91/119/94
f 91/119/94 73/89/72 90/118/93
f 67/83/66 72/88/71 85/112/88
f 85/112/88 72/88/71 91/119/94
f 87/114/90 86/115/89 62/77/61
f 62/77/61 86/115/89 63/78/62
f 63/79/62 86/113/89 61/76/60
f 61/76/60 86/113/89 84/111/87
f 61/76/60 84/111/87 59/74/58
f 59/74/58 84/111/87 85/112/88
f 59/74/58 85/112/88 58/73/57
f 58/73/57 85/112/88 91/119/94
f 58/73/57 91/119/94 56/71/55
f 56/71/55 91/119/94 90/118/93
f 57/72/56 56/71/55 89/117/92
f 89/117/92 56/71/55 90/118/93
f 57/72/56 89/117/92 60/75/59
f 60/75/59 89/117/92 88/116/91
f 62/77/61 60/75/59 87/114/90
f 87/114/90 60/75/59 88/116/91
