# Blender v2.71 (sub 0) OBJ File: ''
# www.blender.org
mtllib FrontRightLeg.mtl
o FrontRightLeg
v 1.380476 -1.672700 1.420366
v -1.473860 -1.951779 1.041044
v 1.292513 -3.831375 0.767380
v -1.090637 -4.947104 0.968383
v 1.232231 -0.196291 1.559843
v 1.387555 0.604324 -2.270026
v -0.179664 0.362401 1.559843
v -1.114586 0.003958 -2.270026
v 1.680997 -1.672700 -2.409506
v 1.593326 -3.831375 -1.925265
v -1.473860 -1.951779 -2.409506
v -1.090637 -4.947103 -1.948877
v 1.285956 -6.283711 -1.240603
v -0.673263 -6.273878 -1.240603
v -0.673263 -6.273878 1.004905
v 1.285956 -6.283711 1.004905
v -1.325535 -0.774390 1.420366
v 1.314631 -0.962159 1.420366
v -1.311699 -1.436329 -2.409506
v 1.415636 0.191049 -2.409506
v 1.595363 -7.115057 -1.561401
v -0.324989 -7.104946 -1.561401
v -1.009611 -7.104947 1.044926
v 1.514583 -7.115058 1.044926
v 1.317303 -8.311764 -0.984325
v -0.500463 -8.301933 -0.984325
v -0.500463 -8.301933 0.890819
v 1.317303 -8.311764 0.890819
v 0.893712 -8.840757 -0.654061
v -0.385614 -8.831436 -0.654061
v -0.385614 -8.831436 0.843754
v 0.893712 -8.840757 0.843754
v 0.915106 -11.773063 -0.949467
v 0.725961 -11.809131 -0.743747
v -0.960872 -11.764301 -0.949467
v -0.771726 -11.802135 -1.029021
v -0.771726 -11.802135 1.129565
v -0.960872 -11.764301 1.406027
v 0.915106 -11.773063 1.406027
v 0.725961 -11.809131 1.129565
v 0.725961 -12.336721 -1.029022
v -0.771726 -12.329727 -1.029022
v -0.771726 -12.329727 1.129564
v 0.725961 -12.336721 1.129564
v 1.000953 -13.694202 -0.544959
v -1.046718 -13.687208 -0.544959
v -1.046718 -13.687208 1.803045
v 1.000953 -13.694202 1.803045
v -0.342624 -10.552853 -0.821349
v -0.342624 -10.552853 1.162164
v 1.049838 -10.553432 -0.821349
v 1.049838 -10.553432 1.162164
vt 0.418624 0.629561
vt 0.468267 0.630009
vt 0.406081 0.596693
vt 0.484668 0.584549
vt 0.427990 0.651401
vt 0.430991 0.718785
vt 0.445017 0.657007
vt 0.454028 0.695031
vt 0.516410 0.745769
vt 0.571248 0.717329
vt 0.503487 0.668506
vt 0.547061 0.638063
vt 0.326638 0.634402
vt 0.360338 0.684494
vt 0.614716 0.677959
vt 0.555152 0.619632
vt 0.488214 0.580022
vt 0.407733 0.553500
vt 0.331147 0.577495
vt 0.453838 0.651422
vt 0.423289 0.646114
vt 0.476255 0.684846
vt 0.437464 0.725773
vt 0.422615 0.720270
vt 0.568110 0.508574
vt 0.524383 0.522171
vt 0.575824 0.533430
vt 0.527607 0.546412
vt 0.479110 0.525541
vt 0.478508 0.549853
vt 0.433346 0.519193
vt 0.427843 0.543193
vt 0.382335 0.528260
vt 0.389743 0.503433
vt 0.553676 0.481833
vt 0.518012 0.494353
vt 0.479275 0.496825
vt 0.441380 0.491819
vt 0.406220 0.478155
vt 0.553313 0.481128
vt 0.517801 0.493664
vt 0.479255 0.496106
vt 0.441692 0.491160
vt 0.406542 0.477437
vt 0.537393 0.450171
vt 0.529078 0.445320
vt 0.508531 0.463432
vt 0.506020 0.456484
vt 0.479848 0.457360
vt 0.478387 0.464538
vt 0.455379 0.462230
vt 0.455802 0.455067
vt 0.420686 0.445913
vt 0.429103 0.442652
vt 0.283130 0.395272
vt 0.295619 0.395835
vt 0.285487 0.350300
vt 0.294650 0.356548
vt 0.335880 0.323183
vt 0.329343 0.334686
vt 0.374454 0.351895
vt 0.364509 0.358264
vt 0.383533 0.404953
vt 0.371282 0.406332
vt 0.334697 0.394813
vt 0.316579 0.361096
vt 0.320131 0.348997
vt 0.363878 0.369582
vt 0.512551 0.476544
vt 0.478763 0.478229
vt 0.544297 0.463597
vt 0.449443 0.474777
vt 0.414552 0.459585
vn 0.643200 -0.112200 0.757400
vn -0.783100 -0.116700 0.610800
vn 0.722200 -0.075100 0.687600
vn -0.699700 -0.138500 0.700900
vn 0.596000 0.349300 0.723000
vn 0.522300 0.730700 -0.439600
vn -0.185900 0.701100 0.688400
vn -0.610300 0.567300 -0.552800
vn 0.734000 -0.039500 -0.678000
vn 0.764700 -0.190300 -0.615600
vn -0.725900 0.005600 -0.687800
vn -0.632700 -0.332700 -0.699200
vn 0.757600 0.126700 -0.640200
vn -0.742900 -0.271600 -0.611800
vn -0.612000 0.059300 0.788600
vn 0.664000 0.136000 0.735300
vn -0.708000 0.193600 0.679100
vn 0.696300 0.026500 0.717200
vn -0.660300 0.162400 -0.733200
vn 0.655900 0.199200 -0.728000
vn 0.695500 0.006900 -0.718500
vn -0.476300 -0.077900 -0.875800
vn -0.787200 -0.029400 0.616000
vn 0.728000 0.013300 0.685400
vn 0.643500 -0.541300 -0.541100
vn -0.665500 -0.392700 -0.634700
vn -0.644100 -0.288800 0.708400
vn 0.685700 -0.365100 0.629700
vn 0.621800 -0.402400 -0.671900
vn -0.752000 -0.255900 -0.607400
vn -0.713800 -0.058000 0.697900
vn 0.609100 -0.152800 0.778200
vn 0.556100 -0.539300 -0.632300
vn 0.558100 -0.755400 -0.343300
vn -0.746500 -0.333800 -0.575600
vn -0.500100 0.453000 -0.738000
vn -0.384500 -0.857100 0.342900
vn -0.695000 -0.362300 0.621000
vn 0.548800 -0.515300 0.658200
vn 0.377300 -0.859300 0.345300
vn 0.625700 0.062300 -0.777600
vn -0.650800 -0.080400 -0.754900
vn -0.727000 0.241000 0.642900
vn 0.727700 0.241700 0.641900
vn 0.662700 -0.589200 -0.462200
vn -0.664600 -0.587100 -0.462200
vn -0.604900 -0.401400 0.687700
vn 0.603800 -0.404200 0.687100
vn -0.616100 0.226900 -0.754200
vn -0.607500 0.299500 0.735700
vn 0.729500 0.057400 -0.681500
vn 0.730700 0.114000 0.673100
usemtl lambert5SG.005
s 1
f 1/1/1 2/2/2 3/3/3
f 3/3/3 2/2/2 4/4/4
f 5/5/5 6/6/6 7/7/7
f 7/7/7 6/6/6 8/8/8
f 9/9/9 10/10/10 11/11/11
f 11/11/11 10/10/10 12/12/12
f 4/4/4 2/2/2 12/12/12
f 12/12/12 2/2/2 11/11/11
f 10/13/10 9/14/9 3/3/3
f 9/14/9 1/1/1 3/3/3
f 10/10/10 13/15/13 12/12/12
f 12/12/12 13/15/13 14/16/14
f 12/12/12 14/16/14 4/4/4
f 4/4/4 14/16/14 15/17/15
f 15/17/15 16/18/16 4/4/4
f 4/4/4 16/18/16 3/3/3
f 16/18/16 13/19/13 3/3/3
f 3/3/3 13/19/13 10/13/10
f 17/20/17 1/1/1 18/21/18
f 1/1/1 17/20/17 2/2/2
f 17/20/17 19/22/19 2/2/2
f 2/2/2 19/22/19 11/11/11
f 11/11/11 19/22/19 9/9/9
f 9/9/9 19/22/19 20/23/20
f 20/24/20 18/21/18 9/14/9
f 18/21/18 1/1/1 9/14/9
f 5/5/5 7/7/7 18/21/18
f 18/21/18 7/7/7 17/20/17
f 7/7/7 8/8/8 17/20/17
f 17/20/17 8/8/8 19/22/19
f 19/22/19 8/8/8 20/23/20
f 20/23/20 8/8/8 6/6/6
f 6/6/6 5/5/5 20/24/20
f 20/24/20 5/5/5 18/21/18
f 21/25/21 22/26/22 13/27/13
f 13/27/13 22/26/22 14/28/14
f 22/26/22 23/29/23 14/28/14
f 14/28/14 23/29/23 15/30/15
f 23/29/23 24/31/24 15/30/15
f 15/30/15 24/31/24 16/32/16
f 16/32/16 24/31/24 13/33/13
f 13/33/13 24/31/24 21/34/21
f 21/25/21 25/35/25 22/26/22
f 22/26/22 25/35/25 26/36/26
f 22/26/22 26/36/26 23/29/23
f 23/29/23 26/36/26 27/37/27
f 23/29/23 27/37/27 24/31/24
f 24/31/24 27/37/27 28/38/28
f 28/38/28 25/39/25 24/31/24
f 24/31/24 25/39/25 21/34/21
f 25/35/25 29/40/29 26/36/26
f 26/36/26 29/40/29 30/41/30
f 26/36/26 30/41/30 27/37/27
f 27/37/27 30/41/30 31/42/31
f 31/42/31 32/43/32 27/37/27
f 27/37/27 32/43/32 28/38/28
f 32/43/32 29/44/29 28/38/28
f 28/38/28 29/44/29 25/39/25
f 33/45/33 34/46/34 35/47/35
f 34/46/34 36/48/36 35/47/35
f 36/48/36 37/49/37 35/47/35
f 35/47/35 37/49/37 38/50/38
f 38/50/38 37/49/37 39/51/39
f 39/51/39 37/49/37 40/52/40
f 39/51/39 40/52/40 33/53/33
f 33/53/33 40/52/40 34/54/34
f 34/55/34 41/56/41 36/57/36
f 36/57/36 41/56/41 42/58/42
f 36/57/36 42/58/42 37/59/37
f 37/59/37 42/58/42 43/60/43
f 37/59/37 43/60/43 40/61/40
f 40/61/40 43/60/43 44/62/44
f 40/61/40 44/62/44 34/63/34
f 34/63/34 44/62/44 41/64/41
f 45/65/45 46/66/46 41/56/41
f 41/56/41 46/66/46 42/58/42
f 42/58/42 46/66/46 43/60/43
f 43/60/43 46/66/46 47/67/47
f 43/60/43 47/67/47 44/62/44
f 44/62/44 47/67/47 48/68/48
f 48/68/48 45/65/45 44/62/44
f 44/62/44 45/65/45 41/64/41
f 45/65/45 48/68/48 46/66/46
f 46/66/46 48/68/48 47/67/47
f 30/41/30 49/69/49 31/42/31
f 31/42/31 49/69/49 50/70/50
f 51/71/51 49/69/49 29/40/29
f 29/40/29 49/69/49 30/41/30
f 52/72/52 51/73/51 32/43/32
f 32/43/32 51/73/51 29/44/29
f 31/42/31 50/70/50 32/43/32
f 32/43/32 50/70/50 52/72/52
f 39/51/39 33/53/33 52/72/52
f 52/72/52 33/53/33 51/73/51
f 51/71/51 33/45/33 49/69/49
f 49/69/49 33/45/33 35/47/35
f 49/69/49 35/47/35 50/70/50
f 50/70/50 35/47/35 38/50/38
f 52/72/52 50/70/50 39/51/39
f 39/51/39 50/70/50 38/50/38
