# Blender v2.71 (sub 0) OBJ File: ''
# www.blender.org
mtllib FrontLeftLeg.mtl
o FrontLeftLeg
v 1.326576 -4.978945 1.369967
v 1.709800 -1.983621 1.442628
v -1.056573 -3.863217 1.168964
v -1.144536 -1.704541 1.821950
v -0.996291 -0.228133 1.961427
v 0.415604 0.330559 1.961427
v -1.151615 0.572482 -1.868442
v 1.350526 -0.027883 -1.868442
v -1.445057 -1.704541 -2.007922
v 1.709800 -1.983620 -2.007922
v -1.357386 -3.863216 -1.523681
v 1.326576 -4.978942 -1.547293
v -1.050016 -6.315552 -0.839018
v 0.909203 -6.305719 -0.839018
v 0.909203 -6.305719 1.406489
v -1.050016 -6.315552 1.406489
v 1.561475 -0.806232 1.821950
v -1.078691 -0.994001 1.821950
v 1.547639 -1.468171 -2.007922
v -1.179696 0.159208 -2.007921
v 0.560929 -7.136788 -1.159817
v -1.359423 -7.146899 -1.159817
v 1.245551 -7.136788 1.446510
v -1.278643 -7.146899 1.446510
v -1.081363 -8.343605 -0.582741
v 0.736403 -8.333775 -0.582741
v 0.736403 -8.333775 1.292403
v -1.081363 -8.343605 1.292403
v -0.657772 -8.872599 -0.252477
v 0.621554 -8.863277 -0.252477
v 0.621554 -8.863277 1.245338
v -0.657772 -8.872599 1.245338
v -0.679166 -11.804904 -0.547883
v 1.196812 -11.796143 -0.547883
v -0.490021 -11.840972 -0.342163
v 1.007666 -11.833977 -0.342163
v 1.196812 -11.796143 1.807611
v 1.007666 -11.833977 1.531149
v -0.679166 -11.804904 1.807611
v -0.490021 -11.840972 1.531149
v 1.007666 -12.361568 -0.627437
v -0.490021 -12.368563 -0.627437
v 1.007666 -12.361568 1.531149
v -0.490021 -12.368563 1.531149
v 1.282658 -13.719049 -0.143374
v -0.765013 -13.726044 -0.143374
v 1.282658 -13.719049 2.204629
v -0.765013 -13.726044 2.204629
v 0.602189 -10.592437 -0.431897
v 0.602189 -10.592437 1.586840
v -0.811371 -10.593015 -0.431897
v -0.811371 -10.593015 1.586840
vt 0.484668 0.584549
vt 0.468267 0.630009
vt 0.406081 0.596693
vt 0.418624 0.629561
vt 0.427990 0.651401
vt 0.445017 0.657007
vt 0.430991 0.718785
vt 0.454028 0.695031
vt 0.516410 0.745769
vt 0.503487 0.668506
vt 0.571248 0.717329
vt 0.547061 0.638063
vt 0.326638 0.634402
vt 0.360338 0.684494
vt 0.614716 0.677959
vt 0.555152 0.619632
vt 0.488214 0.580022
vt 0.407733 0.553500
vt 0.331147 0.577495
vt 0.453838 0.651422
vt 0.423289 0.646114
vt 0.476255 0.684846
vt 0.437464 0.725773
vt 0.422615 0.720270
vt 0.527607 0.546412
vt 0.524383 0.522171
vt 0.575824 0.533430
vt 0.568110 0.508574
vt 0.478508 0.549853
vt 0.479110 0.525541
vt 0.427843 0.543193
vt 0.433346 0.519193
vt 0.382335 0.528260
vt 0.389743 0.503433
vt 0.553676 0.481833
vt 0.518012 0.494353
vt 0.479275 0.496825
vt 0.441380 0.491819
vt 0.406220 0.478155
vt 0.553313 0.481128
vt 0.517801 0.493664
vt 0.479255 0.496106
vt 0.441692 0.491160
vt 0.406542 0.477437
vt 0.537393 0.450171
vt 0.508531 0.463432
vt 0.529078 0.445320
vt 0.506020 0.456484
vt 0.478387 0.464538
vt 0.479848 0.457360
vt 0.455379 0.462230
vt 0.455802 0.455067
vt 0.420686 0.445913
vt 0.429103 0.442652
vt 0.285487 0.350300
vt 0.294650 0.356548
vt 0.283130 0.395272
vt 0.295619 0.395835
vt 0.335880 0.323183
vt 0.329343 0.334686
vt 0.374454 0.351895
vt 0.364509 0.358264
vt 0.383533 0.404953
vt 0.371282 0.406332
vt 0.316579 0.361096
vt 0.334697 0.394813
vt 0.320131 0.348997
vt 0.363878 0.369582
vt 0.512170 0.475302
vt 0.478728 0.476933
vt 0.543644 0.462326
vt 0.415133 0.458290
vt 0.450005 0.473589
vn 0.699700 -0.138500 0.700900
vn 0.783100 -0.116700 0.610800
vn -0.722200 -0.075100 0.687600
vn -0.643200 -0.112200 0.757400
vn -0.596000 0.349300 0.723000
vn 0.185900 0.701100 0.688400
vn -0.522300 0.730700 -0.439600
vn 0.610300 0.567300 -0.552800
vn -0.734000 -0.039500 -0.678000
vn 0.725900 0.005600 -0.687800
vn -0.764700 -0.190300 -0.615600
vn 0.632700 -0.332700 -0.699200
vn -0.757600 0.126700 -0.640200
vn 0.742900 -0.271600 -0.611800
vn 0.612000 0.059300 0.788600
vn -0.664000 0.136000 0.735300
vn 0.708000 0.193600 0.679100
vn -0.696300 0.026500 0.717200
vn 0.660300 0.162400 -0.733200
vn -0.655900 0.199200 -0.728000
vn 0.476300 -0.077900 -0.875800
vn -0.695500 0.006900 -0.718500
vn 0.787200 -0.029400 0.616000
vn -0.728000 0.013300 0.685400
vn -0.643500 -0.541300 -0.541100
vn 0.665500 -0.392700 -0.634700
vn 0.644100 -0.288800 0.708400
vn -0.685700 -0.365100 0.629700
vn -0.623200 -0.401000 -0.671400
vn 0.752700 -0.248800 -0.609500
vn 0.714400 -0.048300 0.698000
vn -0.611500 -0.149300 0.777000
vn -0.556800 -0.541900 -0.629500
vn 0.705000 -0.378500 -0.599700
vn -0.506900 -0.782000 -0.362600
vn 0.512400 -0.779600 -0.360000
vn 0.693900 -0.369400 0.618000
vn 0.384500 -0.857100 0.342900
vn -0.549600 -0.520600 0.653300
vn -0.377300 -0.859300 0.345300
vn 0.597500 0.106000 -0.794800
vn -0.597900 0.104000 -0.794800
vn 0.727000 0.241000 0.642900
vn -0.727700 0.241700 0.641900
vn 0.664600 -0.587100 -0.462200
vn -0.662700 -0.589200 -0.462200
vn 0.604900 -0.401400 0.687700
vn -0.603800 -0.404200 0.687100
vn 0.618600 0.225300 -0.752700
vn 0.608600 0.295900 0.736200
vn -0.727500 0.056700 -0.683800
vn -0.727200 0.113100 0.677000
usemtl lambert5SG.004
s 1
f 1/1/1 2/2/2 3/3/3
f 3/3/3 2/2/2 4/4/4
f 5/5/5 6/6/6 7/7/7
f 7/7/7 6/6/6 8/8/8
f 9/9/9 10/10/10 11/11/11
f 11/11/11 10/10/10 12/12/12
f 1/1/1 12/12/12 2/2/2
f 2/2/2 12/12/12 10/10/10
f 11/13/11 3/3/3 9/14/9
f 9/14/9 3/3/3 4/4/4
f 11/11/11 12/12/12 13/15/13
f 13/15/13 12/12/12 14/16/14
f 12/12/12 1/1/1 14/16/14
f 14/16/14 1/1/1 15/17/15
f 16/18/16 1/1/1 3/3/3
f 1/1/1 16/18/16 15/17/15
f 11/13/11 13/19/13 3/3/3
f 3/3/3 13/19/13 16/18/16
f 2/2/2 17/20/17 4/4/4
f 4/4/4 17/20/17 18/21/18
f 10/10/10 19/22/19 2/2/2
f 2/2/2 19/22/19 17/20/17
f 10/10/10 9/9/9 19/22/19
f 19/22/19 9/9/9 20/23/20
f 4/4/4 18/21/18 9/14/9
f 9/14/9 18/21/18 20/24/20
f 17/20/17 6/6/6 18/21/18
f 18/21/18 6/6/6 5/5/5
f 19/22/19 8/8/8 17/20/17
f 17/20/17 8/8/8 6/6/6
f 19/22/19 20/23/20 8/8/8
f 8/8/8 20/23/20 7/7/7
f 18/21/18 5/5/5 20/24/20
f 20/24/20 5/5/5 7/7/7
f 14/25/14 21/26/21 13/27/13
f 13/27/13 21/26/21 22/28/22
f 15/29/15 23/30/23 14/25/14
f 14/25/14 23/30/23 21/26/21
f 16/31/16 24/32/24 15/29/15
f 15/29/15 24/32/24 23/30/23
f 16/31/16 13/33/13 24/32/24
f 24/32/24 13/33/13 22/34/22
f 22/28/22 21/26/21 25/35/25
f 25/35/25 21/26/21 26/36/26
f 21/26/21 23/30/23 26/36/26
f 26/36/26 23/30/23 27/37/27
f 23/30/23 24/32/24 27/37/27
f 27/37/27 24/32/24 28/38/28
f 22/34/22 25/39/25 24/32/24
f 24/32/24 25/39/25 28/38/28
f 25/35/25 26/36/26 29/40/29
f 29/40/29 26/36/26 30/41/30
f 26/36/26 27/37/27 30/41/30
f 30/41/30 27/37/27 31/42/31
f 28/38/28 32/43/32 27/37/27
f 27/37/27 32/43/32 31/42/31
f 25/39/25 29/44/29 28/38/28
f 28/38/28 29/44/29 32/43/32
f 33/45/33 34/46/34 35/47/35
f 35/47/35 34/46/34 36/48/36
f 37/49/37 38/50/38 34/46/34
f 34/46/34 38/50/38 36/48/36
f 37/49/37 39/51/39 38/50/38
f 38/50/38 39/51/39 40/52/40
f 39/51/39 33/53/33 40/52/40
f 40/52/40 33/53/33 35/54/35
f 36/55/36 41/56/41 35/57/35
f 35/57/35 41/56/41 42/58/42
f 38/59/38 43/60/43 36/55/36
f 36/55/36 43/60/43 41/56/41
f 38/59/38 40/61/40 43/60/43
f 43/60/43 40/61/40 44/62/44
f 40/61/40 35/63/35 44/62/44
f 44/62/44 35/63/35 42/64/42
f 41/56/41 45/65/45 42/58/42
f 42/58/42 45/65/45 46/66/46
f 41/56/41 43/60/43 45/65/45
f 45/65/45 43/60/43 47/67/47
f 43/60/43 44/62/44 47/67/47
f 47/67/47 44/62/44 48/68/48
f 42/64/42 46/66/46 44/62/44
f 44/62/44 46/66/46 48/68/48
f 46/66/46 45/65/45 48/68/48
f 48/68/48 45/65/45 47/67/47
f 30/41/30 31/42/31 49/69/49
f 49/69/49 31/42/31 50/70/50
f 30/41/30 49/69/49 29/40/29
f 29/40/29 49/69/49 51/71/51
f 29/44/29 51/72/51 32/43/32
f 32/43/32 51/72/51 52/73/52
f 31/42/31 32/43/32 50/70/50
f 50/70/50 32/43/32 52/73/52
f 52/73/52 39/51/39 50/70/50
f 50/70/50 39/51/39 37/49/37
f 49/69/49 50/70/50 34/46/34
f 34/46/34 50/70/50 37/49/37
f 51/71/51 49/69/49 33/45/33
f 33/45/33 49/69/49 34/46/34
f 51/72/51 33/53/33 52/73/52
f 52/73/52 33/53/33 39/51/39
