# This file uses centimeters as units for non-parametric coordinates.

mtllib SkorupiFLLeg.mtl
g default
v 1.895340 -1.007040 0.323385
v 1.843795 -1.035520 0.146490
v 1.660345 -1.104285 0.043725
v 1.452460 -1.173050 0.075295
v 1.343200 -1.196350 0.222940
v 1.393465 -1.173050 0.399605
v 1.576910 -1.104290 0.502365
v 1.784795 -1.035525 0.470795
v 1.900600 -1.384780 0.324345
v 1.869900 -1.401750 0.218985
v 1.760650 -1.442715 0.157785
v 1.636840 -1.483675 0.176585
v 1.571000 -1.500645 0.264380
v 1.601700 -1.483675 0.369740
v 1.710955 -1.442715 0.430940
v 1.834765 -1.401750 0.412135
v 1.761520 -1.568520 0.301955
v 1.804375 -0.633410 0.306835
v 1.738920 -0.669580 0.082220
v 1.505985 -0.756890 -0.048265
v 1.242020 -0.844210 -0.008180
v 1.103285 -0.873795 0.179295
v 1.167105 -0.844210 0.403615
v 1.400040 -0.756895 0.534100
v 1.664010 -0.669580 0.494015
v 1.535550 -0.237965 0.257930
v 1.466950 -0.295575 -0.009725
v 1.211450 -0.434665 -0.161905
v 0.918730 -0.573755 -0.109460
v 0.760750 -0.624155 0.116980
v 0.828860 -0.573755 0.384545
v 1.084355 -0.434665 0.536725
v 1.377080 -0.295575 0.484280
v 1.110710 0.144685 0.180645
v 1.067795 0.036440 -0.130980
v 0.867025 -0.130345 -0.293350
v 0.612095 -0.391670 -0.213885
v 0.459095 -0.491760 0.062100
v 0.505095 -0.391670 0.374290
v 0.715705 -0.130345 0.538450
v 0.960795 0.036440 0.457190
v 0.718815 0.335335 0.109350
v 0.670345 0.213080 -0.242620
v 0.443580 0.024700 -0.426015
v 0.155645 -0.270465 -0.336260
v -0.017165 -0.383510 -0.024540
v 0.034790 -0.270465 0.328065
v 0.272670 0.024700 0.513480
v 0.549495 0.213075 0.421705
v 0.210115 0.428795 0.016805
v 0.193450 0.298150 -0.307840
v 0.026900 0.082585 -0.471355
v -0.173530 -0.232825 -0.374600
v -0.308665 -0.355615 -0.077570
v -0.286800 -0.232825 0.248025
v -0.133280 0.082580 0.409170
v 0.080180 0.298150 0.314785
vt 0.896641 0.595006
vt 0.896637 0.594934
vt 0.896565 0.594980
vt 0.896627 0.594909
vt 0.896627 0.594909
vt 0.896637 0.594934
vt 0.896721 0.594913
vt 0.896687 0.594986
vt 0.896725 0.595084
vt 0.896717 0.595120
vt 0.896885 0.595200
vt 0.896814 0.595348
vt 0.896652 0.595060
vt 0.896641 0.595006
vt 0.896554 0.595134
vt 0.896565 0.594980
vt 0.896718 0.595031
vt 0.896725 0.595084
vt 0.896840 0.595011
vt 0.896885 0.595200
vt 0.896658 0.595297
vt 0.896685 0.595101
vt 0.896554 0.595134
vt 0.896652 0.595060
vt 0.896721 0.594913
vt 0.896687 0.594986
vt 0.896840 0.595011
vt 0.896718 0.595031
vt 0.896814 0.595348
vt 0.896717 0.595120
vt 0.896658 0.595297
vt 0.896685 0.595101
vt 0.896641 0.595006
vt 0.896652 0.595060
vt 0.896686 0.595048
vt 0.896652 0.595060
vt 0.896685 0.595101
vt 0.896686 0.595048
vt 0.896637 0.594934
vt 0.896641 0.595006
vt 0.896686 0.595048
vt 0.896687 0.594986
vt 0.896637 0.594934
vt 0.896686 0.595048
vt 0.896718 0.595031
vt 0.896687 0.594986
vt 0.896686 0.595048
vt 0.896725 0.595084
vt 0.896718 0.595031
vt 0.896686 0.595048
vt 0.896717 0.595120
vt 0.896725 0.595084
vt 0.896686 0.595048
vt 0.896685 0.595101
vt 0.896717 0.595120
vt 0.896686 0.595048
vt 0.896658 0.595297
vt 0.896398 0.596086
vt 0.896814 0.595348
vt 0.897222 0.596302
vt 0.896627 0.594909
vt 0.896515 0.594647
vt 0.896565 0.594980
vt 0.896250 0.594830
vt 0.896830 0.594582
vt 0.896515 0.594647
vt 0.896721 0.594913
vt 0.896627 0.594909
vt 0.897222 0.596302
vt 0.897636 0.595557
vt 0.896814 0.595348
vt 0.896885 0.595200
vt 0.896565 0.594980
vt 0.896250 0.594830
vt 0.896554 0.595134
vt 0.896074 0.595323
vt 0.897636 0.595557
vt 0.897308 0.594796
vt 0.896885 0.595200
vt 0.896840 0.595011
vt 0.896554 0.595134
vt 0.896074 0.595323
vt 0.896658 0.595297
vt 0.896398 0.596086
vt 0.897308 0.594796
vt 0.896830 0.594582
vt 0.896840 0.595011
vt 0.896721 0.594913
vt 0.896250 0.594830
vt 0.895000 0.594177
vt 0.896074 0.595323
vt 0.894131 0.596018
vt 0.900833 0.596901
vt 0.899153 0.593872
vt 0.897636 0.595557
vt 0.897308 0.594796
vt 0.896074 0.595323
vt 0.894131 0.596018
vt 0.896398 0.596086
vt 0.895159 0.599326
vt 0.899153 0.593872
vt 0.897222 0.593227
vt 0.897308 0.594796
vt 0.896830 0.594582
vt 0.896398 0.596086
vt 0.895159 0.599326
vt 0.897222 0.596302
vt 0.898949 0.600343
vt 0.896515 0.594647
vt 0.896044 0.593544
vt 0.896250 0.594830
vt 0.895000 0.594177
vt 0.897222 0.593227
vt 0.896044 0.593544
vt 0.896830 0.594582
vt 0.896515 0.594647
vt 0.898949 0.600343
vt 0.900833 0.596901
vt 0.897222 0.596302
vt 0.897636 0.595557
vt 0.895159 0.599326
vt 0.890711 0.606910
vt 0.898949 0.600343
vt 0.902716 0.609161
vt 0.896044 0.593544
vt 0.894122 0.589048
vt 0.895000 0.594177
vt 0.890244 0.591583
vt 0.898635 0.587998
vt 0.894122 0.589048
vt 0.897222 0.593227
vt 0.896044 0.593544
vt 0.902716 0.609161
vt 0.909388 0.598929
vt 0.898949 0.600343
vt 0.900833 0.596901
vt 0.895000 0.594177
vt 0.890244 0.591583
vt 0.894131 0.596018
vt 0.886951 0.596837
vt 0.909388 0.598929
vt 0.904709 0.589249
vt 0.900833 0.596901
vt 0.899153 0.593872
vt 0.894131 0.596018
vt 0.886951 0.596837
vt 0.895159 0.599326
vt 0.890711 0.606910
vt 0.904709 0.589249
vt 0.898635 0.587998
vt 0.899153 0.593872
vt 0.897222 0.593227
vt 0.886951 0.596837
vt 0.865548 0.603191
vt 0.890711 0.606910
vt 0.877917 0.638687
vt 0.924094 0.578173
vt 0.902918 0.575875
vt 0.904709 0.589249
vt 0.898635 0.587998
vt 0.890711 0.606910
vt 0.877917 0.638687
vt 0.902716 0.609161
vt 0.918284 0.645592
vt 0.894122 0.589048
vt 0.889978 0.579349
vt 0.890244 0.591583
vt 0.878523 0.586299
vt 0.902918 0.575875
vt 0.889978 0.579349
vt 0.898635 0.587998
vt 0.894122 0.589048
vt 0.918284 0.645592
vt 0.941196 0.611647
vt 0.902716 0.609161
vt 0.909388 0.598929
vt 0.890244 0.591583
vt 0.878523 0.586299
vt 0.886951 0.596837
vt 0.865548 0.603191
vt 0.941196 0.611647
vt 0.924094 0.578173
vt 0.909388 0.598929
vt 0.904709 0.589249
vt 0.878523 0.586299
vt 0.820942 0.570215
vt 0.865548 0.603191
vt 0.814988 0.636079
vt 0.982808 0.642000
vt 0.982808 0.564366
vt 0.941196 0.611647
vt 0.924094 0.578173
vt 0.865548 0.603191
vt 0.814988 0.636079
vt 0.877917 0.638687
vt 0.871091 0.689738
vt 0.982808 0.564366
vt 0.931092 0.523145
vt 0.924094 0.578173
vt 0.902918 0.575875
vt 0.877917 0.638687
vt 0.871091 0.689738
vt 0.918284 0.645592
vt 0.936513 0.688252
vt 0.889978 0.579349
vt 0.863770 0.518022
vt 0.878523 0.586299
vt 0.820942 0.570215
vt 0.931092 0.523145
vt 0.863770 0.518022
vt 0.902918 0.575875
vt 0.889978 0.579349
vt 0.936513 0.688252
vt 0.982808 0.642000
vt 0.918284 0.645592
vt 0.941196 0.611647
vn 0.798794 0.012651 0.601472
vn 0.798794 0.012652 0.601472
vn 0.798793 0.012653 0.601473
vn 0.798793 0.012653 0.601473
vn 0.798794 0.012652 0.601472
vn 0.798793 0.012653 0.601473
vn 0.959446 0.012645 -0.281608
vn 0.959447 0.012645 -0.281605
vn 0.959446 0.012645 -0.281607
vn 0.959446 0.012645 -0.281607
vn 0.959447 0.012645 -0.281605
vn 0.959448 0.012645 -0.281603
vn -0.614095 -0.549305 -0.566702
vn -0.620233 -0.548244 -0.561016
vn -0.627787 -0.546874 -0.553907
vn -0.627787 -0.546874 -0.553907
vn -0.620233 -0.548244 -0.561016
vn -0.629610 -0.546532 -0.552172
vn 0.190737 -0.129809 0.973021
vn 0.190726 -0.129819 0.973021
vn 0.190717 -0.129828 0.973022
vn 0.190717 -0.129828 0.973022
vn 0.190726 -0.129819 0.973021
vn 0.190713 -0.129832 0.973022
vn -0.034684 -0.328399 -0.943902
vn -0.034698 -0.328399 -0.943902
vn -0.034710 -0.328398 -0.943901
vn -0.034710 -0.328398 -0.943901
vn -0.034698 -0.328399 -0.943902
vn -0.034715 -0.328398 -0.943901
vn -0.364924 -0.328399 0.871197
vn -0.364909 -0.328399 0.871203
vn -0.364920 -0.328399 0.871199
vn -0.364920 -0.328399 0.871199
vn -0.364909 -0.328399 0.871203
vn -0.364898 -0.328399 0.871208
vn 0.521183 -0.129823 -0.843513
vn 0.521189 -0.129817 -0.843510
vn 0.521185 -0.129821 -0.843512
vn 0.521185 -0.129821 -0.843512
vn 0.521189 -0.129817 -0.843510
vn 0.521194 -0.129811 -0.843508
vn -0.783732 -0.546533 0.295069
vn -0.778080 -0.548241 0.306631
vn -0.782639 -0.546874 0.297331
vn -0.782639 -0.546874 0.297331
vn -0.778080 -0.548241 0.306631
vn -0.774344 -0.549299 0.314104
vn 0.313472 -0.615447 0.723160
vn 0.313472 -0.615447 0.723160
vn 0.313472 -0.615447 0.723160
vn -0.102893 -0.731938 0.673558
vn -0.102893 -0.731938 0.673558
vn -0.102893 -0.731938 0.673558
vn 0.701058 -0.581037 0.413417
vn 0.701058 -0.581037 0.413417
vn 0.701058 -0.581037 0.413417
vn 0.797733 -0.587033 -0.137893
vn 0.797733 -0.587033 -0.137893
vn 0.797733 -0.587033 -0.137893
vn 0.545787 -0.629712 -0.552792
vn 0.545787 -0.629712 -0.552792
vn 0.545787 -0.629712 -0.552792
vn 0.147572 -0.744776 -0.650792
vn 0.147572 -0.744776 -0.650792
vn 0.147572 -0.744776 -0.650792
vn -0.249117 -0.898853 -0.360561
vn -0.249117 -0.898853 -0.360561
vn -0.249117 -0.898853 -0.360561
vn -0.368450 -0.894979 0.251511
vn -0.368450 -0.894979 0.251511
vn -0.368450 -0.894979 0.251511
vn -0.785316 -0.544178 0.295210
vn -0.785321 -0.544176 0.295200
vn -0.785318 -0.544177 0.295205
vn -0.785318 -0.544177 0.295205
vn -0.785321 -0.544176 0.295200
vn -0.785322 -0.544176 0.295197
vn 0.761599 0.212539 0.612205
vn 0.761606 0.212534 0.612197
vn 0.761603 0.212536 0.612201
vn 0.761603 0.212536 0.612201
vn 0.761606 0.212534 0.612197
vn 0.761608 0.212532 0.612195
vn 0.928406 0.212543 -0.304774
vn 0.928409 0.212541 -0.304767
vn 0.928412 0.212539 -0.304758
vn 0.928412 0.212539 -0.304758
vn 0.928409 0.212541 -0.304767
vn 0.928416 0.212536 -0.304748
vn -0.631046 -0.544175 -0.552860
vn -0.631045 -0.544176 -0.552860
vn -0.631044 -0.544176 -0.552861
vn -0.631044 -0.544176 -0.552861
vn -0.631045 -0.544176 -0.552860
vn -0.631044 -0.544177 -0.552861
vn 0.153969 -0.011872 0.988004
vn 0.153961 -0.011871 0.988006
vn 0.153964 -0.011871 0.988005
vn 0.153964 -0.011871 0.988005
vn 0.153961 -0.011871 0.988006
vn 0.153959 -0.011870 0.988006
vn -0.053734 -0.277856 -0.959119
vn -0.053737 -0.277856 -0.959119
vn -0.053740 -0.277855 -0.959119
vn -0.053740 -0.277855 -0.959119
vn -0.053737 -0.277856 -0.959119
vn -0.053745 -0.277855 -0.959118
vn -0.388089 -0.277863 0.878737
vn -0.388091 -0.277863 0.878736
vn -0.388091 -0.277863 0.878736
vn -0.388091 -0.277863 0.878736
vn -0.388091 -0.277863 0.878736
vn -0.388092 -0.277863 0.878736
vn 0.492067 -0.011859 -0.870476
vn 0.492068 -0.011859 -0.870476
vn 0.492068 -0.011859 -0.870476
vn 0.492068 -0.011859 -0.870476
vn 0.492068 -0.011859 -0.870476
vn 0.492069 -0.011859 -0.870476
vn 0.112796 0.112233 0.987259
vn 0.119849 0.112490 0.986399
vn 0.116818 0.112380 0.986775
vn 0.116818 0.112380 0.986775
vn 0.119849 0.112490 0.986399
vn 0.123143 0.112609 0.985979
vn -0.000732 -0.351463 -0.936202
vn -0.008801 -0.351977 -0.935967
vn -0.015440 -0.352383 -0.935728
vn -0.015440 -0.352383 -0.935728
vn -0.008801 -0.351977 -0.935967
vn -0.025273 -0.352956 -0.935299
vn -0.353070 -0.352957 0.866466
vn -0.337883 -0.351978 0.872895
vn -0.344015 -0.352384 0.870333
vn -0.344015 -0.352384 0.870333
vn -0.337883 -0.351978 0.872895
vn -0.330411 -0.351464 0.875958
vn 0.462505 0.112607 -0.879437
vn 0.459573 0.112489 -0.880987
vn 0.456872 0.112378 -0.882405
vn 0.456872 0.112378 -0.882405
vn 0.459573 0.112489 -0.880987
vn 0.453283 0.112231 -0.884273
vn -0.610292 -0.744101 0.271768
vn -0.601079 -0.745956 0.286799
vn -0.605406 -0.745119 0.279789
vn -0.605406 -0.745119 0.279789
vn -0.601079 -0.745956 0.286799
vn -0.597391 -0.746624 0.292707
vn 0.639986 0.506523 0.577800
vn 0.640370 0.506442 0.577445
vn 0.640172 0.506484 0.577628
vn 0.640172 0.506484 0.577628
vn 0.640370 0.506442 0.577445
vn 0.640508 0.506413 0.577317
vn 0.802798 0.506403 -0.314756
vn 0.802712 0.506433 -0.314929
vn 0.802587 0.506475 -0.315178
vn 0.802587 0.506475 -0.315178
vn 0.802712 0.506433 -0.314929
vn 0.802470 0.506515 -0.315412
vn -0.456031 -0.746627 -0.484339
vn -0.461563 -0.745959 -0.480109
vn -0.468080 -0.745122 -0.475073
vn -0.468080 -0.745122 -0.475073
vn -0.461563 -0.745959 -0.480109
vn -0.475477 -0.744104 -0.469287
vn -0.477485 -0.833329 0.278516
vn -0.450266 -0.837576 0.309397
vn -0.454968 -0.836952 0.304162
vn -0.454968 -0.836952 0.304162
vn -0.450266 -0.837576 0.309397
vn -0.429091 -0.839843 0.332483
vn 0.512031 0.675621 0.530435
vn 0.506337 0.675783 0.535667
vn 0.509327 0.675703 0.532927
vn 0.509327 0.675703 0.532927
vn 0.506337 0.675783 0.535667
vn 0.504030 0.675838 0.537771
vn 0.661131 0.675838 -0.325804
vn 0.662549 0.675784 -0.323024
vn 0.664382 0.675703 -0.319409
vn 0.664382 0.675703 -0.319409
vn 0.662549 0.675784 -0.323024
vn 0.666035 0.675620 -0.316125
vn -0.284498 -0.839845 -0.462301
vn -0.312451 -0.837578 -0.448149
vn -0.318697 -0.836954 -0.444905
vn -0.318697 -0.836954 -0.444905
vn -0.312451 -0.837578 -0.448149
vn -0.348807 -0.833330 -0.428830
vn 0.086081 0.187763 0.978435
vn 0.142850 0.201076 0.969104
vn 0.113089 0.194170 0.974428
vn 0.113089 0.194170 0.974428
vn 0.142850 0.201076 0.969104
vn 0.176836 0.208765 0.961845
vn 0.093548 -0.372074 -0.923477
vn 0.057268 -0.376747 -0.924544
vn 0.046810 -0.377999 -0.924622
vn 0.046810 -0.377999 -0.924622
vn 0.057268 -0.376747 -0.924544
vn 0.015671 -0.381474 -0.924247
vn -0.310842 -0.381485 0.870544
vn -0.272013 -0.376758 0.885473
vn -0.281828 -0.378010 0.881863
vn -0.281828 -0.378010 0.881863
vn -0.272013 -0.376758 0.885473
vn -0.237680 -0.372085 0.897252
vn 0.504248 0.208767 -0.837944
vn 0.474998 0.201079 -0.856705
vn 0.449022 0.194173 -0.872168
vn 0.449022 0.194173 -0.872168
vn 0.474998 0.201079 -0.856705
vn 0.425158 0.187767 -0.885429
vn -0.192460 -0.406074 0.893344
vn -0.192457 -0.406073 0.893345
vn -0.192458 -0.406073 0.893345
vn -0.192458 -0.406073 0.893345
vn -0.192457 -0.406073 0.893345
vn -0.192456 -0.406072 0.893346
vn 0.394656 0.351428 -0.848967
vn 0.394655 0.351427 -0.848968
vn 0.394655 0.351427 -0.848968
vn 0.394655 0.351427 -0.848968
vn 0.394655 0.351427 -0.848968
vn 0.394654 0.351427 -0.848969
vn -0.265864 -0.905909 0.329614
vn -0.265866 -0.905909 0.329611
vn -0.265865 -0.905909 0.329612
vn -0.265865 -0.905909 0.329612
vn -0.265866 -0.905909 0.329611
vn -0.265868 -0.905910 0.329609
vn 0.308787 0.816908 0.487147
vn 0.308794 0.816908 0.487143
vn 0.308792 0.816908 0.487144
vn 0.308792 0.816908 0.487144
vn 0.308794 0.816908 0.487143
vn 0.308797 0.816908 0.487140
vn 0.460579 0.816907 -0.347175
vn 0.460576 0.816907 -0.347179
vn 0.460575 0.816907 -0.347180
vn 0.460575 0.816907 -0.347180
vn 0.460576 0.816907 -0.347179
vn 0.460572 0.816907 -0.347185
vn -0.132753 -0.905910 -0.402123
vn -0.132749 -0.905910 -0.402125
vn -0.132747 -0.905910 -0.402127
vn -0.132747 -0.905910 -0.402127
vn -0.132749 -0.905910 -0.402125
vn -0.132742 -0.905909 -0.402130
vn 0.070379 0.351426 0.933567
vn 0.070370 0.351423 0.933568
vn 0.070374 0.351424 0.933568
vn 0.070374 0.351424 0.933568
vn 0.070370 0.351423 0.933568
vn 0.070366 0.351421 0.933569
vn 0.134507 -0.406070 -0.903889
vn 0.134506 -0.406071 -0.903889
vn 0.134505 -0.406071 -0.903889
vn 0.134505 -0.406071 -0.903889
vn 0.134506 -0.406071 -0.903889
vn 0.134504 -0.406071 -0.903889
vn -0.092010 0.542135 0.835239
vn -0.122782 0.525366 0.841971
vn -0.109132 0.532897 0.839113
vn -0.109132 0.532897 0.839113
vn -0.122782 0.525366 0.841971
vn -0.144216 0.513236 0.846044
vn 0.071328 -0.333676 -0.939985
vn 0.061460 -0.337077 -0.939469
vn 0.062328 -0.336779 -0.939519
vn 0.062328 -0.336779 -0.939519
vn 0.061460 -0.337077 -0.939469
vn 0.055053 -0.339263 -0.939079
vn -0.279195 -0.339279 0.898298
vn -0.273331 -0.337090 0.900922
vn -0.272536 -0.336792 0.901274
vn -0.272536 -0.336792 0.901274
vn -0.273331 -0.337090 0.900922
vn -0.264271 -0.333687 0.904883
vn 0.162987 0.513240 -0.842627
vn 0.181617 0.525370 -0.831265
vn 0.193386 0.532902 -0.823783
vn 0.193386 0.532902 -0.823783
vn 0.181617 0.525370 -0.831265
vn 0.208048 0.542141 -0.814125
vn -0.189329 -0.926583 0.324959
vn -0.175036 -0.924705 0.338059
vn -0.171603 -0.924202 0.341179
vn -0.171603 -0.924202 0.341179
vn -0.175036 -0.924705 0.338059
vn -0.153224 -0.921184 0.357691
vn 0.093096 0.909002 0.406261
vn 0.078261 0.905588 0.416877
vn 0.084068 0.906961 0.412740
vn 0.084068 0.906961 0.412740
vn 0.078261 0.905588 0.416877
vn 0.066835 0.902750 0.424942
vn 0.212208 0.902749 -0.374181
vn 0.220064 0.905588 -0.362605
vn 0.224044 0.906962 -0.356686
vn 0.224044 0.906962 -0.356686
vn 0.220064 0.905588 -0.362605
vn 0.230213 0.909004 -0.347440
vn -0.017432 -0.921182 -0.388741
vn -0.044767 -0.924703 -0.378047
vn -0.040454 -0.924201 -0.379757
vn -0.040454 -0.924201 -0.379757
vn -0.044767 -0.924703 -0.378047
vn -0.062761 -0.926583 -0.370817
s off
g FLLeg
usemtl None
f 16/1/1 9/2/2 8/3/3
f 8/3/4 9/2/5 1/4/6
f 1/5/7 9/6/8 2/7/9
f 2/7/10 9/6/11 10/8/12
f 12/9/13 13/10/14 4/11/15
f 4/11/16 13/10/17 5/12/18
f 15/13/19 16/14/20 7/15/21
f 7/15/22 16/14/23 8/16/24
f 11/17/25 12/18/26 3/19/27
f 3/19/28 12/18/29 4/20/30
f 6/21/31 14/22/32 7/23/33
f 7/23/34 14/22/35 15/24/36
f 2/25/37 10/26/38 3/27/39
f 3/27/40 10/26/41 11/28/42
f 5/29/43 13/30/44 6/31/45
f 6/31/46 13/30/47 14/32/48
f 16/33/49 15/34/50 17/35/51
f 15/36/52 14/37/53 17/38/54
f 9/39/55 16/40/56 17/41/57
f 10/42/58 9/43/59 17/44/60
f 11/45/61 10/46/62 17/47/63
f 12/48/64 11/49/65 17/50/66
f 13/51/67 12/52/68 17/53/69
f 14/54/70 13/55/71 17/56/72
f 6/57/73 23/58/74 5/59/75
f 5/59/76 23/58/77 22/60/78
f 1/61/79 18/62/80 8/63/81
f 8/63/82 18/62/83 25/64/84
f 19/65/85 18/66/86 2/67/87
f 2/67/88 18/66/89 1/68/90
f 22/69/91 21/70/92 5/71/93
f 5/71/94 21/70/95 4/72/96
f 8/73/97 25/74/98 7/75/99
f 7/75/100 25/74/101 24/76/102
f 21/77/103 20/78/104 4/79/105
f 4/79/106 20/78/107 3/80/108
f 7/81/109 24/82/110 6/83/111
f 6/83/112 24/82/113 23/84/114
f 20/85/115 19/86/116 3/87/117
f 3/87/118 19/86/119 2/88/120
f 25/89/121 33/90/122 24/91/123
f 24/91/124 33/90/125 32/92/126
f 29/93/127 28/94/128 21/95/129
f 21/95/130 28/94/131 20/96/132
f 24/97/133 32/98/134 23/99/135
f 23/99/136 32/98/137 31/100/138
f 28/101/139 27/102/140 20/103/141
f 20/103/142 27/102/143 19/104/144
f 23/105/145 31/106/146 22/107/147
f 22/107/148 31/106/149 30/108/150
f 18/109/151 26/110/152 25/111/153
f 25/111/154 26/110/155 33/112/156
f 27/113/157 26/114/158 19/115/159
f 19/115/160 26/114/161 18/116/162
f 30/117/163 29/118/164 22/119/165
f 22/119/166 29/118/167 21/120/168
f 31/121/169 39/122/170 30/123/171
f 30/123/172 39/122/173 38/124/174
f 26/125/175 34/126/176 33/127/177
f 33/127/178 34/126/179 41/128/180
f 35/129/181 34/130/182 27/131/183
f 27/131/184 34/130/185 26/132/186
f 38/133/187 37/134/188 30/135/189
f 30/135/190 37/134/191 29/136/192
f 33/137/193 41/138/194 32/139/195
f 32/139/196 41/138/197 40/140/198
f 37/141/199 36/142/200 29/143/201
f 29/143/202 36/142/203 28/144/204
f 32/145/205 40/146/206 31/147/207
f 31/147/208 40/146/209 39/148/210
f 36/149/211 35/150/212 28/151/213
f 28/151/214 35/150/215 27/152/216
f 40/153/217 48/154/218 39/155/219
f 39/155/220 48/154/221 47/156/222
f 44/157/223 43/158/224 36/159/225
f 36/159/226 43/158/227 35/160/228
f 39/161/229 47/162/230 38/163/231
f 38/163/232 47/162/233 46/164/234
f 34/165/235 42/166/236 41/167/237
f 41/167/238 42/166/239 49/168/240
f 43/169/241 42/170/242 35/171/243
f 35/171/244 42/170/245 34/172/246
f 46/173/247 45/174/248 38/175/249
f 38/175/250 45/174/251 37/176/252
f 41/177/253 49/178/254 40/179/255
f 40/179/256 49/178/257 48/180/258
f 45/181/259 44/182/260 37/183/261
f 37/183/262 44/182/263 36/184/264
f 49/185/265 57/186/266 48/187/267
f 48/187/268 57/186/269 56/188/270
f 53/189/271 52/190/272 45/191/273
f 45/191/274 52/190/275 44/192/276
f 48/193/277 56/194/278 47/195/279
f 47/195/280 56/194/281 55/196/282
f 52/197/283 51/198/284 44/199/285
f 44/199/286 51/198/287 43/200/288
f 47/201/289 55/202/290 46/203/291
f 46/203/292 55/202/293 54/204/294
f 42/205/295 50/206/296 49/207/297
f 49/207/298 50/206/299 57/208/300
f 51/209/301 50/210/302 43/211/303
f 43/211/304 50/210/305 42/212/306
f 54/213/307 53/214/308 46/215/309
f 46/215/310 53/214/311 45/216/312
