# This file uses centimeters as units for non-parametric coordinates.

mtllib SkorupiTail1.mtl
g default
v -0.546955 -0.017035 -0.159095
v -1.070380 -0.016800 -0.475540
v -1.378955 -0.016430 -0.966810
v -1.070380 -0.016065 -1.458085
v -0.546955 -0.015825 -1.774530
v -0.386785 0.426645 -0.158765
v -0.691585 0.776610 -0.474945
v -0.909785 1.027345 -0.966030
v -0.691585 0.777350 -1.457490
v -0.386785 0.427855 -1.774195
v -0.386785 -0.460715 -0.159425
v -0.691585 -0.810210 -0.476130
v -0.957840 -1.059305 -0.967590
v -0.648530 -0.809475 -1.458680
v -0.386785 -0.459505 -1.774860
v 0.546955 -0.017035 -0.159095
v 1.070380 -0.016800 -0.475540
v 1.378955 -0.016430 -0.966810
v 1.070380 -0.016065 -1.458085
v 0.546955 -0.015825 -1.774530
v 0.386785 0.426645 -0.158765
v 0.691585 0.776610 -0.474945
v 0.909785 1.027345 -0.966030
v 0.691585 0.777350 -1.457490
v 0.386785 0.427855 -1.774195
v 0.000105 0.610420 -0.158625
v 0.000105 1.105255 -0.474700
v 0.000105 1.459690 -0.965705
v 0.000105 1.105990 -1.457245
v 0.000105 0.611635 -1.774060
v 0.000105 -0.017170 0.016350
v 0.000105 -0.644495 -0.159565
v 0.000105 -1.138850 -0.476380
v 0.000105 -1.709210 -0.968080
v 0.000105 -1.138115 -1.458925
v 0.000105 -0.643285 -1.775000
v 0.386785 -0.460715 -0.159425
v 0.691585 -0.810210 -0.476130
v 0.957840 -1.059305 -0.967590
v 0.648530 -0.809475 -1.458680
v 0.386785 -0.459505 -1.774860
v 0.000105 -0.015695 -1.949975
vt 0.454513 0.919347
vt 0.492119 0.903883
vt 0.470213 0.945042
vt 0.495038 0.934799
vt 0.443612 0.899414
vt 0.482220 0.876702
vt 0.431505 0.880208
vt 0.463283 0.854823
vt 0.416613 0.853923
vt 0.437651 0.837203
vt 0.447671 0.807511
vt 0.495541 0.815743
vt 0.525814 0.940475
vt 0.541918 0.894717
vt 0.534216 0.846147
vt 0.345256 0.900039
vt 0.362015 0.857304
vt 0.393915 0.895042
vt 0.391824 0.863675
vt 0.395223 0.985177
vt 0.422960 0.947045
vt 0.440837 0.991215
vt 0.449650 0.962010
vt 0.345256 0.957229
vt 0.404021 0.922651
vt 0.397407 0.820564
vt 0.490052 0.978001
vt 0.495038 0.934799
vt 0.492119 0.903883
vt 0.470213 0.945042
vt 0.454513 0.919347
vt 0.454513 0.919347
vt 0.492119 0.903883
vt 0.443612 0.899414
vt 0.482220 0.876702
vt 0.482220 0.876702
vt 0.463283 0.854823
vt 0.443612 0.899414
vt 0.431505 0.880208
vt 0.431505 0.880208
vt 0.463283 0.854823
vt 0.416613 0.853923
vt 0.437651 0.837203
vt 0.463283 0.854823
vt 0.437651 0.837203
vt 0.495038 0.934799
vt 0.492119 0.903883
vt 0.492119 0.903883
vt 0.482220 0.876702
vt 0.482220 0.876702
vt 0.463283 0.854823
vt 0.393915 0.895042
vt 0.391824 0.863675
vt 0.449650 0.962010
vt 0.422960 0.947045
vt 0.422960 0.947045
vt 0.404021 0.922651
vt 0.404021 0.922651
vt 0.393915 0.895042
vt 0.416613 0.853923
vt 0.437651 0.837203
vt 0.495038 0.934799
vt 0.470213 0.945042
vt 0.437651 0.837203
vt 0.495038 0.934799
vt 0.391824 0.863675
vt 0.449650 0.962010
vt 0.470213 0.945042
vt 0.449650 0.962010
vt 0.431505 0.880208
vt 0.416613 0.853923
vt 0.393915 0.895042
vt 0.391824 0.863675
vt 0.449650 0.962010
vt 0.470213 0.945042
vt 0.422960 0.947045
vt 0.454513 0.919347
vt 0.391824 0.863675
vt 0.416613 0.853923
vt 0.422960 0.947045
vt 0.454513 0.919347
vt 0.404021 0.922651
vt 0.443612 0.899414
vt 0.443612 0.899414
vt 0.431505 0.880208
vt 0.404021 0.922651
vt 0.393915 0.895042
vn -0.502272 0.240419 -0.830615
vn -0.522689 0.232533 -0.820198
vn -0.517930 0.234394 -0.822683
vn -0.517930 0.234394 -0.822683
vn -0.522689 0.232533 -0.820198
vn -0.578712 0.209512 -0.788161
vn -0.785078 0.375185 -0.492837
vn -0.781682 0.363707 -0.506647
vn -0.779164 0.355645 -0.516159
vn -0.779164 0.355645 -0.516159
vn -0.781682 0.363707 -0.506647
vn -0.777259 0.349763 -0.523006
vn -0.785076 0.374446 0.493402
vn -0.779161 0.354873 0.516695
vn -0.781679 0.362948 0.507195
vn -0.781679 0.362948 0.507195
vn -0.779161 0.354873 0.516695
vn -0.777256 0.348981 0.523532
vn -0.502271 0.239175 0.830975
vn -0.517930 0.233161 0.823034
vn -0.522688 0.231304 0.820546
vn -0.522688 0.231304 0.820546
vn -0.517930 0.233161 0.823034
vn -0.578712 0.208330 0.788474
vn -0.248032 0.521544 0.816378
vn -0.248054 0.521498 0.816400
vn -0.248053 0.521499 0.816400
vn -0.248053 0.521499 0.816400
vn -0.248054 0.521498 0.816400
vn -0.248062 0.521480 0.816409
vn -0.248036 0.522761 -0.815597
vn -0.248055 0.522722 -0.815617
vn -0.248055 0.522721 -0.815617
vn -0.248055 0.522721 -0.815617
vn -0.248055 0.522722 -0.815617
vn -0.248063 0.522706 -0.815625
vn -0.359668 0.757401 -0.544961
vn -0.359675 0.757388 -0.544974
vn -0.359678 0.757382 -0.544981
vn -0.359678 0.757382 -0.544981
vn -0.359675 0.757388 -0.544974
vn -0.359681 0.757375 -0.544988
vn -0.359670 0.756580 0.546098
vn -0.359678 0.756562 0.546118
vn -0.359676 0.756568 0.546111
vn -0.359676 0.756568 0.546111
vn -0.359678 0.756562 0.546118
vn -0.359681 0.756556 0.546125
vn -0.248057 -0.522706 0.815626
vn -0.248049 -0.522723 0.815618
vn -0.248049 -0.522724 0.815617
vn -0.248049 -0.522724 0.815617
vn -0.248049 -0.522723 0.815618
vn -0.248029 -0.522766 0.815596
vn -0.263416 -0.519297 -0.812984
vn -0.260913 -0.524381 -0.810524
vn -0.260994 -0.524218 -0.810603
vn -0.260994 -0.524218 -0.810603
vn -0.260913 -0.524381 -0.810524
vn -0.255007 -0.536223 -0.804634
vn -0.404730 -0.596041 -0.693490
vn -0.390822 -0.642756 -0.658880
vn -0.397252 -0.622025 -0.674742
vn -0.397252 -0.622025 -0.674742
vn -0.390822 -0.642756 -0.658880
vn -0.363737 -0.717463 -0.594089
vn -0.404727 -0.597080 0.692598
vn -0.395457 -0.628944 0.669360
vn -0.386207 -0.657790 0.646650
vn -0.386207 -0.657790 0.646650
vn -0.395457 -0.628944 0.669360
vn -0.353018 -0.743430 0.568058
vn -0.303546 0.108877 0.946576
vn -0.303546 0.108877 0.946576
vn -0.303545 0.108877 0.946576
vn -0.303545 0.110296 -0.946412
vn -0.303545 0.110296 -0.946412
vn -0.303545 0.110296 -0.946412
vn -0.126884 0.266391 0.955477
vn -0.126884 0.266391 0.955477
vn -0.126884 0.266391 0.955477
vn -0.126888 0.267821 -0.955077
vn -0.126888 0.267821 -0.955077
vn -0.126888 0.267821 -0.955077
vn -0.126876 -0.267824 0.955077
vn -0.126876 -0.267823 0.955078
vn -0.126876 -0.267824 0.955077
vn -0.126886 -0.266391 -0.955477
vn -0.126886 -0.266391 -0.955477
vn -0.126886 -0.266391 -0.955477
vn -0.303546 -0.108877 -0.946576
vn -0.303546 -0.108877 -0.946576
vn -0.303546 -0.108877 -0.946576
vn -0.578717 -0.209505 0.788159
vn -0.517931 -0.234389 0.822684
vn -0.522690 -0.232528 0.820199
vn -0.522690 -0.232528 0.820199
vn -0.517931 -0.234389 0.822684
vn -0.502271 -0.240415 0.830617
vn -0.616187 -0.221884 -0.755699
vn -0.528807 -0.254547 -0.809672
vn -0.520104 -0.257524 -0.814354
vn -0.520104 -0.257524 -0.814354
vn -0.528807 -0.254547 -0.809672
vn -0.498836 -0.264608 -0.825315
vn -0.303546 -0.110285 0.946413
vn -0.303546 -0.110285 0.946413
vn -0.303546 -0.110285 0.946413
vn -0.691391 -0.367141 -0.622243
vn -0.737633 -0.350816 -0.576911
vn -0.772029 -0.336730 -0.539059
vn -0.772029 -0.336730 -0.539059
vn -0.737633 -0.350816 -0.576911
vn -0.801263 -0.323175 -0.503522
vn -0.736567 -0.352086 0.577499
vn -0.784960 -0.331712 0.523264
vn -0.764966 -0.340591 0.546649
vn -0.764966 -0.340591 0.546649
vn -0.784960 -0.331712 0.523264
vn -0.801261 -0.323927 0.503042
vn 0.578712 0.209512 -0.788161
vn 0.522689 0.232533 -0.820198
vn 0.517930 0.234394 -0.822683
vn 0.517930 0.234394 -0.822683
vn 0.522689 0.232533 -0.820198
vn 0.502272 0.240419 -0.830615
vn 0.785078 0.375185 -0.492837
vn 0.779164 0.355645 -0.516159
vn 0.781682 0.363707 -0.506647
vn 0.781682 0.363707 -0.506647
vn 0.779164 0.355645 -0.516159
vn 0.777258 0.349763 -0.523006
vn 0.777256 0.348981 0.523532
vn 0.779161 0.354873 0.516695
vn 0.781679 0.362948 0.507195
vn 0.781679 0.362948 0.507195
vn 0.779161 0.354873 0.516695
vn 0.785076 0.374446 0.493402
vn 0.502271 0.239175 0.830975
vn 0.522688 0.231304 0.820546
vn 0.517930 0.233161 0.823034
vn 0.517930 0.233161 0.823034
vn 0.522688 0.231304 0.820546
vn 0.578712 0.208330 0.788474
vn 0.248132 0.521470 0.816394
vn 0.248132 0.521470 0.816394
vn 0.248132 0.521470 0.816394
vn 0.248132 0.521470 0.816394
vn 0.248132 0.521470 0.816394
vn 0.248132 0.521471 0.816394
vn 0.248136 0.522687 -0.815614
vn 0.248134 0.522694 -0.815611
vn 0.248134 0.522693 -0.815611
vn 0.248134 0.522693 -0.815611
vn 0.248134 0.522694 -0.815611
vn 0.248133 0.522696 -0.815610
vn 0.359754 0.757352 -0.544973
vn 0.359754 0.757352 -0.544972
vn 0.359754 0.757352 -0.544972
vn 0.359754 0.757352 -0.544972
vn 0.359754 0.757352 -0.544972
vn 0.359753 0.757353 -0.544972
vn 0.359754 0.756533 0.546109
vn 0.359754 0.756533 0.546109
vn 0.359755 0.756532 0.546110
vn 0.359755 0.756532 0.546110
vn 0.359754 0.756533 0.546109
vn 0.359756 0.756531 0.546111
vn 0.248128 -0.522697 0.815611
vn 0.248128 -0.522696 0.815611
vn 0.248128 -0.522696 0.815611
vn 0.248128 -0.522696 0.815611
vn 0.248128 -0.522696 0.815611
vn 0.248129 -0.522694 0.815612
vn 0.255113 -0.536155 -0.804646
vn 0.261002 -0.524351 -0.810515
vn 0.261081 -0.524191 -0.810593
vn 0.261081 -0.524191 -0.810593
vn 0.261002 -0.524351 -0.810515
vn 0.263495 -0.519286 -0.812965
vn 0.363823 -0.717401 -0.594112
vn 0.390903 -0.642709 -0.658878
vn 0.397327 -0.621998 -0.674722
vn 0.397327 -0.621998 -0.674722
vn 0.390903 -0.642709 -0.658878
vn 0.404804 -0.596020 -0.693465
vn 0.404801 -0.597058 0.692573
vn 0.386288 -0.657744 0.646649
vn 0.395531 -0.628920 0.669339
vn 0.395531 -0.628920 0.669339
vn 0.386288 -0.657744 0.646649
vn 0.353100 -0.743378 0.568075
vn 0.303650 0.108915 0.946538
vn 0.303650 0.108915 0.946538
vn 0.303650 0.108915 0.946538
vn 0.303650 0.110333 -0.946374
vn 0.303650 0.110333 -0.946374
vn 0.303650 0.110333 -0.946374
vn 0.126952 0.266389 0.955469
vn 0.126952 0.266389 0.955469
vn 0.126952 0.266389 0.955469
vn 0.126956 0.267819 -0.955068
vn 0.126956 0.267819 -0.955068
vn 0.126956 0.267819 -0.955068
vn 0.126943 -0.267821 0.955069
vn 0.126943 -0.267821 0.955069
vn 0.126943 -0.267821 0.955069
vn 0.126954 -0.266389 -0.955468
vn 0.126954 -0.266389 -0.955468
vn 0.126954 -0.266389 -0.955468
vn 0.303650 -0.108915 -0.946538
vn 0.303650 -0.108915 -0.946538
vn 0.303650 -0.108915 -0.946538
vn 0.502271 -0.240415 0.830617
vn 0.517931 -0.234389 0.822684
vn 0.522690 -0.232528 0.820199
vn 0.522690 -0.232528 0.820199
vn 0.517931 -0.234389 0.822684
vn 0.578717 -0.209505 0.788159
vn 0.616187 -0.221884 -0.755699
vn 0.520105 -0.257524 -0.814354
vn 0.528807 -0.254547 -0.809672
vn 0.528807 -0.254547 -0.809672
vn 0.520105 -0.257524 -0.814354
vn 0.498837 -0.264608 -0.825315
vn 0.303650 -0.110323 0.946375
vn 0.303650 -0.110323 0.946375
vn 0.303650 -0.110323 0.946375
vn 0.691391 -0.367141 -0.622243
vn 0.772029 -0.336730 -0.539059
vn 0.737633 -0.350816 -0.576911
vn 0.737633 -0.350816 -0.576911
vn 0.772029 -0.336730 -0.539059
vn 0.801263 -0.323175 -0.503522
vn 0.801261 -0.323927 0.503042
vn 0.784960 -0.331712 0.523264
vn 0.764966 -0.340591 0.546649
vn 0.764966 -0.340591 0.546649
vn 0.784960 -0.331712 0.523264
vn 0.736567 -0.352086 0.577499
s off
g Tail1
usemtl None
f 4/1/1 9/2/2 5/3/3
f 5/3/4 9/2/5 10/4/6
f 4/1/7 3/5/8 9/2/9
f 9/2/10 3/5/11 8/6/12
f 2/7/13 7/8/14 3/5/15
f 3/5/16 7/8/17 8/6/18
f 2/7/19 1/9/20 7/8/21
f 7/8/22 1/9/23 6/10/24
f 6/10/25 26/11/26 7/8/27
f 7/8/28 26/11/29 27/12/30
f 10/4/31 9/2/32 30/13/33
f 30/13/34 9/2/35 29/14/36
f 9/2/37 8/6/38 29/14/39
f 29/14/40 8/6/41 28/15/42
f 7/8/43 27/12/44 8/6/45
f 8/6/46 27/12/47 28/15/48
f 33/16/49 32/17/50 12/18/51
f 12/18/52 32/17/53 11/19/54
f 35/20/55 14/21/56 36/22/57
f 36/22/58 14/21/59 15/23/60
f 34/24/61 13/25/62 35/20/63
f 35/20/64 13/25/65 14/21/66
f 34/24/67 33/16/68 13/25/69
f 13/25/70 33/16/71 12/18/72
f 1/9/73 31/26/74 6/10/75
f 42/27/76 5/3/77 10/4/78
f 6/10/79 31/26/80 26/11/81
f 42/27/82 10/4/83 30/13/84
f 32/17/85 31/26/86 11/19/87
f 42/27/88 36/22/89 15/23/90
f 42/27/91 15/23/92 5/3/93
f 11/19/94 1/9/95 12/18/96
f 12/18/97 1/9/98 2/7/99
f 15/23/100 14/21/101 5/3/102
f 5/3/103 14/21/104 4/1/105
f 11/19/106 31/26/107 1/9/108
f 14/21/109 13/25/110 4/1/111
f 4/1/112 13/25/113 3/5/114
f 12/18/115 2/7/116 13/25/117
f 13/25/118 2/7/119 3/5/120
f 25/28/121 24/29/122 20/30/123
f 20/30/124 24/29/125 19/31/126
f 19/32/127 24/33/128 18/34/129
f 18/34/130 24/33/131 23/35/132
f 23/36/133 22/37/134 18/38/135
f 18/38/136 22/37/137 17/39/138
f 17/40/139 22/41/140 16/42/141
f 16/42/142 22/41/143 21/43/144
f 27/12/145 26/11/146 22/44/147
f 22/44/148 26/11/149 21/45/150
f 25/46/151 30/13/152 24/47/153
f 24/47/154 30/13/155 29/14/156
f 24/48/157 29/14/158 23/49/159
f 23/49/160 29/14/161 28/15/162
f 28/15/163 27/12/164 23/50/165
f 23/50/166 27/12/167 22/51/168
f 33/16/169 38/52/170 32/17/171
f 32/17/172 38/52/173 37/53/174
f 41/54/175 40/55/176 36/22/177
f 36/22/178 40/55/179 35/20/180
f 40/56/181 39/57/182 35/20/183
f 35/20/184 39/57/185 34/24/186
f 34/24/187 39/58/188 33/16/189
f 33/16/190 39/58/191 38/59/192
f 16/60/193 21/61/194 31/26/195
f 42/27/196 25/62/197 20/63/198
f 21/64/199 26/11/200 31/26/201
f 42/27/202 30/13/203 25/65/204
f 32/17/205 37/66/206 31/26/207
f 42/27/208 41/67/209 36/22/210
f 42/27/211 20/68/212 41/69/213
f 17/70/214 16/71/215 38/72/216
f 38/72/217 16/71/218 37/73/219
f 41/74/220 20/75/221 40/76/222
f 40/76/223 20/75/224 19/77/225
f 37/78/226 16/79/227 31/26/228
f 40/80/229 19/81/230 39/82/231
f 39/82/232 19/81/233 18/83/234
f 18/84/235 17/85/236 39/86/237
f 39/86/238 17/85/239 38/87/240
