# This file uses centimeters as units for non-parametric coordinates.

mtllib PachirisuBody.mtl
g default
v -0.331224 1.114759 0.143195
v -0.439223 0.814775 0.113258
v -0.387604 0.148458 0.084338
v -0.216804 1.136464 0.023796
v -0.329697 0.852188 -0.092548
v -0.400960 0.624584 -0.159530
v -0.394195 0.341930 -0.168738
v -0.324674 0.166123 -0.068611
v -0.044895 1.149879 -0.049997
v -0.117007 0.875310 -0.198748
v -0.144586 0.642398 -0.319112
v -0.125346 0.370145 -0.306827
v -0.108804 0.176528 -0.142603
v 0.016243 1.159131 0.168063
v 0.077381 1.149879 -0.049997
v 0.149493 0.875310 -0.198748
v 0.177072 0.642398 -0.319112
v 0.157833 0.370145 -0.306827
v 0.141290 0.176528 -0.142603
v 0.249290 1.136464 0.023796
v 0.362183 0.852188 -0.092548
v 0.433446 0.624584 -0.159530
v 0.426681 0.372518 -0.177290
v 0.357160 0.166123 -0.068611
v 0.363710 1.114759 0.143195
v 0.471709 0.814775 0.113258
v 0.525712 0.590899 0.090488
v 0.515874 0.341122 0.062022
v 0.420090 0.148458 0.084338
v 0.249290 1.093054 0.262595
v 0.388185 0.777363 0.319065
v 0.422902 0.554909 0.362788
v 0.430539 0.315802 0.333679
v 0.359435 0.142249 0.294112
v 0.105259 1.079639 0.336388
v 0.158312 0.754240 0.446260
v 0.171573 0.535994 0.495025
v 0.157832 0.299875 0.429240
v 0.150822 0.164037 0.353641
v -0.017674 0.114713 0.105366
v -0.072773 1.079639 0.336388
v -0.125826 0.754240 0.446260
v -0.139087 0.535994 0.495025
v -0.125347 0.299875 0.429240
v -0.118336 0.164037 0.353640
v -0.216804 1.093054 0.262595
v -0.355699 0.777363 0.319065
v -0.390416 0.554909 0.362787
v -0.398053 0.315802 0.333679
v -0.326949 0.142249 0.294112
v -0.493227 0.590899 0.090487
v -0.483388 0.341122 0.062022
v -0.011196 0.113783 0.094888
v 0.005762 0.112945 0.085454
v 0.026724 0.112945 0.085454
v 0.043682 0.113783 0.094888
v 0.050160 0.114713 0.105366
v 0.043682 0.115644 0.115844
v 0.026724 0.116219 0.122320
v 0.005762 0.116219 0.122320
v -0.011196 0.115644 0.115844
v 0.016243 0.178941 0.368927
v 0.255129 0.148212 0.323876
v -0.222643 0.148212 0.323876
vt 0.082114 0.643541
vt 0.375040 0.643541
vt 0.375040 0.936467
vt 0.082114 0.643541
vt 0.375040 0.643541
vt 0.082114 0.790004
vt 0.082114 0.643541
vt 0.375040 0.643541
vt 0.082114 0.790004
vt 0.082114 0.643541
vt 0.228577 0.643541
vt 0.082114 0.936467
vt 0.082114 0.936467
vt 0.082114 0.790004
vt 0.375040 0.643541
vt 0.375040 0.936467
vt 0.375040 0.936467
vt 0.082114 0.936467
vt 0.375040 0.643541
vt 0.375040 0.936467
vt 0.082114 0.936467
vt 0.375040 0.643541
vt 0.375040 0.936467
vt 0.375040 0.936467
vt 0.375040 0.643541
vt 0.082114 0.936467
vt 0.082114 0.790004
vt 0.082114 0.790004
vt 0.082114 0.643541
vt 0.375040 0.643541
vt 0.082114 0.936467
vt 0.375040 0.936467
vt 0.082114 0.643541
vt 0.375040 0.643541
vt 0.082114 0.936467
vt 0.375040 0.936467
vt 0.082114 0.643541
vt 0.375040 0.643541
vt 0.082114 0.936467
vt 0.375040 0.936467
vt 0.082114 0.643541
vt 0.375040 0.643541
vt 0.082114 0.936467
vt 0.375040 0.936467
vt 0.082114 0.643541
vt 0.375040 0.643541
vt 0.082114 0.936467
vt 0.375040 0.936467
vt 0.576083 0.665206
vt 0.869009 0.665206
vt 0.576083 0.958133
vt 0.869009 0.958133
vt 0.576083 0.665206
vt 0.869009 0.665206
vt 0.576083 0.958133
vt 0.869009 0.958133
vt 0.576083 0.665206
vt 0.869009 0.665206
vt 0.576083 0.958133
vt 0.869009 0.958133
vt 0.082114 0.643541
vt 0.375040 0.643541
vt 0.082114 0.936467
vt 0.375040 0.936467
vt 0.375040 0.643541
vt 0.375040 0.936467
vt 0.082114 0.643541
vt 0.082114 0.936467
vt 0.082114 0.643541
vt 0.375040 0.643541
vt 0.082114 0.936467
vt 0.375040 0.936467
vt 0.375040 0.643541
vt 0.375040 0.936467
vt 0.082114 0.643541
vt 0.082114 0.936467
vt 0.375040 0.643541
vt 0.375040 0.936467
vt 0.082114 0.643541
vt 0.082114 0.936467
vt 0.375040 0.643541
vt 0.375040 0.936467
vt 0.082114 0.643541
vt 0.082114 0.936467
vt 0.375040 0.643541
vt 0.375040 0.936467
vt 0.082114 0.643541
vt 0.082114 0.936467
vt 0.375040 0.643541
vt 0.375040 0.936467
vt 0.082114 0.643541
vt 0.082114 0.936467
vt 0.375040 0.643541
vt 0.375040 0.936467
vt 0.082114 0.643541
vt 0.082114 0.936467
vt 0.375040 0.643541
vt 0.375040 0.936467
vt 0.082114 0.643541
vt 0.082114 0.936467
vt 0.082114 0.643541
vt 0.375040 0.643541
vt 0.082114 0.936467
vt 0.375040 0.936467
vt 0.375040 0.643541
vt 0.375040 0.936467
vt 0.082114 0.643541
vt 0.082114 0.936467
vt 0.082114 0.643541
vt 0.375040 0.643541
vt 0.082114 0.936467
vt 0.375040 0.936467
vt 0.375040 0.643541
vt 0.375040 0.936467
vt 0.082114 0.643541
vt 0.082114 0.936467
vt 0.082114 0.643541
vt 0.375040 0.643541
vt 0.082114 0.936467
vt 0.375040 0.936467
vt 0.082114 0.643541
vt 0.375040 0.643541
vt 0.082114 0.936467
vt 0.375040 0.936467
vt 0.082114 0.643541
vt 0.375040 0.643541
vt 0.082114 0.936467
vt 0.375040 0.936467
vt 0.082114 0.643541
vt 0.375040 0.643541
vt 0.082114 0.936467
vt 0.375040 0.936467
vt 0.082114 0.643541
vt 0.375040 0.643541
vt 0.082114 0.936467
vt 0.375040 0.936467
vt 0.375040 0.643541
vt 0.375040 0.936467
vt 0.082114 0.643541
vt 0.082114 0.936467
vt 0.082114 0.643541
vt 0.375040 0.643541
vt 0.082114 0.936467
vt 0.375040 0.936467
vt 0.375040 0.643541
vt 0.375040 0.936467
vt 0.082114 0.643541
vt 0.082114 0.936467
vt 0.375040 0.643541
vt 0.375040 0.936467
vt 0.082114 0.643541
vt 0.082114 0.936467
vt 0.082114 0.643541
vt 0.375040 0.643541
vt 0.082114 0.936467
vt 0.375040 0.936467
vt 0.375040 0.643541
vt 0.375040 0.936467
vt 0.228577 0.643541
vt 0.082114 0.936467
vt 0.082114 0.643541
vt 0.082114 0.643541
vt 0.375040 0.643541
vt 0.082114 0.936467
vt 0.375040 0.936467
vt 0.082114 0.643541
vt 0.375040 0.643541
vt 0.375040 0.936467
vt 0.375040 0.643541
vt 0.375040 0.936467
vt 0.082114 0.643541
vt 0.082114 0.936467
vt 0.375040 0.936467
vt 0.082114 0.936467
vt 0.375040 0.643541
vt 0.082114 0.643541
vt 0.082114 0.643541
vt 0.375040 0.643541
vt 0.375040 0.936467
vt 0.576083 0.665206
vt 0.869009 0.665206
vt 0.869009 0.958133
vt 0.082114 0.936467
vt 0.082114 0.643541
vt 0.375040 0.936467
vt 0.375040 0.643541
vt 0.082114 0.643541
vt 0.375040 0.643541
vt 0.375040 0.936467
vt 0.228577 0.643541
vt 0.082114 0.936467
vt 0.375040 0.936467
vt 0.375040 0.643541
vt 0.082114 0.643541
vt 0.375040 0.643541
vt 0.375040 0.936467
vt 0.082114 0.936467
vt 0.082114 0.643541
vt 0.375040 0.936467
vt 0.375040 0.643541
vt 0.082114 0.643541
vt 0.375040 0.643541
vt 0.375040 0.936467
vt 0.375040 0.936467
vt 0.082114 0.936467
vt 0.375040 0.643541
vt 0.082114 0.643541
vt 0.082114 0.643541
vt 0.375040 0.643541
vt 0.375040 0.936467
vt 0.375040 0.936467
vt 0.082114 0.936467
vt 0.375040 0.643541
vt 0.082114 0.643541
vt 0.082114 0.643541
vt 0.375040 0.643541
vt 0.375040 0.936467
vt 0.082114 0.643541
vt 0.375040 0.643541
vt 0.375040 0.936467
vt 0.228577 0.936467
vt 0.314666 0.908495
vt 0.142488 0.908495
vt 0.089283 0.835264
vt 0.367872 0.835264
vt 0.367872 0.744745
vt 0.089283 0.744745
vt 0.314666 0.671513
vt 0.142488 0.671513
vt 0.228577 0.643541
vt 0.375040 0.643541
vt 0.375040 0.936467
vt 0.082114 0.643541
vt 0.082114 0.936467
vt 0.082114 0.643541
vt 0.375040 0.643541
vt 0.082114 0.936467
vt 0.375040 0.936467
vt 0.082114 0.643541
vt 0.375040 0.643541
vt 0.375040 0.936467
vt 0.082114 0.643541
vt 0.375040 0.643541
vt 0.082114 0.936467
vt 0.375040 0.936467
vt 0.082114 0.936467
vt 0.082114 0.643541
vt 0.375040 0.936467
vt 0.375040 0.643541
vt 0.375040 0.936467
vt 0.082114 0.936467
vt 0.375040 0.643541
vt 0.082114 0.643541
vn 0.328894 -0.335961 0.882587
vn 0.328894 -0.335961 0.882587
vn 0.328894 -0.335961 0.882587
vn 0.045038 -0.487579 0.871917
vn 0.045038 -0.487579 0.871917
vn 0.045038 -0.487579 0.871917
vn -0.170877 -0.485871 0.857164
vn -0.170877 -0.485871 0.857165
vn -0.170877 -0.485871 0.857164
vn -0.079529 -0.966877 0.242535
vn -0.079529 -0.966877 0.242535
vn -0.079529 -0.966877 0.242535
vn 0.170887 -0.485864 0.857166
vn 0.170887 -0.485864 0.857166
vn 0.170887 -0.485864 0.857166
vn 0.000000 -0.446302 0.894883
vn 0.000000 -0.446302 0.894883
vn 0.000000 -0.446302 0.894883
vn -0.045044 -0.487584 0.871913
vn -0.045044 -0.487584 0.871913
vn -0.045044 -0.487584 0.871913
vn -0.328895 -0.335961 0.882586
vn -0.328895 -0.335961 0.882586
vn -0.328895 -0.335961 0.882586
vn 0.079527 -0.966878 0.242536
vn 0.079527 -0.966877 0.242536
vn 0.079527 -0.966878 0.242536
vn 0.000000 -0.969145 0.246492
vn 0.000000 -0.969145 0.246492
vn 0.000000 -0.969145 0.246492
vn -0.219693 -0.457621 0.861579
vn -0.219693 -0.457621 0.861579
vn -0.219693 -0.457621 0.861579
vn 0.219693 -0.457620 0.861580
vn 0.219693 -0.457620 0.861579
vn 0.219693 -0.457620 0.861579
vn -0.852868 0.346063 -0.390970
vn -0.760666 0.431219 -0.485220
vn -0.813710 0.385702 -0.434867
vn -0.671165 0.493081 -0.553542
vn -0.458305 0.017979 -0.888613
vn -0.488861 -0.024730 -0.872011
vn -0.492474 -0.029916 -0.869813
vn -0.523172 -0.075277 -0.848896
vn -0.506746 0.385580 -0.771062
vn -0.478329 0.414213 -0.774357
vn -0.475848 0.416644 -0.774582
vn -0.437161 0.453219 -0.776841
vn -0.432581 0.483289 -0.761122
vn -0.399176 0.501529 -0.767546
vn -0.415529 0.492733 -0.764558
vn -0.371603 0.515795 -0.771924
vn -0.246590 -0.551403 -0.796962
vn -0.280783 -0.602519 -0.747082
vn -0.284817 -0.608472 -0.740703
vn -0.300692 -0.631723 -0.714501
vn 0.000000 -0.045078 -0.998984
vn 0.000000 -0.045078 -0.998984
vn 0.000000 -0.045078 -0.998984
vn 0.000000 -0.045078 -0.998984
vn 0.000000 0.459099 -0.888385
vn 0.000000 0.459099 -0.888385
vn 0.000000 0.459099 -0.888385
vn 0.000000 0.459099 -0.888385
vn 0.000000 0.476348 -0.879257
vn 0.000000 0.476348 -0.879257
vn 0.000000 0.476348 -0.879257
vn 0.000000 0.476348 -0.879257
vn 0.000000 -0.646847 -0.762620
vn 0.000000 -0.646847 -0.762620
vn 0.000000 -0.646847 -0.762620
vn 0.000000 -0.646847 -0.762620
vn 0.343523 -0.624380 -0.701528
vn 0.309354 -0.583377 -0.750981
vn 0.312319 -0.586979 -0.746936
vn 0.255286 -0.516402 -0.817409
vn 0.433474 -0.071169 -0.898351
vn 0.476812 -0.020791 -0.878760
vn 0.485119 -0.010807 -0.874382
vn 0.530173 0.045426 -0.846672
vn 0.437161 0.453219 -0.776841
vn 0.478329 0.414213 -0.774357
vn 0.475848 0.416644 -0.774582
vn 0.506746 0.385580 -0.771062
vn 0.371603 0.515796 -0.771923
vn 0.399176 0.501529 -0.767546
vn 0.415529 0.492733 -0.764558
vn 0.432581 0.483288 -0.761121
vn 0.671165 0.493081 -0.553542
vn 0.760665 0.431219 -0.485220
vn 0.813710 0.385702 -0.434867
vn 0.852868 0.346063 -0.390970
vn 0.808855 -0.463187 -0.362232
vn 0.808736 -0.458085 -0.368923
vn 0.808709 -0.457155 -0.370135
vn 0.808252 -0.446316 -0.384098
vn 0.938121 -0.000778 -0.346307
vn 0.937645 0.001017 -0.347594
vn 0.937671 0.000920 -0.347524
vn 0.937153 0.002852 -0.348908
vn 0.844457 0.376513 -0.380958
vn 0.887264 0.310604 -0.341010
vn 0.884773 0.314823 -0.343602
vn 0.918308 0.252520 -0.304868
vn 0.900397 0.176759 0.397545
vn 0.903036 0.200033 0.380148
vn 0.902761 0.197251 0.382251
vn 0.904240 0.213776 0.369661
vn 0.872790 0.273901 0.404000
vn 0.738617 0.352958 0.574339
vn 0.818406 0.311183 0.483092
vn 0.626098 0.395654 0.671907
vn 0.880364 -0.410073 0.238326
vn 0.879097 -0.412002 0.239673
vn 0.879480 -0.411420 0.239266
vn 0.877429 -0.414522 0.241435
vn 0.953505 -0.070938 0.292911
vn 0.946608 -0.045324 0.319186
vn 0.944813 -0.039352 0.325238
vn 0.936024 -0.012920 0.351699
vn 0.451525 0.239408 0.859540
vn 0.445442 0.228804 0.865581
vn 0.446744 0.231064 0.864309
vn 0.441016 0.221151 0.869826
vn 0.429242 0.338629 0.837306
vn 0.415633 0.344664 0.841698
vn 0.423608 0.341143 0.839153
vn 0.400847 0.351079 0.846207
vn 0.334300 -0.103367 0.936781
vn 0.395168 -0.175788 0.901633
vn 0.408993 -0.192676 0.891965
vn 0.464692 -0.262642 0.845624
vn 0.000000 -0.268388 0.963311
vn 0.000000 -0.268388 0.963311
vn 0.000000 -0.268388 0.963311
vn 0.000000 -0.268388 0.963311
vn 0.000000 0.218063 0.975935
vn 0.000000 0.218063 0.975935
vn 0.000000 0.218063 0.975935
vn 0.000000 0.218063 0.975935
vn 0.000000 0.319909 0.947448
vn 0.000000 0.319909 0.947448
vn 0.000000 0.319909 0.947448
vn 0.000000 0.319909 0.947448
vn -0.464695 -0.262640 0.845623
vn -0.395170 -0.175785 0.901632
vn -0.408995 -0.192673 0.891964
vn -0.334301 -0.103363 0.936781
vn -0.441019 0.221151 0.869824
vn -0.445444 0.228802 0.865581
vn -0.446745 0.231062 0.864308
vn -0.451526 0.239404 0.859541
vn -0.400847 0.351079 0.846206
vn -0.415633 0.344664 0.841698
vn -0.423608 0.341143 0.839153
vn -0.429242 0.338629 0.837306
vn -0.936023 -0.012919 0.351702
vn -0.946607 -0.045325 0.319187
vn -0.944812 -0.039353 0.325240
vn -0.953505 -0.070940 0.292910
vn -0.918305 0.252525 -0.304871
vn -0.887262 0.310607 -0.341012
vn -0.884772 0.314825 -0.343604
vn -0.844458 0.376514 -0.380958
vn 0.009554 -0.986392 0.164134
vn 0.025047 -0.979705 0.198873
vn 0.034165 -0.981501 0.188383
vn -0.036718 -0.982357 0.183373
vn 0.079631 -0.969184 0.233113
vn -0.808251 -0.446316 -0.384098
vn -0.808833 -0.480097 -0.339552
vn -0.808861 -0.478609 -0.341579
vn -0.808052 -0.498409 -0.314072
vn -0.130356 0.989939 0.055037
vn -0.130356 0.989939 0.055037
vn -0.130356 0.989939 0.055037
vn -0.938259 0.002464 -0.345926
vn -0.935502 -0.004099 -0.353297
vn -0.935378 -0.004391 -0.353624
vn -0.932685 -0.010577 -0.360537
vn -0.159193 -0.987188 -0.010801
vn -0.097979 -0.988040 -0.119070
vn -0.081680 -0.985736 -0.147151
vn -0.081538 -0.985711 -0.147394
vn -0.085579 0.996164 -0.018272
vn -0.085579 0.996164 -0.018272
vn -0.085579 0.996164 -0.018272
vn 0.000000 0.999101 -0.042390
vn 0.000000 0.999101 -0.042391
vn 0.000000 0.999101 -0.042390
vn 0.159193 -0.987188 -0.010800
vn 0.081680 -0.985736 -0.147151
vn 0.097979 -0.988040 -0.119070
vn 0.081538 -0.985711 -0.147394
vn 0.085579 0.996164 -0.018274
vn 0.085579 0.996164 -0.018274
vn 0.085579 0.996164 -0.018274
vn -0.009554 -0.986392 0.164134
vn -0.034165 -0.981501 0.188383
vn -0.025047 -0.979705 0.198872
vn 0.036718 -0.982358 0.183372
vn -0.079629 -0.969184 0.233111
vn 0.130356 0.989938 0.055039
vn 0.130356 0.989939 0.055039
vn 0.130356 0.989938 0.055039
vn -0.025128 -0.994273 0.103879
vn -0.090560 -0.995886 -0.003100
vn -0.082055 -0.996568 0.010935
vn -0.090658 -0.995877 -0.003263
vn 0.142151 0.940946 0.307269
vn 0.142151 0.940946 0.307269
vn 0.142151 0.940946 0.307270
vn 0.000000 -0.963263 -0.268561
vn 0.000000 -0.963263 -0.268561
vn 0.000000 -0.963263 -0.268561
vn 0.000000 -0.963263 -0.268561
vn 0.107695 0.919763 0.377410
vn 0.107695 0.919763 0.377410
vn 0.107695 0.919763 0.377410
vn 0.025128 -0.994273 0.103877
vn 0.082055 -0.996568 0.010935
vn 0.090560 -0.995886 -0.003100
vn 0.090658 -0.995877 -0.003263
vn 0.000000 0.904238 0.427029
vn 0.000000 0.904238 0.427029
vn 0.000000 0.904238 0.427029
vn -0.107695 0.919763 0.377410
vn -0.107695 0.919763 0.377410
vn -0.107695 0.919763 0.377410
vn 0.000077 -0.996080 0.088457
vn -0.000005 -0.996080 0.088460
vn 0.000002 -0.996080 0.088456
vn -0.000003 -0.996080 0.088460
vn -0.000004 -0.996080 0.088460
vn 0.000004 -0.996080 0.088460
vn 0.000003 -0.996080 0.088460
vn 0.000005 -0.996080 0.088459
vn -0.000002 -0.996080 0.088457
vn -0.000077 -0.996080 0.088457
vn -0.626098 0.395654 0.671907
vn -0.738617 0.352958 0.574339
vn -0.818406 0.311182 0.483091
vn -0.872790 0.273901 0.404000
vn -0.877429 -0.414522 0.241434
vn -0.879097 -0.412002 0.239674
vn -0.879480 -0.411420 0.239266
vn -0.880364 -0.410073 0.238326
vn -0.142151 0.940945 0.307271
vn -0.142151 0.940945 0.307271
vn -0.142151 0.940945 0.307271
vn -0.904239 0.213774 0.369664
vn -0.903036 0.200033 0.380149
vn -0.902760 0.197252 0.382252
vn -0.900396 0.176761 0.397545
vn 0.154895 -0.969024 -0.192355
vn 0.036461 -0.969783 -0.241231
vn 0.054142 -0.970679 -0.234201
vn 0.036004 -0.969755 -0.241411
vn -0.154895 -0.969024 -0.192354
vn -0.054142 -0.970679 -0.234201
vn -0.036461 -0.969783 -0.241231
vn -0.036004 -0.969755 -0.241411
s off
g polySurface1
usemtl None
f 34/1/1 33/2/2 38/3/3
f 39/4/4 38/5/5 62/6/6
f 45/7/7 44/8/8 64/9/9
f 39/10/10 62/11/11 59/12/12
f 39/13/13 63/14/14 38/3/15
f 38/15/16 44/16/17 62/6/18
f 44/17/19 45/18/20 62/6/21
f 44/19/22 49/20/23 50/21/24
f 62/11/25 45/22/26 60/23/27
f 59/12/28 62/11/29 60/24/30
f 44/25/31 50/26/32 64/27/33
f 63/28/34 34/1/35 38/3/36
s 1
f 2/29/37 1/30/38 5/31/39
f 5/31/39 1/30/38 4/32/40
s 2
f 7/33/41 6/34/42 12/35/43
f 12/35/43 6/34/42 11/36/44
s 3
f 6/37/45 5/38/46 11/39/47
f 11/39/47 5/38/46 10/40/48
s 4
f 5/41/49 4/42/50 10/43/51
f 10/43/51 4/42/50 9/44/52
s 5
f 8/45/53 7/46/54 13/47/55
f 13/47/55 7/46/54 12/48/56
s 6
f 12/49/57 11/50/58 18/51/59
f 18/51/59 11/50/58 17/52/60
s 7
f 11/53/61 10/54/62 17/55/63
f 17/55/63 10/54/62 16/56/64
s 8
f 10/57/65 9/58/66 16/59/67
f 16/59/67 9/58/66 15/60/68
s 9
f 13/61/69 12/62/70 19/63/71
f 19/63/71 12/62/70 18/64/72
s 10
f 18/65/73 23/66/74 19/67/75
f 19/67/75 23/66/74 24/68/76
s 11
f 18/69/77 17/70/78 23/71/79
f 23/71/79 17/70/78 22/72/80
s 12
f 16/73/81 21/74/82 17/75/83
f 17/75/83 21/74/82 22/76/84
s 13
f 15/77/85 20/78/86 16/79/87
f 16/79/87 20/78/86 21/80/88
s 14
f 20/81/89 25/82/90 21/83/91
f 21/83/91 25/82/90 26/84/92
s 15
f 23/85/93 28/86/94 24/87/95
f 24/87/95 28/86/94 29/88/96
s 16
f 22/89/97 27/90/98 23/91/99
f 23/91/99 27/90/98 28/92/100
s 17
f 21/93/101 26/94/102 22/95/103
f 22/95/103 26/94/102 27/96/104
s 18
f 26/97/105 31/98/106 27/99/107
f 27/99/107 31/98/106 32/100/108
s 19
f 26/101/109 25/102/110 31/103/111
f 31/103/111 25/102/110 30/104/112
s 20
f 28/105/113 33/106/114 29/107/115
f 29/107/115 33/106/114 34/108/116
s 21
f 28/109/117 27/110/118 33/111/119
f 33/111/119 27/110/118 32/112/120
s 22
f 31/113/121 36/114/122 32/115/123
f 32/115/123 36/114/122 37/116/124
s 23
f 31/117/125 30/118/126 36/119/127
f 36/119/127 30/118/126 35/120/128
s 24
f 33/121/129 32/122/130 38/123/131
f 38/123/131 32/122/130 37/124/132
s 25
f 38/125/133 37/126/134 44/127/135
f 44/127/135 37/126/134 43/128/136
s 26
f 37/129/137 36/130/138 43/131/139
f 43/131/139 36/130/138 42/132/140
s 27
f 36/133/141 35/134/142 42/135/143
f 42/135/143 35/134/142 41/136/144
s 28
f 43/137/145 48/138/146 44/139/147
f 44/139/147 48/138/146 49/140/148
s 29
f 43/141/149 42/142/150 48/143/151
f 48/143/151 42/142/150 47/144/152
s 30
f 41/145/153 46/146/154 42/147/155
f 42/147/155 46/146/154 47/148/156
s 31
f 48/149/157 51/150/158 49/151/159
f 49/151/159 51/150/158 52/152/160
s 32
f 51/153/161 2/154/162 6/155/163
f 6/155/163 2/154/162 5/156/164
s 33
f 50/157/165 61/158/166 64/159/167
f 60/160/168 45/161/169 61/158/166
f 45/161/169 64/159/167 61/158/166
s 34
f 3/162/170 52/163/171 8/164/172
f 8/164/172 52/163/171 7/165/173
s off
f 1/166/174 14/167/175 4/168/176
s 35
f 51/169/177 6/170/178 52/171/179
f 52/171/179 6/170/178 7/172/180
s 36
f 53/173/181 40/174/182 8/175/183
f 3/176/184 8/175/183 40/174/182
s off
f 4/177/185 14/178/186 9/179/187
f 9/180/188 14/181/189 15/182/190
s 37
f 56/183/191 24/184/192 57/185/193
f 24/184/192 29/186/194 57/185/193
s off
f 15/187/195 14/188/196 20/189/197
s 38
f 34/1/198 63/190/199 58/191/200
f 59/192/201 58/191/200 39/193/202
f 63/190/199 39/193/202 58/191/200
s off
f 20/194/203 14/195/204 25/196/205
s 39
f 61/197/206 50/198/207 40/199/208
f 50/198/207 3/200/209 40/199/208
s off
f 25/201/210 14/202/211 30/203/212
s 40
f 55/204/213 54/205/214 19/206/215
f 13/207/216 19/206/215 54/205/214
s off
f 30/208/217 14/209/218 35/210/219
s 41
f 58/211/220 57/212/221 34/213/222
f 29/214/223 34/213/222 57/212/221
s off
f 35/215/224 14/216/225 41/217/226
f 41/218/227 14/219/228 46/220/229
s 42
f 40/221/230 53/222/231 61/223/232
f 61/223/232 53/222/231 60/224/233
f 53/222/231 54/225/234 60/224/233
f 54/225/234 55/226/235 60/224/233
f 60/224/233 55/226/235 59/227/236
f 55/226/235 56/228/237 59/227/236
f 59/227/236 56/228/237 58/229/238
f 56/228/237 57/230/239 58/229/238
s 43
f 46/231/240 1/232/241 47/233/242
f 47/233/242 1/232/241 2/234/243
s 44
f 50/235/244 49/236/245 3/237/246
f 3/237/246 49/236/245 52/238/247
s off
f 46/239/248 14/240/249 1/241/250
s 45
f 48/242/251 47/243/252 51/244/253
f 51/244/253 47/243/252 2/245/254
s 46
f 55/246/255 19/247/256 56/248/257
f 19/247/256 24/249/258 56/248/257
s 47
f 54/250/259 53/251/260 13/252/261
f 8/253/262 13/252/261 53/251/260
