# This file uses centimeters as units for non-parametric coordinates.

mtllib PachirisuRLeg.mtl
g default
v -0.030200 -0.158224 0.438547
v -0.009827 -0.078326 0.383600
v -0.025288 -0.158224 0.416985
v 0.132555 -0.022137 -0.044557
v 0.129651 -0.047993 -0.103810
v 0.150476 -0.059823 -0.053950
v 0.158935 -0.067742 0.003237
v 0.054781 -0.026382 -0.146863
v 0.070350 -0.157400 -0.197167
v 0.157145 -0.157018 -0.140595
v 0.180910 -0.156594 -0.075320
v -0.095157 -0.101316 -0.140494
v -0.095575 -0.158293 -0.157424
v -0.031181 -0.157867 -0.196522
v -0.029479 -0.047993 -0.151066
v 0.045854 -0.087836 0.386551
v 0.031282 -0.157972 0.417179
v 0.111861 -0.134680 0.293250
v 0.110283 -0.158116 0.298144
v -0.191105 -0.158116 0.206543
v -0.189527 -0.134679 0.201649
v -0.157246 -0.087836 0.326237
v -0.171819 -0.157970 0.356865
v 0.071212 -0.030969 0.226354
v 0.142416 -0.082423 0.083390
v -0.143608 -0.082422 -0.001550
v -0.124380 -0.028426 0.197925
v -0.055770 -0.022137 -0.100482
v 0.039371 0.007155 -0.081299
v -0.027531 -0.005680 0.229696
v -0.106377 -0.081346 -0.100568
v 0.174826 -0.155788 0.005163
v -0.135992 -0.158336 -0.088234
v -0.111378 -0.078326 0.353443
v -0.126838 -0.158223 0.386829
v -0.131750 -0.158223 0.408390
v -0.065508 -0.068816 0.380648
v -0.086770 -0.158475 0.438354
vt 0.075354 0.670436
vt 0.351665 0.946747
vt 0.351665 0.670436
vt 0.075354 0.946747
vt 0.351665 0.946747
vt 0.075354 0.670436
vt 0.351665 0.670436
vt 0.075354 0.670436
vt 0.075354 0.946747
vt 0.351665 0.670436
vt 0.351665 0.946747
vt 0.075354 0.946747
vt 0.351665 0.946747
vt 0.075354 0.670436
vt 0.351665 0.670436
vt 0.075354 0.946747
vt 0.351665 0.946747
vt 0.075354 0.670436
vt 0.351665 0.670436
vt 0.075354 0.946747
vt 0.351665 0.946747
vt 0.075354 0.670436
vt 0.351665 0.670436
vt 0.075354 0.670436
vt 0.075354 0.946747
vt 0.351665 0.946747
vt 0.075354 0.670436
vt 0.075354 0.946747
vt 0.351665 0.670436
vt 0.351665 0.946747
vt 0.075354 0.946747
vt 0.351665 0.946747
vt 0.075354 0.670436
vt 0.351665 0.670436
vt 0.075354 0.670436
vt 0.075354 0.946747
vt 0.351665 0.670436
vt 0.351665 0.946747
vt 0.075354 0.946747
vt 0.351665 0.946747
vt 0.075354 0.670436
vt 0.351665 0.670436
vt 0.075354 0.946747
vt 0.351665 0.946747
vt 0.075354 0.670436
vt 0.351665 0.670436
vt 0.075354 0.670436
vt 0.075354 0.946747
vt 0.351665 0.670436
vt 0.351665 0.946747
vt 0.075354 0.670436
vt 0.351665 0.946747
vt 0.351665 0.670436
vt 0.075354 0.670436
vt 0.075354 0.946747
vt 0.351665 0.670436
vt 0.351665 0.946747
vt 0.075354 0.946747
vt 0.351665 0.946747
vt 0.075354 0.670436
vt 0.351665 0.670436
vt 0.075354 0.670436
vt 0.351665 0.946747
vt 0.351665 0.670436
vt 0.075354 0.670436
vt 0.351665 0.946747
vt 0.351665 0.670436
vt 0.075354 0.670436
vt 0.351665 0.946747
vt 0.351665 0.670436
vt 0.075354 0.670436
vt 0.351665 0.946747
vt 0.351665 0.670436
vt 0.075354 0.670436
vt 0.351665 0.946747
vt 0.351665 0.670436
vt 0.075354 0.670436
vt 0.351665 0.946747
vt 0.351665 0.670436
vt 0.075354 0.670436
vt 0.351665 0.946747
vt 0.351665 0.670436
vt 0.075354 0.670436
vt 0.351665 0.946747
vt 0.351665 0.670436
vt 0.075354 0.670436
vt 0.075354 0.946747
vt 0.351665 0.670436
vt 0.351665 0.946747
vt 0.075354 0.670436
vt 0.351665 0.946747
vt 0.351665 0.670436
vt 0.075354 0.670436
vt 0.075354 0.946747
vt 0.351665 0.670436
vt 0.351665 0.946747
vt 0.075354 0.946747
vt 0.351665 0.946747
vt 0.075354 0.670436
vt 0.351665 0.670436
vt 0.075354 0.670436
vt 0.075354 0.946747
vt 0.351665 0.670436
vt 0.351665 0.946747
vt 0.075354 0.670436
vt 0.351665 0.946747
vt 0.351665 0.670436
vt 0.075354 0.670436
vt 0.075354 0.946747
vt 0.351665 0.670436
vt 0.351665 0.946747
vt 0.075354 0.946747
vt 0.351665 0.946747
vt 0.351665 0.670436
vt 0.132304 0.696821
vt 0.294715 0.696821
vt 0.082116 0.851283
vt 0.344903 0.851283
vt 0.213510 0.946747
vt 0.213510 0.670436
vt 0.266380 0.680952
vt 0.160640 0.680952
vt 0.311200 0.710900
vt 0.341148 0.755721
vt 0.115819 0.710900
vt 0.085870 0.755721
vt 0.075354 0.808591
vt 0.351665 0.808591
vt 0.341148 0.861461
vt 0.311200 0.906282
vt 0.266380 0.936230
vt 0.213510 0.946747
vt 0.160640 0.936230
vt 0.085870 0.861461
vt 0.115819 0.906282
vt 0.344903 0.851283
vt 0.213510 0.946747
vt 0.132304 0.696821
vt 0.082116 0.851283
vn 0.970570 -0.095426 0.221106
vn 0.970570 -0.095426 0.221106
vn 0.970570 -0.095426 0.221106
vn 0.893847 0.442729 -0.070909
vn 0.877282 0.455152 -0.152358
vn 0.875955 0.455867 -0.157760
vn 0.850533 0.465473 -0.244802
vn 0.540949 0.356719 -0.761660
vn 0.525930 0.368880 -0.766372
vn 0.518406 0.374855 -0.768596
vn 0.502186 0.387482 -0.773090
vn 0.892422 0.344903 -0.290904
vn 0.887000 0.335393 -0.317399
vn 0.889384 0.339451 -0.306218
vn 0.885409 0.332775 -0.324517
vn -0.420655 0.352374 -0.835992
vn -0.445688 0.322970 -0.834897
vn -0.441151 0.328394 -0.835191
vn -0.503794 0.249436 -0.827027
vn -0.044062 0.353520 -0.934389
vn -0.022388 0.370792 -0.928446
vn -0.029986 0.364773 -0.930613
vn -0.007629 0.382376 -0.923975
vn -0.004883 0.386342 0.922343
vn 0.003161 0.389871 0.920864
vn 0.009037 0.392429 0.919738
vn 0.019131 0.396785 0.917712
vn 0.831297 0.068178 0.551631
vn 0.830396 0.065195 0.553346
vn 0.831213 0.067900 0.551791
vn 0.828902 0.060321 0.556131
vn -0.959618 0.253055 0.122871
vn -0.960459 0.248344 0.125875
vn -0.967762 0.195231 0.159128
vn -0.971439 0.109379 0.210578
vn 0.800799 0.513123 0.308910
vn 0.818630 0.501453 0.279982
vn 0.829778 0.493427 0.260764
vn 0.839481 0.485915 0.243223
vn -0.851893 0.523164 0.024026
vn -0.852586 0.521653 -0.031223
vn -0.852621 0.521803 -0.027561
vn -0.851959 0.520305 -0.058719
vn -0.226013 0.974088 -0.008419
vn -0.272525 0.961425 -0.037310
vn -0.236900 0.971416 -0.015144
vn -0.285557 0.957282 -0.045481
vn -0.668893 0.572404 -0.474274
vn -0.590495 0.578237 -0.562990
vn -0.615376 0.577315 -0.536675
vn -0.564399 0.578395 -0.588993
vn 0.977385 0.173767 -0.120511
vn 0.977385 0.173767 -0.120511
vn 0.977385 0.173767 -0.120511
vn -0.156492 0.844120 -0.512808
vn -0.180029 0.850334 -0.494492
vn -0.172192 0.848347 -0.500656
vn -0.194931 0.853880 -0.482589
vn 0.410732 0.828110 -0.381489
vn 0.418954 0.833184 -0.360945
vn 0.423503 0.835861 -0.349259
vn 0.431391 0.840265 -0.328416
vn -0.880117 0.276747 -0.385752
vn -0.880117 0.276747 -0.385752
vn -0.880117 0.276747 -0.385752
vn -0.853172 0.154318 -0.498280
vn -0.853172 0.154318 -0.498280
vn -0.853172 0.154318 -0.498280
vn 0.955920 0.285306 0.069404
vn 0.955920 0.285306 0.069404
vn 0.955920 0.285306 0.069404
vn -0.982584 0.027790 -0.183730
vn -0.982584 0.027790 -0.183730
vn -0.982584 0.027790 -0.183730
vn 0.976406 -0.020860 0.214934
vn 0.976406 -0.020860 0.214934
vn 0.976406 -0.020860 0.214934
vn -0.974628 0.118822 -0.189689
vn -0.974628 0.118822 -0.189689
vn -0.974628 0.118822 -0.189689
vn 0.956926 0.216652 0.193274
vn 0.956926 0.216652 0.193274
vn 0.956926 0.216652 0.193274
vn 0.956882 0.177729 0.229760
vn 0.956882 0.177729 0.229760
vn 0.956882 0.177729 0.229760
vn 0.265634 0.959728 0.091436
vn 0.261736 0.960748 0.091966
vn 0.252675 0.963053 0.093189
vn 0.249984 0.963720 0.093551
vn -0.896454 0.291339 -0.333903
vn -0.896454 0.291339 -0.333903
vn -0.896454 0.291339 -0.333903
vn 0.687498 0.675915 0.265491
vn 0.787626 0.578568 0.211907
vn 0.801708 0.562157 0.203088
vn 0.805592 0.557483 0.200587
vn -0.660326 0.738515 -0.136258
vn -0.682427 0.710146 -0.173168
vn -0.666450 0.731067 -0.146234
vn -0.732070 0.626103 -0.268457
vn -0.498356 0.431852 0.751762
vn -0.510144 0.423861 0.748395
vn -0.517561 0.418748 0.746178
vn -0.526473 0.412515 0.743410
vn -0.970570 0.095410 -0.221114
vn -0.970570 0.095410 -0.221114
vn -0.970570 0.095410 -0.221114
vn -0.502646 0.573210 0.647130
vn -0.470970 0.560350 0.681318
vn -0.488198 0.567451 0.663070
vn -0.458938 0.555246 0.693598
vn 0.051187 0.557011 0.828926
vn 0.032010 0.552158 0.833125
vn 0.010615 0.546480 0.837405
vn -0.005273 0.542085 0.840307
vn -0.353226 0.891401 0.283965
vn -0.318512 0.895777 0.310055
vn -0.343589 0.889488 0.301259
vn -0.319338 0.894238 0.313626
vn -0.366722 0.876492 0.311894
vn 0.004433 -0.999990 0.001010
vn 0.001713 -0.999982 -0.005764
vn 0.000895 -1.000000 -0.000419
vn -0.004864 -0.999988 -0.001108
vn -0.001440 -0.999976 -0.006830
vn 0.004440 -0.999982 0.004157
vn -0.002539 -0.999964 -0.008075
vn 0.004738 -0.999989 0.000158
vn 0.003475 -0.999990 -0.002779
vn 0.006914 -0.999976 0.001004
vn 0.007469 -0.999969 0.002424
vn 0.007431 -0.999968 0.003048
vn 0.006966 -0.999971 0.003192
vn 0.004083 -0.999975 0.005824
vn -0.003203 -0.999950 0.009521
vn 0.000220 -0.999979 0.006416
vn 0.132314 0.902157 0.410617
vn 0.166360 0.907697 0.385240
vn 0.228216 0.890326 0.394001
vn 0.227539 0.893803 0.386448
vn 0.139562 0.925992 0.350802
s off
g polySurface6
usemtl None
f 1/1/1 3/2/2 2/3/3
s 1
f 7/4/4 6/5/5 4/6/6
f 4/6/6 6/5/5 5/7/7
s 2
f 8/8/8 5/9/9 9/10/10
f 9/10/10 5/9/9 10/11/11
s 3
f 6/12/12 11/13/13 5/14/14
f 5/14/14 11/13/13 10/15/15
s 4
f 15/16/16 14/17/17 12/18/18
f 12/18/18 14/17/17 13/19/19
s 5
f 8/20/20 9/21/21 15/22/22
f 15/22/22 9/21/21 14/23/23
s 6
f 3/24/24 17/25/25 2/3/26
f 2/3/26 17/25/25 16/26/27
s 7
f 17/27/28 19/28/29 16/29/30
f 16/29/30 19/28/29 18/30/31
s 8
f 23/31/32 22/32/33 20/33/34
f 20/33/34 22/32/33 21/34/35
s 9
f 16/35/36 18/36/37 24/37/38
f 24/37/38 18/36/37 25/38/39
s 10
f 22/39/40 27/40/41 21/41/42
f 21/41/42 27/40/41 26/42/43
s 11
f 30/43/44 29/44/45 27/45/46
f 27/45/46 29/44/45 28/46/47
s 12
f 31/47/48 28/48/49 12/49/50
f 12/49/50 28/48/49 15/50/51
s off
f 7/51/52 32/52/53 6/53/54
s 13
f 28/54/55 29/55/56 15/56/57
f 15/56/57 29/55/56 8/57/58
s 14
f 4/58/59 5/59/60 29/60/61
f 29/60/61 5/59/60 8/61/62
s off
f 33/62/63 31/63/64 12/64/65
f 33/65/66 12/66/67 13/67/68
f 6/68/69 32/69/70 11/70/71
f 33/71/72 20/72/73 21/73/74
f 19/74/75 32/75/76 18/76/77
f 33/77/78 21/78/79 26/79/80
f 18/80/81 32/81/82 25/82/83
f 25/83/84 32/84/85 7/85/86
s 15
f 4/86/87 29/87/88 24/88/89
f 24/88/89 29/87/88 30/89/90
s off
f 33/90/91 26/91/92 31/92/93
s 16
f 7/93/94 4/94/95 25/95/96
f 25/95/96 4/94/95 24/96/97
s 17
f 27/97/98 28/98/99 26/99/100
f 26/99/100 28/98/99 31/100/101
s 18
f 23/101/102 35/102/103 22/103/104
f 22/103/104 35/102/103 34/104/105
s off
f 35/105/106 36/106/107 34/107/108
s 19
f 34/108/109 36/109/110 37/110/111
f 37/110/111 36/109/110 38/111/112
s 20
f 2/112/113 37/113/114 1/1/115
f 1/1/115 37/113/114 38/114/116
s 21
f 37/115/117 30/116/118 34/117/119
f 30/116/118 27/118/120 34/117/119
f 34/117/119 27/118/120 22/119/121
s 22
f 1/120/122 38/121/123 3/122/124
f 36/123/125 35/124/126 38/121/123
f 38/121/123 35/124/126 3/122/124
f 17/125/127 3/122/124 19/126/128
f 3/122/124 35/124/126 19/126/128
f 19/126/128 35/124/126 32/127/129
f 35/124/126 23/128/130 32/127/129
f 23/128/130 20/129/131 32/127/129
f 20/129/131 33/130/132 32/127/129
f 33/130/132 13/131/133 32/127/129
f 13/131/133 14/132/134 32/127/129
f 14/132/134 9/133/135 32/127/129
f 32/127/129 9/133/135 11/134/136
f 9/133/135 10/135/137 11/134/136
s 23
f 37/136/138 2/137/139 30/116/140
f 30/116/140 2/137/139 24/138/141
f 24/138/141 2/137/139 16/139/142
