# This file uses centimeters as units for non-parametric coordinates.

mtllib LarvestaFLLeg.mtl
g default1
v 1.010416 -1.966426 -0.091501
v 1.110654 -1.898469 -0.093959
v 1.219422 -1.845503 -0.099944
v 0.980631 -2.003168 0.071366
v 1.179379 -2.004886 0.083201
v 1.275874 -1.832352 0.059440
v 1.033754 -1.985696 0.226196
v 1.134474 -1.917460 0.223719
v 1.243725 -1.864215 0.217714
v 0.235424 -1.390921 0.484461
v 0.634149 -1.018344 0.715532
v 1.140790 -0.867113 0.447887
v -0.272186 -0.472307 0.524438
v 0.139223 -0.169526 0.620626
v 0.599883 0.032237 0.489210
v -0.385840 -0.502466 0.044214
v 0.012233 -0.003075 -0.139064
v 0.653405 0.098799 0.002233
v -0.273895 -0.512696 -0.413297
v 0.184135 -0.330734 -0.576451
v 0.579011 -0.019239 -0.447751
v 0.228530 -1.382300 -0.362463
v 0.679504 -1.180461 -0.483594
v 1.085546 -0.886465 -0.397083
v 1.185867 -0.834639 0.109360
v 0.164454 -1.425588 0.150621
vt 0.583456 0.547838
vt 0.584292 0.562022
vt 0.524084 0.539810
vt 0.528106 0.540169
vt 0.586326 0.573077
vt 0.532159 0.575822
vt 0.476329 0.558058
vt 0.475487 0.543816
vt 0.478370 0.569171
vt 0.309187 0.745721
vt 0.387716 0.667957
vt 0.400146 0.777286
vt 0.341440 0.922885
vt 0.374130 0.859689
vt 0.386102 0.964997
vt 0.599621 0.957627
vt 0.537334 0.853395
vt 0.551601 0.978890
vt 0.748266 0.889238
vt 0.692818 0.851259
vt 0.704528 0.954253
vt 0.716709 0.711884
vt 0.675542 0.669756
vt 0.687308 0.773247
vt 0.515194 0.784063
vt 0.501171 0.660721
vn 0.210201 -0.892213 -0.399714
vn 0.441190 -0.792027 -0.421954
vn 0.218529 -0.969235 -0.113264
vn 0.497829 -0.864921 -0.063853
vn 0.643991 -0.641240 -0.417237
vn 0.723864 -0.676868 -0.133678
vn 0.441190 -0.792027 -0.421954
vn 0.497829 -0.864921 -0.063853
vn 0.218529 -0.969235 -0.113264
vn 0.497829 -0.864921 -0.063853
vn 0.195542 -0.925841 0.323390
vn 0.482913 -0.811750 0.328416
vn 0.723864 -0.676868 -0.133678
vn 0.724105 -0.620036 0.302038
vn 0.497829 -0.864921 -0.063853
vn 0.482913 -0.811750 0.328416
vn -0.007332 -0.453784 0.891082
vn 0.229738 -0.333238 0.914425
vn -0.164869 -0.274833 0.947251
vn 0.085609 -0.078620 0.993222
vn 0.450432 -0.188939 0.872590
vn 0.377112 0.038736 0.925357
vn 0.229738 -0.333238 0.914425
vn 0.085609 -0.078620 0.993222
vn -0.164869 -0.274833 0.947251
vn 0.085609 -0.078620 0.993222
vn -0.277862 -0.128023 0.952052
vn 0.015157 0.043550 0.998936
vn 0.377112 0.038736 0.925357
vn 0.306396 0.210005 0.928450
vn 0.085609 -0.078620 0.993222
vn 0.015157 0.043550 0.998936
vn -0.676919 0.705775 0.208957
vn -0.483714 0.850492 0.206603
vn -0.706922 0.707079 -0.017314
vn -0.500662 0.856691 -0.124172
vn -0.262320 0.945645 0.192208
vn -0.262230 0.964360 -0.035278
vn -0.483714 0.850492 0.206603
vn -0.500662 0.856691 -0.124172
vn -0.706922 0.707079 -0.017314
vn -0.500662 0.856691 -0.124172
vn -0.661504 0.607800 -0.439307
vn -0.457775 0.758893 -0.463168
vn -0.262230 0.964360 -0.035278
vn -0.224334 0.860730 -0.456967
vn -0.500662 0.856691 -0.124172
vn -0.457775 0.758893 -0.463168
vn -0.212966 -0.203459 -0.955641
vn 0.005781 -0.079592 -0.996811
vn -0.149261 -0.274941 -0.949805
vn 0.069401 -0.188356 -0.979646
vn 0.224153 0.049440 -0.973299
vn 0.254764 -0.041188 -0.966126
vn 0.005781 -0.079592 -0.996811
vn 0.069401 -0.188356 -0.979646
vn -0.149261 -0.274941 -0.949805
vn 0.069401 -0.188356 -0.979646
vn 0.014850 -0.441340 -0.897217
vn 0.170368 -0.358555 -0.917831
vn 0.254764 -0.041188 -0.966126
vn 0.320526 -0.264488 -0.909565
vn 0.069401 -0.188356 -0.979646
vn 0.170368 -0.358555 -0.917831
vn 0.850030 0.469558 -0.238673
vn 0.867023 0.494339 -0.062453
vn 0.909280 0.338370 -0.242314
vn 0.935739 0.349359 -0.048376
vn 0.909280 0.338370 -0.242314
vn 0.935739 0.349359 -0.048376
vn 0.968392 0.080993 -0.235917
vn 0.994821 0.078808 -0.064190
vn 0.867023 0.494339 -0.062453
vn 0.849001 0.503024 0.161753
vn 0.935739 0.349359 -0.048376
vn 0.916245 0.364703 0.165793
vn 0.994821 0.078808 -0.064190
vn 0.935739 0.349359 -0.048376
vn 0.984075 0.072386 0.162346
vn 0.916245 0.364703 0.165793
vn -0.843131 -0.510036 -0.170276
vn -0.759182 -0.626935 -0.174915
vn -0.862373 -0.506219 0.007408
vn -0.770112 -0.637578 0.020533
vn -0.759182 -0.626935 -0.174915
vn -0.565295 -0.806337 -0.173962
vn -0.770112 -0.637578 0.020533
vn -0.566146 -0.824304 -0.001133
vn -0.862373 -0.506219 0.007408
vn -0.770112 -0.637578 0.020533
vn -0.847388 -0.478439 0.230281
vn -0.760769 -0.605550 0.233538
vn -0.566146 -0.824304 -0.001133
vn -0.541553 -0.810281 0.223975
vn -0.770112 -0.637578 0.020533
vn -0.760769 -0.605550 0.233538
s 1
g polySurface2
usemtl None
f 1/1/1 2/2/2 4/4/3
f 4/4/3 2/2/2 5/3/4
s 2
f 3/5/5 6/6/6 2/2/7
f 2/2/7 6/6/6 5/3/8
s 3
f 4/4/9 5/3/10 7/8/11
f 7/8/11 5/3/10 8/7/12
s 4
f 6/6/13 9/9/14 5/3/15
f 5/3/15 9/9/14 8/7/16
s 5
f 7/8/17 8/7/18 10/11/19
f 10/11/19 8/7/18 11/10/20
s 6
f 9/9/21 12/12/22 8/7/23
f 8/7/23 12/12/22 11/10/24
s 7
f 10/11/25 11/10/26 13/14/27
f 13/14/27 11/10/26 14/13/28
s 8
f 12/12/29 15/15/30 11/10/31
f 11/10/31 15/15/30 14/13/32
s 9
f 13/14/33 14/13/34 16/17/35
f 16/17/35 14/13/34 17/16/36
s 10
f 15/15/37 18/18/38 14/13/39
f 14/13/39 18/18/38 17/16/40
s 11
f 16/17/41 17/16/42 19/20/43
f 19/20/43 17/16/42 20/19/44
s 12
f 18/18/45 21/21/46 17/16/47
f 17/16/47 21/21/46 20/19/48
s 13
f 19/20/49 20/19/50 22/23/51
f 22/23/51 20/19/50 23/22/52
s 14
f 21/21/53 24/24/54 20/19/55
f 20/19/55 24/24/54 23/22/56
s 15
f 22/23/57 23/22/58 1/1/59
f 1/1/59 23/22/58 2/2/60
s 16
f 24/24/61 3/5/62 23/22/63
f 23/22/63 3/5/62 2/2/64
s 17
f 21/21/65 18/18/66 24/24/67
f 24/24/67 18/18/66 25/25/68
s 18
f 24/24/69 25/25/70 3/5/71
f 3/5/71 25/25/70 6/6/72
s 19
f 18/18/73 15/15/74 25/25/75
f 25/25/75 15/15/74 12/12/76
s 20
f 6/6/77 25/25/78 9/9/79
f 9/9/79 25/25/78 12/12/80
s 21
f 19/20/81 22/23/82 16/17/83
f 16/17/83 22/23/82 26/26/84
s 22
f 22/23/85 1/1/86 26/26/87
f 26/26/87 1/1/86 4/4/88
s 23
f 16/17/89 26/26/90 13/14/91
f 13/14/91 26/26/90 10/11/92
s 24
f 4/4/93 7/8/94 26/26/95
f 26/26/95 7/8/94 10/11/96
