# This file uses centimeters as units for non-parametric coordinates.

mtllib TropiusBLLeg.mtl
g default1
v -0.430635 -2.523327 0.693835
v 0.743950 -2.526603 0.195279
v -0.695264 -2.536456 -0.493776
v 0.085093 -2.531591 -0.982382
v 0.335419 0.410711 0.355628
v -0.059174 0.211296 -1.192305
v -1.474919 -1.228798 -0.715125
v -0.872752 -1.302044 1.285794
v 0.582672 -1.010067 0.278066
v 0.332812 -1.051153 -1.186515
v -1.256741 -1.861312 -0.608058
v -0.872278 -1.892778 0.999464
v 0.653846 -2.092643 0.218969
v 0.026799 -2.107960 -1.121321
v -0.766227 -2.343262 -0.526477
v -0.426951 -2.342894 0.592637
v 0.465842 -2.529097 -0.597384
v 0.506361 0.373258 -0.412010
v 0.831519 -1.030610 -0.501676
v 0.398934 -2.100301 -0.569995
v 0.207978 -2.524965 0.444558
v -0.035138 -0.753340 1.540062
v 0.082457 -1.451423 1.339455
v 0.172059 -2.217768 0.500130
v -0.909082 -0.230350 -1.507049
v -0.530938 -1.456232 -1.392230
v -0.369714 -2.225611 -0.942718
v -0.305086 -2.534023 -0.941910
v 0.590679 -2.219718 0.538918
v 0.400059 -2.270146 0.718066
v 0.443326 -2.538363 0.681001
v 0.645200 -2.540001 0.515228
v -0.152678 -2.535534 0.871322
v 0.058019 -2.547865 0.812129
v 0.033581 -2.317781 0.798870
v -0.143265 -2.315444 0.849463
v 0.218176 1.084413 0.595553
v -0.090899 0.031241 1.491338
v -0.090899 1.411995 -0.369492
v -0.716547 -1.047327 1.611533
v -1.537676 -0.928873 -0.765895
v -1.251325 0.032300 -1.486892
v -0.399975 0.993472 -1.131392
vt 0.327393 0.833151
vt 0.325697 0.816665
vt 0.366923 0.841124
vt 0.358572 0.855279
vt 0.332680 0.801998
vt 0.369623 0.811271
vt 0.361894 0.785896
vt 0.371680 0.788525
vt 0.393642 0.840337
vt 0.392163 0.862162
vt 0.396763 0.810840
vt 0.399141 0.788364
vt 0.323210 0.810488
vt 0.334548 0.805136
vt 0.344513 0.792724
vt 0.358674 0.783267
vt 0.431055 0.833173
vt 0.431757 0.827654
vt 0.404193 0.806675
vt 0.405960 0.812977
vt 0.418682 0.853368
vt 0.420802 0.836934
vt 0.420600 0.810408
vt 0.427761 0.801897
vt 0.400466 0.793386
vt 0.418331 0.788203
vt 0.412114 0.785731
vt 0.397626 0.783259
vt 0.400094 0.779355
vt 0.413495 0.779302
vt 0.412086 0.779251
vt 0.396488 0.779200
vt 0.355152 0.779476
vt 0.126066 0.915065
vt 0.084581 0.897723
vt 0.093164 0.805484
vt 0.131552 0.804921
vt 0.372504 0.779407
vt 0.049092 0.806457
vt 0.062799 0.802217
vt 0.065870 0.881342
vt 0.054154 0.882145
vt 0.363828 0.779441
vt 0.200156 0.958766
vt 0.135048 0.915736
vt 0.147917 0.810092
vt 0.205642 0.809528
vt 0.090192 0.810655
vt 0.113627 0.872705
vt 0.367228 0.845193
vt 0.381503 0.839340
vt 0.399737 0.828743
vt 0.399175 0.805613
vt 0.380593 0.794854
vt 0.358399 0.813233
vt 0.348497 0.828569
vn 0.927475 0.061682 0.368761
vn 0.927475 0.061682 0.368761
vn 0.927475 0.061682 0.368761
vn 0.927475 0.061682 0.368761
vn 0.901531 0.099964 0.421009
vn 0.901531 0.099964 0.421009
vn 0.901531 0.099964 0.421009
vn 0.901531 0.099964 0.421009
vn 0.828752 -0.184635 0.528281
vn 0.828752 -0.184635 0.528281
vn 0.828752 -0.184635 0.528281
vn 0.828752 -0.184635 0.528281
vn 0.922333 0.386296 -0.008847
vn 0.922333 0.386296 -0.008847
vn 0.922333 0.386296 -0.008847
vn 0.922333 0.386296 -0.008847
vn 0.951383 0.177911 0.251433
vn 0.951383 0.177911 0.251433
vn 0.951383 0.177911 0.251433
vn 0.951383 0.177911 0.251433
vn 0.986200 -0.165554 -0.000837
vn 0.986200 -0.165554 -0.000837
vn 0.986200 -0.165554 -0.000837
vn 0.986200 -0.165554 -0.000837
vn 0.215278 -0.270882 0.938231
vn 0.215278 -0.270882 0.938231
vn 0.215278 -0.270882 0.938231
vn 0.215278 -0.270882 0.938231
vn -0.108357 -0.360023 0.926629
vn -0.108357 -0.360023 0.926629
vn -0.108357 -0.360023 0.926629
vn -0.108357 -0.360023 0.926629
vn 0.133100 -0.680050 0.720983
vn 0.133100 -0.680050 0.720983
vn 0.133100 -0.680050 0.720983
vn 0.133100 -0.680050 0.720983
vn -0.485565 -0.392077 -0.781346
vn -0.485565 -0.392077 -0.781346
vn -0.485565 -0.392077 -0.781346
vn -0.485565 -0.392077 -0.781346
vn 0.722139 0.403916 -0.561575
vn 0.722139 0.403916 -0.561575
vn 0.722139 0.403916 -0.561575
vn 0.722139 0.403916 -0.561575
vn 0.774333 0.226851 -0.590717
vn 0.774333 0.226851 -0.590717
vn 0.774333 0.226851 -0.590717
vn 0.774333 0.226851 -0.590717
vn -0.603120 -0.282589 -0.745916
vn -0.603120 -0.282589 -0.745916
vn -0.603120 -0.282589 -0.745916
vn -0.603120 -0.282589 -0.745916
vn 0.789303 -0.273342 -0.549805
vn 0.789303 -0.273342 -0.549805
vn 0.789303 -0.273342 -0.549805
vn 0.789303 -0.273342 -0.549805
vn -0.482343 -0.542973 -0.687405
vn -0.482343 -0.542973 -0.687405
vn -0.482343 -0.542973 -0.687405
vn -0.482343 -0.542973 -0.687405
vn 0.778733 0.032391 -0.626519
vn 0.778733 0.032391 -0.626519
vn 0.778733 0.032391 -0.626519
vn 0.778733 0.032391 -0.626519
vn -0.702433 -0.234763 -0.671918
vn -0.702433 -0.234763 -0.671918
vn -0.702433 -0.234763 -0.671918
vn -0.702433 -0.234763 -0.671918
vn -0.950903 0.006817 0.309414
vn -0.950903 0.006817 0.309414
vn -0.950903 0.006817 0.309414
vn -0.950903 0.006817 0.309414
vn -0.945410 -0.205995 0.252519
vn -0.945410 -0.205995 0.252519
vn -0.945410 -0.205995 0.252519
vn -0.945410 -0.205995 0.252519
vn -0.665607 -0.727060 0.168382
vn -0.665607 -0.727060 0.168382
vn -0.665607 -0.727060 0.168382
vn -0.665607 -0.727060 0.168382
vn -0.963943 -0.082962 0.252848
vn -0.963943 -0.082962 0.252848
vn -0.963943 -0.082962 0.252848
vn -0.963943 -0.082962 0.252848
vn 0.657572 0.031555 0.752731
vn 0.657572 0.031555 0.752731
vn 0.657572 0.031555 0.752731
vn 0.657572 0.031555 0.752731
vn 0.930379 0.187953 -0.314751
vn 0.930379 0.187953 -0.314751
vn 0.930379 0.187953 -0.314751
vn 0.930379 0.187953 -0.314751
vn 0.274538 0.083890 0.957910
vn 0.274538 0.083890 0.957910
vn 0.274538 0.083890 0.957910
vn 0.274538 0.083890 0.957910
vn 0.004076 -0.999976 0.005528
vn 0.004076 -0.999976 0.005528
vn 0.004076 -0.999976 0.005528
vn 0.004076 -0.999976 0.005528
vn 0.004076 -0.999976 0.005528
vn 0.004076 -0.999976 0.005528
vn 0.004076 -0.999976 0.005528
vn 0.205048 0.208253 -0.956340
vn 0.205048 0.208253 -0.956340
vn 0.205048 0.208253 -0.956340
vn 0.205048 0.208253 -0.956340
vn 0.273177 0.037958 -0.961215
vn 0.273177 0.037958 -0.961215
vn 0.273177 0.037958 -0.961215
vn 0.273177 0.037958 -0.961215
vn 0.136065 -0.278735 -0.950680
vn 0.136065 -0.278735 -0.950680
vn 0.136065 -0.278735 -0.950680
vn 0.136065 -0.278735 -0.950680
vn -0.230455 -0.219664 -0.947965
vn -0.230455 -0.219664 -0.947965
vn -0.230455 -0.219664 -0.947965
vn -0.230455 -0.219664 -0.947965
vn -0.025560 0.945912 0.323415
vn -0.025560 0.945912 0.323415
vn -0.025560 0.945912 0.323415
vn -0.025560 0.945912 0.323415
vn -0.699866 -0.206400 0.683803
vn -0.699866 -0.206400 0.683803
vn -0.699866 -0.206400 0.683803
vn -0.699866 -0.206400 0.683803
vn -0.027671 -0.998763 -0.041307
vn -0.027671 -0.998763 -0.041307
vn -0.027671 -0.998763 -0.041307
vn -0.027671 -0.998763 -0.041307
vn 0.947097 0.164284 0.275714
vn 0.947097 0.164284 0.275714
vn 0.947097 0.164284 0.275714
vn 0.947097 0.164284 0.275714
vn -0.036628 -0.997777 -0.055665
vn -0.036628 -0.997777 -0.055665
vn -0.036628 -0.997777 -0.055665
vn -0.036628 -0.997777 -0.055665
vn 0.910650 0.070235 0.407165
vn 0.910650 0.070235 0.407165
vn 0.910650 0.070235 0.407165
vn 0.910650 0.070235 0.407165
vn -0.125317 0.979028 0.160626
vn -0.125317 0.979028 0.160626
vn -0.125317 0.979028 0.160626
vn -0.125317 0.979028 0.160626
vn -0.596031 0.253568 0.761873
vn -0.596031 0.253568 0.761873
vn -0.596031 0.253568 0.761873
vn -0.596031 0.253568 0.761873
vn -0.808832 0.503107 0.304426
vn -0.809775 0.500559 0.306114
vn -0.810243 0.492972 0.316994
vn -0.816655 0.474260 0.328865
vn -0.814364 0.483271 0.321340
vn -0.836749 0.407769 0.365481
vn -0.732692 0.676485 -0.074375
s 1
g polySurface5
usemtl None
f 22/2/1 5/3/2 38/1/3
f 38/1/3 5/3/2 37/4/4
s 2
f 23/5/5 9/6/6 22/2/7
f 22/2/7 9/6/6 5/3/8
s 3
f 23/5/9 24/7/10 9/6/11
f 9/6/11 24/7/10 13/8/12
s 4
f 5/3/13 18/9/14 37/4/15
f 37/4/15 18/9/14 39/10/16
s 5
f 19/11/17 18/9/18 9/6/19
f 9/6/19 18/9/18 5/3/20
s 6
f 20/12/21 19/11/22 13/8/23
f 13/8/23 19/11/22 9/6/24
s 7
f 38/1/25 40/13/26 22/2/27
f 22/2/27 40/13/26 8/14/28
s 8
f 22/2/29 8/14/30 23/5/31
f 23/5/31 8/14/30 12/15/32
s 9
f 23/5/33 12/15/34 24/7/35
f 24/7/35 12/15/34 16/16/36
s 10
f 42/17/37 25/18/38 41/20/39
f 41/20/39 25/18/38 7/19/40
s 11
f 39/10/41 18/9/42 43/21/43
f 43/21/43 18/9/42 6/22/44
s 12
f 6/22/45 18/9/46 10/23/47
f 10/23/47 18/9/46 19/11/48
s 13
f 25/18/49 26/24/50 7/19/51
f 7/19/51 26/24/50 11/25/52
s 14
f 19/11/53 20/12/54 10/23/55
f 10/23/55 20/12/54 14/26/56
s 15
f 26/24/57 27/27/58 11/25/59
f 11/25/59 27/27/58 15/28/60
s 16
f 14/26/61 20/12/62 4/30/63
f 4/30/63 20/12/62 17/29/64
s 17
f 28/31/65 3/32/66 27/27/67
f 27/27/67 3/32/66 15/28/68
s 18
f 40/13/69 41/20/70 8/14/71
f 8/14/71 41/20/70 7/19/72
s 19
f 8/14/73 7/19/74 12/15/75
f 12/15/75 7/19/74 11/25/76
s 20
f 12/15/77 11/25/78 16/16/79
f 16/16/79 11/25/78 15/28/80
s 21
f 1/33/81 16/16/82 3/32/83
f 3/32/83 16/16/82 15/28/84
s 22
f 30/35/85 31/36/86 29/34/87
f 29/34/87 31/36/86 32/37/88
s 23
f 17/29/89 20/12/90 2/38/91
f 2/38/91 20/12/90 13/8/92
s 24
f 34/40/93 35/41/94 33/39/95
f 33/39/95 35/41/94 36/42/96
s 25
f 1/33/97 3/32/98 21/43/99
f 3/32/98 28/31/100 21/43/99
f 28/31/100 4/30/101 21/43/99
f 4/30/101 17/29/102 21/43/99
f 21/43/99 17/29/102 2/38/103
s 26
f 25/18/104 42/17/105 6/22/106
f 6/22/106 42/17/105 43/21/107
s 27
f 26/24/108 25/18/109 10/23/110
f 10/23/110 25/18/109 6/22/111
s 28
f 27/27/112 26/24/113 14/26/114
f 14/26/114 26/24/113 10/23/115
s 29
f 28/31/116 27/27/117 4/30/118
f 4/30/118 27/27/117 14/26/119
s 30
f 13/44/120 24/45/121 29/34/122
f 29/34/122 24/45/121 30/35/123
s 31
f 24/45/124 21/46/125 30/35/126
f 30/35/126 21/46/125 31/36/127
s 32
f 2/47/128 32/37/129 21/46/130
f 21/46/130 32/37/129 31/36/131
s 33
f 13/44/132 29/34/133 2/47/134
f 2/47/134 29/34/133 32/37/135
s 34
f 21/46/136 34/40/137 1/48/138
f 1/48/138 34/40/137 33/39/139
s 35
f 24/45/140 35/41/141 21/46/142
f 21/46/142 35/41/141 34/40/143
s 36
f 16/49/144 36/42/145 24/45/146
f 24/45/146 36/42/145 35/41/147
s 37
f 16/49/148 1/48/149 36/42/150
f 36/42/150 1/48/149 33/39/151
s 38
f 40/54/152 38/55/153 41/53/154
f 38/55/153 37/56/155 41/53/154
f 41/53/154 37/56/155 42/52/156
f 37/56/155 39/50/157 42/52/156
f 39/50/157 43/51/158 42/52/156
