# This file uses centimeters as units for non-parametric coordinates.

mtllib TropiusBRLeg.mtl
g default1
v 0.034724 -0.753340 1.540062
v -0.335833 0.410711 0.355628
v -0.082871 -1.451423 1.339455
v -0.583086 -1.010067 0.278066
v -0.172473 -2.217768 0.500130
v -0.654260 -2.092643 0.218969
v -0.506775 0.373258 -0.412010
v -0.831933 -1.030610 -0.501676
v -0.399348 -2.100301 -0.569995
v 0.872338 -1.302044 1.285794
v 0.871864 -1.892778 0.999464
v 0.426537 -2.342894 0.592637
v 0.908668 -0.230350 -1.507049
v 1.474505 -1.228798 -0.715125
v 0.058760 0.211296 -1.192305
v -0.333226 -1.051153 -1.186515
v 0.530524 -1.456232 -1.392230
v 1.256327 -1.861312 -0.608058
v -0.027213 -2.107960 -1.121321
v 0.369300 -2.225611 -0.942718
v 0.765813 -2.343262 -0.526477
v -0.466256 -2.529097 -0.597384
v -0.085507 -2.531591 -0.982382
v 0.304672 -2.534023 -0.941910
v 0.694850 -2.536456 -0.493776
v 0.430221 -2.523327 0.693835
v -0.591093 -2.219718 0.538918
v -0.400473 -2.270146 0.718066
v -0.443740 -2.538363 0.681001
v -0.645614 -2.540001 0.515228
v -0.744364 -2.526603 0.195279
v 0.152264 -2.535534 0.871322
v -0.058433 -2.547865 0.812129
v -0.033995 -2.317781 0.798870
v 0.142851 -2.315444 0.849463
v -0.208392 -2.524965 0.444558
v 0.090485 0.031241 1.491338
v -0.218590 1.084413 0.595553
v 0.090485 1.411995 -0.369492
v 0.716133 -1.047327 1.611533
v 1.250911 0.032300 -1.486892
v 1.537262 -0.928873 -0.765895
v 0.399561 0.993472 -1.131392
vt 0.327393 0.833151
vt 0.358572 0.855279
vt 0.366923 0.841124
vt 0.325697 0.816665
vt 0.369623 0.811271
vt 0.332680 0.801998
vt 0.371680 0.788525
vt 0.361894 0.785896
vt 0.392163 0.862162
vt 0.393642 0.840337
vt 0.396763 0.810840
vt 0.399141 0.788364
vt 0.334548 0.805136
vt 0.323210 0.810488
vt 0.344513 0.792724
vt 0.358674 0.783267
vt 0.431055 0.833173
vt 0.405960 0.812977
vt 0.404193 0.806675
vt 0.431757 0.827654
vt 0.418682 0.853368
vt 0.420802 0.836934
vt 0.420600 0.810408
vt 0.400466 0.793386
vt 0.427761 0.801897
vt 0.418331 0.788203
vt 0.397626 0.783259
vt 0.412114 0.785731
vt 0.413495 0.779302
vt 0.400094 0.779355
vt 0.396488 0.779200
vt 0.412086 0.779251
vt 0.355152 0.779476
vt 0.126066 0.915065
vt 0.131552 0.804921
vt 0.093164 0.805484
vt 0.084581 0.897723
vt 0.372504 0.779407
vt 0.049092 0.806457
vt 0.054154 0.882145
vt 0.065870 0.881342
vt 0.062799 0.802217
vt 0.363828 0.779441
vt 0.200156 0.958766
vt 0.135048 0.915736
vt 0.147917 0.810092
vt 0.205642 0.809528
vt 0.090192 0.810655
vt 0.113627 0.872705
vt 0.377739 0.793859
vt 0.396691 0.797505
vt 0.409121 0.815366
vt 0.423145 0.833928
vt 0.383348 0.837553
vt 0.363053 0.825579
vt 0.367320 0.807892
vn -0.927475 0.061682 0.368761
vn -0.927475 0.061682 0.368761
vn -0.927475 0.061682 0.368761
vn -0.927475 0.061682 0.368761
vn -0.901531 0.099964 0.421009
vn -0.901531 0.099964 0.421009
vn -0.901531 0.099964 0.421009
vn -0.901531 0.099964 0.421009
vn -0.828752 -0.184635 0.528281
vn -0.828752 -0.184635 0.528281
vn -0.828752 -0.184635 0.528281
vn -0.828752 -0.184635 0.528281
vn -0.922333 0.386296 -0.008847
vn -0.922333 0.386296 -0.008847
vn -0.922333 0.386296 -0.008847
vn -0.922333 0.386296 -0.008847
vn -0.951383 0.177911 0.251433
vn -0.951383 0.177911 0.251433
vn -0.951383 0.177911 0.251433
vn -0.951383 0.177911 0.251433
vn -0.986200 -0.165554 -0.000837
vn -0.986200 -0.165554 -0.000837
vn -0.986200 -0.165554 -0.000837
vn -0.986200 -0.165554 -0.000837
vn -0.215278 -0.270882 0.938231
vn -0.215278 -0.270882 0.938231
vn -0.215278 -0.270882 0.938231
vn -0.215278 -0.270882 0.938231
vn 0.108357 -0.360023 0.926629
vn 0.108357 -0.360023 0.926629
vn 0.108357 -0.360023 0.926629
vn 0.108357 -0.360023 0.926629
vn -0.133100 -0.680050 0.720983
vn -0.133100 -0.680050 0.720983
vn -0.133100 -0.680050 0.720983
vn -0.133100 -0.680050 0.720983
vn 0.485565 -0.392077 -0.781346
vn 0.485565 -0.392077 -0.781346
vn 0.485565 -0.392077 -0.781346
vn 0.485565 -0.392077 -0.781346
vn -0.722139 0.403916 -0.561575
vn -0.722139 0.403916 -0.561575
vn -0.722139 0.403916 -0.561575
vn -0.722139 0.403916 -0.561575
vn -0.774333 0.226851 -0.590717
vn -0.774333 0.226851 -0.590717
vn -0.774333 0.226851 -0.590717
vn -0.774333 0.226851 -0.590717
vn 0.603120 -0.282589 -0.745916
vn 0.603120 -0.282589 -0.745916
vn 0.603120 -0.282589 -0.745916
vn 0.603120 -0.282589 -0.745916
vn -0.789303 -0.273342 -0.549805
vn -0.789303 -0.273342 -0.549805
vn -0.789303 -0.273342 -0.549805
vn -0.789303 -0.273342 -0.549805
vn 0.482343 -0.542973 -0.687405
vn 0.482343 -0.542973 -0.687405
vn 0.482343 -0.542973 -0.687405
vn 0.482343 -0.542973 -0.687405
vn -0.778733 0.032391 -0.626519
vn -0.778733 0.032391 -0.626519
vn -0.778733 0.032391 -0.626519
vn -0.778733 0.032391 -0.626519
vn 0.702433 -0.234763 -0.671918
vn 0.702433 -0.234763 -0.671918
vn 0.702433 -0.234763 -0.671918
vn 0.702433 -0.234763 -0.671918
vn 0.950903 0.006817 0.309414
vn 0.950903 0.006817 0.309414
vn 0.950903 0.006817 0.309414
vn 0.950903 0.006817 0.309414
vn 0.945410 -0.205995 0.252519
vn 0.945410 -0.205995 0.252519
vn 0.945410 -0.205995 0.252519
vn 0.945410 -0.205995 0.252519
vn 0.665607 -0.727060 0.168382
vn 0.665607 -0.727060 0.168382
vn 0.665607 -0.727060 0.168382
vn 0.665607 -0.727060 0.168382
vn 0.963943 -0.082962 0.252848
vn 0.963943 -0.082962 0.252848
vn 0.963943 -0.082962 0.252848
vn 0.963943 -0.082962 0.252848
vn -0.657572 0.031555 0.752731
vn -0.657572 0.031555 0.752731
vn -0.657572 0.031555 0.752731
vn -0.657572 0.031555 0.752731
vn -0.930379 0.187953 -0.314751
vn -0.930379 0.187953 -0.314751
vn -0.930379 0.187953 -0.314751
vn -0.930379 0.187953 -0.314751
vn -0.274538 0.083890 0.957910
vn -0.274538 0.083890 0.957910
vn -0.274538 0.083890 0.957910
vn -0.274538 0.083890 0.957910
vn -0.004076 -0.999976 0.005528
vn -0.004076 -0.999976 0.005528
vn -0.004076 -0.999976 0.005528
vn -0.004076 -0.999976 0.005528
vn -0.004076 -0.999976 0.005528
vn -0.004076 -0.999976 0.005528
vn -0.004076 -0.999976 0.005528
vn -0.205048 0.208253 -0.956340
vn -0.205048 0.208253 -0.956340
vn -0.205048 0.208253 -0.956340
vn -0.205048 0.208253 -0.956340
vn -0.273177 0.037958 -0.961215
vn -0.273177 0.037958 -0.961215
vn -0.273177 0.037958 -0.961215
vn -0.273177 0.037958 -0.961215
vn -0.136065 -0.278735 -0.950680
vn -0.136065 -0.278735 -0.950680
vn -0.136065 -0.278735 -0.950680
vn -0.136065 -0.278735 -0.950680
vn 0.230455 -0.219664 -0.947965
vn 0.230455 -0.219664 -0.947965
vn 0.230455 -0.219664 -0.947965
vn 0.230455 -0.219664 -0.947965
vn 0.025560 0.945912 0.323415
vn 0.025560 0.945912 0.323415
vn 0.025560 0.945912 0.323415
vn 0.025560 0.945912 0.323415
vn 0.699866 -0.206400 0.683803
vn 0.699866 -0.206400 0.683803
vn 0.699866 -0.206400 0.683803
vn 0.699866 -0.206400 0.683803
vn 0.027671 -0.998763 -0.041307
vn 0.027671 -0.998763 -0.041307
vn 0.027671 -0.998763 -0.041307
vn 0.027671 -0.998763 -0.041307
vn -0.947097 0.164284 0.275714
vn -0.947097 0.164284 0.275714
vn -0.947097 0.164284 0.275714
vn -0.947097 0.164284 0.275714
vn 0.036628 -0.997777 -0.055665
vn 0.036628 -0.997777 -0.055665
vn 0.036628 -0.997777 -0.055665
vn 0.036628 -0.997777 -0.055665
vn -0.910650 0.070235 0.407165
vn -0.910650 0.070235 0.407165
vn -0.910650 0.070235 0.407165
vn -0.910650 0.070235 0.407165
vn 0.125317 0.979028 0.160626
vn 0.125317 0.979028 0.160626
vn 0.125317 0.979028 0.160626
vn 0.125317 0.979028 0.160626
vn 0.596031 0.253568 0.761873
vn 0.596031 0.253568 0.761873
vn 0.596031 0.253568 0.761873
vn 0.596031 0.253568 0.761873
vn 0.808832 0.503107 0.304426
vn 0.811137 0.494382 0.312480
vn 0.809775 0.500559 0.306113
vn 0.810343 0.471104 0.348434
vn 0.828614 0.457488 0.322650
vn 0.845742 0.521772 0.111692
vn 0.755108 0.522248 0.396319
s 1
g polySurface6
usemtl None
f 38/2/1 2/3/2 37/1/3
f 37/1/3 2/3/2 1/4/4
s 2
f 2/3/5 4/5/6 1/4/7
f 1/4/7 4/5/6 3/6/8
s 3
f 3/6/9 4/5/10 5/8/11
f 5/8/11 4/5/10 6/7/12
s 4
f 2/3/13 38/2/14 7/10/15
f 7/10/15 38/2/14 39/9/16
s 5
f 2/3/17 7/10/18 4/5/19
f 4/5/19 7/10/18 8/11/20
s 6
f 4/5/21 8/11/22 6/7/23
f 6/7/23 8/11/22 9/12/24
s 7
f 10/13/25 40/14/26 1/4/27
f 1/4/27 40/14/26 37/1/28
s 8
f 11/15/29 10/13/30 3/6/31
f 3/6/31 10/13/30 1/4/32
s 9
f 12/16/33 11/15/34 5/8/35
f 5/8/35 11/15/34 3/6/36
s 10
f 41/17/37 42/18/38 13/20/39
f 13/20/39 42/18/38 14/19/40
s 11
f 15/22/41 7/10/42 43/21/43
f 43/21/43 7/10/42 39/9/44
s 12
f 15/22/45 16/23/46 7/10/47
f 7/10/47 16/23/46 8/11/48
s 13
f 13/20/49 14/19/50 17/25/51
f 17/25/51 14/19/50 18/24/52
s 14
f 19/26/53 9/12/54 16/23/55
f 16/23/55 9/12/54 8/11/56
s 15
f 17/25/57 18/24/58 20/28/59
f 20/28/59 18/24/58 21/27/60
s 16
f 19/26/61 23/29/62 9/12/63
f 9/12/63 23/29/62 22/30/64
s 17
f 21/27/65 25/31/66 20/28/67
f 20/28/67 25/31/66 24/32/68
s 18
f 14/19/69 42/18/70 10/13/71
f 10/13/71 42/18/70 40/14/72
s 19
f 18/24/73 14/19/74 11/15/75
f 11/15/75 14/19/74 10/13/76
s 20
f 21/27/77 18/24/78 12/16/79
f 12/16/79 18/24/78 11/15/80
s 21
f 26/33/81 25/31/82 12/16/83
f 12/16/83 25/31/82 21/27/84
s 22
f 30/35/85 29/36/86 27/34/87
f 27/34/87 29/36/86 28/37/88
s 23
f 22/30/89 31/38/90 9/12/91
f 9/12/91 31/38/90 6/7/92
s 24
f 35/40/93 34/41/94 32/39/95
f 32/39/95 34/41/94 33/42/96
s 25
f 26/33/97 36/43/98 25/31/99
f 25/31/99 36/43/98 24/32/100
f 24/32/100 36/43/98 23/29/101
f 23/29/101 36/43/98 22/30/102
f 36/43/98 31/38/103 22/30/102
s 26
f 13/20/104 15/22/105 41/17/106
f 41/17/106 15/22/105 43/21/107
s 27
f 17/25/108 16/23/109 13/20/110
f 13/20/110 16/23/109 15/22/111
s 28
f 20/28/112 19/26/113 17/25/114
f 17/25/114 19/26/113 16/23/115
s 29
f 24/32/116 23/29/117 20/28/118
f 20/28/118 23/29/117 19/26/119
s 30
f 6/44/120 27/34/121 5/45/122
f 5/45/122 27/34/121 28/37/123
s 31
f 5/45/124 28/37/125 36/46/126
f 36/46/126 28/37/125 29/36/127
s 32
f 29/36/128 30/35/129 36/46/130
f 36/46/130 30/35/129 31/47/131
s 33
f 30/35/132 27/34/133 31/47/134
f 31/47/134 27/34/133 6/44/135
s 34
f 32/39/136 33/42/137 26/48/138
f 26/48/138 33/42/137 36/46/139
s 35
f 33/42/140 34/41/141 36/46/142
f 36/46/142 34/41/141 5/45/143
s 36
f 34/41/144 35/40/145 5/45/146
f 5/45/146 35/40/145 12/49/147
s 37
f 12/49/148 35/40/149 26/48/150
f 26/48/150 35/40/149 32/39/151
s 38
f 40/53/152 42/54/153 37/52/154
f 37/52/154 42/54/153 38/51/155
f 38/51/155 42/54/153 39/50/156
f 39/50/156 42/54/153 43/56/157
f 42/54/153 41/55/158 43/56/157
