# This file uses centimeters as units for non-parametric coordinates.

mtllib GloomLLeg.mtl
g default
v 0.648550 -6.273647 -1.116450
v 0.648550 -6.273647 1.013650
v -0.673800 -6.273647 1.013650
v -0.673800 -6.273647 -1.116450
v -1.233100 -5.714346 1.013650
v -1.233100 -4.858096 1.013650
v -1.233100 -4.858096 -1.116450
v -1.233100 -5.714346 -1.116450
v 1.207800 -5.714346 1.013650
v 1.207800 -4.858096 1.013650
v 1.090550 -5.263546 5.671950
v 1.090550 -5.872446 5.671950
v 0.585000 -6.270096 5.671950
v -0.610250 -6.270096 5.671950
v -0.610250 -4.865847 5.671950
v 0.585000 -4.865847 5.671950
v 0.421650 -4.298846 0.415050
v -0.446900 -4.298846 0.415050
v -1.115800 -5.872446 5.671950
v -1.115800 -5.263546 5.671950
v 1.207800 -5.714346 -1.116450
v 1.207800 -4.858096 -1.116450
v -0.446900 -4.298846 -0.517850
v 0.421650 -4.298846 -0.517850
v 0.337650 -5.979447 5.905850
v -0.362900 -5.979447 5.905850
v -0.362900 -5.156496 5.905850
v 0.337650 -5.156496 5.905850
v -0.659150 -5.746396 5.905850
v -0.659150 -5.389547 5.905850
v 0.633900 -5.389547 5.905850
v 0.633900 -5.746396 5.905850
v -0.012650 -5.567996 5.951600
v -0.369600 -5.819347 -1.398400
v 0.344350 -5.819347 -1.398400
v 0.344350 -4.753097 -1.224050
v -0.369600 -4.753097 -1.224050
v -0.671550 -5.055097 -1.398400
v -0.671550 -5.517396 -1.398400
v 0.646300 -5.517396 -1.398400
v 0.646300 -5.055097 -1.398400
v -0.012650 -5.286247 -1.398400
v -0.446900 0.170853 0.415050
v -0.446900 0.170853 -0.517850
v 0.421650 0.170853 0.415050
v 0.421650 0.170853 -0.517850
vt 0.782600 0.972100
vt 0.782600 0.904600
vt 0.782600 0.904600
vt 0.782600 0.904600
vt 0.782600 0.972100
vt 0.761100 0.904600
vt 0.728200 0.904600
vt 0.728200 0.972100
vt 0.761100 0.972100
vt 0.761100 0.904600
vt 0.728200 0.904600
vt 0.743800 0.756800
vt 0.767200 0.756800
vt 0.761100 0.904600
vt 0.782400 0.756800
vt 0.782400 0.756800
vt 0.782600 0.904600
vt 0.782600 0.904600
vt 0.728500 0.756800
vt 0.728500 0.756800
vt 0.706800 0.923600
vt 0.706800 0.923600
vt 0.767200 0.756800
vt 0.743800 0.756800
vt 0.767200 0.756800
vt 0.761100 0.972200
vt 0.728200 0.972200
vt 0.728200 0.904600
vt 0.728200 0.904600
vt 0.761100 0.904600
vt 0.782600 0.972200
vt 0.761100 0.904600
vt 0.761100 0.904600
vt 0.782400 0.756800
vt 0.767200 0.756800
vt 0.782600 0.904600
vt 0.782400 0.756800
vt 0.706800 0.953200
vt 0.706800 0.923600
vt 0.728500 0.756800
vt 0.728200 0.904600
vt 0.728200 0.904600
vt 0.728500 0.756800
vt 0.761100 0.904600
vt 0.782600 0.904600
vt 0.782600 0.972100
vt 0.782600 0.904600
vt 0.706800 0.923600
vt 0.743800 0.756800
vt 0.743800 0.756800
vt 0.706800 0.923600
vt 0.728200 0.904600
vt 0.706800 0.953200
vt 0.782400 0.756800
vt 0.771300 0.749400
vt 0.771300 0.749400
vt 0.782400 0.756800
vt 0.728500 0.756800
vt 0.739700 0.749400
vt 0.739700 0.749400
vt 0.728500 0.756800
vt 0.743800 0.756800
vt 0.767200 0.756800
vt 0.762300 0.749400
vt 0.748600 0.749400
vt 0.743800 0.756800
vt 0.748600 0.749400
vt 0.748600 0.749400
vt 0.762300 0.749400
vt 0.767200 0.756800
vt 0.782400 0.756800
vt 0.771300 0.749400
vt 0.771300 0.749400
vt 0.767200 0.756800
vt 0.762300 0.749400
vt 0.762300 0.749400
vt 0.743800 0.756800
vt 0.728500 0.756800
vt 0.739700 0.749400
vt 0.739700 0.749400
vt 0.748600 0.749400
vt 0.771300 0.749400
vt 0.755500 0.747900
vt 0.739700 0.749400
vt 0.762300 0.749400
vt 0.748600 0.749400
vt 0.771300 0.749400
vt 0.762300 0.749400
vt 0.748600 0.749400
vt 0.739700 0.749400
vt 0.782600 0.972100
vt 0.765100 0.981100
vt 0.765100 0.981100
vt 0.706800 0.953200
vt 0.724200 0.975600
vt 0.724200 0.975600
vt 0.735800 0.981100
vt 0.753500 0.981100
vt 0.753500 0.981100
vt 0.753500 0.981100
vt 0.735800 0.981100
vt 0.782600 0.972100
vt 0.782600 0.972100
vt 0.765100 0.981100
vt 0.765100 0.981100
vt 0.753500 0.981100
vt 0.724200 0.975600
vt 0.724200 0.975600
vt 0.706800 0.953200
vt 0.735800 0.981100
vt 0.735800 0.981100
vt 0.706800 0.953200
vt 0.765100 0.981100
vt 0.744700 0.981100
vt 0.724200 0.975600
vt 0.735800 0.981100
vt 0.753500 0.981100
vt 0.753500 0.981100
vt 0.765100 0.981100
vt 0.724200 0.975600
vt 0.735800 0.981100
vt 0.706800 0.923600
vt 0.535200 0.923600
vt 0.535100 0.953200
vt 0.706800 0.923600
vt 0.535200 0.923600
vt 0.535200 0.923600
vt 0.706800 0.923600
vt 0.706800 0.953200
vt 0.535100 0.953200
vt 0.535100 0.953200
vt 0.535100 0.923600
vt 0.706800 0.953200
vt 0.535100 0.953200
vt 0.706800 0.953200
vn 0.000000 -1.000000 0.000000
vn 0.000000 -1.000000 0.000000
vn 0.000000 -1.000000 0.000000
vn 0.000000 -1.000000 0.000000
vn 0.000000 -1.000000 0.000000
vn 0.000000 -1.000000 0.000000
vn -1.000000 0.000000 0.000000
vn -1.000000 0.000000 0.000000
vn -1.000000 0.000000 0.000000
vn -1.000000 0.000000 0.000000
vn -1.000000 0.000000 0.000000
vn -1.000000 0.000000 0.000000
vn 0.999682 0.000000 0.025200
vn 0.999682 0.000000 0.025200
vn 0.999682 0.000000 0.025200
vn 0.999682 0.000000 0.025200
vn 0.999682 0.000000 0.025200
vn 0.999682 0.000000 0.025200
vn 0.000000 -1.000000 0.000900
vn 0.000000 -1.000000 0.000900
vn 0.000000 -1.000000 0.000900
vn 0.000000 -1.000000 0.000900
vn 0.000000 -1.000000 0.000900
vn 0.000000 -1.000000 0.000900
vn 0.000000 0.991593 0.129399
vn 0.000000 0.991593 0.129399
vn 0.000000 0.991593 0.129399
vn 0.000000 0.991593 0.129399
vn 0.000000 0.991593 0.129399
vn 0.000000 0.991593 0.129399
vn -0.999682 0.000000 0.025200
vn -0.999682 0.000000 0.025200
vn -0.999682 0.000000 0.025200
vn -0.999682 0.000000 0.025200
vn -0.999682 0.000000 0.025200
vn -0.999682 0.000000 0.025200
vn 1.000000 0.000000 0.000000
vn 1.000000 0.000000 0.000000
vn 1.000000 0.000000 0.000000
vn 1.000000 0.000000 0.000000
vn 1.000000 0.000000 0.000000
vn 1.000000 0.000000 0.000000
vn 0.770789 -0.637091 0.000000
vn 0.770789 -0.637091 0.000000
vn 0.770789 -0.637091 0.000000
vn 0.770789 -0.637091 0.000000
vn 0.770789 -0.637091 0.000000
vn 0.770789 -0.637091 0.000000
vn -0.689387 -0.724287 -0.012400
vn -0.689387 -0.724287 -0.012400
vn -0.689387 -0.724287 -0.012400
vn -0.770790 -0.636992 0.011100
vn -0.770790 -0.636992 0.011100
vn -0.770790 -0.636992 0.011100
vn -0.652388 0.757886 0.000000
vn -0.652388 0.757886 0.000000
vn -0.652388 0.757886 0.000000
vn -0.652388 0.757886 0.000000
vn -0.652388 0.757886 0.000000
vn -0.652388 0.757886 0.000000
vn 0.686414 0.721214 0.093202
vn 0.686414 0.721214 0.093202
vn 0.686414 0.721214 0.093202
vn 0.612807 0.785809 0.083501
vn 0.612807 0.785809 0.083501
vn 0.612807 0.785809 0.083501
vn 0.770821 -0.637017 -0.006700
vn 0.770821 -0.637017 -0.006700
vn 0.770821 -0.637017 -0.006700
vn 0.689405 -0.724306 0.010100
vn 0.689405 -0.724306 0.010100
vn 0.689405 -0.724306 0.010100
vn -0.770789 -0.637091 0.000000
vn -0.770789 -0.637091 0.000000
vn -0.770789 -0.637091 0.000000
vn -0.770789 -0.637091 0.000000
vn -0.770789 -0.637091 0.000000
vn -0.770789 -0.637091 0.000000
vn -0.605074 0.790066 0.098396
vn -0.605074 0.790066 0.098396
vn -0.605074 0.790066 0.098396
vn -0.687610 0.722411 0.072901
vn -0.687610 0.722411 0.072901
vn -0.687610 0.722411 0.072901
vn 0.652388 0.757886 0.000000
vn 0.652388 0.757886 0.000000
vn 0.652388 0.757886 0.000000
vn 0.652388 0.757886 0.000000
vn 0.652388 0.757886 0.000000
vn 0.652388 0.757886 0.000000
vn 0.000000 -0.553892 0.832588
vn 0.000000 -0.553892 0.832588
vn 0.000000 -0.553892 0.832588
vn 0.000000 -0.553892 0.832588
vn 0.000000 -0.553892 0.832588
vn 0.000000 -0.553892 0.832588
vn 0.000000 0.553892 0.832588
vn 0.000000 0.553892 0.832588
vn 0.000000 0.553892 0.832588
vn 0.000000 0.553892 0.832588
vn 0.000000 0.553892 0.832588
vn 0.000000 0.553892 0.832588
vn -0.455913 0.000000 0.890024
vn -0.455913 0.000000 0.890024
vn -0.455913 0.000000 0.890024
vn -0.455913 0.000000 0.890024
vn -0.455913 0.000000 0.890024
vn -0.455913 0.000000 0.890024
vn 0.455913 0.000000 0.890024
vn 0.455913 0.000000 0.890024
vn 0.455913 0.000000 0.890024
vn 0.455913 0.000000 0.890024
vn 0.455913 0.000000 0.890024
vn 0.455913 0.000000 0.890024
vn -0.332297 -0.349096 0.876191
vn -0.332297 -0.349096 0.876191
vn -0.332297 -0.349096 0.876191
vn -0.332297 -0.349096 0.876191
vn -0.332297 -0.349096 0.876191
vn -0.332297 -0.349096 0.876191
vn 0.332297 -0.349096 0.876191
vn 0.332297 -0.349096 0.876191
vn 0.332297 -0.349096 0.876191
vn 0.332297 -0.349096 0.876191
vn 0.332297 -0.349096 0.876191
vn 0.332297 -0.349096 0.876191
vn -0.332297 0.349096 0.876191
vn -0.332297 0.349096 0.876191
vn -0.332297 0.349096 0.876191
vn -0.332297 0.349096 0.876191
vn -0.332297 0.349096 0.876191
vn -0.332297 0.349096 0.876191
vn 0.332297 0.349096 0.876191
vn 0.332297 0.349096 0.876191
vn 0.332297 0.349096 0.876191
vn 0.332297 0.349096 0.876191
vn 0.332297 0.349096 0.876191
vn 0.332297 0.349096 0.876191
vn 0.000000 -0.091500 0.995805
vn 0.000000 -0.091500 0.995805
vn 0.000000 -0.091500 0.995805
vn 0.000000 0.091500 0.995805
vn 0.000000 0.091500 0.995805
vn 0.000000 0.091500 0.995805
vn -0.070600 0.000000 0.997505
vn -0.070600 0.000000 0.997505
vn -0.070600 0.000000 0.997505
vn 0.070600 0.000000 0.997505
vn 0.070600 0.000000 0.997505
vn 0.070600 0.000000 0.997505
vn -0.052201 -0.054901 0.997126
vn -0.052201 -0.054901 0.997126
vn -0.052201 -0.054901 0.997126
vn 0.052201 -0.054901 0.997126
vn 0.052201 -0.054901 0.997126
vn 0.052201 -0.054901 0.997126
vn -0.052201 0.054901 0.997126
vn -0.052201 0.054901 0.997126
vn -0.052201 0.054901 0.997126
vn 0.052201 0.054901 0.997126
vn 0.052201 0.054901 0.997126
vn 0.052201 0.054901 0.997126
vn 0.000000 -0.456390 -0.889780
vn 0.000000 -0.456390 -0.889780
vn 0.000000 -0.456390 -0.889780
vn 0.000000 -0.456390 -0.889780
vn 0.000000 -0.456390 -0.889780
vn 0.000000 -0.456390 -0.889780
vn -0.000000 0.789131 -0.614224
vn -0.000000 0.789131 -0.614224
vn -0.000000 0.789131 -0.614224
vn -0.000000 0.789131 -0.614224
vn -0.000000 0.789131 -0.614224
vn -0.000000 0.789131 -0.614224
vn -0.448693 0.000000 -0.893686
vn -0.448693 0.000000 -0.893686
vn -0.448693 0.000000 -0.893686
vn -0.448693 0.000000 -0.893686
vn -0.448693 0.000000 -0.893686
vn -0.448693 0.000000 -0.893686
vn 0.448693 0.000000 -0.893686
vn 0.448693 0.000000 -0.893686
vn 0.448693 0.000000 -0.893686
vn 0.448693 0.000000 -0.893686
vn 0.448693 0.000000 -0.893686
vn 0.448693 0.000000 -0.893686
vn -0.334784 -0.276687 -0.900757
vn -0.334784 -0.276687 -0.900757
vn -0.334784 -0.276687 -0.900757
vn -0.334784 -0.276687 -0.900757
vn -0.334784 -0.276687 -0.900757
vn -0.334784 -0.276687 -0.900757
vn 0.334784 -0.276687 -0.900757
vn 0.334784 -0.276687 -0.900757
vn 0.334784 -0.276687 -0.900757
vn 0.334784 -0.276687 -0.900757
vn 0.334784 -0.276687 -0.900757
vn 0.334784 -0.276687 -0.900757
vn -0.189210 0.764740 -0.615932
vn -0.189210 0.764740 -0.615932
vn -0.189210 0.764740 -0.615932
vn -0.181903 0.541910 -0.820515
vn -0.181903 0.541910 -0.820515
vn -0.181903 0.541910 -0.820515
vn 0.060300 0.699795 -0.711795
vn 0.060300 0.699795 -0.711795
vn 0.060300 0.699795 -0.711795
vn 0.477390 0.667286 -0.571688
vn 0.477390 0.667286 -0.571688
vn 0.477390 0.667286 -0.571688
vn -0.000000 0.000000 -1.000000
vn -0.000000 0.000000 -1.000000
vn -0.000000 0.000000 -1.000000
vn -0.000000 0.260891 -0.965368
vn -0.000000 0.260891 -0.965368
vn -0.000000 0.260891 -0.965368
vn -0.000000 0.000000 -1.000000
vn -0.000000 0.000000 -1.000000
vn -0.000000 0.000000 -1.000000
vn -0.000000 0.000000 -1.000000
vn -0.000000 0.000000 -1.000000
vn -0.000000 0.000000 -1.000000
vn -0.000000 0.000000 -1.000000
vn -0.000000 0.000000 -1.000000
vn -0.000000 0.000000 -1.000000
vn -0.000000 0.000000 -1.000000
vn -0.000000 0.000000 -1.000000
vn -0.000000 0.000000 -1.000000
vn 0.140002 0.329804 -0.933611
vn 0.140002 0.329804 -0.933611
vn 0.140002 0.329804 -0.933611
vn -0.140002 0.329804 -0.933611
vn -0.140002 0.329804 -0.933611
vn -0.140002 0.329804 -0.933611
vn -1.000000 0.000000 0.000000
vn -1.000000 0.000000 0.000000
vn -1.000000 0.000000 0.000000
vn -1.000000 0.000000 0.000000
vn -1.000000 0.000000 0.000000
vn -1.000000 0.000000 0.000000
vn 0.000000 0.000000 1.000000
vn 0.000000 0.000000 1.000000
vn 0.000000 0.000000 1.000000
vn 0.000000 0.000000 1.000000
vn 0.000000 0.000000 1.000000
vn 0.000000 0.000000 1.000000
vn 1.000000 0.000000 0.000000
vn 1.000000 0.000000 0.000000
vn 1.000000 0.000000 0.000000
vn 1.000000 0.000000 0.000000
vn 1.000000 0.000000 0.000000
vn 1.000000 0.000000 0.000000
vn -0.000000 0.000000 -1.000000
vn -0.000000 0.000000 -1.000000
vn -0.000000 0.000000 -1.000000
vn -0.000000 0.000000 -1.000000
vn -0.000000 0.000000 -1.000000
vn -0.000000 0.000000 -1.000000
s off
g LLeg
usemtl None
f 1/1/1 2/2/2 3/3/3
f 3/4/4 4/5/5 1/1/6
f 5/6/7 6/7/8 7/8/9
f 7/8/10 8/9/11 5/6/12
f 9/10/13 10/11/14 11/12/15
f 11/12/16 12/13/17 9/14/18
f 13/15/19 14/16/20 3/17/21
f 3/18/22 2/2/23 13/15/24
f 15/19/25 16/20/26 17/21/27
f 17/21/28 18/22/29 15/19/30
f 19/23/31 20/24/32 6/7/33
f 6/7/34 5/6/35 19/25/36
f 21/26/37 22/27/38 10/28/39
f 10/29/40 9/30/41 21/26/42
f 1/31/43 21/26/44 9/32/45
f 9/33/46 2/2/47 1/31/48
f 14/34/49 19/35/50 5/6/51
f 5/6/52 3/36/53 14/37/54
f 23/38/55 7/8/56 6/7/57
f 6/7/58 18/39/59 23/38/60
f 16/40/61 11/12/62 10/41/63
f 10/42/64 17/21/65 16/43/66
f 2/2/67 9/44/68 12/13/69
f 12/13/70 13/15/71 2/2/72
f 3/45/73 5/6/74 8/9/75
f 8/9/76 4/46/77 3/47/78
f 18/48/79 6/7/80 20/49/81
f 20/50/82 15/19/83 18/51/84
f 17/21/85 10/52/86 22/27/87
f 22/27/88 24/53/89 17/21/90
f 14/54/91 13/15/92 25/55/93
f 25/55/94 26/56/95 14/57/96
f 16/58/97 15/19/98 27/59/99
f 27/59/100 28/60/101 16/61/102
f 20/62/103 19/63/104 29/64/105
f 29/64/106 30/65/107 20/66/108
f 12/13/109 11/12/110 31/67/111
f 31/68/112 32/69/113 12/13/114
f 19/70/115 14/71/116 26/72/117
f 26/73/118 29/64/119 19/74/120
f 13/15/121 12/13/122 32/75/123
f 32/76/124 25/55/125 13/15/126
f 15/19/127 20/77/128 30/65/129
f 30/65/130 27/59/131 15/19/132
f 11/12/133 16/78/134 28/79/135
f 28/80/136 31/81/137 11/12/138
f 26/82/139 25/55/140 33/83/141
f 28/84/142 27/59/143 33/83/144
f 30/65/145 29/64/146 33/83/147
f 32/85/148 31/86/149 33/83/150
f 29/64/151 26/87/152 33/83/153
f 25/55/154 32/88/155 33/83/156
f 27/59/157 30/65/158 33/83/159
f 31/89/160 28/90/161 33/83/162
f 1/1/163 4/91/164 34/92/165
f 34/92/166 35/93/167 1/1/168
f 23/38/169 24/94/170 36/95/171
f 36/95/172 37/96/173 23/38/174
f 8/9/175 7/8/176 38/97/177
f 38/97/178 39/98/179 8/9/180
f 22/27/181 21/26/182 40/99/183
f 40/100/184 41/101/185 22/27/186
f 4/102/187 8/9/188 39/98/189
f 39/98/190 34/92/191 4/103/192
f 21/26/193 1/31/194 35/104/195
f 35/105/196 40/106/197 21/26/198
f 7/8/199 23/38/200 37/107/201
f 37/108/202 38/97/203 7/8/204
f 24/109/205 22/27/206 41/110/207
f 41/111/208 36/95/209 24/112/210
f 35/113/211 34/92/212 42/114/213
f 37/115/214 36/95/215 42/114/216
f 39/98/217 38/97/218 42/114/219
f 41/116/220 40/117/221 42/114/222
f 34/92/223 39/98/224 42/114/225
f 40/118/226 35/119/227 42/114/228
f 38/97/229 37/120/230 42/114/231
f 36/95/232 41/121/233 42/114/234
f 23/38/235 18/122/236 43/123/237
f 43/123/238 44/124/239 23/38/240
f 18/125/241 17/21/242 45/126/243
f 45/127/244 43/123/245 18/128/246
f 17/21/247 24/129/248 46/130/249
f 46/131/250 45/132/251 17/21/252
f 24/133/253 23/38/254 44/124/255
f 44/124/256 46/134/257 24/135/258
