# This file uses centimeters as units for non-parametric coordinates.

mtllib GloomLArm.mtl
g default
v 3.690200 -1.073400 2.485650
v 4.296200 -1.121200 1.028650
v 4.222850 0.309050 1.028650
v 3.623500 0.356400 2.469800
v 1.918300 -1.179500 -0.165450
v 1.165750 -1.120100 1.644000
v 1.827200 0.596800 -0.165450
v 1.082850 0.655500 1.624300
v 3.867200 -1.434000 0.508000
v 3.020850 -1.367250 2.543000
v 3.764800 0.563650 0.508000
v 2.927650 0.629700 2.520850
v -0.873500 -0.485500 0.595300
v -0.267500 -0.533300 -0.861700
v -0.340850 0.897000 -0.861700
v -0.940200 0.944300 0.579450
vt 0.477400 0.825300
vt 0.439400 0.823900
vt 0.440100 0.865600
vt 0.477700 0.867000
vt 0.482800 0.700300
vt 0.444800 0.698900
vt 0.437300 0.756800
vt 0.484400 0.758500
vt 0.319600 0.847600
vt 0.320300 0.889300
vt 0.374500 0.877500
vt 0.373700 0.825700
vt 0.436500 0.987100
vt 0.474000 0.988500
vt 0.480300 0.933300
vt 0.433600 0.931600
vt 0.598000 0.888000
vt 0.597800 0.846300
vt 0.543200 0.826000
vt 0.543500 0.877800
vt 0.432100 0.806700
vt 0.485200 0.808700
vt 0.423800 0.873700
vt 0.422800 0.815500
vt 0.484900 0.884100
vt 0.432400 0.882200
vt 0.493800 0.817200
vt 0.494200 0.875500
vn 0.923174 0.039099 0.382389
vn 0.923174 0.039099 0.382389
vn 0.923174 0.039099 0.382389
vn 0.923174 0.039099 0.382389
vn 0.923174 0.039099 0.382389
vn 0.923174 0.039099 0.382389
vn -0.309505 -0.946514 -0.091201
vn -0.309505 -0.946514 -0.091201
vn -0.309505 -0.946514 -0.091201
vn -0.309505 -0.946514 -0.091201
vn -0.309505 -0.946514 -0.091201
vn -0.309505 -0.946514 -0.091201
vn 0.307698 0.013000 -0.951395
vn 0.307698 0.013000 -0.951395
vn 0.307698 0.013000 -0.951395
vn 0.307698 0.013000 -0.951395
vn 0.307698 0.013000 -0.951395
vn 0.307698 0.013000 -0.951395
vn 0.157008 0.987252 0.026101
vn 0.157008 0.987252 0.026101
vn 0.157008 0.987252 0.026101
vn 0.157008 0.987252 0.026101
vn 0.157008 0.987252 0.026101
vn 0.157008 0.987252 0.026101
vn -0.460185 -0.009600 0.887771
vn -0.460185 -0.009600 0.887771
vn -0.460185 -0.009600 0.887771
vn -0.460185 -0.009600 0.887771
vn -0.460185 -0.009600 0.887771
vn -0.460185 -0.009600 0.887771
vn -0.148494 -0.988657 -0.022499
vn -0.148494 -0.988657 -0.022499
vn -0.148494 -0.988657 -0.022499
vn -0.148494 -0.988657 -0.022499
vn -0.148494 -0.988657 -0.022499
vn -0.148494 -0.988657 -0.022499
vn 0.328501 0.013900 -0.944401
vn 0.328501 0.013900 -0.944401
vn 0.328501 0.013900 -0.944401
vn 0.328501 0.013900 -0.944401
vn 0.328501 0.013900 -0.944401
vn 0.328501 0.013900 -0.944401
vn 0.030099 0.999180 -0.027099
vn 0.030099 0.999180 -0.027099
vn 0.030099 0.999180 -0.027099
vn 0.030099 0.999180 -0.027099
vn 0.030099 0.999180 -0.027099
vn 0.030099 0.999180 -0.027099
vn -0.437209 -0.008600 0.899319
vn -0.437209 -0.008600 0.899319
vn -0.437209 -0.008600 0.899319
vn -0.437209 -0.008600 0.899319
vn -0.437209 -0.008600 0.899319
vn -0.437209 -0.008600 0.899319
vn 0.471832 -0.851157 0.230015
vn 0.471832 -0.851157 0.230015
vn 0.471832 -0.851157 0.230015
vn 0.471832 -0.851157 0.230015
vn 0.471832 -0.851157 0.230015
vn 0.471832 -0.851157 0.230015
vn 0.759780 0.032199 -0.649383
vn 0.759780 0.032199 -0.649383
vn 0.759780 0.032199 -0.649383
vn 0.759780 0.032199 -0.649383
vn 0.759780 0.032199 -0.649383
vn 0.759780 0.032199 -0.649383
vn 0.433310 0.889520 0.144903
vn 0.433310 0.889520 0.144903
vn 0.433310 0.889520 0.144903
vn 0.433310 0.889520 0.144903
vn 0.433310 0.889520 0.144903
vn 0.433310 0.889520 0.144903
vn 0.078901 0.012200 0.996808
vn 0.078901 0.012200 0.996808
vn 0.078901 0.012200 0.996808
vn 0.078901 0.012200 0.996808
vn 0.078901 0.012200 0.996808
vn 0.078901 0.012200 0.996808
s off
g LArm
usemtl None
f 1/1/1 2/2/2 3/3/3
f 3/3/4 4/4/5 1/1/6
f 13/5/7 14/6/8 5/7/9
f 5/7/10 6/8/11 13/5/12
f 14/9/13 15/10/14 7/11/15
f 7/11/16 5/12/17 14/9/18
f 15/13/19 16/14/20 8/15/21
f 8/15/22 7/16/23 15/13/24
f 16/17/25 13/18/26 6/19/27
f 6/19/28 8/20/29 16/17/30
f 6/8/31 5/7/32 9/21/33
f 9/21/34 10/22/35 6/8/36
f 5/12/37 7/11/38 11/23/39
f 11/23/40 9/24/41 5/12/42
f 7/16/43 8/15/44 12/25/45
f 12/25/46 11/26/47 7/16/48
f 8/20/49 6/19/50 10/27/51
f 10/27/52 12/28/53 8/20/54
f 10/22/55 9/21/56 2/2/57
f 2/2/58 1/1/59 10/22/60
f 9/24/61 11/23/62 3/3/63
f 3/3/64 2/2/65 9/24/66
f 11/26/67 12/25/68 4/4/69
f 4/4/70 3/3/71 11/26/72
f 12/28/73 10/27/74 1/1/75
f 1/1/76 4/4/77 12/28/78
