# This file uses centimeters as units for non-parametric coordinates.

mtllib TropiusRWing.mtl
g default1
v -6.688021 10.314895 -5.255113
v -7.294686 11.013072 -0.592472
v -8.511436 12.834304 -1.314593
v -7.569858 11.803224 -5.475091
v -6.790993 10.104921 -5.279513
v -7.672830 11.593246 -5.499490
v -7.457865 10.821956 -0.610715
v -8.674616 12.643190 -1.332837
v -5.740570 8.899516 -4.999513
v -6.429705 9.713012 -0.165283
v -5.843538 8.689544 -5.023914
v -6.592884 9.521898 -0.183527
v -4.835985 7.479516 -4.659193
v -5.507671 8.293487 0.263270
v -4.938954 7.269542 -4.683593
v -5.670854 8.102372 0.245027
v -3.594522 5.559070 -4.177396
v -4.154533 6.236133 0.801083
v -3.697489 5.349098 -4.201796
v -4.317712 6.045023 0.782839
v -1.930362 3.093184 -3.396110
v -2.692709 3.981107 1.201316
v -2.033331 2.883208 -3.420511
v -2.855888 3.789992 1.183072
v -0.811213 1.278532 -2.362424
v -1.365803 1.973401 1.502170
v -0.914183 1.068556 -2.386825
v -1.528983 1.782286 1.483926
v -0.445910 0.650420 -1.056196
v -0.638065 1.118138 0.841932
v -0.548879 0.440444 -1.080597
v -0.801244 0.927024 0.823688
v -0.355395 0.627834 -0.317990
v -0.382425 0.761649 0.098002
v -0.458364 0.417858 -0.342390
v -0.460264 0.575926 0.083309
v -10.292912 15.585244 -4.673665
v -10.414989 15.384593 -4.712232
v -10.216287 15.217347 -5.427474
v -10.113316 15.427324 -5.403075
v -9.716111 14.625497 -5.706565
v -9.332130 14.088380 -6.139118
v -9.229159 14.298356 -6.114717
v -9.613140 14.835466 -5.682166
v -10.501260 15.437389 -3.447951
v -10.439370 15.466640 -4.366967
v -10.306293 15.667188 -4.345643
v -10.338078 15.628505 -3.429707
v -9.451585 14.054368 -4.257300
v -9.329510 14.255019 -4.218733
v -9.301617 14.266797 -4.172372
v -9.434691 14.066257 -4.193696
v -9.577274 14.184921 -3.684996
v -9.292106 13.947583 -4.702392
v -9.189136 14.157552 -4.677992
v -8.864383 13.463269 -1.789861
v -8.175281 12.727306 -5.455400
v -9.847589 14.935929 -2.382417
v -10.010769 14.744821 -2.400661
v -10.182824 14.989909 -3.213173
v -10.019647 15.181018 -3.194929
v -9.414096 14.376043 -3.666751
v -8.805152 13.620444 -5.110546
v -8.451668 13.183011 -5.857878
v -8.318591 13.040231 -5.075280
v -8.848772 13.777709 -5.733079
v -9.144000 13.908403 -1.968067
v -9.338671 13.764646 -1.962885
v -9.649943 14.229219 -2.427704
v -9.482571 14.414033 -2.412575
v -8.881207 13.531884 -2.274470
v -9.242041 14.130956 -2.854239
v -8.908128 13.410472 -5.134945
v -9.027561 13.272149 -1.808105
v -8.278252 12.517327 -5.479801
v -8.421562 12.830255 -5.099679
v -8.554636 12.973035 -5.882280
v -8.951739 13.567735 -5.757479
v -9.405225 13.939834 -2.872483
v -9.044385 13.340770 -2.292713
v 0.052849 -0.251348 -0.191494
v -0.002830 -0.108987 0.331229
v 0.103158 -0.151093 -0.093815
v 0.160350 0.082128 0.268839
vt 0.594416 0.484640
vt 0.595826 0.545837
vt 0.747692 0.571669
vt 0.761114 0.491837
vt 0.593076 0.904855
vt 0.596058 0.919455
vt 0.595727 0.921515
vt 0.592746 0.906915
vt 0.821186 0.487853
vt 0.838784 0.566844
vt 0.989490 0.531364
vt 0.987648 0.470201
vt 0.529565 0.913764
vt 0.539350 0.931630
vt 0.539597 0.929755
vt 0.529812 0.911889
vt 0.594286 0.424188
vt 0.767686 0.435397
vt 0.589613 0.890970
vt 0.589283 0.893030
vt 0.811656 0.431848
vt 0.984604 0.409847
vt 0.523776 0.901010
vt 0.524023 0.899135
vt 0.597233 0.363968
vt 0.773630 0.374398
vt 0.585002 0.877040
vt 0.584671 0.879100
vt 0.802510 0.371261
vt 0.978492 0.349885
vt 0.517969 0.887085
vt 0.518216 0.885210
vt 0.601902 0.282071
vt 0.779293 0.286114
vt 0.578473 0.858201
vt 0.578143 0.860261
vt 0.792213 0.283416
vt 0.969529 0.268371
vt 0.510681 0.866903
vt 0.510929 0.865028
vt 0.613291 0.174717
vt 0.779014 0.190759
vt 0.567886 0.834011
vt 0.567556 0.836071
vt 0.787476 0.188195
vt 0.952538 0.161787
vt 0.505258 0.844781
vt 0.505505 0.842906
vt 0.637986 0.095315
vt 0.776778 0.105676
vt 0.553879 0.816210
vt 0.553549 0.818269
vt 0.785243 0.103113
vt 0.923704 0.083802
vt 0.679508 0.063258
vt 0.748112 0.070060
vt 0.536179 0.810048
vt 0.535849 0.812108
vt 0.812091 0.066102
vt 0.880561 0.053970
vt 0.510128 0.816696
vt 0.501181 0.825086
vt 0.501429 0.823211
vt 0.510375 0.814821
vt 0.704780 0.056673
vt 0.720008 0.058706
vt 0.526176 0.809826
vt 0.525846 0.811886
vt 0.839418 0.051163
vt 0.855083 0.048244
vt 0.520209 0.813199
vt 0.520408 0.811377
vt 0.584867 0.958616
vt 0.594751 0.957067
vt 0.595082 0.955007
vt 0.585390 0.956648
vt 0.598863 0.949201
vt 0.598533 0.951261
vt 0.604394 0.945992
vt 0.604725 0.943932
vt 0.568258 0.957165
vt 0.568011 0.959040
vt 0.580422 0.959420
vt 0.580711 0.957453
vt 0.579225 0.943598
vt 0.578363 0.943715
vt 0.578074 0.945682
vt 0.578702 0.945567
vt 0.571470 0.944879
vt 0.585256 0.942551
vt 0.584926 0.944610
vt 0.734932 0.599172
vt 0.602345 0.584071
vt 0.834170 0.021429
vt 0.853016 0.018290
vt 0.522808 0.804245
vt 0.524131 0.803262
vt 0.721412 0.027669
vt 0.706588 0.024064
vt 0.517894 0.806533
vt 0.517048 0.804658
vt 0.553819 0.952246
vt 0.564830 0.954651
vt 0.565077 0.952776
vt 0.554067 0.950372
vt 0.571223 0.946754
vt 0.590787 0.939342
vt 0.600914 0.935050
vt 0.599223 0.940884
vt 0.590309 0.933650
vt 0.548205 0.942166
vt 0.554228 0.947127
vt 0.554433 0.945313
vt 0.548135 0.940756
vt 0.617193 0.594247
vt 0.718464 0.604104
vt 0.620172 0.620687
vt 0.638516 0.641448
vt 0.655423 0.644603
vt 0.657180 0.643773
vt 0.675583 0.646332
vt 0.702094 0.631471
vt 0.560213 0.944350
vt 0.552357 0.938473
vt 0.591118 0.937282
vt 0.545790 0.937800
vt 0.546037 0.935925
vt 0.852982 0.593623
vt 0.985007 0.569876
vt 0.595791 0.928520
vt 0.595460 0.930580
vt 0.590640 0.931590
vt 0.601244 0.932991
vt 0.599554 0.938824
vt 0.560460 0.942475
vt 0.914678 0.637654
vt 0.933172 0.633288
vt 0.935482 0.633703
vt 0.951851 0.629071
vt 0.969135 0.607423
vt 0.887444 0.624167
vt 0.869677 0.597699
vt 0.970762 0.580871
vt 0.552604 0.936598
vn 0.838553 0.543300 0.040663
vn 0.838553 0.543300 0.040663
vn 0.838553 0.543300 0.040663
vn 0.838553 0.543300 0.040663
vn 0.236855 -0.003259 -0.971540
vn 0.236855 -0.003259 -0.971540
vn 0.236855 -0.003259 -0.971540
vn 0.236855 -0.003259 -0.971540
vn -0.837120 -0.544807 -0.049143
vn -0.837120 -0.544807 -0.049143
vn -0.837120 -0.544807 -0.049143
vn -0.837120 -0.544807 -0.049143
vn -0.303141 0.169310 0.937785
vn -0.303141 0.169310 0.937785
vn -0.303141 0.169310 0.937785
vn -0.303141 0.169310 0.937785
vn 0.828702 0.559172 0.024065
vn 0.828702 0.559172 0.024065
vn 0.828702 0.559172 0.024065
vn 0.828702 0.559172 0.024065
vn 0.247903 -0.008997 -0.968743
vn 0.247903 -0.008997 -0.968743
vn 0.247903 -0.008997 -0.968743
vn 0.247903 -0.008997 -0.968743
vn -0.827595 -0.560416 -0.031943
vn -0.827595 -0.560416 -0.031943
vn -0.827595 -0.560416 -0.031943
vn -0.827595 -0.560416 -0.031943
vn -0.266345 0.136327 0.954188
vn -0.266345 0.136327 0.954188
vn -0.266345 0.136327 0.954188
vn -0.266345 0.136327 0.954188
vn 0.837545 0.545760 0.025782
vn 0.837545 0.545760 0.025782
vn 0.837545 0.545760 0.025782
vn 0.837545 0.545760 0.025782
vn 0.300807 -0.036769 -0.952976
vn 0.300807 -0.036769 -0.952976
vn 0.300807 -0.036769 -0.952976
vn 0.300807 -0.036769 -0.952976
vn -0.836383 -0.547117 -0.033559
vn -0.836383 -0.547117 -0.033559
vn -0.836383 -0.547117 -0.033559
vn -0.836383 -0.547117 -0.033559
vn -0.253535 0.124911 0.959228
vn -0.253535 0.124911 0.959228
vn -0.253535 0.124911 0.959228
vn -0.253535 0.124911 0.959228
vn 0.834912 0.549981 0.021040
vn 0.834912 0.549981 0.021040
vn 0.834912 0.549981 0.021040
vn 0.834912 0.549981 0.021040
vn 0.307031 -0.040069 -0.950856
vn 0.307031 -0.040069 -0.950856
vn 0.307031 -0.040069 -0.950856
vn 0.307031 -0.040069 -0.950856
vn -0.833842 -0.551255 -0.028722
vn -0.833842 -0.551255 -0.028722
vn -0.833842 -0.551255 -0.028722
vn -0.833842 -0.551255 -0.028722
vn -0.228561 0.102743 0.968093
vn -0.228561 0.102743 0.968093
vn -0.228561 0.102743 0.968093
vn -0.228561 0.102743 0.968093
vn 0.830787 0.556079 0.023846
vn 0.830787 0.556079 0.023846
vn 0.830787 0.556079 0.023846
vn 0.830787 0.556079 0.023846
vn 0.347685 -0.061780 -0.935574
vn 0.347685 -0.061780 -0.935574
vn 0.347685 -0.061780 -0.935574
vn 0.347685 -0.061780 -0.935574
vn -0.829695 -0.557317 -0.031690
vn -0.829695 -0.557317 -0.031690
vn -0.829695 -0.557317 -0.031690
vn -0.829695 -0.557317 -0.031690
vn -0.178476 0.058627 0.982196
vn -0.178476 0.058627 0.982196
vn -0.178476 0.058627 0.982196
vn -0.178476 0.058627 0.982196
vn 0.837454 0.545777 0.028246
vn 0.837454 0.545777 0.028246
vn 0.837454 0.545777 0.028246
vn 0.837454 0.545777 0.028246
vn 0.520052 -0.157471 -0.839493
vn 0.520052 -0.157471 -0.839493
vn 0.520052 -0.157471 -0.839493
vn 0.520052 -0.157471 -0.839493
vn -0.835803 -0.547781 -0.037013
vn -0.835803 -0.547781 -0.037013
vn -0.835803 -0.547781 -0.037013
vn -0.835803 -0.547781 -0.037013
vn -0.159724 0.042228 0.986258
vn -0.159724 0.042228 0.986258
vn -0.159724 0.042228 0.986258
vn -0.159724 0.042228 0.986258
vn 0.807904 0.589144 -0.014166
vn 0.807904 0.589144 -0.014166
vn 0.807904 0.589144 -0.014166
vn 0.807904 0.589144 -0.014166
vn 0.837301 -0.363100 -0.408761
vn 0.837301 -0.363100 -0.408761
vn 0.837301 -0.363100 -0.408761
vn 0.837301 -0.363100 -0.408761
vn -0.805506 -0.592584 0.002212
vn -0.805506 -0.592584 0.002212
vn -0.805506 -0.592584 0.002212
vn -0.805506 -0.592584 0.002212
vn 0.342043 -0.374326 0.861909
vn 0.342043 -0.374326 0.861909
vn 0.342043 -0.374326 0.861909
vn 0.342043 -0.374326 0.861909
vn 0.733567 0.671448 -0.105056
vn 0.733567 0.671448 -0.105056
vn 0.733567 0.671448 -0.105056
vn 0.733567 0.671448 -0.105056
vn 0.896615 -0.425398 -0.122954
vn 0.896615 -0.425398 -0.122954
vn 0.896615 -0.425398 -0.122954
vn 0.896615 -0.425398 -0.122954
vn -0.648127 -0.749190 0.136554
vn -0.648127 -0.749190 0.136554
vn -0.648127 -0.749190 0.136554
vn -0.648127 -0.749190 0.136554
vn 0.700191 -0.492968 0.516444
vn 0.700191 -0.492968 0.516444
vn 0.700191 -0.492968 0.516444
vn 0.700191 -0.492968 0.516444
vn -0.808354 0.492485 -0.322526
vn -0.808354 0.492485 -0.322526
vn -0.808354 0.492485 -0.322526
vn -0.808354 0.492485 -0.322526
vn -0.469310 0.325538 -0.820837
vn -0.469310 0.325538 -0.820837
vn -0.469310 0.325538 -0.820837
vn -0.469310 0.325538 -0.820837
vn -0.796515 0.604342 -0.018289
vn -0.796515 0.604342 -0.018289
vn -0.796515 0.604342 -0.018289
vn -0.796515 0.604342 -0.018289
vn -0.835882 0.496749 0.233542
vn -0.835882 0.496749 0.233542
vn -0.835882 0.496749 0.233542
vn -0.835882 0.496749 0.233542
vn -0.807211 -0.584957 -0.078970
vn -0.807211 -0.584957 -0.078970
vn -0.807211 -0.584957 -0.078970
vn -0.807211 -0.584957 -0.078970
vn 0.164325 -0.004157 -0.986398
vn 0.164325 -0.004157 -0.986398
vn 0.164325 -0.004157 -0.986398
vn 0.164325 -0.004157 -0.986398
vn -0.371655 0.047910 0.927134
vn -0.371655 0.047910 0.927134
vn -0.371655 0.047910 0.927134
vn -0.371655 0.047910 0.927134
vn -0.783915 -0.613218 -0.097166
vn -0.783915 -0.613218 -0.097166
vn -0.783915 -0.613218 -0.097166
vn -0.783915 -0.613218 -0.097166
vn 0.486613 -0.138400 -0.862585
vn 0.486613 -0.138400 -0.862585
vn 0.486613 -0.138400 -0.862585
vn 0.486613 -0.138400 -0.862585
vn 0.788633 0.609460 0.081344
vn 0.788633 0.609460 0.081344
vn 0.788633 0.609460 0.081344
vn 0.788633 0.609460 0.081344
vn 0.842512 0.535908 0.054549
vn 0.842512 0.535908 0.054549
vn 0.842512 0.535908 0.054549
vn 0.842512 0.535908 0.054549
vn -0.824005 -0.552616 0.125026
vn -0.824005 -0.552616 0.125026
vn -0.824005 -0.552616 0.125026
vn -0.824005 -0.552616 0.125026
vn 0.486565 0.101079 -0.867777
vn 0.486565 0.101079 -0.867777
vn 0.486565 0.101079 -0.867777
vn 0.486565 0.101079 -0.867777
vn 0.826840 0.495721 -0.265701
vn 0.826840 0.495721 -0.265701
vn 0.826840 0.495721 -0.265701
vn 0.826840 0.495721 -0.265701
vn -0.127511 0.204398 0.970547
vn -0.127511 0.204398 0.970547
vn -0.127511 0.204398 0.970547
vn -0.127511 0.204398 0.970547
vn -0.732314 0.593394 0.334067
vn -0.732314 0.593394 0.334067
vn -0.732314 0.593394 0.334067
vn -0.732314 0.593394 0.334067
vn 0.808307 0.586377 0.052925
vn 0.808307 0.586377 0.052925
vn 0.808307 0.586377 0.052925
vn 0.808307 0.586377 0.052925
vn 0.058223 -0.144013 0.987862
vn 0.058223 -0.144013 0.987862
vn 0.058223 -0.144013 0.987862
vn 0.058223 -0.144013 0.987862
vn -0.276560 0.322551 -0.905249
vn -0.276560 0.322551 -0.905249
vn -0.276560 0.322551 -0.905249
vn -0.276560 0.322551 -0.905249
vn 0.825187 0.563936 0.032279
vn 0.825187 0.563936 0.032279
vn 0.825187 0.563936 0.032279
vn 0.825187 0.563936 0.032279
vn 0.799892 0.599517 0.027433
vn 0.799892 0.599517 0.027433
vn 0.799892 0.599517 0.027433
vn 0.799892 0.599517 0.027433
vn -0.428429 0.448321 0.784510
vn -0.428429 0.448321 0.784510
vn -0.428429 0.448321 0.784510
vn -0.428429 0.448321 0.784510
vn 0.907725 0.407893 0.098275
vn 0.907725 0.407893 0.098275
vn 0.907725 0.407893 0.098275
vn 0.907725 0.407893 0.098275
vn 0.801866 0.596783 0.029343
vn 0.801866 0.596783 0.029343
vn 0.801866 0.596783 0.029343
vn 0.801866 0.596783 0.029343
vn 0.801866 0.596783 0.029343
vn 0.801866 0.596783 0.029343
vn 0.801988 0.597251 0.010328
vn 0.801988 0.597251 0.010328
vn 0.801988 0.597251 0.010328
vn 0.801988 0.597251 0.010328
vn 0.821372 0.568038 0.051786
vn 0.821372 0.568038 0.051786
vn 0.821372 0.568038 0.051786
vn 0.821372 0.568038 0.051786
vn 0.801398 0.596785 0.040126
vn 0.801398 0.596785 0.040126
vn 0.801398 0.596785 0.040126
vn 0.801398 0.596785 0.040126
vn -0.825191 -0.563932 -0.032277
vn -0.825191 -0.563932 -0.032277
vn -0.825191 -0.563932 -0.032277
vn -0.825191 -0.563932 -0.032277
vn -0.485231 0.337292 0.806713
vn -0.485231 0.337292 0.806713
vn -0.485231 0.337292 0.806713
vn -0.485231 0.337292 0.806713
vn -0.840758 -0.537610 -0.064043
vn -0.840758 -0.537610 -0.064043
vn -0.840758 -0.537610 -0.064043
vn -0.840758 -0.537610 -0.064043
vn 0.082319 0.075109 -0.993772
vn 0.082319 0.075109 -0.993772
vn 0.082319 0.075109 -0.993772
vn 0.082319 0.075109 -0.993772
vn -0.691015 0.408192 -0.596555
vn -0.691015 0.408192 -0.596555
vn -0.691015 0.408192 -0.596555
vn -0.691015 0.408192 -0.596555
vn 0.884933 -0.407827 -0.224881
vn 0.884933 -0.407827 -0.224881
vn 0.884933 -0.407827 -0.224881
vn 0.884933 -0.407827 -0.224881
vn 0.777230 -0.318073 -0.542903
vn 0.777230 -0.318073 -0.542903
vn 0.777230 -0.318073 -0.542903
vn 0.777230 -0.318073 -0.542903
vn -0.892644 0.418210 0.168188
vn -0.892644 0.418210 0.168188
vn -0.892644 0.418210 0.168188
vn -0.892644 0.418210 0.168188
vn -0.079642 0.153511 -0.984932
vn -0.079642 0.153511 -0.984932
vn -0.079642 0.153511 -0.984932
vn -0.079642 0.153511 -0.984932
vn -0.801995 -0.597242 -0.010330
vn -0.801995 -0.597242 -0.010330
vn -0.801995 -0.597242 -0.010330
vn -0.801995 -0.597242 -0.010330
vn -0.797487 -0.601287 -0.049687
vn -0.797487 -0.601287 -0.049687
vn -0.797487 -0.601287 -0.049687
vn -0.797487 -0.601287 -0.049687
vn -0.797487 -0.601287 -0.049687
vn -0.797487 -0.601287 -0.049687
vn -0.905065 -0.410387 -0.111533
vn -0.905065 -0.410387 -0.111533
vn -0.905065 -0.410387 -0.111533
vn -0.905065 -0.410387 -0.111533
vn -0.797643 -0.600799 -0.052974
vn -0.797643 -0.600799 -0.052974
vn -0.797643 -0.600799 -0.052974
vn -0.797643 -0.600799 -0.052974
vn -0.760781 0.638410 0.116809
vn -0.760781 0.638410 0.116809
vn -0.760781 0.638410 0.116809
vn -0.760781 0.638410 0.116809
vn -0.544851 0.536306 -0.644603
vn -0.544851 0.536306 -0.644603
vn -0.544851 0.536306 -0.644603
vn -0.544851 0.536306 -0.644603
vn 0.276558 -0.322548 0.905250
vn 0.276558 -0.322548 0.905250
vn 0.276558 -0.322548 0.905250
vn 0.276558 -0.322548 0.905250
vn 0.358181 -0.415370 0.836166
vn 0.358181 -0.415370 0.836166
vn 0.358181 -0.415370 0.836166
vn 0.358181 -0.415370 0.836166
vn -0.821820 -0.567620 -0.049192
vn -0.821820 -0.567620 -0.049192
vn -0.821820 -0.567620 -0.049192
vn -0.821820 -0.567620 -0.049192
vn -0.799892 -0.599517 -0.027435
vn -0.799892 -0.599517 -0.027435
vn -0.799892 -0.599517 -0.027435
vn -0.799892 -0.599517 -0.027435
s 1
g polySurface3
usemtl None
f 1/1/1 4/2/2 2/4/3
f 2/4/3 4/2/2 3/3/4
s 2
f 5/5/5 6/6/6 1/8/7
f 1/8/7 6/6/6 4/7/8
s 3
f 8/10/9 6/11/10 7/9/11
f 7/9/11 6/11/10 5/12/12
s 4
f 3/14/13 8/15/14 2/13/15
f 2/13/15 8/15/14 7/16/16
s 5
f 1/1/17 2/4/18 9/17/19
f 9/17/19 2/4/18 10/18/20
s 6
f 11/19/21 5/5/22 9/20/23
f 9/20/23 5/5/22 1/8/24
s 7
f 7/9/25 5/12/26 12/21/27
f 12/21/27 5/12/26 11/22/28
s 8
f 2/13/29 7/16/30 10/23/31
f 10/23/31 7/16/30 12/24/32
s 9
f 9/17/33 10/18/34 13/25/35
f 13/25/35 10/18/34 14/26/36
s 10
f 15/27/37 11/19/38 13/28/39
f 13/28/39 11/19/38 9/20/40
s 11
f 16/29/41 12/21/42 15/30/43
f 15/30/43 12/21/42 11/22/44
s 12
f 10/23/45 12/24/46 14/31/47
f 14/31/47 12/24/46 16/32/48
s 13
f 13/25/49 14/26/50 17/33/51
f 17/33/51 14/26/50 18/34/52
s 14
f 19/35/53 15/27/54 17/36/55
f 17/36/55 15/27/54 13/28/56
s 15
f 20/37/57 16/29/58 19/38/59
f 19/38/59 16/29/58 15/30/60
s 16
f 14/31/61 16/32/62 18/39/63
f 18/39/63 16/32/62 20/40/64
s 17
f 21/41/65 17/33/66 22/42/67
f 22/42/67 17/33/66 18/34/68
s 18
f 23/43/69 19/35/70 21/44/71
f 21/44/71 19/35/70 17/36/72
s 19
f 20/37/73 19/38/74 24/45/75
f 24/45/75 19/38/74 23/46/76
s 20
f 18/39/77 20/40/78 22/47/79
f 22/47/79 20/40/78 24/48/80
s 21
f 21/41/81 22/42/82 25/49/83
f 25/49/83 22/42/82 26/50/84
s 22
f 27/51/85 23/43/86 25/52/87
f 25/52/87 23/43/86 21/44/88
s 23
f 28/53/89 24/45/90 27/54/91
f 27/54/91 24/45/90 23/46/92
s 24
f 22/42/93 24/45/94 26/50/95
f 26/50/95 24/45/94 28/53/96
s 25
f 25/49/97 26/50/98 29/55/99
f 29/55/99 26/50/98 30/56/100
s 26
f 31/57/101 27/51/102 29/58/103
f 29/58/103 27/51/102 25/52/104
s 27
f 32/59/105 28/53/106 31/60/107
f 31/60/107 28/53/106 27/54/108
s 28
f 26/62/109 28/63/110 30/61/111
f 30/61/111 28/63/110 32/64/112
s 29
f 33/65/113 29/55/114 34/66/115
f 34/66/115 29/55/114 30/56/116
s 30
f 31/57/117 29/58/118 35/67/119
f 35/67/119 29/58/118 33/68/120
s 31
f 32/59/121 31/60/122 36/69/123
f 36/69/123 31/60/122 35/70/124
s 32
f 30/61/125 32/64/126 34/71/127
f 34/71/127 32/64/126 36/72/128
s 33
f 37/73/129 40/74/130 38/76/131
f 38/76/131 40/74/130 39/75/132
s 34
f 44/78/133 43/79/134 41/77/135
f 41/77/135 43/79/134 42/80/136
s 35
f 48/82/137 47/83/138 45/81/139
f 45/81/139 47/83/138 46/84/140
s 36
f 49/85/141 52/86/142 50/88/143
f 50/88/143 52/86/142 51/87/144
s 37
f 45/81/145 46/84/146 53/89/147
f 53/89/147 46/84/146 52/86/148
s 38
f 52/86/149 46/84/150 51/87/151
f 51/87/151 46/84/150 47/83/152
s 39
f 37/73/153 38/76/154 50/88/155
f 50/88/155 38/76/154 49/85/156
s 40
f 38/76/157 39/75/158 49/85/159
f 49/85/159 39/75/158 54/90/160
s 41
f 54/90/161 39/75/162 55/91/163
f 55/91/163 39/75/162 40/74/164
s 42
f 40/74/165 37/73/166 55/91/167
f 55/91/167 37/73/166 50/88/168
s 43
f 56/92/169 3/3/170 57/93/171
f 57/93/171 3/3/170 4/2/172
s 44
f 36/69/173 35/70/174 82/94/175
f 82/94/175 35/70/174 81/95/176
s 45
f 33/68/177 83/96/178 35/67/179
f 35/67/179 83/96/178 81/97/180
s 46
f 34/66/181 84/98/182 33/65/183
f 33/65/183 84/98/182 83/99/184
s 47
f 34/71/185 36/72/186 84/100/187
f 84/100/187 36/72/186 82/101/188
s 48
f 61/103/189 60/104/190 58/102/191
f 58/102/191 60/104/190 59/105/192
s 49
f 48/82/193 62/106/194 47/83/195
f 47/83/195 62/106/194 51/87/196
s 50
f 48/82/197 45/81/198 62/106/199
f 62/106/199 45/81/198 53/89/200
s 51
f 61/103/201 62/106/202 60/104/203
f 60/104/203 62/106/202 53/89/204
s 52
f 44/78/205 55/91/206 43/79/207
f 43/79/207 55/91/206 63/107/208
s 53
f 66/109/209 63/107/210 64/108/211
f 64/108/211 63/107/210 65/110/212
s 54
f 70/112/213 69/113/214 67/111/215
f 67/111/215 69/113/214 68/114/216
s 55
f 57/93/217 65/115/218 56/92/219
f 56/92/219 65/115/218 71/116/220
s 56
f 72/122/221 63/117/222 62/121/223
f 62/121/223 63/117/222 51/120/224
f 51/120/224 63/117/222 50/119/225
f 63/117/222 55/118/226 50/119/225
s 57
f 58/102/227 72/123/228 61/103/229
f 61/103/229 72/123/228 62/106/230
s 58
f 71/124/231 72/123/232 67/111/233
f 67/111/233 72/123/232 70/112/234
s 59
f 63/117/235 72/122/236 65/115/237
f 65/115/237 72/122/236 71/116/238
s 60
f 41/77/239 42/80/240 54/90/241
f 54/90/241 42/80/240 73/125/242
s 61
f 56/126/243 74/127/244 3/14/245
f 3/14/245 74/127/244 8/15/246
s 62
f 74/128/247 75/129/248 8/10/249
f 8/10/249 75/129/248 6/11/250
s 63
f 6/6/251 75/130/252 4/7/253
f 4/7/253 75/130/252 57/131/254
s 64
f 65/110/255 57/131/256 76/132/257
f 76/132/257 57/131/256 75/130/258
s 65
f 65/110/259 76/132/260 64/108/261
f 64/108/261 76/132/260 77/133/262
s 66
f 43/79/263 63/107/264 42/80/265
f 42/80/265 63/107/264 73/125/266
s 67
f 73/125/267 63/107/268 78/134/269
f 78/134/269 63/107/268 66/109/270
s 68
f 66/109/271 64/108/272 78/134/273
f 78/134/273 64/108/272 77/133/274
s 69
f 59/105/275 60/104/276 79/135/277
f 79/135/277 60/104/276 53/89/278
s 70
f 79/141/279 53/136/280 73/140/281
f 53/136/280 52/137/282 73/140/281
f 52/137/282 49/138/283 73/140/281
f 49/138/283 54/139/284 73/140/281
s 71
f 80/142/285 76/143/286 74/128/287
f 74/128/287 76/143/286 75/129/288
s 72
f 73/140/289 76/143/290 79/141/291
f 79/141/291 76/143/290 80/142/292
s 73
f 71/124/293 80/144/294 56/126/295
f 56/126/295 80/144/294 74/127/296
s 74
f 79/135/297 69/113/298 72/123/299
f 72/123/299 69/113/298 70/112/300
s 75
f 58/102/301 59/105/302 72/123/303
f 72/123/303 59/105/302 79/135/304
s 76
f 67/111/305 68/114/306 71/124/307
f 71/124/307 68/114/306 80/144/308
s 77
f 69/113/309 79/135/310 68/114/311
f 68/114/311 79/135/310 80/144/312
s 78
f 78/134/313 77/133/314 73/125/315
f 73/125/315 77/133/314 76/132/316
