# This file uses centimeters as units for non-parametric coordinates.

mtllib TropiusFLLeg.mtl
g default1
v 0.380815 -3.636493 -0.252045
v -0.546327 -2.842597 -1.591968
v -0.268580 -3.858533 -0.898756
v 0.441686 -4.405628 -0.258405
v -0.369666 -3.094261 -1.782684
v 1.214251 -3.345660 -1.476207
v 0.662366 -3.092002 -1.788721
v 0.068504 -4.300434 -0.382264
v 1.026250 -3.747777 -1.026424
v 1.303379 -1.282386 0.342623
v 0.087616 -1.549812 1.223301
v -0.573982 -1.609935 0.596242
v -0.911171 -2.260249 -0.049956
v 0.131220 -0.736091 -2.025961
v 1.538692 -0.834079 -0.819385
v 1.330590 -2.095728 0.057879
v 0.198201 -2.309583 0.863778
v -0.481074 -2.151917 0.368927
v -0.869547 -2.464863 -0.170944
v -0.810900 -2.156445 -1.428932
v 0.352975 -1.286089 -2.001356
v 1.578051 -1.627282 -1.147933
v 0.964783 -3.280563 -0.635017
v 0.044597 -3.715959 -0.222294
v -0.592211 -3.586871 -0.649305
v 0.583832 -2.560177 -1.702257
v 1.158798 -2.754867 -1.257198
v 0.735244 -4.270525 -0.416426
v 0.604373 -3.653357 -0.291579
v 0.744282 -4.009450 -0.720912
v 0.706989 -3.519826 -0.508200
v -0.064299 -3.672231 -0.454834
v -0.044355 -4.079361 -0.640720
v 0.514108 1.473504 1.203373
v -0.052404 0.226453 1.725689
v -0.723086 -1.126245 0.799920
v -0.892997 -1.798547 0.161999
v -1.041129 -1.648277 -1.275981
v 0.825711 0.210665 -1.316084
v 1.080621 1.520620 0.173409
vt 0.309792 0.884202
vt 0.320749 0.977391
vt 0.283050 0.946744
vt 0.274106 0.887342
vt 0.295743 0.894644
vt 0.295709 0.877623
vt 0.309033 0.850034
vt 0.308436 0.866503
vt 0.362353 0.852820
vt 0.358327 0.882909
vt 0.403141 0.870589
vt 0.392033 0.907836
vt 0.358449 0.965783
vt 0.307661 0.856311
vt 0.275474 0.860107
vt 0.295638 0.858563
vt 0.310269 0.842394
vt 0.360126 0.835710
vt 0.393902 0.854472
vt 0.358075 0.855066
vt 0.368608 0.809240
vt 0.358220 0.804621
vt 0.350399 0.813858
vt 0.298404 0.813357
vt 0.299108 0.812113
vt 0.308891 0.810829
vt 0.318675 0.814048
vt 0.311583 0.806167
vt 0.303573 0.808185
vt 0.295562 0.812020
vt 0.357655 0.794324
vt 0.357591 0.794370
vt 0.341875 0.794692
vt 0.318389 0.794284
vt 0.302752 0.794286
vt 0.074849 0.804981
vt 0.137780 0.950939
vt 0.134083 0.961127
vt 0.032569 0.805006
vt 0.156904 0.804969
vt 0.189119 0.940427
vt 0.312016 0.794221
vt 0.119173 0.950182
vt 0.161207 0.918773
vt 0.135829 0.804577
vt 0.066144 0.804720
vt 0.298737 0.794238
vn 0.661411 -0.088394 0.744797
vn 0.661411 -0.088394 0.744797
vn 0.661411 -0.088394 0.744797
vn 0.661411 -0.088394 0.744797
vn -0.562605 -0.311260 0.765894
vn -0.562605 -0.311260 0.765894
vn -0.562605 -0.311260 0.765894
vn -0.562605 -0.311260 0.765894
vn -0.660754 -0.376890 0.649121
vn -0.660754 -0.376890 0.649121
vn -0.660754 -0.376890 0.649121
vn -0.660754 -0.376890 0.649121
vn -0.994788 -0.007525 0.101690
vn -0.994788 -0.007525 0.101690
vn -0.994788 -0.007525 0.101690
vn 0.771134 0.247340 -0.586664
vn 0.771134 0.247340 -0.586664
vn 0.771134 0.247340 -0.586664
vn 0.771134 0.247340 -0.586664
vn 0.927687 0.095514 0.360936
vn 0.927687 0.095514 0.360936
vn 0.927687 0.095514 0.360936
vn 0.927687 0.095514 0.360936
vn 0.597939 -0.258372 0.758757
vn 0.597939 -0.258372 0.758757
vn 0.597939 -0.258372 0.758757
vn 0.597939 -0.258372 0.758757
vn -0.604098 -0.404078 0.686867
vn -0.604098 -0.404078 0.686867
vn -0.604098 -0.404078 0.686867
vn -0.604098 -0.404078 0.686867
vn -0.572415 -0.429112 0.698716
vn -0.572415 -0.429112 0.698716
vn -0.572415 -0.429112 0.698716
vn -0.572415 -0.429112 0.698716
vn -0.941672 -0.323477 -0.092823
vn -0.941672 -0.323477 -0.092823
vn -0.941672 -0.323477 -0.092823
vn -0.941672 -0.323477 -0.092823
vn -0.443387 -0.081118 -0.892652
vn -0.443387 -0.081118 -0.892652
vn -0.443387 -0.081118 -0.892652
vn -0.443387 -0.081118 -0.892652
vn 0.619669 0.285864 -0.730953
vn 0.619669 0.285864 -0.730953
vn 0.619669 0.285864 -0.730953
vn 0.619669 0.285864 -0.730953
vn 0.981657 -0.031128 0.188098
vn 0.981657 -0.031128 0.188098
vn 0.981657 -0.031128 0.188098
vn 0.981657 -0.031128 0.188098
vn -0.331031 0.038194 -0.942847
vn -0.331031 0.038194 -0.942847
vn -0.331031 0.038194 -0.942847
vn -0.331031 0.038194 -0.942847
vn 0.601873 0.035287 -0.797812
vn 0.601873 0.035287 -0.797812
vn 0.601873 0.035287 -0.797812
vn 0.601873 0.035287 -0.797812
vn 0.589803 -0.534164 0.605641
vn 0.589803 -0.534164 0.605641
vn 0.589803 -0.534164 0.605641
vn 0.589803 -0.534164 0.605641
vn 0.589803 -0.534164 0.605641
vn 0.589803 -0.534164 0.605641
vn 0.934744 -0.347534 0.073988
vn 0.934744 -0.347534 0.073988
vn 0.934744 -0.347534 0.073988
vn 0.934744 -0.347534 0.073988
vn -0.511908 -0.519734 0.683979
vn -0.511908 -0.519734 0.683979
vn -0.511908 -0.519734 0.683979
vn -0.511908 -0.519734 0.683979
vn -0.511908 -0.519734 0.683979
vn -0.967589 -0.226052 -0.112568
vn -0.967589 -0.226052 -0.112568
vn -0.967589 -0.226052 -0.112568
vn -0.967589 -0.226052 -0.112568
vn -0.365813 -0.596254 0.714606
vn -0.365813 -0.596254 0.714606
vn -0.365813 -0.596254 0.714606
vn -0.365813 -0.596254 0.714606
vn -0.091225 0.305590 -0.947783
vn -0.091225 0.305590 -0.947783
vn -0.091225 0.305590 -0.947783
vn -0.091225 0.305590 -0.947783
vn 0.609383 0.275079 -0.743629
vn 0.609383 0.275079 -0.743629
vn 0.609383 0.275079 -0.743629
vn 0.609383 0.275079 -0.743629
vn 0.955677 -0.060615 0.288111
vn 0.955677 -0.060615 0.288111
vn 0.955677 -0.060615 0.288111
vn 0.955677 -0.060615 0.288111
vn 0.749371 -0.296471 0.592071
vn 0.749371 -0.296471 0.592071
vn 0.749371 -0.296471 0.592071
vn 0.749371 -0.296471 0.592071
vn 0.364135 -0.037710 0.930582
vn 0.364135 -0.037710 0.930582
vn 0.364135 -0.037711 0.930582
vn 0.364135 -0.037710 0.930582
vn 0.963804 0.067799 0.257847
vn 0.963804 0.067799 0.257848
vn 0.963804 0.067799 0.257848
vn 0.963804 0.067799 0.257848
vn -0.806834 -0.467255 -0.361513
vn -0.806834 -0.467255 -0.361513
vn -0.806834 -0.467255 -0.361513
vn -0.806834 -0.467255 -0.361513
vn -0.929086 -0.157765 0.334529
vn -0.929086 -0.157765 0.334529
vn -0.929086 -0.157765 0.334529
vn -0.929086 -0.157765 0.334529
vn -0.135007 -0.129170 0.982389
vn -0.135007 -0.129170 0.982389
vn -0.135007 -0.129170 0.982389
vn -0.135007 -0.129170 0.982389
vn 0.002785 -0.757145 -0.653241
vn 0.002785 -0.757145 -0.653241
vn 0.002785 -0.757145 -0.653241
vn 0.002785 -0.757145 -0.653241
vn 0.002785 -0.757145 -0.653241
vn 0.002785 -0.757145 -0.653241
vn 0.002785 -0.757145 -0.653241
vn -0.572693 -0.627889 0.527046
vn -0.572693 -0.627889 0.527047
vn -0.572693 -0.627889 0.527047
vn -0.572693 -0.627889 0.527046
vn 0.000951 -0.759691 -0.650283
vn 0.000951 -0.759691 -0.650283
vn 0.000951 -0.759691 -0.650283
vn 0.000951 -0.759691 -0.650283
vn 0.000951 -0.759692 -0.650283
s 1
g polySurface4
usemtl None
f 34/2/1 35/3/2 10/1/3
f 10/1/3 35/3/2 11/4/4
s 2
f 12/6/5 11/4/6 36/5/7
f 36/5/7 11/4/6 35/3/8
s 3
f 13/7/9 12/6/10 37/8/11
f 37/8/11 12/6/10 36/5/12
s off
f 38/9/13 13/7/14 37/8/15
s 4
f 14/11/16 39/12/17 15/10/18
f 15/10/18 39/12/17 40/13/19
s 5
f 34/2/20 10/1/21 40/13/22
f 40/13/22 10/1/21 15/10/23
s 6
f 16/14/24 10/1/25 17/15/26
f 17/15/26 10/1/25 11/4/27
s 7
f 18/16/28 17/15/29 12/6/30
f 12/6/30 17/15/29 11/4/31
s 8
f 19/17/32 18/16/33 13/7/34
f 13/7/34 18/16/33 12/6/35
s 9
f 20/18/36 19/17/37 38/9/38
f 38/9/38 19/17/37 13/7/39
s 10
f 14/11/40 21/19/41 38/9/42
f 38/9/42 21/19/41 20/18/43
s 11
f 22/20/44 21/19/45 15/10/46
f 15/10/46 21/19/45 14/11/47
s 12
f 10/1/48 16/14/49 15/10/50
f 15/10/50 16/14/49 22/20/51
s 13
f 21/19/52 26/21/53 20/18/54
f 20/18/54 26/21/53 2/22/55
s 14
f 27/23/56 26/21/57 22/20/58
f 22/20/58 26/21/57 21/19/59
s 15
f 17/15/60 1/24/61 16/14/62
f 1/24/61 29/25/63 16/14/62
f 29/25/63 31/26/64 16/14/62
f 16/14/62 31/26/64 23/27/65
s 16
f 22/20/66 16/14/67 27/23/68
f 27/23/68 16/14/67 23/27/69
s 17
f 18/16/70 19/17/71 24/30/72
f 24/30/72 19/17/71 32/29/73
f 19/17/71 25/28/74 32/29/73
s 18
f 20/18/75 2/22/76 19/17/77
f 19/17/77 2/22/76 25/28/78
s 19
f 18/16/79 24/30/80 17/15/81
f 17/15/81 24/30/80 1/24/82
s 20
f 7/31/83 5/32/84 26/21/85
f 26/21/85 5/32/84 2/22/86
s 21
f 6/33/87 7/31/88 27/23/89
f 27/23/89 7/31/88 26/21/90
s 22
f 27/23/91 23/27/92 6/33/93
f 6/33/93 23/27/92 9/34/94
s 23
f 30/35/95 9/34/96 31/26/97
f 31/26/97 9/34/96 23/27/98
s 24
f 29/37/99 1/38/100 28/36/101
f 28/36/101 1/38/100 4/39/102
s 25
f 31/41/103 29/37/104 30/40/105
f 30/40/105 29/37/104 28/36/106
s 26
f 3/42/107 25/28/108 5/32/109
f 5/32/109 25/28/108 2/22/110
s 27
f 32/44/111 33/45/112 24/43/113
f 24/43/113 33/45/112 8/46/114
s 28
f 24/43/115 8/46/116 1/38/117
f 1/38/117 8/46/116 4/39/118
s 29
f 5/32/119 7/31/120 3/42/121
f 7/31/120 6/33/122 3/42/121
f 6/33/122 9/34/123 3/42/121
f 9/34/123 30/35/124 3/42/121
f 3/42/121 30/35/124 33/47/125
s 30
f 33/47/126 32/29/127 3/42/128
f 3/42/128 32/29/127 25/28/129
s 31
f 33/45/130 30/40/131 8/46/132
f 30/40/131 28/36/133 8/46/132
f 8/46/132 28/36/133 4/39/134
