# This file uses centimeters as units for non-parametric coordinates.

mtllib TropiusFRLeg.mtl
g default1
v -1.431063 -1.282386 0.342623
v -0.215300 -1.549812 1.223301
v 0.446298 -1.609935 0.596242
v 0.783487 -2.260249 -0.049956
v -1.666376 -0.834079 -0.819385
v -0.258904 -0.736091 -2.025961
v -1.458274 -2.095728 0.057879
v -0.325885 -2.309583 0.863778
v 0.353390 -2.151917 0.368927
v 0.741863 -2.464863 -0.170944
v 0.683216 -2.156445 -1.428932
v -0.480659 -1.286089 -2.001356
v -1.705735 -1.627282 -1.147933
v -0.716260 -2.565578 -1.707531
v 0.418643 -2.846358 -1.596040
v -1.289119 -2.758410 -1.258961
v -0.505426 -3.631320 -0.250641
v -0.729093 -3.648944 -0.289212
v -0.832816 -3.517149 -0.506369
v -1.091611 -3.279336 -0.633873
v 0.465988 -3.582355 -0.651908
v -0.061000 -3.667503 -0.454856
v -0.168924 -3.709847 -0.221608
v -0.793950 -3.098162 -1.789995
v 0.238100 -3.098138 -1.787840
v -1.344097 -3.350834 -1.473642
v -1.153522 -3.749398 -1.021785
v -0.869833 -4.008323 -0.715525
v -0.859076 -4.267250 -0.409266
v -0.564630 -4.400610 -0.251418
v 0.142019 -3.856450 -0.898239
v -0.080748 -4.075961 -0.637828
v -0.192148 -4.295472 -0.377415
v -0.075280 0.226453 1.725689
v -0.641792 1.473504 1.203373
v 0.595402 -1.126245 0.799920
v 0.765313 -1.798547 0.161999
v 0.913445 -1.648277 -1.275981
v -1.208305 1.520620 0.173409
v -0.953395 0.210665 -1.316084
vt 0.309792 0.884202
vt 0.274106 0.887342
vt 0.283050 0.946744
vt 0.320749 0.977391
vt 0.295743 0.894644
vt 0.295709 0.877623
vt 0.309033 0.850034
vt 0.308436 0.866503
vt 0.362353 0.852820
vt 0.358327 0.882909
vt 0.358449 0.965783
vt 0.392033 0.907836
vt 0.403141 0.870589
vt 0.307661 0.856311
vt 0.275474 0.860107
vt 0.295638 0.858563
vt 0.310269 0.842394
vt 0.360126 0.835710
vt 0.393902 0.854472
vt 0.358075 0.855066
vt 0.358220 0.804621
vt 0.368608 0.809240
vt 0.350399 0.813858
vt 0.318675 0.814048
vt 0.308891 0.810829
vt 0.299108 0.812113
vt 0.298404 0.813357
vt 0.295562 0.812020
vt 0.303573 0.808185
vt 0.311583 0.806167
vt 0.357591 0.794370
vt 0.357655 0.794324
vt 0.341875 0.794692
vt 0.318389 0.794284
vt 0.302752 0.794286
vt 0.074849 0.804981
vt 0.032569 0.805006
vt 0.134083 0.961127
vt 0.137780 0.950939
vt 0.156904 0.804969
vt 0.189119 0.940427
vt 0.312016 0.794221
vt 0.119173 0.950182
vt 0.066144 0.804720
vt 0.135829 0.804577
vt 0.161207 0.918773
vt 0.298737 0.794238
vn -0.661411 -0.088394 0.744797
vn -0.661411 -0.088394 0.744797
vn -0.661411 -0.088394 0.744797
vn -0.661411 -0.088394 0.744797
vn 0.562605 -0.311260 0.765893
vn 0.562605 -0.311260 0.765893
vn 0.562605 -0.311260 0.765893
vn 0.562605 -0.311260 0.765893
vn 0.660754 -0.376890 0.649121
vn 0.660754 -0.376890 0.649121
vn 0.660754 -0.376890 0.649121
vn 0.660754 -0.376890 0.649121
vn 0.994788 -0.007525 0.101690
vn 0.994788 -0.007525 0.101690
vn 0.994788 -0.007525 0.101690
vn -0.771134 0.247340 -0.586664
vn -0.771134 0.247340 -0.586664
vn -0.771134 0.247340 -0.586664
vn -0.771134 0.247340 -0.586664
vn -0.927687 0.095514 0.360936
vn -0.927687 0.095514 0.360936
vn -0.927687 0.095514 0.360936
vn -0.927687 0.095514 0.360936
vn -0.597939 -0.258372 0.758757
vn -0.597939 -0.258372 0.758757
vn -0.597939 -0.258372 0.758757
vn -0.597939 -0.258372 0.758757
vn 0.604098 -0.404078 0.686867
vn 0.604098 -0.404078 0.686867
vn 0.604098 -0.404078 0.686867
vn 0.604098 -0.404078 0.686867
vn 0.572415 -0.429112 0.698716
vn 0.572415 -0.429112 0.698716
vn 0.572415 -0.429112 0.698716
vn 0.572415 -0.429112 0.698716
vn 0.941672 -0.323477 -0.092823
vn 0.941672 -0.323477 -0.092823
vn 0.941672 -0.323477 -0.092823
vn 0.941672 -0.323477 -0.092823
vn 0.443387 -0.081118 -0.892652
vn 0.443387 -0.081118 -0.892652
vn 0.443387 -0.081118 -0.892652
vn 0.443387 -0.081118 -0.892652
vn -0.619669 0.285864 -0.730953
vn -0.619669 0.285864 -0.730953
vn -0.619669 0.285864 -0.730953
vn -0.619669 0.285864 -0.730953
vn -0.981657 -0.031128 0.188097
vn -0.981657 -0.031128 0.188097
vn -0.981657 -0.031128 0.188097
vn -0.981657 -0.031128 0.188097
vn 0.331031 0.038194 -0.942847
vn 0.331031 0.038194 -0.942847
vn 0.331031 0.038194 -0.942847
vn 0.331031 0.038194 -0.942847
vn -0.601873 0.035287 -0.797812
vn -0.601873 0.035287 -0.797812
vn -0.601873 0.035287 -0.797812
vn -0.601873 0.035287 -0.797812
vn -0.589803 -0.534165 0.605641
vn -0.589803 -0.534165 0.605641
vn -0.589803 -0.534165 0.605641
vn -0.589803 -0.534165 0.605641
vn -0.589803 -0.534165 0.605641
vn -0.589803 -0.534165 0.605641
vn -0.934744 -0.347534 0.073988
vn -0.934744 -0.347534 0.073988
vn -0.934744 -0.347534 0.073988
vn -0.934744 -0.347534 0.073988
vn 0.511908 -0.519734 0.683979
vn 0.511908 -0.519734 0.683979
vn 0.511908 -0.519734 0.683979
vn 0.511908 -0.519734 0.683979
vn 0.511908 -0.519734 0.683979
vn 0.967589 -0.226052 -0.112568
vn 0.967589 -0.226052 -0.112568
vn 0.967589 -0.226052 -0.112568
vn 0.967589 -0.226052 -0.112568
vn 0.365813 -0.596254 0.714606
vn 0.365813 -0.596254 0.714606
vn 0.365813 -0.596254 0.714606
vn 0.365813 -0.596254 0.714606
vn 0.088967 0.302534 -0.948977
vn 0.088967 0.302534 -0.948977
vn 0.088967 0.302534 -0.948977
vn 0.088967 0.302534 -0.948977
vn -0.612778 0.268567 -0.743219
vn -0.612778 0.268567 -0.743219
vn -0.612778 0.268567 -0.743219
vn -0.612778 0.268567 -0.743219
vn -0.954451 -0.060681 0.292132
vn -0.954451 -0.060681 0.292133
vn -0.954451 -0.060681 0.292132
vn -0.954451 -0.060681 0.292133
vn -0.746485 -0.293965 0.596946
vn -0.746485 -0.293965 0.596946
vn -0.746485 -0.293965 0.596946
vn -0.746485 -0.293965 0.596946
vn -0.360549 -0.032016 0.932191
vn -0.360549 -0.032016 0.932191
vn -0.360549 -0.032016 0.932191
vn -0.360549 -0.032016 0.932191
vn -0.962974 0.067501 0.261007
vn -0.962974 0.067501 0.261007
vn -0.962974 0.067501 0.261007
vn -0.962974 0.067501 0.261007
vn 0.804751 -0.470464 -0.361994
vn 0.804751 -0.470464 -0.361994
vn 0.804751 -0.470464 -0.361994
vn 0.804751 -0.470464 -0.361994
vn 0.930682 -0.153412 0.332108
vn 0.930682 -0.153412 0.332108
vn 0.930682 -0.153412 0.332108
vn 0.930682 -0.153412 0.332108
vn 0.138985 -0.122029 0.982747
vn 0.138985 -0.122029 0.982747
vn 0.138985 -0.122029 0.982747
vn 0.138985 -0.122029 0.982747
vn -0.003579 -0.761682 -0.647941
vn -0.003579 -0.761682 -0.647941
vn -0.003579 -0.761682 -0.647941
vn -0.003579 -0.761682 -0.647941
vn -0.003579 -0.761682 -0.647941
vn -0.003579 -0.761682 -0.647941
vn -0.003579 -0.761682 -0.647941
vn 0.576049 -0.622957 0.529237
vn 0.576049 -0.622957 0.529237
vn 0.576049 -0.622957 0.529237
vn 0.576049 -0.622957 0.529237
vn -0.001728 -0.764204 -0.644972
vn -0.001728 -0.764204 -0.644972
vn -0.001728 -0.764204 -0.644972
vn -0.001728 -0.764204 -0.644972
vn -0.001728 -0.764204 -0.644972
s 1
g polySurface5
usemtl None
f 2/2/1 34/3/2 1/1/3
f 1/1/3 34/3/2 35/4/4
s 2
f 34/3/5 2/2/6 36/5/7
f 36/5/7 2/2/6 3/6/8
s 3
f 4/7/9 37/8/10 3/6/11
f 3/6/11 37/8/10 36/5/12
s off
f 38/9/13 37/8/14 4/7/15
s 4
f 39/11/16 40/12/17 5/10/18
f 5/10/18 40/12/17 6/13/19
s 5
f 35/4/20 39/11/21 1/1/22
f 1/1/22 39/11/21 5/10/23
s 6
f 7/14/24 8/15/25 1/1/26
f 1/1/26 8/15/25 2/2/27
s 7
f 2/2/28 8/15/29 3/6/30
f 3/6/30 8/15/29 9/16/31
s 8
f 10/17/32 4/7/33 9/16/34
f 9/16/34 4/7/33 3/6/35
s 9
f 11/18/36 38/9/37 10/17/38
f 10/17/38 38/9/37 4/7/39
s 10
f 6/13/40 38/9/41 12/19/42
f 12/19/42 38/9/41 11/18/43
s 11
f 13/20/44 5/10/45 12/19/46
f 12/19/46 5/10/45 6/13/47
s 12
f 13/20/48 7/14/49 5/10/50
f 5/10/50 7/14/49 1/1/51
s 13
f 12/19/52 11/18/53 14/22/54
f 14/22/54 11/18/53 15/21/55
s 14
f 16/23/56 13/20/57 14/22/58
f 14/22/58 13/20/57 12/19/59
s 15
f 8/15/60 7/14/61 17/27/62
f 17/27/62 7/14/61 18/26/63
f 18/26/63 7/14/61 19/25/64
f 7/14/61 20/24/65 19/25/64
s 16
f 20/24/66 7/14/67 16/23/68
f 16/23/68 7/14/67 13/20/69
s 17
f 9/16/70 23/28/71 10/17/72
f 23/28/71 22/29/73 10/17/72
f 10/17/72 22/29/73 21/30/74
s 18
f 11/18/75 10/17/76 15/21/77
f 15/21/77 10/17/76 21/30/78
s 19
f 9/16/79 8/15/80 23/28/81
f 23/28/81 8/15/80 17/27/82
s 20
f 15/21/83 25/31/84 14/22/85
f 14/22/85 25/31/84 24/32/86
s 21
f 14/22/87 24/32/88 16/23/89
f 16/23/89 24/32/88 26/33/90
s 22
f 27/34/91 20/24/92 26/33/93
f 26/33/93 20/24/92 16/23/94
s 23
f 20/24/95 27/34/96 19/25/97
f 19/25/97 27/34/96 28/35/98
s 24
f 30/37/99 17/38/100 29/36/101
f 29/36/101 17/38/100 18/39/102
s 25
f 29/36/103 18/39/104 28/40/105
f 28/40/105 18/39/104 19/41/106
s 26
f 15/21/107 21/30/108 25/31/109
f 25/31/109 21/30/108 31/42/110
s 27
f 33/44/111 32/45/112 23/43/113
f 23/43/113 32/45/112 22/46/114
s 28
f 30/37/115 33/44/116 17/38/117
f 17/38/117 33/44/116 23/43/118
s 29
f 25/31/119 31/42/120 24/32/121
f 24/32/121 31/42/120 26/33/122
f 26/33/122 31/42/120 27/34/123
f 27/34/123 31/42/120 28/35/124
f 31/42/120 32/47/125 28/35/124
s 30
f 21/30/126 22/29/127 31/42/128
f 31/42/128 22/29/127 32/47/129
s 31
f 32/45/130 33/44/131 28/40/132
f 28/40/132 33/44/131 29/36/133
f 33/44/131 30/37/134 29/36/133
