# This file uses centimeters as units for non-parametric coordinates.

mtllib DwebbleRLeg.mtl
g default1
v -0.020536 -0.043830 0.061632
v -0.882261 0.155296 0.242222
v -0.897704 0.271769 0.239214
v -0.006389 0.052593 0.058522
v -0.926955 0.271769 0.106143
v -0.036640 0.052593 -0.079093
v -0.911512 0.155296 0.109150
v -0.050787 -0.043830 -0.075983
v -1.112343 0.350948 0.487831
v -1.209427 0.350948 0.046181
v -1.009681 0.114105 0.002273
v -0.912597 0.114105 0.443922
v -1.495939 0.074931 0.543609
v -1.581052 0.074931 0.156416
v -1.415945 -0.120842 0.120122
v -1.330831 -0.120842 0.507315
v -1.746525 -0.228186 0.572990
v -1.820859 -0.228186 0.234834
v -1.711885 -0.357398 0.210879
v -1.637551 -0.357398 0.549035
v -2.097353 -0.855378 0.472861
vt 0.220297 0.043784
vt 0.223297 0.138467
vt 0.046120 0.239317
vt 0.049021 0.353688
vt 0.356025 0.138467
vt 0.177366 0.353688
vt 0.353025 0.043784
vt 0.174466 0.239317
vt 0.586494 0.464849
vt 0.587810 0.486896
vt 0.528284 0.464849
vt 0.529600 0.486896
vt 0.509457 0.537011
vt 0.534820 0.555115
vt 0.453169 0.537011
vt 0.348006 0.555115
vt 0.508185 0.510379
vt 0.553393 0.500961
vt 0.366579 0.500961
vt 0.451897 0.510379
vt 0.324412 0.492004
vt 0.488191 0.492004
vt 0.503544 0.447240
vt 0.339764 0.447240
vt 0.311984 0.422696
vt 0.455021 0.422696
vt 0.465154 0.393152
vt 0.322117 0.393152
vt 0.354338 0.279289
vn 0.205427 0.001424 0.978671
vn 0.205920 0.005845 0.978551
vn 0.210690 0.050659 0.976239
vn 0.210690 0.050659 0.976239
vn 0.205920 0.005845 0.978551
vn 0.210945 0.053167 0.976051
vn 0.228858 0.972159 -0.050309
vn 0.228858 0.972159 -0.050309
vn 0.228858 0.972159 -0.050308
vn 0.228858 0.972159 -0.050308
vn 0.228858 0.972159 -0.050309
vn 0.228858 0.972159 -0.050307
vn -0.210426 -0.000656 -0.977610
vn -0.215822 -0.051242 -0.975087
vn -0.210933 -0.005200 -0.977487
vn -0.210933 -0.005200 -0.977487
vn -0.215822 -0.051242 -0.975087
vn -0.216082 -0.053819 -0.974891
vn -0.215459 -0.975364 0.047363
vn -0.215460 -0.975364 0.047362
vn -0.215459 -0.975364 0.047363
vn -0.215459 -0.975364 0.047363
vn -0.215460 -0.975364 0.047362
vn -0.215460 -0.975364 0.047362
vn 0.965845 -0.148552 -0.212313
vn 0.965844 -0.148554 -0.212313
vn 0.965844 -0.148555 -0.212313
vn 0.965844 -0.148555 -0.212313
vn 0.965844 -0.148554 -0.212313
vn 0.965844 -0.148556 -0.212314
vn 0.281545 0.957550 -0.061888
vn 0.281545 0.957550 -0.061889
vn 0.281545 0.957550 -0.061889
vn 0.281545 0.957550 -0.061889
vn 0.281545 0.957550 -0.061889
vn 0.281545 0.957550 -0.061889
vn 0.719194 0.077529 -0.690470
vn 0.359886 0.374224 -0.854657
vn 0.371447 0.366970 -0.852854
vn 0.371447 0.366970 -0.852854
vn 0.359886 0.374224 -0.854657
vn 0.298108 0.411120 -0.861459
vn 0.480300 -0.870727 -0.105580
vn 0.480299 -0.870727 -0.105580
vn 0.480300 -0.870727 -0.105580
vn 0.480300 -0.870727 -0.105580
vn 0.480299 -0.870727 -0.105580
vn 0.480293 -0.870731 -0.105577
vn 0.720403 0.523149 0.455339
vn 0.757056 0.489837 0.432350
vn 0.793063 0.453340 0.406859
vn 0.793063 0.453340 0.406859
vn 0.757056 0.489837 0.432350
vn 0.975596 0.133840 0.174065
vn -0.567487 0.813878 0.124745
vn -0.567487 0.813878 0.124745
vn -0.567487 0.813878 0.124745
vn -0.567487 0.813878 0.124745
vn -0.567487 0.813878 0.124745
vn -0.567487 0.813878 0.124745
vn -0.257815 -0.038452 -0.965429
vn -0.257815 -0.038452 -0.965429
vn -0.257815 -0.038452 -0.965429
vn -0.257815 -0.038452 -0.965429
vn -0.257815 -0.038452 -0.965429
vn -0.257815 -0.038452 -0.965429
vn 0.475015 -0.873760 -0.104419
vn 0.475016 -0.873760 -0.104418
vn 0.475016 -0.873760 -0.104418
vn 0.475016 -0.873760 -0.104418
vn 0.475016 -0.873760 -0.104418
vn 0.475016 -0.873760 -0.104418
vn 0.170831 -0.038452 0.984550
vn 0.170831 -0.038452 0.984550
vn 0.170831 -0.038452 0.984550
vn 0.170831 -0.038452 0.984550
vn 0.170831 -0.038452 0.984550
vn 0.170831 -0.038452 0.984550
vn -0.752192 0.637862 0.165347
vn -0.752192 0.637862 0.165347
vn -0.752192 0.637862 0.165347
vn -0.752192 0.637862 0.165347
vn -0.752192 0.637862 0.165347
vn -0.752192 0.637861 0.165348
vn -0.261962 -0.042185 -0.964156
vn -0.261962 -0.042185 -0.964156
vn -0.261962 -0.042185 -0.964156
vn -0.261962 -0.042185 -0.964156
vn -0.261962 -0.042185 -0.964156
vn -0.261962 -0.042185 -0.964156
vn 0.594276 -0.793581 -0.130634
vn 0.594276 -0.793581 -0.130634
vn 0.594276 -0.793581 -0.130634
vn 0.594276 -0.793581 -0.130634
vn 0.594276 -0.793581 -0.130634
vn 0.594276 -0.793581 -0.130634
vn 0.166533 -0.042185 0.985133
vn 0.166533 -0.042185 0.985133
vn 0.166533 -0.042185 0.985133
vn 0.166533 -0.042185 0.985133
vn 0.166533 -0.042185 0.985133
vn 0.166533 -0.042184 0.985133
vn -0.869342 0.455769 0.191099
vn -0.869342 0.455769 0.191099
vn -0.869342 0.455769 0.191099
vn -0.396961 -0.167485 -0.902425
vn -0.396961 -0.167485 -0.902425
vn -0.396961 -0.167485 -0.902425
vn 0.737229 -0.655919 -0.162059
vn 0.737229 -0.655919 -0.162059
vn 0.737229 -0.655919 -0.162059
vn 0.018091 -0.167484 0.985709
vn 0.018091 -0.167484 0.985709
vn 0.018091 -0.167484 0.985709
s off
g RLeg
usemtl None
f 1/1/1 4/2/2 2/3/3
f 2/3/4 4/2/5 3/4/6
f 4/2/7 6/5/8 3/4/9
f 3/4/10 6/5/11 5/6/12
f 8/7/13 7/8/14 6/5/15
f 6/5/16 7/8/17 5/6/18
f 1/1/19 2/3/20 8/7/21
f 8/7/22 2/3/23 7/8/24
f 8/9/25 6/10/26 1/11/27
f 1/11/28 6/10/29 4/12/30
f 5/13/31 10/14/32 3/15/33
f 3/15/34 10/14/35 9/16/36
f 7/17/37 11/18/38 5/13/39
f 5/13/40 11/18/41 10/14/42
f 12/19/43 11/18/44 2/20/45
f 2/20/46 11/18/47 7/17/48
f 9/16/49 12/19/50 3/15/51
f 3/15/52 12/19/53 2/20/54
f 9/16/55 10/14/56 13/21/57
f 13/21/58 10/14/59 14/22/60
f 11/18/61 15/23/62 10/14/63
f 10/14/64 15/23/65 14/22/66
f 12/19/67 16/24/68 11/18/69
f 11/18/70 16/24/71 15/23/72
f 13/21/73 16/24/74 9/16/75
f 9/16/76 16/24/77 12/19/78
f 13/21/79 14/22/80 17/25/81
f 17/25/82 14/22/83 18/26/84
f 19/27/85 18/26/86 15/23/87
f 15/23/88 18/26/89 14/22/90
f 16/24/91 20/28/92 15/23/93
f 15/23/94 20/28/95 19/27/96
f 13/21/97 17/25/98 16/24/99
f 16/24/100 17/25/101 20/28/102
f 17/25/103 18/26/104 21/29/105
f 19/27/106 21/29/107 18/26/108
f 20/28/109 21/29/110 19/27/111
f 17/25/112 21/29/113 20/28/114
