# This file uses centimeters as units for non-parametric coordinates.

mtllib SnivyLLeg.mtl
g default1
v 0.596368 -2.400006 1.258184
v -0.016496 -2.400006 -0.337355
v 0.890972 -2.400006 -0.337355
v -0.611808 -0.219463 -0.836748
v -0.417336 -0.290702 0.591694
v 0.756685 -1.290515 0.072870
v 0.718049 -0.951063 -0.919463
v -0.401366 -1.217403 -0.919463
v -0.106420 -1.288642 0.271604
v 0.696455 -1.913840 0.653180
v 0.749066 -1.659237 -0.701334
v -0.179879 -1.925577 -0.701335
v 0.142988 -1.912977 0.653180
v -0.582237 0.029958 0.900000
v -0.646395 0.101196 -1.046360
v 0.928314 0.516270 -1.046359
v 0.582007 0.374031 -0.836747
v 1.056628 0.502448 0.900000
v 0.759101 0.360209 0.591694
vt 0.260414 0.691954
vt 0.433685 0.691954
vt 0.433685 0.691954
vt 0.299312 0.900486
vt 0.510680 0.906600
vt 0.332793 0.872968
vt 0.487917 0.879082
vt 0.510680 0.942220
vt 0.487917 0.930014
vt 0.213137 0.292904
vt 0.174876 0.284098
vt 0.207491 0.279535
vt 0.176321 0.270200
vt 0.332793 0.928827
vt 0.389136 0.787167
vt 0.496900 0.816298
vt 0.496900 0.793441
vt 0.367554 0.787328
vt 0.473212 0.755525
vt 0.326116 0.733675
vt 0.473212 0.732668
vt 0.326116 0.733749
vt 0.409113 0.822702
vt 0.404018 0.872266
vt 0.377396 0.869133
vt 0.380937 0.775137
vt 0.409255 0.739008
vt 0.394440 0.732294
vn 0.000001 -1.000000 0.000000
vn 0.000001 -1.000000 0.000000
vn 0.000001 -1.000000 0.000000
vn -0.950498 -0.304889 0.059970
vn -0.950498 -0.304889 0.059970
vn -0.949238 -0.290102 0.121609
vn -0.949075 -0.289334 0.124672
vn 0.269511 -0.739808 -0.616480
vn 0.095627 -0.263456 -0.959920
vn 0.269511 -0.739808 -0.616480
vn 0.024136 -0.067474 -0.997429
vn 0.315335 -0.790247 0.525427
vn 0.315335 -0.790247 0.525427
vn 0.255633 -0.538554 0.802877
vn 0.223022 -0.421503 0.878975
vn 0.994955 0.060807 -0.079793
vn 0.998330 0.029702 -0.049547
vn 0.994955 0.060807 -0.079793
vn 0.996557 0.048153 -0.067493
vn 0.095627 -0.263456 -0.959920
vn 0.005822 -0.042527 -0.999078
vn 0.024136 -0.067474 -0.997429
vn 0.009718 -0.056383 -0.998362
vn -0.949238 -0.290102 0.121609
vn -0.949075 -0.289334 0.124672
vn -0.946980 -0.259223 0.189822
vn -0.946916 -0.265316 0.181540
vn 0.255633 -0.538554 0.802877
vn 0.223022 -0.421503 0.878975
vn 0.177148 -0.053666 0.982720
vn 0.178393 -0.093790 0.979479
vn 0.996557 0.048153 -0.067493
vn 0.998330 0.029702 -0.049547
vn 0.998166 0.036738 0.048117
vn 0.988090 0.109918 0.107683
vn 0.005822 -0.042527 -0.999078
vn 0.073387 -0.373747 -0.924623
vn 0.009718 -0.056383 -0.998362
vn 0.073367 -0.381569 -0.921424
vn -0.946916 -0.265316 0.181540
vn -0.936842 -0.250789 0.243788
vn -0.946980 -0.259223 0.189822
vn -0.923182 -0.273811 0.269744
vn 0.178393 -0.093790 0.979479
vn 0.092097 0.647990 0.756061
vn 0.177148 -0.053666 0.982720
vn 0.083639 0.661640 0.745142
vn 0.998166 0.036738 0.048117
vn 0.988090 0.109918 0.107683
vn 0.982782 0.133983 0.127235
vn 0.982782 0.133983 0.127235
vn 0.073367 -0.381569 -0.921424
vn 0.073387 -0.373747 -0.924623
vn 0.072387 -0.499100 -0.863516
vn 0.072387 -0.499100 -0.863516
vn -0.936842 -0.250789 0.243788
vn -0.911293 -0.292009 0.290302
vn -0.923182 -0.273811 0.269744
vn -0.911293 -0.292009 0.290302
vn 0.083639 0.661640 0.745142
vn 0.092097 0.647990 0.756061
vn 0.001215 0.779410 0.626514
vn -0.248119 0.941314 0.228836
vn -0.224104 0.973468 0.046243
vn -0.230382 0.970350 0.073106
vn -0.272828 0.946325 -0.173304
vn -0.242412 0.970049 -0.015559
vn -0.229007 0.972881 0.032530
s off
g LLeg
usemtl None
f 1/1/1 2/2/2 3/3/3
s 1
f 14/4/4 15/5/5 5/6/6
f 5/6/6 15/5/5 4/7/7
s 2
f 16/8/8 17/9/9 15/5/10
s 3
f 15/5/10 17/9/9 4/7/11
s 2
f 18/10/12 14/11/13 19/12/14
s 5
f 19/12/14 14/11/13 5/13/15
s 6
f 19/14/16 6/15/17 17/9/18
f 17/9/18 6/15/17 7/16/19
s 7
f 17/9/20 7/16/21 4/7/22
f 4/7/22 7/16/21 8/17/23
s 8
f 5/6/24 4/7/25 9/18/26
f 9/18/26 4/7/25 8/17/27
s 9
f 19/14/28 5/6/29 6/15/30
f 6/15/30 5/6/29 9/18/31
s 10
f 7/16/32 6/15/33 11/19/34
f 11/19/34 6/15/33 10/20/35
s 11
f 7/16/36 11/19/37 8/17/38
f 8/17/38 11/19/37 12/21/39
s 12
f 8/17/40 12/21/41 9/18/42
f 9/18/42 12/21/41 13/22/43
s 13
f 9/18/44 13/22/45 6/15/46
f 6/15/46 13/22/45 10/20/47
s 14
f 11/19/48 10/20/49 3/3/50
f 3/3/50 10/20/49 1/1/51
s 15
f 12/21/52 11/19/53 2/2/54
f 2/2/54 11/19/53 3/3/55
s 16
f 12/21/56 2/2/57 13/22/58
f 13/22/58 2/2/57 1/1/59
s off
f 10/20/60 13/22/61 1/1/62
s 3
f 16/24/63 15/25/64 17/23/65
s 5
f 18/27/66 19/28/67 14/26/68
s 2
f 15/25/64 14/26/68 17/23/65
f 17/23/65 14/26/68 19/28/67
