# This file uses centimeters as units for non-parametric coordinates.

mtllib SnivyRArm.mtl
g default1
v -1.051908 -1.188176 -0.217770
v -0.917251 -1.491351 -0.671280
v -1.934787 -2.333326 -0.149842
v -2.347107 -3.522414 -0.634428
v -1.680496 -2.615899 -0.667533
v -2.242492 -2.999200 -0.242413
v -2.205465 -2.862099 0.116797
v -2.412580 -3.203449 0.475293
v -0.781691 -0.764976 0.461378
v -1.598555 -1.919230 0.404084
v -1.378128 -2.176976 0.345750
v -2.414166 -3.554143 0.068879
v -0.860112 -1.488393 0.459403
v 0.164269 0.389272 -0.462650
v -0.154006 -0.366811 -0.577899
v 0.035172 0.389272 0.550000
v -0.342098 -0.799815 0.550000
vt 0.206594 0.934453
vt 0.226191 0.894637
vt 0.164954 0.851382
vt 0.242070 0.835416
vt 0.153404 0.791076
vt 0.241433 0.776196
vt 0.235804 0.728456
vt 0.169145 0.756010
vt 0.108065 0.763230
vt 0.047105 0.745254
vt 0.034402 0.934453
vt 0.049472 0.873668
vt 0.059214 0.812883
vt 0.069133 0.799310
vt 0.116213 0.726786
vt 0.049808 0.835572
vt 0.034402 0.871834
vt 0.113869 0.829856
vt 0.142390 0.859660
vt 0.168567 0.907409
vt 0.114328 0.885431
vn -0.652144 0.443265 -0.615000
vn -0.652144 0.443265 -0.615000
vn -0.652144 0.443265 -0.615000
vn -0.652144 0.443265 -0.615000
vn -0.665096 0.467827 -0.582053
vn -0.665096 0.467827 -0.582053
vn -0.665096 0.467827 -0.582053
vn -0.828492 0.432335 -0.355932
vn -0.828492 0.432335 -0.355932
vn -0.828492 0.432335 -0.355932
vn -0.909014 0.385683 -0.157931
vn -0.909014 0.385683 -0.157931
vn -0.909014 0.385683 -0.157931
vn -0.801781 0.592072 -0.081226
vn -0.801781 0.592072 -0.081226
vn -0.801781 0.592072 -0.081226
vn -0.801781 0.592072 -0.081226
vn -0.837072 0.536526 0.107011
vn -0.810104 0.586209 0.009504
vn -0.822730 0.566174 0.050623
vn 0.757732 -0.481487 -0.440468
vn 0.757732 -0.481487 -0.440468
vn 0.757732 -0.481487 -0.440468
vn -0.932501 0.358850 -0.040840
vn -0.932501 0.358850 -0.040840
vn -0.932501 0.358850 -0.040840
vn -0.932501 0.358850 -0.040840
vn -0.193978 0.045207 0.979964
vn -0.193978 0.045207 0.979964
vn -0.193978 0.045207 0.979964
vn -0.193978 0.045207 0.979964
vn 0.818053 -0.571850 -0.061453
vn 0.818053 -0.571850 -0.061453
vn 0.818053 -0.571850 -0.061453
vn 0.818053 -0.571850 -0.061453
vn 0.031743 -0.603369 0.796830
vn 0.031743 -0.603369 0.796830
vn 0.031743 -0.603369 0.796830
vn -0.280623 0.018182 0.959646
vn -0.280623 0.018182 0.959646
vn -0.280623 0.018182 0.959646
vn 0.805803 -0.591969 0.015968
vn 0.805803 -0.591969 0.015968
vn 0.805803 -0.591969 0.015968
vn 0.656908 -0.697994 -0.285091
vn 0.656908 -0.697994 -0.285091
vn 0.656908 -0.697994 -0.285091
vn 0.185556 -0.063245 0.980596
vn 0.185556 -0.063245 0.980596
vn 0.185556 -0.063245 0.980596
vn -0.822730 0.566174 0.050623
vn -0.810104 0.586209 0.009504
vn -0.804137 0.594389 -0.008120
vn -0.804137 0.594389 -0.008120
vn -0.679613 0.475251 -0.558805
vn -0.679613 0.475251 -0.558805
vn -0.679613 0.475251 -0.558805
vn -0.679613 0.475251 -0.558805
vn 0.817055 -0.576272 -0.018234
vn 0.817055 -0.576272 -0.018234
vn 0.817055 -0.576272 -0.018234
vn 0.817055 -0.576272 -0.018234
vn -0.035906 -0.066488 0.997141
vn -0.035906 -0.066488 0.997141
vn -0.035906 -0.066488 0.997141
vn -0.035906 -0.066488 0.997141
vn 0.909019 -0.400318 0.115886
vn 0.941571 -0.330722 0.063772
vn 0.939618 -0.335537 0.067327
vn 0.952301 -0.302143 0.042815
s 1
g RArm
usemtl None
f 14/1/1 15/2/2 1/3/3
f 1/3/3 15/2/2 2/4/4
s off
f 3/5/5 5/6/6 4/7/7
f 3/5/8 4/7/9 6/8/10
f 7/9/11 8/10/12 3/5/13
s 2
f 16/11/14 14/1/15 9/12/16
f 9/12/16 14/1/15 1/3/17
s off
f 8/10/18 10/13/19 3/5/20
f 11/14/21 12/15/22 6/8/23
s 3
f 12/15/24 7/9/25 6/8/26
f 6/8/26 7/9/25 3/5/27
s 4
f 13/16/28 17/17/29 9/12/30
f 9/12/30 17/17/29 16/11/31
s 5
f 15/2/32 17/17/33 2/4/34
f 2/4/34 17/17/33 13/16/35
s off
f 11/14/36 6/8/37 4/7/38
f 7/9/39 12/15/40 11/14/41
f 4/7/42 5/6/43 11/14/44
f 8/10/45 7/9/46 11/14/47
f 11/14/48 10/13/49 8/10/50
s 6
f 3/5/51 10/13/52 1/3/53
f 1/3/53 10/13/52 9/12/54
s 7
f 5/6/55 3/5/56 2/4/57
f 2/4/57 3/5/56 1/3/58
s 8
f 13/16/59 11/14/60 2/4/61
f 2/4/61 11/14/60 5/6/62
s 9
f 9/12/63 10/13/64 13/16/65
f 13/16/65 10/13/64 11/14/66
s 10
f 14/18/67 16/19/68 15/21/69
f 15/21/69 16/19/68 17/20/70
