# This file uses centimeters as units for non-parametric coordinates.

mtllib SnivyLArm.mtl
g default1
v 1.596156 -2.615899 -0.667533
v 2.329827 -3.554143 0.068879
v 1.850447 -2.333326 -0.149842
v 1.514216 -1.919230 0.404084
v 2.328241 -3.203449 0.475293
v 2.262768 -3.522414 -0.634428
v 2.158153 -2.999200 -0.242413
v 2.121125 -2.862099 0.116797
v 1.293788 -2.176976 0.345750
v 0.967569 -1.188176 -0.217770
v 0.832911 -1.491351 -0.671280
v 0.697352 -0.764976 0.461378
v 0.775773 -1.488393 0.459403
v 0.069667 -0.366811 -0.577899
v -0.248608 0.389272 -0.462650
v -0.119512 0.389272 0.550000
v 0.257758 -0.799815 0.550000
vt 0.242070 0.835416
vt 0.226191 0.894637
vt 0.164955 0.851382
vt 0.206594 0.934453
vt 0.153404 0.791076
vt 0.235804 0.728456
vt 0.241433 0.776196
vt 0.169145 0.756010
vt 0.108065 0.763230
vt 0.047105 0.745254
vt 0.049472 0.873668
vt 0.034402 0.934453
vt 0.059214 0.812883
vt 0.069133 0.799310
vt 0.116212 0.726786
vt 0.049808 0.835572
vt 0.034402 0.871834
vt 0.097141 0.805887
vt 0.142208 0.826204
vt 0.183378 0.890282
vt 0.105374 0.903371
vn 0.652144 0.443265 -0.615000
vn 0.652144 0.443265 -0.615000
vn 0.652144 0.443265 -0.615000
vn 0.652144 0.443265 -0.615000
vn 0.665096 0.467827 -0.582053
vn 0.665096 0.467827 -0.582053
vn 0.665096 0.467827 -0.582053
vn 0.828492 0.432334 -0.355932
vn 0.828492 0.432334 -0.355932
vn 0.828492 0.432334 -0.355932
vn 0.909015 0.385680 -0.157932
vn 0.909015 0.385680 -0.157932
vn 0.909015 0.385680 -0.157932
vn 0.801781 0.592072 -0.081226
vn 0.801781 0.592072 -0.081226
vn 0.801781 0.592072 -0.081226
vn 0.801781 0.592072 -0.081226
vn 0.837071 0.536526 0.107011
vn 0.822729 0.566175 0.050623
vn 0.810104 0.586209 0.009504
vn -0.757732 -0.481487 -0.440468
vn -0.757732 -0.481487 -0.440468
vn -0.757732 -0.481487 -0.440468
vn 0.932501 0.358850 -0.040840
vn 0.932501 0.358850 -0.040840
vn 0.932501 0.358850 -0.040840
vn 0.932501 0.358850 -0.040840
vn 0.193978 0.045207 0.979964
vn 0.193978 0.045207 0.979964
vn 0.193978 0.045207 0.979964
vn 0.193978 0.045207 0.979964
vn -0.818053 -0.571850 -0.061453
vn -0.818053 -0.571850 -0.061453
vn -0.818053 -0.571850 -0.061453
vn -0.818053 -0.571850 -0.061453
vn -0.031743 -0.603368 0.796831
vn -0.031743 -0.603368 0.796831
vn -0.031743 -0.603368 0.796831
vn 0.280623 0.018182 0.959646
vn 0.280623 0.018182 0.959646
vn 0.280623 0.018182 0.959646
vn -0.805803 -0.591968 0.015968
vn -0.805803 -0.591968 0.015968
vn -0.805803 -0.591968 0.015968
vn -0.656908 -0.697994 -0.285091
vn -0.656908 -0.697994 -0.285091
vn -0.656908 -0.697994 -0.285091
vn -0.185556 -0.063245 0.980596
vn -0.185556 -0.063245 0.980596
vn -0.185556 -0.063245 0.980596
vn 0.804137 0.594389 -0.008120
vn 0.810104 0.586209 0.009504
vn 0.804137 0.594389 -0.008120
vn 0.822729 0.566175 0.050623
vn 0.679613 0.475251 -0.558805
vn 0.679613 0.475251 -0.558805
vn 0.679613 0.475251 -0.558805
vn 0.679613 0.475251 -0.558805
vn -0.817055 -0.576272 -0.018234
vn -0.817055 -0.576272 -0.018234
vn -0.817055 -0.576272 -0.018234
vn -0.817055 -0.576272 -0.018234
vn 0.035906 -0.066488 0.997141
vn 0.035906 -0.066488 0.997141
vn 0.035906 -0.066488 0.997141
vn 0.035906 -0.066488 0.997141
vn -0.909019 -0.400318 0.115885
vn -0.939618 -0.335537 0.067327
vn -0.941571 -0.330722 0.063771
vn -0.952301 -0.302143 0.042814
s 1
g LArm
usemtl None
f 11/1/1 14/2/2 10/3/3
f 10/3/3 14/2/2 15/4/4
s off
f 3/5/5 6/6/6 1/7/7
f 3/5/8 7/8/9 6/6/10
f 8/9/11 3/5/12 5/10/13
s 2
f 10/3/14 15/4/15 12/11/16
f 12/11/16 15/4/15 16/12/17
s off
f 5/10/18 3/5/19 4/13/20
f 9/14/21 7/8/22 2/15/23
s 3
f 3/5/24 8/9/25 7/8/26
f 7/8/26 8/9/25 2/15/27
s 4
f 13/16/28 12/11/29 17/17/30
f 17/17/30 12/11/29 16/12/31
s 5
f 13/16/32 17/17/33 11/1/34
f 11/1/34 17/17/33 14/2/35
s off
f 9/14/36 6/6/37 7/8/38
f 8/9/39 9/14/40 2/15/41
f 6/6/42 9/14/43 1/7/44
f 5/10/45 9/14/46 8/9/47
f 9/14/48 5/10/49 4/13/50
s 6
f 12/11/51 4/13/52 10/3/53
f 10/3/53 4/13/52 3/5/54
s 7
f 10/3/55 3/5/56 11/1/57
f 11/1/57 3/5/56 1/7/58
s 8
f 13/16/59 11/1/60 9/14/61
f 9/14/61 11/1/60 1/7/62
s 9
f 12/11/63 13/16/64 4/13/65
f 4/13/65 13/16/64 9/14/66
s 10
f 15/19/67 14/20/68 16/18/69
f 16/18/69 14/20/68 17/21/70
