# Blender v2.71 (sub 0) OBJ File: 'luxray temp.blend'
# www.blender.org
mtllib Luxray_M_Left_Leg_Front.mtl
o Luxray_L_Leg
v 1.419851 -3.806072 -0.675175
v 1.231674 -3.904669 -0.486442
v 1.424396 -3.848040 -0.286332
v 1.553563 -3.766782 -0.536338
v 1.554015 -4.094098 -0.341533
v 1.361292 -4.150728 -0.541643
v 1.509781 -3.976788 -0.713473
v 1.643492 -3.937499 -0.574636
v 1.697966 -3.694833 -0.810496
v 1.002972 -3.739285 -0.664245
v 0.947410 -3.942157 -0.348271
v 1.310322 -3.942157 -0.348271
v 1.254760 -3.739285 -0.664245
v 1.310322 -4.198774 -0.604888
v 0.947410 -4.198774 -0.604888
v 1.002972 -3.917327 -0.842287
v 1.254760 -3.917327 -0.842287
v 1.151125 -3.517218 -0.989398
v 1.468840 -3.622015 -0.406586
v 1.199738 -3.790166 -0.302901
v 1.339066 -3.679820 0.005964
v 1.565506 -3.545456 -0.192294
v 1.565070 -3.955313 0.002439
v 1.425741 -4.065660 -0.306427
v 1.625642 -3.813154 -0.409032
v 1.722308 -3.736595 -0.194740
v 1.860689 -3.431820 -0.447273
v 0.997450 -3.507811 0.167072
v 1.315419 -3.513050 0.089388
v 1.475754 -2.700703 0.116099
v 1.119018 -2.656301 0.259593
v 1.099080 -2.711700 -0.738674
v 1.461345 -2.740744 -0.605467
v 1.394047 -3.645375 -0.502235
v 1.105208 -3.493999 -0.656117
v 1.470882 -3.571495 -0.192710
v 1.606409 -2.734809 -0.246653
v 0.632799 -3.627198 -0.291637
v 0.709636 -3.553315 0.017882
v 0.756752 -2.627256 0.126386
v 0.611688 -2.633194 -0.232426
v 0.788264 -3.685640 -0.573738
v 0.742340 -2.667299 -0.595181
v 1.168395 -2.130738 0.303564
v 0.783432 -2.055432 0.207290
v 0.728244 -1.929843 -0.694268
v 1.152886 -1.946348 -0.869036
v 0.570188 -1.980357 -0.265777
v 1.751093 -2.096729 -0.299695
v 1.593037 -2.147241 0.128795
v 1.581826 -2.013960 -0.718784
v 1.221651 -1.123440 0.546877
v 0.778256 -1.006142 0.368181
v 0.810374 -1.022379 -0.552797
v 1.249485 -1.012742 -0.758232
v 0.575139 -1.018486 -0.216419
v 1.851443 -1.137039 -0.169292
v 1.654269 -1.192776 0.346447
v 1.704470 -1.055664 -0.641034
v 1.720107 -0.450521 0.647292
v 1.268746 -0.598565 0.935645
v 1.615889 0.328533 0.718162
v 1.152316 0.307243 1.090572
v 1.562407 0.894994 0.514260
v 1.271179 0.881427 0.804749
v 1.347506 1.286024 -0.006098
v 1.232650 1.336681 0.090873
v 1.816804 0.078562 0.083221
v 1.990417 0.123836 -0.303709
v 1.953836 0.637276 -0.588039
v 1.856745 0.731284 -0.430568
v 1.877149 0.909735 -0.794242
v 1.780181 0.967843 -0.681317
v 1.985977 -0.219836 -0.453025
v 1.930374 0.069967 -1.056036
v 1.938510 0.393637 -0.866842
v 1.887694 0.428498 -1.429160
v 1.897524 0.600996 -1.313087
v 1.854975 0.795857 -1.781943
v 1.862200 0.888267 -1.667730
v 1.259073 -0.939042 -0.702323
v 1.759022 -0.807893 -0.583041
v 1.372457 -0.729814 -0.972424
v 1.624441 -0.693590 -0.887778
v 2.015508 -0.573121 -0.187741
v 1.693994 0.352037 0.403122
v 1.659026 0.769908 0.229883
v 1.442875 1.161945 -0.148559
v 1.583752 0.446171 -0.069919
v 1.504834 0.504770 -0.036860
v 1.425860 0.585781 -0.041624
v 1.330551 0.986773 -0.280562
v 1.231708 0.546387 -0.225311
v 1.145670 0.472518 0.005956
v 1.132000 0.591306 -0.012329
v 1.136064 0.990720 -0.260664
v 0.861090 0.287523 0.483068
v 0.881979 0.734110 0.268460
v 0.946769 1.144892 -0.091823
v 1.052798 1.263184 0.072502
v 0.957048 0.684746 0.979361
v 0.675530 0.160072 1.359039
v 0.794834 -0.816855 0.965516
v 0.717171 -0.397406 0.421253
v 1.134851 1.678571 -0.741841
v 1.665910 0.760788 -0.331522
v 1.678460 0.992047 -0.627636
v 1.838329 0.479630 -0.759076
v 1.835072 0.562494 -0.791269
v 1.809705 0.832819 -1.010303
v 1.804873 0.508363 -0.854513
v 1.797218 0.741869 -1.206748
v 1.766508 0.931408 -1.531674
v 1.841513 -0.406887 -0.775976
v 1.793298 -0.085620 -1.279579
v 1.780433 0.245608 -1.559059
v 1.770847 0.636425 -1.822309
v 1.539319 -0.028911 -1.217122
v 1.547428 0.326664 -1.496229
v 1.595157 0.674669 -1.736043
v 1.517303 -0.280432 -0.817181
v 1.609909 0.336253 -0.919542
v 1.539186 0.292659 -0.574321
v 1.583481 0.582841 -1.316784
v 1.556117 0.805374 -1.591504
v 1.773748 0.538655 -0.605717
v 1.660906 0.921753 -0.795081
v 1.054792 0.416826 -0.699880
v 1.718496 1.399728 -1.191367
v 1.632457 1.324436 -2.035635
v 1.505228 -0.459899 -1.287269
v 1.196390 -0.446405 -0.914274
v 1.018176 -0.002316 -1.020935
v 0.892173 -0.696960 -0.697225
v 0.057602 -0.563559 -0.125532
v 0.097350 -0.490010 -0.365920
v 0.321856 0.106663 -0.248495
v 0.260958 0.145250 -0.119734
v 0.134529 0.063062 0.092231
v 0.070591 -0.241227 0.064768
v 0.292953 -0.109485 -0.497945
v 0.335005 0.047101 -0.379826
v 0.221104 -0.348544 -0.491894
v 0.159928 -0.149032 -0.172511
v 1.165350 -4.491957 1.018367
v 1.216921 -4.501825 0.593296
v 1.214772 -4.088150 0.583431
v 1.172526 -4.175765 0.936960
v 0.945334 -4.038551 1.028438
v 0.986659 -3.937436 0.675511
v 0.938865 -4.490876 1.113091
v 1.268893 -4.492112 0.989288
v 1.481877 -4.488937 1.076053
v 1.470769 -4.065252 0.996823
v 1.258447 -4.195967 0.913101
v 1.428014 -3.970935 0.666554
v 1.665922 -4.491269 0.938132
v 1.702831 -4.500291 0.551727
v 1.612721 -4.100806 0.531674
v 1.655476 -4.195124 0.861943
v 1.377768 -3.811282 0.433356
v 1.011179 -3.779386 0.459499
v 1.667559 -4.064389 0.183385
v 1.627686 -4.436649 0.157944
v 1.511543 -4.449090 -0.338484
v 1.598330 -4.280920 -0.400772
v 1.135974 -4.455851 -0.540151
v 1.179907 -4.247453 -0.734244
v 0.741092 -4.495370 0.967712
v 0.748269 -4.179178 0.886305
v 0.789055 -4.091575 0.532603
v 0.791204 -4.505250 0.542467
v 0.647321 -4.497112 0.915075
v 0.670711 -4.200695 0.842927
v 0.442602 -4.073522 0.874065
v 0.419874 -4.497480 0.949255
v 0.560406 -3.977913 0.562965
v 0.273532 -4.502469 0.771886
v 0.296923 -4.206052 0.699737
v 0.414727 -4.110443 0.388638
v 0.328777 -4.511344 0.387670
v 0.661601 -3.817043 0.347849
v 0.442855 -4.074241 0.037160
v 0.493494 -4.445773 0.022526
v 0.628162 -4.246889 -0.675484
v 0.723424 -4.455430 -0.432582
v 1.459876 -4.501058 0.572512
v 1.060123 -4.495667 0.105142
v 1.108590 -4.487185 -0.308691
v 1.004063 -4.503537 0.567881
v 0.559990 -4.508296 0.465069
vt 0.886428 0.773017
vt 0.982029 0.773017
vt 0.982029 0.868618
vt 0.886428 0.868618
vt 0.863309 0.130465
vt 0.819691 0.129807
vt 0.819933 0.028356
vt 0.890093 0.019568
vt 0.926309 0.021232
vt 0.949945 0.129191
vt 0.776858 0.127398
vt 0.784115 0.033532
vt 0.856315 0.044439
vt 0.907106 0.131185
vt 0.912865 0.211761
vt 0.864380 0.214802
vt 0.961908 0.203092
vt 0.815654 0.211399
vt 0.918110 0.313059
vt 0.864730 0.316867
vt 0.963657 0.312378
vt 0.766969 0.201462
vt 0.813015 0.317417
vt 0.864690 0.327075
vt 0.807518 0.345360
vt 0.758653 0.377024
vt 0.757555 0.312086
vt 0.906315 0.351694
vt 0.886428 0.657696
vt 0.982029 0.657696
vt 0.982029 0.753297
vt 0.886428 0.753297
vn -0.646200 0.542000 -0.537200
vn -0.718700 0.545000 -0.431800
vn 0.330500 0.834000 0.441800
vn 0.940000 -0.302700 0.157500
vn -0.034300 -0.687400 -0.725500
vn 0.016600 -0.563600 -0.825900
vn 0.299100 0.860400 0.412500
vn 0.548200 0.564800 -0.616700
vn 0.952100 -0.298400 0.067000
vn -0.695000 0.676900 0.242200
vn -0.671900 0.671300 0.312900
vn 0.671900 0.671300 0.312900
vn -0.710300 -0.366600 -0.600900
vn -0.656000 -0.257000 -0.709600
vn 0.653800 -0.281600 -0.702300
vn 0.710300 -0.366600 -0.600900
vn 0.050100 0.785600 -0.616700
vn 0.694800 0.665000 0.274100
vn -0.546200 0.431500 -0.717900
vn -0.049900 0.852300 0.520700
vn -0.017400 0.876800 0.480500
vn 0.353100 -0.578400 -0.735400
vn 0.407500 -0.496700 -0.766200
vn 0.888700 -0.153500 0.431900
vn 0.863500 -0.205800 0.460400
vn -0.464400 0.492000 -0.736400
vn 0.677200 0.624200 -0.389500
vn -0.170800 0.384900 0.907000
vn 0.631400 0.311000 0.710300
vn 0.689000 -0.153700 0.708300
vn -0.020900 -0.128500 -0.991500
vn 0.676200 -0.175100 -0.715600
vn 0.754500 0.005700 -0.656200
vn 0.995500 0.086100 0.037700
vn 0.984700 -0.174000 -0.003000
vn -0.969800 0.102900 -0.221000
vn -0.830100 0.292500 0.474700
vn -0.700200 -0.072200 0.710300
vn -0.670200 0.147900 -0.727200
vn -0.998400 -0.050500 0.025300
vn 0.014800 -0.114100 0.993300
vn 0.137500 -0.019600 -0.990300
vn 0.052200 -0.150100 0.987300
vn -0.654100 -0.087200 0.751300
vn -0.732000 -0.077400 -0.676800
vn -0.700400 0.006800 -0.713700
vn -0.038900 -0.027300 -0.998800
vn -0.999300 -0.036600 0.007800
vn 0.983400 -0.173400 -0.052900
vn 0.659400 -0.125100 -0.741300
vn 0.733100 -0.187600 0.653700
vn -0.067400 -0.432600 0.899000
vn -0.631700 -0.549100 0.547200
vn -0.591000 -0.120100 -0.797700
vn -0.001000 0.241500 -0.970400
vn 0.981500 -0.189000 0.030400
vn 0.724900 -0.281900 0.628500
vn -0.941500 -0.335100 -0.035700
vn 0.652500 0.001200 -0.757700
vn 0.803500 -0.104400 0.586100
vn 0.335200 -0.368600 0.867000
vn 0.804300 0.168000 0.569900
vn 0.501000 0.116800 0.857500
vn 0.748200 0.516400 0.416500
vn 0.304000 0.637200 0.708200
vn 0.706400 0.676200 0.209100
vn 0.904800 0.280200 0.320600
vn 0.970500 0.150900 0.187800
vn 0.992800 0.115700 -0.030300
vn 0.684100 0.522100 0.509200
vn 0.946000 0.323400 0.018300
vn 0.976700 -0.111000 -0.183300
vn 0.960400 -0.182500 -0.210400
vn 0.962600 -0.134400 -0.235000
vn 0.972400 0.228000 0.048600
vn 0.884100 -0.034900 -0.466000
vn 0.081100 0.120000 -0.989400
vn 0.755000 -0.257900 -0.602800
vn -0.260500 -0.699600 -0.665300
vn 0.990900 -0.133500 0.015700
vn 0.972100 0.223200 0.072100
vn 0.969500 0.150100 -0.193400
vn 0.928800 0.257300 -0.266600
vn 0.304100 0.890900 0.337400
vn 0.453000 0.617300 -0.643200
vn 0.408000 -0.164500 -0.898000
vn 0.431800 -0.388600 -0.814000
vn 0.019000 0.997500 -0.067200
vn -0.588600 0.688900 -0.422900
vn -0.521400 -0.330700 -0.786600
vn -0.470300 -0.487000 -0.735900
vn -0.970800 0.238200 0.029500
vn -0.969200 0.002100 -0.246200
vn 0.144100 0.883400 0.445900
vn -0.641800 0.689800 0.334900
vn -0.425200 0.680400 0.596800
vn -0.416700 -0.627700 0.657500
vn -0.546200 0.041400 0.836600
vn -0.978000 0.084700 -0.190700
vn -0.853900 -0.037000 0.519100
vn -0.087000 0.637500 -0.765500
vn -0.569800 0.603100 0.558200
vn 0.601600 0.651700 0.461900
vn 0.750900 0.098300 -0.653000
vn 0.061700 -0.396600 -0.915900
vn 0.133900 -0.421500 -0.896900
vn 0.913500 0.386500 0.127000
vn 0.004400 0.913600 0.406500
vn 0.148700 0.840100 0.521600
vn 0.926300 0.373800 0.047800
vn 0.140900 0.832200 0.536200
vn 0.352100 -0.687400 -0.635200
vn 0.329100 -0.573100 -0.750500
vn 0.826300 -0.324700 -0.460200
vn -0.800400 -0.424800 -0.422800
vn -0.853600 -0.302400 -0.424100
vn 0.221400 -0.433100 -0.873700
vn -0.273900 0.312800 -0.909500
vn -0.882100 0.466100 0.068300
vn -0.381900 0.802500 -0.458400
vn -0.890900 0.334900 0.306600
vn -0.924900 0.324800 0.197300
vn -0.780700 -0.253300 -0.571200
vn -0.947600 0.217500 -0.234000
vn -0.968300 -0.154700 -0.196100
vn -0.101400 0.820300 -0.562800
vn -0.076500 0.787900 -0.611000
vn -0.462700 0.717700 0.520400
vn -0.149700 0.816600 -0.557500
vn 0.544400 -0.668100 -0.507200
vn 0.063100 0.143900 -0.987500
vn -0.770800 0.497700 -0.397600
vn -0.048100 0.197900 -0.979000
vn -0.350500 -0.282400 -0.892900
vn -0.853600 -0.447300 0.266800
vn -0.624800 0.663900 -0.410800
vn -0.685100 0.678600 -0.264800
vn -0.806200 0.487300 0.335500
vn -0.911600 -0.063100 0.406100
vn -0.734500 0.366700 -0.570800
vn -0.700400 0.001200 -0.713700
vn -0.664800 0.631200 -0.399300
vn -0.849500 -0.193600 -0.490700
vn -0.901200 0.313100 -0.299600
vn 0.635900 -0.554500 0.536700
vn 0.005500 -0.996000 0.088800
vn 0.035300 0.767000 0.640600
vn -0.089700 0.704600 0.703800
vn 0.797800 0.370300 0.475700
vn -0.096300 -0.530300 0.842300
vn -0.625000 -0.561000 0.542700
vn 0.109500 -0.529200 0.841400
vn 0.094100 0.696900 0.711000
vn 0.092400 0.923100 0.373100
vn 0.725200 -0.554500 0.408000
vn 0.775400 -0.631500 -0.002000
vn 0.841200 0.521300 0.143400
vn -0.798000 0.341800 0.496300
vn 0.894600 0.355800 0.270500
vn 0.409500 0.694500 0.591500
vn -0.099100 0.675800 0.730400
vn 0.962200 0.271000 0.025500
vn -0.057200 0.906600 0.418200
vn 0.716100 -0.666100 -0.208600
vn 0.545100 -0.790800 -0.278200
vn 0.050300 -0.888300 -0.456400
vn 0.245300 -0.281400 -0.927700
vn -0.735600 -0.565600 0.372900
vn -0.893200 0.356700 0.273800
vn -0.197300 0.765200 0.612800
vn 0.488500 -0.552000 0.675700
vn 0.653200 0.353500 0.669600
vn -0.269800 0.693900 0.667500
vn -0.192300 0.920800 0.339200
vn -0.792000 -0.566700 0.226900
vn -0.938600 0.341000 0.051600
vn -0.859500 0.507700 -0.059600
vn -0.534300 0.684000 0.496600
vn -0.958300 0.253100 -0.132600
vn -0.636800 -0.711200 -0.297700
vn -0.743000 -0.643700 -0.183300
vn -0.617200 -0.253000 -0.745000
vn -0.304100 -0.889500 -0.340900
vn 0.004100 -1.000000 0.005400
vn 0.013700 -0.998800 -0.046500
vn 0.030500 -0.981400 -0.189600
vn -0.010400 -0.996200 0.086900
vn -0.296100 -0.532500 0.792900
vn 0.010500 -0.999900 0.006200
vn 0.007400 -0.999900 0.005400
vn 0.872700 -0.199300 -0.445700
usemtl lambert4SG
s 1
f 1/1/1 2/2/2 3/3/3
f 5/1/4 6/2/5 7/3/6
f 4/1/7 3/2/3 5/3/4
f 1/3/1 7/4/6 6/1/5
f 9/1/8 1/2/1 4/3/7
f 9/1/8 4/2/7 8/3/9
f 9/1/8 8/2/9 7/3/6
f 7/2/6 1/3/1 9/1/8
f 10/1/10 11/2/11 12/3/12
f 15/2/13 16/3/14 17/4/15
f 12/2/12 14/3/16 17/4/15
f 11/2/11 10/3/10 16/4/14
f 18/1/17 10/2/10 13/3/18
f 18/1/17 13/2/18 17/3/15
f 18/1/17 17/2/15 16/3/14
f 18/1/17 16/2/14 10/3/10
f 20/2/19 21/3/20 22/4/21
f 24/2/22 25/3/23 26/4/24
f 22/1/21 21/2/20 23/3/25
f 24/1/22 20/2/19 19/3/26
f 27/1/27 25/2/23 19/3/26
f 27/1/27 19/2/26 22/3/21
f 27/1/27 22/2/21 26/3/24
f 27/1/27 26/2/24 25/3/23
f 28/1/28 29/2/29 30/3/30
f 32/5/31 33/6/32 34/7/33
f 36/2/34 37/3/35 30/4/30
f 38/1/36 39/2/37 40/3/38
f 42/8/39 38/9/36 41/10/40
f 37/11/35 36/12/34 34/7/33
f 39/1/37 28/2/28 31/3/41
f 32/5/31 35/13/42 42/8/39
f 31/2/41 44/3/43 45/4/44
f 43/14/45 46/15/46 47/16/47
f 40/2/38 45/3/44 48/4/48
f 30/1/30 37/2/35 49/3/49
f 41/10/40 48/17/48 46/15/46
f 37/11/35 33/6/32 51/18/50
f 31/1/41 30/2/30 50/3/51
f 33/6/32 32/5/31 47/16/47
f 44/2/43 52/3/52 53/4/53
f 46/15/46 54/19/54 55/20/55
f 48/1/48 45/2/44 53/3/53
f 49/2/49 57/3/56 58/4/57
f 46/15/46 48/17/48 56/21/58
f 49/22/49 51/18/50 59/23/59
f 50/2/51 58/3/57 52/4/52
f 47/16/47 55/20/55 59/23/59
f 58/2/57 60/3/60 61/4/61
f 60/2/60 62/3/62 63/4/63
f 63/1/63 62/2/62 64/3/64
f 65/1/65 64/2/64 66/3/66
f 68/1/67 69/2/68 70/3/69
f 71/1/70 70/2/69 72/3/71
f 69/1/68 74/2/72 75/3/73
f 75/2/73 77/3/74 78/4/75
f 78/1/75 77/2/74 79/3/76
f 55/20/55 81/24/77 82/25/78
f 82/1/78 81/2/77 83/3/79
f 85/2/80 74/3/72 69/4/68
f 62/2/62 86/3/81 87/4/82
f 64/2/64 87/3/82 88/4/83
f 68/2/67 89/3/84 90/4/85
f 86/2/81 90/3/85 91/4/86
f 87/2/82 91/3/86 92/4/87
f 89/2/84 93/3/88 94/4/89
f 90/2/85 94/3/89 95/4/90
f 91/2/86 95/3/90 96/4/91
f 95/1/90 94/2/89 97/3/92
f 96/1/91 95/2/90 98/3/93
f 67/2/94 100/3/95 101/4/96
f 103/2/97 61/3/61 63/4/63
f 102/1/98 63/2/63 65/3/65
f 101/1/96 100/2/95 99/3/99
f 102/2/98 101/3/96 98/4/93
f 97/1/92 104/2/100 103/3/97
f 67/1/94 66/2/66 105/3/101
f 66/1/66 88/2/83 105/3/101
f 88/1/83 92/2/87 105/3/101
f 92/1/87 96/2/91 105/3/101
f 96/1/91 99/2/99 105/3/101
f 100/1/95 67/2/94 105/3/101
f 99/1/99 100/2/95 105/3/101
f 68/1/67 71/2/70 106/3/102
f 106/1/102 71/2/70 73/3/103
f 69/2/68 108/3/104 109/4/105
f 70/2/69 109/3/105 110/4/106
f 69/1/68 76/2/107 111/3/108
f 76/1/107 78/2/75 112/3/109
f 80/2/110 113/3/111 112/4/109
f 74/1/72 85/2/80 82/3/78
f 77/1/74 75/2/73 115/3/112
f 79/1/76 77/2/74 116/3/113
f 74/2/72 114/3/114 115/4/112
f 115/2/112 118/3/115 119/4/116
f 117/1/117 116/2/113 119/3/116
f 114/2/114 121/3/118 118/4/115
f 111/2/108 122/3/119 123/4/120
f 112/2/109 124/3/121 122/4/119
f 112/1/109 113/2/111 125/3/122
f 125/2/122 120/3/123 119/4/116
f 123/1/120 122/2/119 118/3/115
f 124/1/121 119/2/116 118/3/115
f 109/1/105 108/2/104 123/3/120
f 110/1/106 109/2/105 126/3/124
f 126/1/124 123/2/120 89/3/84
f 127/1/125 126/2/124 106/3/102
f 89/2/84 123/3/120 128/4/126
f 73/1/103 72/2/71 129/3/127
f 107/1/128 73/2/103 129/3/127
f 72/1/71 110/2/106 129/3/127
f 110/1/106 127/2/125 129/3/127
f 127/1/125 107/2/128 129/3/127
f 80/1/110 79/2/76 130/3/129
f 113/1/111 80/2/110 130/3/129
f 79/1/76 117/2/117 130/3/129
f 117/1/117 120/2/123 130/3/129
f 125/1/122 113/2/111 130/3/129
f 120/1/123 125/2/122 130/3/129
f 114/1/114 82/2/78 84/3/130
f 85/26/80 57/27/56 59/23/59
f 60/1/60 58/2/57 57/3/56
f 68/1/67 60/2/60 85/3/80
f 68/1/67 86/2/81 62/3/62
f 84/1/130 83/2/79 131/3/131
f 121/1/118 114/2/114 131/3/131
f 114/1/114 84/2/130 131/3/131
f 121/1/118 131/2/131 132/3/132
f 132/1/132 131/2/131 83/3/79
f 121/2/118 133/3/133 128/4/126
f 121/1/118 132/2/132 134/3/134
f 132/2/132 83/3/79 81/4/77
f 134/28/134 81/24/77 55/20/55
f 53/1/53 52/2/52 61/3/61
f 56/1/58 53/2/53 103/3/97
f 54/29/54 56/30/58 135/31/135
f 93/2/88 137/3/136 138/4/137
f 94/2/89 138/3/137 139/4/138
f 97/2/92 139/3/138 140/4/139
f 128/1/126 133/2/133 141/3/140
f 133/1/133 134/2/134 143/3/141
f 93/1/88 128/2/126 142/3/142
f 134/29/134 54/30/54 136/31/143
f 56/1/58 104/2/100 140/3/139
f 137/1/136 144/2/144 139/3/138
f 135/2/135 140/3/139 139/4/138
f 141/1/140 144/2/144 137/3/136
f 145/1/145 146/2/146 147/3/147
f 149/1/148 148/2/149 147/3/147
f 149/1/148 151/2/150 145/3/145
f 152/1/151 153/2/152 154/3/153
f 154/2/153 156/3/154 147/4/147
f 157/1/155 158/2/156 159/3/157
f 152/2/151 155/3/158 147/4/147
f 154/1/153 160/2/159 159/3/157
f 154/1/153 153/2/152 157/3/155
f 161/1/160 162/2/161 147/3/147
f 163/2/162 161/3/160 156/4/154
f 150/1/163 147/2/147 162/3/161
f 147/1/147 156/2/154 161/3/160
f 163/1/162 159/2/157 158/3/156
f 163/1/162 164/2/164 165/3/165
f 165/2/165 167/3/166 168/4/167
f 169/1/168 170/2/169 171/3/170
f 149/1/148 150/2/163 171/3/170
f 149/1/148 170/2/169 169/3/168
f 173/1/171 174/2/172 175/3/173
f 171/2/170 177/3/174 175/4/173
f 178/1/175 179/2/176 180/3/177
f 171/2/170 174/3/172 173/4/171
f 175/1/173 177/2/174 180/3/177
f 175/1/173 179/2/176 178/3/175
f 182/1/178 171/2/170 162/3/161
f 150/1/163 162/2/161 171/3/170
f 171/1/170 182/2/178 177/3/174
f 177/2/174 182/3/178 183/4/179
f 183/1/179 184/2/180 181/3/181
f 185/2/182 186/3/183 184/4/180
f 168/2/167 167/3/166 186/4/183
f 161/2/160 29/3/29 28/4/28
f 183/1/179 38/2/36 42/3/39
f 36/2/34 29/3/29 161/4/160
f 39/2/37 182/3/178 162/4/161
f 182/1/178 39/2/37 38/3/36
f 153/1/152 187/2/184 158/3/156
f 164/1/164 188/2/185 189/3/186
f 146/2/146 145/3/145 151/4/150
f 172/2/187 173/3/171 176/4/188
f 181/1/181 191/2/189 176/3/188
f 172/1/187 190/2/190 151/3/150
f 146/2/146 187/3/184 153/4/152
f 189/2/186 188/3/185 184/4/180
f 165/2/165 189/3/186 186/4/183
f 158/1/156 187/2/184 188/3/185
f 187/2/184 146/3/146 190/4/190
f 191/1/189 188/2/185 190/3/190
f 188/2/185 191/3/189 181/4/181
f 163/1/162 166/1/191 34/1/33
f 185/1/182 42/1/39 35/1/42
f 35/1/42 34/1/33 166/1/191
f 136/1/143 135/2/135 144/3/144
f 4/4/7 1/1/1 3/3/3
f 8/4/9 5/1/4 7/3/6
f 8/4/9 4/1/7 5/3/4
f 2/2/2 1/3/1 6/1/5
f 13/4/18 10/1/10 12/3/12
f 14/1/16 15/2/13 17/4/15
f 13/1/18 12/2/12 17/4/15
f 15/1/13 11/2/11 16/4/14
f 19/1/26 20/2/19 22/4/21
f 23/1/25 24/2/22 26/4/24
f 26/4/24 22/1/21 23/3/25
f 25/4/23 24/1/22 19/3/26
f 31/4/41 28/1/28 30/3/30
f 35/13/42 32/5/31 34/7/33
f 29/1/29 36/2/34 30/4/30
f 41/4/40 38/1/36 40/3/38
f 43/14/45 42/8/39 41/10/40
f 33/6/32 37/11/35 34/7/33
f 40/4/38 39/1/37 31/3/41
f 43/14/45 32/5/31 42/8/39
f 40/1/38 31/2/41 45/4/44
f 32/5/31 43/14/45 47/16/47
f 41/1/40 40/2/38 48/4/48
f 50/4/51 30/1/30 49/3/49
f 43/14/45 41/10/40 46/15/46
f 49/22/49 37/11/35 51/18/50
f 44/4/43 31/1/41 50/3/51
f 51/18/50 33/6/32 47/16/47
f 45/1/44 44/2/43 53/4/53
f 47/16/47 46/15/46 55/20/55
f 56/4/58 48/1/48 53/3/53
f 50/1/51 49/2/49 58/4/57
f 54/19/54 46/15/46 56/21/58
f 57/27/56 49/22/49 59/23/59
f 44/1/43 50/2/51 52/4/52
f 51/18/50 47/16/47 59/23/59
f 52/1/52 58/2/57 61/4/61
f 61/1/61 60/2/60 63/4/63
f 65/4/65 63/1/63 64/3/64
f 67/4/94 65/1/65 66/3/66
f 71/4/70 68/1/67 70/3/69
f 73/4/103 71/1/70 72/3/71
f 76/4/107 69/1/68 75/3/73
f 76/1/107 75/2/73 78/4/75
f 80/4/110 78/1/75 79/3/76
f 59/23/59 55/20/55 82/25/78
f 84/4/130 82/1/78 83/3/79
f 68/1/67 85/2/80 69/4/68
f 64/1/64 62/2/62 87/4/82
f 66/1/66 64/2/64 88/4/83
f 86/1/81 68/2/67 90/4/85
f 87/1/82 86/2/81 91/4/86
f 88/1/83 87/2/82 92/4/87
f 90/1/85 89/2/84 94/4/89
f 91/1/86 90/2/85 95/4/90
f 92/1/87 91/2/86 96/4/91
f 98/4/93 95/1/90 97/3/92
f 99/4/99 96/1/91 98/3/93
f 65/1/65 67/2/94 101/4/96
f 102/1/98 103/2/97 63/4/63
f 101/4/96 102/1/98 65/3/65
f 98/4/93 101/1/96 99/3/99
f 97/1/92 102/2/98 98/4/93
f 102/4/98 97/1/92 103/3/97
f 89/4/84 68/1/67 106/3/102
f 107/4/128 106/1/102 73/3/103
f 70/1/69 69/2/68 109/4/105
f 72/1/71 70/2/69 110/4/106
f 108/4/104 69/1/68 111/3/108
f 111/4/108 76/1/107 112/3/109
f 78/1/75 80/2/110 112/4/109
f 114/4/114 74/1/72 82/3/78
f 116/4/113 77/1/74 115/3/112
f 117/4/117 79/1/76 116/3/113
f 75/1/73 74/2/72 115/4/112
f 116/1/113 115/2/112 119/4/116
f 120/4/123 117/1/117 119/3/116
f 115/1/112 114/2/114 118/4/115
f 108/1/104 111/2/108 123/4/120
f 111/1/108 112/2/109 122/4/119
f 124/4/121 112/1/109 125/3/122
f 124/1/121 125/2/122 119/4/116
f 121/4/118 123/1/120 118/3/115
f 122/4/119 124/1/121 118/3/115
f 126/4/124 109/1/105 123/3/120
f 127/4/125 110/1/106 126/3/124
f 106/4/102 126/1/124 89/3/84
f 107/4/128 127/1/125 106/3/102
f 93/1/88 89/2/84 128/4/126
f 82/25/78 85/26/80 59/23/59
f 85/4/80 60/1/60 57/3/56
f 60/4/60 68/1/67 62/3/62
f 123/1/120 121/2/118 128/4/126
f 133/4/133 121/1/118 134/3/134
f 134/1/134 132/2/132 81/4/77
f 54/19/54 134/28/134 55/20/55
f 103/4/97 53/1/53 61/3/61
f 104/4/100 56/1/58 103/3/97
f 136/32/143 54/29/54 135/31/135
f 94/1/89 93/2/88 138/4/137
f 97/1/92 94/2/89 139/4/138
f 104/1/100 97/2/92 140/4/139
f 142/4/142 128/1/126 141/3/140
f 141/4/140 133/1/133 143/3/141
f 137/4/136 93/1/88 142/3/142
f 143/32/141 134/29/134 136/31/143
f 135/4/135 56/1/58 140/3/139
f 138/4/137 137/1/136 139/3/138
f 144/1/144 135/2/135 139/4/138
f 142/4/142 141/1/140 137/3/136
f 148/4/149 145/1/145 147/3/147
f 150/4/163 149/1/148 147/3/147
f 148/4/149 149/1/148 145/3/145
f 155/4/158 152/1/151 154/3/153
f 155/1/158 154/2/153 147/4/147
f 160/4/159 157/1/155 159/3/157
f 146/1/146 152/2/151 147/4/147
f 156/4/154 154/1/153 159/3/157
f 160/4/159 154/1/153 157/3/155
f 159/1/157 163/2/162 156/4/154
f 164/4/164 163/1/162 158/3/156
f 166/4/191 163/1/162 165/3/165
f 166/1/191 165/2/165 168/4/167
f 172/4/187 169/1/168 171/3/170
f 170/4/169 149/1/148 171/3/170
f 151/4/150 149/1/148 169/3/168
f 176/4/188 173/1/171 175/3/173
f 174/1/172 171/2/170 175/4/173
f 181/4/181 178/1/175 180/3/177
f 172/1/187 171/2/170 173/4/171
f 179/4/176 175/1/173 180/3/177
f 176/4/188 175/1/173 178/3/175
f 180/1/177 177/2/174 183/4/179
f 180/4/177 183/1/179 181/3/181
f 183/1/179 185/2/182 184/4/180
f 185/1/182 168/2/167 186/4/183
f 162/1/161 161/2/160 28/4/28
f 185/4/182 183/1/179 42/3/39
f 163/1/162 36/2/34 161/4/160
f 28/1/28 39/2/37 162/4/161
f 183/4/179 182/1/178 38/3/36
f 157/4/155 153/1/152 158/3/156
f 165/4/165 164/1/164 189/3/186
f 190/1/190 146/2/146 151/4/150
f 191/1/189 172/2/187 176/4/188
f 178/4/175 181/1/181 176/3/188
f 169/4/168 172/1/187 151/3/150
f 152/1/151 146/2/146 153/4/152
f 186/1/183 189/2/186 184/4/180
f 167/1/166 165/2/165 186/4/183
f 164/4/164 158/1/156 188/3/185
f 188/1/185 187/2/184 190/4/190
f 172/4/187 191/1/189 190/3/190
f 184/1/180 188/2/185 181/4/181
f 36/1/34 163/1/162 34/1/33
f 168/1/167 185/1/182 35/1/42
f 168/1/167 35/1/42 166/1/191
f 136/1/143 144/3/144 143/4/141
f 144/3/144 141/3/140 143/4/141
