# Blender v2.71 (sub 0) OBJ File: 'luxray temp.blend'
# www.blender.org
mtllib Luxray_M_Left_Leg_Back.mtl
o Luxray_L_Flank
v 1.333155 -3.167159 -0.757913
v 1.642621 -3.172197 -0.872892
v 1.582397 -2.187380 -0.939703
v 1.224745 -2.291135 -0.811790
v 1.378934 -1.785123 -1.752460
v 1.691850 -1.876270 -1.584182
v 1.663512 -3.290787 -1.582026
v 1.373916 -3.134289 -1.697002
v 1.775034 -3.224708 -1.172722
v 1.769637 -1.992697 -1.259554
v 0.928950 -3.273682 -1.172722
v 1.029899 -3.207599 -0.872892
v 0.910144 -2.211696 -0.981684
v 0.837459 -2.025278 -1.317823
v 1.051169 -3.326190 -1.582022
v 1.018446 -1.896120 -1.626144
v 1.585237 -4.131818 -0.097210
v 1.585973 -4.152757 -0.524998
v 1.585973 -3.739454 -0.545231
v 1.585237 -3.817833 -0.187040
v 1.371595 -3.675910 -0.072903
v 1.371595 -3.584011 -0.430736
v 1.371595 -4.125905 0.023585
v 1.684599 -4.133830 -0.138320
v 1.906385 -4.130852 -0.077474
v 1.889346 -3.709158 -0.165758
v 1.667560 -3.839562 -0.220367
v 1.808494 -3.622570 -0.490977
v 2.072757 -4.138616 -0.236095
v 2.063524 -4.157593 -0.623788
v 1.974866 -3.757759 -0.643360
v 2.055719 -3.844348 -0.318142
v 1.732233 -3.468189 -0.720641
v 1.371595 -3.431629 -0.652145
v 1.988316 -3.730569 -0.996515
v 1.942737 -4.102882 -1.007428
v 1.768466 -4.126315 -1.344946
v 1.772152 -3.805261 -1.450332
v 1.371595 -4.133929 -1.455241
v 1.391433 -3.769623 -1.680282
v 1.157953 -4.131818 -0.097210
v 1.157953 -3.817833 -0.187040
v 1.157218 -3.739454 -0.545231
v 1.157218 -4.152757 -0.524998
v 1.058592 -4.133830 -0.138320
v 1.075631 -3.839562 -0.220367
v 0.853844 -3.709158 -0.165758
v 0.836806 -4.130852 -0.077474
v 0.934697 -3.622570 -0.490977
v 0.670434 -4.138616 -0.236095
v 0.687472 -3.844348 -0.318142
v 0.768325 -3.757759 -0.643360
v 0.679667 -4.157593 -0.623788
v 1.010957 -3.468189 -0.720641
v 0.754875 -3.730569 -0.996515
v 0.800453 -4.102882 -1.007428
v 0.946234 -3.794636 -1.452662
v 0.974724 -4.126315 -1.344946
v 1.824748 -4.155175 -0.574393
v 1.372464 -4.156946 -0.991168
v 1.371595 -4.159229 -1.407909
v 1.371595 -4.152757 -0.524998
v 0.918443 -4.155175 -0.574393
v 1.774999 -1.762315 -0.116798
v 1.381761 -1.932664 0.240571
v 1.444592 -1.393657 -1.315939
v 1.852745 -1.283190 -1.108589
v 1.984351 -1.427994 -0.770622
v 0.900655 -1.898580 -0.137947
v 0.749203 -1.714736 -0.782494
v 0.935967 -1.573477 -1.105349
v 1.725783 -0.593696 0.558486
v 1.203741 -1.083009 0.826194
v 1.199587 -0.561487 -1.292892
v 1.738555 -0.172337 -0.823649
v 1.942439 -0.161166 -0.149426
v 0.798126 -1.095535 0.344554
v 0.675104 -1.152400 -0.380142
v 0.736822 -0.994982 -0.943736
v 1.142540 -0.124783 0.893699
v 0.874128 -0.817759 0.870795
v 0.577580 0.508585 -1.012475
v 1.021429 0.559331 -0.498591
v 1.214631 0.561632 0.398920
v 0.352256 -0.598617 0.340517
v 0.397486 -0.642358 -0.112329
v 0.349392 -0.570375 -0.857183
v 0.716829 0.016005 0.547492
v 0.399968 -0.128245 0.541328
v 0.501779 0.217895 -0.564051
v 0.777461 0.289883 -0.326326
v 0.891632 0.235043 0.247502
v 0.365321 -0.275807 0.208491
v 0.334622 -0.243747 -0.077846
v 0.456101 -0.103856 -0.559381
vt 0.886428 0.657696
vt 0.982029 0.657696
vt 0.982029 0.753297
vt 0.886428 0.753297
vt 0.222022 0.067020
vt 0.187302 0.153116
vt 0.165257 0.148308
vt 0.290927 0.043565
vt 0.312519 0.122466
vt 0.272480 0.134601
vt 0.248047 0.058406
vt 0.226745 0.147659
vt 0.132556 0.014617
vt 0.164185 0.051472
vt 0.134754 0.153573
vt 0.318738 0.041124
vt 0.345063 0.044706
vt 0.378525 0.103580
vt 0.273144 0.049410
vt 0.189513 0.068080
vt 0.345766 0.118083
vt 0.211467 0.263785
vt 0.350316 0.183293
vt 0.310636 0.226120
vt 0.255824 0.256331
vt 0.077464 0.122356
vt 0.129991 0.241029
vt 0.413892 0.144412
vt 0.175642 0.249901
vt 0.377418 0.166880
vt 0.213501 0.324409
vt 0.381168 0.265303
vt 0.340032 0.314248
vt 0.278750 0.353258
vt 0.055127 0.204845
vt 0.120503 0.319906
vt 0.454160 0.205432
vt 0.175177 0.317288
vt 0.406228 0.232061
vt 0.210300 0.369984
vt 0.165403 0.367342
vt 0.392230 0.300993
vt 0.354741 0.342993
vt 0.278634 0.379558
vt 0.110371 0.361997
vt 0.066945 0.366448
vt 0.462404 0.247960
vt 0.421026 0.269611
vt 0.063199 0.305539
vn -0.044100 0.236400 0.970600
vn 0.672200 0.304700 0.674700
vn 0.760500 -0.383600 0.523900
vn 0.001300 0.396500 -0.918000
vn 0.750500 0.124000 -0.649100
vn 0.671600 -0.039600 -0.739800
vn 0.978400 0.206100 0.014300
vn 0.985200 -0.162100 -0.054900
vn -0.709100 0.235200 0.664600
vn -0.893200 -0.299700 0.335100
vn -0.961400 0.024400 -0.274100
vn -0.986400 0.157500 -0.047400
vn -0.635600 0.296000 -0.712900
vn -0.114000 -0.564600 0.817400
vn 0.017500 -0.064100 -0.997800
vn -0.643700 -0.067100 -0.762300
vn 0.690600 -0.548100 0.471800
vn 0.008000 -0.993500 0.113300
vn 0.117100 0.782200 0.611900
vn 0.000000 0.722800 0.691100
vn 0.851500 0.373100 0.368200
vn 0.000000 -0.508200 0.861200
vn -0.560800 -0.540500 0.627200
vn 0.204300 -0.509400 0.835900
vn 0.183200 0.713100 0.676600
vn 0.143400 0.931000 0.335600
vn 0.764000 -0.552200 0.333500
vn 0.764600 -0.639800 -0.077400
vn 0.856400 0.515500 0.029300
vn -0.730800 0.362700 0.578200
vn 0.923100 0.352500 0.153400
vn 0.529000 0.593600 0.606400
vn -0.012200 0.517300 0.855700
vn 0.964900 0.218600 -0.145600
vn 0.000000 0.917200 0.398400
vn 0.677700 -0.661600 -0.320900
vn 0.527400 -0.713800 -0.460800
vn -0.005200 -0.854800 -0.518900
vn 0.035100 -0.219900 -0.974900
vn -0.690600 -0.548100 0.471800
vn -0.851500 0.373100 0.368200
vn -0.117100 0.782200 0.611900
vn 0.560800 -0.540500 0.627200
vn 0.730800 0.362700 0.578200
vn -0.183200 0.713100 0.676600
vn -0.143400 0.931000 0.335600
vn -0.764000 -0.552200 0.333500
vn -0.923100 0.352500 0.153400
vn -0.856400 0.515500 0.029300
vn -0.498300 0.573700 0.650000
vn -0.971500 0.198400 -0.129900
vn -0.677600 -0.661700 -0.320800
vn -0.764600 -0.639800 -0.077400
vn -0.731100 -0.132400 -0.669300
vn -0.516400 -0.723100 -0.458700
vn -0.003200 -0.999500 0.030700
vn 0.000200 -0.999800 -0.022000
vn -0.000100 -0.265500 -0.964100
vn -0.008000 -0.993500 0.113300
vn -0.204300 -0.509400 0.835900
vn 0.003200 -0.999500 0.030800
vn 0.000000 -0.999500 0.030300
vn 0.732200 -0.110500 -0.672100
vn 0.820700 -0.457800 0.341800
vn 0.143100 -0.742800 0.654100
vn -0.044800 0.488000 -0.871700
vn 0.763700 0.244000 -0.597600
vn 0.993000 -0.103900 -0.055500
vn -0.714400 -0.603300 0.354500
vn -0.988100 -0.098200 -0.118600
vn -0.780400 0.260300 -0.568400
vn 0.791600 0.056800 0.608400
vn 0.022000 0.188100 -0.981900
vn 0.676100 0.492000 -0.548500
vn 0.912800 0.400600 0.079000
vn -0.744400 -0.513700 0.426500
vn -0.941300 -0.336100 -0.030900
vn 0.046800 -0.446700 0.893400
vn -0.787500 -0.243100 -0.566300
vn 0.147400 0.354700 0.923300
vn -0.377700 0.745700 -0.548800
vn 0.087800 0.984200 -0.153700
vn 0.124200 0.898600 0.420800
vn -0.890200 -0.166800 0.423800
vn -0.939400 -0.340000 -0.044600
vn -0.455500 -0.385400 0.802500
vn -0.836500 -0.231100 -0.496900
vn -0.421700 0.662300 0.619300
vn -0.760700 -0.084300 0.643600
vn -0.846700 0.494100 0.197400
vn -0.628000 0.726200 0.279700
vn -0.735900 0.662100 0.141600
vn -0.952200 -0.022300 0.304800
vn -0.999700 -0.013800 -0.019300
vn -0.976900 0.213100 0.016200
usemtl lambert4SG
s 1
f 1/1/1 2/2/2 3/3/3
f 5/1/4 6/2/5 7/3/6
f 2/1/2 9/2/7 10/3/8
f 12/2/9 13/3/10 14/4/11
f 11/2/12 14/3/11 16/4/13
f 9/2/7 7/3/6 6/4/5
f 1/2/1 4/3/14 13/4/10
f 5/2/4 8/3/15 15/4/16
f 17/1/17 18/2/18 19/3/19
f 21/1/20 20/2/21 19/3/19
f 21/1/20 23/2/22 17/3/17
f 24/1/23 25/2/24 26/3/25
f 26/2/25 28/3/26 19/4/19
f 29/1/27 30/2/28 31/3/29
f 24/2/23 27/3/30 19/4/19
f 26/1/25 32/2/31 31/3/29
f 26/1/25 25/2/24 29/3/27
f 33/1/32 34/2/33 19/3/19
f 35/2/34 33/3/32 28/4/26
f 22/1/35 19/2/19 34/3/33
f 19/1/19 28/2/26 33/3/32
f 35/1/34 31/2/29 30/3/28
f 35/1/34 36/2/36 37/3/37
f 37/2/37 39/3/38 40/4/39
f 41/1/40 42/2/41 43/3/42
f 21/1/20 22/2/35 43/3/42
f 21/1/20 42/2/41 41/3/40
f 45/1/43 46/2/44 47/3/45
f 43/2/42 49/3/46 47/4/45
f 50/1/47 51/2/48 52/3/49
f 43/2/42 46/3/44 45/4/43
f 47/1/45 49/2/46 52/3/49
f 47/1/45 51/2/48 50/3/47
f 54/1/50 43/2/42 34/3/33
f 22/1/35 34/2/33 43/3/42
f 43/1/42 54/2/50 49/3/46
f 49/2/46 54/3/50 55/4/51
f 55/1/51 56/2/52 53/3/53
f 55/1/51 57/2/54 58/3/55
f 40/2/39 39/3/38 58/4/55
f 1/4/1 34/1/33 33/2/32
f 55/1/51 11/2/12 15/3/16
f 35/1/34 9/2/7 2/3/2
f 12/2/9 54/3/50 34/4/33
f 12/2/9 11/3/12 55/4/51
f 25/1/24 59/2/56 30/3/28
f 36/1/36 60/2/57 61/3/58
f 18/2/18 17/3/17 23/4/22
f 44/2/59 45/3/43 48/4/60
f 53/1/53 63/2/61 48/3/60
f 44/1/59 62/2/62 23/3/22
f 18/2/18 59/3/56 25/4/24
f 61/2/58 60/3/57 56/4/52
f 37/2/37 61/3/58 58/4/55
f 30/1/28 59/2/56 60/3/57
f 59/2/56 18/3/18 62/4/62
f 63/1/61 60/2/57 62/3/62
f 60/2/57 63/3/61 53/4/53
f 35/1/34 38/2/63 7/3/6
f 57/1/54 15/2/16 8/3/15
f 8/2/15 7/3/6 38/4/63
f 3/5/3 64/6/64 65/7/65
f 5/8/4 66/9/66 67/10/67
f 10/11/8 68/12/68 64/6/64
f 14/13/11 13/14/10 69/15/69
f 16/16/13 14/17/11 70/18/70
f 6/19/5 67/10/67 68/12/68
f 13/14/10 4/20/14 65/7/65
f 5/8/4 16/16/13 71/21/71
f 65/7/65 64/6/64 72/22/72
f 66/9/66 74/23/73 75/24/74
f 64/6/64 68/12/68 76/25/75
f 70/26/70 69/15/69 77/27/76
f 71/21/71 70/18/70 78/28/77
f 67/10/67 75/24/74 76/25/75
f 69/15/69 65/7/65 73/29/78
f 71/21/71 79/30/79 74/23/73
f 73/29/78 72/22/72 80/31/80
f 74/23/73 82/32/81 83/33/82
f 76/25/75 84/34/83 80/31/80
f 78/35/77 77/27/76 85/36/84
f 79/30/79 78/28/77 86/37/85
f 75/24/74 83/33/82 84/34/83
f 73/29/78 81/38/86 85/36/84
f 79/30/79 87/39/87 82/32/81
f 80/31/80 88/40/88 89/41/89
f 82/32/81 90/42/90 91/43/91
f 84/34/83 92/44/92 88/40/88
f 85/36/84 93/45/93 94/46/94
f 87/39/87 86/37/85 94/47/94
f 84/34/83 83/33/82 91/43/91
f 81/38/86 89/41/89 93/45/93
f 87/39/87 95/48/95 90/42/90
f 4/4/14 1/1/1 3/3/3
f 8/4/15 5/1/4 7/3/6
f 3/4/3 2/1/2 10/3/8
f 11/1/12 12/2/9 14/4/11
f 15/1/16 11/2/12 16/4/13
f 10/1/8 9/2/7 6/4/5
f 12/1/9 1/2/1 13/4/10
f 16/1/13 5/2/4 15/4/16
f 20/4/21 17/1/17 19/3/19
f 22/4/35 21/1/20 19/3/19
f 20/4/21 21/1/20 17/3/17
f 27/4/30 24/1/23 26/3/25
f 27/1/30 26/2/25 19/4/19
f 32/4/31 29/1/27 31/3/29
f 18/1/18 24/2/23 19/4/19
f 28/4/26 26/1/25 31/3/29
f 32/4/31 26/1/25 29/3/27
f 31/1/29 35/2/34 28/4/26
f 36/4/36 35/1/34 30/3/28
f 38/4/63 35/1/34 37/3/37
f 38/1/63 37/2/37 40/4/39
f 44/4/59 41/1/40 43/3/42
f 42/4/41 21/1/20 43/3/42
f 23/4/22 21/1/20 41/3/40
f 48/4/60 45/1/43 47/3/45
f 46/1/44 43/2/42 47/4/45
f 53/4/53 50/1/47 52/3/49
f 44/1/59 43/2/42 45/4/43
f 51/4/48 47/1/45 52/3/49
f 48/4/60 47/1/45 50/3/47
f 52/1/49 49/2/46 55/4/51
f 52/4/49 55/1/51 53/3/53
f 56/4/52 55/1/51 58/3/55
f 57/1/54 40/2/39 58/4/55
f 2/3/2 1/4/1 33/2/32
f 57/4/54 55/1/51 15/3/16
f 33/4/32 35/1/34 2/3/2
f 1/1/1 12/2/9 34/4/33
f 54/1/50 12/2/9 55/4/51
f 29/4/27 25/1/24 30/3/28
f 37/4/37 36/1/36 61/3/58
f 62/1/62 18/2/18 23/4/22
f 63/1/61 44/2/59 48/4/60
f 50/4/47 53/1/53 48/3/60
f 41/4/40 44/1/59 23/3/22
f 24/1/23 18/2/18 25/4/24
f 58/1/55 61/2/58 56/4/52
f 39/1/38 37/2/37 58/4/55
f 36/4/36 30/1/28 60/3/57
f 60/1/57 59/2/56 62/4/62
f 44/4/59 63/1/61 62/3/62
f 56/1/52 60/2/57 53/4/53
f 9/4/7 35/1/34 7/3/6
f 40/4/39 57/1/54 8/3/15
f 40/1/39 8/2/15 38/4/63
f 4/20/14 3/5/3 65/7/65
f 6/19/5 5/8/4 67/10/67
f 3/5/3 10/11/8 64/6/64
f 70/26/70 14/13/11 69/15/69
f 71/21/71 16/16/13 70/18/70
f 10/11/8 6/19/5 68/12/68
f 69/15/69 13/14/10 65/7/65
f 66/9/66 5/8/4 71/21/71
f 73/29/78 65/7/65 72/22/72
f 67/10/67 66/9/66 75/24/74
f 72/22/72 64/6/64 76/25/75
f 78/35/77 70/26/70 77/27/76
f 79/30/79 71/21/71 78/28/77
f 68/12/68 67/10/67 76/25/75
f 77/27/76 69/15/69 73/29/78
f 66/9/66 71/21/71 74/23/73
f 81/38/86 73/29/78 80/31/80
f 75/24/74 74/23/73 83/33/82
f 72/22/72 76/25/75 80/31/80
f 86/49/85 78/35/77 85/36/84
f 87/39/87 79/30/79 86/37/85
f 76/25/75 75/24/74 84/34/83
f 77/27/76 73/29/78 85/36/84
f 74/23/73 79/30/79 82/32/81
f 81/38/86 80/31/80 89/41/89
f 83/33/82 82/32/81 91/43/91
f 80/31/80 84/34/83 88/40/88
f 86/49/85 85/36/84 94/46/94
f 95/48/95 87/39/87 94/47/94
f 92/44/92 84/34/83 91/43/91
f 85/36/84 81/38/86 93/45/93
f 82/32/81 87/39/87 90/42/90
