# Blender v2.71 (sub 0) OBJ File: 'luxray temp.blend'
# www.blender.org
mtllib Luxray_M_Right_Leg_Back.mtl
o Luxray_R_Flank
v -1.340408 -3.164422 -0.740834
v -1.231998 -2.288398 -0.794710
v -1.589650 -2.184643 -0.922623
v -1.649874 -3.169460 -0.855813
v -1.386187 -1.782386 -1.735379
v -1.381169 -3.131552 -1.679921
v -1.670765 -3.288051 -1.564946
v -1.699103 -1.873533 -1.567101
v -1.776890 -1.989960 -1.242474
v -1.782287 -3.221971 -1.155642
v -0.936203 -3.270945 -1.155642
v -0.844712 -2.022541 -1.300743
v -0.917397 -2.208959 -0.964604
v -1.037152 -3.204862 -0.855813
v -1.058422 -3.323453 -1.564942
v -1.025699 -1.893383 -1.609064
v -1.592490 -4.129081 -0.080130
v -1.592490 -3.815096 -0.169960
v -1.593226 -3.736717 -0.528151
v -1.593226 -4.150020 -0.507918
v -1.378848 -3.673173 -0.055823
v -1.378848 -3.581274 -0.413656
v -1.378848 -4.123168 0.040665
v -1.691852 -4.131093 -0.121240
v -1.674813 -3.836825 -0.203287
v -1.896599 -3.706421 -0.148678
v -1.913638 -4.128115 -0.060394
v -1.815747 -3.619833 -0.473897
v -2.080010 -4.135879 -0.219015
v -2.062972 -3.841611 -0.301062
v -1.982119 -3.755022 -0.626280
v -2.070777 -4.154856 -0.606708
v -1.739486 -3.465452 -0.703561
v -1.378848 -3.428892 -0.635065
v -1.995569 -3.727833 -0.979435
v -1.949990 -4.100146 -0.990348
v -1.779405 -3.802524 -1.433252
v -1.775719 -4.123578 -1.327866
v -1.398686 -3.766887 -1.663202
v -1.378848 -4.131193 -1.438161
v -1.165206 -4.129081 -0.080130
v -1.164471 -4.150020 -0.507918
v -1.164471 -3.736717 -0.528151
v -1.165206 -3.815096 -0.169960
v -1.065845 -4.131093 -0.121240
v -0.844059 -4.128115 -0.060394
v -0.861097 -3.706421 -0.148678
v -1.082884 -3.836825 -0.203287
v -0.941950 -3.619833 -0.473897
v -0.677687 -4.135879 -0.219015
v -0.686920 -4.154856 -0.606708
v -0.775578 -3.755022 -0.626280
v -0.694725 -3.841611 -0.301062
v -1.018210 -3.465452 -0.703561
v -0.762128 -3.727833 -0.979435
v -0.807706 -4.100146 -0.990348
v -0.981977 -4.123578 -1.327866
v -0.953487 -3.791900 -1.435582
v -1.832001 -4.152438 -0.557313
v -1.378848 -4.156493 -1.390829
v -1.379717 -4.154209 -0.974088
v -1.378848 -4.150020 -0.507918
v -0.925696 -4.152438 -0.557313
v -1.389014 -1.929927 0.257651
v -1.782252 -1.759578 -0.099718
v -1.859998 -1.280454 -1.091509
v -1.451845 -1.390921 -1.298859
v -1.991604 -1.425257 -0.753542
v -0.756456 -1.712000 -0.765414
v -0.907908 -1.895843 -0.120867
v -0.943220 -1.570740 -1.088269
v -1.210994 -1.080272 0.843274
v -1.733036 -0.590959 0.575566
v -1.745808 -0.169600 -0.806569
v -1.206840 -0.558751 -1.275812
v -1.949692 -0.158430 -0.132346
v -0.682357 -1.149663 -0.363062
v -0.805379 -1.092798 0.361634
v -0.744075 -0.992245 -0.926656
v -0.881381 -0.815022 0.887875
v -1.149793 -0.122046 0.910779
v -1.028682 0.562068 -0.481511
v -0.584833 0.511322 -0.995395
v -1.221884 0.564369 0.416000
v -0.404739 -0.639621 -0.095249
v -0.359509 -0.595880 0.357597
v -0.356645 -0.567638 -0.840103
v -0.407221 -0.125508 0.558408
v -0.724082 0.018742 0.564572
v -0.784714 0.292620 -0.309246
v -0.509032 0.220632 -0.546971
v -0.898885 0.237780 0.264582
v -0.341875 -0.241011 -0.060766
v -0.372574 -0.273070 0.225571
v -0.463354 -0.101119 -0.542301
vt 0.886428 0.657696
vt 0.886428 0.753297
vt 0.982029 0.753297
vt 0.982029 0.657696
vt 0.165257 0.148308
vt 0.187302 0.153116
vt 0.222022 0.067020
vt 0.272480 0.134601
vt 0.312519 0.122466
vt 0.290927 0.043565
vt 0.226745 0.147659
vt 0.248047 0.058406
vt 0.132556 0.014617
vt 0.077464 0.122356
vt 0.134754 0.153573
vt 0.318738 0.041124
vt 0.345766 0.118083
vt 0.378525 0.103580
vt 0.273144 0.049410
vt 0.164185 0.051472
vt 0.175642 0.249901
vt 0.211467 0.263785
vt 0.310636 0.226120
vt 0.350316 0.183293
vt 0.255824 0.256331
vt 0.055127 0.204845
vt 0.129991 0.241029
vt 0.377418 0.166880
vt 0.413892 0.144412
vt 0.175177 0.317288
vt 0.213501 0.324409
vt 0.340032 0.314248
vt 0.381168 0.265303
vt 0.278750 0.353258
vt 0.063199 0.305539
vt 0.120503 0.319906
vt 0.406228 0.232061
vt 0.454160 0.205432
vt 0.165403 0.367342
vt 0.210300 0.369984
vt 0.354741 0.342993
vt 0.392230 0.300993
vt 0.278634 0.379558
vt 0.066945 0.366448
vt 0.110371 0.361997
vt 0.421026 0.269611
vt 0.462404 0.247960
vt 0.189513 0.068080
vt 0.345063 0.044706
vn 0.044100 0.236400 0.970600
vn 0.114000 -0.564600 0.817400
vn -0.760500 -0.383600 0.523900
vn -0.001300 0.396500 -0.918000
vn -0.017500 -0.064100 -0.997800
vn -0.671600 -0.039600 -0.739800
vn -0.672200 0.304700 0.674700
vn -0.985200 -0.162100 -0.054900
vn 0.961400 0.024400 -0.274100
vn 0.893200 -0.299700 0.335100
vn 0.709100 0.235200 0.664600
vn 0.635600 0.296000 -0.712900
vn 0.986400 0.157500 -0.047400
vn -0.750500 0.124000 -0.649100
vn -0.978400 0.206100 0.014300
vn 0.643700 -0.067100 -0.762300
vn -0.690600 -0.548100 0.471800
vn -0.851500 0.373100 0.368200
vn -0.117100 0.782200 0.611900
vn 0.000000 0.722800 0.691100
vn 0.000000 0.917200 0.398400
vn 0.560800 -0.540500 0.627200
vn 0.730800 0.362700 0.578200
vn -0.183200 0.713100 0.676600
vn -0.143400 0.931000 0.335600
vn -0.764000 -0.552200 0.333500
vn -0.923100 0.352500 0.153400
vn -0.856400 0.515500 0.029300
vn -0.529000 0.593600 0.606400
vn 0.012200 0.517300 0.855700
vn -0.964900 0.218600 -0.145600
vn -0.677700 -0.661600 -0.320900
vn -0.764600 -0.639800 -0.077400
vn -0.732200 -0.110500 -0.672100
vn -0.527400 -0.713800 -0.460800
vn -0.035100 -0.219900 -0.974900
vn 0.005200 -0.854800 -0.518900
vn 0.690600 -0.548100 0.471800
vn 0.008000 -0.993500 0.113300
vn 0.117100 0.782200 0.611900
vn 0.851500 0.373100 0.368200
vn 0.000000 -0.508200 0.861200
vn -0.560800 -0.540500 0.627200
vn 0.204300 -0.509400 0.835900
vn 0.183200 0.713100 0.676600
vn 0.143400 0.931000 0.335600
vn 0.764000 -0.552200 0.333500
vn 0.764600 -0.639800 -0.077400
vn 0.856400 0.515500 0.029300
vn -0.730800 0.362700 0.578200
vn 0.923100 0.352500 0.153400
vn 0.498300 0.573700 0.650000
vn 0.971500 0.198400 -0.129900
vn 0.677600 -0.661700 -0.320800
vn 0.516400 -0.723100 -0.458700
vn 0.731100 -0.132400 -0.669300
vn -0.204300 -0.509400 0.835900
vn 0.000100 -0.265500 -0.964100
vn -0.008000 -0.993500 0.113300
vn 0.003200 -0.999500 0.030700
vn -0.000200 -0.999800 -0.022000
vn 0.000000 -0.999500 0.030300
vn -0.003200 -0.999500 0.030800
vn -0.143100 -0.742800 0.654100
vn -0.820700 -0.457800 0.341800
vn -0.763700 0.244000 -0.597600
vn 0.044800 0.488000 -0.871700
vn -0.993000 -0.103900 -0.055500
vn 0.988100 -0.098200 -0.118600
vn 0.714400 -0.603300 0.354500
vn 0.780400 0.260300 -0.568400
vn -0.046800 -0.446700 0.893400
vn -0.791600 0.056800 0.608400
vn -0.676100 0.492000 -0.548500
vn -0.022000 0.188100 -0.981900
vn -0.912800 0.400600 0.079000
vn 0.941300 -0.336100 -0.030900
vn 0.744400 -0.513700 0.426500
vn 0.787500 -0.243100 -0.566300
vn 0.455500 -0.385400 0.802500
vn -0.147400 0.354700 0.923300
vn -0.087800 0.984200 -0.153700
vn 0.377700 0.745700 -0.548800
vn -0.124200 0.898600 0.420800
vn 0.939400 -0.340000 -0.044600
vn 0.890200 -0.166800 0.423800
vn 0.836500 -0.231100 -0.496900
vn 0.760700 -0.084300 0.643600
vn 0.421700 0.662300 0.619300
vn 0.628000 0.726200 0.279700
vn 0.846700 0.494100 0.197400
vn 0.735900 0.662100 0.141600
vn 0.999700 -0.013800 -0.019300
vn 0.952200 -0.022300 0.304800
vn 0.976900 0.213100 0.016200
usemtl lambert4SG
s 1
f 1/1/1 2/2/2 3/3/3
f 5/1/4 6/2/5 7/3/6
f 4/1/7 3/2/3 9/3/8
f 12/2/9 13/3/10 14/4/11
f 16/2/12 12/3/9 11/4/13
f 8/2/14 7/3/6 10/4/15
f 1/4/1 14/1/11 13/2/10
f 15/2/16 6/3/5 5/4/4
f 17/1/17 18/2/18 19/3/19
f 21/1/20 22/2/21 19/3/19
f 21/1/20 18/2/18 17/3/17
f 24/1/22 25/2/23 26/3/24
f 19/2/19 28/3/25 26/4/24
f 29/1/26 30/2/27 31/3/28
f 19/2/19 25/3/23 24/4/22
f 26/1/24 28/2/25 31/3/28
f 26/1/24 30/2/27 29/3/26
f 33/1/29 19/3/19 34/4/30
f 28/2/25 33/3/29 35/4/31
f 22/1/21 34/3/30 19/4/19
f 19/1/19 33/3/29 28/4/25
f 35/1/31 36/2/32 32/3/33
f 35/1/31 37/2/34 38/3/35
f 39/2/36 40/3/37 38/4/35
f 41/1/38 42/2/39 43/3/40
f 21/1/20 44/2/41 43/3/40
f 21/1/20 23/2/42 41/3/38
f 45/1/43 46/2/44 47/3/45
f 47/2/45 49/3/46 43/4/40
f 50/1/47 51/2/48 52/3/49
f 45/2/43 48/3/50 43/4/40
f 47/1/45 53/2/51 52/3/49
f 47/1/45 46/2/44 50/3/47
f 54/1/52 34/3/30 43/4/40
f 22/1/21 43/3/40 34/4/30
f 43/1/40 49/3/46 54/4/52
f 55/2/53 54/3/52 49/4/46
f 55/1/53 52/2/49 51/3/48
f 55/1/53 56/2/54 57/3/55
f 57/2/55 40/3/37 39/4/36
f 1/2/1 4/3/7 33/4/29
f 55/1/53 58/2/56 15/3/16
f 35/1/31 33/2/29 4/3/7
f 34/2/30 54/3/52 14/4/11
f 55/2/53 11/3/13 14/4/11
f 27/1/57 29/2/26 32/3/33
f 36/1/32 38/2/35 60/3/58
f 23/2/42 17/3/17 20/4/59
f 46/2/44 45/3/43 42/4/39
f 51/1/48 50/2/47 46/3/44
f 42/1/39 41/2/38 23/3/42
f 27/2/57 59/3/60 20/4/59
f 56/2/54 61/3/61 60/4/58
f 57/2/55 60/3/58 38/4/35
f 32/1/33 36/2/32 61/3/61
f 62/2/62 20/3/59 59/4/60
f 63/1/63 42/2/39 62/3/62
f 51/2/48 63/3/63 61/4/61
f 35/1/31 10/2/15 7/3/6
f 58/1/56 39/2/36 6/3/5
f 37/2/34 7/3/6 6/4/5
f 64/5/64 65/6/65 3/7/3
f 66/8/66 67/9/67 5/10/4
f 65/6/65 68/11/68 9/12/8
f 12/13/9 69/14/69 70/15/70
f 16/16/12 71/17/71 69/18/69
f 68/11/68 66/8/66 8/19/14
f 13/20/10 70/15/70 64/5/64
f 5/10/4 67/9/67 71/17/71
f 64/5/64 72/21/72 73/22/73
f 74/23/74 75/24/75 67/9/67
f 65/6/65 73/22/73 76/25/76
f 69/14/69 77/26/77 78/27/78
f 71/17/71 79/28/79 77/29/77
f 76/25/76 74/23/74 66/8/66
f 70/15/70 78/27/78 72/21/72
f 75/24/75 79/28/79 71/17/71
f 72/21/72 80/30/80 81/31/81
f 82/32/82 83/33/83 75/24/75
f 81/31/81 84/34/84 76/25/76
f 77/26/77 85/35/85 86/36/86
f 79/28/79 87/37/87 85/38/85
f 84/34/84 82/32/82 74/23/74
f 86/36/86 80/30/80 72/21/72
f 83/33/83 87/37/87 79/28/79
f 88/39/88 89/40/89 81/31/81
f 90/41/90 91/42/91 83/33/83
f 89/40/89 92/43/92 84/34/84
f 93/44/93 94/45/94 86/36/86
f 87/37/87 95/46/95 93/47/93
f 84/34/84 92/43/92 90/41/90
f 94/45/94 88/39/88 80/30/80
f 91/42/91 95/46/95 87/37/87
f 4/4/7 1/1/1 3/3/3
f 8/4/14 5/1/4 7/3/6
f 10/4/15 4/1/7 9/3/8
f 11/1/13 12/2/9 14/4/11
f 15/1/16 16/2/12 11/4/13
f 9/1/8 8/2/14 10/4/15
f 2/3/2 1/4/1 13/2/10
f 16/1/12 15/2/16 5/4/4
f 20/4/59 17/1/17 19/3/19
f 18/4/18 21/1/20 19/3/19
f 23/4/42 21/1/20 17/3/17
f 27/4/57 24/1/22 26/3/24
f 25/1/23 19/2/19 26/4/24
f 32/4/33 29/1/26 31/3/28
f 20/1/59 19/2/19 24/4/22
f 30/4/27 26/1/24 31/3/28
f 27/4/57 26/1/24 29/3/26
f 31/1/28 28/2/25 35/4/31
f 31/4/28 35/1/31 32/3/33
f 36/4/32 35/1/31 38/3/35
f 37/1/34 39/2/36 38/4/35
f 44/4/41 41/1/38 43/3/40
f 22/4/21 21/1/20 43/3/40
f 44/4/41 21/1/20 41/3/38
f 48/4/50 45/1/43 47/3/45
f 48/1/50 47/2/45 43/4/40
f 53/4/51 50/1/47 52/3/49
f 42/1/39 45/2/43 43/4/40
f 49/4/46 47/1/45 52/3/49
f 53/4/51 47/1/45 50/3/47
f 52/1/49 55/2/53 49/4/46
f 56/4/54 55/1/53 51/3/48
f 58/4/56 55/1/53 57/3/55
f 58/1/56 57/2/55 39/4/36
f 34/1/30 1/2/1 33/4/29
f 11/4/13 55/1/53 15/3/16
f 10/4/15 35/1/31 4/3/7
f 1/1/1 34/2/30 14/4/11
f 54/1/52 55/2/53 14/4/11
f 59/4/60 27/1/57 32/3/33
f 61/4/61 36/1/32 60/3/58
f 62/1/62 23/2/42 20/4/59
f 63/1/63 46/2/44 42/4/39
f 63/4/63 51/1/48 46/3/44
f 62/4/62 42/1/39 23/3/42
f 24/1/22 27/2/57 20/4/59
f 57/1/55 56/2/54 60/4/58
f 40/1/37 57/2/55 38/4/35
f 59/4/60 32/1/33 61/3/61
f 61/1/61 62/2/62 59/4/60
f 61/4/61 63/1/63 62/3/62
f 56/1/54 51/2/48 61/4/61
f 37/4/34 35/1/31 7/3/6
f 15/4/16 58/1/56 6/3/5
f 39/1/36 37/2/34 6/4/5
f 2/48/2 64/5/64 3/7/3
f 8/19/14 66/8/66 5/10/4
f 3/7/3 65/6/65 9/12/8
f 13/20/10 12/13/9 70/15/70
f 12/49/9 16/16/12 69/18/69
f 9/12/8 68/11/68 8/19/14
f 2/48/2 13/20/10 64/5/64
f 16/16/12 5/10/4 71/17/71
f 65/6/65 64/5/64 73/22/73
f 66/8/66 74/23/74 67/9/67
f 68/11/68 65/6/65 76/25/76
f 70/15/70 69/14/69 78/27/78
f 69/18/69 71/17/71 77/29/77
f 68/11/68 76/25/76 66/8/66
f 64/5/64 70/15/70 72/21/72
f 67/9/67 75/24/75 71/17/71
f 73/22/73 72/21/72 81/31/81
f 74/23/74 82/32/82 75/24/75
f 73/22/73 81/31/81 76/25/76
f 78/27/78 77/26/77 86/36/86
f 77/29/77 79/28/79 85/38/85
f 76/25/76 84/34/84 74/23/74
f 78/27/78 86/36/86 72/21/72
f 75/24/75 83/33/83 79/28/79
f 80/30/80 88/39/88 81/31/81
f 82/32/82 90/41/90 83/33/83
f 81/31/81 89/40/89 84/34/84
f 85/35/85 93/44/93 86/36/86
f 85/38/85 87/37/87 93/47/93
f 82/32/82 84/34/84 90/41/90
f 86/36/86 94/45/94 80/30/80
f 83/33/83 91/42/91 87/37/87
