# Blender v2.71 (sub 0) OBJ File: 'luxray temp.blend'
# www.blender.org
mtllib Luxray_M_Tail.mtl
o Tail
v 0.091775 0.037179 -0.002721
v 0.091775 -0.068590 -0.009298
v 0.091775 -0.044055 -0.398180
v 0.091775 0.060255 -0.379486
v 0.000000 -0.121473 -0.012587
v 0.000000 -0.096210 -0.407527
v -0.091775 -0.068590 -0.009298
v -0.091775 -0.044055 -0.398180
v -0.091775 0.037178 -0.002721
v -0.091775 0.060255 -0.379486
v 0.000000 0.090062 0.000567
v 0.000000 0.112410 -0.370138
v 0.091775 0.106215 -0.800946
v 0.091775 0.198209 -0.748343
v 0.000000 0.060217 -0.827248
v -0.091775 0.106215 -0.800946
v -0.091775 0.198209 -0.748343
v 0.000000 0.244207 -0.722041
v 0.091775 0.657582 -1.152501
v 0.091775 0.721813 -1.068213
v 0.000000 0.625465 -1.194645
v -0.091775 0.657582 -1.152501
v -0.091775 0.721813 -1.068213
v 0.000000 0.753929 -1.026070
v 0.091775 1.051432 -1.549330
v 0.091775 1.144770 -1.511822
v 0.000000 1.004763 -1.568084
v -0.091775 1.051432 -1.549330
v -0.091775 1.144770 -1.511822
v 0.000000 1.191439 -1.493068
v 0.091775 1.225412 -2.000350
v 0.091775 1.324165 -1.986448
v 0.000000 1.176067 -2.007093
v -0.091775 1.225411 -2.000350
v -0.091775 1.324165 -1.986448
v 0.000000 1.373536 -1.979539
v 0.091775 1.244383 -2.551388
v 0.091775 1.147415 -2.512109
v 0.091775 0.832754 -3.071395
v 0.091775 0.917946 -3.137646
v 0.000000 1.099115 -2.492091
v 0.000000 0.790269 -3.034203
v -0.091775 1.147415 -2.512109
v -0.091775 0.832754 -3.071395
v -0.091775 1.244383 -2.551388
v -0.091775 0.917946 -3.137646
v 0.000000 1.292828 -2.571106
v 0.000000 0.960552 -3.170415
v 0.091775 0.367522 -3.652339
v 0.091775 0.465318 -3.705182
v 0.000000 0.318128 -3.618511
v -0.091775 0.367522 -3.652339
v -0.091775 0.465318 -3.705182
v 0.000000 0.514167 -3.730888
v 0.108523 0.264460 -4.561442
v 0.108523 0.378152 -4.540107
v 0.000000 0.209329 -4.561505
v -0.108523 0.264752 -4.559631
v -0.108523 0.378152 -4.540107
v 0.000000 0.435258 -4.527833
v 0.116230 0.598771 -5.322899
v 0.116230 0.675040 -5.232754
v 0.000000 0.565348 -5.355232
v -0.116230 0.598771 -5.322899
v -0.116230 0.675040 -5.232754
v 0.000000 0.713897 -5.185724
v 0.131236 1.356928 -5.797807
v 0.131236 1.366322 -5.673337
v 0.000000 1.354723 -5.850712
v -0.131236 1.356928 -5.797807
v -0.131236 1.366322 -5.673337
v 0.000000 1.371125 -5.610715
v 0.129939 2.311114 -5.817801
v 0.129939 2.297331 -5.686407
v 0.000000 2.321501 -5.875007
v -0.129939 2.311114 -5.817801
v -0.129939 2.297331 -5.686407
v 0.000000 2.290159 -5.621390
v 0.114821 3.004177 -5.537444
v 0.114820 2.920582 -5.442793
v 0.000000 3.046673 -5.580444
v -0.114821 3.004177 -5.537444
v -0.114821 2.920582 -5.442793
v 0.000000 2.878819 -5.395253
v 0.091775 3.484568 -5.003785
v 0.091775 3.397515 -4.944707
v 0.000000 3.528095 -5.033309
v -0.091775 3.484568 -5.003785
v -0.091775 3.397515 -4.944707
v 0.000000 3.354132 -4.914287
v 0.091775 3.757803 -4.535967
v 0.091775 3.661513 -4.491714
v 0.000000 3.805948 -4.558093
v -0.091775 3.757803 -4.535967
v -0.091775 3.661513 -4.491714
v 0.000000 3.613365 -4.469587
v 0.208019 3.570131 -4.426025
v 0.430515 3.638218 -4.452139
v 0.545253 3.719096 -4.241267
v 0.263459 3.609210 -4.324134
v 0.263459 3.531052 -4.527916
v 0.545253 3.557340 -4.663013
v 0.270598 3.473229 -4.678678
v 0.653282 3.404275 -5.062097
v 0.109129 3.475785 -4.672012
v 0.225851 3.442960 -4.961232
v 0.000000 3.495639 -4.620250
v 0.000000 3.484049 -4.854104
v -0.109128 3.475785 -4.672012
v -0.225851 3.442961 -4.961233
v -0.270598 3.473228 -4.678679
v -0.653281 3.404275 -5.062097
v -0.263459 3.531052 -4.527916
v -0.545253 3.557340 -4.663013
v -0.208019 3.570131 -4.426025
v -0.430515 3.638217 -4.452139
v -0.263459 3.609210 -4.324134
v -0.545253 3.719096 -4.241267
v -0.270598 3.667033 -4.173374
v -0.653282 3.872161 -3.842182
v -0.109128 3.664477 -4.180038
v -0.225851 3.833475 -3.943046
v 0.000000 3.644624 -4.231802
v 0.000000 3.792387 -4.050176
v 0.109128 3.664477 -4.180038
v 0.225851 3.833475 -3.943046
v 0.270598 3.667033 -4.173374
v 0.653281 3.872161 -3.842182
v 0.554182 3.732469 -4.488288
v 0.701879 3.836581 -4.216842
v 0.701879 3.628360 -4.759736
v 0.755675 3.461860 -5.193850
v 0.290728 3.481124 -5.143620
v 0.000000 3.534016 -5.005719
v -0.290727 3.481124 -5.143620
v -0.755675 3.461860 -5.193850
v -0.701879 3.628359 -4.759737
v -0.554182 3.732469 -4.488289
v -0.701879 3.836581 -4.216842
v -0.755675 4.003079 -3.782729
v -0.290728 3.983815 -3.832957
v 0.000000 3.930924 -3.970859
v 0.290728 3.983815 -3.832957
v 0.755675 4.003079 -3.782729
v 0.430515 3.826723 -4.524438
v 0.208019 3.894809 -4.550552
v 0.263459 3.933888 -4.448661
v 0.545253 3.907600 -4.313566
v 0.545253 3.745844 -4.735312
v 0.263459 3.855730 -4.652443
v 0.653282 3.592779 -5.134395
v 0.270598 3.797907 -4.803205
v 0.225851 3.631465 -5.033532
v 0.109129 3.800463 -4.796539
v 0.000000 3.672553 -4.926403
v 0.000000 3.820316 -4.744777
v -0.225851 3.631465 -5.033532
v -0.109128 3.800463 -4.796539
v -0.653281 3.592779 -5.134396
v -0.270598 3.797907 -4.803205
v -0.545253 3.745844 -4.735312
v -0.263459 3.855730 -4.652443
v -0.430515 3.826722 -4.524438
v -0.208019 3.894809 -4.550553
v -0.545253 3.907600 -4.313566
v -0.263459 3.933888 -4.448661
v -0.653282 4.060665 -3.914481
v -0.270598 3.991711 -4.297900
v -0.225851 4.021978 -4.015347
v -0.109128 3.989155 -4.304565
v 0.000000 3.980891 -4.122475
v 0.000000 3.969301 -4.356329
v 0.225851 4.021978 -4.015347
v 0.109128 3.989155 -4.304565
v 0.653281 4.060665 -3.914481
v 0.270598 3.991711 -4.297900
v 0.000000 3.556756 -4.420896
v 0.000000 3.908184 -4.555683
vt 0.886428 0.773017
vt 0.982029 0.773017
vt 0.982029 0.868618
vt 0.886428 0.868618
vt 0.886428 0.888249
vt 0.982029 0.888249
vt 0.982029 0.983850
vt 0.886428 0.983850
vn 0.865900 0.499300 0.030600
vn 0.865800 -0.499400 -0.031900
vn 0.845700 -0.521700 -0.112100
vn 0.000000 -0.998000 -0.063800
vn 0.000000 -0.978300 -0.207200
vn -0.865800 -0.499400 -0.031900
vn -0.845700 -0.521700 -0.112100
vn -0.865900 0.499300 0.030600
vn -0.886400 0.452900 0.095500
vn -0.000000 0.998100 0.061000
vn 0.000000 0.977800 0.209300
vn 0.886400 0.452900 0.095500
vn 0.820000 -0.438100 -0.368300
vn 0.910500 0.321800 0.259500
vn 0.000000 -0.786700 -0.617400
vn -0.820000 -0.438100 -0.368300
vn -0.910500 0.321800 0.259500
vn 0.000000 0.753600 0.657300
vn 0.880600 -0.298400 -0.368000
vn 0.847400 0.335600 0.411400
vn 0.000000 -0.631300 -0.775500
vn -0.880600 -0.298400 -0.368000
vn -0.847400 0.335600 0.411400
vn 0.000000 0.629800 0.776700
vn 0.888900 -0.386200 -0.246600
vn 0.829700 0.469300 0.302100
vn 0.000000 -0.828200 -0.560500
vn -0.888900 -0.386200 -0.246600
vn -0.829700 0.469300 0.302100
vn 0.000000 0.852800 0.522200
vn 0.896800 -0.439800 -0.048300
vn 0.824000 0.563300 0.061100
vn 0.000000 -0.994500 -0.104600
vn -0.896800 -0.439800 -0.048300
vn -0.824000 0.563300 0.061100
vn 0.000000 0.993700 0.112300
vn 0.889400 -0.431700 0.150300
vn 0.882900 -0.387200 0.265600
vn 0.856000 0.429800 -0.287100
vn 0.000000 -0.946400 0.322800
vn 0.000000 -0.827900 0.560800
vn -0.889400 -0.431700 0.150300
vn -0.882900 -0.387200 0.265600
vn -0.838700 0.517400 -0.169800
vn -0.856000 0.429800 -0.287100
vn 0.000000 0.947800 -0.318800
vn 0.000000 0.829700 -0.558200
vn 0.838700 0.517400 -0.169800
vn 0.839600 -0.503500 0.203700
vn 0.000000 -0.914800 0.404000
vn -0.839600 -0.503500 0.203700
vn -0.906300 0.393400 -0.154100
vn 0.000000 0.930500 -0.366300
vn 0.906300 0.393400 -0.154100
vn 0.813200 -0.575500 -0.086400
vn 0.894900 0.438500 0.082500
vn -0.001600 -0.990400 -0.138400
vn -0.814700 -0.573700 -0.084100
vn -0.894900 0.438600 0.082500
vn 0.000000 0.988300 0.152500
vn 0.779700 -0.478200 -0.404200
vn 0.000000 -0.752300 -0.658800
vn -0.779700 -0.478200 -0.404200
vn -0.898900 0.321900 0.297200
vn 0.000000 0.772400 0.635200
vn 0.898900 0.321900 0.297200
vn 0.783000 -0.194400 -0.590800
vn 0.888900 0.118100 0.442500
vn 0.000000 -0.276700 -0.960900
vn -0.783000 -0.194400 -0.590800
vn -0.888900 0.118100 0.442500
vn 0.000000 0.307600 0.951500
vn 0.809100 0.111900 -0.576800
vn 0.000000 0.181300 -0.983400
vn -0.809100 0.111900 -0.576800
vn -0.880600 -0.072800 0.468300
vn 0.000000 -0.178100 0.984000
vn 0.880600 -0.072800 0.468300
vn 0.823100 0.335500 -0.458100
vn 0.889400 -0.235900 0.391500
vn 0.000000 0.589800 -0.807600
vn -0.823100 0.335500 -0.458100
vn -0.889400 -0.235900 0.391500
vn 0.000000 -0.537700 0.843100
vn 0.849600 0.433300 -0.300700
vn 0.880400 -0.369900 0.296700
vn 0.000000 0.813000 -0.582300
vn -0.849600 0.433300 -0.300700
vn -0.880400 -0.369900 0.296700
vn 0.000000 -0.792800 0.609400
vn 0.851400 0.452900 -0.264500
vn 0.000000 0.863500 -0.504400
vn -0.851400 0.452900 -0.264500
vn -0.878400 -0.412900 0.240700
vn -0.000000 -0.863900 0.503600
vn 0.878400 -0.412900 0.240700
vn 0.150200 -0.923100 0.354000
vn 0.436000 -0.840200 0.322200
vn 0.465900 -0.872400 0.147700
vn 0.465900 -0.747400 0.473500
vn 0.338300 -0.941000 -0.001300
vn 0.163300 -0.894600 0.415800
vn -0.067900 -0.977400 0.200000
vn -0.174400 -0.976800 -0.124400
vn 0.000000 -0.976900 0.213800
vn 0.000000 -0.996400 -0.084800
vn 0.174400 -0.976800 -0.124400
vn -0.338300 -0.941000 -0.001300
vn 0.067900 -0.977400 0.200000
vn -0.163300 -0.894600 0.415800
vn -0.465900 -0.747400 0.473500
vn -0.150200 -0.923100 0.354000
vn -0.436000 -0.840200 0.322200
vn -0.465900 -0.872400 0.147700
vn -0.338300 -0.698800 0.630300
vn -0.163200 -0.943300 0.289000
vn 0.067900 -0.860500 0.504900
vn 0.174400 -0.643100 0.745700
vn 0.000000 -0.869300 0.494200
vn 0.000000 -0.684100 0.729400
vn -0.174400 -0.643100 0.745700
vn 0.338300 -0.698800 0.630300
vn -0.067900 -0.860500 0.504900
vn 0.163200 -0.943300 0.289000
vn 1.000000 0.000000 0.000000
vn 0.972400 -0.083500 -0.217600
vn 0.972400 0.083500 0.217600
vn 0.707100 -0.253200 -0.660200
vn -0.233100 -0.348200 -0.908000
vn 0.000000 -0.358100 -0.933700
vn 0.233100 -0.348200 -0.908000
vn -0.707100 -0.253200 -0.660200
vn -0.972400 0.083500 0.217600
vn -1.000000 0.000000 0.000000
vn -0.972400 -0.083500 -0.217600
vn -0.707100 0.253200 0.660200
vn 0.233100 0.348200 0.908000
vn 0.000000 0.358100 0.933700
vn -0.233100 0.348200 0.908000
vn 0.707100 0.253200 0.660200
vn 0.150200 0.923100 -0.354000
vn 0.163200 0.894600 -0.415800
vn 0.465900 0.747400 -0.473500
vn 0.465900 0.872400 -0.147700
vn 0.163200 0.943300 -0.289000
vn 0.338300 0.698800 -0.630300
vn 0.076700 0.900700 -0.427600
vn -0.067900 0.860500 -0.504900
vn 0.000000 0.869300 -0.494200
vn -0.174400 0.643100 -0.745700
vn 0.174400 0.643100 -0.745700
vn 0.067900 0.860500 -0.504900
vn -0.338300 0.698800 -0.630300
vn -0.076700 0.900700 -0.427600
vn -0.163300 0.943300 -0.289000
vn -0.150200 0.923100 -0.354000
vn -0.465900 0.872400 -0.147700
vn -0.465900 0.747400 -0.473500
vn -0.163300 0.894600 -0.415800
vn -0.338300 0.941000 0.001400
vn -0.076700 0.955600 -0.284300
vn 0.067900 0.977400 -0.200000
vn 0.000000 0.976900 -0.213800
vn 0.174400 0.976800 0.124400
vn -0.174400 0.976800 0.124400
vn -0.067900 0.977400 -0.200000
vn 0.338300 0.941000 0.001400
vn 0.076700 0.955600 -0.284300
vn 0.000000 -0.933700 0.358100
vn 0.076700 -0.955600 0.284300
vn -0.076700 -0.955600 0.284300
vn -0.076700 -0.900700 0.427600
vn 0.076700 -0.900700 0.427600
vn -0.436000 0.840200 -0.322200
vn 0.000000 0.684100 -0.729400
vn 0.436000 0.840200 -0.322200
vn 0.000000 0.996400 0.084800
vn 0.000000 0.933700 -0.358100
usemtl None
s 1
f 1/1/1 2/2/2 3/3/3
f 2/1/2 5/2/4 6/3/5
f 7/2/6 8/3/7 6/4/5
f 9/2/8 10/3/9 8/4/7
f 11/2/10 12/3/11 10/4/9
f 11/1/10 1/2/1 4/3/12
f 3/2/3 13/3/13 14/4/14
f 6/2/5 15/3/15 13/4/13
f 6/1/5 8/2/7 16/3/16
f 8/1/7 10/2/9 17/3/17
f 10/1/9 12/2/11 18/3/18
f 4/2/12 14/3/14 18/4/18
f 13/2/13 19/3/19 20/4/20
f 15/2/15 21/3/21 19/4/19
f 15/1/15 16/2/16 22/3/22
f 16/1/16 17/2/17 23/3/23
f 17/1/17 18/2/18 24/3/24
f 14/2/14 20/3/20 24/4/24
f 19/2/19 25/3/25 26/4/26
f 21/2/21 27/3/27 25/4/25
f 21/1/21 22/2/22 28/3/28
f 22/1/22 23/2/23 29/3/29
f 23/1/23 24/2/24 30/3/30
f 20/2/20 26/3/26 30/4/30
f 25/2/25 31/3/31 32/4/32
f 27/2/27 33/3/33 31/4/31
f 27/1/27 28/2/28 34/3/34
f 28/1/28 29/2/29 35/3/35
f 29/1/29 30/2/30 36/3/36
f 26/2/26 32/3/32 36/4/36
f 38/2/37 39/3/38 40/4/39
f 41/2/40 42/3/41 39/4/38
f 41/1/40 43/2/42 44/3/43
f 43/1/42 45/2/44 46/3/45
f 45/1/44 47/2/46 48/3/47
f 37/2/48 40/3/39 48/4/47
f 40/1/39 39/2/38 49/3/49
f 39/1/38 42/2/41 51/3/50
f 44/2/43 52/3/51 51/4/50
f 46/2/45 53/3/52 52/4/51
f 48/2/47 54/3/53 53/4/52
f 48/1/47 40/2/39 50/3/54
f 49/2/49 55/3/55 56/4/56
f 51/2/50 57/3/57 55/4/55
f 51/1/50 52/2/51 58/3/58
f 52/1/51 53/2/52 59/3/59
f 53/1/52 54/2/53 60/3/60
f 50/2/54 56/3/56 60/4/60
f 56/1/56 55/2/55 61/3/61
f 57/2/57 63/3/62 61/4/61
f 57/1/57 58/2/58 64/3/63
f 59/2/59 65/3/64 64/4/63
f 60/2/60 66/3/65 65/4/64
f 60/1/60 56/2/56 62/3/66
f 67/2/67 68/3/68 62/4/66
f 69/2/69 67/3/67 61/4/61
f 64/1/63 70/2/70 69/3/69
f 65/1/64 71/2/71 70/3/70
f 66/1/65 72/2/72 71/3/71
f 68/2/68 72/3/72 66/4/65
f 68/1/68 67/2/67 73/3/73
f 67/1/67 69/2/69 75/3/74
f 70/2/70 76/3/75 75/4/74
f 71/2/71 77/3/76 76/4/75
f 72/2/72 78/3/77 77/4/76
f 72/1/72 68/2/68 74/3/78
f 79/2/79 80/3/80 74/4/78
f 81/2/81 79/3/79 73/4/73
f 76/1/75 82/2/82 81/3/81
f 77/1/76 83/2/83 82/3/82
f 78/1/77 84/2/84 83/3/83
f 80/2/80 84/3/84 78/4/77
f 85/2/85 86/3/86 80/4/80
f 87/2/87 85/3/85 79/4/79
f 82/1/82 88/2/88 87/3/87
f 83/1/83 89/2/89 88/3/88
f 84/1/84 90/2/90 89/3/89
f 86/2/86 90/3/90 84/4/84
f 86/1/86 85/2/85 91/3/91
f 85/1/85 87/2/87 93/3/92
f 88/2/88 94/3/93 93/4/92
f 89/2/89 95/3/94 94/4/93
f 90/2/90 96/3/95 95/4/94
f 90/1/90 86/2/86 92/3/96
f 35/2/35 45/3/44 43/4/42
f 34/2/34 43/3/42 41/4/40
f 31/1/31 33/2/33 41/3/40
f 32/1/32 31/2/31 38/3/37
f 36/1/36 32/2/32 37/3/48
f 36/2/36 47/3/46 45/4/44
f 97/5/97 98/6/98 99/7/99
f 102/6/100 98/7/98 97/8/97
f 104/6/101 102/7/100 101/8/102
f 105/5/103 106/6/104 104/7/101
f 107/5/105 108/6/106 106/7/104
f 110/6/107 108/7/106 107/8/105
f 112/6/108 110/7/107 109/8/109
f 113/5/110 114/6/111 112/7/108
f 115/5/112 116/6/113 114/7/111
f 118/6/114 116/7/113 115/8/112
f 120/6/115 118/7/114 117/8/116
f 121/5/117 122/6/118 120/7/115
f 123/5/119 124/6/120 122/7/118
f 126/6/121 124/7/120 123/8/119
f 128/6/122 126/7/121 125/8/123
f 100/5/124 99/6/99 128/7/122
f 98/5/98 129/6/125 130/7/126
f 131/6/127 129/7/125 98/8/98
f 132/6/128 131/7/127 102/8/100
f 106/5/104 133/6/129 132/7/128
f 108/5/106 134/6/130 133/7/129
f 135/6/131 134/7/130 108/8/106
f 136/6/132 135/7/131 110/8/107
f 114/5/111 137/6/133 136/7/132
f 116/5/113 138/6/134 137/7/133
f 139/6/135 138/7/134 116/8/113
f 140/6/136 139/7/135 118/8/114
f 122/5/118 141/6/137 140/7/136
f 124/5/120 142/6/138 141/7/137
f 143/6/139 142/7/138 124/8/120
f 144/6/140 143/7/139 126/8/121
f 99/5/99 130/6/126 144/7/140
f 146/6/141 147/7/142 148/8/143
f 149/5/144 150/6/145 146/7/141
f 151/5/146 152/6/147 150/7/145
f 154/6/148 152/7/147 151/8/146
f 156/6/149 154/7/148 153/8/150
f 157/5/151 158/6/152 156/7/149
f 159/5/153 160/6/154 158/7/152
f 162/6/155 160/7/154 159/8/153
f 164/6/156 162/7/155 161/8/157
f 165/5/158 166/6/159 164/7/156
f 167/5/160 168/6/161 166/7/159
f 170/6/162 168/7/161 167/8/160
f 172/6/163 170/7/162 169/8/164
f 173/5/165 174/6/166 172/7/163
f 175/5/167 176/6/168 174/7/166
f 147/6/142 176/7/168 175/8/167
f 97/6/97 177/7/169 103/8/170
f 103/6/170 177/7/169 107/8/105
f 107/6/105 177/7/169 111/8/171
f 111/6/171 177/7/169 115/8/112
f 115/6/112 177/7/169 119/8/172
f 119/6/172 177/7/169 123/8/119
f 123/6/119 177/7/169 127/8/173
f 127/6/173 177/7/169 97/8/97
f 146/6/141 150/7/145 152/8/147
f 152/6/147 154/7/148 156/8/149
f 156/6/149 158/7/152 160/8/154
f 160/6/154 162/7/155 164/8/156
f 164/6/156 166/7/159 168/8/161
f 168/6/161 170/7/162 172/8/163
f 172/6/163 174/7/166 176/8/168
f 176/6/168 147/7/142 146/8/141
f 140/5/136 167/6/160 165/7/158
f 139/6/135 165/7/158 163/8/174
f 137/5/133 138/6/134 163/7/174
f 136/5/132 137/6/133 161/7/157
f 136/6/132 159/7/153 157/8/151
f 135/6/131 157/7/151 155/8/175
f 133/5/129 134/6/130 155/7/175
f 132/5/128 133/6/129 153/7/150
f 132/6/128 151/7/146 149/8/144
f 131/6/127 149/7/144 145/8/176
f 130/5/126 129/6/125 145/7/176
f 144/5/140 130/6/126 148/7/143
f 144/6/140 175/7/167 173/8/165
f 143/6/139 173/7/165 171/8/177
f 141/5/137 142/6/138 171/7/177
f 140/5/136 141/6/137 169/7/164
f 4/4/12 1/1/1 3/3/3
f 3/4/3 2/1/2 6/3/5
f 5/1/4 7/2/6 6/4/5
f 7/1/6 9/2/8 8/4/7
f 9/1/8 11/2/10 10/4/9
f 12/4/11 11/1/10 4/3/12
f 4/1/12 3/2/3 14/4/14
f 3/1/3 6/2/5 13/4/13
f 15/4/15 6/1/5 16/3/16
f 16/4/16 8/1/7 17/3/17
f 17/4/17 10/1/9 18/3/18
f 12/1/11 4/2/12 18/4/18
f 14/1/14 13/2/13 20/4/20
f 13/1/13 15/2/15 19/4/19
f 21/4/21 15/1/15 22/3/22
f 22/4/22 16/1/16 23/3/23
f 23/4/23 17/1/17 24/3/24
f 18/1/18 14/2/14 24/4/24
f 20/1/20 19/2/19 26/4/26
f 19/1/19 21/2/21 25/4/25
f 27/4/27 21/1/21 28/3/28
f 28/4/28 22/1/22 29/3/29
f 29/4/29 23/1/23 30/3/30
f 24/1/24 20/2/20 30/4/30
f 26/1/26 25/2/25 32/4/32
f 25/1/25 27/2/27 31/4/31
f 33/4/33 27/1/27 34/3/34
f 34/4/34 28/1/28 35/3/35
f 35/4/35 29/1/29 36/3/36
f 30/1/30 26/2/26 36/4/36
f 37/1/48 38/2/37 40/4/39
f 38/1/37 41/2/40 39/4/38
f 42/4/41 41/1/40 44/3/43
f 44/4/43 43/1/42 46/3/45
f 46/4/45 45/1/44 48/3/47
f 47/1/46 37/2/48 48/4/47
f 50/4/54 40/1/39 49/3/49
f 49/4/49 39/1/38 51/3/50
f 42/1/41 44/2/43 51/4/50
f 44/1/43 46/2/45 52/4/51
f 46/1/45 48/2/47 53/4/52
f 54/4/53 48/1/47 50/3/54
f 50/1/54 49/2/49 56/4/56
f 49/1/49 51/2/50 55/4/55
f 57/4/57 51/1/50 58/3/58
f 58/4/58 52/1/51 59/3/59
f 59/4/59 53/1/52 60/3/60
f 54/1/53 50/2/54 60/4/60
f 62/4/66 56/1/56 61/3/61
f 55/1/55 57/2/57 61/4/61
f 63/4/62 57/1/57 64/3/63
f 58/1/58 59/2/59 64/4/63
f 59/1/59 60/2/60 65/4/64
f 66/4/65 60/1/60 62/3/66
f 61/1/61 67/2/67 62/4/66
f 63/1/62 69/2/69 61/4/61
f 63/4/62 64/1/63 69/3/69
f 64/4/63 65/1/64 70/3/70
f 65/4/64 66/1/65 71/3/71
f 62/1/66 68/2/68 66/4/65
f 74/4/78 68/1/68 73/3/73
f 73/4/73 67/1/67 75/3/74
f 69/1/69 70/2/70 75/4/74
f 70/1/70 71/2/71 76/4/75
f 71/1/71 72/2/72 77/4/76
f 78/4/77 72/1/72 74/3/78
f 73/1/73 79/2/79 74/4/78
f 75/1/74 81/2/81 73/4/73
f 75/4/74 76/1/75 81/3/81
f 76/4/75 77/1/76 82/3/82
f 77/4/76 78/1/77 83/3/83
f 74/1/78 80/2/80 78/4/77
f 79/1/79 85/2/85 80/4/80
f 81/1/81 87/2/87 79/4/79
f 81/4/81 82/1/82 87/3/87
f 82/4/82 83/1/83 88/3/88
f 83/4/83 84/1/84 89/3/89
f 80/1/80 86/2/86 84/4/84
f 92/4/96 86/1/86 91/3/91
f 91/4/91 85/1/85 93/3/92
f 87/1/87 88/2/88 93/4/92
f 88/1/88 89/2/89 94/4/93
f 89/1/89 90/2/90 95/4/94
f 96/4/95 90/1/90 92/3/96
f 34/1/34 35/2/35 43/4/42
f 33/1/33 34/2/34 41/4/40
f 38/4/37 31/1/31 41/3/40
f 37/4/48 32/1/32 38/3/37
f 47/4/46 36/1/36 37/3/48
f 35/1/35 36/2/36 45/4/44
f 100/8/124 97/5/97 99/7/99
f 101/5/102 102/6/100 97/8/97
f 103/5/170 104/6/101 101/8/102
f 103/8/170 105/5/103 104/7/101
f 105/8/103 107/5/105 106/7/104
f 109/5/109 110/6/107 107/8/105
f 111/5/171 112/6/108 109/8/109
f 111/8/171 113/5/110 112/7/108
f 113/8/110 115/5/112 114/7/111
f 117/5/116 118/6/114 115/8/112
f 119/5/172 120/6/115 117/8/116
f 119/8/172 121/5/117 120/7/115
f 121/8/117 123/5/119 122/7/118
f 125/5/123 126/6/121 123/8/119
f 127/5/173 128/6/122 125/8/123
f 127/8/173 100/5/124 128/7/122
f 99/8/99 98/5/98 130/7/126
f 102/5/100 131/6/127 98/8/98
f 104/5/101 132/6/128 102/8/100
f 104/8/101 106/5/104 132/7/128
f 106/8/104 108/5/106 133/7/129
f 110/5/107 135/6/131 108/8/106
f 112/5/108 136/6/132 110/8/107
f 112/8/108 114/5/111 136/7/132
f 114/8/111 116/5/113 137/7/133
f 118/5/114 139/6/135 116/8/113
f 120/5/115 140/6/136 118/8/114
f 120/8/115 122/5/118 140/7/136
f 122/8/118 124/5/120 141/7/137
f 126/5/121 143/6/139 124/8/120
f 128/5/122 144/6/140 126/8/121
f 128/8/122 99/5/99 144/7/140
f 145/5/176 146/6/141 148/8/143
f 145/8/176 149/5/144 146/7/141
f 149/8/144 151/5/146 150/7/145
f 153/5/150 154/6/148 151/8/146
f 155/5/175 156/6/149 153/8/150
f 155/8/175 157/5/151 156/7/149
f 157/8/151 159/5/153 158/7/152
f 161/5/157 162/6/155 159/8/153
f 163/5/174 164/6/156 161/8/157
f 163/8/174 165/5/158 164/7/156
f 165/8/158 167/5/160 166/7/159
f 169/5/164 170/6/162 167/8/160
f 171/5/177 172/6/163 169/8/164
f 171/8/177 173/5/165 172/7/163
f 173/8/165 175/5/167 174/7/166
f 148/5/143 147/6/142 175/8/167
f 101/5/102 97/6/97 103/8/170
f 105/5/103 103/6/170 107/8/105
f 109/5/109 107/6/105 111/8/171
f 113/5/110 111/6/171 115/8/112
f 117/5/116 115/6/112 119/8/172
f 121/5/117 119/6/172 123/8/119
f 125/5/123 123/6/119 127/8/173
f 100/5/124 127/6/173 97/8/97
f 178/5/178 146/6/141 152/8/147
f 178/5/178 152/6/147 156/8/149
f 178/5/178 156/6/149 160/8/154
f 178/5/178 160/6/154 164/8/156
f 178/5/178 164/6/156 168/8/161
f 178/5/178 168/6/161 172/8/163
f 178/5/178 172/6/163 176/8/168
f 178/5/178 176/6/168 146/8/141
f 139/8/135 140/5/136 165/7/158
f 138/5/134 139/6/135 163/8/174
f 161/8/157 137/5/133 163/7/174
f 159/8/153 136/5/132 161/7/157
f 135/5/131 136/6/132 157/8/151
f 134/5/130 135/6/131 155/8/175
f 153/8/150 133/5/129 155/7/175
f 151/8/146 132/5/128 153/7/150
f 131/5/127 132/6/128 149/8/144
f 129/5/125 131/6/127 145/8/176
f 148/8/143 130/5/126 145/7/176
f 175/8/167 144/5/140 148/7/143
f 143/5/139 144/6/140 173/8/165
f 142/5/138 143/6/139 171/8/177
f 169/8/164 141/5/137 171/7/177
f 167/8/160 140/5/136 169/7/164
