# This file uses centimeters as units for non-parametric coordinates.

mtllib JoltikFLLeg.mtl
g default1
v 1.113325 -1.404452 0.275125
v 1.073890 -1.258146 0.785110
v 1.534134 -1.098701 0.222383
v 1.509892 -0.984434 0.755666
v 0.448434 0.965302 0.630044
v 0.884929 0.286120 -0.967603
v -0.152846 -0.811073 -0.470944
v -0.502093 -0.394466 0.820909
v 1.021578 0.520222 0.923999
v 1.235157 0.019604 -0.834065
v 0.194872 -1.093429 -0.363963
v 0.066572 -0.792274 1.038300
v 1.227137 0.106013 0.838586
v 1.436772 -0.228530 -0.497566
v 0.534915 -1.133506 -0.129671
v 0.452015 -0.934867 0.848546
v 1.697823 -0.488270 1.240123
v 1.958917 -0.969732 -0.358944
v 0.822732 -1.660664 -0.166508
v 0.756175 -1.024843 0.875158
v 1.058024 -1.408154 0.533378
v 1.561832 -1.037513 0.464706
v -0.281371 -0.725971 0.341290
v 1.022185 0.927982 -0.176534
v 1.376001 0.656645 -0.068876
v 0.074610 -0.993712 0.448451
v 1.413451 0.043602 0.071100
v 0.475502 -1.003235 0.504875
v 2.142560 -0.610936 0.304308
v 0.710255 -1.614762 0.667872
v 1.346313 -1.602581 0.583422
v 1.377053 -1.212423 0.124063
v 0.430809 -0.243690 -0.940532
v -0.061760 0.529609 0.867885
v 0.780598 -0.509449 -0.803436
v 0.549670 -0.017341 1.234197
v 1.019325 -0.655888 -0.401988
v 0.869628 -0.303744 0.977966
v 1.467714 -1.370534 -0.317111
v 0.983813 -0.420394 0.964453
v 1.309100 -1.070035 0.822630
v 0.829465 -1.064282 0.823731
v 0.831984 -1.188818 0.509825
v 0.888857 -1.236350 0.107674
v 1.191716 -0.859896 -0.126325
v 1.550139 -0.785580 0.046604
v 1.582070 -0.661751 0.285689
v 1.532615 -0.653664 0.766766
v 1.132263 -0.703029 0.913922
v 1.368307 0.154539 0.443806
v 1.565241 -0.173569 0.487971
v 1.572952 -0.631833 0.539746
v 1.588007 -0.291331 -0.074790
v 1.576660 -0.724862 0.133481
v 1.458594 -0.067334 -0.301605
v 1.261534 -0.417079 -0.538152
v 1.255706 -0.605085 -0.425367
v 1.381484 -0.823936 -0.072528
v 0.865666 -1.085785 -0.211908
v 1.040285 -1.048122 -0.009328
v 0.505209 -1.068371 0.187602
v 0.742150 -1.251530 0.151622
v 0.860421 -1.212585 0.308749
v 0.642858 -0.588354 1.058694
v 1.110889 -1.021352 1.490887
v 0.980863 -0.883655 0.868827
v 0.814246 -0.858093 -0.286702
v -0.528866 -0.491829 0.187575
v -0.254619 -0.748861 -0.502644
v 0.359725 -0.127168 -0.945993
v 0.366877 0.565195 -0.839732
v 0.282960 1.088885 -0.395634
v -0.424309 0.408266 0.698841
v -0.542759 -0.175581 0.530253
v 0.002154 0.975565 0.090264
vt 0.837125 0.103809
vt 0.747022 0.112250
vt 0.764074 0.135474
vt 0.840642 0.109979
vt 0.889824 0.171645
vt 0.889218 0.160087
vt 0.878036 0.240321
vt 0.828771 0.292265
vt 0.804465 0.276305
vt 0.892221 0.212639
vt 0.688605 0.236791
vt 0.707358 0.224755
vt 0.726059 0.166843
vt 0.693816 0.145132
vt 0.714989 0.280007
vt 0.774869 0.281025
vt 0.682380 0.235860
vt 0.792522 0.249391
vt 0.106268 0.050081
vt 0.084647 0.133230
vt 0.076241 0.121715
vt 0.730750 0.167043
vt 0.735649 0.199588
vt 0.691855 0.194774
vt 0.647311 0.135827
vt 0.725006 0.121588
vt 0.699822 0.119422
vt 0.083253 0.177723
vt 0.121170 0.126090
vt 0.143641 0.176635
vt 0.111750 0.180660
vt 0.776994 0.188584
vt 0.751124 0.123660
vt 0.753190 0.118620
vt 0.770074 0.112360
vt 0.793179 0.155362
vt 0.818340 0.177580
vt 0.874009 0.133727
vt 0.877407 0.186203
vt 0.151588 0.117859
vt 0.840078 0.161591
vt 0.832069 0.124241
vt 0.844581 0.142889
vt 0.824701 0.088071
vt 0.792928 0.102533
vt 0.779712 0.106337
vt 0.173653 0.159979
vt 0.162747 0.168146
vt 0.163929 0.102562
vt 0.195360 0.149982
vt 0.188607 0.154819
vt 0.825257 0.075802
vt 0.735134 0.085693
vt 0.144967 0.076732
vt 0.165987 0.099344
vt 0.180674 0.124663
vt 0.080951 0.096412
vt 0.112550 0.076234
vt 0.115506 0.105737
vt 0.140746 0.102540
vt 0.768062 0.060120
vt 0.750632 0.063983
vt 0.728326 0.066340
vt 0.710793 0.024091
vt 0.728875 0.084748
vt 0.764071 0.078287
vt 0.647969 0.182539
vt 0.669700 0.105673
vt 0.676393 0.154131
vt 0.677892 0.142560
vt 0.064781 0.171083
vt 0.683498 0.114526
vt 0.690750 0.091530
vt 0.667438 0.125900
vt 0.619493 0.082951
vt 0.687798 0.082605
vt 0.070442 0.146786
vt 0.076103 0.122489
vt 0.688501 0.096609
vt 0.693503 0.078693
vt 0.829476 0.119201
vt 0.798896 0.098966
vt 0.785917 0.080296
vt 0.808389 0.076560
vt 0.820060 0.048316
vt 0.816687 0.099145
vt 0.799267 0.071827
vt 0.803353 0.019538
vt 0.772937 0.061625
vt 0.141803 0.848602
vt 0.178208 0.832925
vt 0.186733 0.886848
vt 0.202495 0.923661
vt 0.179102 0.938669
vt 0.115555 0.961399
vt 0.101784 0.905530
vt 0.121735 0.880374
vt 0.115555 0.961399
vt 0.121735 0.880374
vt 0.121735 0.880374
vt 0.179102 0.938669
vt 0.179102 0.938669
vt 0.179102 0.938669
vt 0.179102 0.938669
vt 0.141803 0.848602
vt 0.178208 0.832925
vt 0.186733 0.886848
vn -0.624700 -0.780859 -0.003092
vn -0.647036 -0.762459 0.000170
vn -0.626625 -0.779316 -0.002814
vn -0.647036 -0.762459 0.000170
vn -0.247453 -0.420772 -0.872764
vn -0.155893 -0.506897 -0.847793
vn -0.247453 -0.420772 -0.872764
vn -0.153571 -0.508943 -0.846991
vn 0.289562 0.689874 -0.663496
vn 0.452000 0.634989 -0.626486
vn 0.289562 0.689874 -0.663496
vn 0.466962 0.628650 -0.621888
vn -0.451475 0.097183 0.886976
vn -0.722233 0.171860 0.669957
vn -0.451059 0.097071 0.887200
vn -0.722233 0.171860 0.669957
vn 0.351587 0.905722 0.236759
vn 0.074356 0.991425 0.107460
vn 0.319246 0.921284 0.222074
vn 0.074356 0.991425 0.107460
vn -0.883266 -0.456383 0.107498
vn -0.700233 -0.682772 0.208556
vn -0.883266 -0.456383 0.107498
vn -0.729961 -0.654913 0.195566
vn 0.079931 -0.101569 -0.991612
vn -0.129119 0.112569 -0.985219
vn 0.078496 -0.100106 -0.991876
vn -0.129119 0.112569 -0.985219
vn -0.467352 0.782939 0.410595
vn -0.268640 0.691262 0.670813
vn -0.467352 0.782939 0.410595
vn -0.209137 0.652505 0.728354
vn 0.319246 0.921284 0.222074
vn 0.711772 0.627649 0.315337
vn 0.351587 0.905722 0.236759
vn 0.685303 0.656637 0.314940
vn 0.426178 -0.345719 0.835973
vn 0.426178 -0.345719 0.835973
vn 0.426178 -0.345719 0.835973
vn 0.860466 0.445301 0.247600
vn 0.859117 0.439468 0.262271
vn 0.865993 0.482346 0.131907
vn 0.932417 0.354059 0.072396
vn 0.949989 -0.182090 0.253702
vn 0.865993 0.482346 0.131907
vn 0.991480 -0.119405 -0.052054
vn 0.932417 0.354059 0.072396
vn 0.724241 -0.257076 0.639833
vn 0.949989 -0.182090 0.253702
vn 0.989774 -0.055417 0.131440
vn 0.989774 -0.055417 0.131440
vn 0.991480 -0.119405 -0.052054
vn 0.925773 -0.306622 0.221197
vn 0.925773 -0.306622 0.221197
vn 0.925773 -0.306622 0.221197
vn 0.685303 0.656637 0.314940
vn 0.711772 0.627649 0.315337
vn 0.862907 0.449814 0.230345
vn 0.860466 0.445301 0.247600
vn 0.859117 0.439468 0.262271
vn 0.860466 0.445301 0.247600
vn 0.756539 0.582136 0.297936
vn 0.862907 0.449814 0.230345
vn 0.717207 0.219715 0.661316
vn 0.960616 -0.276009 -0.032204
vn 0.790778 0.331702 -0.514436
vn 0.685848 -0.517877 -0.511289
vn 0.627520 -0.290681 -0.722304
vn 0.717207 0.219715 0.661316
vn 0.756539 0.582136 0.297936
vn 0.724241 -0.257076 0.639833
vn 0.949989 -0.182090 0.253702
vn 0.919821 0.309388 -0.241266
vn 0.914604 0.305757 -0.264597
vn 0.790778 0.331702 -0.514436
vn 0.627520 -0.290681 -0.722304
vn 0.079931 -0.101569 -0.991612
vn 0.078496 -0.100106 -0.991876
vn 0.352250 -0.384642 -0.853212
vn 0.351291 -0.383631 -0.854062
vn 0.452000 0.634989 -0.626486
vn 0.772849 0.439856 -0.457418
vn 0.466962 0.628650 -0.621888
vn 0.794180 0.420379 -0.438817
vn 0.933109 -0.359240 -0.015945
vn 0.933109 -0.359240 -0.015945
vn 0.933109 -0.359240 -0.015945
vn 0.772849 0.439856 -0.457418
vn 0.914604 0.305757 -0.264597
vn 0.794180 0.420379 -0.438817
vn 0.919821 0.309388 -0.241266
vn 0.926078 0.303974 -0.223562
vn 0.364251 -0.447704 -0.816628
vn -0.208754 -0.810667 -0.547029
vn 0.344892 -0.441238 -0.828468
vn -0.067210 -0.548110 -0.833701
vn 0.288507 -0.835814 -0.467095
vn -0.067210 -0.548110 -0.833701
vn 0.019574 -0.880764 -0.473151
vn -0.208754 -0.810667 -0.547029
vn 0.919821 0.309388 -0.241266
vn 0.909456 0.415039 -0.025161
vn 0.926078 0.303974 -0.223562
vn 0.927586 0.322100 0.189302
vn 0.685848 -0.517877 -0.511289
vn 0.990686 -0.111935 -0.077536
vn 0.960616 -0.276009 -0.032204
vn 0.990686 -0.111935 -0.077536
vn 0.918367 0.020911 0.395177
vn 0.960616 -0.276009 -0.032204
vn 0.918367 0.020911 0.395177
vn 0.909456 0.415039 -0.025161
vn 0.927586 0.322100 0.189302
vn 0.690815 -0.573237 -0.440651
vn 0.690815 -0.573237 -0.440651
vn 0.690815 -0.573237 -0.440651
vn 0.935865 -0.209438 -0.283358
vn 0.288507 -0.835814 -0.467095
vn 0.530875 -0.402119 -0.745971
vn 0.530875 -0.402119 -0.745971
vn 0.019574 -0.880764 -0.473151
vn -0.415614 -0.907474 0.061285
vn -0.624700 -0.780859 -0.003092
vn -0.460192 -0.886545 0.047556
vn -0.626625 -0.779316 -0.002814
vn -0.155893 -0.506897 -0.847793
vn 0.080686 -0.649405 -0.756150
vn -0.153571 -0.508943 -0.846991
vn 0.091911 -0.654640 -0.750333
vn 0.189597 -0.754582 -0.628219
vn 0.189597 -0.754582 -0.628218
vn 0.189597 -0.754582 -0.628219
vn 0.193449 -0.980668 0.029456
vn 0.056145 -0.597678 -0.799768
vn 0.375556 -0.800746 -0.466651
vn 0.056145 -0.597678 -0.799768
vn 0.539137 -0.548213 -0.639370
vn 0.170835 -0.393760 0.903199
vn 0.170835 -0.393760 0.903199
vn 0.170834 -0.393760 0.903199
vn -0.551290 -0.700972 0.452457
vn -0.551290 -0.700972 0.452457
vn -0.551290 -0.700972 0.452458
vn -0.539286 -0.832429 -0.127411
vn -0.539286 -0.832429 -0.127411
vn -0.539286 -0.832429 -0.127411
vn -0.636931 -0.768799 -0.057163
vn -0.636931 -0.768799 -0.057163
vn -0.258587 -0.905849 0.335514
vn -0.000788 -0.997880 -0.065074
vn 0.272270 -0.948672 -0.160905
vn -0.000788 -0.997880 -0.065074
vn 0.272270 -0.948672 -0.160905
vn -0.615761 -0.721196 -0.317357
vn -0.524368 -0.781803 -0.337375
vn -0.413037 -0.907991 0.070379
vn -0.615761 -0.721196 -0.317357
vn -0.455408 -0.890042 -0.020720
vn -0.524368 -0.781803 -0.337375
vn -0.451475 0.097183 0.886976
vn -0.451059 0.097071 0.887200
vn -0.238686 -0.037719 0.970364
vn -0.219884 -0.051865 0.974146
vn 0.122350 0.388391 0.913336
vn 0.152334 0.361377 0.919892
vn 0.266126 0.100747 0.958659
vn 0.201934 0.133858 0.970209
vn 0.152334 0.361377 0.919892
vn 0.122350 0.388391 0.913336
vn -0.268640 0.691262 0.670813
vn -0.209137 0.652505 0.728354
vn 0.201934 0.133858 0.970209
vn -0.212786 0.047743 0.975932
vn 0.266126 0.100747 0.958659
vn -0.187637 -0.242751 0.951769
vn 0.032838 -0.615030 0.787820
vn 0.346984 -0.060698 0.935905
vn 0.071086 -0.562891 0.823469
vn 0.346985 -0.060698 0.935905
vn 0.032838 -0.615030 0.787820
vn 0.071086 -0.562891 0.823469
vn -0.212786 0.047743 0.975932
vn -0.187637 -0.242751 0.951769
vn -0.729961 -0.654913 0.195566
vn -0.700233 -0.682772 0.208556
vn -0.502760 -0.826005 0.254850
vn -0.476631 -0.840548 0.257493
vn -0.108486 -0.420244 0.900903
vn -0.055682 -0.221844 0.973491
vn -0.219884 -0.051865 0.974146
vn -0.238686 -0.037719 0.970364
vn 0.144494 -0.062877 0.987506
vn -0.533919 -0.620026 0.574890
vn -0.055682 -0.221844 0.973491
vn -0.486541 -0.675433 0.554136
vn -0.108486 -0.420244 0.900903
vn -0.000473 -0.225993 0.974129
vn -0.000473 -0.225993 0.974129
vn 0.292929 -0.654373 0.697129
vn 0.536402 -0.421412 0.731221
vn 0.875339 -0.113915 0.469899
vn -0.486541 -0.675433 0.554136
vn 0.292929 -0.654373 0.697129
vn -0.533919 -0.620026 0.574890
vn 0.536402 -0.421412 0.731221
vn -0.502760 -0.826005 0.254850
vn -0.476631 -0.840548 0.257493
vn -0.410690 -0.814120 0.410539
vn -0.454504 -0.779705 0.430681
vn -0.609746 -0.707296 0.357689
vn -0.609746 -0.707296 0.357689
vn 0.193617 -0.815200 0.545859
vn 0.580831 -0.645500 0.495948
vn -0.464243 -0.556993 0.688649
vn -0.259008 -0.611364 0.747763
vn 0.580831 -0.645500 0.495948
vn 0.193617 -0.815200 0.545859
vn -0.259008 -0.611364 0.747763
vn -0.464243 -0.556993 0.688649
vn -0.454504 -0.779705 0.430681
vn -0.410690 -0.814120 0.410539
vn 0.284981 0.538325 0.793090
vn 0.707670 0.385422 0.592159
vn 0.875339 -0.113915 0.469899
vn 0.536402 -0.421412 0.731221
vn 0.707670 0.385422 0.592159
vn 0.284981 0.538325 0.793090
vn -0.055682 -0.221844 0.973491
vn 0.144494 -0.062877 0.987506
vn 0.330265 -0.462941 -0.822564
vn 0.352250 -0.384642 -0.853212
vn 0.344892 -0.441238 -0.828468
vn 0.351291 -0.383631 -0.854062
vn 0.364251 -0.447704 -0.816628
vn 0.012635 -0.427021 -0.904153
vn -0.219056 -0.839086 -0.497946
vn 0.375556 -0.800746 -0.466651
vn 0.193449 -0.980668 0.029456
vn 0.288507 -0.835814 -0.467095
vn 0.935865 -0.209438 -0.283358
vn 0.260160 -0.231777 -0.937335
vn 0.936864 -0.096866 -0.336009
vn 0.344892 -0.441238 -0.828468
vn 0.260160 -0.231777 -0.937335
vn 0.330265 -0.462941 -0.822564
vn 0.936864 -0.096866 -0.336009
vn 0.080686 -0.649405 -0.756150
vn 0.196599 -0.669969 -0.715884
vn 0.091911 -0.654640 -0.750333
vn 0.176893 -0.645695 -0.742824
vn 0.232273 -0.641621 -0.731008
vn -0.413037 -0.907991 0.070379
vn -0.334659 -0.919809 0.204831
vn -0.559823 -0.698976 0.445007
vn -0.654644 -0.651409 0.383547
vn -0.000788 -0.997880 -0.065074
vn -0.559823 -0.698976 0.445007
vn -0.258587 -0.905849 0.335514
vn -0.654644 -0.651409 0.383547
vn 0.474389 -0.295289 -0.829313
vn 0.232273 -0.641621 -0.731008
vn 0.012635 -0.427021 -0.904153
vn 0.176893 -0.645695 -0.742824
vn 0.474389 -0.295289 -0.829313
vn 0.012635 -0.427021 -0.904153
vn 0.539137 -0.548213 -0.639370
vn 0.375556 -0.800746 -0.466651
vn -0.460192 -0.886545 0.047556
vn -0.334659 -0.919809 0.204831
vn -0.415614 -0.907474 0.061285
vn -0.413037 -0.907991 0.070379
vn -0.455408 -0.890042 -0.020720
vn 0.176893 -0.645695 -0.742824
vn 0.196599 -0.669969 -0.715884
vn 0.012635 -0.427021 -0.904153
vn -0.219056 -0.839086 -0.497946
vn -0.772468 0.430210 -0.467134
vn -0.845326 0.281631 -0.453992
vn -0.801131 0.156254 -0.577731
vn -0.832240 0.204375 -0.515371
vn -0.849136 0.268229 -0.454995
vn -0.865140 0.284195 -0.413239
vn -0.896472 0.299567 -0.326494
vn -0.889301 0.283938 -0.358502
s 1
g polySurface2
usemtl None
f 23/2/1 68/3/2 7/1/3
f 7/1/3 68/3/2 69/4/4
s 2
f 70/5/5 33/6/6 69/4/7
f 69/4/7 33/6/6 7/1/8
s 3
f 72/8/9 24/9/10 71/7/11
f 71/7/11 24/9/10 6/10/12
s 4
f 34/11/13 73/12/14 8/14/15
f 8/14/15 73/12/14 74/13/16
s 5
f 24/9/17 72/8/18 5/15/19
f 5/15/19 72/8/18 75/16/20
s 6
f 68/3/21 23/2/22 74/13/23
f 74/13/23 23/2/22 8/14/24
s 7
f 33/6/25 70/5/26 6/10/27
f 6/10/27 70/5/26 71/7/28
s 8
f 73/12/29 34/11/30 75/16/31
f 75/16/31 34/11/30 5/15/32
s 9
f 5/15/33 9/17/34 24/9/35
f 24/9/35 9/17/34 25/18/36
s off
f 31/19/37 4/20/38 41/21/39
s 10
f 50/23/40 13/24/41 51/22/42
f 51/22/42 13/24/41 17/25/43
s 11
f 52/26/44 51/22/45 48/27/46
f 48/27/46 51/22/45 17/25/47
s 12
f 47/30/48 52/31/49 22/29/50
f 22/29/50 52/31/49 4/20/51
f 48/28/52 4/20/51 52/31/49
s off
f 4/20/53 31/19/54 22/29/55
s 13
f 25/18/56 9/17/57 27/32/58
f 27/32/58 9/17/57 50/23/59
f 9/17/57 13/24/60 50/23/59
s 14
f 50/23/61 51/22/62 27/32/63
f 27/32/63 51/22/62 29/33/64
s 15
f 54/35/65 53/36/66 47/34/67
f 47/34/67 53/36/66 29/33/68
s 16
f 29/33/69 51/22/70 47/34/71
f 47/34/71 51/22/70 52/26/72
s 17
f 55/37/73 27/32/74 53/36/75
f 53/36/75 27/32/74 29/33/76
s 18
f 33/6/77 6/10/78 35/38/79
f 35/38/79 6/10/78 10/39/80
s 19
f 24/9/81 25/18/82 6/10/83
f 6/10/83 25/18/82 10/39/84
s off
f 31/19/85 3/40/86 22/29/87
s 20
f 25/18/88 27/32/89 10/39/90
f 27/32/89 55/37/91 10/39/90
f 10/39/90 55/37/91 14/41/92
s 21
f 14/41/93 18/44/94 56/43/95
f 57/42/96 56/43/95 18/44/94
s 22
f 58/45/97 57/42/98 46/46/99
f 46/46/99 57/42/98 18/44/100
s 23
f 55/37/101 53/36/102 14/41/103
f 14/41/103 53/36/102 18/44/104
s 24
f 47/30/105 22/29/106 54/48/107
f 22/29/106 3/40/108 54/48/107
f 3/40/108 46/47/109 54/48/107
s 25
f 54/35/110 46/46/111 53/36/112
f 53/36/112 46/46/111 18/44/113
s off
f 3/40/114 31/19/115 32/49/116
s 26
f 45/50/117 58/51/118 32/49/119
f 32/49/119 58/51/118 3/40/120
f 46/47/121 3/40/120 58/51/118
s 27
f 26/53/122 23/2/123 11/52/124
f 11/52/124 23/2/123 7/1/125
s 28
f 33/6/126 35/38/127 7/1/128
f 7/1/128 35/38/127 11/52/129
s off
f 31/19/130 1/54/131 32/49/132
s 29
f 45/50/133 32/49/134 60/56/135
f 32/49/134 1/54/136 60/56/135
f 1/54/136 44/55/137 60/56/135
s off
f 2/57/138 31/19/139 41/21/140
f 31/19/141 2/57/142 21/58/143
f 1/54/144 31/19/145 21/58/146
s 30
f 1/54/147 21/58/148 44/55/149
f 44/55/149 21/58/148 63/60/150
f 21/58/148 43/59/151 63/60/150
s 31
f 63/62/152 43/63/153 62/61/154
f 62/61/154 43/63/153 30/64/155
s 32
f 61/66/156 62/61/157 28/65/158
f 28/65/158 62/61/157 30/64/159
s 33
f 34/11/160 8/14/161 36/67/162
f 36/67/162 8/14/161 12/68/163
s 34
f 9/17/164 36/67/165 13/24/166
f 13/24/166 36/67/165 38/69/167
s 35
f 36/67/168 9/17/169 34/11/170
f 34/11/170 9/17/169 5/15/171
s 36
f 38/69/172 40/70/173 13/24/174
f 13/24/174 40/70/173 17/25/175
s 37
f 49/71/176 41/21/177 48/28/178
f 48/28/178 41/21/177 4/20/179
s 38
f 49/72/180 48/27/181 40/70/182
f 40/70/182 48/27/181 17/25/183
s 39
f 8/14/184 23/2/185 12/68/186
f 12/68/186 23/2/185 26/53/187
s 40
f 16/73/188 64/74/189 12/68/190
f 12/68/190 64/74/189 36/67/191
f 64/74/189 38/69/192 36/67/191
s 41
f 65/75/193 64/74/194 20/76/195
f 20/76/195 64/74/194 16/73/196
s 42
f 2/57/197 41/21/198 42/78/199
f 42/78/199 41/21/198 66/77/200
f 41/21/198 49/71/201 66/77/200
s 43
f 20/76/202 42/80/203 65/75/204
f 66/79/205 65/75/204 42/80/203
s 44
f 12/68/206 26/53/207 16/73/208
f 16/73/208 26/53/207 28/65/209
s 45
f 21/58/210 2/57/211 43/59/212
f 43/59/212 2/57/211 42/78/213
s 46
f 20/76/214 30/64/215 42/80/216
f 43/63/217 42/80/216 30/64/215
s 47
f 30/64/218 20/76/219 28/65/220
f 28/65/220 20/76/219 16/73/221
s 48
f 40/70/222 65/75/223 49/72/224
f 65/75/223 66/79/225 49/72/224
s 49
f 65/75/226 40/70/227 64/74/228
f 64/74/228 40/70/227 38/69/229
s 50
f 37/81/230 35/38/231 56/43/232
f 35/38/231 10/39/233 56/43/232
f 56/43/232 10/39/233 14/41/234
s 51
f 59/84/235 39/85/236 60/83/237
f 45/82/238 60/83/237 39/85/236
s 52
f 58/45/239 45/82/240 57/42/241
f 39/85/242 57/42/241 45/82/240
s 53
f 56/43/243 57/42/244 37/81/245
f 37/81/245 57/42/244 39/85/246
s 54
f 35/38/247 37/81/248 11/52/249
f 37/81/248 67/86/250 11/52/249
f 11/52/249 67/86/250 15/87/251
s 55
f 61/66/252 15/87/253 62/61/254
f 62/61/254 15/87/253 19/88/255
s 56
f 63/62/256 62/61/257 44/89/258
f 44/89/258 62/61/257 19/88/259
s 57
f 19/88/260 15/87/261 59/84/262
f 59/84/262 15/87/261 67/86/263
s 58
f 19/88/264 59/84/265 44/89/266
f 44/89/266 59/84/265 60/83/267
s 59
f 11/52/268 15/87/269 26/53/270
f 15/87/269 61/66/271 26/53/270
f 26/53/270 61/66/271 28/65/272
s 60
f 67/86/273 37/81/274 59/84/275
f 59/84/275 37/81/274 39/85/276
s 61
f 69/93/277 68/101/278 70/92/279
f 70/107/279 68/102/278 71/91/280
f 71/106/280 68/103/278 72/90/281
f 72/105/281 68/104/278 75/99/282
f 68/94/278 74/98/283 75/97/282
f 74/95/283 73/96/284 75/100/282
