# This file uses centimeters as units for non-parametric coordinates.

mtllib JoltikBLLeg.mtl
g default1
v 1.293892 -1.388699 -0.426365
v 1.665492 -1.292348 -0.058024
v 1.537672 -1.062505 -0.754259
v 1.935397 -0.999583 -0.385625
v 1.246458 0.908591 0.524416
v 0.273237 0.399776 -0.889171
v -0.063058 -0.780261 0.121717
v 0.720225 -0.500572 1.249839
v 1.819170 0.461695 0.232383
v 0.588181 0.136422 -1.096484
v 0.229231 -1.056997 -0.102030
v 1.233625 -0.893480 0.916771
v 1.866943 0.065965 -0.017087
v 0.963846 -0.133628 -1.059080
v 0.625049 -1.104903 -0.216753
v 1.329431 -1.001952 0.487866
v 2.449394 -0.543564 -0.175747
v 1.371458 -0.862686 -1.437970
v 0.757670 -1.614182 -0.508534
v 1.541009 -1.081578 0.263785
v 1.455838 -1.418730 -0.219875
v 1.743679 -1.023122 -0.615545
v 0.479840 -0.776623 0.745203
v 0.995960 0.970062 -0.431941
v 1.293184 0.704473 -0.658921
v 0.778238 -1.038501 0.516576
v 1.396430 0.083075 -0.654240
v 1.078409 -1.036940 0.244761
v 2.013267 -0.560181 -1.123430
v 1.326035 -1.650955 0.113204
v 1.670399 -1.605096 -0.426388
v 1.356387 -1.172848 -0.706989
v -0.021783 -0.148273 -0.572528
v 1.081009 0.432222 1.026806
v 0.295639 -0.411223 -0.777167
v 1.729038 -0.121211 0.742277
v 0.749467 -0.584658 -0.717548
v 1.725372 -0.369206 0.308066
v 1.069800 -1.285282 -1.071790
v 1.783041 -0.479346 0.201431
v 1.853807 -1.099153 -0.197057
v 1.546922 -1.113033 0.171335
v 1.302654 -1.207527 -0.041873
v 1.029269 -1.214972 -0.345887
v 1.061824 -0.806322 -0.692502
v 1.427696 -0.733957 -0.849966
v 1.636795 -0.631784 -0.710854
v 1.973545 -0.670643 -0.365839
v 1.826827 -0.749762 0.029872
v 1.657701 0.156820 -0.372190
v 1.803014 -0.165698 -0.524685
v 1.826717 -0.626100 -0.539330
v 1.381624 -0.229408 -0.911284
v 1.513972 -0.680583 -0.809407
v 1.135157 0.009331 -0.936293
v 0.811676 -0.324535 -0.967947
v 0.885679 -0.522326 -0.908765
v 1.226485 -0.767853 -0.800232
v 0.776677 -1.036307 -0.517983
v 1.045543 -1.010645 -0.519195
v 0.851729 -1.070921 0.014004
v 0.968003 -1.240139 -0.206971
v 1.165962 -1.211250 -0.193880
v 1.628571 -0.669090 0.507171
v 2.240121 -1.121142 0.384752
v 1.686874 -0.931397 0.100606
v 0.696793 -0.804909 -0.505532
v 0.213949 -0.539416 0.858071
v -0.178559 -0.721371 0.219345
v -0.143138 -0.034690 -0.473057
v 0.235082 0.656052 -0.605034
v 0.524731 1.130890 -0.186222
v 0.395851 0.351258 0.921378
v 0.391525 -0.263061 1.223217
v 0.547294 0.951027 0.523172
vt 0.459551 0.093759
vt 0.396287 0.094116
vt 0.384835 0.117371
vt 0.449645 0.099533
vt 0.519902 0.166854
vt 0.529995 0.155718
vt 0.533293 0.234573
vt 0.490797 0.281125
vt 0.515730 0.265358
vt 0.562124 0.209448
vt 0.367714 0.212629
vt 0.378411 0.204691
vt 0.347784 0.144464
vt 0.345083 0.121179
vt 0.418690 0.259331
vt 0.418816 0.263492
vt 0.448322 0.215518
vt 0.538761 0.239320
vt 0.269148 0.040741
vt 0.263804 0.123549
vt 0.239084 0.109932
vt 0.525141 0.154010
vt 0.509667 0.185629
vt 0.473636 0.176722
vt 0.489735 0.116964
vt 0.526627 0.108873
vt 0.509023 0.104506
vt 0.261210 0.168534
vt 0.293944 0.120330
vt 0.306439 0.173848
vt 0.283953 0.174625
vt 0.538286 0.178399
vt 0.585894 0.115335
vt 0.544031 0.108316
vt 0.554031 0.103531
vt 0.564368 0.147764
vt 0.566906 0.171169
vt 0.550759 0.129939
vt 0.583160 0.183629
vt 0.312129 0.114944
vt 0.579365 0.157154
vt 0.564112 0.119047
vt 0.570118 0.138438
vt 0.617810 0.085678
vt 0.553100 0.094975
vt 0.558146 0.098299
vt 0.324675 0.159875
vt 0.319358 0.167174
vt 0.305932 0.099854
vt 0.304033 0.149979
vt 0.318156 0.155239
vt 0.482255 0.066628
vt 0.419486 0.068442
vt 0.269144 0.070335
vt 0.258595 0.094093
vt 0.281314 0.122036
vt 0.220858 0.083511
vt 0.242075 0.066228
vt 0.218741 0.095111
vt 0.238668 0.094602
vt 0.492903 0.048673
vt 0.491574 0.051506
vt 0.476151 0.051871
vt 0.460415 0.008398
vt 0.447066 0.068595
vt 0.470481 0.065263
vt 0.396584 0.158371
vt 0.378879 0.082659
vt 0.440643 0.134058
vt 0.451463 0.123260
vt 0.209335 0.157714
vt 0.468871 0.096749
vt 0.422399 0.072025
vt 0.420440 0.104658
vt 0.432862 0.060340
vt 0.445136 0.064218
vt 0.200063 0.132874
vt 0.190791 0.108034
vt 0.461693 0.078942
vt 0.454517 0.061135
vt 0.544710 0.112936
vt 0.542169 0.091204
vt 0.524584 0.071173
vt 0.524461 0.068657
vt 0.580654 0.044248
vt 0.523197 0.091343
vt 0.493895 0.061932
vt 0.523502 0.012003
vt 0.506998 0.051141
vt 0.127878 0.861600
vt 0.116394 0.881464
vt 0.140033 0.884456
vt 0.125158 0.915836
vt 0.138419 0.943389
vt 0.100281 0.955526
vt 0.095794 0.911507
vt 0.096408 0.885774
vt 0.096408 0.885774
vt 0.116394 0.881464
vt 0.116394 0.881464
vt 0.095794 0.911507
vt 0.095794 0.911507
vt 0.095794 0.911507
vt 0.140033 0.884456
vt 0.140033 0.884456
vt 0.138419 0.943389
vt 0.138419 0.943389
vn -0.424309 -0.810926 0.402941
vn -0.402016 -0.814790 0.417733
vn -0.422630 -0.811239 0.404073
vn -0.402016 -0.814790 0.417733
vn -0.744294 -0.459446 -0.484702
vn -0.744191 -0.459653 -0.484664
vn -0.741310 -0.465403 -0.483590
vn -0.741310 -0.465403 -0.483590
vn -0.136210 0.710573 -0.690313
vn -0.061390 0.662595 -0.746458
vn -0.136210 0.710573 -0.690313
vn -0.047862 0.653190 -0.755680
vn 0.300511 0.097493 0.948783
vn -0.070574 0.335368 0.939440
vn 0.313575 0.087998 0.945477
vn -0.070574 0.335368 0.939440
vn 0.450259 0.892375 -0.030566
vn 0.192289 0.975181 0.109763
vn 0.430221 0.902526 -0.018897
vn 0.192289 0.975181 0.109763
vn -0.431346 -0.653307 0.622198
vn -0.431346 -0.653307 0.622198
vn -0.327446 -0.738263 0.589701
vn -0.302856 -0.755682 0.580709
vn -0.704328 0.017644 -0.709656
vn -0.798081 0.232403 -0.555928
vn -0.704778 0.018444 -0.709188
vn -0.798081 0.232403 -0.555928
vn -0.076236 0.653027 0.753488
vn 0.337532 0.582222 0.739656
vn -0.076236 0.653027 0.753488
vn 0.388287 0.565038 0.727987
vn 0.430221 0.902526 -0.018897
vn 0.726944 0.623902 -0.286879
vn 0.450259 0.892375 -0.030566
vn 0.710964 0.651700 -0.264231
vn 0.897639 -0.404607 0.174748
vn 0.897639 -0.404607 0.174748
vn 0.897639 -0.404607 0.174748
vn 0.762286 0.454868 -0.460451
vn 0.772381 0.447641 -0.450606
vn 0.678989 0.502742 -0.535000
vn 0.670260 0.383375 -0.635433
vn 0.795871 -0.166194 -0.582211
vn 0.678989 0.502742 -0.535000
vn 0.591392 -0.073614 -0.803017
vn 0.670260 0.383375 -0.635433
vn 0.942978 -0.286003 -0.170280
vn 0.795871 -0.166194 -0.582211
vn 0.733627 -0.027154 -0.679009
vn 0.733627 -0.027154 -0.679009
vn 0.591392 -0.073614 -0.803017
vn 0.749777 -0.288030 -0.595713
vn 0.749777 -0.288030 -0.595713
vn 0.749777 -0.288030 -0.595713
vn 0.710964 0.651700 -0.264231
vn 0.726944 0.623902 -0.286879
vn 0.750855 0.461066 -0.472900
vn 0.762286 0.454868 -0.460451
vn 0.772381 0.447641 -0.450606
vn 0.762286 0.454868 -0.460451
vn 0.740302 0.582069 -0.336376
vn 0.750855 0.461066 -0.472900
vn 0.976614 0.186018 -0.107805
vn 0.579632 -0.232513 -0.781002
vn 0.129230 0.410142 -0.902820
vn 0.025565 -0.439589 -0.897835
vn -0.163015 -0.196249 -0.966909
vn 0.976614 0.186018 -0.107805
vn 0.740302 0.582069 -0.336376
vn 0.942978 -0.286003 -0.170280
vn 0.795871 -0.166194 -0.582211
vn 0.420113 0.367695 -0.829642
vn 0.398746 0.366049 -0.840839
vn 0.129230 0.410142 -0.902820
vn -0.163015 -0.196249 -0.966909
vn -0.704328 0.017644 -0.709656
vn -0.704778 0.018444 -0.709188
vn -0.444236 -0.288699 -0.848120
vn -0.445456 -0.287653 -0.847835
vn -0.061390 0.662595 -0.746458
vn 0.166270 0.511681 -0.842934
vn -0.047862 0.653190 -0.755680
vn 0.193315 0.491437 -0.849187
vn 0.570620 -0.317949 -0.757166
vn 0.570620 -0.317949 -0.757166
vn 0.570620 -0.317949 -0.757166
vn 0.166270 0.511681 -0.842934
vn 0.398746 0.366049 -0.840839
vn 0.193315 0.491437 -0.849187
vn 0.420113 0.367695 -0.829642
vn 0.437432 0.360912 -0.823648
vn -0.411407 -0.354361 -0.839746
vn -0.589573 -0.763897 -0.262423
vn -0.432602 -0.347611 -0.831879
vn -0.706099 -0.470196 -0.529471
vn -0.210240 -0.776155 -0.594460
vn -0.706099 -0.470196 -0.529471
vn -0.389612 -0.831239 -0.396540
vn -0.589573 -0.763897 -0.262423
vn 0.420113 0.367695 -0.829642
vn 0.583639 0.452208 -0.674443
vn 0.437432 0.360912 -0.823648
vn 0.755164 0.340476 -0.560181
vn 0.025565 -0.439589 -0.897835
vn 0.571722 -0.063838 -0.817960
vn 0.579632 -0.232513 -0.781002
vn 0.571722 -0.063838 -0.817960
vn 0.893071 0.021264 -0.449413
vn 0.579632 -0.232513 -0.781002
vn 0.893071 0.021264 -0.449413
vn 0.583639 0.452208 -0.674443
vn 0.755164 0.340476 -0.560181
vn 0.080289 -0.501048 -0.861687
vn 0.080289 -0.501048 -0.861687
vn 0.080289 -0.501048 -0.861687
vn 0.374579 -0.143856 -0.915967
vn -0.210240 -0.776155 -0.594460
vn -0.248262 -0.308830 -0.918145
vn -0.248262 -0.308830 -0.918145
vn -0.389612 -0.831239 -0.396540
vn -0.261308 -0.925378 0.274579
vn -0.424309 -0.810926 0.402941
vn -0.299486 -0.905089 0.301865
vn -0.422630 -0.811239 0.404073
vn -0.744294 -0.459446 -0.484702
vn -0.556397 -0.572188 -0.602513
vn -0.744191 -0.459653 -0.484664
vn -0.544976 -0.577482 -0.607878
vn -0.393354 -0.684331 -0.613974
vn -0.393354 -0.684331 -0.613974
vn -0.393354 -0.684331 -0.613974
vn 0.102101 -0.970458 -0.218603
vn -0.603178 -0.517657 -0.606802
vn -0.152345 -0.737786 -0.657619
vn -0.603178 -0.517657 -0.606802
vn -0.168038 -0.463778 -0.869870
vn 0.782929 -0.469055 0.408668
vn 0.782929 -0.469054 0.408668
vn 0.782929 -0.469055 0.408668
vn -0.039687 -0.761969 0.646397
vn -0.039687 -0.761969 0.646397
vn -0.039687 -0.761969 0.646397
vn -0.481704 -0.838140 0.255895
vn -0.481704 -0.838140 0.255895
vn -0.481704 -0.838140 0.255895
vn -0.487749 -0.785368 0.381179
vn -0.487749 -0.785368 0.381179
vn 0.049449 -0.942968 0.329190
vn -0.095745 -0.986656 -0.131692
vn 0.008501 -0.917659 -0.397278
vn -0.095745 -0.986656 -0.131692
vn 0.008501 -0.917659 -0.397278
vn -0.671097 -0.712871 0.203579
vn -0.630490 -0.767578 0.115349
vn -0.252719 -0.926635 0.278352
vn -0.671097 -0.712871 0.203579
vn -0.348822 -0.902001 0.254396
vn -0.630490 -0.767578 0.115349
vn 0.300511 0.097493 0.948783
vn 0.313575 0.087998 0.945477
vn 0.587573 -0.137781 0.797355
vn 0.601897 -0.151443 0.784083
vn 0.795172 0.306117 0.523444
vn 0.818212 0.279851 0.502207
vn 0.909079 0.021583 0.416064
vn 0.878206 0.050834 0.475574
vn 0.818212 0.279851 0.502207
vn 0.795172 0.306117 0.523444
vn 0.337532 0.582222 0.739656
vn 0.388287 0.565038 0.727987
vn 0.878206 0.050834 0.475574
vn 0.612358 -0.052230 0.788854
vn 0.909079 0.021583 0.416064
vn 0.596788 -0.337938 0.727765
vn 0.595948 -0.684018 0.420672
vn 0.936237 -0.133611 0.324975
vn 0.650163 -0.633922 0.418845
vn 0.936237 -0.133611 0.324975
vn 0.595948 -0.684018 0.420672
vn 0.650163 -0.633922 0.418845
vn 0.612358 -0.052230 0.788854
vn 0.596788 -0.337938 0.727765
vn -0.327446 -0.738263 0.589701
vn -0.302856 -0.755682 0.580709
vn -0.165435 -0.865938 0.471998
vn -0.147296 -0.879590 0.452356
vn 0.600605 -0.506543 0.618617
vn 0.699094 -0.313802 0.642492
vn 0.601897 -0.151443 0.784083
vn 0.587573 -0.137781 0.797355
vn 0.845599 -0.148830 0.512653
vn 0.068844 -0.692160 0.718453
vn 0.699094 -0.313802 0.642492
vn 0.080863 -0.743418 0.663921
vn 0.600605 -0.506543 0.618617
vn 0.734845 -0.315742 0.600258
vn 0.734845 -0.315742 0.600258
vn 0.691772 -0.704117 0.160224
vn 0.884813 -0.465644 0.016813
vn 0.916483 -0.121584 -0.381151
vn 0.080863 -0.743418 0.663921
vn 0.691772 -0.704117 0.160224
vn 0.068844 -0.692160 0.718453
vn 0.884813 -0.465644 0.016813
vn -0.165435 -0.865938 0.471998
vn -0.147296 -0.879590 0.452356
vn 0.013368 -0.864901 0.501765
vn 0.002214 -0.834325 0.551268
vn -0.150032 -0.761792 0.630209
vn -0.150032 -0.761792 0.630209
vn 0.504916 -0.854032 0.125255
vn 0.723095 -0.664812 -0.187506
vn 0.203512 -0.637240 0.743309
vn 0.378060 -0.688500 0.618901
vn 0.723095 -0.664812 -0.187506
vn 0.504916 -0.854032 0.125255
vn 0.378060 -0.688500 0.618901
vn 0.203512 -0.637240 0.743309
vn 0.002214 -0.834325 0.551268
vn 0.013368 -0.864901 0.501765
vn 0.814415 0.473105 0.336007
vn 0.925115 0.356932 -0.129471
vn 0.916483 -0.121584 -0.381151
vn 0.884813 -0.465644 0.016813
vn 0.925115 0.356932 -0.129471
vn 0.814415 0.473105 0.336007
vn 0.699094 -0.313802 0.642492
vn 0.845599 -0.148830 0.512653
vn -0.438465 -0.370345 -0.818897
vn -0.444236 -0.288699 -0.848120
vn -0.432602 -0.347611 -0.831879
vn -0.445456 -0.287653 -0.847835
vn -0.411407 -0.354361 -0.839746
vn -0.703227 -0.339915 -0.624444
vn -0.559924 -0.797165 -0.225860
vn -0.152345 -0.737786 -0.657619
vn 0.102101 -0.970458 -0.218603
vn -0.210240 -0.776155 -0.594460
vn 0.374579 -0.143856 -0.915967
vn -0.560780 -0.132522 -0.817290
vn 0.340060 -0.026914 -0.940019
vn -0.432602 -0.347611 -0.831879
vn -0.560780 -0.132522 -0.817290
vn -0.438465 -0.370345 -0.818897
vn 0.340060 -0.026914 -0.940019
vn -0.556397 -0.572188 -0.602513
vn -0.452090 -0.591691 -0.667470
vn -0.544976 -0.577482 -0.607878
vn -0.484252 -0.565830 -0.667335
vn -0.439463 -0.560628 -0.701833
vn -0.252719 -0.926635 0.278352
vn -0.100040 -0.947752 0.302915
vn -0.050777 -0.759636 0.648364
vn -0.156530 -0.710435 0.686135
vn -0.095745 -0.986656 -0.131692
vn -0.050777 -0.759636 0.648364
vn 0.049449 -0.942968 0.329190
vn -0.156530 -0.710435 0.686135
vn -0.343448 -0.197075 -0.918262
vn -0.439463 -0.560628 -0.701833
vn -0.703227 -0.339915 -0.624444
vn -0.484252 -0.565830 -0.667335
vn -0.343448 -0.197075 -0.918262
vn -0.703227 -0.339915 -0.624444
vn -0.168038 -0.463778 -0.869870
vn -0.152345 -0.737786 -0.657619
vn -0.299486 -0.905089 0.301865
vn -0.100040 -0.947752 0.302915
vn -0.261308 -0.925378 0.274579
vn -0.252719 -0.926635 0.278352
vn -0.348822 -0.902001 0.254396
vn -0.484252 -0.565830 -0.667335
vn -0.452090 -0.591691 -0.667470
vn -0.703227 -0.339915 -0.624444
vn -0.559924 -0.797165 -0.225860
vn -0.930453 0.166839 0.326224
vn -0.924764 0.279875 0.257840
vn -0.918724 0.216716 0.330121
vn -0.819498 0.427319 0.381865
vn -0.880933 0.399755 0.253284
vn -0.868198 0.462925 0.178695
vn -0.920688 0.355118 0.161938
vn -0.894640 0.425480 0.136333
s 1
g polySurface4
usemtl None
f 23/2/1 68/3/2 7/1/3
f 7/1/3 68/3/2 69/4/4
s 2
f 33/6/5 7/1/6 70/5/7
f 70/5/7 7/1/6 69/4/8
s 3
f 72/8/9 24/9/10 71/7/11
f 71/7/11 24/9/10 6/10/12
s 4
f 34/11/13 73/12/14 8/14/15
f 8/14/15 73/12/14 74/13/16
s 5
f 24/9/17 72/8/18 5/15/19
f 5/15/19 72/8/18 75/16/20
s 6
f 74/13/21 68/3/22 8/14/23
f 8/14/23 68/3/22 23/2/24
s 7
f 33/6/25 70/5/26 6/10/27
f 6/10/27 70/5/26 71/7/28
s 8
f 73/12/29 34/11/30 75/16/31
f 75/16/31 34/11/30 5/15/32
s 9
f 5/15/33 9/17/34 24/9/35
f 24/9/35 9/17/34 25/18/36
s off
f 31/19/37 4/20/38 41/21/39
s 10
f 50/23/40 13/24/41 51/22/42
f 51/22/42 13/24/41 17/25/43
s 11
f 52/26/44 51/22/45 48/27/46
f 48/27/46 51/22/45 17/25/47
s 12
f 47/30/48 52/31/49 22/29/50
f 22/29/50 52/31/49 4/20/51
f 48/28/52 4/20/51 52/31/49
s off
f 4/20/53 31/19/54 22/29/55
s 13
f 25/18/56 9/17/57 27/32/58
f 27/32/58 9/17/57 50/23/59
f 9/17/57 13/24/60 50/23/59
s 14
f 50/23/61 51/22/62 27/32/63
f 27/32/63 51/22/62 29/33/64
s 15
f 54/35/65 53/36/66 47/34/67
f 47/34/67 53/36/66 29/33/68
s 16
f 29/33/69 51/22/70 47/34/71
f 47/34/71 51/22/70 52/26/72
s 17
f 55/37/73 27/32/74 53/36/75
f 53/36/75 27/32/74 29/33/76
s 18
f 33/6/77 6/10/78 35/38/79
f 35/38/79 6/10/78 10/39/80
s 19
f 24/9/81 25/18/82 6/10/83
f 6/10/83 25/18/82 10/39/84
s off
f 31/19/85 3/40/86 22/29/87
s 20
f 25/18/88 27/32/89 10/39/90
f 27/32/89 55/37/91 10/39/90
f 10/39/90 55/37/91 14/41/92
s 21
f 14/41/93 18/44/94 56/43/95
f 57/42/96 56/43/95 18/44/94
s 22
f 58/45/97 57/42/98 46/46/99
f 46/46/99 57/42/98 18/44/100
s 23
f 55/37/101 53/36/102 14/41/103
f 14/41/103 53/36/102 18/44/104
s 24
f 47/30/105 22/29/106 54/48/107
f 22/29/106 3/40/108 54/48/107
f 3/40/108 46/47/109 54/48/107
s 25
f 54/35/110 46/46/111 53/36/112
f 53/36/112 46/46/111 18/44/113
s off
f 3/40/114 31/19/115 32/49/116
s 26
f 45/50/117 58/51/118 32/49/119
f 32/49/119 58/51/118 3/40/120
f 46/47/121 3/40/120 58/51/118
s 27
f 26/53/122 23/2/123 11/52/124
f 11/52/124 23/2/123 7/1/125
s 28
f 33/6/126 35/38/127 7/1/128
f 7/1/128 35/38/127 11/52/129
s off
f 31/19/130 1/54/131 32/49/132
s 29
f 45/50/133 32/49/134 60/56/135
f 32/49/134 1/54/136 60/56/135
f 1/54/136 44/55/137 60/56/135
s off
f 2/57/138 31/19/139 41/21/140
f 31/19/141 2/57/142 21/58/143
f 1/54/144 31/19/145 21/58/146
s 30
f 1/54/147 21/58/148 44/55/149
f 44/55/149 21/58/148 63/60/150
f 21/58/148 43/59/151 63/60/150
s 31
f 63/62/152 43/63/153 62/61/154
f 62/61/154 43/63/153 30/64/155
s 32
f 61/66/156 62/61/157 28/65/158
f 28/65/158 62/61/157 30/64/159
s 33
f 34/11/160 8/14/161 36/67/162
f 36/67/162 8/14/161 12/68/163
s 34
f 9/17/164 36/67/165 13/24/166
f 13/24/166 36/67/165 38/69/167
s 35
f 36/67/168 9/17/169 34/11/170
f 34/11/170 9/17/169 5/15/171
s 36
f 38/69/172 40/70/173 13/24/174
f 13/24/174 40/70/173 17/25/175
s 37
f 49/71/176 41/21/177 48/28/178
f 48/28/178 41/21/177 4/20/179
s 38
f 49/72/180 48/27/181 40/70/182
f 40/70/182 48/27/181 17/25/183
s 39
f 8/14/184 23/2/185 12/68/186
f 12/68/186 23/2/185 26/53/187
s 40
f 16/73/188 64/74/189 12/68/190
f 12/68/190 64/74/189 36/67/191
f 64/74/189 38/69/192 36/67/191
s 41
f 65/75/193 64/74/194 20/76/195
f 20/76/195 64/74/194 16/73/196
s 42
f 2/57/197 41/21/198 42/78/199
f 42/78/199 41/21/198 66/77/200
f 41/21/198 49/71/201 66/77/200
s 43
f 20/76/202 42/80/203 65/75/204
f 66/79/205 65/75/204 42/80/203
s 44
f 12/68/206 26/53/207 16/73/208
f 16/73/208 26/53/207 28/65/209
s 45
f 21/58/210 2/57/211 43/59/212
f 43/59/212 2/57/211 42/78/213
s 46
f 20/76/214 30/64/215 42/80/216
f 43/63/217 42/80/216 30/64/215
s 47
f 30/64/218 20/76/219 28/65/220
f 28/65/220 20/76/219 16/73/221
s 48
f 40/70/222 65/75/223 49/72/224
f 65/75/223 66/79/225 49/72/224
s 49
f 65/75/226 40/70/227 64/74/228
f 64/74/228 40/70/227 38/69/229
s 50
f 37/81/230 35/38/231 56/43/232
f 35/38/231 10/39/233 56/43/232
f 56/43/232 10/39/233 14/41/234
s 51
f 59/84/235 39/85/236 60/83/237
f 45/82/238 60/83/237 39/85/236
s 52
f 58/45/239 45/82/240 57/42/241
f 39/85/242 57/42/241 45/82/240
s 53
f 56/43/243 57/42/244 37/81/245
f 37/81/245 57/42/244 39/85/246
s 54
f 35/38/247 37/81/248 11/52/249
f 37/81/248 67/86/250 11/52/249
f 11/52/249 67/86/250 15/87/251
s 55
f 61/66/252 15/87/253 62/61/254
f 62/61/254 15/87/253 19/88/255
s 56
f 63/62/256 62/61/257 44/89/258
f 44/89/258 62/61/257 19/88/259
s 57
f 19/88/260 15/87/261 59/84/262
f 59/84/262 15/87/261 67/86/263
s 58
f 19/88/264 59/84/265 44/89/266
f 44/89/266 59/84/265 60/83/267
s 59
f 11/52/268 15/87/269 26/53/270
f 15/87/269 61/66/271 26/53/270
f 26/53/270 61/66/271 28/65/272
s 60
f 67/86/273 37/81/274 59/84/275
f 59/84/275 37/81/274 39/85/276
s 61
f 74/95/277 73/101/278 68/106/279
f 69/93/280 68/107/279 70/104/281
f 68/94/279 73/102/278 70/92/281
f 70/105/281 73/103/278 71/99/282
f 73/96/278 75/98/283 71/91/282
f 72/90/284 71/100/282 75/97/283
