# This file uses centimeters as units for non-parametric coordinates.

mtllib GolurkRFlame.mtl
g default
v -2.046109 -2.556841 -4.345059
v -0.682025 -2.815291 -4.603510
v 0.000016 -3.809313 -3.867942
v -0.682025 -4.544882 -2.873921
v -2.046109 -4.286431 -2.615471
v -2.728151 -3.292411 -3.351039
v -2.935197 -2.012844 -4.951152
v 0.416403 -2.851430 -6.056631
v 1.053196 -4.156423 -4.054825
v 0.084832 -4.566452 -1.629346
v -2.277830 -4.118802 -1.181695
v -3.523985 -3.654817 -3.023308
v -2.095078 0.107832 -3.409974
v 0.633089 -0.409070 -3.926877
v 1.997174 -2.397108 -2.455738
v 0.633090 -3.868248 -0.467699
v -2.095077 -3.351346 0.049203
v -3.459161 -1.363304 -1.421933
v -1.546820 0.806038 -2.248326
v 0.815842 0.358389 -2.695976
v 1.997174 -1.363305 -1.421935
v 0.815843 -2.637347 0.299760
v -1.546819 -2.189697 0.747410
v -2.728152 -0.468004 -0.526633
v -0.779962 0.784468 -1.003750
v 0.584122 0.526016 -1.262201
v 1.266164 -0.468002 -0.526632
v 0.584122 -1.203571 0.467388
v -0.779962 -0.945122 0.725839
v -1.462004 0.048899 -0.009729
v -2.772501 -3.793444 -5.769114
v 0.000016 0.048899 -0.009730
v -0.147874 -3.808733 -3.889352
v -0.745828 -4.453616 -3.017881
v -2.327064 -3.362083 -5.032535
v -1.164675 -4.598720 -4.976115
v -1.173810 -4.646957 -4.924415
v -1.218742 -4.606478 -5.088658
v 0.675498 -2.431563 -3.988061
v 0.675498 -3.929432 -2.490193
v 0.633090 -3.550862 -3.609491
v 1.631669 -2.844760 -2.903389
v -1.096499 -1.346891 -4.401257
v -2.868496 -1.760088 -3.316585
v -2.161969 -1.839954 -4.261246
v -2.186455 -0.507617 -3.793702
v -2.868496 -3.257956 -1.818717
v -3.163829 -2.078599 -2.886162
v -3.093656 -2.844760 -2.903389
v -3.459162 -1.880207 -1.938836
v 0.380164 -2.001140 -4.306572
v -0.298597 -2.193005 -4.614296
v 0.358960 -0.989893 -4.275978
v -0.505833 -1.458804 -4.513169
vt 0.842752 0.578444
vt 0.838434 0.583986
vt 0.860242 0.573638
vt 0.862747 0.534220
vt 0.850625 0.524040
vt 0.849773 0.528321
vt 0.835643 0.518744
vt 0.820649 0.539030
vt 0.814166 0.520962
vt 0.814696 0.552968
vt 0.793060 0.556381
vt 0.800474 0.575598
vt 0.809708 0.571044
vt 0.814805 0.577254
vt 0.830565 0.591455
vt 0.852528 0.597298
vt 0.855328 0.512471
vt 0.803484 0.506268
vt 0.773519 0.553583
vt 0.803350 0.598828
vt 0.856512 0.607025
vt 0.863994 0.620061
vt 0.883682 0.552408
vt 0.895174 0.549933
vt 0.858491 0.503164
vt 0.862732 0.489013
vt 0.793301 0.490194
vt 0.754334 0.553152
vt 0.796938 0.607372
vt 0.787601 0.621739
vt 0.254281 0.372848
vt 0.237966 0.370452
vt 0.234561 0.396364
vt 0.228580 0.381617
vt 0.203491 0.391735
vt 0.213792 0.379387
vt 0.192087 0.363626
vt 0.208391 0.366019
vt 0.211763 0.340098
vt 0.217765 0.354838
vt 0.242874 0.344696
vt 0.232554 0.357051
vt 0.847573 0.553065
vt 0.836557 0.567285
vt 0.837535 0.566789
vt 0.845159 0.538740
vt 0.838298 0.546546
vt 0.838639 0.549738
vt 0.839513 0.547341
vt 0.821674 0.565516
vt 0.223173 0.368234
vt 0.822777 0.540942
vt 0.843591 0.540742
vt 0.836440 0.559902
vt 0.851031 0.548508
vt 0.875782 0.553904
vt 0.866118 0.545475
vt 0.860090 0.554196
vt 0.865940 0.563164
vt 0.818744 0.590333
vn 0.387806 -0.897568 -0.209710
vn 0.387806 -0.897568 -0.209710
vn 0.387806 -0.897568 -0.209710
vn -0.816094 -0.157176 -0.556135
vn -0.816094 -0.157176 -0.556135
vn -0.816094 -0.157176 -0.556135
vn -0.857883 -0.495747 -0.135169
vn -0.857883 -0.495747 -0.135169
vn -0.857883 -0.495747 -0.135169
vn -0.169436 -0.981659 0.087388
vn -0.169436 -0.981659 0.087388
vn -0.169436 -0.981659 0.087388
vn -0.169436 -0.981659 0.087388
vn 0.852782 -0.404034 -0.330938
vn 0.852782 -0.404034 -0.330938
vn 0.852782 -0.404034 -0.330938
vn 0.087528 -0.984995 0.148739
vn 0.087528 -0.984995 0.148739
vn 0.087528 -0.984995 0.148739
vn 0.019999 0.603181 -0.797353
vn 0.019999 0.603181 -0.797353
vn 0.019999 0.603181 -0.797353
vn 0.771329 0.192381 -0.606663
vn 0.771329 0.192381 -0.606663
vn 0.771329 0.192381 -0.606663
vn 0.770990 -0.576871 0.269805
vn 0.770990 -0.576871 0.269805
vn 0.770990 -0.576871 0.269805
vn -0.058505 -0.843197 0.534412
vn -0.058505 -0.843197 0.534412
vn -0.058505 -0.843197 0.534412
vn -0.058505 -0.843197 0.534412
vn -0.795236 -0.294738 0.529839
vn -0.795236 -0.294738 0.529839
vn -0.795236 -0.294738 0.529839
vn -0.883379 0.467258 -0.036206
vn -0.883379 0.467258 -0.036206
vn -0.883379 0.467258 -0.036206
vn 0.058504 0.843197 -0.534413
vn 0.058504 0.843197 -0.534413
vn 0.058504 0.843197 -0.534413
vn 0.058504 0.843197 -0.534413
vn 0.873369 0.344402 -0.344403
vn 0.873369 0.344402 -0.344403
vn 0.873369 0.344402 -0.344403
vn 0.873369 0.344402 -0.344403
vn 0.873370 -0.344402 0.344402
vn 0.873370 -0.344402 0.344402
vn 0.873370 -0.344402 0.344402
vn 0.873370 -0.344402 0.344402
vn 0.058505 -0.534414 0.843196
vn 0.058505 -0.534414 0.843196
vn 0.058505 -0.534414 0.843196
vn 0.058505 -0.534414 0.843196
vn -0.756360 -0.035620 0.653185
vn -0.756360 -0.035620 0.653185
vn -0.756360 -0.035620 0.653185
vn -0.756360 -0.035620 0.653185
vn -0.756360 0.653185 -0.035620
vn -0.756360 0.653185 -0.035620
vn -0.756360 0.653185 -0.035620
vn -0.756360 0.653185 -0.035620
vn 0.169437 0.981659 -0.087386
vn 0.169437 0.981659 -0.087386
vn 0.169437 0.981659 -0.087386
vn 0.169437 0.981659 -0.087386
vn 0.801784 0.594588 0.060064
vn 0.801784 0.594588 0.060064
vn 0.801784 0.594588 0.060064
vn 0.801784 0.594588 0.060064
vn 0.801784 0.060066 0.594588
vn 0.801784 0.060066 0.594588
vn 0.801784 0.060066 0.594588
vn 0.801784 0.060066 0.594588
vn 0.169436 -0.087386 0.981659
vn 0.169436 -0.087386 0.981659
vn 0.169436 -0.087386 0.981659
vn 0.169436 -0.087386 0.981659
vn -0.462910 0.299685 0.834208
vn -0.462910 0.299685 0.834208
vn -0.462910 0.299685 0.834208
vn -0.462910 0.299685 0.834208
vn -0.462910 0.834208 0.299685
vn -0.462910 0.834208 0.299685
vn -0.462910 0.834208 0.299685
vn -0.462910 0.834208 0.299685
vn 0.017070 0.750616 -0.660518
vn 0.017070 0.750616 -0.660518
vn 0.017070 0.750616 -0.660518
vn 0.551090 -0.217925 -0.805486
vn 0.551090 -0.217925 -0.805486
vn 0.551090 -0.217925 -0.805486
vn 0.785787 -0.515348 -0.341987
vn 0.785787 -0.515348 -0.341987
vn 0.785787 -0.515348 -0.341987
vn -0.204310 -0.973250 -0.105082
vn -0.204310 -0.973250 -0.105082
vn -0.204310 -0.973250 -0.105082
vn -0.857669 -0.500156 0.119364
vn -0.857669 -0.500156 0.119364
vn -0.857669 -0.500156 0.119364
vn -0.797679 0.593279 -0.108300
vn -0.797679 0.593279 -0.108300
vn -0.797679 0.593279 -0.108300
vn 0.247255 0.861500 0.443489
vn 0.247255 0.861500 0.443489
vn 0.247255 0.861500 0.443489
vn 0.494508 0.710151 0.501146
vn 0.494508 0.710151 0.501146
vn 0.494508 0.710151 0.501146
vn 0.494509 0.501146 0.710150
vn 0.494509 0.501146 0.710150
vn 0.494509 0.501146 0.710150
vn 0.247254 0.443491 0.861499
vn 0.247254 0.443491 0.861499
vn 0.247254 0.443491 0.861499
vn 0.000001 0.594839 0.803845
vn 0.000001 0.594839 0.803845
vn 0.000001 0.594839 0.803845
vn 0.000000 0.803844 0.594840
vn 0.000000 0.803844 0.594840
vn 0.000000 0.803844 0.594840
vn 0.077559 -0.826129 -0.558117
vn 0.077559 -0.826129 -0.558117
vn 0.077559 -0.826129 -0.558117
vn 0.077559 -0.826129 -0.558117
vn -0.427268 -0.684214 0.591011
vn -0.427268 -0.684214 0.591011
vn -0.427268 -0.684214 0.591011
vn -0.427268 -0.684214 0.591011
vn 0.810932 0.066982 -0.581294
vn 0.810932 0.066982 -0.581294
vn 0.810932 0.066982 -0.581294
vn 0.810932 0.066982 -0.581294
vn 0.684456 -0.723122 -0.092816
vn 0.684456 -0.723122 -0.092816
vn 0.684456 -0.723122 -0.092816
vn 0.684456 -0.723122 -0.092816
vn 0.504263 0.440089 -0.742995
vn 0.504263 0.440089 -0.742995
vn 0.504263 0.440089 -0.742995
vn 0.504263 0.440089 -0.742995
vn -0.735666 -0.642179 0.215413
vn -0.735666 -0.642179 0.215413
vn -0.735666 -0.642179 0.215413
vn -0.735666 -0.642179 0.215413
vn 0.462910 -0.834208 -0.299685
vn 0.462910 -0.834208 -0.299685
vn 0.462910 -0.834208 -0.299685
vn 0.462910 -0.834208 -0.299685
vn 0.462910 -0.834208 -0.299685
vn 0.756360 -0.653185 0.035620
vn 0.756360 -0.653185 0.035620
vn 0.756360 -0.653185 0.035620
vn 0.756360 -0.653185 0.035620
vn 0.756360 -0.653185 0.035620
vn 0.999730 0.020643 0.010673
vn 0.999730 0.020643 0.010673
vn 0.999730 0.020643 0.010673
vn 0.055488 -0.897618 0.437267
vn 0.055488 -0.897618 0.437267
vn 0.055488 -0.897618 0.437267
vn -0.910824 -0.207975 -0.356576
vn -0.910824 -0.207975 -0.356576
vn -0.910824 -0.207975 -0.356576
vn -0.171751 0.678188 -0.714537
vn -0.171751 0.678188 -0.714537
vn -0.171751 0.678188 -0.714537
vn -0.912130 0.237485 -0.334096
vn -0.912130 0.237485 -0.334096
vn -0.912130 0.237485 -0.334096
vn 0.197452 0.040109 -0.979492
vn 0.197452 0.040109 -0.979492
vn 0.197452 0.040109 -0.979492
vn -0.801784 -0.060066 -0.594588
vn -0.801784 -0.060066 -0.594588
vn -0.801784 -0.060066 -0.594588
vn -0.801784 -0.060066 -0.594588
vn -0.801784 -0.060066 -0.594588
vn -0.801784 -0.060066 -0.594588
vn -0.873370 0.344402 -0.344402
vn -0.873370 0.344402 -0.344402
vn -0.873370 0.344402 -0.344402
vn -0.873370 0.344402 -0.344402
vn -0.873370 0.344402 -0.344402
vn -0.873370 0.344402 -0.344402
vn -0.873369 -0.344402 0.344403
vn -0.873369 -0.344402 0.344403
vn -0.873369 -0.344402 0.344403
vn -0.873369 -0.344402 0.344403
vn -0.873369 -0.344402 0.344403
vn -0.801783 -0.594589 -0.060065
vn -0.801783 -0.594589 -0.060065
vn -0.801783 -0.594589 -0.060065
vn -0.801783 -0.594589 -0.060065
vn -0.801783 -0.594589 -0.060065
vn -0.169437 0.087385 -0.981659
vn -0.169437 0.087385 -0.981659
vn -0.169437 0.087385 -0.981659
vn -0.169437 0.087385 -0.981659
vn -0.169437 0.087385 -0.981659
vn -0.169437 0.087385 -0.981659
vn 0.462909 -0.299685 -0.834208
vn 0.462909 -0.299685 -0.834208
vn 0.462909 -0.299685 -0.834208
vn 0.462909 -0.299685 -0.834208
vn 0.462909 -0.299685 -0.834208
vn 0.462909 -0.299685 -0.834208
vn 0.756360 0.035620 -0.653185
vn 0.756360 0.035620 -0.653185
vn 0.756360 0.035620 -0.653185
vn 0.756360 0.035620 -0.653185
vn 0.756360 0.035620 -0.653185
vn 0.756360 0.035620 -0.653185
vn -0.058505 0.534413 -0.843196
vn -0.058505 0.534413 -0.843196
vn -0.058505 0.534413 -0.843196
vn -0.058505 0.534413 -0.843196
vn -0.058505 0.534413 -0.843196
vn -0.058505 0.534413 -0.843196
s off
g RFlame
usemtl None
f 45/1/1 7/2/2 43/3/3
f 39/4/4 9/5/5 41/6/6
f 41/6/7 9/5/8 40/7/9
s 1
f 4/8/10 10/9/11 5/10/12
f 5/10/12 10/9/11 11/11/13
s off
f 47/12/14 12/13/15 49/14/16
f 44/15/17 7/2/18 45/1/19
f 7/2/20 46/16/21 43/3/22
f 42/17/23 9/5/24 39/4/25
f 9/5/26 42/17/27 40/7/28
s 2
f 10/9/29 16/18/30 11/11/31
f 11/11/31 16/18/30 17/19/32
s off
f 50/20/33 12/13/34 47/12/35
f 46/16/36 7/2/37 44/15/38
s 3
f 13/21/39 19/22/40 14/23/41
f 14/23/41 19/22/40 20/24/42
s 4
f 14/23/43 20/24/44 15/25/45
f 15/25/45 20/24/44 21/26/46
s 5
f 15/25/47 21/26/48 16/18/49
f 16/18/49 21/26/48 22/27/50
s 6
f 16/18/51 22/27/52 17/19/53
f 17/19/53 22/27/52 23/28/54
s 7
f 17/19/55 23/28/56 18/29/57
f 18/29/57 23/28/56 24/30/58
s 8
f 18/29/59 24/30/60 13/21/61
f 13/21/61 24/30/60 19/22/62
s 9
f 19/31/63 25/32/64 20/33/65
f 20/33/65 25/32/64 26/34/66
s 10
f 20/33/67 26/34/68 21/35/69
f 21/35/69 26/34/68 27/36/70
s 11
f 21/35/71 27/36/72 22/37/73
f 22/37/73 27/36/72 28/38/74
s 12
f 22/37/75 28/38/76 23/39/77
f 23/39/77 28/38/76 29/40/78
s 13
f 23/39/79 29/40/80 24/41/81
f 24/41/81 29/40/80 30/42/82
s 14
f 24/41/83 30/42/84 19/31/85
f 19/31/85 30/42/84 25/32/86
s off
f 2/43/87 31/44/88 1/45/89
f 3/46/90 31/44/91 2/43/92
f 37/47/93 38/48/94 36/49/95
f 5/10/96 31/44/97 4/8/98
f 6/50/99 31/44/100 5/10/101
f 1/45/102 31/44/103 6/50/104
f 25/32/105 32/51/106 26/34/107
f 26/34/108 32/51/109 27/36/110
f 27/36/111 32/51/112 28/38/113
f 28/38/114 32/51/115 29/40/116
f 29/40/117 32/51/118 30/42/119
f 30/42/120 32/51/121 25/32/122
s 15
f 4/8/123 34/52/124 3/46/125
f 3/46/125 34/52/124 33/53/126
s 16
f 3/46/127 33/53/128 31/44/129
f 33/53/128 35/54/130 31/44/129
s 17
f 4/8/131 31/44/132 34/52/133
f 31/44/132 35/54/134 34/52/133
s 18
f 36/49/135 33/53/136 37/47/137
f 34/52/138 37/47/137 33/53/136
s 19
f 38/48/139 35/54/140 36/49/141
f 33/53/142 36/49/141 35/54/140
s 20
f 38/48/143 37/47/144 35/54/145
f 35/54/145 37/47/144 34/52/146
s 21
f 10/9/147 4/8/148 40/7/149
f 4/8/148 3/46/150 40/7/149
f 3/46/150 41/6/151 40/7/149
s 22
f 15/25/152 16/18/153 42/17/154
f 42/17/154 16/18/153 40/7/155
f 16/18/153 10/9/156 40/7/155
s off
f 8/55/157 53/56/158 51/57/159
f 52/58/160 8/55/161 51/57/162
f 54/59/163 8/55/164 52/58/165
f 53/56/166 8/55/167 54/59/168
f 12/13/169 50/20/170 48/60/171
f 49/14/172 12/13/173 48/60/174
s 23
f 45/1/175 1/45/176 44/15/177
f 1/45/176 6/50/178 44/15/177
f 6/50/178 49/14/179 44/15/177
f 49/14/179 48/60/180 44/15/177
s 24
f 18/29/181 13/21/182 50/20/183
f 50/20/183 13/21/182 48/60/184
f 48/60/184 13/21/182 44/15/185
f 13/21/182 46/16/186 44/15/185
s 25
f 17/19/187 18/29/188 11/11/189
f 11/11/189 18/29/188 47/12/190
f 18/29/188 50/20/191 47/12/190
s 26
f 11/11/192 47/12/193 5/10/194
f 5/10/194 47/12/193 6/50/195
f 47/12/193 49/14/196 6/50/195
s 27
f 45/1/197 43/3/198 1/45/199
f 1/45/199 43/3/198 2/43/200
f 2/43/200 43/3/198 52/58/201
f 43/3/198 54/59/202 52/58/201
s 28
f 41/6/203 3/46/204 39/4/205
f 3/46/204 2/43/206 39/4/205
f 2/43/206 52/58/207 39/4/205
f 52/58/207 51/57/208 39/4/205
s 29
f 14/23/209 15/25/210 53/56/211
f 53/56/211 15/25/210 51/57/212
f 51/57/212 15/25/210 39/4/213
f 15/25/210 42/17/214 39/4/213
s 30
f 13/21/215 14/23/216 46/16/217
f 46/16/217 14/23/216 43/3/218
f 14/23/216 53/56/219 43/3/218
f 53/56/219 54/59/220 43/3/218
