# This file uses centimeters as units for non-parametric coordinates.

mtllib GolurkLFlame.mtl
g default
v 2.046109 -2.556841 -4.345059
v 0.682025 -2.815291 -4.603510
v -0.000016 -3.809313 -3.867942
v 0.682025 -4.544882 -2.873921
v 2.046109 -4.286431 -2.615471
v 2.728151 -3.292411 -3.351039
v 2.935197 -2.012844 -4.951152
v -0.416403 -2.851430 -6.056631
v -1.053196 -4.156423 -4.054825
v -0.084832 -4.566452 -1.629346
v 2.277830 -4.118802 -1.181695
v 3.523985 -3.654817 -3.023308
v 2.095078 0.107832 -3.409974
v -0.633089 -0.409070 -3.926877
v -1.997174 -2.397108 -2.455738
v -0.633090 -3.868248 -0.467699
v 2.095077 -3.351346 0.049203
v 3.459161 -1.363304 -1.421933
v 1.546820 0.806038 -2.248326
v -0.815842 0.358389 -2.695976
v -1.997174 -1.363305 -1.421935
v -0.815843 -2.637347 0.299760
v 1.546819 -2.189697 0.747410
v 2.728152 -0.468004 -0.526633
v 0.779962 0.784468 -1.003750
v -0.584122 0.526016 -1.262201
v -1.266164 -0.468002 -0.526632
v -0.584122 -1.203571 0.467388
v 0.779962 -0.945122 0.725839
v 1.462004 0.048899 -0.009729
v 2.772501 -3.793444 -5.769114
v -0.000016 0.048899 -0.009730
v 0.147874 -3.808733 -3.889352
v 0.745828 -4.453616 -3.017881
v 2.327064 -3.362083 -5.032535
v 1.164675 -4.598720 -4.976115
v 1.173810 -4.646957 -4.924415
v 1.218742 -4.606478 -5.088658
v -0.675498 -2.431563 -3.988061
v -0.675498 -3.929432 -2.490193
v -0.633090 -3.550862 -3.609491
v -1.631669 -2.844760 -2.903389
v 1.096499 -1.346891 -4.401257
v 2.868496 -1.760088 -3.316585
v 2.161969 -1.839954 -4.261246
v 2.186455 -0.507617 -3.793702
v 2.868496 -3.257956 -1.818717
v 3.163829 -2.078599 -2.886162
v 3.093656 -2.844760 -2.903389
v 3.459162 -1.880207 -1.938836
v -0.380164 -2.001140 -4.306572
v 0.298597 -2.193005 -4.614296
v -0.358960 -0.989893 -4.275978
v 0.505833 -1.458804 -4.513169
vt 0.842752 0.578444
vt 0.860242 0.573638
vt 0.838434 0.583986
vt 0.862747 0.534220
vt 0.849773 0.528321
vt 0.850625 0.524040
vt 0.835643 0.518744
vt 0.820649 0.539030
vt 0.814696 0.552968
vt 0.814166 0.520962
vt 0.793060 0.556381
vt 0.800474 0.575598
vt 0.814805 0.577254
vt 0.809708 0.571044
vt 0.830565 0.591455
vt 0.852528 0.597298
vt 0.855328 0.512471
vt 0.803484 0.506268
vt 0.773519 0.553583
vt 0.803350 0.598828
vt 0.856512 0.607025
vt 0.883682 0.552408
vt 0.863994 0.620061
vt 0.895174 0.549933
vt 0.858491 0.503164
vt 0.862732 0.489013
vt 0.793301 0.490194
vt 0.754334 0.553152
vt 0.796938 0.607372
vt 0.787601 0.621739
vt 0.254281 0.372848
vt 0.234561 0.396364
vt 0.237966 0.370452
vt 0.228580 0.381617
vt 0.203491 0.391735
vt 0.213792 0.379387
vt 0.192087 0.363626
vt 0.208391 0.366019
vt 0.211763 0.340098
vt 0.217765 0.354838
vt 0.242874 0.344696
vt 0.232554 0.357051
vt 0.847573 0.553065
vt 0.837535 0.566789
vt 0.836557 0.567285
vt 0.845159 0.538740
vt 0.838298 0.546546
vt 0.839513 0.547341
vt 0.838639 0.549738
vt 0.821674 0.565516
vt 0.223173 0.368234
vt 0.822777 0.540942
vt 0.843591 0.540742
vt 0.836440 0.559902
vt 0.851031 0.548508
vt 0.866118 0.545475
vt 0.875782 0.553904
vt 0.860090 0.554196
vt 0.865940 0.563164
vt 0.818744 0.590333
vn -0.387806 -0.897568 -0.209710
vn -0.387806 -0.897568 -0.209710
vn -0.387806 -0.897568 -0.209710
vn 0.816094 -0.157176 -0.556135
vn 0.816094 -0.157176 -0.556135
vn 0.816094 -0.157176 -0.556135
vn 0.857883 -0.495747 -0.135169
vn 0.857883 -0.495747 -0.135169
vn 0.857883 -0.495747 -0.135169
vn 0.169436 -0.981659 0.087387
vn 0.169436 -0.981659 0.087387
vn 0.169436 -0.981659 0.087387
vn 0.169436 -0.981659 0.087387
vn -0.852782 -0.404034 -0.330938
vn -0.852782 -0.404034 -0.330938
vn -0.852782 -0.404034 -0.330938
vn -0.087528 -0.984995 0.148739
vn -0.087528 -0.984995 0.148739
vn -0.087528 -0.984995 0.148739
vn -0.019999 0.603181 -0.797353
vn -0.019999 0.603181 -0.797353
vn -0.019999 0.603181 -0.797353
vn -0.771329 0.192382 -0.606664
vn -0.771329 0.192382 -0.606664
vn -0.771329 0.192382 -0.606664
vn -0.770990 -0.576871 0.269805
vn -0.770990 -0.576871 0.269805
vn -0.770990 -0.576871 0.269805
vn 0.058505 -0.843197 0.534413
vn 0.058505 -0.843197 0.534413
vn 0.058505 -0.843197 0.534413
vn 0.058505 -0.843197 0.534413
vn 0.795236 -0.294738 0.529839
vn 0.795236 -0.294738 0.529839
vn 0.795236 -0.294738 0.529839
vn 0.883379 0.467258 -0.036206
vn 0.883379 0.467258 -0.036206
vn 0.883379 0.467258 -0.036206
vn -0.058504 0.843196 -0.534413
vn -0.058504 0.843196 -0.534413
vn -0.058504 0.843196 -0.534413
vn -0.058504 0.843196 -0.534413
vn -0.873369 0.344402 -0.344403
vn -0.873369 0.344402 -0.344403
vn -0.873369 0.344402 -0.344403
vn -0.873369 0.344402 -0.344403
vn -0.873370 -0.344402 0.344402
vn -0.873370 -0.344402 0.344402
vn -0.873370 -0.344402 0.344402
vn -0.873370 -0.344402 0.344402
vn -0.058505 -0.534414 0.843196
vn -0.058505 -0.534414 0.843196
vn -0.058505 -0.534414 0.843196
vn -0.058505 -0.534414 0.843196
vn 0.756360 -0.035620 0.653185
vn 0.756360 -0.035620 0.653185
vn 0.756360 -0.035620 0.653185
vn 0.756360 -0.035620 0.653185
vn 0.756360 0.653185 -0.035620
vn 0.756360 0.653185 -0.035620
vn 0.756360 0.653185 -0.035620
vn 0.756360 0.653185 -0.035620
vn -0.169436 0.981659 -0.087387
vn -0.169436 0.981659 -0.087387
vn -0.169436 0.981659 -0.087387
vn -0.169436 0.981659 -0.087387
vn -0.801784 0.594588 0.060064
vn -0.801784 0.594588 0.060064
vn -0.801784 0.594588 0.060064
vn -0.801784 0.594588 0.060064
vn -0.801784 0.060065 0.594588
vn -0.801784 0.060065 0.594588
vn -0.801784 0.060065 0.594588
vn -0.801784 0.060065 0.594588
vn -0.169436 -0.087386 0.981659
vn -0.169436 -0.087386 0.981659
vn -0.169436 -0.087386 0.981659
vn -0.169436 -0.087386 0.981659
vn 0.462910 0.299685 0.834208
vn 0.462910 0.299685 0.834208
vn 0.462910 0.299685 0.834208
vn 0.462910 0.299685 0.834208
vn 0.462910 0.834208 0.299685
vn 0.462910 0.834208 0.299685
vn 0.462910 0.834208 0.299685
vn 0.462910 0.834208 0.299685
vn -0.017070 0.750617 -0.660518
vn -0.017070 0.750617 -0.660518
vn -0.017070 0.750617 -0.660518
vn -0.551091 -0.217925 -0.805486
vn -0.551091 -0.217925 -0.805486
vn -0.551091 -0.217925 -0.805486
vn -0.785784 -0.515354 -0.341984
vn -0.785784 -0.515354 -0.341984
vn -0.785784 -0.515354 -0.341984
vn 0.204310 -0.973250 -0.105083
vn 0.204310 -0.973250 -0.105083
vn 0.204310 -0.973250 -0.105083
vn 0.857669 -0.500156 0.119364
vn 0.857669 -0.500156 0.119364
vn 0.857669 -0.500156 0.119364
vn 0.797679 0.593279 -0.108300
vn 0.797679 0.593279 -0.108300
vn 0.797679 0.593279 -0.108300
vn -0.247255 0.861500 0.443490
vn -0.247255 0.861500 0.443490
vn -0.247255 0.861500 0.443490
vn -0.494508 0.710151 0.501146
vn -0.494508 0.710151 0.501146
vn -0.494508 0.710151 0.501146
vn -0.494509 0.501146 0.710150
vn -0.494509 0.501146 0.710150
vn -0.494509 0.501146 0.710150
vn -0.247254 0.443491 0.861499
vn -0.247254 0.443491 0.861499
vn -0.247254 0.443491 0.861499
vn -0.000001 0.594839 0.803845
vn -0.000001 0.594839 0.803845
vn -0.000001 0.594839 0.803845
vn 0.000000 0.803844 0.594840
vn 0.000000 0.803844 0.594840
vn 0.000000 0.803844 0.594840
vn -0.077559 -0.826130 -0.558117
vn -0.077559 -0.826130 -0.558117
vn -0.077559 -0.826130 -0.558117
vn -0.077559 -0.826130 -0.558117
vn 0.427268 -0.684214 0.591011
vn 0.427268 -0.684214 0.591011
vn 0.427268 -0.684214 0.591011
vn 0.427268 -0.684214 0.591011
vn -0.810932 0.066981 -0.581294
vn -0.810932 0.066981 -0.581294
vn -0.810932 0.066981 -0.581294
vn -0.810932 0.066981 -0.581294
vn -0.684456 -0.723121 -0.092816
vn -0.684456 -0.723121 -0.092816
vn -0.684456 -0.723121 -0.092816
vn -0.684456 -0.723121 -0.092816
vn -0.504263 0.440089 -0.742994
vn -0.504263 0.440089 -0.742994
vn -0.504263 0.440089 -0.742994
vn -0.504263 0.440089 -0.742994
vn 0.735665 -0.642179 0.215412
vn 0.735665 -0.642179 0.215412
vn 0.735665 -0.642179 0.215412
vn 0.735665 -0.642179 0.215412
vn -0.462910 -0.834208 -0.299685
vn -0.462910 -0.834208 -0.299685
vn -0.462910 -0.834208 -0.299685
vn -0.462910 -0.834208 -0.299685
vn -0.462910 -0.834208 -0.299685
vn -0.756360 -0.653185 0.035620
vn -0.756360 -0.653185 0.035620
vn -0.756360 -0.653185 0.035620
vn -0.756360 -0.653185 0.035620
vn -0.756360 -0.653185 0.035620
vn -0.999730 0.020643 0.010673
vn -0.999730 0.020643 0.010673
vn -0.999730 0.020643 0.010673
vn -0.055488 -0.897618 0.437267
vn -0.055488 -0.897618 0.437267
vn -0.055488 -0.897618 0.437267
vn 0.910824 -0.207975 -0.356576
vn 0.910824 -0.207975 -0.356576
vn 0.910824 -0.207975 -0.356576
vn 0.171751 0.678188 -0.714537
vn 0.171751 0.678188 -0.714537
vn 0.171751 0.678188 -0.714537
vn 0.912130 0.237485 -0.334096
vn 0.912130 0.237485 -0.334096
vn 0.912130 0.237485 -0.334096
vn -0.197452 0.040109 -0.979492
vn -0.197452 0.040109 -0.979492
vn -0.197452 0.040109 -0.979492
vn 0.801784 -0.060066 -0.594588
vn 0.801784 -0.060066 -0.594588
vn 0.801784 -0.060066 -0.594588
vn 0.801784 -0.060066 -0.594588
vn 0.801784 -0.060066 -0.594588
vn 0.801784 -0.060066 -0.594588
vn 0.873370 0.344402 -0.344402
vn 0.873370 0.344402 -0.344402
vn 0.873370 0.344402 -0.344402
vn 0.873370 0.344402 -0.344402
vn 0.873370 0.344402 -0.344402
vn 0.873370 0.344402 -0.344402
vn 0.873369 -0.344402 0.344403
vn 0.873369 -0.344402 0.344403
vn 0.873369 -0.344402 0.344403
vn 0.873369 -0.344402 0.344403
vn 0.873369 -0.344402 0.344403
vn 0.801783 -0.594589 -0.060065
vn 0.801783 -0.594589 -0.060065
vn 0.801783 -0.594589 -0.060065
vn 0.801783 -0.594589 -0.060065
vn 0.801783 -0.594589 -0.060065
vn 0.169437 0.087385 -0.981659
vn 0.169437 0.087385 -0.981659
vn 0.169437 0.087385 -0.981659
vn 0.169437 0.087385 -0.981659
vn 0.169437 0.087385 -0.981659
vn 0.169437 0.087385 -0.981659
vn -0.462909 -0.299685 -0.834208
vn -0.462909 -0.299685 -0.834208
vn -0.462909 -0.299685 -0.834208
vn -0.462909 -0.299685 -0.834208
vn -0.462909 -0.299685 -0.834208
vn -0.462909 -0.299685 -0.834208
vn -0.756360 0.035620 -0.653185
vn -0.756360 0.035620 -0.653185
vn -0.756360 0.035620 -0.653185
vn -0.756360 0.035620 -0.653185
vn -0.756360 0.035620 -0.653185
vn -0.756360 0.035620 -0.653185
vn 0.058505 0.534413 -0.843196
vn 0.058505 0.534413 -0.843196
vn 0.058505 0.534413 -0.843196
vn 0.058505 0.534413 -0.843196
vn 0.058505 0.534413 -0.843196
vn 0.058505 0.534413 -0.843196
s off
g LFlame
usemtl None
f 45/1/1 43/2/2 7/3/3
f 39/4/4 41/5/5 9/6/6
f 41/5/7 40/7/8 9/6/9
s 1
f 4/8/10 5/9/11 10/10/12
f 10/10/12 5/9/11 11/11/13
s off
f 47/12/14 49/13/15 12/14/16
f 44/15/17 45/1/18 7/3/19
f 7/3/20 43/2/21 46/16/22
f 42/17/23 39/4/24 9/6/25
f 9/6/26 40/7/27 42/17/28
s 2
f 10/10/29 11/11/30 16/18/31
f 16/18/31 11/11/30 17/19/32
s off
f 50/20/33 47/12/34 12/14/35
f 46/16/36 44/15/37 7/3/38
s 3
f 13/21/39 14/22/40 19/23/41
f 19/23/41 14/22/40 20/24/42
s 4
f 14/22/43 15/25/44 20/24/45
f 20/24/45 15/25/44 21/26/46
s 5
f 15/25/47 16/18/48 21/26/49
f 21/26/49 16/18/48 22/27/50
s 6
f 16/18/51 17/19/52 22/27/53
f 22/27/53 17/19/52 23/28/54
s 7
f 17/19/55 18/29/56 23/28/57
f 23/28/57 18/29/56 24/30/58
s 8
f 18/29/59 13/21/60 24/30/61
f 24/30/61 13/21/60 19/23/62
s 9
f 19/31/63 20/32/64 25/33/65
f 25/33/65 20/32/64 26/34/66
s 10
f 20/32/67 21/35/68 26/34/69
f 26/34/69 21/35/68 27/36/70
s 11
f 21/35/71 22/37/72 27/36/73
f 27/36/73 22/37/72 28/38/74
s 12
f 22/37/75 23/39/76 28/38/77
f 28/38/77 23/39/76 29/40/78
s 13
f 23/39/79 24/41/80 29/40/81
f 29/40/81 24/41/80 30/42/82
s 14
f 24/41/83 19/31/84 30/42/85
f 30/42/85 19/31/84 25/33/86
s off
f 2/43/87 1/44/88 31/45/89
f 3/46/90 2/43/91 31/45/92
f 37/47/93 36/48/94 38/49/95
f 5/9/96 4/8/97 31/45/98
f 6/50/99 5/9/100 31/45/101
f 1/44/102 6/50/103 31/45/104
f 25/33/105 26/34/106 32/51/107
f 26/34/108 27/36/109 32/51/110
f 27/36/111 28/38/112 32/51/113
f 28/38/114 29/40/115 32/51/116
f 29/40/117 30/42/118 32/51/119
f 30/42/120 25/33/121 32/51/122
s 15
f 4/8/123 3/46/124 34/52/125
f 34/52/125 3/46/124 33/53/126
s 16
f 3/46/127 31/45/128 33/53/129
f 31/45/128 35/54/130 33/53/129
s 17
f 4/8/131 34/52/132 31/45/133
f 31/45/133 34/52/132 35/54/134
s 18
f 36/48/135 37/47/136 33/53/137
f 34/52/138 33/53/137 37/47/136
s 19
f 38/49/139 36/48/140 35/54/141
f 33/53/142 35/54/141 36/48/140
s 20
f 38/49/143 35/54/144 37/47/145
f 35/54/144 34/52/146 37/47/145
s 21
f 10/10/147 40/7/148 4/8/149
f 4/8/149 40/7/148 3/46/150
f 3/46/150 40/7/148 41/5/151
s 22
f 16/18/152 15/25/153 10/10/154
f 10/10/154 15/25/153 40/7/155
f 42/17/156 40/7/155 15/25/153
s off
f 8/55/157 51/56/158 53/57/159
f 52/58/160 51/56/161 8/55/162
f 54/59/163 52/58/164 8/55/165
f 53/57/166 54/59/167 8/55/168
f 12/14/169 48/60/170 50/20/171
f 49/13/172 48/60/173 12/14/174
s 23
f 45/1/175 44/15/176 1/44/177
f 1/44/177 44/15/176 6/50/178
f 6/50/178 44/15/176 49/13/179
f 44/15/176 48/60/180 49/13/179
s 24
f 13/21/181 18/29/182 46/16/183
f 46/16/183 18/29/182 44/15/184
f 18/29/182 50/20/185 44/15/184
f 50/20/185 48/60/186 44/15/184
s 25
f 18/29/187 17/19/188 50/20/189
f 50/20/189 17/19/188 47/12/190
f 11/11/191 47/12/190 17/19/188
s 26
f 11/11/192 5/9/193 47/12/194
f 5/9/193 6/50/195 47/12/194
f 6/50/195 49/13/196 47/12/194
s 27
f 45/1/197 1/44/198 43/2/199
f 1/44/198 2/43/200 43/2/199
f 2/43/200 52/58/201 43/2/199
f 52/58/201 54/59/202 43/2/199
s 28
f 41/5/203 39/4/204 3/46/205
f 3/46/205 39/4/204 2/43/206
f 2/43/206 39/4/204 52/58/207
f 39/4/204 51/56/208 52/58/207
s 29
f 15/25/209 14/22/210 42/17/211
f 42/17/211 14/22/210 39/4/212
f 14/22/210 53/57/213 39/4/212
f 53/57/213 51/56/214 39/4/212
s 30
f 14/22/215 13/21/216 53/57/217
f 53/57/217 13/21/216 54/59/218
f 54/59/218 13/21/216 43/2/219
f 46/16/220 43/2/219 13/21/216
