# This file uses centimeters as units for non-parametric coordinates.

mtllib WigglytuffLArm.mtl
g default
v 16.099602 -4.736801 7.313999
v 17.584099 -3.032700 1.593899
v 13.526199 -9.452900 5.646999
v 15.193100 -7.539600 -0.775299
v 18.951199 -8.122601 3.738899
v -0.304798 11.250504 -5.585800
v -4.309601 7.067001 9.678200
v -1.230801 -7.788300 6.967602
v 2.925900 -4.464298 -8.132401
vt 0.476800 0.952000
vt 0.359400 0.943300
vt 0.394400 0.908100
vt 0.438700 0.911400
vt 0.360000 0.835900
vt 0.394700 0.867600
vt 0.491800 0.845600
vt 0.444300 0.871300
vt 0.418300 0.887700
vt 0.176989 0.739405
vt 0.221714 0.749123
vt 0.232084 0.777318
vt 0.187833 0.814588
vn 0.499183 0.793374 0.348388
vn 0.499183 0.793374 0.348388
vn 0.499183 0.793374 0.348388
vn 0.488013 0.793722 0.363110
vn 0.488013 0.793722 0.363110
vn 0.488013 0.793722 0.363110
vn 0.069402 -0.165105 0.983831
vn 0.069402 -0.165105 0.983831
vn 0.069402 -0.165105 0.983831
vn -0.064098 -0.301292 0.951375
vn -0.064098 -0.301292 0.951375
vn -0.064098 -0.301292 0.951375
vn -0.098395 -0.965851 -0.239688
vn -0.098395 -0.965851 -0.239688
vn -0.098395 -0.965851 -0.239688
vn -0.134203 -0.939620 -0.314807
vn -0.134203 -0.939620 -0.314807
vn -0.134203 -0.939620 -0.314807
vn 0.520383 0.239792 -0.819574
vn 0.520383 0.239792 -0.819574
vn 0.520383 0.239792 -0.819574
vn 0.536117 0.152105 -0.830327
vn 0.536117 0.152105 -0.830327
vn 0.536117 0.152105 -0.830327
vn 0.864652 0.373723 0.335720
vn 0.864652 0.373723 0.335720
vn 0.864652 0.373723 0.335720
vn 0.393694 -0.489792 0.777888
vn 0.393694 -0.489792 0.777888
vn 0.393694 -0.489792 0.777888
vn 0.147996 -0.957675 -0.246893
vn 0.147996 -0.957675 -0.246893
vn 0.147996 -0.957675 -0.246893
vn 0.762582 -0.066298 -0.643485
vn 0.762582 -0.066298 -0.643485
vn 0.762582 -0.066298 -0.643485
vn -0.945967 -0.147695 -0.288672
vn -0.945880 -0.145410 -0.290116
vn -0.945877 -0.145343 -0.290159
vn -0.945770 -0.142773 -0.291779
s off
g LArm
usemtl None
f 6/1/1 7/2/2 1/3/3
f 1/3/4 2/4/5 6/1/6
f 7/2/7 8/5/8 3/6/9
f 3/6/10 1/3/11 7/2/12
f 8/5/13 9/7/14 4/8/15
f 4/8/16 3/6/17 8/5/18
f 9/7/19 6/1/20 2/4/21
f 2/4/22 4/8/23 9/7/24
f 2/4/25 1/3/26 5/9/27
f 1/3/28 3/6/29 5/9/30
f 3/6/31 4/8/32 5/9/33
f 4/8/34 2/4/35 5/9/36
s 1
f 6/11/37 9/12/38 7/10/39
f 7/10/39 9/12/38 8/13/40
