# This file uses centimeters as units for non-parametric coordinates.

mtllib WigglytuffLLeg.mtl
g default
v 2.947599 -9.384200 5.738899
v -0.101299 -9.482500 -2.031600
v 1.471001 -9.482500 -3.013300
v 7.113701 -9.384200 3.137800
v 15.860901 -0.615000 29.766800
v 14.990200 -3.221800 30.688499
v 17.282501 -5.873800 29.404400
v 21.128799 -0.601700 26.854500
v 19.520302 -5.822300 28.098701
v 21.904099 -3.062500 26.654301
v -3.062100 -7.083000 -1.661600
v 0.230700 -6.795600 6.499701
v 3.103500 -7.083000 -5.510900
v 8.990200 -6.795600 1.030900
v 5.681000 -1.880000 13.226400
v 12.056200 -1.767500 9.512300
v 4.326000 -6.818000 14.034500
v 10.872200 -8.621600 10.223000
v 6.601500 -9.206700 12.714899
v 13.248899 -5.596800 8.826900
v 10.155701 2.301000 22.142101
v 17.676601 2.321700 17.606600
v 8.003500 -6.395700 22.491699
v 16.349800 -8.909700 17.607500
v 10.299200 -9.049000 21.137901
v 18.730202 -6.148700 16.232800
v 13.530500 1.824900 28.141602
v 21.051498 1.845600 23.606098
v 11.576900 -5.878600 29.282600
v 19.923302 -8.392500 24.398499
v 13.872601 -8.531900 27.928902
v 22.303600 -5.631500 23.023800
v -1.621799 -0.175000 5.902700
v -4.452300 -2.856200 -2.876800
v 1.663300 0.611500 -6.544300
v 7.066500 1.825300 0.692400
vt 0.819100 0.531600
vt 0.817400 0.572200
vt 0.817200 0.577300
vt 0.818400 0.545200
vt 0.780000 0.403900
vt 0.793800 0.399800
vt 0.807300 0.407200
vt 0.779100 0.419100
vt 0.806700 0.414000
vt 0.791900 0.420800
vt 0.838300 0.465200
vt 0.851200 0.419000
vt 0.873400 0.424800
vt 0.872900 0.467500
vt 0.832600 0.400300
vt 0.872900 0.404700
vt 0.885700 0.417500
vt 0.885900 0.422600
vt 0.763600 0.592900
vt 0.759200 0.554800
vt 0.804300 0.555500
vt 0.804000 0.589700
vt 0.771100 0.528200
vt 0.782000 0.490500
vt 0.780400 0.509800
vt 0.873900 0.506800
vt 0.848100 0.503200
vt 0.816300 0.508000
vt 0.820100 0.495200
vt 0.800200 0.514500
vt 0.847000 0.483800
vt 0.827300 0.550300
vt 0.826700 0.526600
vt 0.872800 0.551000
vt 0.819900 0.469600
vt 0.821600 0.451200
vt 0.761300 0.466500
vt 0.805100 0.476000
vt 0.762700 0.442900
vt 0.766800 0.411700
vt 0.765400 0.435300
vt 0.870900 0.586500
vt 0.830600 0.581500
vt 0.819000 0.434000
vt 0.820700 0.415700
vt 0.804300 0.440400
vt 0.857200 0.594200
vt 0.843500 0.589700
vt 0.886300 0.463200
vt 0.886300 0.499600
vt 0.886500 0.543600
vt 0.884600 0.579100
vt 0.870900 0.587200
vt 0.198165 0.772002
vt 0.236298 0.780106
vt 0.219783 0.817982
vt 0.176615 0.807459
vn 0.006300 -0.999928 0.010200
vn 0.006300 -0.999928 0.010200
vn 0.006300 -0.999928 0.010200
vn 0.006300 -0.999928 0.010200
vn 0.006300 -0.999928 0.010200
vn 0.006300 -0.999928 0.010200
vn 0.570224 0.097904 0.815634
vn 0.570224 0.097904 0.815634
vn 0.570224 0.097904 0.815634
vn 0.482487 0.070298 0.873077
vn 0.482487 0.070298 0.873077
vn 0.482487 0.070298 0.873077
vn 0.503586 0.017100 0.863776
vn 0.503586 0.017100 0.863776
vn 0.503586 0.017100 0.863776
vn 0.474297 0.078099 0.876894
vn 0.474297 0.078099 0.876894
vn 0.474297 0.078099 0.876894
vn -0.913527 -0.198406 0.355111
vn -0.913527 -0.198406 0.355111
vn -0.913527 -0.198406 0.355111
vn -0.902181 -0.218895 0.371692
vn -0.902181 -0.218895 0.371692
vn -0.902181 -0.218895 0.371692
vn -0.704429 -0.222409 -0.674028
vn -0.704429 -0.222409 -0.674028
vn -0.704429 -0.222409 -0.674028
vn -0.358401 -0.302201 -0.883303
vn -0.358401 -0.302201 -0.883303
vn -0.358401 -0.302201 -0.883303
vn -0.469300 -0.463200 -0.751800
vn -0.469300 -0.463200 -0.751800
vn -0.469300 -0.463200 -0.751800
vn -0.442975 -0.379279 -0.812355
vn -0.442975 -0.379279 -0.812355
vn -0.442975 -0.379279 -0.812355
vn 0.779994 0.150199 -0.607495
vn 0.779994 0.150199 -0.607495
vn 0.779994 0.150199 -0.607495
vn 0.741390 0.048899 -0.669291
vn 0.741390 0.048899 -0.669291
vn 0.741390 0.048899 -0.669291
vn -0.054399 0.959186 0.277496
vn -0.054399 0.959186 0.277496
vn -0.054399 0.959186 0.277496
vn 0.155696 0.942478 0.295793
vn 0.155696 0.942478 0.295793
vn 0.155696 0.942478 0.295793
vn -0.861336 -0.198808 0.467520
vn -0.861336 -0.198808 0.467520
vn -0.861336 -0.198808 0.467520
vn -0.642331 0.292214 0.708535
vn -0.642331 0.292214 0.708535
vn -0.642331 0.292214 0.708535
vn 0.050299 -0.995485 0.080499
vn 0.050299 -0.995485 0.080499
vn 0.050299 -0.995485 0.080499
vn 0.115498 -0.992684 -0.035199
vn 0.115498 -0.992684 -0.035199
vn 0.115498 -0.992684 -0.035199
vn 0.885784 0.180897 -0.427392
vn 0.885784 0.180897 -0.427392
vn 0.885784 0.180897 -0.427392
vn 0.803100 0.338000 -0.490700
vn 0.803100 0.338000 -0.490700
vn 0.803100 0.338000 -0.490700
vn -0.207399 0.921595 -0.328098
vn -0.207399 0.921595 -0.328098
vn -0.207399 0.921595 -0.328098
vn -0.200097 0.923386 -0.327595
vn -0.200097 0.923386 -0.327595
vn -0.200097 0.923386 -0.327595
vn -0.879771 0.301590 0.367488
vn -0.879771 0.301590 0.367488
vn -0.879771 0.301590 0.367488
vn -0.908189 0.238597 0.343896
vn -0.908189 0.238597 0.343896
vn -0.908189 0.238597 0.343896
vn 0.079100 -0.992097 -0.097400
vn 0.079100 -0.992097 -0.097400
vn 0.079100 -0.992097 -0.097400
vn 0.027000 -0.999612 0.006800
vn 0.027000 -0.999612 0.006800
vn 0.027000 -0.999612 0.006800
vn 0.689010 0.330105 -0.645210
vn 0.689010 0.330105 -0.645210
vn 0.689010 0.330105 -0.645210
vn 0.795627 0.192107 -0.574520
vn 0.795627 0.192107 -0.574520
vn 0.795627 0.192107 -0.574520
vn 0.033600 0.997615 0.060301
vn 0.033600 0.997615 0.060301
vn 0.033600 0.997615 0.060301
vn 0.033600 0.997615 0.060301
vn 0.033600 0.997615 0.060301
vn 0.033600 0.997615 0.060301
vn -0.867908 0.232402 0.439004
vn -0.867908 0.232402 0.439004
vn -0.867908 0.232402 0.439004
vn -0.826510 0.281804 0.487306
vn -0.826510 0.281804 0.487306
vn -0.826510 0.281804 0.487306
vn 0.051499 -0.997475 0.048899
vn 0.051499 -0.997475 0.048899
vn 0.051499 -0.997475 0.048899
vn 0.051499 -0.997475 0.048899
vn 0.051499 -0.997475 0.048899
vn 0.051499 -0.997475 0.048899
vn 0.862902 0.183700 -0.470801
vn 0.862902 0.183700 -0.470801
vn 0.862902 0.183700 -0.470801
vn 0.864539 0.181308 -0.468721
vn 0.864539 0.181308 -0.468721
vn 0.864539 0.181308 -0.468721
vn 0.352493 0.728185 0.587788
vn 0.352493 0.728185 0.587788
vn 0.352493 0.728185 0.587788
vn 0.311511 0.762528 0.567021
vn 0.311511 0.762528 0.567021
vn 0.311511 0.762528 0.567021
vn -0.530920 0.254410 0.808331
vn -0.530920 0.254410 0.808331
vn -0.530920 0.254410 0.808331
vn -0.216995 0.389090 0.895278
vn -0.216995 0.389090 0.895278
vn -0.216995 0.389090 0.895278
vn 0.344393 -0.753084 0.560588
vn 0.344393 -0.753084 0.560588
vn 0.344393 -0.753084 0.560588
vn 0.344393 -0.753084 0.560588
vn 0.344393 -0.753084 0.560588
vn 0.344393 -0.753084 0.560588
vn 0.982987 0.157198 0.094999
vn 0.982987 0.157198 0.094999
vn 0.982987 0.157198 0.094999
vn 0.944987 0.306896 -0.113198
vn 0.944987 0.306896 -0.113198
vn 0.944987 0.306896 -0.113198
vn -0.621224 -0.733228 0.276511
vn -0.621224 -0.733228 0.276511
vn -0.621224 -0.733228 0.276511
vn -0.592389 -0.768386 0.242196
vn -0.592389 -0.768386 0.242196
vn -0.592389 -0.768386 0.242196
vn 0.494911 -0.765218 -0.411710
vn 0.494911 -0.765218 -0.411710
vn 0.494911 -0.765218 -0.411710
vn 0.505700 -0.734699 -0.452200
vn 0.505700 -0.734699 -0.452200
vn 0.505700 -0.734699 -0.452200
vn -0.599996 -0.727496 0.332798
vn -0.599996 -0.727496 0.332798
vn -0.599996 -0.727496 0.332798
vn -0.591694 -0.740192 0.319397
vn -0.591694 -0.740192 0.319397
vn -0.591694 -0.740192 0.319397
vn 0.669690 -0.696089 -0.258796
vn 0.669690 -0.696089 -0.258796
vn 0.669690 -0.696089 -0.258796
vn 0.682872 -0.670473 -0.290088
vn 0.682872 -0.670473 -0.290088
vn 0.682872 -0.670473 -0.290088
vn -0.611793 -0.738892 0.282397
vn -0.611793 -0.738892 0.282397
vn -0.611793 -0.738892 0.282397
vn -0.634398 -0.707598 0.311199
vn -0.634398 -0.707598 0.311199
vn -0.634398 -0.707598 0.311199
vn 0.572902 -0.668802 -0.473801
vn 0.572902 -0.668802 -0.473801
vn 0.572902 -0.668802 -0.473801
vn 0.558784 -0.701780 -0.441888
vn 0.558784 -0.701780 -0.441888
vn 0.558784 -0.701780 -0.441888
vn -0.600785 -0.708583 0.370091
vn -0.600785 -0.708583 0.370091
vn -0.600785 -0.708583 0.370091
vn -0.600785 -0.708583 0.370091
vn -0.600785 -0.708583 0.370091
vn -0.600785 -0.708583 0.370091
vn 0.649616 -0.703517 -0.288207
vn 0.649616 -0.703517 -0.288207
vn 0.649616 -0.703517 -0.288207
vn 0.649616 -0.703517 -0.288207
vn 0.649616 -0.703517 -0.288207
vn 0.649616 -0.703517 -0.288207
vn -0.018501 -0.467026 0.884050
vn -0.018501 -0.467026 0.884050
vn -0.018501 -0.467026 0.884050
vn -0.018699 -0.448775 0.893449
vn -0.018699 -0.448775 0.893449
vn -0.018699 -0.448775 0.893449
vn 0.780886 -0.466191 0.415792
vn 0.780886 -0.466191 0.415792
vn 0.780886 -0.466191 0.415792
vn 0.785601 -0.464801 0.408401
vn 0.785601 -0.464801 0.408401
vn 0.785601 -0.464801 0.408401
vn -0.530205 0.843431 -0.086641
vn -0.353568 0.934782 -0.034249
vn -0.359002 0.932649 -0.035818
vn -0.222760 0.974869 0.002808
s off
g LLeg
usemtl None
f 1/1/1 2/2/2 3/3/3
f 3/3/4 4/4/5 1/1/6
f 5/5/7 6/6/8 7/7/9
f 8/8/10 5/5/11 7/7/12
f 7/7/13 9/9/14 10/10/15
f 8/8/16 7/7/17 10/10/18
f 33/11/19 34/12/20 11/13/21
f 11/13/22 12/14/23 33/11/24
f 35/15/25 13/16/26 3/17/27
f 34/12/28 35/15/29 3/17/30
f 3/17/31 2/18/32 11/13/33
f 34/12/34 3/17/35 11/13/36
f 35/19/37 36/20/38 14/21/39
f 14/21/40 13/22/41 35/19/42
f 36/20/43 33/23/44 15/24/45
f 15/24/46 16/25/47 36/20/48
f 33/11/49 12/14/50 17/26/51
f 17/26/52 15/27/53 33/11/54
f 1/1/55 4/4/56 18/28/57
f 18/28/58 19/29/59 1/1/60
f 14/21/61 36/20/62 16/25/63
f 16/25/64 20/30/65 14/21/66
f 16/31/67 15/27/68 21/32/69
f 21/32/70 22/33/71 16/31/72
f 15/27/73 17/26/74 23/34/75
f 23/34/76 21/32/77 15/27/78
f 19/29/79 18/28/80 24/35/81
f 24/35/82 25/36/83 19/29/84
f 20/30/85 16/25/86 22/37/87
f 22/37/88 26/38/89 20/30/90
f 22/37/91 21/39/92 27/40/93
f 27/40/94 28/41/95 22/37/96
f 21/32/97 23/34/98 29/42/99
f 29/42/100 27/43/101 21/32/102
f 25/36/103 24/35/104 30/44/105
f 30/44/106 31/45/107 25/36/108
f 26/38/109 22/37/110 28/41/111
f 28/41/112 32/46/113 26/38/114
f 28/41/115 27/40/116 5/5/117
f 5/5/118 8/8/119 28/41/120
f 27/43/121 29/42/122 6/47/123
f 6/47/124 5/48/125 27/43/126
f 31/45/127 30/44/128 9/9/129
f 9/9/130 7/7/131 31/45/132
f 32/46/133 28/41/134 8/8/135
f 8/8/136 10/10/137 32/46/138
f 1/49/139 12/14/140 11/13/141
f 11/13/142 2/18/143 1/49/144
f 3/3/145 13/22/146 14/21/147
f 14/21/148 4/4/149 3/3/150
f 12/14/151 1/49/152 19/50/153
f 19/50/154 17/26/155 12/14/156
f 4/4/157 14/21/158 20/30/159
f 20/30/160 18/28/161 4/4/162
f 17/26/163 19/50/164 25/51/165
f 25/51/166 23/34/167 17/26/168
f 18/28/169 20/30/170 26/38/171
f 26/38/172 24/35/173 18/28/174
f 23/34/175 25/51/176 31/52/177
f 31/52/178 29/42/179 23/34/180
f 24/35/181 26/38/182 32/46/183
f 32/46/184 30/44/185 24/35/186
f 29/42/187 31/52/188 7/53/189
f 7/53/190 6/47/191 29/42/192
f 30/44/193 32/46/194 10/10/195
f 10/10/196 9/9/197 30/44/198
s 1
f 34/54/199 33/55/200 35/57/201
f 35/57/201 33/55/200 36/56/202
