# This file uses centimeters as units for non-parametric coordinates.

mtllib WigglytuffRArm.mtl
g default
v -17.584202 -3.032700 1.593899
v -16.099602 -4.736801 7.313999
v -13.526199 -9.452900 5.646999
v -15.193100 -7.539600 -0.775299
v -18.951199 -8.122601 3.738899
v 4.309502 7.067001 9.678200
v 0.304699 11.250504 -5.585800
v 1.230801 -7.788300 6.967602
v -2.925900 -4.464298 -8.132401
vt 0.476800 0.952000
vt 0.438700 0.911400
vt 0.394400 0.908100
vt 0.394400 0.908100
vt 0.359400 0.943300
vt 0.476800 0.952000
vt 0.359400 0.943300
vt 0.394400 0.908100
vt 0.394700 0.867600
vt 0.394700 0.867600
vt 0.360000 0.835900
vt 0.359400 0.943300
vt 0.360000 0.835900
vt 0.394700 0.867600
vt 0.444300 0.871300
vt 0.444300 0.871300
vt 0.491800 0.845600
vt 0.360000 0.835900
vt 0.491800 0.845600
vt 0.444300 0.871300
vt 0.438700 0.911400
vt 0.438700 0.911400
vt 0.476800 0.952000
vt 0.491800 0.845600
vt 0.438700 0.911400
vt 0.418300 0.887700
vt 0.394400 0.908100
vt 0.394400 0.908100
vt 0.418300 0.887700
vt 0.394700 0.867600
vt 0.394700 0.867600
vt 0.418300 0.887700
vt 0.444300 0.871300
vt 0.444300 0.871300
vt 0.418300 0.887700
vt 0.438700 0.911400
vt 0.215967 0.750660
vt 0.245863 0.777353
vt 0.224042 0.820068
vt 0.199296 0.774348
vn -0.488013 0.793722 0.363110
vn -0.488013 0.793722 0.363110
vn -0.488013 0.793722 0.363110
vn -0.499183 0.793374 0.348388
vn -0.499183 0.793374 0.348388
vn -0.499183 0.793374 0.348388
vn 0.064098 -0.301292 0.951375
vn 0.064098 -0.301292 0.951375
vn 0.064098 -0.301292 0.951375
vn -0.069402 -0.165105 0.983831
vn -0.069402 -0.165105 0.983831
vn -0.069402 -0.165105 0.983831
vn 0.134203 -0.939620 -0.314807
vn 0.134203 -0.939620 -0.314807
vn 0.134203 -0.939620 -0.314807
vn 0.098395 -0.965851 -0.239688
vn 0.098395 -0.965851 -0.239688
vn 0.098395 -0.965851 -0.239688
vn -0.536117 0.152105 -0.830327
vn -0.536117 0.152105 -0.830327
vn -0.536117 0.152105 -0.830327
vn -0.520383 0.239792 -0.819574
vn -0.520383 0.239792 -0.819574
vn -0.520383 0.239792 -0.819574
vn -0.864652 0.373723 0.335720
vn -0.864652 0.373723 0.335720
vn -0.864652 0.373723 0.335720
vn -0.393694 -0.489792 0.777888
vn -0.393694 -0.489792 0.777888
vn -0.393694 -0.489792 0.777888
vn -0.147996 -0.957675 -0.246893
vn -0.147996 -0.957675 -0.246893
vn -0.147996 -0.957675 -0.246893
vn -0.762582 -0.066298 -0.643485
vn -0.762582 -0.066298 -0.643485
vn -0.762582 -0.066298 -0.643485
vn 0.945969 -0.147689 -0.288671
vn 0.945878 -0.145338 -0.290157
vn 0.945881 -0.145405 -0.290115
vn 0.945771 -0.142768 -0.291778
s off
g RArm
usemtl None
f 7/1/1 1/2/2 2/3/3
f 2/4/4 6/5/5 7/6/6
f 6/7/7 2/8/8 3/9/9
f 3/10/10 8/11/11 6/12/12
f 8/13/13 3/14/14 4/15/15
f 4/16/16 9/17/17 8/18/18
f 9/19/19 4/20/20 1/21/21
f 1/22/22 7/23/23 9/24/24
f 1/25/25 5/26/26 2/27/27
f 2/28/28 5/29/29 3/30/30
f 3/31/31 5/32/32 4/33/33
f 4/34/34 5/35/35 1/36/36
s 1
f 7/37/37 6/38/38 9/40/39
f 9/40/39 6/38/38 8/39/40
