# This file uses centimeters as units for non-parametric coordinates.

mtllib IgglybuffLArm.mtl
g default
v 3.505402 1.464199 11.814098
v 7.572899 2.231602 9.282001
v 4.196400 -3.679501 10.683201
v 7.667400 -3.024599 8.522499
v 7.112499 -0.444698 12.389801
v 2.843601 5.386700 -0.701801
v -4.410601 3.659801 6.327499
v -5.435301 -4.897900 1.079399
v 0.754999 -3.424299 -5.154999
vt 0.076400 0.670900
vt 0.043600 0.642700
vt 0.085500 0.605600
vt 0.103900 0.618900
vt 0.101000 0.525700
vt 0.147400 0.516300
vt 0.121400 0.586400
vt 0.097000 0.581400
vt 0.192000 0.561700
vt 0.201600 0.597300
vt 0.125000 0.605500
vt 0.175300 0.664000
vt 0.128700 0.672300
vt 0.104000 0.618900
vt 0.103800 0.599500
vt 0.714247 0.103399
vt 0.742811 0.095638
vt 0.758653 0.134377
vt 0.708566 0.125926
vn 0.059501 0.953424 0.295707
vn 0.059501 0.953424 0.295707
vn 0.059501 0.953424 0.295707
vn 0.005900 0.954298 0.298799
vn 0.005900 0.954298 0.298799
vn 0.005900 0.954298 0.298799
vn -0.640788 -0.344094 0.686287
vn -0.640788 -0.344094 0.686287
vn -0.640788 -0.344094 0.686287
vn -0.597384 -0.247893 0.762680
vn -0.597384 -0.247893 0.762680
vn -0.597384 -0.247893 0.762680
vn 0.174204 -0.982922 -0.059301
vn 0.174204 -0.982922 -0.059301
vn 0.174204 -0.982922 -0.059301
vn 0.162497 -0.985981 -0.037899
vn 0.162497 -0.985981 -0.037899
vn 0.162497 -0.985981 -0.037899
vn 0.903972 0.001900 -0.427587
vn 0.903972 0.001900 -0.427587
vn 0.903972 0.001900 -0.427587
vn 0.888575 0.081198 -0.451487
vn 0.888575 0.081198 -0.451487
vn 0.888575 0.081198 -0.451487
vn 0.271397 0.709092 0.650793
vn 0.271397 0.709092 0.650793
vn 0.271397 0.709092 0.650793
vn -0.276302 -0.241602 0.930207
vn -0.276302 -0.241602 0.930207
vn -0.276302 -0.241602 0.930207
vn 0.466522 -0.703434 0.536226
vn 0.466522 -0.703434 0.536226
vn 0.466522 -0.703434 0.536226
vn 0.989574 -0.003000 0.143996
vn 0.989574 -0.003000 0.143996
vn 0.989574 -0.003000 0.143996
vn -0.676202 0.442288 -0.589179
vn -0.679693 0.446330 -0.582072
vn -0.679969 0.446651 -0.581503
vn -0.684213 0.451605 -0.572631
s off
g LArm
usemtl None
f 6/1/1 7/2/2 1/3/3
f 1/3/4 2/4/5 6/1/6
f 7/5/7 8/6/8 3/7/9
f 3/7/10 1/8/11 7/5/12
f 8/9/13 9/10/14 4/11/15
f 4/11/16 3/7/17 8/9/18
f 9/12/19 6/13/20 2/14/21
f 2/14/22 4/11/23 9/12/24
f 2/4/25 1/3/26 5/15/27
f 1/8/28 3/7/29 5/15/30
f 3/7/31 4/11/32 5/15/33
f 4/11/34 2/4/35 5/15/36
s 1
f 7/16/37 6/17/38 8/19/39
f 8/19/39 6/17/38 9/18/40
