# This file uses centimeters as units for non-parametric coordinates.

mtllib IgglybuffLLeg.mtl
g default
v 10.982700 -4.780400 12.040300
v 10.652700 -6.259600 12.386101
v 13.009600 -6.228300 10.019699
v 12.642200 -4.758400 10.374100
v -2.092900 -6.200600 2.614900
v -7.270700 -2.750300 -4.032600
v -4.926500 -2.381800 -6.360100
v -4.514500 -5.993800 -7.413700
v -7.231600 -5.955800 -3.915400
v 2.369699 -6.200600 -1.828300
v 4.303801 -1.079200 8.252501
v 8.059999 -1.079200 4.496400
v 2.794399 -6.184400 8.511499
v 8.296801 -6.184400 3.009100
v 0.376900 0.148600 3.895200
v -4.161500 -0.398000 -0.577300
v -1.436900 0.429200 -3.173400
v 3.540400 1.109000 0.881000
vt 0.285700 0.740100
vt 0.280900 0.718700
vt 0.315000 0.719200
vt 0.309700 0.740400
vt 0.132200 0.811400
vt 0.066500 0.803500
vt 0.096500 0.719600
vt 0.321300 0.917300
vt 0.287400 0.922600
vt 0.281400 0.870300
vt 0.320700 0.870900
vt 0.236900 0.963300
vt 0.164900 0.973100
vt 0.181800 0.867300
vt 0.178000 0.825300
vt 0.189000 0.793700
vt 0.243400 0.793700
vt 0.167200 0.719800
vt 0.161100 0.719600
vt 0.246800 0.719800
vt 0.099500 0.941500
vt 0.096000 0.867600
vt 0.175700 0.867600
vt 0.027800 0.866900
vt 0.062000 0.866500
vt 0.033200 0.888200
vt 0.276300 0.951300
vt 0.246400 0.867300
vt 0.021600 0.769500
vt 0.022100 0.723100
vt 0.754794 0.136553
vt 0.788948 0.129700
vt 0.782153 0.156809
vt 0.742276 0.157726
vn 0.708489 0.006900 0.705689
vn 0.708489 0.006900 0.705689
vn 0.708489 0.006900 0.705689
vn 0.708489 0.006900 0.705689
vn 0.708489 0.006900 0.705689
vn 0.708489 0.006900 0.705689
vn -0.703769 0.132994 0.697869
vn -0.703769 0.132994 0.697869
vn -0.703769 0.132994 0.697869
vn -0.708906 0.121801 -0.694706
vn -0.708906 0.121801 -0.694706
vn -0.708906 0.121801 -0.694706
vn -0.789508 -0.032000 -0.612906
vn -0.789508 -0.032000 -0.612906
vn -0.789508 -0.032000 -0.612906
vn 0.604286 0.189996 -0.773783
vn 0.604286 0.189996 -0.773783
vn 0.604286 0.189996 -0.773783
vn -0.018099 0.957972 0.286292
vn -0.018099 0.957972 0.286292
vn -0.018099 0.957972 0.286292
vn 0.251391 0.934668 0.251391
vn 0.251391 0.934668 0.251391
vn 0.251391 0.934668 0.251391
vn -0.759142 0.168509 0.628735
vn -0.759142 0.168509 0.628735
vn -0.759142 0.168509 0.628735
vn -0.687189 0.237996 0.686389
vn -0.687189 0.237996 0.686389
vn -0.687189 0.237996 0.686389
vn 0.001500 -0.999998 0.001500
vn 0.001500 -0.999998 0.001500
vn 0.001500 -0.999998 0.001500
vn 0.001500 -0.999998 0.001500
vn 0.001500 -0.999998 0.001500
vn 0.001500 -0.999998 0.001500
vn 0.663458 0.164290 -0.729954
vn 0.663458 0.164290 -0.729954
vn 0.663458 0.164290 -0.729954
vn 0.612294 0.247198 -0.750992
vn 0.612294 0.247198 -0.750992
vn 0.612294 0.247198 -0.750992
vn 0.316293 0.894381 0.316293
vn 0.316293 0.894381 0.316293
vn 0.316293 0.894381 0.316293
vn 0.309095 0.895687 0.319695
vn 0.309095 0.895687 0.319695
vn 0.309095 0.895687 0.319695
vn -0.434204 0.173201 0.884007
vn -0.434204 0.173201 0.884007
vn -0.434204 0.173201 0.884007
vn -0.347718 0.286215 0.892846
vn -0.347718 0.286215 0.892846
vn -0.347718 0.286215 0.892846
vn -0.003700 -0.999986 -0.003700
vn -0.003700 -0.999986 -0.003700
vn -0.003700 -0.999986 -0.003700
vn -0.002000 -0.999883 -0.015200
vn -0.002000 -0.999883 -0.015200
vn -0.002000 -0.999883 -0.015200
vn 0.828599 0.191700 -0.525999
vn 0.828599 0.191700 -0.525999
vn 0.828599 0.191700 -0.525999
vn 0.786214 0.323506 -0.526509
vn 0.786214 0.323506 -0.526509
vn 0.786214 0.323506 -0.526509
vn -0.475586 0.849475 -0.228493
vn -0.475586 0.849475 -0.228493
vn -0.475586 0.849475 -0.228493
vn -0.389703 0.885706 -0.252302
vn -0.389703 0.885706 -0.252302
vn -0.389703 0.885706 -0.252302
vn 0.583785 0.174295 -0.792979
vn 0.583785 0.174295 -0.792979
vn 0.583785 0.174295 -0.792979
vn 0.608992 0.285296 -0.740091
vn 0.608992 0.285296 -0.740091
vn 0.608992 0.285296 -0.740091
vn -0.020899 -0.999561 -0.020999
vn -0.020899 -0.999561 -0.020999
vn -0.020899 -0.999561 -0.020999
vn -0.023800 -0.999687 -0.007700
vn -0.023800 -0.999687 -0.007700
vn -0.023800 -0.999687 -0.007700
vn -0.766717 0.077302 0.637314
vn -0.766717 0.077302 0.637314
vn -0.766717 0.077302 0.637314
vn -0.785599 0.013000 0.618599
vn -0.785599 0.013000 0.618599
vn -0.785599 0.013000 0.618599
vn -0.207958 0.973800 0.092018
vn -0.207964 0.973799 0.092020
vn -0.207961 0.973799 0.092019
vn -0.207968 0.973797 0.092021
s off
g LLeg
usemtl None
f 1/1/1 2/2/2 3/3/3
f 3/3/4 4/4/5 1/1/6
f 15/5/7 16/6/8 5/7/9
f 6/8/10 7/9/11 8/10/12
f 8/10/13 9/11/14 6/8/15
f 17/12/16 18/13/17 10/14/18
f 18/15/19 15/5/20 11/16/21
f 11/16/22 12/17/23 18/15/24
f 15/5/25 5/7/26 13/18/27
f 13/18/28 11/16/29 15/5/30
f 5/7/31 10/19/32 14/20/33
f 14/20/34 13/18/35 5/7/36
f 10/14/37 18/13/38 12/21/39
f 12/21/40 14/22/41 10/14/42
f 12/17/43 11/16/44 1/1/45
f 1/1/46 4/4/47 12/17/48
f 11/16/49 13/18/50 2/2/51
f 2/2/52 1/1/53 11/16/54
f 13/23/55 14/22/56 3/24/57
f 3/24/58 2/25/59 13/23/60
f 14/22/61 12/21/62 4/26/63
f 4/26/64 3/24/65 14/22/66
f 16/27/67 17/12/68 7/9/69
f 7/9/70 6/8/71 16/27/72
f 7/9/73 17/12/74 10/14/75
f 10/14/76 8/10/77 7/9/78
f 10/14/79 5/28/80 9/11/81
f 9/11/82 8/10/83 10/14/84
f 5/7/85 16/6/86 6/29/87
f 6/29/88 9/30/89 5/7/90
s 1
f 18/31/91 17/32/92 15/34/93
f 15/34/93 17/32/92 16/33/94
