# This file uses centimeters as units for non-parametric coordinates.

mtllib IgglybuffRArm.mtl
g default
v -7.572899 2.231602 9.282001
v -3.505402 1.464199 11.814098
v -4.196400 -3.679501 10.683201
v -7.667400 -3.024599 8.522499
v -7.112499 -0.444698 12.389801
v 4.410601 3.659801 6.327499
v -2.843601 5.386700 -0.701801
v 5.435301 -4.897900 1.079399
v -0.754999 -3.424299 -5.154999
vt 0.076400 0.670900
vt 0.103900 0.618900
vt 0.085500 0.605600
vt 0.085500 0.605600
vt 0.043600 0.642700
vt 0.076400 0.670900
vt 0.101000 0.525700
vt 0.097000 0.581400
vt 0.121400 0.586400
vt 0.121400 0.586400
vt 0.147400 0.516300
vt 0.101000 0.525700
vt 0.192000 0.561700
vt 0.121400 0.586400
vt 0.125000 0.605500
vt 0.125000 0.605500
vt 0.201600 0.597300
vt 0.192000 0.561700
vt 0.175300 0.664000
vt 0.125000 0.605500
vt 0.104000 0.618900
vt 0.104000 0.618900
vt 0.128700 0.672300
vt 0.175300 0.664000
vt 0.103900 0.618900
vt 0.103800 0.599500
vt 0.085500 0.605600
vt 0.097000 0.581400
vt 0.103800 0.599500
vt 0.121400 0.586400
vt 0.121400 0.586400
vt 0.103800 0.599500
vt 0.125000 0.605500
vt 0.125000 0.605500
vt 0.103800 0.599500
vt 0.103900 0.618900
vt 0.711025 0.129581
vt 0.756690 0.130918
vt 0.741932 0.154524
vt 0.702197 0.156178
vn -0.005900 0.954298 0.298799
vn -0.005900 0.954298 0.298799
vn -0.005900 0.954298 0.298799
vn -0.059501 0.953424 0.295707
vn -0.059501 0.953424 0.295707
vn -0.059501 0.953424 0.295707
vn 0.597384 -0.247893 0.762680
vn 0.597384 -0.247893 0.762680
vn 0.597384 -0.247893 0.762680
vn 0.640788 -0.344094 0.686287
vn 0.640788 -0.344094 0.686287
vn 0.640788 -0.344094 0.686287
vn -0.162497 -0.985981 -0.037899
vn -0.162497 -0.985981 -0.037899
vn -0.162497 -0.985981 -0.037899
vn -0.174204 -0.982922 -0.059301
vn -0.174204 -0.982922 -0.059301
vn -0.174204 -0.982922 -0.059301
vn -0.888575 0.081198 -0.451487
vn -0.888575 0.081198 -0.451487
vn -0.888575 0.081198 -0.451487
vn -0.903972 0.001900 -0.427587
vn -0.903972 0.001900 -0.427587
vn -0.903972 0.001900 -0.427587
vn -0.271397 0.709092 0.650793
vn -0.271397 0.709092 0.650793
vn -0.271397 0.709092 0.650793
vn 0.276302 -0.241602 0.930207
vn 0.276302 -0.241602 0.930207
vn 0.276302 -0.241602 0.930207
vn -0.466522 -0.703434 0.536226
vn -0.466522 -0.703434 0.536226
vn -0.466522 -0.703434 0.536226
vn -0.989574 -0.003000 0.143996
vn -0.989574 -0.003000 0.143996
vn -0.989574 -0.003000 0.143996
vn 0.676202 0.442288 -0.589179
vn 0.679969 0.446651 -0.581503
vn 0.679693 0.446330 -0.582072
vn 0.684213 0.451605 -0.572630
s off
g RArm
usemtl None
f 7/1/1 1/2/2 2/3/3
f 2/4/4 6/5/5 7/6/6
f 6/7/7 2/8/8 3/9/9
f 3/10/10 8/11/11 6/12/12
f 8/13/13 3/14/14 4/15/15
f 4/16/16 9/17/17 8/18/18
f 9/19/19 4/20/20 1/21/21
f 1/22/22 7/23/23 9/24/24
f 1/25/25 5/26/26 2/27/27
f 2/28/28 5/29/29 3/30/30
f 3/31/31 5/32/32 4/33/33
f 4/34/34 5/35/35 1/36/36
s 1
f 6/38/37 8/39/38 7/37/39
f 7/37/39 8/39/38 9/40/40
