# Blender v2.76 (sub 0) OBJ File: ''
# www.blender.org
mtllib colburTaller.mtl
o Cylinder.001_Cylinder.005
v 0.531366 2.246133 -0.695034
v 0.098553 2.977527 -0.219148
v 0.186246 2.977527 -0.163383
v 0.381551 2.748085 -0.287183
v 0.767294 2.191760 -0.043569
v 0.186246 2.977527 -0.051853
v 0.186246 2.985990 0.059677
v 0.461020 2.655124 0.232281
v 0.354829 2.229949 0.693686
v 0.098553 2.977527 0.115442
v 0.010860 2.977527 0.171206
v -0.001323 2.745489 0.480135
v -0.360596 2.155880 0.692762
v -0.076832 2.977527 0.115442
v -0.164526 2.991904 0.059677
v -0.393712 2.734730 0.203242
v 0.010860 2.980758 -0.274913
v -0.003209 3.124050 -0.043874
v -0.368536 2.300453 -0.730828
v -0.076832 2.977527 -0.219148
v 0.048049 2.595587 -0.677932
v -0.732571 2.203960 -0.055992
v -0.164526 2.977527 -0.051853
v -0.164526 2.977527 -0.163383
v -0.395681 2.771906 -0.249765
v 0.011383 -0.003873 -0.252383
v 0.110026 -0.003873 -0.195432
v 0.208668 -0.003873 -0.138481
v 0.208668 -0.003873 -0.024579
v 0.208668 -0.003873 0.089324
v 0.110026 -0.003873 0.146275
v 0.011383 -0.003873 0.203226
v -0.087259 -0.003873 0.146275
v -0.185902 -0.003873 0.089324
v -0.185902 -0.003873 -0.024579
v -0.185902 -0.003873 -0.138481
v -0.087259 -0.003873 -0.195432
v 0.372023 0.543970 1.239827
v 0.409973 1.227903 0.665080
v 0.043751 1.288437 0.823416
v 0.021559 0.519704 1.215300
v 0.289908 0.617060 0.457841
v 0.011383 0.617060 0.618647
v 0.431460 1.789884 0.734408
v 0.258900 2.190576 0.469161
v -0.003851 2.190576 0.542691
v -0.005277 1.927000 0.822507
v 0.187802 1.669512 0.935453
v 0.110026 0.444674 0.146275
v 0.011383 0.444674 0.203226
v -0.604946 0.553106 1.058737
v -0.387617 1.227903 0.665080
v -0.786412 1.227903 0.434836
v -1.058360 0.554657 0.601077
v -0.087259 0.444674 0.146275
v -0.267142 0.617060 0.457841
v -0.545667 0.617060 0.297034
v -0.185902 0.444674 0.089324
v -0.267142 0.617060 -0.506998
v -0.640936 0.721663 -1.117522
v 0.005470 0.784126 -1.256276
v 0.011383 0.617060 -0.667804
v -0.387617 1.227903 -0.716385
v 0.011178 1.227903 -0.946630
v -0.087259 0.444674 -0.195432
v 0.011383 0.444674 -0.252383
v -0.774965 1.789885 -0.086759
v -0.529353 2.190576 -0.032098
v -0.529353 2.190576 -0.366271
v -0.684610 1.789883 -0.393889
v -1.358312 0.585519 -0.040134
v -0.786412 1.227903 -0.025653
v -0.786412 1.227903 -0.486141
v -1.066404 0.686868 -0.634711
v -0.545667 0.617060 -0.024579
v -0.545667 0.617060 -0.346191
v -0.185902 0.444674 -0.024579
v -0.185902 0.444674 -0.138481
v 0.208668 0.444674 -0.024579
v 0.208668 0.444674 0.089324
v 0.568433 0.617060 -0.024579
v 0.568433 0.617060 0.297034
v 1.250692 0.624745 -0.030652
v 1.078608 0.612109 0.635062
v 0.927839 1.212192 0.005946
v 0.808768 1.227903 0.434836
v 0.110026 0.444674 -0.195432
v 0.208668 0.444674 -0.138481
v 0.289908 0.617060 -0.506998
v 0.568433 0.617060 -0.346191
v 0.604793 0.775749 -1.062381
v 1.085389 0.749172 -0.642053
v 0.409973 1.227903 -0.716385
v 0.808768 1.227903 -0.486141
v 0.643318 1.797834 0.568330
v 0.523596 2.207855 0.299847
v -0.266602 2.190576 0.469161
v -0.397259 1.789884 0.734408
v -0.166185 1.678193 0.930671
v -0.254143 2.256610 -0.533358
v -0.483538 1.748604 -0.918678
v -0.655943 1.540532 -0.820527
v 1.146263 1.235361 0.403016
v 0.987593 1.244155 0.839014
v 0.521651 2.190576 -0.366271
v 0.521651 2.190576 -0.032098
v 0.990973 1.923653 0.025362
v 0.946639 1.803589 -0.228248
v 0.583969 1.954641 -0.444083
v -0.691125 1.191997 -0.982292
v -0.478425 1.361105 -0.907156
v -0.529353 2.190576 0.302075
v -0.865193 1.908776 0.377713
v -0.749976 1.649661 0.586957
v -0.255917 1.289871 1.115749
v -0.578027 1.072600 1.006295
v 0.627058 1.233796 1.047433
v 1.128659 1.266489 -0.705466
v 1.345413 1.318275 -0.243582
v -1.167454 1.182524 -0.055439
v -1.080509 1.205329 -0.641904
v -0.498819 1.230619 -1.194743
v -0.924450 1.298379 0.442672
v -1.189651 1.164226 0.338435
v 0.220386 1.283999 1.141968
v 0.019754 1.416740 0.910101
v 0.900865 1.814053 0.330355
v 1.036128 1.310970 0.003096
v 0.518631 1.864376 -0.856422
v 0.246442 2.256610 -0.533358
v 0.670903 1.769171 -0.725910
v 0.553127 1.285507 -0.834875
v 0.872430 1.236106 -0.873424
v 0.469970 1.241279 -1.143746
v 0.693171 1.321804 -1.054862
v 0.017448 1.285073 -1.323244
v -0.597118 1.211964 -1.133908
v -0.314592 1.587993 -0.975955
v -0.963438 1.134366 0.674851
v -0.977041 1.647344 0.236459
v 0.039420 1.344516 1.162918
v 0.070508 2.152487 -0.945516
v -0.675409 2.095375 0.372206
v 0.622145 2.109084 0.413872
v 0.714499 2.277350 -0.416548
v -0.678168 2.227212 -0.430428
v -0.537581 2.414057 -0.336054
v -1.138194 1.195083 0.475377
v 0.357176 1.808833 -0.904018
v 1.267492 1.319209 0.127705
v 0.003931 2.099016 -0.683132
v -0.031742 2.151507 0.847980
v -0.005835 2.400143 0.637018
v 0.524458 2.391502 -0.331749
vt 0.492679 0.143896
vt 0.504460 0.132403
vt 0.559597 0.162484
vt 0.504319 0.113262
vt 0.503897 0.091676
vt 0.577312 0.076187
vt 0.422975 0.107598
vt 0.420083 0.125504
vt 0.350650 0.151486
vt 0.429084 0.138547
vt 0.435643 0.150339
vt 0.413920 0.185169
vt 0.484179 0.154661
vt 0.462096 0.120704
vt 0.472039 0.156346
vt 0.496771 0.182839
vt 0.447390 0.154190
vt 0.459365 0.160080
vt 0.452229 0.217792
vt 0.333101 0.955475
vt 0.305718 0.908046
vt 0.360484 0.908046
vt 0.176664 0.638490
vt 0.136536 0.458312
vt 0.192925 0.458434
vt 0.212711 0.618945
vt 0.240780 0.726978
vt 0.253930 0.162361
vt 0.227175 0.320443
vt 0.153844 0.279250
vt 0.995627 0.022273
vt 0.995627 0.040528
vt 0.911733 0.040528
vt 0.188391 0.772538
vt 0.296701 0.845961
vt 0.277265 0.623596
vt 0.255633 0.461214
vt 0.318015 0.463260
vt 0.295960 0.727133
vt 0.342899 0.700648
vt 0.366860 0.825376
vt 0.486819 0.612963
vt 0.545697 0.600716
vt 0.536909 0.695325
vt 0.329275 0.604026
vt 0.995627 0.058783
vt 0.995627 0.077039
vt 0.911733 0.077039
vt 0.488877 0.454680
vt 0.546149 0.469340
vt 0.485895 0.706335
vt 0.517381 0.824819
vt 0.911733 0.131805
vt 0.995627 0.131805
vt 0.995627 0.150060
vt 0.416715 0.355670
vt 0.412641 0.265738
vt 0.450901 0.272269
vt 0.383620 0.453765
vt 0.431301 0.471843
vt 0.432129 0.600045
vt 0.386208 0.613104
vt 0.437579 0.691515
vt 0.392485 0.709430
vt 0.441327 0.819583
vt 0.995627 0.095294
vt 0.995627 0.113549
vt 0.911733 0.113549
vt 0.995627 0.204826
vt 0.995627 0.223082
vt 0.911733 0.223081
vt 0.704466 0.762434
vt 0.808514 0.798415
vt 0.653029 0.891953
vt 0.722324 0.628877
vt 0.920552 0.603126
vt 0.745083 0.440980
vt 0.824324 0.440103
vt 0.995627 0.168315
vt 0.995627 0.186571
vt 0.911733 0.186571
vt 0.586809 0.719566
vt 0.646924 0.717603
vt 0.591825 0.845099
vt 0.600335 0.618193
vt 0.671934 0.609389
vt 0.608175 0.446729
vt 0.675862 0.462727
vt 0.241903 0.891953
vt 0.094465 0.816854
vt 0.995627 0.004017
vt 0.911733 0.022273
vt 0.130585 0.269024
vt 0.211900 0.117665
vt 0.000142 0.630149
vt 0.055629 0.462671
vt 0.355666 0.053486
vt 0.426240 0.086732
vt 0.335190 0.232332
vt 0.287446 0.330331
vt 0.911733 0.095294
vt 0.488856 0.360180
vt 0.436794 0.357744
vt 0.911733 0.168315
vt 0.780300 0.386274
vt 0.843434 0.339341
vt 0.657112 0.199643
vt 0.682852 0.313275
vt 0.632721 0.302705
vt 0.478526 0.397792
vt 0.360588 0.338074
vt 0.322152 0.358758
vt 0.232179 0.351083
vt 0.271540 0.395773
vt 0.145190 0.368781
vt 0.654291 0.382716
vt 0.709593 0.373057
vt 0.400167 0.404717
vt 0.487976 0.396097
vt 0.494551 0.393419
vt 0.335989 0.423049
vt 0.365374 0.411930
vt 0.206533 0.345736
vt 0.702205 0.167583
vt 0.862543 0.238579
vt 0.777075 0.292324
vt 0.568738 0.250492
vt 0.590391 0.312465
vt 0.739923 0.404315
vt 0.605847 0.373312
vt 0.616262 0.371388
vt 0.595959 0.373390
vt 0.620536 0.325667
vt 0.605140 0.354680
vt 0.434047 0.414794
vt 0.476328 0.381095
vt 0.555748 0.386398
vt 0.486648 0.381588
vt 0.499406 0.378716
vt 0.311675 0.417079
vt 0.376751 0.373707
vt 0.213766 0.368095
vt 0.208952 0.331993
vt 0.221468 0.336919
vt 0.234421 0.338464
vt 0.513587 0.220471
vt 0.536934 0.200973
vt 0.373979 0.252972
vt 0.395531 0.214653
vt 0.413449 0.225813
vt 0.242429 0.000142
vt 0.290784 0.096956
vt 0.485238 0.267821
vt 0.495469 0.228012
vt 0.368554 0.200519
vt 0.596544 0.133813
vt 0.695107 0.051333
vt 0.574736 0.177711
vt 0.444383 0.240076
vt 0.444975 0.233143
vt 0.353317 0.384283
vt 0.585487 0.329382
vt 0.728464 0.322892
vt 0.698012 0.270292
vt 0.526806 0.267293
vt 0.093107 0.365848
vt 0.450557 0.231090
vt 0.333958 0.164537
vt 0.325266 0.160669
vt 0.293322 0.202997
vt 0.329558 0.180678
vt 0.319532 0.177748
vt 0.316499 0.167220
vt 0.591838 0.181735
vt 0.583504 0.174697
vt 0.572259 0.186398
vt 0.614936 0.229912
vt 0.577806 0.194094
vt 0.587804 0.191897
vt 0.457464 0.239401
vt 0.455960 0.232927
vt 0.451184 0.243183
vt 0.565346 0.303456
vt 0.369611 0.923856
vt 0.360484 0.939665
vt 0.351356 0.955475
vt 0.314845 0.955475
vt 0.305718 0.939665
vt 0.296590 0.923856
vt 0.314845 0.892236
vt 0.333101 0.892236
vt 0.351356 0.892236
vt 0.269277 0.868915
vt 0.331571 0.836427
vt 0.911733 0.058783
vt 0.479132 0.823071
vt 0.911733 0.150060
vt 0.403850 0.823374
vt 0.911733 0.204826
vt 0.622447 0.868582
vt 0.554474 0.835719
vt 0.911733 0.004017
vt 0.335921 0.173639
vn 0.369800 0.743100 -0.557700
vn 0.571400 0.761300 -0.306400
vn 0.657400 0.678900 -0.327000
vn 0.704500 0.709300 -0.022600
vn 0.571600 0.761200 0.306300
vn 0.700700 0.618800 0.355200
vn 0.353700 0.732500 0.581700
vn 0.009700 0.809300 0.587300
vn -0.051300 0.710600 0.701700
vn -0.345000 0.720900 0.601100
vn -0.563100 0.766900 0.307900
vn -0.661800 0.653500 0.367400
vn -0.013400 0.773500 -0.633700
vn -0.034000 0.999300 0.013500
vn -0.370000 0.725400 -0.580400
vn 0.042900 0.658700 -0.751200
vn -0.714700 0.699100 -0.022300
vn -0.536200 0.779200 -0.324700
vn -0.696700 0.680600 -0.226800
vn 0.707100 -0.707100 -0.000000
vn -0.353600 -0.707100 0.612400
vn -0.353600 -0.707100 -0.612400
vn 0.312800 -0.449400 0.836800
vn 0.418700 -0.457500 0.784500
vn -0.091500 -0.412200 0.906500
vn -0.145900 -0.579600 0.801700
vn 0.000300 -0.998400 0.057100
vn 0.099300 -0.269100 0.958000
vn -0.015700 0.625200 0.780300
vn 0.416300 0.584600 0.696400
vn 0.423100 -0.532900 0.732800
vn -0.000000 -0.656000 0.754700
vn -0.000000 -0.610000 0.792400
vn 0.104700 -0.982100 0.156500
vn -0.403100 -0.468600 0.786100
vn -0.120600 -0.552200 0.824900
vn -0.858600 -0.498500 0.119300
vn -0.088100 -0.984300 0.152600
vn -0.076400 -0.996700 0.027300
vn -0.653600 -0.656000 0.377400
vn -0.441500 -0.308000 -0.842700
vn 0.016100 -0.257700 -0.966100
vn 0.025300 -0.961300 -0.274200
vn -0.694800 -0.545600 0.468600
vn -0.423100 -0.532900 0.732800
vn -0.686200 -0.610000 0.396200
vn -0.273500 -0.244500 -0.930300
vn -0.106500 -0.546900 -0.830400
vn -0.145800 -0.956500 -0.252600
vn -0.000000 -0.656000 -0.754700
vn -0.423100 -0.532900 -0.732800
vn -0.832200 0.498700 -0.242500
vn -0.909200 -0.275600 -0.312100
vn -0.849900 0.334400 -0.407400
vn -0.872700 -0.487100 -0.033000
vn -0.684900 -0.665300 -0.297300
vn -0.787300 -0.367100 -0.495300
vn -0.917200 -0.392100 -0.071000
vn -0.133100 -0.982100 -0.133600
vn -0.202600 -0.979300 -0.000000
vn -0.653600 -0.656000 -0.377400
vn -0.846200 -0.532900 0.000000
vn -0.686200 -0.610000 -0.396200
vn 0.846200 -0.532900 0.000000
vn 0.653600 -0.656000 0.377400
vn 0.686200 -0.610000 0.396200
vn 0.227100 -0.973900 -0.000000
vn 0.114800 -0.991600 0.060100
vn 0.881700 -0.471000 -0.026100
vn 0.753500 -0.435800 0.492300
vn 0.965800 -0.239400 -0.100000
vn 0.616000 -0.615100 0.492200
vn 0.423100 -0.532900 -0.732800
vn 0.653600 -0.656000 -0.377400
vn 0.686200 -0.610000 -0.396200
vn 0.169200 -0.941000 -0.293100
vn 0.174600 -0.969800 -0.170200
vn 0.468100 -0.291600 -0.834200
vn 0.791300 -0.301100 -0.532200
vn 0.547800 -0.321300 -0.772400
vn 0.744500 -0.510000 -0.430900
vn 0.353600 -0.707100 0.612400
vn 0.489700 0.589100 0.642800
vn -0.191500 -0.370900 0.908700
vn -0.111700 -0.367800 0.923200
vn -0.429500 0.515400 0.741600
vn -0.707100 -0.707100 -0.000000
vn -0.406000 0.518400 -0.752600
vn -0.834500 0.466000 -0.294000
vn 0.353600 -0.707100 -0.612400
vn 0.781400 -0.564900 0.265100
vn 0.668000 -0.385300 0.636600
vn 0.801700 -0.249000 -0.543400
vn 0.674300 0.635400 -0.376400
vn 0.681500 0.640300 -0.354400
vn -0.372100 -0.703600 -0.605300
vn -0.747100 0.590000 0.306000
vn -0.540400 0.379800 0.750800
vn -0.088500 -0.409300 0.908100
vn -0.203900 -0.712500 0.671400
vn 0.345000 -0.464500 0.815600
vn 0.752200 -0.376600 -0.540700
vn 0.947700 -0.311500 -0.069200
vn -0.828600 -0.533200 -0.170400
vn 0.230800 -0.957000 -0.175800
vn -0.518600 -0.494200 -0.697800
vn -0.016100 -0.976600 -0.214300
vn -0.733400 -0.630700 0.253500
vn -0.044500 -0.498900 0.865500
vn 0.683800 0.544800 0.485400
vn 0.644300 -0.522000 -0.558900
vn 0.427500 0.611700 -0.665600
vn 0.369500 -0.920300 -0.128600
vn 0.155800 -0.982600 -0.101000
vn 0.422400 -0.623700 -0.657700
vn 0.374800 -0.569800 -0.731400
vn 0.711700 0.590500 -0.380600
vn 0.532900 -0.295300 -0.793000
vn -0.825800 -0.409200 -0.388100
vn -0.733400 0.470600 -0.490600
vn 0.012300 -0.307100 -0.951600
vn -0.334300 -0.659500 -0.673300
vn -0.110900 0.514200 -0.850500
vn -0.644900 -0.669600 0.368400
vn -0.886100 0.449600 -0.113200
vn -0.026400 -0.886500 0.462000
vn 0.271800 0.529200 0.803800
vn -0.051600 -0.473500 0.879300
vn -0.308400 0.498300 0.810300
vn 0.062300 -0.463600 -0.883900
vn 0.658300 -0.407700 -0.632800
vn -0.473600 -0.772500 0.423100
vn -0.656100 -0.694700 0.294800
vn -0.852000 -0.470100 -0.230400
vn 0.613800 -0.698800 0.367200
vn 0.268700 -0.344200 0.899600
vn -0.533900 -0.438800 -0.722700
vn -0.575500 -0.238000 -0.782400
vn -0.256300 -0.542900 0.799700
vn 0.891700 -0.448000 -0.064100
vn 0.854000 -0.393100 -0.340800
vn -0.186200 -0.981900 0.034800
vn -0.806100 -0.589600 -0.050900
vn -0.668700 -0.594700 0.446300
vn 0.097600 0.545800 -0.832200
vn 0.908800 -0.389000 0.150600
vn 0.758500 0.650500 -0.039200
vn -0.102700 -0.038500 -0.994000
vn 0.041200 -0.719500 0.693300
vn 0.001200 0.217100 0.976100
vn 0.050100 -0.998100 0.035000
vn 0.225800 -0.958100 -0.176400
vn 0.864300 0.235900 -0.444300
vn -0.000000 -0.610000 -0.792400
usemtl Material.007
s 1
f 2/1/1 3/2/2 4/3/3
f 6/4/4 7/5/5 8/6/6
f 10/7/7 11/8/8 12/9/9
f 14/10/10 15/11/11 16/12/12
f 2/1/1 17/13/13 18/14/14
f 20/15/15 17/13/13 21/16/16
f 23/17/17 24/18/18 25/19/19
f 29/20/20 33/21/21 37/22/22
f 38/23/23 39/24/24 40/25/25
f 38/23/23 41/26/26 43/27/27
f 45/28/28 47/29/29 44/30/30
f 49/31/31 50/32/32 32/33/33
f 42/34/34 43/27/27 50/35/32
f 51/36/35 52/37/36 53/38/37
f 56/39/38 57/40/39 58/41/40
f 60/42/41 61/43/42 62/44/43
f 51/36/35 54/45/44 57/40/39
f 55/46/45 58/47/40 34/48/46
f 63/49/47 64/50/48 61/43/42
f 59/51/49 62/44/43 66/52/50
f 37/53/22 65/54/51 66/55/50
f 67/56/52 68/57/53 69/58/54
f 72/59/55 73/60/56 74/61/57
f 71/62/58 74/61/57 76/63/59
f 75/64/60 76/63/59 78/65/61
f 77/66/62 78/67/61 36/68/63
f 79/69/64 80/70/65 30/71/66
f 81/72/67 82/73/68 80/74/65
f 83/75/69 84/76/70 82/73/68
f 85/77/71 86/78/72 84/76/70
f 87/79/73 88/80/74 28/81/75
f 89/82/76 90/83/77 88/84/74
f 91/85/78 92/86/79 90/83/77
f 91/85/78 93/87/80 94/88/81
f 80/89/65 82/90/68 42/34/34
f 80/91/65 49/31/31 31/92/82
f 95/93/83 96/94/84 45/28/28
f 84/95/70 38/23/23 42/34/34
f 84/95/70 86/96/72 39/24/24
f 8/97/6 7/98/5 10/7/7
f 32/33/33 50/32/32 55/46/45
f 43/27/27 41/26/26 51/36/35
f 50/35/32 43/27/27 56/39/38
f 97/99/85 98/100/86 47/29/29
f 41/26/26 40/25/25 52/37/36
f 12/9/9 11/8/8 14/10/10
f 58/47/40 77/66/62 35/101/87
f 58/41/40 57/40/39 75/64/60
f 57/40/39 54/45/44 71/62/58
f 53/38/37 72/59/55 71/62/58
f 16/12/12 15/11/11 23/17/17
f 78/67/61 65/54/51 37/53/22
f 78/65/61 76/63/59 59/51/49
f 73/60/56 63/49/47 60/42/41
f 76/63/59 74/61/57 60/42/41
f 69/58/54 101/102/88 70/103/89
f 25/19/19 24/18/18 20/15/15
f 64/50/48 93/87/80 91/85/78
f 62/44/43 61/43/42 91/85/78
f 66/52/50 62/44/43 89/82/76
f 66/55/50 87/79/73 27/104/90
f 21/16/16 17/13/13 2/1/1
f 103/105/91 104/106/92 86/78/72
f 92/86/79 94/88/81 85/77/71
f 90/83/77 92/86/79 83/75/69
f 88/84/74 90/83/77 81/72/67
f 28/81/75 88/80/74 79/69/64
f 4/3/3 3/2/2 6/4/4
f 106/107/93 108/108/94 109/109/95
f 63/49/47 73/60/56 110/110/96
f 113/111/97 114/112/98 98/100/86
f 115/113/99 116/114/100 52/37/36
f 95/93/83 44/30/30 117/115/101
f 118/116/102 119/117/103 94/88/81
f 120/118/104 67/56/52 70/103/89
f 111/119/105 122/120/106 64/50/48
f 123/121/107 124/122/108 72/59/55
f 40/25/25 39/24/24 125/123/109
f 96/124/84 95/125/83 127/126/110
f 103/105/91 86/78/72 85/77/71
f 130/127/111 109/109/95 129/128/112
f 94/88/81 119/117/103 128/129/113
f 132/130/114 133/131/115 94/88/81
f 93/87/80 64/50/48 134/132/116
f 131/133/117 109/109/95 118/116/102
f 132/130/114 135/134/118 133/131/115
f 132/130/114 134/132/116 135/134/118
f 121/135/119 70/103/89 102/136/120
f 122/120/106 136/137/121 64/50/48
f 110/110/96 102/136/120 137/138/122
f 137/138/122 138/139/123 122/120/106
f 111/119/105 110/110/96 137/138/122
f 111/119/105 137/138/122 122/120/106
f 102/136/120 101/102/88 137/138/122
f 137/138/122 101/102/88 138/139/123
f 116/114/100 139/140/124 52/37/36
f 124/122/108 120/118/104 72/59/55
f 67/56/52 140/141/125 113/111/97
f 53/38/37 52/37/36 139/140/124
f 40/25/25 126/142/126 115/113/99
f 117/115/101 44/30/30 48/143/127
f 48/143/127 47/29/29 141/144/128
f 126/142/126 125/123/109 141/144/128
f 141/144/128 99/145/129 115/113/99
f 125/123/109 48/143/127 141/144/128
f 126/142/126 141/144/128 115/113/99
f 141/144/128 47/29/29 99/145/129
f 142/146/130 1/147/131 130/127/111
f 112/148/132 143/149/133 22/150/134
f 144/151/135 9/152/136 45/28/28
f 100/153/137 19/154/138 142/146/130
f 13/155/139 143/149/133 112/148/132
f 106/107/93 5/156/140 144/157/135
f 18/14/14 24/18/18 23/17/17
f 3/2/2 2/1/1 18/14/14
f 18/14/14 11/8/8 10/7/7
f 20/15/15 24/18/18 18/14/14
f 18/14/14 14/10/10 11/8/8
f 14/10/10 18/14/14 15/11/11
f 6/4/4 3/2/2 18/14/14
f 145/158/141 4/3/3 5/156/140
f 147/159/142 68/57/53 22/150/134
f 146/160/143 22/150/134 25/19/19
f 148/161/144 140/141/125 124/122/108
f 123/121/107 148/161/144 124/122/108
f 113/111/97 140/141/125 148/161/144
f 114/112/98 113/111/97 148/161/144
f 148/161/144 123/121/107 139/140/124
f 114/112/98 148/161/144 139/140/124
f 134/132/116 149/162/145 135/134/118
f 149/162/145 129/128/112 135/134/118
f 135/134/118 129/128/112 131/133/117
f 133/131/115 135/134/118 131/133/117
f 150/163/146 127/126/110 103/105/91
f 150/163/146 103/105/91 128/129/113
f 108/108/94 150/163/146 119/117/103
f 119/117/103 150/163/146 128/129/113
f 150/163/146 107/164/147 127/126/110
f 108/108/94 107/164/147 150/163/146
f 144/157/135 5/156/140 8/6/6
f 144/151/135 8/97/6 9/152/136
f 142/146/130 21/16/16 1/147/131
f 142/146/130 19/154/138 21/16/16
f 143/149/133 16/12/12 22/150/134
f 143/149/133 13/155/139 16/12/12
f 96/124/84 106/107/93 144/157/135
f 96/94/84 144/151/135 45/28/28
f 85/77/71 94/88/81 128/129/113
f 151/165/148 142/146/130 130/127/111
f 151/165/148 100/153/137 142/146/130
f 127/126/110 95/125/83 104/106/92
f 104/166/92 117/115/101 39/24/24
f 39/24/24 117/115/101 125/123/109
f 94/88/81 133/131/115 118/116/102
f 108/108/94 119/117/103 118/116/102
f 64/50/48 136/137/121 134/132/116
f 73/60/56 121/135/119 110/110/96
f 120/118/104 121/135/119 73/60/56
f 140/141/125 67/56/52 120/118/104
f 98/100/86 116/114/100 115/113/99
f 114/112/98 139/140/124 116/114/100
f 25/19/19 19/154/138 146/167/143
f 152/168/149 12/9/9 13/155/139
f 152/169/149 9/152/136 12/9/9
f 97/99/85 46/170/150 153/171/151
f 46/170/150 45/28/28 153/172/151
f 13/155/139 97/99/85 153/171/151
f 153/173/151 45/28/28 9/152/136
f 154/174/152 145/175/141 106/107/93
f 4/3/3 145/176/141 1/147/131
f 105/177/153 154/174/152 106/107/93
f 145/175/141 5/156/140 106/107/93
f 130/127/111 145/178/141 154/179/152
f 1/147/131 145/178/141 130/127/111
f 100/153/137 147/180/142 146/181/143
f 69/58/54 68/57/53 147/182/142
f 100/153/137 69/58/54 147/180/142
f 101/102/88 100/153/137 151/183/148
f 136/137/121 151/183/148 149/162/145
f 130/127/111 129/128/112 149/162/145
f 138/139/123 151/183/148 136/137/121
f 1/147/131 2/1/1 4/3/3
f 5/156/140 6/4/4 8/6/6
f 9/152/136 10/7/7 12/9/9
f 13/155/139 14/10/10 16/12/12
f 19/154/138 20/15/15 21/16/16
f 22/150/134 23/17/17 25/19/19
f 37/22/22 26/184/154 27/185/90
f 27/185/90 28/186/75 29/20/20
f 29/20/20 30/187/66 31/188/82
f 31/188/82 32/189/33 33/21/21
f 33/21/21 34/190/46 35/191/87
f 35/191/87 36/192/63 37/22/22
f 37/22/22 27/185/90 29/20/20
f 29/20/20 31/188/82 33/21/21
f 33/21/21 35/191/87 37/22/22
f 41/26/26 38/23/23 40/25/25
f 42/34/34 38/23/23 43/27/27
f 48/143/127 44/30/30 47/29/29
f 45/28/28 46/170/150 47/29/29
f 31/92/82 49/31/31 32/33/33
f 49/193/31 42/34/34 50/35/32
f 54/45/44 51/36/35 53/38/37
f 55/194/45 56/39/38 58/41/40
f 59/51/49 60/42/41 62/44/43
f 56/39/38 51/36/35 57/40/39
f 33/195/21 55/46/45 34/48/46
f 60/42/41 63/49/47 61/43/42
f 65/196/51 59/51/49 66/52/50
f 26/197/154 37/53/22 66/55/50
f 70/103/89 67/56/52 69/58/54
f 71/62/58 72/59/55 74/61/57
f 75/64/60 71/62/58 76/63/59
f 77/198/62 75/64/60 78/65/61
f 35/101/87 77/66/62 36/68/63
f 29/199/20 79/69/64 30/71/66
f 79/200/64 81/72/67 80/74/65
f 81/72/67 83/75/69 82/73/68
f 83/75/69 85/77/71 84/76/70
f 27/104/90 87/79/73 28/81/75
f 87/201/73 89/82/76 88/84/74
f 89/82/76 91/85/78 90/83/77
f 92/86/79 91/85/78 94/88/81
f 49/193/31 80/89/65 42/34/34
f 30/202/66 80/91/65 31/92/82
f 44/30/30 95/93/83 45/28/28
f 82/90/68 84/95/70 42/34/34
f 38/23/23 84/95/70 39/24/24
f 9/152/136 8/97/6 10/7/7
f 33/195/21 32/33/33 55/46/45
f 56/39/38 43/27/27 51/36/35
f 55/194/45 50/35/32 56/39/38
f 99/145/129 47/29/29 98/100/86
f 46/170/150 97/99/85 47/29/29
f 51/36/35 41/26/26 52/37/36
f 13/155/139 12/9/9 14/10/10
f 34/48/46 58/47/40 35/101/87
f 77/198/62 58/41/40 75/64/60
f 75/64/60 57/40/39 71/62/58
f 54/45/44 53/38/37 71/62/58
f 22/150/134 16/12/12 23/17/17
f 36/68/63 78/67/61 37/53/22
f 65/196/51 78/65/61 59/51/49
f 74/61/57 73/60/56 60/42/41
f 59/51/49 76/63/59 60/42/41
f 102/136/120 70/103/89 101/102/88
f 69/58/54 100/153/137 101/102/88
f 19/154/138 25/19/19 20/15/15
f 61/43/42 64/50/48 91/85/78
f 89/82/76 62/44/43 91/85/78
f 87/201/73 66/52/50 89/82/76
f 26/197/154 66/55/50 27/104/90
f 1/147/131 21/16/16 2/1/1
f 83/75/69 92/86/79 85/77/71
f 81/72/67 90/83/77 83/75/69
f 79/200/64 88/84/74 81/72/67
f 29/199/20 28/81/75 79/69/64
f 5/156/140 4/3/3 6/4/4
f 109/109/95 105/177/153 106/107/93
f 106/107/93 107/164/147 108/108/94
f 111/119/105 63/49/47 110/110/96
f 98/100/86 97/99/85 112/148/132
f 112/148/132 113/111/97 98/100/86
f 104/166/92 95/93/83 117/115/101
f 121/135/119 120/118/104 70/103/89
f 63/49/47 111/119/105 64/50/48
f 53/38/37 123/121/107 72/59/55
f 126/142/126 40/25/25 125/123/109
f 127/126/110 107/164/147 96/124/84
f 106/107/93 96/124/84 107/164/147
f 128/129/113 103/105/91 85/77/71
f 131/133/117 129/128/112 109/109/95
f 130/127/111 105/177/153 109/109/95
f 93/87/80 132/130/114 94/88/81
f 132/130/114 93/87/80 134/132/116
f 133/131/115 131/133/117 118/116/102
f 110/110/96 121/135/119 102/136/120
f 113/111/97 112/148/132 68/57/53
f 68/57/53 67/56/52 113/111/97
f 123/121/107 53/38/37 139/140/124
f 52/37/36 40/25/25 115/113/99
f 125/123/109 117/115/101 48/143/127
f 68/57/53 112/148/132 22/150/134
f 97/99/85 13/155/139 112/148/132
f 15/11/11 18/14/14 23/17/17
f 7/98/5 18/14/14 10/7/7
f 17/13/13 20/15/15 18/14/14
f 7/5/5 6/4/4 18/14/14
f 146/160/143 147/159/142 22/150/134
f 103/105/91 127/126/110 104/106/92
f 86/96/72 104/166/92 39/24/24
f 109/109/95 108/108/94 118/116/102
f 72/59/55 120/118/104 73/60/56
f 124/122/108 140/141/125 120/118/104
f 99/145/129 98/100/86 115/113/99
f 98/100/86 114/112/98 116/114/100
f 152/203/149 13/155/139 153/171/151
f 152/169/149 153/173/151 9/152/136
f 105/177/153 130/127/111 154/179/152
f 19/154/138 100/153/137 146/181/143
f 138/139/123 101/102/88 151/183/148
f 134/132/116 136/137/121 149/162/145
f 151/165/148 130/127/111 149/162/145
f 122/120/106 138/139/123 136/137/121
