# This file uses centimeters as units for non-parametric coordinates.

mtllib WhimsicottRArm.mtl
g default1
v -2.142251 -1.800098 0.000000
v -2.142251 -1.710190 -0.309653
v -2.258907 -1.556218 -0.297539
v -2.258907 -1.556218 0.000000
v -2.142251 -1.710190 0.456404
v -2.258907 -1.556218 0.405786
v -0.605407 0.057775 0.660710
v -0.605407 0.057775 0.000000
v -0.605407 0.057775 -0.554676
v -0.751513 -1.434993 -0.850279
v -0.751513 -1.589861 0.000000
v -0.751513 -1.310022 1.013176
v -1.731796 -0.820548 0.501518
v -1.731796 -0.820548 0.005232
v -1.731796 -0.820548 -0.383593
v -1.525442 -1.614765 -0.501580
v -1.525442 -1.769633 0.000000
v -1.525442 -1.614765 0.654063
v -0.578429 -1.397448 0.000000
v -0.530379 -1.186006 -1.179435
v 0.271512 0.462032 -0.711232
v 0.271512 0.462032 0.000000
v -0.530379 -1.186006 1.352162
v 0.271512 0.462032 0.815918
vt 0.818026 0.801898
vt 0.818026 0.819029
vt 0.848203 0.808213
vt 0.847023 0.819029
vt 0.773548 0.808213
vt 0.778481 0.819029
vt 0.818026 0.816665
vt 0.900889 0.827543
vt 0.818026 0.830181
vt 0.932966 0.845033
vt 0.872081 0.932397
vt 0.887338 0.960792
vt 0.818026 0.960792
vt 0.818026 0.932397
vt 0.686253 0.845033
vt 0.719289 0.836322
vt 0.753638 0.932397
vt 0.738512 0.960792
vt 0.817516 0.870703
vt 0.769152 0.870703
vt 0.855409 0.870703
vt 0.866907 0.814916
vt 0.818026 0.804038
vt 0.754285 0.814916
vt 0.800735 0.862352
vt 0.838414 0.812542
vt 0.904514 0.866342
vt 0.863768 0.942813
vt 0.710392 0.890786
vt 0.731862 0.866790
vn -0.864746 -0.502206 0.001782
vn -0.864721 -0.502252 0.000000
vn -0.861208 -0.502771 -0.074447
vn -0.861208 -0.502771 -0.074447
vn -0.864322 -0.500227 0.052164
vn -0.864322 -0.500227 0.052164
vn -0.864746 -0.502206 0.001782
vn -0.864721 -0.502252 0.000000
vn 0.338258 -0.940324 0.037056
vn 0.472360 -0.864863 -0.169966
vn 0.624111 -0.780949 0.024594
vn 0.698674 -0.706775 -0.111014
vn -0.413747 0.224383 -0.882307
vn -0.479361 0.286010 -0.829706
vn -0.545121 0.349817 -0.761887
vn -0.545121 0.349817 -0.761886
vn -0.418653 0.908146 0.000000
vn -0.516337 0.856386 0.000000
vn -0.418653 0.908146 0.000000
vn -0.526363 0.850260 0.000000
vn 0.529054 -0.832932 0.162253
vn 0.385237 -0.899252 0.207214
vn 0.624111 -0.780949 0.024594
vn 0.338258 -0.940324 0.037056
vn -0.526363 0.850260 0.000000
vn -0.519128 0.854697 0.000000
vn -0.418653 0.908146 0.000000
vn -0.418653 0.908146 0.000000
vn -0.527058 0.388416 0.755872
vn -0.477793 0.326461 0.815560
vn -0.527058 0.388416 0.755872
vn -0.435268 0.274907 0.857303
vn -0.685214 0.728342 0.000000
vn -0.680359 0.732879 0.000000
vn -0.526363 0.850260 0.000000
vn -0.519128 0.854697 0.000000
vn -0.516337 0.856386 0.000000
vn -0.677423 0.735594 0.000000
vn -0.526363 0.850260 0.000000
vn -0.685214 0.728342 0.000000
vn -0.326508 0.135008 -0.935503
vn -0.332756 0.144673 -0.931849
vn -0.413747 0.224383 -0.882307
vn -0.479361 0.286010 -0.829706
vn 0.163183 -0.986217 0.027328
vn 0.146303 -0.960705 -0.235885
vn 0.338258 -0.940324 0.037056
vn 0.472360 -0.864863 -0.169966
vn 0.385237 -0.899252 0.207214
vn 0.197291 -0.950858 0.238631
vn 0.338258 -0.940324 0.037056
vn 0.163183 -0.986217 0.027328
vn -0.477793 0.326461 0.815560
vn -0.365043 0.187991 0.911813
vn -0.435268 0.274907 0.857303
vn -0.359475 0.178035 0.916014
vn -0.812880 0.582432 0.000000
vn -0.812879 0.582432 0.000000
vn -0.685214 0.728342 0.000000
vn -0.680359 0.732879 0.000000
vn -0.677423 0.735594 0.000000
vn -0.812879 0.582432 0.000000
vn -0.685214 0.728342 0.000000
vn -0.812880 0.582432 0.000000
vn -0.264657 0.042033 -0.963426
vn -0.264657 0.042033 -0.963426
vn -0.326508 0.135008 -0.935503
vn -0.332756 0.144673 -0.931849
vn 0.061713 -0.998094 0.000344
vn 0.052683 -0.956039 -0.288470
vn 0.163183 -0.986217 0.027328
vn 0.146303 -0.960705 -0.235885
vn 0.197291 -0.950858 0.238631
vn 0.065029 -0.974490 0.214804
vn 0.163183 -0.986217 0.027328
vn 0.061713 -0.998094 0.000344
vn -0.365043 0.187991 0.911813
vn -0.312249 0.096135 0.945124
vn -0.359475 0.178035 0.916014
vn -0.312249 0.096135 0.945124
vn 0.903072 -0.428072 0.034848
vn 0.907144 -0.420793 -0.004835
vn 0.906670 -0.421530 0.016191
vn 0.906973 -0.421076 -0.009753
vn 0.907715 -0.418316 -0.032632
vn 0.899204 -0.437529 0.000000
s 1
g RArm
usemtl None
f 1/1/1 4/2/2 2/3/3
f 2/3/3 4/2/2 3/4/4
s 2
f 5/5/5 6/6/6 1/1/7
f 1/1/7 6/6/6 4/2/8
s 3
f 11/7/9 10/8/10 19/9/11
f 19/9/11 10/8/10 20/10/12
s 4
f 10/8/13 9/11/14 20/10/15
f 20/10/15 9/11/14 21/12/16
s 5
f 21/12/17 9/11/18 22/13/19
f 22/13/19 9/11/18 8/14/20
s 6
f 23/15/21 12/16/22 19/9/23
f 19/9/23 12/16/22 11/7/24
s 7
f 8/14/25 7/17/26 22/13/27
f 22/13/27 7/17/26 24/18/28
s 8
f 24/18/29 7/17/30 23/15/31
f 23/15/31 7/17/30 12/16/32
s 9
f 14/19/33 13/20/34 8/14/35
f 8/14/35 13/20/34 7/17/36
s 10
f 9/11/37 15/21/38 8/14/39
f 8/14/39 15/21/38 14/19/40
s 11
f 16/22/41 15/21/42 10/8/43
f 10/8/43 15/21/42 9/11/44
s 12
f 17/23/45 16/22/46 11/7/47
f 11/7/47 16/22/46 10/8/48
s 13
f 12/16/49 18/24/50 11/7/51
f 11/7/51 18/24/50 17/23/52
s 14
f 7/17/53 13/20/54 12/16/55
f 12/16/55 13/20/54 18/24/56
s 15
f 4/2/57 6/6/58 14/19/59
f 14/19/59 6/6/58 13/20/60
s 16
f 15/21/61 3/4/62 14/19/63
f 14/19/63 3/4/62 4/2/64
s 17
f 2/3/65 3/4/66 16/22/67
f 16/22/67 3/4/66 15/21/68
s 18
f 1/1/69 2/3/70 17/23/71
f 17/23/71 2/3/70 16/22/72
s 19
f 18/24/73 5/5/74 17/23/75
f 17/23/75 5/5/74 1/1/76
s 20
f 13/20/77 6/6/78 18/24/79
f 18/24/79 6/6/78 5/5/80
s 21
f 23/27/81 19/28/82 24/26/83
f 24/26/83 19/28/82 22/25/84
f 19/28/82 20/29/85 22/25/84
f 22/25/84 20/29/85 21/30/86
