# This file uses centimeters as units for non-parametric coordinates.

mtllib WhimsicottLLeg.mtl
g default1
v 0.858532 -0.722095 1.087365
v 0.858532 -0.722095 -1.015920
v 0.858532 -0.722095 0.003704
v -0.088802 -1.841620 -0.345712
v -0.088802 -1.841620 0.001540
v 0.604996 -1.795059 -0.403547
v 0.604996 -1.795059 0.003704
v -0.088802 -1.841620 0.430584
v 0.604996 -1.795059 0.415587
v 0.872803 0.238053 0.000000
v 0.872803 0.196945 1.574418
v 0.872803 0.238053 -1.322821
v -0.396468 0.196945 2.005822
v -0.887870 -1.105863 1.267671
v -0.887870 -0.992639 -1.014691
v -0.396468 0.238053 -1.611460
v -0.887870 -1.105863 0.001540
vt 0.817665 0.652847
vt 0.818026 0.720289
vt 0.712059 0.652847
vt 0.664594 0.717401
vt 0.917031 0.652847
vt 0.946940 0.720289
vt 0.694487 0.625891
vt 0.622552 0.717401
vt 0.916911 0.633844
vt 0.975069 0.720289
vt 0.817876 0.574211
vt 0.851717 0.574211
vt 0.817665 0.577481
vt 0.857353 0.577481
vt 0.776064 0.574211
vt 0.777526 0.577481
vt 0.817876 0.625891
vt 0.793670 0.639657
vt 0.848080 0.614786
vt 0.894564 0.650402
vt 0.894329 0.695012
vt 0.798920 0.693618
vt 0.649078 0.701679
vt 0.709436 0.676593
vt 0.737854 0.622180
vn 0.994746 -0.102377 -0.000074
vn 0.999888 -0.015000 -0.000122
vn 0.997660 -0.068365 -0.000177
vn 0.999886 -0.015127 -0.000234
vn 0.994746 -0.102377 -0.000074
vn 0.997092 -0.076212 0.000000
vn 0.999888 -0.015000 -0.000122
vn 0.999890 -0.014862 0.000000
vn 0.232866 -0.509714 0.828230
vn 0.232866 -0.509714 0.828230
vn 0.232866 -0.509714 0.828230
vn 0.232866 -0.509714 0.828230
vn 0.091031 -0.466777 -0.879678
vn 0.122567 -0.402483 -0.907185
vn 0.096401 -0.456099 -0.884692
vn 0.122567 -0.402483 -0.907185
vn 0.066960 -0.997756 0.000000
vn 0.066960 -0.997756 0.000000
vn 0.066960 -0.997756 0.000000
vn 0.066960 -0.997756 0.000000
vn 0.066960 -0.997756 0.000000
vn 0.066960 -0.997756 0.000000
vn 0.066960 -0.997756 0.000000
vn 0.066960 -0.997756 0.000000
vn -0.690108 -0.721224 -0.059890
vn -0.690108 -0.721224 -0.059890
vn -0.683591 -0.729340 -0.027699
vn -0.683442 -0.729506 -0.027004
vn 0.091031 -0.466777 -0.879678
vn 0.096401 -0.456099 -0.884692
vn 0.050429 -0.544062 -0.837528
vn 0.050429 -0.544062 -0.837528
vn 0.997092 -0.076212 0.000000
vn 0.994746 -0.102377 -0.000074
vn 0.973200 -0.229962 0.000000
vn 0.973200 -0.229962 0.000000
vn -0.677363 -0.735649 0.000000
vn -0.683591 -0.729340 -0.027699
vn -0.677363 -0.735649 0.000000
vn -0.683442 -0.729506 -0.027004
vn 0.997660 -0.068365 -0.000177
vn 0.973200 -0.229962 0.000000
vn 0.994746 -0.102377 -0.000074
vn 0.973200 -0.229962 0.000000
vn 0.168512 -0.600959 0.781314
vn 0.168512 -0.600959 0.781314
vn 0.168512 -0.600959 0.781314
vn 0.168512 -0.600959 0.781314
vn 0.000000 1.000000 0.000000
vn -0.576955 0.678681 0.454440
vn -0.577495 0.805002 0.135907
vn -0.661515 0.672112 0.332662
vn -0.602370 0.797107 0.042074
vn -0.563220 0.799059 -0.210447
vn -0.562807 0.804896 -0.188125
vn -0.268849 0.549577 -0.791003
s 1
g LLeg
usemtl None
f 3/1/1 10/2/2 1/3/3
f 1/3/3 10/2/2 11/4/4
s 2
f 3/1/5 2/5/6 10/2/7
f 10/2/7 2/5/6 12/6/8
s 3
f 14/7/9 1/3/10 13/8/11
f 13/8/11 1/3/10 11/4/12
s 4
f 15/9/13 16/10/14 2/5/15
f 2/5/15 16/10/14 12/6/16
s 5
f 5/11/17 4/12/18 7/13/19
f 7/13/19 4/12/18 6/14/20
s 6
f 8/15/21 5/11/22 9/16/23
f 9/16/23 5/11/22 7/13/24
s 7
f 15/9/25 4/12/26 17/17/27
f 17/17/27 4/12/26 5/11/28
s 8
f 15/9/29 2/5/30 4/12/31
f 4/12/31 2/5/30 6/14/32
s 9
f 2/5/33 3/1/34 6/14/35
f 6/14/35 3/1/34 7/13/36
s 10
f 14/7/37 17/17/38 8/15/39
f 8/15/39 17/17/38 5/11/40
s 11
f 1/3/41 9/16/42 3/1/43
f 3/1/43 9/16/42 7/13/44
s 12
f 14/7/45 8/15/46 1/3/47
f 1/3/47 8/15/46 9/16/48
s 13
f 12/19/49 16/20/50 10/18/51
f 16/20/50 15/21/52 10/18/51
f 15/21/52 17/22/53 10/18/51
f 10/18/51 17/22/53 11/25/54
f 17/22/53 14/23/55 11/25/54
f 14/23/55 13/24/56 11/25/54
