# This file uses centimeters as units for non-parametric coordinates.

mtllib OshawottLArm.mtl
g default
v 0.203057 0.062438 -0.316442
v -0.055317 -0.195936 -0.316442
v 0.139953 -0.518293 -0.472092
v 0.525414 -0.132832 -0.472092
v -0.184503 -0.325123 0.000000
v -0.052778 -0.711024 0.000000
v -0.055317 -0.195936 0.316442
v 0.139953 -0.518293 0.472092
v 0.203057 0.062438 0.316442
v 0.525414 -0.132832 0.472092
v 0.332244 0.191625 0.000000
v 0.718145 0.059899 0.000000
v 0.494169 -0.903103 -0.509561
v 0.910224 -0.487048 -0.509561
v 0.286142 -1.111131 0.000000
v 0.494169 -0.903103 0.509561
v 0.910224 -0.487048 0.509561
v 1.118252 -0.279021 0.000000
v 0.918699 -1.292433 -0.466450
v 1.299554 -0.911577 -0.466450
v 0.728271 -1.482860 0.000000
v 0.918699 -1.292433 0.466450
v 1.299554 -0.911578 0.466450
v 1.489981 -0.721150 0.000000
v 1.304855 -1.605131 -0.376483
v 1.612252 -1.297734 -0.376483
v 1.151156 -1.758830 0.000000
v 1.304855 -1.605131 0.376483
v 1.612252 -1.297734 0.376483
v 1.765951 -1.144035 0.000000
v 1.708293 -1.857517 -0.191483
v 1.864638 -1.701172 -0.191483
v 1.630120 -1.935690 0.000000
v 1.708293 -1.857517 0.191483
v 1.864638 -1.701172 0.191483
v 1.942811 -1.622999 0.000000
v 0.001042 0.006079 0.000000
v 1.869402 -1.862281 0.000000
vt 0.397708 0.944938
vt 0.452345 0.912100
vt 0.397708 0.901488
vt 0.452346 0.847280
vt 0.286629 0.879764
vt 0.286629 0.814869
vt 0.175550 0.901488
vt 0.120913 0.847280
vt 0.175550 0.944938
vt 0.120913 0.912100
vt 0.286629 0.966662
vt 0.286629 0.944511
vt 0.465498 0.852534
vt 0.465498 0.782568
vt 0.286629 0.747585
vt 0.107760 0.782568
vt 0.107760 0.852534
vt 0.286629 0.887516
vt 0.450365 0.781143
vt 0.450365 0.717097
vt 0.286629 0.685074
vt 0.122893 0.717097
vt 0.122893 0.781143
vt 0.286629 0.813166
vt 0.418784 0.716206
vt 0.418784 0.664513
vt 0.286629 0.638666
vt 0.154474 0.664513
vt 0.154474 0.716206
vt 0.286629 0.742052
vt 0.353845 0.648362
vt 0.353845 0.622070
vt 0.286629 0.608924
vt 0.219414 0.622070
vt 0.219414 0.648362
vt 0.286629 0.661508
vt 0.286629 0.935460
vt 0.286629 0.621269
vn -0.276717 0.276718 -0.920247
vn -0.128532 0.128533 -0.983341
vn -0.276717 0.276718 -0.920247
vn -0.128532 0.128533 -0.983341
vn -0.840251 -0.286817 -0.460124
vn -0.730703 -0.473638 -0.491670
vn -0.840251 -0.286817 -0.460124
vn -0.730703 -0.473638 -0.491670
vn -0.840252 -0.286817 0.460123
vn -0.730703 -0.473638 0.491670
vn -0.840252 -0.286817 0.460123
vn -0.730703 -0.473638 0.491670
vn -0.276717 0.276717 0.920247
vn -0.128532 0.128532 0.983341
vn -0.276717 0.276717 0.920247
vn -0.128532 0.128532 0.983341
vn 0.286817 0.840251 0.460124
vn 0.473638 0.730703 0.491670
vn 0.286817 0.840251 0.460124
vn 0.473638 0.730703 0.491670
vn 0.286817 0.840251 -0.460124
vn 0.473638 0.730703 -0.491670
vn 0.286817 0.840251 -0.460124
vn 0.473638 0.730703 -0.491670
vn -0.128532 0.128533 -0.983341
vn 0.003453 -0.003453 -0.999988
vn -0.128532 0.128533 -0.983341
vn 0.003453 -0.003453 -0.999988
vn -0.730703 -0.473638 -0.491670
vn -0.608912 -0.615818 -0.499994
vn -0.730703 -0.473638 -0.491670
vn -0.608912 -0.615818 -0.499994
vn -0.730703 -0.473638 0.491670
vn -0.608913 -0.615818 0.499994
vn -0.730703 -0.473638 0.491670
vn -0.608913 -0.615818 0.499994
vn -0.128532 0.128532 0.983341
vn 0.003453 -0.003453 0.999988
vn -0.128532 0.128532 0.983341
vn 0.003453 -0.003453 0.999988
vn 0.473638 0.730703 0.491670
vn 0.615818 0.608912 0.499994
vn 0.473638 0.730703 0.491670
vn 0.615818 0.608912 0.499994
vn 0.473638 0.730703 -0.491670
vn 0.615818 0.608913 -0.499994
vn 0.473638 0.730703 -0.491670
vn 0.615818 0.608913 -0.499994
vn 0.003453 -0.003453 -0.999988
vn 0.082912 -0.082912 -0.993102
vn 0.003453 -0.003453 -0.999988
vn 0.082912 -0.082912 -0.993102
vn -0.608912 -0.615818 -0.499994
vn -0.525236 -0.691060 -0.496551
vn -0.608912 -0.615818 -0.499994
vn -0.525236 -0.691060 -0.496551
vn -0.608913 -0.615818 0.499994
vn -0.525236 -0.691060 0.496551
vn -0.608913 -0.615818 0.499994
vn -0.525236 -0.691060 0.496551
vn 0.003453 -0.003453 0.999988
vn 0.082912 -0.082912 0.993102
vn 0.003453 -0.003453 0.999988
vn 0.082912 -0.082912 0.993102
vn 0.615818 0.608912 0.499994
vn 0.691060 0.525236 0.496551
vn 0.615818 0.608912 0.499994
vn 0.691060 0.525236 0.496551
vn 0.615818 0.608913 -0.499994
vn 0.691060 0.525236 -0.496551
vn 0.615818 0.608913 -0.499994
vn 0.691060 0.525236 -0.496551
vn 0.082912 -0.082912 -0.993102
vn 0.175149 -0.175149 -0.968837
vn 0.082912 -0.082912 -0.993102
vn 0.175149 -0.175149 -0.968837
vn -0.525236 -0.691060 -0.496551
vn -0.418140 -0.768438 -0.484419
vn -0.525236 -0.691060 -0.496551
vn -0.418140 -0.768438 -0.484419
vn -0.525236 -0.691060 0.496551
vn -0.418140 -0.768438 0.484418
vn -0.525236 -0.691060 0.496551
vn -0.418140 -0.768438 0.484418
vn 0.082912 -0.082912 0.993102
vn 0.175149 -0.175149 0.968837
vn 0.082912 -0.082912 0.993102
vn 0.175149 -0.175149 0.968837
vn 0.691060 0.525236 0.496551
vn 0.768438 0.418140 0.484418
vn 0.691060 0.525236 0.496551
vn 0.768438 0.418140 0.484418
vn 0.691060 0.525236 -0.496551
vn 0.768438 0.418140 -0.484418
vn 0.691060 0.525236 -0.496551
vn 0.768439 0.418140 -0.484418
vn 0.175149 -0.175149 -0.968837
vn 0.262008 -0.262009 -0.928818
vn 0.175149 -0.175149 -0.968837
vn 0.262008 -0.262009 -0.928818
vn -0.418140 -0.768438 -0.484419
vn -0.306774 -0.830791 -0.464409
vn -0.418140 -0.768438 -0.484419
vn -0.306774 -0.830791 -0.464409
vn -0.418140 -0.768438 0.484418
vn -0.306774 -0.830791 0.464409
vn -0.418140 -0.768438 0.484418
vn -0.306774 -0.830791 0.464409
vn 0.175149 -0.175149 0.968837
vn 0.262009 -0.262009 0.928818
vn 0.175149 -0.175149 0.968837
vn 0.262009 -0.262009 0.928818
vn 0.768438 0.418140 0.484418
vn 0.830791 0.306775 0.464409
vn 0.768438 0.418140 0.484418
vn 0.830791 0.306775 0.464409
vn 0.768438 0.418140 -0.484418
vn 0.830792 0.306773 -0.464409
vn 0.768439 0.418140 -0.484418
vn 0.830792 0.306773 -0.464409
vn -0.776505 0.584669 -0.234951
vn -0.707107 0.707107 -0.000000
vn -0.584669 0.776505 -0.234951
vn -0.872424 0.488750 -0.000000
vn -0.707107 0.707107 -0.000000
vn -0.776505 0.584669 -0.234951
vn -0.776505 0.584669 0.234951
vn -0.707107 0.707107 -0.000000
vn -0.872424 0.488750 -0.000000
vn -0.584669 0.776505 0.234951
vn -0.707107 0.707107 -0.000000
vn -0.776505 0.584669 0.234951
vn -0.488750 0.872424 -0.000000
vn -0.707107 0.707107 -0.000000
vn -0.584669 0.776505 0.234951
vn -0.584669 0.776505 -0.234951
vn -0.707107 0.707107 -0.000000
vn -0.488750 0.872424 -0.000000
vn 0.790340 -0.458977 -0.405835
vn 0.707107 -0.707106 0.000000
vn 0.458978 -0.790340 -0.405835
vn 0.458978 -0.790340 -0.405835
vn 0.707107 -0.707106 0.000000
vn 0.293296 -0.956022 0.000000
vn 0.293296 -0.956022 0.000000
vn 0.707107 -0.707106 0.000000
vn 0.458977 -0.790341 0.405834
vn 0.458977 -0.790341 0.405834
vn 0.707107 -0.707106 0.000000
vn 0.790341 -0.458976 0.405835
vn 0.790341 -0.458976 0.405835
vn 0.707107 -0.707106 0.000000
vn 0.956022 -0.293294 0.000000
vn 0.956022 -0.293294 0.000000
vn 0.707107 -0.707106 0.000000
vn 0.790340 -0.458977 -0.405835
s 1
g LArm
usemtl None
f 1/1/1 4/2/2 2/3/3
f 2/3/3 4/2/2 3/4/4
s 2
f 2/3/5 3/4/6 5/5/7
f 5/5/7 3/4/6 6/6/8
s 3
f 5/5/9 6/6/10 7/7/11
f 7/7/11 6/6/10 8/8/12
s 4
f 7/7/13 8/8/14 9/9/15
f 9/9/15 8/8/14 10/10/16
s 5
f 9/9/17 10/10/18 11/11/19
f 11/11/19 10/10/18 12/12/20
s 6
f 11/11/21 12/12/22 1/1/23
f 1/1/23 12/12/22 4/2/24
s 7
f 4/2/25 14/13/26 3/4/27
f 3/4/27 14/13/26 13/14/28
s 8
f 3/4/29 13/14/30 6/6/31
f 6/6/31 13/14/30 15/15/32
s 9
f 6/6/33 15/15/34 8/8/35
f 8/8/35 15/15/34 16/16/36
s 10
f 8/8/37 16/16/38 10/10/39
f 10/10/39 16/16/38 17/17/40
s 11
f 10/10/41 17/17/42 12/12/43
f 12/12/43 17/17/42 18/18/44
s 12
f 12/12/45 18/18/46 4/2/47
f 4/2/47 18/18/46 14/13/48
s 13
f 14/13/49 20/19/50 13/14/51
f 13/14/51 20/19/50 19/20/52
s 14
f 13/14/53 19/20/54 15/15/55
f 15/15/55 19/20/54 21/21/56
s 15
f 15/15/57 21/21/58 16/16/59
f 16/16/59 21/21/58 22/22/60
s 16
f 16/16/61 22/22/62 17/17/63
f 17/17/63 22/22/62 23/23/64
s 17
f 17/17/65 23/23/66 18/18/67
f 18/18/67 23/23/66 24/24/68
s 18
f 18/18/69 24/24/70 14/13/71
f 14/13/71 24/24/70 20/19/72
s 19
f 20/19/73 26/25/74 19/20/75
f 19/20/75 26/25/74 25/26/76
s 20
f 19/20/77 25/26/78 21/21/79
f 21/21/79 25/26/78 27/27/80
s 21
f 21/21/81 27/27/82 22/22/83
f 22/22/83 27/27/82 28/28/84
s 22
f 22/22/85 28/28/86 23/23/87
f 23/23/87 28/28/86 29/29/88
s 23
f 23/23/89 29/29/90 24/24/91
f 24/24/91 29/29/90 30/30/92
s 24
f 24/24/93 30/30/94 20/19/95
f 20/19/95 30/30/94 26/25/96
s 25
f 26/25/97 32/31/98 25/26/99
f 25/26/99 32/31/98 31/32/100
s 26
f 25/26/101 31/32/102 27/27/103
f 27/27/103 31/32/102 33/33/104
s 27
f 27/27/105 33/33/106 28/28/107
f 28/28/107 33/33/106 34/34/108
s 28
f 28/28/109 34/34/110 29/29/111
f 29/29/111 34/34/110 35/35/112
s 29
f 29/29/113 35/35/114 30/30/115
f 30/30/115 35/35/114 36/36/116
s 30
f 30/30/117 36/36/118 26/25/119
f 26/25/119 36/36/118 32/31/120
s off
f 2/3/121 37/37/122 1/1/123
f 5/5/124 37/37/125 2/3/126
f 7/7/127 37/37/128 5/5/129
f 9/9/130 37/37/131 7/7/132
f 11/11/133 37/37/134 9/9/135
f 1/1/136 37/37/137 11/11/138
f 32/31/139 38/38/140 31/32/141
f 31/32/142 38/38/143 33/33/144
f 33/33/145 38/38/146 34/34/147
f 34/34/148 38/38/149 35/35/150
f 35/35/151 38/38/152 36/36/153
f 36/36/154 38/38/155 32/31/156
