# This file uses centimeters as units for non-parametric coordinates.

mtllib OshawottRArm.mtl
g default
v -0.210989 0.062438 -0.316442
v -0.533346 -0.132832 -0.472092
v -0.147885 -0.518293 -0.472092
v 0.047385 -0.195936 -0.316442
v 0.044846 -0.711024 0.000000
v 0.176571 -0.325123 0.000000
v -0.147885 -0.518293 0.472092
v 0.047385 -0.195936 0.316442
v -0.533346 -0.132832 0.472092
v -0.210989 0.062438 0.316442
v -0.726077 0.059899 0.000000
v -0.340176 0.191625 0.000000
v -0.918156 -0.487048 -0.509561
v -0.502101 -0.903103 -0.509561
v -0.294074 -1.111131 0.000000
v -0.502101 -0.903103 0.509561
v -0.918156 -0.487048 0.509561
v -1.126184 -0.279021 0.000000
v -1.307486 -0.911577 -0.466450
v -0.926631 -1.292433 -0.466450
v -0.736203 -1.482860 0.000000
v -0.926631 -1.292433 0.466450
v -1.307486 -0.911578 0.466450
v -1.497913 -0.721150 0.000000
v -1.620184 -1.297734 -0.376483
v -1.312787 -1.605131 -0.376483
v -1.159088 -1.758830 0.000000
v -1.312787 -1.605131 0.376483
v -1.620184 -1.297734 0.376483
v -1.773883 -1.144035 0.000000
v -1.872570 -1.701172 -0.191483
v -1.716225 -1.857517 -0.191483
v -1.638052 -1.935690 0.000000
v -1.716225 -1.857517 0.191483
v -1.872570 -1.701172 0.191483
v -1.950743 -1.622999 0.000000
v -0.008974 0.006079 0.000000
v -1.877334 -1.862281 0.000000
vt 0.397708 0.944938
vt 0.397708 0.901488
vt 0.452345 0.912100
vt 0.452346 0.847280
vt 0.286629 0.879764
vt 0.286629 0.814869
vt 0.175550 0.901488
vt 0.120913 0.847280
vt 0.175550 0.944938
vt 0.120913 0.912100
vt 0.286629 0.966662
vt 0.286629 0.944511
vt 0.465498 0.852534
vt 0.465498 0.782568
vt 0.286629 0.747585
vt 0.107760 0.782568
vt 0.107760 0.852534
vt 0.286629 0.887516
vt 0.450365 0.781143
vt 0.450365 0.717097
vt 0.286629 0.685074
vt 0.122893 0.717097
vt 0.122893 0.781143
vt 0.286629 0.813166
vt 0.418784 0.716206
vt 0.418784 0.664513
vt 0.286629 0.638666
vt 0.154474 0.664513
vt 0.154474 0.716206
vt 0.286629 0.742052
vt 0.353845 0.648362
vt 0.353845 0.622070
vt 0.286629 0.608924
vt 0.219414 0.622070
vt 0.219414 0.648362
vt 0.286629 0.661508
vt 0.286629 0.935460
vt 0.286629 0.621269
vn 0.276717 0.276718 -0.920247
vn 0.276717 0.276718 -0.920247
vn 0.128532 0.128533 -0.983341
vn 0.128532 0.128533 -0.983341
vn 0.840251 -0.286817 -0.460124
vn 0.840251 -0.286817 -0.460124
vn 0.730703 -0.473638 -0.491670
vn 0.730703 -0.473638 -0.491670
vn 0.840252 -0.286817 0.460123
vn 0.840252 -0.286817 0.460123
vn 0.730703 -0.473638 0.491670
vn 0.730703 -0.473638 0.491670
vn 0.276717 0.276717 0.920247
vn 0.276717 0.276717 0.920247
vn 0.128532 0.128532 0.983341
vn 0.128532 0.128532 0.983341
vn -0.286817 0.840251 0.460124
vn -0.286817 0.840251 0.460124
vn -0.473638 0.730703 0.491670
vn -0.473638 0.730703 0.491670
vn -0.286817 0.840251 -0.460124
vn -0.286817 0.840251 -0.460124
vn -0.473638 0.730703 -0.491670
vn -0.473638 0.730703 -0.491670
vn 0.128532 0.128533 -0.983341
vn 0.128532 0.128533 -0.983341
vn -0.003453 -0.003453 -0.999988
vn -0.003453 -0.003453 -0.999988
vn 0.730703 -0.473638 -0.491670
vn 0.730703 -0.473638 -0.491670
vn 0.608912 -0.615818 -0.499994
vn 0.608912 -0.615818 -0.499994
vn 0.730703 -0.473638 0.491670
vn 0.730703 -0.473638 0.491670
vn 0.608913 -0.615818 0.499994
vn 0.608913 -0.615818 0.499994
vn 0.128532 0.128532 0.983341
vn 0.128532 0.128532 0.983341
vn -0.003453 -0.003453 0.999988
vn -0.003453 -0.003453 0.999988
vn -0.473638 0.730703 0.491670
vn -0.473638 0.730703 0.491670
vn -0.615818 0.608912 0.499994
vn -0.615818 0.608912 0.499994
vn -0.473638 0.730703 -0.491670
vn -0.473638 0.730703 -0.491670
vn -0.615818 0.608913 -0.499994
vn -0.615818 0.608913 -0.499994
vn -0.003453 -0.003453 -0.999988
vn -0.003453 -0.003453 -0.999988
vn -0.082912 -0.082912 -0.993102
vn -0.082912 -0.082912 -0.993102
vn 0.608912 -0.615818 -0.499994
vn 0.608912 -0.615818 -0.499994
vn 0.525236 -0.691060 -0.496551
vn 0.525236 -0.691060 -0.496551
vn 0.608913 -0.615818 0.499994
vn 0.608913 -0.615818 0.499994
vn 0.525236 -0.691060 0.496551
vn 0.525236 -0.691060 0.496551
vn -0.003453 -0.003453 0.999988
vn -0.003453 -0.003453 0.999988
vn -0.082912 -0.082912 0.993102
vn -0.082912 -0.082912 0.993102
vn -0.615818 0.608912 0.499994
vn -0.615818 0.608912 0.499994
vn -0.691060 0.525236 0.496551
vn -0.691060 0.525236 0.496551
vn -0.615818 0.608913 -0.499994
vn -0.615818 0.608913 -0.499994
vn -0.691060 0.525236 -0.496551
vn -0.691060 0.525236 -0.496551
vn -0.082912 -0.082912 -0.993102
vn -0.082912 -0.082912 -0.993102
vn -0.175149 -0.175149 -0.968837
vn -0.175149 -0.175149 -0.968837
vn 0.525236 -0.691060 -0.496551
vn 0.525236 -0.691060 -0.496551
vn 0.418140 -0.768438 -0.484419
vn 0.418140 -0.768438 -0.484419
vn 0.525236 -0.691060 0.496551
vn 0.525236 -0.691060 0.496551
vn 0.418140 -0.768438 0.484418
vn 0.418140 -0.768438 0.484418
vn -0.082912 -0.082912 0.993102
vn -0.082912 -0.082912 0.993102
vn -0.175149 -0.175149 0.968837
vn -0.175149 -0.175149 0.968837
vn -0.691060 0.525236 0.496551
vn -0.691060 0.525236 0.496551
vn -0.768438 0.418140 0.484418
vn -0.768438 0.418140 0.484418
vn -0.691060 0.525236 -0.496551
vn -0.691060 0.525236 -0.496551
vn -0.768438 0.418140 -0.484418
vn -0.768439 0.418140 -0.484418
vn -0.175149 -0.175149 -0.968837
vn -0.175149 -0.175149 -0.968837
vn -0.262008 -0.262009 -0.928818
vn -0.262008 -0.262009 -0.928818
vn 0.418140 -0.768438 -0.484419
vn 0.418140 -0.768438 -0.484419
vn 0.306774 -0.830791 -0.464409
vn 0.306774 -0.830791 -0.464409
vn 0.418140 -0.768438 0.484418
vn 0.418140 -0.768438 0.484418
vn 0.306774 -0.830791 0.464409
vn 0.306774 -0.830791 0.464409
vn -0.175149 -0.175149 0.968837
vn -0.175149 -0.175149 0.968837
vn -0.262009 -0.262009 0.928818
vn -0.262009 -0.262009 0.928818
vn -0.768438 0.418140 0.484418
vn -0.768438 0.418140 0.484418
vn -0.830791 0.306775 0.464409
vn -0.830791 0.306775 0.464409
vn -0.768438 0.418140 -0.484418
vn -0.768439 0.418140 -0.484418
vn -0.830792 0.306773 -0.464409
vn -0.830792 0.306773 -0.464409
vn 0.776505 0.584669 -0.234951
vn 0.584669 0.776505 -0.234951
vn 0.707107 0.707107 0.000000
vn 0.872424 0.488750 0.000000
vn 0.776505 0.584669 -0.234951
vn 0.707107 0.707107 0.000000
vn 0.776505 0.584669 0.234951
vn 0.872424 0.488750 0.000000
vn 0.707107 0.707107 0.000000
vn 0.584669 0.776505 0.234951
vn 0.776505 0.584669 0.234951
vn 0.707107 0.707107 0.000000
vn 0.488750 0.872424 0.000000
vn 0.584669 0.776505 0.234951
vn 0.707107 0.707107 0.000000
vn 0.584669 0.776505 -0.234951
vn 0.488750 0.872424 0.000000
vn 0.707107 0.707107 0.000000
vn -0.790340 -0.458977 -0.405835
vn -0.458978 -0.790340 -0.405835
vn -0.707107 -0.707106 0.000000
vn -0.458978 -0.790340 -0.405835
vn -0.293296 -0.956022 0.000000
vn -0.707107 -0.707106 0.000000
vn -0.293296 -0.956022 0.000000
vn -0.458977 -0.790341 0.405834
vn -0.707107 -0.707106 0.000000
vn -0.458977 -0.790341 0.405834
vn -0.790341 -0.458976 0.405835
vn -0.707107 -0.707106 0.000000
vn -0.790341 -0.458976 0.405835
vn -0.956022 -0.293294 0.000000
vn -0.707107 -0.707106 0.000000
vn -0.956022 -0.293294 0.000000
vn -0.790340 -0.458977 -0.405835
vn -0.707107 -0.707106 0.000000
s 1
g RArm
usemtl None
f 1/1/1 4/2/2 2/3/3
f 2/3/3 4/2/2 3/4/4
s 2
f 4/2/5 6/5/6 3/4/7
f 3/4/7 6/5/6 5/6/8
s 3
f 6/5/9 8/7/10 5/6/11
f 5/6/11 8/7/10 7/8/12
s 4
f 8/7/13 10/9/14 7/8/15
f 7/8/15 10/9/14 9/10/16
s 5
f 10/9/17 12/11/18 9/10/19
f 9/10/19 12/11/18 11/12/20
s 6
f 12/11/21 1/1/22 11/12/23
f 11/12/23 1/1/22 2/3/24
s 7
f 2/3/25 3/4/26 13/13/27
f 13/13/27 3/4/26 14/14/28
s 8
f 3/4/29 5/6/30 14/14/31
f 14/14/31 5/6/30 15/15/32
s 9
f 5/6/33 7/8/34 15/15/35
f 15/15/35 7/8/34 16/16/36
s 10
f 7/8/37 9/10/38 16/16/39
f 16/16/39 9/10/38 17/17/40
s 11
f 9/10/41 11/12/42 17/17/43
f 17/17/43 11/12/42 18/18/44
s 12
f 11/12/45 2/3/46 18/18/47
f 18/18/47 2/3/46 13/13/48
s 13
f 13/13/49 14/14/50 19/19/51
f 19/19/51 14/14/50 20/20/52
s 14
f 14/14/53 15/15/54 20/20/55
f 20/20/55 15/15/54 21/21/56
s 15
f 15/15/57 16/16/58 21/21/59
f 21/21/59 16/16/58 22/22/60
s 16
f 16/16/61 17/17/62 22/22/63
f 22/22/63 17/17/62 23/23/64
s 17
f 17/17/65 18/18/66 23/23/67
f 23/23/67 18/18/66 24/24/68
s 18
f 18/18/69 13/13/70 24/24/71
f 24/24/71 13/13/70 19/19/72
s 19
f 19/19/73 20/20/74 25/25/75
f 25/25/75 20/20/74 26/26/76
s 20
f 20/20/77 21/21/78 26/26/79
f 26/26/79 21/21/78 27/27/80
s 21
f 21/21/81 22/22/82 27/27/83
f 27/27/83 22/22/82 28/28/84
s 22
f 22/22/85 23/23/86 28/28/87
f 28/28/87 23/23/86 29/29/88
s 23
f 23/23/89 24/24/90 29/29/91
f 29/29/91 24/24/90 30/30/92
s 24
f 24/24/93 19/19/94 30/30/95
f 30/30/95 19/19/94 25/25/96
s 25
f 25/25/97 26/26/98 31/31/99
f 31/31/99 26/26/98 32/32/100
s 26
f 26/26/101 27/27/102 32/32/103
f 32/32/103 27/27/102 33/33/104
s 27
f 27/27/105 28/28/106 33/33/107
f 33/33/107 28/28/106 34/34/108
s 28
f 28/28/109 29/29/110 34/34/111
f 34/34/111 29/29/110 35/35/112
s 29
f 29/29/113 30/30/114 35/35/115
f 35/35/115 30/30/114 36/36/116
s 30
f 30/30/117 25/25/118 36/36/119
f 36/36/119 25/25/118 31/31/120
s off
f 4/2/121 1/1/122 37/37/123
f 6/5/124 4/2/125 37/37/126
f 8/7/127 6/5/128 37/37/129
f 10/9/130 8/7/131 37/37/132
f 12/11/133 10/9/134 37/37/135
f 1/1/136 12/11/137 37/37/138
f 31/31/139 32/32/140 38/38/141
f 32/32/142 33/33/143 38/38/144
f 33/33/145 34/34/146 38/38/147
f 34/34/148 35/35/149 38/38/150
f 35/35/151 36/36/152 38/38/153
f 36/36/154 31/31/155 38/38/156
