# This file uses centimeters as units for non-parametric coordinates.

mtllib OshawottLLeg.mtl
g default
v 1.058849 -0.242434 1.295407
v 0.227453 -0.242434 1.639783
v 0.230758 -0.161466 1.786290
v 1.160109 -0.161466 1.401340
v 0.230758 -0.065293 1.786290
v 1.160109 -0.065293 1.401340
v 0.227453 0.015674 1.639783
v 1.058849 0.015674 1.295407
v -0.017928 0.015674 1.047618
v 0.813637 0.015674 0.703173
v -0.209769 0.015674 0.493501
v 0.557468 0.015674 0.175701
v 0.813637 -0.242434 0.703173
v -0.017928 -0.242434 1.047618
v -0.043533 -0.161466 1.124357
v -0.043533 -0.065293 1.124357
v -0.257976 -0.065293 0.504955
v 0.886005 -0.161466 0.739330
v 0.886005 -0.065293 0.739330
v 0.599655 -0.065293 0.149713
v -0.209769 -0.242434 0.493501
v -0.257976 -0.161466 0.504955
v -0.422761 -0.065293 -0.087897
v -0.422761 -0.161466 -0.087897
v -0.560233 -0.161466 -0.692061
v -0.560233 -0.065293 -0.692061
v -0.480168 0.015674 -0.577350
v -0.357185 0.015674 -0.036864
v 0.599655 -0.161466 0.149713
v 0.557468 -0.242434 0.175701
v -0.336695 -0.161466 -0.897963
v -0.284413 -0.242434 -0.771743
v -0.008537 -0.242434 -0.772706
v -0.033035 -0.161466 -0.910434
v 0.286682 -0.242434 -0.303563
v -0.357185 -0.242434 -0.036864
v -0.480168 -0.242434 -0.577350
v 0.296966 -0.161466 -0.386017
v 0.286682 0.015674 -0.303563
v 0.296966 -0.065293 -0.386017
v -0.284413 0.015674 -0.771743
v -0.008537 0.015674 -0.772706
v -0.336695 -0.065293 -0.897963
v -0.033035 -0.065293 -0.910434
vt 0.076011 0.035566
vt 0.067797 0.101159
vt 0.049309 0.035566
vt 0.037949 0.101159
vt 0.987477 0.441554
vt 0.987477 0.463040
vt 0.762744 0.441554
vt 0.762743 0.463041
vt 0.975631 0.498524
vt 0.774586 0.498521
vt 0.975653 0.641723
vt 0.774567 0.641723
vt 0.121931 0.244662
vt 0.162830 0.244662
vt 0.095223 0.244662
vt 0.138188 0.244662
vt 0.121931 0.035566
vt 0.095223 0.035566
vt 0.089273 0.101159
vt 0.037949 0.179070
vt 0.089273 0.179070
vt 0.137300 0.179070
vt 0.049309 0.244662
vt 0.119127 0.101159
vt 0.119127 0.179070
vt 0.067797 0.179070
vt 0.164845 0.179070
vt 0.076011 0.244662
vt 0.137300 0.101159
vt 0.138188 0.035566
vt 0.183268 0.179070
vt 0.230114 0.179070
vt 0.183268 0.101159
vt 0.230114 0.101159
vt 0.179311 0.244662
vt 0.221219 0.244662
vt 0.164845 0.101159
vt 0.162830 0.035566
vt 0.246079 0.101159
vt 0.247046 0.101159
vt 0.236292 0.035566
vt 0.236367 0.035566
vt 0.199991 0.035566
vt 0.179311 0.035566
vt 0.221219 0.035566
vt 0.206384 0.101159
vt 0.199991 0.244662
vt 0.206384 0.179070
vt 0.236367 0.244662
vt 0.236292 0.244662
vt 0.247046 0.179070
vt 0.246079 0.179070
vn 0.195107 -0.860270 0.471030
vn 0.320174 -0.547729 0.772969
vn 0.195107 -0.860270 0.471030
vn 0.320174 -0.547729 0.772969
vn 0.320174 -0.547729 0.772969
vn 0.320174 0.547729 0.772969
vn 0.320174 -0.547729 0.772969
vn 0.320174 0.547729 0.772969
vn 0.320174 0.547729 0.772969
vn 0.195107 0.860270 0.471030
vn 0.320174 0.547729 0.772969
vn 0.195107 0.860270 0.471030
vn 0.000000 1.000000 0.000000
vn 0.000000 1.000000 0.000000
vn 0.000000 1.000000 0.000000
vn 0.000000 1.000000 0.000000
vn 0.000000 1.000000 0.000000
vn 0.000000 1.000000 0.000000
vn 0.000000 1.000000 0.000000
vn 0.000000 1.000000 0.000000
vn 0.000000 -1.000000 0.000000
vn 0.000000 -1.000000 0.000000
vn 0.000000 -1.000000 0.000000
vn 0.000000 -1.000000 0.000000
vn -0.912768 -0.154253 0.378233
vn -0.896727 -0.274692 0.347023
vn -0.772815 -0.547909 0.320239
vn -0.795715 -0.529808 0.293500
vn -0.912768 -0.154253 0.378233
vn -0.912768 0.154253 0.378233
vn -0.896727 -0.274692 0.347023
vn -0.896727 0.274692 0.347023
vn -0.896727 0.274692 0.347023
vn -0.795715 0.529808 0.293500
vn -0.921674 0.259943 0.288005
vn -0.814428 0.521034 0.255405
vn -0.912768 0.154253 0.378233
vn -0.772815 0.547909 0.320239
vn -0.896727 0.274692 0.347023
vn -0.795715 0.529808 0.293500
vn 0.770191 -0.529807 -0.355119
vn 0.879464 -0.274692 -0.388699
vn 0.772905 -0.547910 -0.320019
vn 0.912875 -0.154254 -0.377974
vn 0.879464 -0.274692 -0.388699
vn 0.879464 0.274691 -0.388700
vn 0.912875 -0.154254 -0.377974
vn 0.912876 0.154253 -0.377974
vn 0.756486 0.521033 -0.395289
vn 0.770191 0.529807 -0.355120
vn 0.855372 0.259943 -0.448072
vn 0.879464 0.274691 -0.388700
vn 0.770191 0.529807 -0.355120
vn 0.772906 0.547908 -0.320020
vn 0.879464 0.274691 -0.388700
vn 0.912876 0.154253 -0.377974
vn -0.896727 -0.274692 0.347023
vn -0.921674 -0.259943 0.288005
vn -0.795715 -0.529808 0.293500
vn -0.814428 -0.521033 0.255405
vn -0.934078 0.271546 0.231864
vn -0.962914 0.157448 0.219103
vn -0.934078 -0.271545 0.231864
vn -0.962914 -0.157448 0.219103
vn -0.921674 0.259943 0.288005
vn -0.934078 0.271546 0.231864
vn -0.921674 -0.259943 0.288005
vn -0.934078 -0.271545 0.231864
vn -0.896727 0.274692 0.347023
vn -0.921674 0.259943 0.288005
vn -0.896727 -0.274692 0.347023
vn -0.921674 -0.259943 0.288005
vn -0.820792 0.529170 0.215126
vn -0.817594 0.544914 0.186036
vn -0.934078 0.271546 0.231864
vn -0.962914 0.157448 0.219103
vn -0.814428 0.521034 0.255405
vn -0.820792 0.529170 0.215126
vn -0.921674 0.259943 0.288005
vn -0.934078 0.271546 0.231864
vn 0.879464 -0.274692 -0.388699
vn 0.770191 -0.529807 -0.355119
vn 0.855372 -0.259943 -0.448072
vn 0.756486 -0.521033 -0.395289
vn 0.855372 0.259943 -0.448072
vn 0.879464 0.274691 -0.388700
vn 0.855372 -0.259943 -0.448072
vn 0.879464 -0.274692 -0.388699
vn -0.028567 -0.542490 -0.839577
vn -0.026089 -0.604970 -0.795821
vn -0.012062 -0.853868 -0.520350
vn -0.012062 -0.853868 -0.520350
vn 0.000000 -1.000000 0.000000
vn 0.000000 -1.000000 0.000000
vn 0.000000 -1.000000 0.000000
vn 0.000000 -1.000000 0.000000
vn 0.000000 -1.000000 0.000000
vn 0.000000 -1.000000 0.000000
vn 0.000000 -1.000000 0.000000
vn 0.000000 -1.000000 0.000000
vn 0.000000 -1.000000 0.000000
vn 0.000000 -1.000000 0.000000
vn 0.000000 -1.000000 0.000000
vn -0.962914 -0.157448 0.219103
vn -0.817594 -0.544914 0.186036
vn -0.934078 -0.271545 0.231864
vn -0.820792 -0.529170 0.215126
vn -0.934078 -0.271545 0.231864
vn -0.820792 -0.529170 0.215126
vn -0.921674 -0.259943 0.288005
vn -0.814428 -0.521033 0.255405
vn 0.835812 -0.157448 -0.525954
vn 0.824446 -0.271546 -0.496540
vn 0.709673 -0.544914 -0.446578
vn 0.732505 -0.529169 -0.428271
vn 0.824446 -0.271546 -0.496540
vn 0.855372 -0.259943 -0.448072
vn 0.732505 -0.529169 -0.428271
vn 0.756486 -0.521033 -0.395289
vn -0.359414 -0.853868 -0.376472
vn -0.544283 -0.604970 -0.581178
vn -0.359414 -0.853868 -0.376472
vn -0.573470 -0.542490 -0.613870
vn 0.000000 -1.000000 0.000000
vn 0.000000 -1.000000 0.000000
vn 0.000000 -1.000000 0.000000
vn 0.000000 -1.000000 0.000000
vn 0.000000 -1.000000 0.000000
vn 0.000000 -1.000000 0.000000
vn 0.756486 0.521033 -0.395289
vn 0.855372 0.259943 -0.448072
vn 0.732505 0.529169 -0.428271
vn 0.824446 0.271546 -0.496540
vn 0.000000 1.000000 0.000000
vn 0.000000 1.000000 0.000000
vn 0.000000 1.000000 0.000000
vn 0.000000 1.000000 0.000000
vn 0.000000 1.000000 0.000000
vn 0.000000 1.000000 0.000000
vn 0.000000 1.000000 0.000000
vn -0.012062 0.853868 -0.520350
vn -0.026089 0.604970 -0.795821
vn -0.012062 0.853868 -0.520350
vn -0.028567 0.542489 -0.839577
vn -0.026089 0.604970 -0.795821
vn -0.026089 -0.604970 -0.795821
vn -0.028567 0.542489 -0.839577
vn -0.028567 -0.542490 -0.839577
vn 0.732505 0.529169 -0.428271
vn 0.824446 0.271546 -0.496540
vn 0.709674 0.544914 -0.446578
vn 0.835812 0.157448 -0.525954
vn 0.000000 1.000000 0.000000
vn 0.000000 1.000000 0.000000
vn 0.000000 1.000000 0.000000
vn -0.573470 0.542490 -0.613870
vn -0.544283 0.604970 -0.581178
vn -0.359414 0.853868 -0.376472
vn -0.359414 0.853868 -0.376472
vn -0.544283 -0.604970 -0.581178
vn -0.544283 0.604970 -0.581178
vn -0.573470 -0.542490 -0.613870
vn -0.573470 0.542490 -0.613870
vn 0.855372 0.259943 -0.448072
vn 0.855372 -0.259943 -0.448072
vn 0.824446 0.271546 -0.496540
vn 0.824446 -0.271546 -0.496540
vn 0.824446 -0.271546 -0.496540
vn 0.835812 -0.157448 -0.525954
vn 0.824446 0.271546 -0.496540
vn 0.835812 0.157448 -0.525954
vn 0.000000 1.000000 0.000000
vn 0.000000 1.000000 0.000000
vn 0.000000 1.000000 0.000000
s 1
g LLeg
usemtl None
f 1/1/1 4/2/2 2/3/3
f 2/3/3 4/2/2 3/4/4
s 2
f 4/5/5 6/6/6 3/7/7
f 3/7/7 6/6/6 5/8/8
s 3
f 6/6/9 8/9/10 5/8/11
f 5/8/11 8/9/10 7/10/12
s 4
f 8/9/13 10/11/14 7/10/15
f 7/10/15 10/11/14 9/12/16
s 5
f 10/13/17 12/14/18 9/15/19
f 9/15/19 12/14/18 11/16/20
s 6
f 13/17/21 1/1/22 14/18/23
f 14/18/23 1/1/22 2/3/24
s 7
f 3/4/25 15/19/26 2/3/27
f 2/3/27 15/19/26 14/18/28
s 8
f 3/4/29 5/20/30 15/19/31
f 15/19/31 5/20/30 16/21/32
s 9
f 16/21/33 9/15/34 17/22/35
f 17/22/35 9/15/34 11/16/36
s 10
f 5/20/37 7/23/38 16/21/39
f 16/21/39 7/23/38 9/15/40
s 11
f 13/17/41 18/24/42 1/1/43
f 1/1/43 18/24/42 4/2/44
s 12
f 18/24/45 19/25/46 4/2/47
f 4/2/47 19/25/46 6/26/48
s 13
f 12/14/49 10/13/50 20/27/51
f 20/27/51 10/13/50 19/25/52
s 14
f 10/13/53 8/28/54 19/25/55
f 19/25/55 8/28/54 6/26/56
s 15
f 15/19/57 22/29/58 14/18/59
f 14/18/59 22/29/58 21/30/60
s 16
f 23/31/61 26/32/62 24/33/63
f 24/33/63 26/32/62 25/34/64
s 17
f 17/22/65 23/31/66 22/29/67
f 22/29/67 23/31/66 24/33/68
s 18
f 16/21/69 17/22/70 15/19/71
f 15/19/71 17/22/70 22/29/72
s 19
f 28/35/73 27/36/74 23/31/75
f 23/31/75 27/36/74 26/32/76
s 20
f 11/16/77 28/35/78 17/22/79
f 17/22/79 28/35/78 23/31/80
s 21
f 18/24/81 13/17/82 29/37/83
f 29/37/83 13/17/82 30/38/84
s 22
f 20/27/85 19/25/86 29/37/87
f 29/37/87 19/25/86 18/24/88
s 23
f 31/39/89 34/40/90 32/41/91
f 32/41/91 34/40/90 33/42/92
s off
f 35/43/93 36/44/94 32/41/95
s 24
f 21/30/96 36/44/97 30/38/98
f 30/38/98 36/44/97 35/43/99
s 25
f 14/18/100 21/30/101 13/17/102
f 13/17/102 21/30/101 30/38/103
s 26
f 25/34/104 37/45/105 24/33/106
f 24/33/106 37/45/105 36/44/107
s 27
f 24/33/108 36/44/109 22/29/110
f 22/29/110 36/44/109 21/30/111
s 28
f 34/40/112 38/46/113 33/42/114
f 33/42/114 38/46/113 35/43/115
s 29
f 38/46/116 29/37/117 35/43/118
f 35/43/118 29/37/117 30/38/119
s 30
f 37/45/120 25/34/121 32/41/122
f 32/41/122 25/34/121 31/39/123
s off
f 36/44/124 37/45/125 32/41/126
f 32/41/127 33/42/128 35/43/129
s 31
f 12/14/130 20/27/131 39/47/132
f 39/47/132 20/27/131 40/48/133
s 32
f 28/35/134 11/16/135 39/47/136
f 39/47/136 11/16/135 12/14/137
s off
f 39/47/138 42/49/139 41/50/140
s 33
f 42/49/141 44/51/142 41/50/143
f 41/50/143 44/51/142 43/52/144
s 34
f 44/51/145 34/40/146 43/52/147
f 43/52/147 34/40/146 31/39/148
s 35
f 39/47/149 40/48/150 42/49/151
f 42/49/151 40/48/150 44/51/152
s off
f 41/50/153 27/36/154 28/35/155
s 36
f 43/52/156 26/32/157 41/50/158
f 41/50/158 26/32/157 27/36/159
s 37
f 25/34/160 26/32/161 31/39/162
f 31/39/162 26/32/161 43/52/163
s 38
f 20/27/164 29/37/165 40/48/166
f 40/48/166 29/37/165 38/46/167
s 39
f 38/46/168 34/40/169 40/48/170
f 40/48/170 34/40/169 44/51/171
s off
f 41/50/172 28/35/173 39/47/174
