# Blender v2.71 (sub 0) OBJ File: ''
# www.blender.org
mtllib Shinx_M_Right_Leg_Back.mtl
o Shinx_R_Flank
v -0.290464 -1.235041 -0.244267
v -0.302864 -0.935063 -0.229680
v -0.064754 -0.927884 -0.329689
v -0.039971 -1.233061 -0.347076
v 0.174132 -0.916884 -0.230462
v 0.209363 -1.224587 -0.243002
v 0.271448 -0.912554 0.004914
v 0.310413 -1.211758 0.002649
v 0.175428 -0.921508 0.241097
v 0.204877 -1.201670 0.252515
v -0.064478 -0.935097 0.341259
v -0.040128 -1.206022 0.355460
v -0.303802 -0.939624 0.240336
v -0.286573 -1.211334 0.253975
v -0.399465 -0.938319 0.004934
v -0.393151 -1.225930 0.002462
v -0.319324 -0.664186 0.297987
v -0.411620 -0.652747 0.030220
v -0.079704 -0.681851 0.417083
v 0.179465 -0.671528 0.302065
v 0.281130 -0.648821 0.027847
v 0.183192 -0.647845 -0.246092
v -0.068126 -0.651738 -0.365207
v -0.315340 -0.650695 -0.243791
v -0.333472 -1.726211 -0.249118
v -0.373052 -1.516034 -0.288698
v -0.041056 -1.516034 -0.426215
v -0.041056 -1.726211 -0.370241
v 0.290939 -1.516034 -0.288698
v 0.251359 -1.726211 -0.249118
v 0.427040 -1.516034 0.026923
v 0.368567 -1.728973 0.031529
v 0.401435 -1.516034 0.357040
v 0.352625 -1.726528 0.307839
v -0.041056 -1.516034 0.564803
v -0.041056 -1.728981 0.491056
v -0.483548 -1.516034 0.357040
v -0.434738 -1.726528 0.307839
v -0.509153 -1.516034 0.026923
v -0.450680 -1.728973 0.031529
v -0.350477 -1.342270 -0.263852
v -0.041176 -1.345987 -0.393872
v 0.268499 -1.343443 -0.264271
v 0.390623 -1.333301 0.031811
v 0.364343 -1.325111 0.317335
v -0.041154 -1.322645 0.507112
v -0.446146 -1.324200 0.316836
v -0.471962 -1.331671 0.031766
v -0.041056 -1.754604 0.043297
v -0.340614 0.093398 0.129143
v -0.259256 0.003264 -0.271135
v -0.271889 -0.010234 0.522027
v -0.079783 -0.259201 0.697546
v 0.137641 -0.490709 0.534287
v 0.306573 -0.555309 0.139082
v 0.228027 -0.453948 -0.273515
v -0.016141 -0.220531 -0.405169
v 0.073791 0.369199 -0.173664
v 0.227171 0.094875 -0.346091
v 0.376663 -0.175729 -0.168310
v 0.426443 -0.294488 0.238924
v 0.351839 -0.201997 0.642628
v 0.193496 0.071041 0.810607
v 0.053415 0.357249 0.636397
v 0.008597 0.477295 0.233612
vt 0.969584 0.835305
vt 0.969584 0.983273
vt 0.821617 0.983273
vt 0.821617 0.835305
vn -0.724000 -0.032700 -0.689000
vn -0.003400 -0.030400 -0.999500
vn 0.009900 0.233300 -0.972300
vn 0.708400 0.028800 -0.705200
vn 0.657200 0.279700 -0.699800
vn 0.998900 0.042300 -0.017500
vn 0.918200 0.386000 -0.089100
vn 0.723000 -0.039700 0.689700
vn 0.583100 0.513300 0.629700
vn -0.000500 -0.123300 0.992400
vn 0.010300 0.504300 0.863500
vn -0.729700 -0.108200 0.675100
vn -0.589200 0.492900 0.640200
vn -0.999000 -0.040700 -0.017800
vn -0.651700 0.251300 -0.715600
vn -0.933500 0.346700 -0.091100
vn -0.760600 -0.156600 0.630100
vn -0.999600 0.009400 -0.025300
vn -0.075700 -0.366500 0.927300
vn 0.742000 -0.283700 0.607400
vn 0.996100 -0.041900 -0.077900
vn 0.729700 -0.139800 -0.669300
vn -0.023300 -0.091600 -0.995500
vn -0.760500 0.000300 -0.649300
vn -0.703300 -0.032700 -0.710100
vn -0.000100 -0.033500 -0.999400
vn 0.000000 -0.711300 -0.702800
vn 0.703200 -0.033300 -0.710100
vn 0.487100 -0.721300 -0.492400
vn 0.986200 -0.033600 -0.162000
vn 0.661100 -0.742000 -0.111100
vn 0.813600 -0.022300 0.580900
vn 0.585100 -0.717200 0.378500
vn -0.000100 -0.019500 0.999800
vn -0.813700 -0.021500 0.580900
vn -0.585100 -0.717200 0.378500
vn -0.986300 -0.032500 -0.161900
vn -0.661100 -0.742000 -0.111100
vn -0.681600 0.321700 -0.657200
vn -0.001300 0.279100 -0.960200
vn 0.683000 0.305700 -0.663400
vn 0.922600 0.360100 -0.138200
vn 0.709300 0.506700 0.490100
vn -0.000600 0.531300 0.847200
vn -0.704600 0.521600 0.481000
vn -0.912900 0.384800 -0.136100
vn -0.487100 -0.721300 -0.492400
vn 0.000000 -1.000000 -0.004500
vn 0.000000 -0.734700 0.678300
vn -0.905400 0.423700 -0.027100
vn -0.681100 0.345000 -0.645800
vn -0.821400 0.195700 0.535700
vn -0.407900 -0.312900 0.857700
vn 0.150500 -0.746800 0.647800
vn 0.863600 -0.492400 0.107900
vn 0.685500 -0.251700 -0.683100
vn -0.066600 0.029900 -0.997300
vn -0.536800 0.617700 -0.574700
vn 0.038500 0.216200 -0.975600
vn 0.824400 -0.248000 -0.508800
vn 0.894000 -0.444600 0.055700
vn 0.404200 -0.541200 0.737400
vn -0.325200 -0.057300 0.943900
vn -0.699500 0.436000 0.566300
vn -0.742400 0.669700 0.019400
usemtl None.002
s 1
f 2/1/1 3/2/2 4/3/3
f 3/1/2 5/2/4 6/3/5
f 6/4/5 5/1/4 7/2/6
f 8/4/7 7/1/6 9/2/8
f 10/4/9 9/1/8 11/2/10
f 12/4/11 11/1/10 13/2/12
f 14/4/13 13/1/12 15/2/14
f 1/3/15 16/4/16 15/1/14
f 17/1/17 18/2/18 15/3/14
f 19/1/19 17/2/17 13/3/12
f 9/4/8 20/1/20 19/2/19
f 7/4/6 21/1/21 20/2/20
f 5/4/4 22/1/22 21/2/21
f 3/4/2 23/1/23 22/2/22
f 2/4/1 24/1/24 23/2/23
f 18/1/18 24/2/24 2/3/1
f 26/1/25 27/2/26 28/3/27
f 27/1/26 29/2/28 30/3/29
f 29/1/28 31/2/30 32/3/31
f 32/4/31 31/1/30 33/2/32
f 34/4/33 33/1/32 35/2/34
f 35/1/34 37/2/35 38/3/36
f 37/1/35 39/2/37 40/3/38
f 40/4/38 39/1/37 26/2/25
f 41/1/39 42/2/40 27/3/26
f 27/4/26 42/1/40 43/2/41
f 29/4/28 43/1/41 44/2/42
f 44/1/42 45/2/43 33/3/32
f 45/1/43 46/2/44 35/3/34
f 35/4/34 46/1/44 47/2/45
f 37/4/35 47/1/45 48/2/46
f 48/1/46 41/2/39 26/3/25
f 41/4/39 1/1/15 4/2/3
f 4/1/3 6/2/5 43/3/41
f 6/1/5 8/2/7 44/3/42
f 8/1/7 10/2/9 45/3/43
f 45/4/43 10/1/9 12/2/11
f 12/1/11 14/2/13 47/3/45
f 47/4/45 14/1/13 16/2/16
f 1/2/15 41/3/39 48/4/46
f 40/4/38 25/1/47 28/2/27
f 28/4/27 30/1/29 32/2/31
f 40/4/38 49/1/48 36/2/49
f 32/4/31 34/1/33 36/2/49
f 50/1/50 51/2/51 24/3/24
f 52/1/52 50/2/50 18/3/18
f 19/4/19 53/1/53 52/2/52
f 20/4/20 54/1/54 53/2/53
f 21/4/21 55/1/55 54/2/54
f 22/4/22 56/1/56 55/2/55
f 57/1/57 56/2/56 22/3/22
f 51/1/51 57/2/57 23/3/23
f 58/1/58 59/2/59 57/3/57
f 59/1/59 60/2/60 56/3/56
f 56/4/56 60/1/60 61/2/61
f 55/4/55 61/1/61 62/2/62
f 54/4/54 62/1/62 63/2/63
f 53/4/53 63/1/63 64/2/64
f 64/1/64 65/2/65 50/3/50
f 65/1/65 58/2/58 51/3/51
f 1/4/15 2/1/1 4/3/3
f 4/4/3 3/1/2 6/3/5
f 8/3/7 6/4/5 7/2/6
f 10/3/9 8/4/7 9/2/8
f 12/3/11 10/4/9 11/2/10
f 14/3/13 12/4/11 13/2/12
f 16/3/16 14/4/13 15/2/14
f 2/2/1 1/3/15 15/1/14
f 13/4/12 17/1/17 15/3/14
f 11/4/10 19/1/19 13/3/12
f 11/3/10 9/4/8 19/2/19
f 9/3/8 7/4/6 20/2/20
f 7/3/6 5/4/4 21/2/21
f 5/3/4 3/4/2 22/2/22
f 3/3/2 2/4/1 23/2/23
f 15/4/14 18/1/18 2/3/1
f 25/4/47 26/1/25 28/3/27
f 28/4/27 27/1/26 30/3/29
f 30/4/29 29/1/28 32/3/31
f 34/3/33 32/4/31 33/2/32
f 36/3/49 34/4/33 35/2/34
f 36/4/49 35/1/34 38/3/36
f 38/4/36 37/1/35 40/3/38
f 25/3/47 40/4/38 26/2/25
f 26/4/25 41/1/39 27/3/26
f 29/3/28 27/4/26 43/2/41
f 31/3/30 29/4/28 44/2/42
f 31/4/30 44/1/42 33/3/32
f 33/4/32 45/1/43 35/3/34
f 37/3/35 35/4/34 47/2/45
f 39/3/37 37/4/35 48/2/46
f 39/4/37 48/1/46 26/3/25
f 42/3/40 41/4/39 4/2/3
f 42/4/40 4/1/3 43/3/41
f 43/4/41 6/1/5 44/3/42
f 44/4/42 8/1/7 45/3/43
f 46/3/44 45/4/43 12/2/11
f 46/4/44 12/1/11 47/3/45
f 48/3/46 47/4/45 16/2/16
f 16/1/16 1/2/15 48/4/46
f 49/3/48 40/4/38 28/2/27
f 49/3/48 28/4/27 32/2/31
f 38/3/36 40/4/38 36/2/49
f 49/3/48 32/4/31 36/2/49
f 18/4/18 50/1/50 24/3/24
f 17/4/17 52/1/52 18/3/18
f 17/3/17 19/4/19 52/2/52
f 19/3/19 20/4/20 53/2/53
f 20/3/20 21/4/21 54/2/54
f 21/3/21 22/4/22 55/2/55
f 23/4/23 57/1/57 22/3/22
f 24/4/24 51/1/51 23/3/23
f 51/4/51 58/1/58 57/3/57
f 57/4/57 59/1/59 56/3/56
f 55/3/55 56/4/56 61/2/61
f 54/3/54 55/4/55 62/2/62
f 53/3/53 54/4/54 63/2/63
f 52/3/52 53/4/53 64/2/64
f 52/4/52 64/1/64 50/3/50
f 50/4/50 65/1/65 51/3/51
