# Blender v2.71 (sub 0) OBJ File: ''
# www.blender.org
mtllib Shinx_M_Tail.mtl
o Shinx_Tail_Shinx
v 0.089577 -0.008239 0.091060
v 0.055362 -0.113538 0.090029
v 0.055362 -0.035491 -0.316256
v 0.089577 0.062694 -0.278198
v -0.055362 -0.113538 0.090029
v -0.055362 -0.035491 -0.316256
v -0.089577 -0.008239 0.091060
v -0.089577 0.062694 -0.278198
v 0.000000 0.056839 0.091697
v 0.000000 0.123377 -0.254676
v 0.055362 0.180676 -0.669004
v 0.089577 0.259161 -0.598797
v -0.055362 0.180676 -0.669004
v -0.089577 0.259161 -0.598797
v 0.000000 0.307667 -0.555407
v 0.055362 0.507251 -0.922989
v 0.089577 0.555972 -0.829634
v -0.055362 0.507251 -0.922989
v -0.089577 0.555972 -0.829634
v 0.000000 0.586084 -0.771938
v 0.055362 0.902363 -1.045650
v 0.089577 0.915075 -0.941116
v -0.055362 0.902363 -1.045650
v -0.089577 0.915075 -0.941116
v 0.000000 0.922931 -0.876510
v 0.055362 1.315358 -1.021259
v 0.089577 1.290430 -0.918948
v -0.055362 1.315358 -1.021259
v -0.089577 1.290430 -0.918948
v 0.000000 1.275024 -0.855716
v 0.000000 1.752960 -0.834141
v 0.000000 -0.037343 0.090775
v 0.707107 2.375359 -0.467446
v 0.403632 1.749367 -0.796284
v 0.000000 1.873108 -1.031844
v 0.000000 2.106697 -0.608577
v -0.707107 2.375359 -0.467446
v -0.403632 1.749367 -0.796284
v -0.707107 1.123375 -1.125124
v 0.000000 1.392037 -0.983994
v 0.707107 1.123375 -1.125124
v 0.000000 1.625627 -0.560727
vt 0.820935 0.835305
vt 0.968902 0.835305
vt 0.968902 0.983273
vt 0.820935 0.983273
vt 0.659830 0.835305
vt 0.807797 0.835305
vt 0.807797 0.983273
vn 0.766600 0.188400 0.613800
vn 0.469800 -0.704200 0.532300
vn 0.557800 -0.773800 -0.299900
vn -0.469800 -0.704200 0.532300
vn -0.557800 -0.773800 -0.299900
vn -0.766600 0.188400 0.613800
vn -0.969300 0.229100 0.088800
vn 0.000000 0.742500 0.669800
vn 0.000000 0.932400 0.361400
vn 0.969300 0.229100 0.088800
vn 0.557800 -0.618500 -0.553300
vn 0.969300 0.183200 0.163900
vn -0.557800 -0.618500 -0.553300
vn -0.969300 0.183200 0.163900
vn 0.000000 0.745300 0.666700
vn 0.557800 -0.384000 -0.735700
vn -0.557800 -0.384000 -0.735700
vn -0.969300 0.113700 0.217900
vn 0.000000 0.462700 0.886500
vn 0.969300 0.113700 0.217900
vn 0.557800 -0.100200 -0.823800
vn -0.557800 -0.100200 -0.823800
vn -0.969300 0.029700 0.244000
vn 0.000000 0.120700 0.992700
vn 0.969300 0.029700 0.244000
vn 0.572200 0.217500 -0.790700
vn 0.954700 0.049100 0.293300
vn -0.572200 0.217500 -0.790700
vn -0.954700 0.049100 0.293300
vn 0.000000 -0.052500 0.998600
vn 0.000000 0.970600 0.240700
vn 0.000000 -0.009800 0.999900
vn 0.707100 0.626000 0.328800
vn 1.000000 0.000000 0.000000
vn 0.000000 0.465000 -0.885300
vn 0.000000 0.885300 0.465000
vn -0.707100 0.626000 0.328800
vn -1.000000 0.000000 0.000000
vn -0.707100 -0.626000 -0.328800
vn 0.000000 -0.885300 -0.465000
vn 0.707100 -0.626000 -0.328800
vn 0.000000 -0.465000 0.885300
usemtl lambert2SG.002
s 1
f 1/1/1 2/2/2 3/3/3
f 5/2/4 6/3/5 3/4/3
f 7/2/6 8/3/7 6/4/5
f 9/2/8 10/3/9 8/4/7
f 9/1/8 1/2/1 4/3/10
f 3/2/3 11/3/11 12/4/12
f 6/2/5 13/3/13 11/4/11
f 6/1/5 8/2/7 14/3/14
f 10/2/9 15/3/15 14/4/14
f 10/1/9 4/2/10 12/3/12
f 12/1/12 11/2/11 16/3/16
f 13/2/13 18/3/17 16/4/16
f 14/2/14 19/3/18 18/4/17
f 14/1/14 15/2/15 20/3/19
f 12/2/12 17/3/20 20/4/19
f 17/1/20 16/2/16 21/3/21
f 18/2/17 23/3/22 21/4/21
f 19/2/18 24/3/23 23/4/22
f 20/2/19 25/3/24 24/4/23
f 17/2/20 22/3/25 25/4/24
f 21/2/21 26/3/26 27/4/27
f 21/1/21 23/2/22 28/3/28
f 24/2/23 29/3/29 28/4/28
f 24/1/23 25/2/24 30/3/30
f 22/2/25 27/3/27 30/4/30
f 27/1/27 26/2/26 31/3/31
f 26/1/26 28/2/28 31/3/31
f 28/1/28 29/2/29 31/3/31
f 29/1/29 30/2/30 31/3/31
f 30/1/30 27/2/27 31/3/31
f 2/1/2 1/2/1 32/3/32
f 5/1/4 2/2/2 32/3/32
f 7/1/6 5/2/4 32/3/32
f 9/1/8 7/2/6 32/3/32
f 1/1/1 9/2/8 32/3/32
f 33/5/33 34/6/34 35/7/35
f 36/5/36 33/6/33 35/7/35
f 37/5/37 36/6/36 35/7/35
f 38/5/38 37/6/37 35/7/35
f 39/5/39 38/6/38 35/7/35
f 40/5/40 39/6/39 35/7/35
f 41/5/41 40/6/40 35/7/35
f 34/5/34 41/6/41 35/7/35
f 33/5/33 42/6/42 34/7/34
f 36/5/36 42/6/42 33/7/33
f 37/5/37 42/6/42 36/7/36
f 38/5/38 42/6/42 37/7/37
f 39/5/39 42/6/42 38/7/38
f 40/5/40 42/6/42 39/7/39
f 41/5/41 42/6/42 40/7/40
f 34/5/34 42/6/42 41/7/41
f 4/4/10 1/1/1 3/3/3
f 2/1/2 5/2/4 3/4/3
f 5/1/4 7/2/6 6/4/5
f 7/1/6 9/2/8 8/4/7
f 10/4/9 9/1/8 4/3/10
f 4/1/10 3/2/3 12/4/12
f 3/1/3 6/2/5 11/4/11
f 13/4/13 6/1/5 14/3/14
f 8/1/7 10/2/9 14/4/14
f 15/4/15 10/1/9 12/3/12
f 17/4/20 12/1/12 16/3/16
f 11/1/11 13/2/13 16/4/16
f 13/1/13 14/2/14 18/4/17
f 19/4/18 14/1/14 20/3/19
f 15/1/15 12/2/12 20/4/19
f 22/4/25 17/1/20 21/3/21
f 16/1/16 18/2/17 21/4/21
f 18/1/17 19/2/18 23/4/22
f 19/1/18 20/2/19 24/4/23
f 20/1/19 17/2/20 25/4/24
f 22/1/25 21/2/21 27/4/27
f 26/4/26 21/1/21 28/3/28
f 23/1/22 24/2/23 28/4/28
f 29/4/29 24/1/23 30/3/30
f 25/1/24 22/2/25 30/4/30
