# Blender v2.71 (sub 0) OBJ File: ''
# www.blender.org
mtllib LeftLeg.mtl
o LeftLeg.016
v 0.665003 -2.894427 -0.665003
v 0.000000 -2.894427 -0.940456
v 0.000000 -2.094426 -1.521690
v -0.665003 -2.894427 -0.665003
v -1.075998 -2.094426 -1.075998
v -0.940456 -2.894427 -0.000000
v -1.521690 -2.094427 -0.000000
v -0.665003 -2.894427 0.665002
v 0.000000 -2.894427 0.940455
v 0.000000 -2.094427 1.521690
v 0.665003 -2.894427 0.665002
v 1.075998 -2.094427 1.075998
v 0.940456 -2.894427 -0.000000
v 1.521691 -2.094427 -0.000000
v 1.075998 -2.094426 -1.075998
v 0.000000 -1.105573 -1.521690
v -1.075998 -1.105573 -1.075998
v -1.521690 -1.105573 -0.000000
v -1.075998 -2.094427 1.075998
v -1.075998 -1.105573 1.075998
v 0.000000 -1.105573 1.521690
v 1.075998 -1.105573 1.075998
v 1.521691 -1.105573 -0.000000
v 1.075998 -1.105573 -1.075998
v 0.000000 -0.305573 -0.940456
v -0.665003 -0.305573 -0.665003
v -0.665003 -0.305573 0.665003
v 0.665003 -0.305573 0.665003
v 0.940456 -0.305573 -0.000000
v 0.665003 -0.305573 -0.665003
v 0.000000 -3.200000 -0.000002
v 0.000000 0.000000 0.000000
v -0.940456 -0.305573 -0.000000
v 0.000000 -0.305573 0.940456
vt 0.193734 0.944053
vt 0.174169 0.944053
vt 0.174169 0.920516
vt 0.154604 0.944053
vt 0.142512 0.920516
vt 0.229372 0.787727
vt 0.248937 0.787727
vt 0.248937 0.811264
vt 0.268502 0.787727
vt 0.159922 0.787727
vt 0.179487 0.787727
vt 0.179487 0.811264
vt 0.199052 0.787727
vt 0.211144 0.811264
vt 0.090472 0.769167
vt 0.110037 0.769167
vt 0.110037 0.792704
vt 0.129602 0.769167
vt 0.141694 0.792704
vt 0.205826 0.920516
vt 0.174169 0.891423
vt 0.142512 0.891423
vt 0.217280 0.811264
vt 0.248937 0.840357
vt 0.280594 0.811264
vt 0.280594 0.840357
vt 0.147830 0.811264
vt 0.179487 0.840357
vt 0.211144 0.840357
vt 0.078380 0.792704
vt 0.110037 0.821797
vt 0.141694 0.821797
vt 0.205826 0.891423
vt 0.174169 0.867886
vt 0.154604 0.867886
vt 0.217280 0.840357
vt 0.229372 0.863894
vt 0.268502 0.863894
vt 0.147830 0.840357
vt 0.159922 0.863894
vt 0.199052 0.863894
vt 0.078380 0.821797
vt 0.110037 0.845334
vt 0.129602 0.845334
vt 0.367025 0.889852
vt 0.386591 0.897956
vt 0.367025 0.917522
vt 0.347460 0.897956
vt 0.339356 0.917522
vt 0.347460 0.937087
vt 0.367025 0.945191
vt 0.386591 0.937087
vt 0.394695 0.917522
vt 0.511323 0.961034
vt 0.491758 0.969138
vt 0.491758 0.941469
vt 0.472193 0.961034
vt 0.464089 0.941469
vt 0.472193 0.921903
vt 0.491758 0.913799
vt 0.511323 0.921903
vt 0.519428 0.941469
vt 0.193734 0.867886
vt 0.179487 0.863894
vt 0.248937 0.863894
vt 0.090472 0.845334
vn 0.317700 -0.557300 -0.767100
vn -0.317700 -0.557300 -0.767100
vn -0.767100 -0.557300 -0.317700
vn -0.767100 -0.557300 0.317700
vn -0.317700 -0.557300 0.767100
vn 0.317700 -0.557300 0.767100
vn 0.767100 -0.557300 0.317700
vn 0.767100 -0.557300 -0.317700
vn 0.382700 0.000000 -0.923900
vn -0.382700 0.000000 -0.923900
vn -0.923900 0.000000 -0.382700
vn -0.923900 0.000000 0.382700
vn -0.382700 -0.000000 0.923900
vn 0.382700 -0.000000 0.923900
vn 0.923900 -0.000000 0.382700
vn 0.923900 -0.000000 -0.382700
vn 0.317700 0.557300 -0.767100
vn -0.317700 0.557300 -0.767100
vn -0.767100 0.557300 -0.317700
vn -0.767100 0.557300 0.317700
vn -0.317700 0.557300 0.767100
vn 0.317700 0.557300 0.767100
vn 0.767100 0.557300 0.317700
vn 0.767100 0.557300 -0.317700
vn 0.127000 -0.943400 -0.306500
vn -0.127000 -0.943400 -0.306500
vn -0.306500 -0.943400 -0.127000
vn -0.306500 -0.943400 0.127000
vn -0.127000 -0.943400 0.306500
vn 0.127000 -0.943400 0.306500
vn 0.306500 -0.943400 0.127000
vn 0.306500 -0.943400 -0.127000
vn 0.127000 0.943400 -0.306500
vn -0.127000 0.943400 -0.306500
vn -0.306500 0.943400 -0.127000
vn -0.306500 0.943400 0.127000
vn -0.127000 0.943400 0.306500
vn 0.127000 0.943400 0.306500
vn 0.306500 0.943400 0.127000
vn 0.306500 0.943400 -0.127000
usemtl lambert5SG.015
s off
f 1/1/1 2/2/1 3/3/1
f 2/2/2 4/4/2 5/5/2
f 4/6/3 6/7/3 7/8/3
f 6/7/4 8/9/4 7/8/4
f 8/10/5 9/11/5 10/12/5
f 9/11/6 11/13/6 12/14/6
f 11/15/7 13/16/7 14/17/7
f 13/16/8 1/18/8 15/19/8
f 15/20/9 3/3/9 16/21/9
f 3/3/10 5/5/10 17/22/10
f 5/23/11 7/8/11 18/24/11
f 7/8/12 19/25/12 20/26/12
f 19/27/13 10/12/13 21/28/13
f 10/12/14 12/14/14 22/29/14
f 12/30/15 14/17/15 23/31/15
f 14/17/16 15/19/16 24/32/16
f 24/33/17 16/21/17 25/34/17
f 16/21/18 17/22/18 26/35/18
f 17/36/19 18/24/19 26/37/19
f 18/24/20 20/26/20 27/38/20
f 20/39/21 21/28/21 27/40/21
f 21/28/22 22/29/22 28/41/22
f 22/42/23 23/31/23 29/43/23
f 23/31/24 24/32/24 30/44/24
f 2/45/25 1/46/25 31/47/25
f 4/48/26 2/45/26 31/47/26
f 6/49/27 4/48/27 31/47/27
f 8/50/28 6/49/28 31/47/28
f 9/51/29 8/50/29 31/47/29
f 11/52/30 9/51/30 31/47/30
f 13/53/31 11/52/31 31/47/31
f 1/46/32 13/53/32 31/47/32
f 30/54/33 25/55/33 32/56/33
f 25/55/34 26/57/34 32/56/34
f 26/57/35 33/58/35 32/56/35
f 33/58/36 27/59/36 32/56/36
f 27/59/37 34/60/37 32/56/37
f 34/60/38 28/61/38 32/56/38
f 28/61/39 29/62/39 32/56/39
f 29/62/40 30/54/40 32/56/40
f 15/20/1 1/1/1 3/3/1
f 3/3/2 2/2/2 5/5/2
f 5/23/3 4/6/3 7/8/3
f 19/27/5 8/10/5 10/12/5
f 10/12/6 9/11/6 12/14/6
f 12/30/7 11/15/7 14/17/7
f 14/17/8 13/16/8 15/19/8
f 24/33/9 15/20/9 16/21/9
f 16/21/10 3/3/10 17/22/10
f 17/36/11 5/23/11 18/24/11
f 18/24/12 7/8/12 20/26/12
f 20/39/13 19/27/13 21/28/13
f 21/28/14 10/12/14 22/29/14
f 22/42/15 12/30/15 23/31/15
f 23/31/16 14/17/16 24/32/16
f 30/63/17 24/33/17 25/34/17
f 25/34/18 16/21/18 26/35/18
f 21/28/21 34/64/21 27/40/21
f 33/65/20 18/24/20 27/38/20
f 34/64/22 21/28/22 28/41/22
f 28/66/23 22/42/23 29/43/23
f 29/43/24 23/31/24 30/44/24
f 18/24/19 33/65/19 26/37/19
f 8/9/4 19/25/4 7/8/4
