# Blender v2.71 (sub 0) OBJ File: ''
# www.blender.org
mtllib RightLeg.mtl
o RightLeg.017
v 0.665003 -2.894427 -0.665003
v 0.000000 -2.894427 -0.940456
v 0.000000 -2.094427 -1.521690
v -0.665003 -2.894427 -0.665003
v -0.940456 -2.894427 -0.000000
v -1.521690 -2.094427 -0.000000
v -0.665003 -2.894427 0.665003
v 0.000000 -2.894427 0.940455
v 0.000000 -2.094427 1.521690
v 0.665003 -2.894427 0.665003
v 0.940456 -2.894427 -0.000000
v 1.075998 -2.094427 1.075998
v 1.075998 -2.094427 -1.075998
v 0.000000 -1.105573 -1.521690
v -1.075998 -2.094427 -1.075998
v -1.075998 -1.105573 -1.075998
v -1.521690 -1.105573 -0.000000
v -1.075998 -2.094427 1.075998
v -1.075998 -1.105573 1.075998
v 0.000000 -1.105573 1.521690
v 1.075998 -1.105573 1.075998
v 1.521691 -2.094427 -0.000000
v 1.521691 -1.105573 -0.000000
v 1.075998 -1.105573 -1.075998
v 0.665003 -0.305573 -0.665003
v -0.665003 -0.305573 -0.665003
v -0.665003 -0.305573 0.665003
v 0.000000 -0.305573 0.940456
v 0.665003 -0.305573 0.665003
v 0.940456 -0.305573 -0.000000
v 0.000000 -3.200000 -0.000002
v 0.000000 -0.305573 -0.940456
v 0.000000 0.000000 0.000000
v -0.940456 -0.305573 -0.000000
vt 0.263896 0.944053
vt 0.244331 0.944053
vt 0.244331 0.920516
vt 0.224766 0.944053
vt 0.021022 0.769167
vt 0.040587 0.769167
vt 0.040587 0.792704
vt 0.060152 0.769167
vt 0.014084 0.849326
vt 0.033649 0.849326
vt 0.033649 0.872863
vt 0.053215 0.849326
vt 0.084441 0.849326
vt 0.104007 0.849326
vt 0.072349 0.872863
vt 0.123572 0.849326
vt 0.135664 0.872863
vt 0.275988 0.920516
vt 0.244331 0.891423
vt 0.212674 0.920516
vt 0.212674 0.891423
vt 0.008930 0.792704
vt 0.040587 0.821797
vt 0.072244 0.792704
vt 0.072244 0.821797
vt 0.001992 0.872863
vt 0.033649 0.901956
vt 0.065307 0.872863
vt 0.065307 0.901956
vt 0.104007 0.872863
vt 0.104007 0.901956
vt 0.135664 0.901956
vt 0.275988 0.891423
vt 0.263896 0.867886
vt 0.224766 0.867886
vt 0.008930 0.821797
vt 0.021022 0.845334
vt 0.060152 0.845334
vt 0.001992 0.901956
vt 0.033649 0.925494
vt 0.053215 0.925494
vt 0.072349 0.901956
vt 0.104007 0.925494
vt 0.123572 0.925494
vt 0.429392 0.889852
vt 0.448957 0.897956
vt 0.429392 0.917522
vt 0.409826 0.897956
vt 0.401722 0.917522
vt 0.409826 0.937087
vt 0.429392 0.945191
vt 0.448957 0.937087
vt 0.457061 0.917522
vt 0.573690 0.921903
vt 0.581794 0.941469
vt 0.554125 0.941469
vt 0.573690 0.961034
vt 0.554125 0.969138
vt 0.534559 0.961034
vt 0.526455 0.941469
vt 0.534559 0.921903
vt 0.554125 0.913799
vt 0.244331 0.867886
vt 0.040587 0.845334
vt 0.014084 0.925494
vt 0.084441 0.925494
vn 0.317700 -0.557300 -0.767100
vn -0.317700 -0.557300 -0.767100
vn -0.767100 -0.557300 -0.317700
vn -0.767100 -0.557300 0.317700
vn -0.317700 -0.557300 0.767100
vn 0.317700 -0.557300 0.767100
vn 0.767100 -0.557300 0.317700
vn 0.767100 -0.557300 -0.317700
vn 0.382700 0.000000 -0.923900
vn -0.382700 0.000000 -0.923900
vn -0.923900 0.000000 -0.382700
vn -0.923900 0.000000 0.382700
vn -0.382700 -0.000000 0.923900
vn 0.382700 -0.000000 0.923900
vn 0.923900 -0.000000 0.382700
vn 0.923900 -0.000000 -0.382700
vn 0.317700 0.557300 -0.767100
vn -0.317700 0.557300 -0.767100
vn -0.767100 0.557300 -0.317700
vn -0.767100 0.557300 0.317700
vn -0.317700 0.557300 0.767100
vn 0.317700 0.557300 0.767100
vn 0.767100 0.557300 0.317700
vn 0.767100 0.557300 -0.317700
vn 0.127000 -0.943400 -0.306500
vn -0.127000 -0.943400 -0.306500
vn -0.306500 -0.943400 -0.127000
vn -0.306500 -0.943400 0.127000
vn -0.127000 -0.943400 0.306500
vn 0.127000 -0.943400 0.306500
vn 0.306500 -0.943400 0.127000
vn 0.306500 -0.943400 -0.127000
vn 0.127000 0.943400 -0.306500
vn -0.127000 0.943400 -0.306500
vn -0.306500 0.943400 -0.127000
vn -0.306500 0.943400 0.127000
vn -0.127000 0.943400 0.306500
vn 0.127000 0.943400 0.306500
vn 0.306500 0.943400 0.127000
vn 0.306500 0.943400 -0.127000
usemtl lambert5SG.016
s off
f 1/1/1 2/2/1 3/3/1
f 2/2/2 4/4/2 3/3/2
f 4/5/3 5/6/3 6/7/3
f 5/6/4 7/8/4 6/7/4
f 7/9/5 8/10/5 9/11/5
f 8/10/6 10/12/6 9/11/6
f 10/13/7 11/14/7 12/15/7
f 11/14/8 1/16/8 13/17/8
f 13/18/9 3/3/9 14/19/9
f 3/3/10 15/20/10 16/21/10
f 15/22/11 6/7/11 17/23/11
f 6/7/12 18/24/12 19/25/12
f 18/26/13 9/11/13 20/27/13
f 9/11/14 12/28/14 21/29/14
f 12/15/15 22/30/15 23/31/15
f 22/30/16 13/17/16 24/32/16
f 24/33/17 14/19/17 25/34/17
f 14/19/18 16/21/18 26/35/18
f 16/36/19 17/23/19 26/37/19
f 17/23/20 19/25/20 27/38/20
f 19/39/21 20/27/21 28/40/21
f 20/27/22 21/29/22 29/41/22
f 21/42/23 23/31/23 30/43/23
f 23/31/24 24/32/24 25/44/24
f 2/45/25 1/46/25 31/47/25
f 4/48/26 2/45/26 31/47/26
f 5/49/27 4/48/27 31/47/27
f 7/50/28 5/49/28 31/47/28
f 8/51/29 7/50/29 31/47/29
f 10/52/30 8/51/30 31/47/30
f 11/53/31 10/52/31 31/47/31
f 1/46/32 11/53/32 31/47/32
f 25/54/33 32/55/33 33/56/33
f 32/55/34 26/57/34 33/56/34
f 26/57/35 34/58/35 33/56/35
f 34/58/36 27/59/36 33/56/36
f 27/59/37 28/60/37 33/56/37
f 28/60/38 29/61/38 33/56/38
f 29/61/39 30/62/39 33/56/39
f 30/62/40 25/54/40 33/56/40
f 11/14/7 22/30/7 12/15/7
f 14/19/17 32/63/17 25/34/17
f 13/18/1 1/1/1 3/3/1
f 15/22/3 4/5/3 6/7/3
f 17/23/19 34/64/19 26/37/19
f 18/26/5 7/9/5 9/11/5
f 7/8/4 18/24/4 6/7/4
f 22/30/8 11/14/8 13/17/8
f 24/33/9 13/18/9 14/19/9
f 14/19/10 3/3/10 16/21/10
f 16/36/11 15/22/11 17/23/11
f 17/23/12 6/7/12 19/25/12
f 19/39/13 18/26/13 20/27/13
f 20/27/14 9/11/14 21/29/14
f 21/42/15 12/15/15 23/31/15
f 23/31/16 22/30/16 24/32/16
f 32/63/18 14/19/18 26/35/18
f 34/64/20 17/23/20 27/38/20
f 27/65/21 19/39/21 28/40/21
f 28/40/22 20/27/22 29/41/22
f 29/66/23 21/42/23 30/43/23
f 30/43/24 23/31/24 25/44/24
f 10/12/6 12/28/6 9/11/6
f 4/4/2 15/20/2 3/3/2
