# This file uses centimeters as units for non-parametric coordinates.

mtllib MunchlaxRArm.mtl
g default
v -0.269340 0.742620 0.411980
v -0.269340 0.742620 -0.558220
v -1.849500 -0.246540 -0.558220
v -1.849500 -0.246540 0.411980
v 0.152860 0.068180 -1.011460
v -1.427300 -0.920980 -0.965260
v -1.427300 -0.920980 0.844300
v 0.152860 0.068180 0.844300
v 0.567700 -0.594520 -0.658520
v -1.012460 -1.583680 -0.658520
v -1.012460 -1.583680 0.407640
v 0.567700 -0.594520 0.407640
v -2.818900 -1.103280 -0.571200
v -2.818900 -1.103280 0.405040
v -2.509980 -1.596800 0.809020
v -2.509980 -1.596800 -0.920080
v -2.206420 -2.081720 0.385640
v -2.206420 -2.081720 -0.648120
v -3.186420 -1.726580 0.356300
v -2.798580 -1.771200 0.740920
v -2.801560 -1.765980 -0.874500
v -3.187040 -1.722960 -0.555720
v -2.911900 -2.173960 0.353820
v -2.912540 -2.170300 -0.565180
v -3.300500 -2.099620 0.814640
v -3.251160 -1.952360 -0.914320
v -3.233820 -1.649260 0.031980
v -3.241040 -1.637440 -0.259340
v -2.869140 -2.256820 0.034060
v -2.867780 -2.258960 -0.257220
v -3.426080 -2.171500 0.273720
v -3.450840 -2.181080 -0.525220
v -3.432020 -2.176380 -0.112540
vt 0.091600 0.742200
vt 0.106400 0.734600
vt 0.154700 0.708200
vt 0.154700 0.708200
vt 0.139900 0.715800
vt 0.091600 0.742200
vt 0.106400 0.734600
vt 0.100400 0.707200
vt 0.148000 0.681000
vt 0.148000 0.681000
vt 0.154700 0.708200
vt 0.106400 0.734600
vt 0.139900 0.715800
vt 0.120400 0.695200
vt 0.072100 0.721700
vt 0.072100 0.721700
vt 0.091600 0.742200
vt 0.139900 0.715800
vt 0.100400 0.707200
vt 0.082400 0.686400
vt 0.130700 0.659900
vt 0.130700 0.659900
vt 0.148000 0.681000
vt 0.100400 0.707200
vt 0.120400 0.695200
vt 0.114400 0.668300
vt 0.066100 0.694800
vt 0.066100 0.694800
vt 0.072100 0.721700
vt 0.120400 0.695200
vt 0.082400 0.686400
vt 0.066100 0.694800
vt 0.114400 0.668300
vt 0.114400 0.668300
vt 0.130700 0.659900
vt 0.082400 0.686400
vt 0.154700 0.708200
vt 0.184600 0.683500
vt 0.169700 0.691200
vt 0.169700 0.691200
vt 0.139900 0.715800
vt 0.154700 0.708200
vt 0.139900 0.715800
vt 0.169700 0.691200
vt 0.154100 0.676900
vt 0.154100 0.676900
vt 0.120400 0.695200
vt 0.139900 0.715800
vt 0.148000 0.681000
vt 0.180500 0.663300
vt 0.184600 0.683500
vt 0.184600 0.683500
vt 0.154700 0.708200
vt 0.148000 0.681000
vt 0.120400 0.695200
vt 0.154100 0.676900
vt 0.151200 0.656300
vt 0.151200 0.656300
vt 0.114400 0.668300
vt 0.120400 0.695200
vt 0.130700 0.659900
vt 0.167000 0.648200
vt 0.180500 0.663300
vt 0.180500 0.663300
vt 0.148000 0.681000
vt 0.130700 0.659900
vt 0.114400 0.668300
vt 0.151200 0.656300
vt 0.167000 0.648200
vt 0.167000 0.648200
vt 0.130700 0.659900
vt 0.114400 0.668300
vt 0.169700 0.691200
vt 0.181700 0.671700
vt 0.163900 0.671700
vt 0.163900 0.671700
vt 0.154100 0.676900
vt 0.169700 0.691200
vt 0.180500 0.663300
vt 0.188700 0.659200
vt 0.195600 0.664600
vt 0.195600 0.664600
vt 0.184600 0.683500
vt 0.180500 0.663300
vt 0.154100 0.676900
vt 0.163900 0.671700
vt 0.173300 0.655800
vt 0.173300 0.655800
vt 0.151200 0.656300
vt 0.154100 0.676900
vt 0.167000 0.648200
vt 0.187300 0.648700
vt 0.188700 0.659200
vt 0.188700 0.659200
vt 0.180500 0.663300
vt 0.167000 0.648200
vt 0.181700 0.671700
vt 0.178100 0.663400
vt 0.163900 0.671700
vt 0.163900 0.671700
vt 0.178100 0.663400
vt 0.173300 0.655800
vt 0.173300 0.655800
vt 0.178100 0.663400
vt 0.181700 0.671700
vt 0.188700 0.659200
vt 0.203000 0.654500
vt 0.195600 0.664600
vt 0.195600 0.664600
vt 0.203000 0.654500
vt 0.187300 0.648700
vt 0.187300 0.648700
vt 0.203000 0.654500
vt 0.188700 0.659200
vt 0.181700 0.671700
vt 0.169700 0.691200
vt 0.188100 0.671900
vt 0.169700 0.691200
vt 0.184600 0.683500
vt 0.192700 0.670000
vt 0.192700 0.670000
vt 0.188100 0.671900
vt 0.169700 0.691200
vt 0.184600 0.683500
vt 0.195600 0.664600
vt 0.192700 0.670000
vt 0.173300 0.655800
vt 0.176900 0.650400
vt 0.151200 0.656300
vt 0.151200 0.656300
vt 0.176900 0.650400
vt 0.181300 0.648000
vt 0.181300 0.648000
vt 0.167000 0.648200
vt 0.151200 0.656300
vt 0.167000 0.648200
vt 0.181300 0.648000
vt 0.187300 0.648700
vt 0.181700 0.671700
vt 0.190200 0.657300
vt 0.173300 0.655800
vt 0.173300 0.655800
vt 0.190200 0.657300
vt 0.176900 0.650400
vt 0.176900 0.650400
vt 0.190200 0.657300
vt 0.188100 0.671900
vt 0.188100 0.671900
vt 0.190200 0.657300
vt 0.181700 0.671700
vt 0.187300 0.648700
vt 0.203200 0.650800
vt 0.195600 0.664600
vt 0.195600 0.664600
vt 0.203200 0.650800
vt 0.192700 0.670000
vt 0.192700 0.670000
vt 0.203200 0.650800
vt 0.181300 0.648000
vt 0.181300 0.648000
vt 0.203200 0.650800
vt 0.187300 0.648700
vt 0.192700 0.670000
vt 0.196300 0.654100
vt 0.188100 0.671900
vt 0.188100 0.671900
vt 0.196300 0.654100
vt 0.176900 0.650400
vt 0.176900 0.650400
vt 0.196300 0.654100
vt 0.181300 0.648000
vt 0.181300 0.648000
vt 0.196300 0.654100
vt 0.192700 0.670000
vn -0.530610 0.847616 0.000000
vn -0.530610 0.847616 0.000000
vn -0.530610 0.847616 0.000000
vn -0.530610 0.847616 -0.000000
vn -0.530610 0.847616 -0.000000
vn -0.530610 0.847616 -0.000000
vn -0.280807 0.408010 -0.868721
vn -0.280807 0.408010 -0.868721
vn -0.280807 0.408010 -0.868721
vn -0.241600 0.386000 -0.890300
vn -0.241600 0.386000 -0.890300
vn -0.241600 0.386000 -0.890300
vn -0.253293 0.404689 0.878675
vn -0.253293 0.404689 0.878675
vn -0.253293 0.404689 0.878675
vn -0.253293 0.404689 0.878675
vn -0.253293 0.404689 0.878675
vn -0.253293 0.404689 0.878675
vn 0.218304 -0.348806 -0.911415
vn 0.218304 -0.348806 -0.911415
vn 0.218304 -0.348806 -0.911415
vn 0.174197 -0.321694 -0.930682
vn 0.174197 -0.321694 -0.930682
vn 0.174197 -0.321694 -0.930682
vn 0.258694 -0.413290 0.873080
vn 0.258694 -0.413290 0.873080
vn 0.258694 -0.413290 0.873080
vn 0.258694 -0.413290 0.873080
vn 0.258694 -0.413290 0.873080
vn 0.258694 -0.413290 0.873080
vn 0.530610 -0.847616 0.000000
vn 0.530610 -0.847616 0.000000
vn 0.530610 -0.847616 0.000000
vn 0.530610 -0.847616 0.000000
vn 0.530610 -0.847616 0.000000
vn 0.530610 -0.847616 0.000000
vn -0.662213 0.749315 0.000000
vn -0.662213 0.749315 0.000000
vn -0.662213 0.749315 0.000000
vn -0.662213 0.749315 -0.000000
vn -0.662213 0.749315 -0.000000
vn -0.662213 0.749315 -0.000000
vn -0.384600 0.428500 0.817600
vn -0.384600 0.428500 0.817600
vn -0.384600 0.428500 0.817600
vn -0.273308 0.392011 0.878425
vn -0.273308 0.392011 0.878425
vn -0.273308 0.392011 0.878425
vn -0.297805 0.419707 -0.857414
vn -0.297805 0.419707 -0.857414
vn -0.297805 0.419707 -0.857414
vn -0.297396 0.349996 -0.888290
vn -0.297396 0.349996 -0.888290
vn -0.297396 0.349996 -0.888290
vn 0.296098 -0.516296 0.803595
vn 0.296098 -0.516296 0.803595
vn 0.296098 -0.516296 0.803595
vn 0.176700 -0.462000 0.869099
vn 0.176700 -0.462000 0.869099
vn 0.176700 -0.462000 0.869099
vn 0.160797 -0.404293 -0.900384
vn 0.160797 -0.404293 -0.900384
vn 0.160797 -0.404293 -0.900384
vn 0.165400 -0.327101 -0.930402
vn 0.165400 -0.327101 -0.930402
vn 0.165400 -0.327101 -0.930402
vn 0.385006 -0.922914 0.000000
vn 0.385006 -0.922914 0.000000
vn 0.385006 -0.922914 0.000000
vn 0.385006 -0.922914 0.000000
vn 0.385006 -0.922914 0.000000
vn 0.385006 -0.922914 0.000000
vn -0.646207 0.327103 0.689507
vn -0.646207 0.327103 0.689507
vn -0.646207 0.327103 0.689507
vn -0.430274 0.395076 0.811652
vn -0.430274 0.395076 0.811652
vn -0.430274 0.395076 0.811652
vn -0.458623 0.618531 -0.638032
vn -0.458623 0.618531 -0.638032
vn -0.458623 0.618531 -0.638032
vn -0.494880 0.273289 -0.824868
vn -0.494880 0.273289 -0.824868
vn -0.494880 0.273289 -0.824868
vn 0.271896 -0.705489 0.654490
vn 0.271896 -0.705489 0.654490
vn 0.271896 -0.705489 0.654490
vn 0.049000 -0.639297 0.767397
vn 0.049000 -0.639297 0.767397
vn 0.049000 -0.639297 0.767397
vn -0.017700 -0.604504 -0.796405
vn -0.017700 -0.604504 -0.796405
vn -0.017700 -0.604504 -0.796405
vn 0.111002 -0.432409 -0.894819
vn 0.111002 -0.432409 -0.894819
vn 0.111002 -0.432409 -0.894819
vn -0.417792 0.752785 0.508690
vn -0.417792 0.752785 0.508690
vn -0.417792 0.752785 0.508690
vn 0.514617 -0.665021 0.541217
vn 0.514617 -0.665021 0.541217
vn 0.514617 -0.665021 0.541217
vn -0.720509 -0.439105 -0.536706
vn -0.720509 -0.439105 -0.536706
vn -0.720509 -0.439105 -0.536706
vn -0.300700 0.826900 -0.475200
vn -0.300700 0.826900 -0.475200
vn -0.300700 0.826900 -0.475200
vn -0.760918 -0.476212 0.440711
vn -0.760918 -0.476212 0.440711
vn -0.760918 -0.476212 0.440711
vn 0.323487 -0.629375 -0.706572
vn 0.323487 -0.629375 -0.706572
vn 0.323487 -0.629375 -0.706572
vn -0.844705 0.479503 0.237802
vn -0.844705 0.479503 0.237802
vn -0.844705 0.479503 0.237802
vn -0.784601 0.620001 0.000000
vn -0.784601 0.620001 0.000000
vn -0.784601 0.620001 0.000000
vn -0.809622 0.585316 0.043801
vn -0.809622 0.585316 0.043801
vn -0.809622 0.585316 0.043801
vn -0.825979 0.483388 -0.289993
vn -0.825979 0.483388 -0.289993
vn -0.825979 0.483388 -0.289993
vn 0.113400 -0.957998 0.263400
vn 0.113400 -0.957998 0.263400
vn 0.113400 -0.957998 0.263400
vn 0.251294 -0.967875 0.008300
vn 0.251294 -0.967875 0.008300
vn 0.251294 -0.967875 0.008300
vn 0.258901 -0.965904 0.000000
vn 0.258901 -0.965904 0.000000
vn 0.258901 -0.965904 0.000000
vn 0.086000 -0.954002 -0.287201
vn 0.086000 -0.954002 -0.287201
vn 0.086000 -0.954002 -0.287201
vn -0.153597 -0.099798 0.983081
vn -0.153597 -0.099798 0.983081
vn -0.153597 -0.099798 0.983081
vn -0.042800 -0.968502 0.245300
vn -0.042800 -0.968502 0.245300
vn -0.042800 -0.968502 0.245300
vn -0.414808 -0.252005 -0.874316
vn -0.414808 -0.252005 -0.874316
vn -0.414808 -0.252005 -0.874316
vn -0.874020 0.428110 0.229805
vn -0.874020 0.428110 0.229805
vn -0.874020 0.428110 0.229805
vn -0.073500 -0.024000 -0.997006
vn -0.073500 -0.024000 -0.997006
vn -0.073500 -0.024000 -0.997006
vn -0.838370 0.463683 -0.286590
vn -0.838370 0.463683 -0.286590
vn -0.838370 0.463683 -0.286590
vn -0.431714 -0.256309 0.864829
vn -0.431714 -0.256309 0.864829
vn -0.431714 -0.256309 0.864829
vn -0.001300 -0.961012 -0.276503
vn -0.001300 -0.961012 -0.276503
vn -0.001300 -0.961012 -0.276503
vn -0.938707 0.342703 0.037200
vn -0.938707 0.342703 0.037200
vn -0.938707 0.342703 0.037200
vn -0.269989 -0.158894 0.949662
vn -0.269989 -0.158894 0.949662
vn -0.269989 -0.158894 0.949662
vn -0.143098 -0.989687 0.006600
vn -0.143098 -0.989687 0.006600
vn -0.143098 -0.989687 0.006600
vn -0.267504 -0.163903 -0.949514
vn -0.267504 -0.163903 -0.949514
vn -0.267504 -0.163903 -0.949514
s off
g RArm
usemtl None
f 1/1/1 2/2/2 3/3/3
f 3/4/4 4/5/5 1/6/6
f 2/7/7 5/8/8 6/9/9
f 6/10/10 3/11/11 2/12/12
f 4/13/13 7/14/14 8/15/15
f 8/16/16 1/17/17 4/18/18
f 5/19/19 9/20/20 10/21/21
f 10/22/22 6/23/23 5/24/24
f 7/25/25 11/26/26 12/27/27
f 12/28/28 8/29/29 7/30/30
f 9/31/31 12/32/32 11/33/33
f 11/34/34 10/35/35 9/36/36
f 3/37/37 13/38/38 14/39/39
f 14/40/40 4/41/41 3/42/42
f 4/43/43 14/44/44 15/45/45
f 15/46/46 7/47/47 4/48/48
f 6/49/49 16/50/50 13/51/51
f 13/52/52 3/53/53 6/54/54
f 7/55/55 15/56/56 17/57/57
f 17/58/58 11/59/59 7/60/60
f 10/61/61 18/62/62 16/63/63
f 16/64/64 6/65/65 10/66/66
f 11/67/67 17/68/68 18/69/69
f 18/70/70 10/71/71 11/72/72
f 14/73/73 19/74/74 20/75/75
f 20/76/76 15/77/77 14/78/78
f 16/79/79 21/80/80 22/81/81
f 22/82/82 13/83/83 16/84/84
f 15/85/85 20/86/86 23/87/87
f 23/88/88 17/89/89 15/90/90
f 18/91/91 24/92/92 21/93/93
f 21/94/94 16/95/95 18/96/96
f 19/97/97 25/98/98 20/99/99
f 20/100/100 25/101/101 23/102/102
f 23/103/103 25/104/104 19/105/105
f 21/106/106 26/107/107 22/108/108
f 22/109/109 26/110/110 24/111/111
f 24/112/112 26/113/113 21/114/114
f 19/115/115 14/116/116 27/117/117
f 14/118/118 13/119/119 28/120/120
f 28/121/121 27/122/122 14/123/123
f 13/124/124 22/125/125 28/126/126
f 23/127/127 29/128/128 17/129/129
f 17/130/130 29/131/131 30/132/132
f 30/133/133 18/134/134 17/135/135
f 18/136/136 30/137/137 24/138/138
f 19/139/139 31/140/140 23/141/141
f 23/142/142 31/143/143 29/144/144
f 29/145/145 31/146/146 27/147/147
f 27/148/148 31/149/149 19/150/150
f 24/151/151 32/152/152 22/153/153
f 22/154/154 32/155/155 28/156/156
f 28/157/157 32/158/158 30/159/159
f 30/160/160 32/161/161 24/162/162
f 28/163/163 33/164/164 27/165/165
f 27/166/166 33/167/167 29/168/168
f 29/169/169 33/170/170 30/171/171
f 30/172/172 33/173/173 28/174/174
