# This file uses centimeters as units for non-parametric coordinates.

mtllib MunchlaxLArm.mtl
g default
v 0.269340 0.742620 0.411980
v 1.849500 -0.246540 0.411980
v 1.849500 -0.246540 -0.558220
v 0.269340 0.742620 -0.558220
v 1.427300 -0.920980 -0.965260
v -0.152860 0.068180 -1.011460
v -0.152860 0.068180 0.844300
v 1.427300 -0.920980 0.844300
v 1.012460 -1.583680 -0.658520
v -0.567700 -0.594520 -0.658520
v -0.567700 -0.594520 0.407640
v 1.012460 -1.583680 0.407640
v 2.818900 -1.103280 0.405040
v 2.818900 -1.103280 -0.571200
v 2.509980 -1.596800 0.809020
v 2.509980 -1.596800 -0.920080
v 2.206420 -2.081720 0.385640
v 2.206420 -2.081720 -0.648120
v 2.798580 -1.771200 0.740920
v 3.186420 -1.726580 0.356300
v 3.187040 -1.722960 -0.555720
v 2.801560 -1.765980 -0.874500
v 2.911900 -2.173960 0.353820
v 2.912540 -2.170300 -0.565180
v 3.300500 -2.099620 0.814640
v 3.251160 -1.952360 -0.914320
v 3.233820 -1.649260 0.031980
v 3.241040 -1.637440 -0.259340
v 2.869140 -2.256820 0.034060
v 2.867780 -2.258960 -0.257220
v 3.426080 -2.171500 0.273720
v 3.450840 -2.181080 -0.525220
v 3.432020 -2.176380 -0.112540
vt 0.091600 0.742200
vt 0.139900 0.715800
vt 0.154700 0.708200
vt 0.106400 0.734600
vt 0.148000 0.681000
vt 0.100400 0.707200
vt 0.072100 0.721700
vt 0.120400 0.695200
vt 0.130700 0.659900
vt 0.082400 0.686400
vt 0.066100 0.694800
vt 0.114400 0.668300
vt 0.169700 0.691200
vt 0.184600 0.683500
vt 0.154100 0.676900
vt 0.180500 0.663300
vt 0.151200 0.656300
vt 0.167000 0.648200
vt 0.163900 0.671700
vt 0.181700 0.671700
vt 0.195600 0.664600
vt 0.188700 0.659200
vt 0.173300 0.655800
vt 0.187300 0.648700
vt 0.178100 0.663400
vt 0.203000 0.654500
vt 0.188100 0.671900
vt 0.192700 0.670000
vt 0.176900 0.650400
vt 0.181300 0.648000
vt 0.190200 0.657300
vt 0.203200 0.650800
vt 0.196300 0.654100
vn 0.530610 0.847616 0.000000
vn 0.530610 0.847616 0.000000
vn 0.530610 0.847616 0.000000
vn 0.530610 0.847616 0.000000
vn 0.530610 0.847616 0.000000
vn 0.530610 0.847616 0.000000
vn 0.241600 0.386000 -0.890300
vn 0.241600 0.386000 -0.890300
vn 0.241600 0.386000 -0.890300
vn 0.280807 0.408010 -0.868721
vn 0.280807 0.408010 -0.868721
vn 0.280807 0.408010 -0.868721
vn 0.253293 0.404689 0.878675
vn 0.253293 0.404689 0.878675
vn 0.253293 0.404689 0.878675
vn 0.253293 0.404689 0.878675
vn 0.253293 0.404689 0.878675
vn 0.253293 0.404689 0.878675
vn -0.174197 -0.321694 -0.930682
vn -0.174197 -0.321694 -0.930682
vn -0.174197 -0.321694 -0.930682
vn -0.218304 -0.348806 -0.911415
vn -0.218304 -0.348806 -0.911415
vn -0.218304 -0.348806 -0.911415
vn -0.258694 -0.413290 0.873080
vn -0.258694 -0.413290 0.873080
vn -0.258694 -0.413290 0.873080
vn -0.258694 -0.413290 0.873080
vn -0.258694 -0.413290 0.873080
vn -0.258694 -0.413290 0.873080
vn -0.530610 -0.847616 0.000000
vn -0.530610 -0.847616 0.000000
vn -0.530610 -0.847616 0.000000
vn -0.530610 -0.847616 0.000000
vn -0.530610 -0.847616 0.000000
vn -0.530610 -0.847616 0.000000
vn 0.662213 0.749315 0.000000
vn 0.662213 0.749315 0.000000
vn 0.662213 0.749315 0.000000
vn 0.662213 0.749315 0.000000
vn 0.662213 0.749315 0.000000
vn 0.662213 0.749315 0.000000
vn 0.273308 0.392011 0.878425
vn 0.273308 0.392011 0.878425
vn 0.273308 0.392011 0.878425
vn 0.384600 0.428500 0.817600
vn 0.384600 0.428500 0.817600
vn 0.384600 0.428500 0.817600
vn 0.297396 0.349996 -0.888290
vn 0.297396 0.349996 -0.888290
vn 0.297396 0.349996 -0.888290
vn 0.297805 0.419707 -0.857414
vn 0.297805 0.419707 -0.857414
vn 0.297805 0.419707 -0.857414
vn -0.176700 -0.462000 0.869099
vn -0.176700 -0.462000 0.869099
vn -0.176700 -0.462000 0.869099
vn -0.296098 -0.516296 0.803595
vn -0.296098 -0.516296 0.803595
vn -0.296098 -0.516296 0.803595
vn -0.165400 -0.327101 -0.930402
vn -0.165400 -0.327101 -0.930402
vn -0.165400 -0.327101 -0.930402
vn -0.160797 -0.404293 -0.900384
vn -0.160797 -0.404293 -0.900384
vn -0.160797 -0.404293 -0.900384
vn -0.385006 -0.922914 0.000000
vn -0.385006 -0.922914 0.000000
vn -0.385006 -0.922914 0.000000
vn -0.385006 -0.922914 0.000000
vn -0.385006 -0.922914 0.000000
vn -0.385006 -0.922914 0.000000
vn 0.430274 0.395076 0.811652
vn 0.430274 0.395076 0.811652
vn 0.430274 0.395076 0.811652
vn 0.646207 0.327103 0.689507
vn 0.646207 0.327103 0.689507
vn 0.646207 0.327103 0.689507
vn 0.494880 0.273289 -0.824868
vn 0.494880 0.273289 -0.824868
vn 0.494880 0.273289 -0.824868
vn 0.458623 0.618531 -0.638032
vn 0.458623 0.618531 -0.638032
vn 0.458623 0.618531 -0.638032
vn -0.049000 -0.639297 0.767397
vn -0.049000 -0.639297 0.767397
vn -0.049000 -0.639297 0.767397
vn -0.271896 -0.705489 0.654490
vn -0.271896 -0.705489 0.654490
vn -0.271896 -0.705489 0.654490
vn -0.111002 -0.432409 -0.894819
vn -0.111002 -0.432409 -0.894819
vn -0.111002 -0.432409 -0.894819
vn 0.017700 -0.604504 -0.796405
vn 0.017700 -0.604504 -0.796405
vn 0.017700 -0.604504 -0.796405
vn 0.417792 0.752785 0.508690
vn 0.417792 0.752785 0.508690
vn 0.417792 0.752785 0.508690
vn -0.514617 -0.665021 0.541217
vn -0.514617 -0.665021 0.541217
vn -0.514617 -0.665021 0.541217
vn 0.720509 -0.439105 -0.536706
vn 0.720509 -0.439105 -0.536706
vn 0.720509 -0.439105 -0.536706
vn 0.300700 0.826900 -0.475200
vn 0.300700 0.826900 -0.475200
vn 0.300700 0.826900 -0.475200
vn 0.760918 -0.476212 0.440711
vn 0.760918 -0.476212 0.440711
vn 0.760918 -0.476212 0.440711
vn -0.323487 -0.629375 -0.706572
vn -0.323487 -0.629375 -0.706572
vn -0.323487 -0.629375 -0.706572
vn 0.844705 0.479503 0.237802
vn 0.844705 0.479503 0.237802
vn 0.844705 0.479503 0.237802
vn 0.809622 0.585316 0.043801
vn 0.809622 0.585316 0.043801
vn 0.809622 0.585316 0.043801
vn 0.784601 0.620001 0.000000
vn 0.784601 0.620001 0.000000
vn 0.784601 0.620001 0.000000
vn 0.825979 0.483388 -0.289993
vn 0.825979 0.483388 -0.289993
vn 0.825979 0.483388 -0.289993
vn -0.113400 -0.957998 0.263400
vn -0.113400 -0.957998 0.263400
vn -0.113400 -0.957998 0.263400
vn -0.258901 -0.965904 0.000000
vn -0.258901 -0.965904 0.000000
vn -0.258901 -0.965904 0.000000
vn -0.251294 -0.967875 0.008300
vn -0.251294 -0.967875 0.008300
vn -0.251294 -0.967875 0.008300
vn -0.086000 -0.954002 -0.287201
vn -0.086000 -0.954002 -0.287201
vn -0.086000 -0.954002 -0.287201
vn 0.153597 -0.099798 0.983081
vn 0.153597 -0.099798 0.983081
vn 0.153597 -0.099798 0.983081
vn 0.042800 -0.968502 0.245300
vn 0.042800 -0.968502 0.245300
vn 0.042800 -0.968502 0.245300
vn 0.414808 -0.252005 -0.874316
vn 0.414808 -0.252005 -0.874316
vn 0.414808 -0.252005 -0.874316
vn 0.874020 0.428110 0.229805
vn 0.874020 0.428110 0.229805
vn 0.874020 0.428110 0.229805
vn 0.073500 -0.024000 -0.997006
vn 0.073500 -0.024000 -0.997006
vn 0.073500 -0.024000 -0.997006
vn 0.838370 0.463683 -0.286590
vn 0.838370 0.463683 -0.286590
vn 0.838370 0.463683 -0.286590
vn 0.431714 -0.256309 0.864829
vn 0.431714 -0.256309 0.864829
vn 0.431714 -0.256309 0.864829
vn 0.001300 -0.961012 -0.276503
vn 0.001300 -0.961012 -0.276503
vn 0.001300 -0.961012 -0.276503
vn 0.938707 0.342703 0.037200
vn 0.938707 0.342703 0.037200
vn 0.938707 0.342703 0.037200
vn 0.269989 -0.158894 0.949662
vn 0.269989 -0.158894 0.949662
vn 0.269989 -0.158894 0.949662
vn 0.143098 -0.989687 0.006600
vn 0.143098 -0.989687 0.006600
vn 0.143098 -0.989687 0.006600
vn 0.267504 -0.163903 -0.949514
vn 0.267504 -0.163903 -0.949514
vn 0.267504 -0.163903 -0.949514
s off
g LArm
usemtl None
f 1/1/1 2/2/2 3/3/3
f 3/3/4 4/4/5 1/1/6
f 4/4/7 3/3/8 5/5/9
f 5/5/10 6/6/11 4/4/12
f 2/2/13 1/1/14 7/7/15
f 7/7/16 8/8/17 2/2/18
f 6/6/19 5/5/20 9/9/21
f 9/9/22 10/10/23 6/6/24
f 8/8/25 7/7/26 11/11/27
f 11/11/28 12/12/29 8/8/30
f 10/10/31 9/9/32 12/12/33
f 12/12/34 11/11/35 10/10/36
f 3/3/37 2/2/38 13/13/39
f 13/13/40 14/14/41 3/3/42
f 2/2/43 8/8/44 15/15/45
f 15/15/46 13/13/47 2/2/48
f 5/5/49 3/3/50 14/14/51
f 14/14/52 16/16/53 5/5/54
f 8/8/55 12/12/56 17/17/57
f 17/17/58 15/15/59 8/8/60
f 9/9/61 5/5/62 16/16/63
f 16/16/64 18/18/65 9/9/66
f 12/12/67 9/9/68 18/18/69
f 18/18/70 17/17/71 12/12/72
f 13/13/73 15/15/74 19/19/75
f 19/19/76 20/20/77 13/13/78
f 16/16/79 14/14/80 21/21/81
f 21/21/82 22/22/83 16/16/84
f 15/15/85 17/17/86 23/23/87
f 23/23/88 19/19/89 15/15/90
f 18/18/91 16/16/92 22/22/93
f 22/22/94 24/24/95 18/18/96
f 20/20/97 19/19/98 25/25/99
f 19/19/100 23/23/101 25/25/102
f 23/23/103 20/20/104 25/25/105
f 22/22/106 21/21/107 26/26/108
f 21/21/109 24/24/110 26/26/111
f 24/24/112 22/22/113 26/26/114
f 20/20/115 27/27/116 13/13/117
f 13/13/118 27/27/119 28/28/120
f 28/28/121 14/14/122 13/13/123
f 14/14/124 28/28/125 21/21/126
f 23/23/127 17/17/128 29/29/129
f 17/17/130 18/18/131 30/30/132
f 30/30/133 29/29/134 17/17/135
f 18/18/136 24/24/137 30/30/138
f 20/20/139 23/23/140 31/31/141
f 23/23/142 29/29/143 31/31/144
f 29/29/145 27/27/146 31/31/147
f 27/27/148 20/20/149 31/31/150
f 24/24/151 21/21/152 32/32/153
f 21/21/154 28/28/155 32/32/156
f 28/28/157 30/30/158 32/32/159
f 30/30/160 24/24/161 32/32/162
f 28/28/163 27/27/164 33/33/165
f 27/27/166 29/29/167 33/33/168
f 29/29/169 30/30/170 33/33/171
f 30/30/172 28/28/173 33/33/174
