# Blender v2.76 (sub 0) OBJ File: ''
# www.blender.org
mtllib qualotTaller.mtl
o Cylinder.004
v 0.112825 2.406631 -0.543354
v 0.082415 2.345822 -0.170127
v 0.165325 2.345822 -0.122259
v 0.381122 2.305178 -0.235617
v 0.451402 2.406631 0.113656
v 0.165325 2.345822 -0.026523
v 0.165325 2.345822 0.069213
v 0.734907 2.448454 0.426240
v 0.315593 2.406631 0.348885
v 0.082415 2.345822 0.117081
v -0.000494 2.345822 0.164949
v -0.012014 2.305178 0.445313
v -0.470072 2.406631 0.399588
v -0.083404 2.345822 0.117081
v -0.166314 2.345822 0.069213
v -0.909471 2.448453 0.505098
v -0.000494 2.345822 -0.217995
v -0.000432 2.330248 -0.024229
v -0.158795 2.406631 -0.543354
v -0.083404 2.345822 -0.170127
v -0.045794 2.448453 -0.961447
v -0.605881 2.406631 0.164359
v -0.166314 2.345822 -0.026523
v -0.166314 2.345822 -0.122259
v -0.405149 2.305178 -0.235617
v 0.000000 -0.001285 -0.219366
v 0.093262 -0.001285 -0.165521
v 0.186524 -0.001285 -0.111677
v 0.186524 -0.001285 -0.003987
v 0.186524 -0.001285 0.103703
v 0.093262 -0.001285 0.157548
v 0.000000 -0.001285 0.211393
v -0.093262 -0.001285 0.157548
v -0.186524 -0.001285 0.103703
v -0.186524 -0.001285 -0.003987
v -0.186524 -0.001285 -0.111677
v -0.093262 -0.001285 -0.165521
v 0.419851 0.628942 1.433643
v 0.381114 1.163252 0.655558
v 0.030924 1.221137 0.806963
v 0.000000 1.031883 1.033651
v 0.263333 0.585781 0.452120
v 0.000000 0.585781 0.604156
v 0.541031 1.694636 0.713603
v 0.256731 2.177374 0.460052
v -0.014403 2.177374 0.616591
v -0.013441 1.741278 1.048103
v 0.334422 1.470867 1.034798
v 0.093262 0.422797 0.157548
v 0.000000 0.422797 0.211393
v -0.650052 0.647388 1.131908
v -0.381560 1.163252 0.655558
v -0.762897 1.163252 0.435393
v -0.898621 1.031883 0.514832
v -0.623139 1.520870 0.603526
v -0.911207 1.691028 0.416370
v -1.225223 1.379797 0.514874
v -0.093262 0.422797 0.157548
v -0.263333 0.585781 0.452120
v -0.526667 0.585781 0.300084
v -0.186524 0.422797 0.103703
v -0.475997 1.597232 -0.849406
v -0.285537 2.177374 -0.479184
v -0.014403 2.177374 -0.635724
v 0.196039 1.733942 -0.858703
v -0.305148 1.398336 -1.052443
v -0.263333 0.585781 -0.460094
v -0.674931 0.580907 -1.161224
v 0.000000 1.031883 -1.041625
v 0.000000 0.585781 -0.612130
v -0.381560 1.163252 -0.665433
v -0.000223 1.163252 -0.885598
v -0.093262 0.422797 -0.165521
v 0.000000 0.422797 -0.219366
v -0.720226 1.694637 -0.141748
v -0.556671 2.177374 -0.009566
v -0.478346 2.177374 -0.200992
v -0.824975 1.694636 -0.274182
v -1.436516 0.580731 -0.025087
v -0.762897 1.163252 -0.004938
v -0.762897 1.163252 -0.445268
v -0.898621 1.031883 -0.522806
v -0.526667 0.585781 -0.003987
v -0.526667 0.585781 -0.308058
v -0.186524 0.422797 -0.003987
v -0.186524 0.422797 -0.111677
v 0.186524 0.422797 -0.003987
v 0.186524 0.422797 0.103703
v 0.526667 0.585781 -0.003987
v 0.526667 0.585781 0.300085
v 1.305326 0.544855 -0.001817
v 0.747977 1.031883 0.483821
v 0.762452 1.163252 -0.004938
v 0.762452 1.163252 0.435393
v 0.913137 1.579734 0.338494
v 1.186142 1.555283 0.013023
v 0.865324 1.743014 0.262392
v 0.093262 0.422797 -0.165521
v 0.186524 0.422797 -0.111677
v 0.263334 0.585781 -0.460094
v 0.526667 0.585781 -0.308058
v 0.635119 0.606374 -1.101179
v 0.898621 1.031883 -0.522806
v 0.381114 1.163252 -0.665433
v 0.762452 1.163252 -0.445268
v 0.493187 1.686797 -0.754480
v 0.256731 2.177374 -0.479184
v 0.527865 2.177374 -0.322645
v 0.541356 1.752333 -0.363864
v 0.542007 1.690032 -0.596532
v 0.621980 1.694636 0.666867
v 0.527865 2.177374 0.303513
v -0.285537 2.177374 0.460052
v -0.386354 1.694636 0.713603
v -0.328964 1.496277 1.020803
v -0.979610 1.605113 0.074278
v -0.815802 1.327336 -0.819927
v 0.383683 1.653555 -0.902210
v 0.863033 1.734779 -0.279173
v 1.002634 1.808721 0.015870
v 0.886144 1.322703 0.004637
v 0.885294 1.328460 -0.214692
v 0.440422 1.285256 -0.818437
v -0.544420 1.181591 -0.748280
v -0.463093 1.170759 -0.838427
v -0.862854 1.236091 0.145042
v -0.216968 1.280912 0.988184
v 0.587442 1.286100 -0.719470
v 0.887568 1.305549 0.203733
v -0.394725 1.161668 -0.914151
v -0.873552 1.237889 0.448551
v -0.700603 1.237720 0.664890
v 0.176332 1.270423 1.022911
v -0.002005 1.246712 0.766151
v 0.893980 1.584594 -0.313329
v 0.527865 2.177374 -0.009566
v 0.512196 1.285670 -0.770088
v 0.590133 1.459945 -0.922883
v -0.710268 1.290789 -1.171283
v -0.556671 2.177374 0.303512
v 0.013618 1.470501 1.298176
vt 0.497392 0.158017
vt 0.507945 0.146987
vt 0.585231 0.193228
vt 0.634159 0.134424
vt 0.509065 0.129524
vt 0.509855 0.109248
vt 0.305482 0.100736
vt 0.432583 0.120731
vt 0.428824 0.137785
vt 0.387456 0.214264
vt 0.437249 0.151189
vt 0.442843 0.162476
vt 0.489582 0.167808
vt 0.469158 0.135152
vt 0.497224 0.238384
vt 0.477763 0.169111
vt 0.453878 0.166222
vt 0.465398 0.171970
vt 0.455250 0.243274
vt 0.047819 0.964107
vt 0.000111 0.936562
vt 0.047819 0.909017
vt 0.139366 0.461407
vt 0.196158 0.462150
vt 0.214764 0.623678
vt 0.178409 0.643077
vt 0.242496 0.732866
vt 0.301408 0.209487
vt 0.232547 0.323932
vt 0.158800 0.280724
vt 0.999889 0.018474
vt 0.999889 0.036837
vt 0.927575 0.036837
vt 0.189340 0.778600
vt 0.298439 0.853433
vt 0.259070 0.465587
vt 0.321637 0.468126
vt 0.332168 0.609291
vt 0.348520 0.388494
vt 0.359090 0.379547
vt 0.357621 0.389371
vt 0.298182 0.733309
vt 0.345610 0.706732
vt 0.369491 0.832905
vt 0.527849 0.272802
vt 0.567433 0.309093
vt 0.492105 0.365796
vt 0.490639 0.618498
vt 0.549838 0.606084
vt 0.541217 0.701439
vt 0.279843 0.628707
vt 0.999889 0.055200
vt 0.999889 0.073563
vt 0.927575 0.073563
vt 0.492441 0.460056
vt 0.549784 0.474532
vt 0.489800 0.712646
vt 0.521777 0.832380
vt 0.999889 0.128652
vt 0.999889 0.147016
vt 0.927575 0.147015
vt 0.420451 0.361580
vt 0.417627 0.273805
vt 0.453421 0.280291
vt 0.387385 0.459049
vt 0.434931 0.477214
vt 0.435627 0.605552
vt 0.389450 0.618578
vt 0.441087 0.697707
vt 0.395603 0.715738
vt 0.444835 0.827168
vt 0.999889 0.091926
vt 0.999889 0.110289
vt 0.927575 0.110289
vt 0.927575 0.202105
vt 0.999889 0.202105
vt 0.999889 0.220468
vt 0.710521 0.768444
vt 0.815794 0.804048
vt 0.659295 0.899614
vt 0.727632 0.633436
vt 0.927354 0.606071
vt 0.749027 0.444584
vt 0.828912 0.442871
vt 0.765485 0.322026
vt 0.730702 0.326046
vt 0.729631 0.293323
vt 0.999889 0.165379
vt 0.999889 0.183742
vt 0.927575 0.183742
vt 0.591596 0.725749
vt 0.652226 0.723479
vt 0.597146 0.852611
vt 0.604829 0.623423
vt 0.676897 0.614208
vt 0.611605 0.451532
vt 0.679773 0.467066
vt 0.570695 0.257198
vt 0.634108 0.307528
vt 0.613971 0.345369
vt 0.242763 0.899614
vt 0.094137 0.822787
vt 0.999889 0.000111
vt 0.927575 0.018474
vt 0.222802 0.117837
vt 0.263310 0.166196
vt 0.000111 0.633409
vt 0.057539 0.465015
vt 0.436984 0.100727
vt 0.292989 0.334994
vt 0.340224 0.172366
vt 0.927575 0.091926
vt 0.365640 0.390616
vt 0.414073 0.230986
vt 0.488435 0.273875
vt 0.440470 0.363626
vt 0.603171 0.344410
vt 0.927575 0.165379
vt 0.533624 0.224983
vt 0.702286 0.308150
vt 0.721338 0.309574
vt 0.735069 0.359070
vt 0.722751 0.362434
vt 0.599343 0.349308
vt 0.598551 0.378310
vt 0.481961 0.403241
vt 0.363580 0.398478
vt 0.239539 0.342213
vt 0.135400 0.269863
vt 0.749047 0.356803
vt 0.491368 0.401522
vt 0.497907 0.398831
vt 0.352934 0.410393
vt 0.342251 0.402726
vt 0.211333 0.349106
vt 0.864891 0.238669
vt 0.701593 0.335214
vt 0.656384 0.203317
vt 0.615151 0.235609
vt 0.701193 0.169178
vt 0.608414 0.378104
vt 0.618783 0.376043
vt 0.607466 0.359534
vt 0.479736 0.386627
vt 0.502676 0.384171
vt 0.489996 0.387079
vt 0.380178 0.258238
vt 0.218291 0.371688
vt 0.237072 0.354868
vt 0.213978 0.335271
vt 0.226527 0.340447
vt 0.513048 0.231790
vt 0.402771 0.223013
vt 0.341460 0.238975
vt 0.263198 0.000111
vt 0.695946 0.053011
vt 0.063722 0.918199
vt 0.063722 0.936562
vt 0.063722 0.954925
vt 0.031917 0.973288
vt 0.016014 0.964107
vt 0.000111 0.954925
vt 0.000111 0.918199
vt 0.016014 0.909017
vt 0.031917 0.899836
vt 0.270574 0.876484
vt 0.333748 0.843941
vt 0.927575 0.055200
vt 0.483084 0.830661
vt 0.927575 0.128652
vt 0.406914 0.830947
vt 0.927575 0.220468
vt 0.628241 0.876174
vt 0.559336 0.843271
vt 0.927575 0.000111
vn 0.007700 0.996500 0.083600
vn 0.070600 0.996500 -0.043700
vn 0.454000 0.854600 -0.252100
vn 0.418800 0.883200 -0.211100
vn -0.075400 0.995700 -0.053200
vn -0.123700 0.990200 -0.064200
vn 0.030200 0.857500 0.513500
vn -0.070800 0.989900 -0.122600
vn -0.088900 0.995900 0.013700
vn -0.010000 0.723800 0.690000
vn 0.064800 0.997400 -0.030200
vn 0.092200 0.994300 -0.053300
vn -0.003400 0.992200 0.124600
vn -0.000000 1.000000 -0.001200
vn -0.520900 0.792200 -0.318000
vn -0.001800 0.996200 0.086700
vn 0.055800 0.997500 -0.042200
vn -0.062700 0.997200 -0.041800
vn -0.589900 0.722500 -0.360600
vn 0.707100 -0.707100 -0.000000
vn -0.353600 -0.707100 0.612400
vn -0.353600 -0.707100 -0.612400
vn 0.631500 0.169500 0.756700
vn -0.268600 0.231400 0.935000
vn -0.138800 0.428500 0.892800
vn 0.240500 -0.327500 0.913700
vn -0.034800 -0.944300 0.327200
vn -0.031100 0.711000 0.702500
vn -0.056300 0.694300 0.717500
vn 0.579700 0.272200 0.768000
vn 0.423100 -0.532900 0.732800
vn 0.000000 -0.656000 0.754700
vn 0.000000 -0.610000 0.792400
vn 0.330400 -0.897500 0.292100
vn -0.504600 0.205900 0.838400
vn -0.880900 -0.112100 0.459900
vn -0.803100 0.324000 0.500100
vn -0.311500 0.153000 0.937800
vn -0.621900 0.670500 0.404600
vn -0.918000 -0.142200 0.370200
vn -0.129900 -0.965700 0.224900
vn -0.306500 -0.929500 0.205200
vn -0.653600 -0.656000 0.377400
vn 0.019700 0.191100 -0.981400
vn 0.146600 0.382000 -0.912400
vn -0.384000 0.666000 -0.639500
vn -0.459000 -0.418100 -0.783900
vn 0.021200 0.312500 -0.949700
vn 0.011100 -0.930600 -0.365800
vn -0.461600 -0.363900 0.809000
vn -0.423100 -0.532900 0.732800
vn -0.686200 -0.610000 0.396200
vn -0.505000 -0.357800 -0.785400
vn 0.155900 0.241100 -0.957900
vn -0.109300 -0.975800 -0.189300
vn -0.000000 -0.656000 -0.754700
vn -0.423100 -0.532900 -0.732800
vn -0.000000 -0.610000 -0.792400
vn -0.902800 0.412600 0.121500
vn -0.940400 0.234900 -0.245900
vn -0.811200 0.437500 -0.388100
vn -0.956200 0.260600 -0.133400
vn -0.935200 0.245600 -0.255300
vn -0.796600 0.343100 -0.497800
vn -0.925900 -0.377300 -0.019300
vn -0.300300 -0.937000 -0.178300
vn -0.218900 -0.975800 -0.000000
vn -0.653600 -0.656000 -0.377400
vn -0.846200 -0.532900 -0.000000
vn -0.686200 -0.610000 -0.396200
vn 0.846200 -0.532900 -0.000000
vn 0.653600 -0.656000 0.377400
vn 0.195900 -0.980600 -0.000000
vn 0.309500 -0.816700 0.487100
vn 0.891500 -0.450600 0.047600
vn 0.803200 0.029900 0.594900
vn 0.998700 -0.002900 0.050200
vn 0.851000 -0.152400 0.502600
vn 0.795000 0.095900 0.599000
vn 0.998400 -0.056000 0.000900
vn 0.693300 0.544500 0.472100
vn 0.423100 -0.532900 -0.732800
vn 0.653600 -0.656000 -0.377400
vn 0.686200 -0.610000 -0.396200
vn 0.117500 -0.972000 -0.203600
vn 0.301500 -0.932400 -0.199300
vn 0.453400 -0.426500 -0.782600
vn 0.819600 0.312900 -0.479900
vn 0.505700 -0.081000 -0.858900
vn 0.787700 0.394300 -0.473300
vn 0.591200 0.410000 -0.694600
vn 0.655200 0.334500 -0.677300
vn 0.886900 0.423800 -0.183700
vn 0.353600 -0.707100 0.612400
vn 0.813000 0.351100 0.464500
vn 0.359500 0.529600 0.768300
vn -0.620300 0.357900 0.698000
vn 0.002200 0.850600 0.525800
vn -0.707100 -0.707100 -0.000000
vn -0.783000 0.377100 -0.494700
vn -0.627100 0.700200 -0.341400
vn -0.647300 0.411100 -0.641800
vn -0.926400 0.370800 0.065900
vn 0.642000 0.627800 -0.440100
vn 0.353600 -0.707100 -0.612400
vn 0.489900 0.806500 -0.331000
vn 0.554500 0.428900 -0.713100
vn 0.727000 0.685900 0.032900
vn 0.706200 -0.706600 -0.043700
vn 0.839900 -0.481400 -0.250600
vn 0.078100 0.401400 -0.912600
vn 0.205500 -0.579400 -0.788700
vn -0.237300 -0.963400 -0.124400
vn -0.722200 -0.643500 -0.253800
vn -0.799500 0.100100 0.592200
vn 0.608100 0.217900 0.763400
vn 0.814300 -0.547400 0.193200
vn -0.199300 -0.978000 -0.062400
vn 0.007300 -0.915900 -0.401300
vn -0.427000 -0.892300 0.146300
vn -0.224300 -0.424200 0.877400
vn 0.157400 -0.822400 0.546700
vn 0.587900 0.109900 -0.801400
vn 0.812200 0.579100 -0.070500
vn 0.643400 0.566700 -0.514700
vn 0.373100 -0.748700 -0.547900
vn 0.740700 -0.435700 -0.511400
vn 0.617700 -0.058400 -0.784300
vn -0.935700 -0.129700 -0.328000
vn 0.158700 0.112500 -0.980900
vn -0.518200 -0.161100 -0.839900
vn -0.872200 0.051600 0.486400
vn 0.073100 -0.001000 0.997300
vn -0.294500 -0.769600 0.566600
vn 0.727700 -0.007700 0.685800
vn 0.013200 -0.068500 0.997600
vn -0.059900 0.309100 -0.949100
vn -0.829700 0.267700 0.489800
vn -0.346000 0.376200 0.859500
vn 0.810400 0.365500 0.457900
vn 0.686200 -0.610000 0.396200
usemtl Material.019
s 1
f 2/1/1 3/2/2 4/3/3
f 5/4/4 6/5/5 7/6/6
f 9/7/7 10/8/8 11/9/9
f 13/10/10 14/11/11 15/12/12
f 2/1/1 17/13/13 18/14/14
f 19/15/15 20/16/16 17/13/13
f 23/17/17 24/18/18 25/19/19
f 29/20/20 33/21/21 37/22/22
f 39/23/23 40/24/24 41/25/25
f 38/26/26 41/25/25 43/27/27
f 46/28/28 47/29/29 44/30/30
f 49/31/31 50/32/32 32/33/33
f 42/34/34 43/27/27 50/35/32
f 52/36/35 53/37/36 54/38/37
f 55/39/38 56/40/39 57/41/40
f 59/42/41 60/43/42 61/44/43
f 64/45/44 65/46/45 62/47/46
f 68/48/47 69/49/48 70/50/49
f 51/51/50 54/38/37 60/43/42
f 58/52/51 61/53/43 34/54/52
f 71/55/53 72/56/54 69/49/48
f 67/57/55 70/50/49 74/58/56
f 73/59/57 74/60/56 26/61/58
f 75/62/59 76/63/60 77/64/61
f 80/65/62 81/66/63 82/67/64
f 79/68/65 82/67/64 84/69/66
f 83/70/67 84/69/66 86/71/68
f 85/72/69 86/73/68 36/74/70
f 29/75/20 87/76/71 88/77/72
f 89/78/73 90/79/74 88/80/72
f 91/81/75 92/82/76 90/79/74
f 93/83/77 94/84/78 92/82/76
f 95/85/79 96/86/80 97/87/81
f 98/88/82 99/89/83 28/90/84
f 100/91/85 101/92/86 99/93/83
f 102/94/87 103/95/88 101/92/86
f 104/96/89 105/97/90 103/95/88
f 107/98/91 109/99/92 110/100/93
f 88/101/72 90/102/74 42/34/34
f 88/103/72 49/31/31 31/104/94
f 112/105/95 45/106/96 44/30/30
f 92/107/76 38/26/26 42/34/34
f 92/107/76 94/108/78 39/23/23
f 7/109/6 10/8/8 9/7/7
f 32/33/33 50/32/32 58/52/51
f 43/27/27 41/25/25 51/51/50
f 50/35/32 43/27/27 59/42/41
f 46/28/28 114/110/97 47/29/29
f 41/25/25 40/24/24 52/36/35
f 12/111/98 11/9/9 14/11/11
f 61/53/43 85/72/69 35/112/99
f 61/44/43 60/43/42 83/70/67
f 60/43/42 54/38/37 79/68/65
f 54/38/37 53/37/36 80/65/62
f 57/41/40 56/40/39 116/113/100
f 15/12/12 23/17/17 22/114/101
f 36/74/70 86/73/68 73/59/57
f 86/71/68 84/69/66 67/57/55
f 82/67/64 81/66/63 71/55/53
f 84/69/66 82/67/64 68/48/47
f 63/115/102 62/47/46 78/116/103
f 25/19/19 24/18/18 20/16/16
f 107/98/91 106/117/104 65/46/45
f 69/49/48 72/56/54 104/96/89
f 70/50/49 69/49/48 102/94/87
f 74/58/56 70/50/49 100/91/85
f 74/60/56 98/88/82 27/118/105
f 17/13/13 2/1/1 1/119/106
f 119/120/107 120/121/108 96/86/80
f 103/95/88 105/97/90 93/83/77
f 101/92/86 103/95/88 91/81/75
f 99/93/83 101/92/86 89/78/73
f 28/90/84 99/89/83 87/76/71
f 4/3/3 3/2/2 6/5/5
f 121/122/109 122/123/110 96/86/80
f 65/46/45 118/124/111 123/125/112
f 71/55/53 81/66/63 124/126/113
f 57/41/40 116/113/100 126/127/114
f 115/128/115 114/110/97 52/36/35
f 111/129/116 44/30/30 39/23/23
f 110/100/93 109/99/92 105/97/90
f 96/86/80 95/85/79 129/130/117
f 80/65/62 75/62/59 78/116/103
f 71/55/53 125/131/118 130/132/119
f 131/133/120 132/134/121 57/41/40
f 40/24/24 39/23/23 133/135/122
f 95/85/79 111/136/116 94/84/78
f 135/137/123 122/123/110 105/97/90
f 129/130/117 94/84/78 93/83/77
f 97/87/81 120/121/108 136/138/124
f 122/123/110 121/122/109 93/83/77
f 119/120/107 108/139/125 136/138/124
f 97/87/81 112/140/95 111/136/116
f 104/96/89 137/141/126 128/142/127
f 104/96/89 72/56/54 123/125/112
f 118/124/111 106/117/104 138/143/128
f 138/143/128 110/100/93 128/142/127
f 137/141/126 138/143/128 128/142/127
f 138/143/128 106/117/104 110/100/93
f 137/141/126 123/125/112 138/143/128
f 123/125/112 118/124/111 138/143/128
f 81/66/63 78/116/103 117/144/129
f 66/145/130 65/46/45 72/56/54
f 124/126/113 117/144/129 139/146/131
f 139/146/131 66/145/130 130/132/119
f 125/131/118 124/126/113 139/146/131
f 125/131/118 139/146/131 130/132/119
f 117/144/129 62/47/46 139/146/131
f 139/146/131 62/47/46 66/145/130
f 131/133/120 57/41/40 126/127/114
f 132/134/121 55/39/38 57/41/40
f 140/147/132 56/40/39 114/110/97
f 53/37/36 131/133/120 126/127/114
f 116/113/100 75/62/59 80/65/62
f 53/37/36 52/36/35 132/134/121
f 52/36/35 114/110/97 55/39/38
f 140/147/132 75/62/59 56/40/39
f 40/24/24 134/148/133 127/149/134
f 39/23/23 44/30/30 48/150/135
f 48/150/135 47/29/29 141/151/136
f 134/148/133 133/135/122 141/151/136
f 141/151/136 115/128/115 127/149/134
f 133/135/122 48/150/135 141/151/136
f 134/148/133 141/151/136 127/149/134
f 141/151/136 47/29/29 115/128/115
f 4/3/3 5/4/4 136/138/124
f 64/45/44 21/152/137 1/119/106
f 25/19/19 19/15/15 63/115/102
f 140/147/132 16/153/138 22/114/101
f 12/111/98 13/10/10 113/154/139
f 112/105/95 8/155/140 9/7/7
f 76/63/60 22/114/101 25/19/19
f 19/15/15 21/152/137 64/45/44
f 13/10/10 16/153/138 140/147/132
f 45/106/96 9/7/7 12/111/98
f 5/4/4 8/156/140 112/140/95
f 107/98/91 1/119/106 4/3/3
f 18/14/14 24/18/18 23/17/17
f 3/2/2 2/1/1 18/14/14
f 18/14/14 11/9/9 10/8/8
f 20/16/16 24/18/18 18/14/14
f 18/14/14 14/11/11 11/9/9
f 14/11/11 18/14/14 15/12/12
f 6/5/5 3/2/2 18/14/14
f 96/86/80 120/121/108 97/87/81
f 122/123/110 135/137/123 96/86/80
f 121/122/109 96/86/80 129/130/117
f 135/137/123 119/120/107 96/86/80
f 119/120/107 135/137/123 109/99/92
f 1/119/106 2/1/1 4/3/3
f 8/156/140 5/4/4 7/6/6
f 12/111/98 9/7/7 11/9/9
f 16/153/138 13/10/10 15/12/12
f 21/152/137 19/15/15 17/13/13
f 22/114/101 23/17/17 25/19/19
f 37/22/22 26/157/58 27/158/105
f 27/158/105 28/159/84 29/20/20
f 29/20/20 30/160/141 31/161/94
f 31/161/94 32/162/33 33/21/21
f 33/21/21 34/163/52 35/164/99
f 35/164/99 36/165/70 37/22/22
f 37/22/22 27/158/105 29/20/20
f 29/20/20 31/161/94 33/21/21
f 33/21/21 35/164/99 37/22/22
f 38/26/26 39/23/23 41/25/25
f 42/34/34 38/26/26 43/27/27
f 48/150/135 44/30/30 47/29/29
f 45/106/96 46/28/28 44/30/30
f 31/104/94 49/31/31 32/33/33
f 49/166/31 42/34/34 50/35/32
f 51/51/50 52/36/35 54/38/37
f 58/167/51 59/42/41 61/44/43
f 66/145/130 62/47/46 65/46/45
f 63/115/102 64/45/44 62/47/46
f 67/57/55 68/48/47 70/50/49
f 59/42/41 51/51/50 60/43/42
f 33/168/21 58/52/51 34/54/52
f 68/48/47 71/55/53 69/49/48
f 73/169/57 67/57/55 74/58/56
f 37/170/22 73/59/57 26/61/58
f 78/116/103 75/62/59 77/64/61
f 79/68/65 80/65/62 82/67/64
f 83/70/67 79/68/65 84/69/66
f 85/171/69 83/70/67 86/71/68
f 35/112/99 85/72/69 36/74/70
f 30/172/141 29/75/20 88/77/72
f 87/173/71 89/78/73 88/80/72
f 89/78/73 91/81/75 90/79/74
f 91/81/75 93/83/77 92/82/76
f 27/118/105 98/88/82 28/90/84
f 98/174/82 100/91/85 99/93/83
f 100/91/85 102/94/87 101/92/86
f 102/94/87 104/96/89 103/95/88
f 110/100/93 106/117/104 107/98/91
f 107/98/91 108/139/125 109/99/92
f 49/166/31 88/101/72 42/34/34
f 30/175/141 88/103/72 31/104/94
f 111/129/116 112/105/95 44/30/30
f 90/102/74 92/107/76 42/34/34
f 38/26/26 92/107/76 39/23/23
f 8/155/140 7/109/6 9/7/7
f 33/168/21 32/33/33 58/52/51
f 59/42/41 43/27/27 51/51/50
f 58/167/51 50/35/32 59/42/41
f 115/128/115 47/29/29 114/110/97
f 46/28/28 113/154/139 114/110/97
f 51/51/50 41/25/25 52/36/35
f 13/10/10 12/111/98 14/11/11
f 34/54/52 61/53/43 35/112/99
f 85/171/69 61/44/43 83/70/67
f 83/70/67 60/43/42 79/68/65
f 79/68/65 54/38/37 80/65/62
f 16/153/138 15/12/12 22/114/101
f 37/170/22 36/74/70 73/59/57
f 73/169/57 86/71/68 67/57/55
f 68/48/47 82/67/64 71/55/53
f 67/57/55 84/69/66 68/48/47
f 117/144/129 78/116/103 62/47/46
f 77/64/61 63/115/102 78/116/103
f 19/15/15 25/19/19 20/16/16
f 118/124/111 65/46/45 106/117/104
f 64/45/44 107/98/91 65/46/45
f 102/94/87 69/49/48 104/96/89
f 100/91/85 70/50/49 102/94/87
f 98/174/82 74/58/56 100/91/85
f 26/61/58 74/60/56 27/118/105
f 21/152/137 17/13/13 1/119/106
f 91/81/75 103/95/88 93/83/77
f 89/78/73 101/92/86 91/81/75
f 87/173/71 99/93/83 89/78/73
f 29/75/20 28/90/84 87/76/71
f 5/4/4 4/3/3 6/5/5
f 72/56/54 65/46/45 123/125/112
f 125/131/118 71/55/53 124/126/113
f 127/149/134 115/128/115 52/36/35
f 94/108/78 111/129/116 39/23/23
f 128/142/127 110/100/93 105/97/90
f 81/66/63 80/65/62 78/116/103
f 72/56/54 71/55/53 130/132/119
f 134/148/133 40/24/24 133/135/122
f 129/130/117 95/85/79 94/84/78
f 109/99/92 135/137/123 105/97/90
f 121/122/109 129/130/117 93/83/77
f 112/140/95 97/87/81 136/138/124
f 105/97/90 122/123/110 93/83/77
f 120/121/108 119/120/107 136/138/124
f 95/85/79 97/87/81 111/136/116
f 105/97/90 104/96/89 128/142/127
f 137/141/126 104/96/89 123/125/112
f 124/126/113 81/66/63 117/144/129
f 130/132/119 66/145/130 72/56/54
f 55/39/38 114/110/97 56/40/39
f 113/154/139 140/147/132 114/110/97
f 80/65/62 53/37/36 126/127/114
f 126/127/114 116/113/100 80/65/62
f 131/133/120 53/37/36 132/134/121
f 132/134/121 52/36/35 55/39/38
f 116/113/100 56/40/39 75/62/59
f 140/147/132 76/63/60 75/62/59
f 52/36/35 40/24/24 127/149/134
f 133/135/122 39/23/23 48/150/135
f 108/139/125 4/3/3 136/138/124
f 107/98/91 64/45/44 1/119/106
f 77/64/61 25/19/19 63/115/102
f 76/63/60 140/147/132 22/114/101
f 46/28/28 12/111/98 113/154/139
f 45/106/96 112/105/95 9/7/7
f 77/64/61 76/63/60 25/19/19
f 63/115/102 19/15/15 64/45/44
f 113/154/139 13/10/10 140/147/132
f 46/28/28 45/106/96 12/111/98
f 136/138/124 5/4/4 112/140/95
f 108/139/125 107/98/91 4/3/3
f 15/12/12 18/14/14 23/17/17
f 7/109/6 18/14/14 10/8/8
f 17/13/13 20/16/16 18/14/14
f 7/6/6 6/5/5 18/14/14
f 108/139/125 119/120/107 109/99/92
