# This file uses centimeters as units for non-parametric coordinates.

mtllib SphealRArm.mtl
g default
v 0.084099 -0.196412 0.195872
v -0.687702 -0.650000 0.441083
v -0.230270 0.158092 0.372081
v -0.803535 -0.130169 0.441083
v -0.230270 0.158092 -0.193345
v -0.803535 -0.130169 -0.262347
v 0.084099 -0.196412 -0.369554
v -0.687702 -0.650000 -0.262347
v -0.687702 -0.650000 0.089368
v 0.084099 -0.196412 -0.086841
v -0.230270 0.158092 0.089368
v -0.803535 -0.049218 0.089368
v -1.424363 -0.425603 0.089368
v -1.424363 -0.650000 0.089368
v -1.424363 -0.650000 -0.046959
v -1.424363 -0.456889 -0.046959
v -1.424363 -0.650000 0.225695
v -1.424363 -0.456889 0.225695
v -1.424363 -0.558186 0.306067
v -0.687702 -0.391509 0.648436
v -0.029836 0.172673 0.448391
v -0.029836 0.172673 -0.000996
v -0.029836 -0.023833 -0.536229
v -0.803535 -0.391509 -0.469701
v -1.424363 -0.558186 -0.127331
v -1.513656 -0.558186 0.089368
vt 0.326813 0.644423
vt 0.388846 0.593793
vt 0.303308 0.627498
vt 0.367176 0.566870
vt 0.133228 0.727618
vt 0.180836 0.726262
vt 0.131134 0.640294
vt 0.191844 0.631500
vt 0.240456 0.564907
vt 0.259320 0.587005
vt 0.285557 0.499050
vt 0.314261 0.518387
vt 0.280332 0.608344
vt 0.339479 0.544016
vt 0.378540 0.464703
vt 0.382195 0.476959
vt 0.401840 0.475347
vt 0.392180 0.485931
vt 0.447252 0.461350
vt 0.464081 0.472395
vt 0.447336 0.441735
vt 0.464079 0.441735
vt 0.464081 0.411075
vt 0.447252 0.422120
vt 0.085594 0.728551
vt 0.070040 0.634477
vt 0.414542 0.497591
vt 0.402012 0.495073
vt 0.149774 0.495297
vt 0.127516 0.499680
vt 0.105044 0.496430
vt 0.088134 0.482629
vt 0.015636 0.612420
vt 0.036877 0.733869
vt 0.481771 0.422124
vt 0.481725 0.441735
vt 0.481771 0.461346
vt 0.229715 0.729267
vt 0.245043 0.606753
vt 0.165971 0.480646
vt 0.126781 0.471187
vn 0.538012 -0.356514 0.763833
vn 0.538012 -0.356514 0.763833
vn 0.538012 -0.356514 0.763833
vn 0.524211 -0.532860 0.664276
vn 0.524211 -0.532860 0.664276
vn 0.524211 -0.532860 0.664276
vn -0.340076 0.940398 0.000000
vn -0.340076 0.940398 0.000000
vn -0.340076 0.940398 0.000000
vn -0.420174 0.884323 -0.203536
vn -0.420174 0.884323 -0.203536
vn -0.420174 0.884323 -0.203536
vn 0.218618 -0.599369 -0.770041
vn 0.218618 -0.599369 -0.770041
vn 0.218618 -0.599369 -0.770041
vn 0.212279 -0.551820 -0.806493
vn 0.212279 -0.551820 -0.806493
vn 0.212279 -0.551820 -0.806493
vn 0.506678 -0.862136 0.000000
vn 0.506678 -0.862136 0.000000
vn 0.506678 -0.862136 0.000000
vn 0.506678 -0.862136 0.000000
vn 0.506678 -0.862136 0.000000
vn 0.506678 -0.862136 0.000000
vn -0.877091 -0.316373 -0.361414
vn -0.877091 -0.316373 -0.361414
vn -0.877091 -0.316373 -0.361414
vn -0.716880 -0.697197 0.000000
vn -0.716880 -0.697197 0.000000
vn -0.716880 -0.697197 0.000000
vn 0.834536 0.550953 0.000000
vn 0.834536 0.550953 0.000000
vn 0.834536 0.550953 0.000000
vn 0.941024 0.317611 -0.116608
vn 0.941024 0.317611 -0.116608
vn 0.941024 0.317611 -0.116608
vn 0.506678 -0.862136 0.000000
vn 0.506678 -0.862136 0.000000
vn 0.506678 -0.862136 0.000000
vn 0.506678 -0.862136 0.000000
vn 0.506678 -0.862136 0.000000
vn 0.506678 -0.862136 0.000000
vn 0.955509 0.294962 0.000000
vn 0.955509 0.294962 0.000000
vn 0.955509 0.294962 0.000000
vn 0.955509 0.294962 0.000000
vn 0.955509 0.294962 0.000000
vn 0.955509 0.294962 0.000000
vn -0.340077 0.940398 0.000000
vn -0.340077 0.940398 0.000000
vn -0.340077 0.940398 0.000000
vn -0.420174 0.884323 0.203536
vn -0.420174 0.884323 0.203536
vn -0.420174 0.884323 0.203536
vn -0.877090 -0.316374 0.361414
vn -0.877090 -0.316374 0.361414
vn -0.877090 -0.316374 0.361414
vn -0.716880 -0.697197 0.000000
vn -0.716880 -0.697197 0.000000
vn -0.716880 -0.697197 0.000000
vn 0.000000 -1.000000 0.000000
vn 0.000000 -1.000000 0.000000
vn 0.000000 -1.000000 0.000000
vn 0.000000 -1.000000 0.000000
vn 0.000000 -1.000000 0.000000
vn 0.000000 -1.000000 0.000000
vn -0.214862 -0.643282 -0.734862
vn -0.214862 -0.643282 -0.734862
vn -0.214862 -0.643282 -0.734862
vn -0.213902 -0.667774 -0.712968
vn -0.213902 -0.667774 -0.712968
vn -0.213902 -0.667774 -0.712968
vn -0.508579 0.839078 -0.193123
vn -0.508579 0.839078 -0.193123
vn -0.508579 0.839078 -0.193123
vn -0.508725 0.839116 -0.192571
vn -0.508725 0.839116 -0.192571
vn -0.508725 0.839116 -0.192571
vn 0.000000 -1.000000 0.000000
vn 0.000000 -1.000000 0.000000
vn 0.000000 -1.000000 0.000000
vn 0.000000 -1.000000 0.000000
vn 0.000000 -1.000000 0.000000
vn 0.000000 -1.000000 0.000000
vn -0.508725 0.839116 0.192571
vn -0.508725 0.839116 0.192571
vn -0.508725 0.839116 0.192571
vn -0.508579 0.839078 0.193123
vn -0.508579 0.839078 0.193123
vn -0.508579 0.839078 0.193123
vn -0.215751 -0.610989 0.761672
vn -0.215751 -0.610989 0.761672
vn -0.215751 -0.610989 0.761672
vn -0.214862 -0.643282 0.734862
vn -0.214862 -0.643282 0.734862
vn -0.214862 -0.643282 0.734862
vn -0.513790 0.533239 0.672069
vn -0.513790 0.533239 0.672069
vn -0.513790 0.533239 0.672069
vn -0.458937 0.418442 0.783762
vn -0.458937 0.418442 0.783762
vn -0.458937 0.418442 0.783762
vn -0.317396 0.623457 0.714536
vn -0.317396 0.623457 0.714536
vn -0.317396 0.623457 0.714536
vn -0.184101 0.559556 0.808087
vn -0.184101 0.559556 0.808087
vn -0.184101 0.559556 0.808087
vn -0.072556 0.997364 0.000000
vn -0.072556 0.997364 0.000000
vn -0.072556 0.997364 0.000000
vn -0.072556 0.997364 0.000000
vn -0.072556 0.997364 0.000000
vn -0.072556 0.997364 0.000000
vn 0.253857 0.907981 -0.333357
vn 0.253857 0.907981 -0.333357
vn 0.253857 0.907981 -0.333357
vn -0.072555 0.997364 0.000000
vn -0.072555 0.997364 0.000000
vn -0.072555 0.997364 0.000000
vn -0.309002 0.753441 -0.580383
vn -0.309002 0.753441 -0.580383
vn -0.309002 0.753441 -0.580383
vn -0.340992 0.584298 -0.736424
vn -0.340992 0.584298 -0.736424
vn -0.340992 0.584298 -0.736424
vn -0.513789 0.533239 -0.672069
vn -0.513789 0.533239 -0.672069
vn -0.513789 0.533239 -0.672069
vn -0.513790 0.533237 -0.672070
vn -0.513790 0.533237 -0.672070
vn -0.513790 0.533237 -0.672070
vn -0.822697 0.554077 -0.127156
vn -0.822697 0.554077 -0.127156
vn -0.822697 0.554077 -0.127156
vn -0.885031 0.289352 -0.364686
vn -0.885031 0.289352 -0.364686
vn -0.885031 0.289352 -0.364686
vn -0.885031 0.289352 0.364686
vn -0.885031 0.289352 0.364686
vn -0.885031 0.289352 0.364686
vn -0.822697 0.554077 0.127156
vn -0.822697 0.554077 0.127156
vn -0.822697 0.554077 0.127156
s off
g rightFlipper
usemtl None
f 21/1/1 20/2/2 1/3/3
f 1/3/4 20/2/5 2/4/6
f 11/5/7 5/6/8 12/7/9
f 12/7/10 5/6/11 6/8/12
f 23/9/13 7/10/14 24/11/15
f 24/11/16 7/10/17 8/12/18
f 7/10/19 10/13/20 8/12/21
f 8/12/22 10/13/23 9/14/24
f 25/15/25 15/16/26 26/17/27
f 26/17/28 15/16/29 14/18/30
f 7/19/31 23/20/32 10/21/33
f 10/21/34 23/20/35 22/22/36
f 10/13/37 1/3/38 9/14/39
f 9/14/40 1/3/41 2/4/42
f 21/23/43 1/24/44 22/22/45
f 22/22/46 1/24/47 10/21/48
f 11/5/49 12/7/50 3/25/51
f 3/25/52 12/7/53 4/26/54
f 19/27/55 26/17/56 17/28/57
f 17/28/58 26/17/59 14/18/60
f 14/18/61 15/16/62 9/14/63
f 9/14/64 15/16/65 8/12/66
f 15/16/67 25/15/68 8/12/69
f 8/12/70 25/15/71 24/11/72
f 6/8/73 16/29/74 12/7/75
f 12/7/76 16/29/77 13/30/78
f 2/4/79 17/28/80 9/14/81
f 9/14/82 17/28/83 14/18/84
f 13/30/85 18/31/86 12/7/87
f 12/7/88 18/31/89 4/26/90
f 20/2/91 19/27/92 2/4/93
f 2/4/94 19/27/95 17/28/96
f 18/31/97 19/32/98 4/26/99
f 4/26/100 19/32/101 20/33/102
f 21/34/103 3/25/104 20/33/105
f 20/33/106 3/25/107 4/26/108
f 3/35/109 21/23/110 11/36/111
f 11/36/112 21/23/113 22/22/114
f 23/20/115 5/37/116 22/22/117
f 22/22/118 5/37/119 11/36/120
f 5/6/121 23/38/122 6/8/123
f 6/8/124 23/38/125 24/39/126
f 25/40/127 16/29/128 24/39/129
f 24/39/130 16/29/131 6/8/132
f 13/30/133 16/29/134 26/41/135
f 26/41/136 16/29/137 25/40/138
f 19/32/139 18/31/140 26/41/141
f 26/41/142 18/31/143 13/30/144
