# This file uses centimeters as units for non-parametric coordinates.

mtllib SphealLArm.mtl
g default
v -0.084099 -0.196412 0.195872
v 0.687702 -0.650000 0.441083
v 0.230270 0.158092 0.372081
v 0.803535 -0.130169 0.441083
v 0.230270 0.158092 -0.193345
v 0.687702 -0.130169 -0.262347
v -0.084099 -0.196412 -0.369554
v 0.687702 -0.650000 -0.262347
v 0.687702 -0.650000 0.089368
v -0.084099 -0.196412 -0.086841
v 0.230270 0.158092 0.089368
v 0.803535 -0.049218 0.089368
v 1.424363 -0.425603 0.089368
v 1.424363 -0.650000 0.089368
v 1.424363 -0.650000 -0.046959
v 1.424363 -0.456889 -0.046959
v 1.424363 -0.650000 0.225695
v 1.424363 -0.456889 0.225695
v 1.424363 -0.558186 0.306067
v 0.687702 -0.391509 0.648436
v 0.029836 0.172673 0.448391
v 0.029836 0.172673 -0.000996
v 0.029836 -0.023833 -0.536229
v 0.687702 -0.391509 -0.469701
v 1.424363 -0.558186 -0.127331
v 1.513656 -0.558186 0.089368
vt 0.367176 0.566870
vt 0.388846 0.593793
vt 0.303308 0.627498
vt 0.326813 0.644423
vt 0.131134 0.640294
vt 0.191844 0.631500
vt 0.133228 0.727618
vt 0.180836 0.726262
vt 0.240456 0.564907
vt 0.285557 0.499050
vt 0.259320 0.587005
vt 0.314261 0.518387
vt 0.280332 0.608344
vt 0.339479 0.544016
vt 0.392180 0.485931
vt 0.382195 0.476959
vt 0.401840 0.475347
vt 0.378540 0.464703
vt 0.447252 0.461350
vt 0.447336 0.441735
vt 0.464081 0.472395
vt 0.464079 0.441735
vt 0.447252 0.422120
vt 0.464081 0.411075
vt 0.070040 0.634477
vt 0.085594 0.728551
vt 0.402012 0.495073
vt 0.414542 0.497591
vt 0.149774 0.495297
vt 0.127516 0.499680
vt 0.105044 0.496430
vt 0.015636 0.612420
vt 0.088134 0.482629
vt 0.036877 0.733869
vt 0.481725 0.441735
vt 0.481771 0.422124
vt 0.481771 0.461346
vt 0.229715 0.729267
vt 0.245043 0.606753
vt 0.165971 0.480646
vt 0.126781 0.471187
vn -0.524211 -0.532860 0.664276
vn -0.524211 -0.532860 0.664276
vn -0.524211 -0.532860 0.664276
vn -0.538012 -0.356514 0.763833
vn -0.538012 -0.356514 0.763833
vn -0.538012 -0.356514 0.763833
vn 0.323096 0.893442 -0.312043
vn 0.323096 0.893442 -0.312043
vn 0.323096 0.893442 -0.312043
vn 0.533142 0.846026 0.000000
vn 0.533142 0.846026 0.000000
vn 0.533142 0.846026 0.000000
vn -0.247831 -0.583385 -0.773461
vn -0.247831 -0.583385 -0.773461
vn -0.247831 -0.583385 -0.773461
vn -0.251079 -0.605683 -0.755055
vn -0.251079 -0.605683 -0.755055
vn -0.251079 -0.605683 -0.755055
vn -0.506678 -0.862136 0.000000
vn -0.506678 -0.862136 0.000000
vn -0.506678 -0.862136 0.000000
vn -0.506678 -0.862135 0.000000
vn -0.506678 -0.862135 0.000000
vn -0.506678 -0.862135 0.000000
vn 0.716880 -0.697197 0.000000
vn 0.716880 -0.697197 0.000000
vn 0.716880 -0.697197 0.000000
vn 0.877091 -0.316373 -0.361414
vn 0.877091 -0.316373 -0.361414
vn 0.877091 -0.316373 -0.361414
vn -0.834536 0.550953 0.000000
vn -0.834536 0.550953 0.000000
vn -0.834536 0.550953 0.000000
vn -0.941024 0.317611 -0.116608
vn -0.941024 0.317611 -0.116608
vn -0.941024 0.317611 -0.116608
vn -0.506678 -0.862136 0.000000
vn -0.506678 -0.862136 0.000000
vn -0.506678 -0.862136 0.000000
vn -0.506678 -0.862136 0.000000
vn -0.506678 -0.862136 0.000000
vn -0.506678 -0.862136 0.000000
vn -0.955509 0.294962 0.000000
vn -0.955509 0.294962 0.000000
vn -0.955509 0.294962 0.000000
vn -0.955509 0.294962 0.000000
vn -0.955509 0.294962 0.000000
vn -0.955509 0.294962 0.000000
vn 0.420174 0.884323 0.203536
vn 0.420174 0.884323 0.203536
vn 0.420174 0.884323 0.203536
vn 0.340077 0.940398 0.000000
vn 0.340077 0.940398 0.000000
vn 0.340077 0.940398 0.000000
vn 0.716880 -0.697197 0.000000
vn 0.716880 -0.697197 0.000000
vn 0.716880 -0.697197 0.000000
vn 0.877090 -0.316374 0.361414
vn 0.877090 -0.316374 0.361414
vn 0.877090 -0.316374 0.361414
vn 0.000000 -1.000000 0.000000
vn 0.000000 -1.000000 0.000000
vn 0.000000 -1.000000 0.000000
vn 0.000000 -1.000000 0.000000
vn 0.000000 -1.000000 0.000000
vn 0.000000 -1.000000 0.000000
vn 0.215751 -0.610990 -0.761671
vn 0.215751 -0.610990 -0.761671
vn 0.215751 -0.610990 -0.761671
vn 0.214862 -0.643282 -0.734862
vn 0.214862 -0.643282 -0.734862
vn 0.214862 -0.643282 -0.734862
vn 0.462625 0.818460 -0.340737
vn 0.462625 0.818460 -0.340737
vn 0.462625 0.818460 -0.340737
vn 0.508725 0.839116 -0.192570
vn 0.508725 0.839116 -0.192570
vn 0.508725 0.839116 -0.192570
vn 0.000000 -1.000000 0.000000
vn 0.000000 -1.000000 0.000000
vn 0.000000 -1.000000 0.000000
vn 0.000000 -1.000000 0.000000
vn 0.000000 -1.000000 0.000000
vn 0.000000 -1.000000 0.000000
vn 0.508579 0.839078 0.193123
vn 0.508579 0.839078 0.193123
vn 0.508579 0.839078 0.193123
vn 0.508725 0.839116 0.192571
vn 0.508725 0.839116 0.192571
vn 0.508725 0.839116 0.192571
vn 0.215751 -0.610989 0.761672
vn 0.215751 -0.610989 0.761672
vn 0.215751 -0.610989 0.761672
vn 0.214862 -0.643283 0.734862
vn 0.214862 -0.643283 0.734862
vn 0.214862 -0.643283 0.734862
vn 0.458937 0.418442 0.783762
vn 0.458937 0.418442 0.783762
vn 0.458937 0.418442 0.783762
vn 0.513790 0.533239 0.672069
vn 0.513790 0.533239 0.672069
vn 0.513790 0.533239 0.672069
vn 0.317396 0.623457 0.714536
vn 0.317396 0.623457 0.714536
vn 0.317396 0.623457 0.714536
vn 0.184101 0.559556 0.808087
vn 0.184101 0.559556 0.808087
vn 0.184101 0.559556 0.808087
vn 0.072556 0.997364 0.000000
vn 0.072556 0.997364 0.000000
vn 0.072556 0.997364 0.000000
vn 0.072556 0.997364 0.000000
vn 0.072556 0.997364 0.000000
vn 0.072556 0.997364 0.000000
vn -0.253857 0.907981 -0.333357
vn -0.253857 0.907981 -0.333357
vn -0.253857 0.907981 -0.333357
vn 0.072555 0.997364 0.000000
vn 0.072555 0.997364 0.000000
vn 0.072555 0.997364 0.000000
vn 0.363154 0.718323 -0.593406
vn 0.363154 0.718323 -0.593406
vn 0.363154 0.718323 -0.593406
vn 0.392387 0.571702 -0.720548
vn 0.392387 0.571702 -0.720548
vn 0.392387 0.571702 -0.720548
vn 0.450576 0.554883 -0.699347
vn 0.450576 0.554883 -0.699347
vn 0.450576 0.554883 -0.699347
vn 0.450576 0.554881 -0.699348
vn 0.450576 0.554881 -0.699348
vn 0.450576 0.554881 -0.699348
vn 0.822697 0.554076 -0.127156
vn 0.822697 0.554076 -0.127156
vn 0.822697 0.554076 -0.127156
vn 0.885031 0.289352 -0.364686
vn 0.885031 0.289352 -0.364686
vn 0.885031 0.289352 -0.364686
vn 0.885031 0.289353 0.364686
vn 0.885031 0.289353 0.364686
vn 0.885031 0.289353 0.364686
vn 0.822697 0.554077 0.127156
vn 0.822697 0.554077 0.127156
vn 0.822697 0.554077 0.127156
s off
g leftFlipper
usemtl None
f 2/1/1 20/2/2 1/3/3
f 1/3/4 20/2/5 21/4/6
f 12/5/7 6/6/8 11/7/9
f 11/7/10 6/6/11 5/8/12
f 23/9/13 24/10/14 7/11/15
f 7/11/16 24/10/17 8/12/18
f 7/11/19 8/12/20 10/13/21
f 10/13/22 8/12/23 9/14/24
f 14/15/25 15/16/26 26/17/27
f 26/17/28 15/16/29 25/18/30
f 7/19/31 10/20/32 23/21/33
f 23/21/34 10/20/35 22/22/36
f 10/13/37 9/14/38 1/3/39
f 1/3/40 9/14/41 2/1/42
f 10/20/43 1/23/44 22/22/45
f 22/22/46 1/23/47 21/24/48
f 4/25/49 12/5/50 3/26/51
f 3/26/52 12/5/53 11/7/54
f 14/15/55 26/17/56 17/27/57
f 17/27/58 26/17/59 19/28/60
f 8/12/61 15/16/62 9/14/63
f 9/14/64 15/16/65 14/15/66
f 24/10/67 25/18/68 8/12/69
f 8/12/70 25/18/71 15/16/72
f 6/6/73 12/5/74 16/29/75
f 16/29/76 12/5/77 13/30/78
f 2/1/79 9/14/80 17/27/81
f 17/27/82 9/14/83 14/15/84
f 4/25/85 18/31/86 12/5/87
f 12/5/88 18/31/89 13/30/90
f 20/2/91 2/1/92 19/28/93
f 19/28/94 2/1/95 17/27/96
f 20/32/97 19/33/98 4/25/99
f 4/25/100 19/33/101 18/31/102
f 21/34/103 20/32/104 3/26/105
f 3/26/106 20/32/107 4/25/108
f 22/22/109 21/24/110 11/35/111
f 11/35/112 21/24/113 3/36/114
f 23/21/115 22/22/116 5/37/117
f 5/37/118 22/22/119 11/35/120
f 5/8/121 6/6/122 23/38/123
f 23/38/124 6/6/125 24/39/126
f 25/40/127 24/39/128 16/29/129
f 16/29/130 24/39/131 6/6/132
f 13/30/133 26/41/134 16/29/135
f 16/29/136 26/41/137 25/40/138
f 19/33/139 26/41/140 18/31/141
f 18/31/142 26/41/143 13/30/144
