# Blender v2.71 (sub 0) OBJ File: ''
# www.blender.org
mtllib Head.mtl
o Head.009
v -0.358423 3.896883 6.923802
v -0.851152 4.145521 6.510130
v -1.201509 3.875139 6.250381
v 0.851667 4.145521 6.510130
v 0.358937 3.896883 6.923802
v 1.202024 3.875139 6.250381
v 0.358937 2.373308 6.617465
v 0.785264 2.272613 6.181905
v 1.546946 2.173727 5.941159
v -0.784749 2.272613 6.181905
v -0.358423 2.373308 6.617465
v -1.546430 2.173727 5.941159
v 1.700531 1.247513 4.874720
v 2.600135 0.429401 3.088718
v 2.276342 2.038241 4.345665
v 2.268289 3.149437 4.361972
v -2.275828 2.038241 4.345665
v -2.258546 3.135265 4.370903
v -2.599620 0.429401 3.088718
v -1.700017 1.247515 4.874720
v -1.217024 4.377647 4.733368
v -1.980853 4.135655 4.027506
v -0.000024 4.276092 6.510130
v -0.000024 4.583052 4.733371
v 1.217538 4.377645 4.733368
v 0.000004 3.992052 7.047971
v -0.000024 2.373308 6.617465
v 0.758920 2.264885 6.274634
v -0.000024 2.213278 6.274634
v 0.765464 1.909283 6.156242
v -0.000024 1.907425 6.156250
v -2.206866 5.690516 3.520800
v -1.113473 6.744303 3.770085
v 1.113988 6.744303 3.770085
v -0.000024 6.744303 3.770085
v 0.654957 1.400490 6.036333
v 0.000018 1.367767 5.930426
v -2.366945 7.596140 2.696210
v -3.025075 5.941000 1.795293
v -0.000024 7.596140 2.696210
v 2.207381 5.690516 3.520800
v 2.367460 7.596140 2.696210
v 3.025590 5.941000 1.795293
v -2.673735 3.738675 3.455790
v -3.544394 4.165762 1.497198
v -1.322345 1.946383 5.085855
v -0.758406 2.264885 6.274634
v -0.000024 1.946383 5.085855
v 2.056727 8.188361 0.872816
v 3.261589 5.780141 0.206432
v -3.261074 5.780141 0.206432
v -3.505253 4.093215 0.112174
v -0.000024 8.458022 0.872816
v -0.000024 7.259730 -1.308707
v 2.718725 7.259730 -1.308707
v -2.056213 8.188361 0.872816
v -2.718210 7.259730 -1.308707
v -2.758126 5.604589 -2.059058
v 2.758641 5.604589 -2.059058
v 0.000540 5.604589 -2.059058
v 3.544910 4.165762 1.497198
v 3.505768 4.093215 0.112174
v 2.969644 4.014040 -2.260897
v -2.969129 4.014040 -2.260897
v 0.000246 4.014040 -2.260897
v -0.000024 -0.077663 -2.767203
v -2.304229 -0.077663 -2.767203
v 2.304744 -0.077663 -2.767203
v -3.310121 0.744496 1.427021
v -3.746011 0.000000 0.000000
v 3.746526 0.000000 0.000000
v 0.000000 0.000000 0.000000
v 1.981368 4.135655 4.027506
v -0.000024 2.466473 6.281808
v 2.674250 3.738675 3.455790
v -0.000024 2.134897 4.823400
v -1.507282 1.908783 4.823400
v 1.322860 1.946383 5.085855
v 1.194285 0.977395 4.770801
v 3.310635 0.744496 1.427021
v -0.000005 0.924208 1.887426
v 1.507797 1.908783 4.823400
v -0.000024 0.029816 3.710673
v -0.000024 0.452159 4.487834
v -0.766802 1.880770 6.111454
v -0.653912 1.410395 5.903920
v -1.193771 0.977394 4.770801
v -1.708855 6.812232 1.980870
v -2.250060 7.958113 1.980870
v -4.558891 6.193282 2.538670
v -4.877248 6.732035 2.367882
v -2.491605 7.774981 0.466413
v -5.329465 6.517041 0.651464
v -2.447456 7.808455 -0.540703
v -2.646897 5.411706 -0.540703
v -4.981664 6.602942 -0.779993
v -4.215229 5.484387 -0.779993
v -2.691047 5.378234 0.466413
v -4.411676 5.335448 0.651464
v -6.310596 5.209462 1.511793
v -6.711050 5.425353 1.511793
v -6.672953 4.997170 0.222331
v -6.906989 5.368386 0.222331
v -6.573112 5.624871 -1.015578
v -6.339072 5.294089 -1.015578
v -2.116394 9.923869 0.992397
v -2.180996 9.900842 0.992397
v -1.295826 7.956429 1.765683
v -2.488806 7.369215 1.765683
v -2.116394 9.923869 0.887900
v -2.180996 9.900842 0.887900
v -1.295826 7.956431 0.076532
v -2.488806 7.369216 0.076532
v 2.116345 9.923869 0.992397
v 1.295778 7.956429 1.765683
v 2.180948 9.900842 0.992397
v 2.488758 7.369215 1.765683
v 2.116345 9.923869 0.887900
v 2.180948 9.900842 0.887900
v 1.295778 7.956431 0.076532
v 2.488758 7.369216 0.076532
v 1.708807 6.812232 1.980870
v 4.558842 6.193282 2.538670
v 2.250011 7.958113 1.980870
v 4.877200 6.732035 2.367882
v 2.491557 7.774981 0.466413
v 5.329417 6.517041 0.651464
v 2.447408 7.808455 -0.540703
v 4.981616 6.602942 -0.779993
v 2.646848 5.411706 -0.540703
v 4.215181 5.484387 -0.779993
v 4.411627 5.335448 0.651464
v 2.690999 5.378234 0.466413
v 6.310548 5.209462 1.511793
v 6.672905 4.997170 0.222331
v 6.711002 5.425353 1.511793
v 6.906940 5.368386 0.222331
v 6.573063 5.624871 -1.015578
v 6.139241 4.671168 -1.015578
vt 0.595373 0.932029
vt 0.578188 0.943177
vt 0.564826 0.935507
vt 0.634291 0.943340
vt 0.617226 0.932260
vt 0.647563 0.935562
vt 0.617582 0.898936
vt 0.635272 0.885940
vt 0.660459 0.903528
vt 0.576631 0.886398
vt 0.594376 0.899086
vt 0.551622 0.903396
vt 0.330572 0.462051
vt 0.501988 0.382161
vt 0.377652 0.454449
vt 0.685341 0.856905
vt 0.709461 0.927859
vt 0.526377 0.856752
vt 0.502793 0.927817
vt 0.568913 0.991828
vt 0.514852 0.958465
vt 0.606319 0.947343
vt 0.606422 0.998544
vt 0.643357 0.991852
vt 0.606202 0.932820
vt 0.605949 0.898201
vt 0.039622 0.696501
vt 0.062261 0.699393
vt 0.036732 0.710027
vt 0.062478 0.711051
vt 0.428588 0.575614
vt 0.361873 0.632892
vt 0.515412 0.645635
vt 0.451669 0.710108
vt 0.293593 0.653113
vt 0.371494 0.734585
vt 0.040552 0.728856
vt 0.062814 0.729330
vt 0.625840 0.720544
vt 0.679004 0.634763
vt 0.250305 0.646841
vt 0.250437 0.698148
vt 0.214651 0.648104
vt 0.172406 0.706681
vt 0.285984 0.647921
vt 0.328531 0.706302
vt 0.518869 0.556755
vt 0.686821 0.551192
vt 0.115660 0.700069
vt 0.084769 0.695669
vt 0.061759 0.671665
vt 0.383338 0.758943
vt 0.305452 0.754971
vt 0.365412 0.805045
vt 0.117843 0.759551
vt 0.135962 0.805569
vt 0.076494 0.814862
vt 0.106848 0.847100
vt 0.250566 0.752346
vt 0.250699 0.816677
vt 0.313063 0.813904
vt 0.195709 0.755233
vt 0.188342 0.814192
vt 0.180239 0.856245
vt 0.321326 0.855926
vt 0.250806 0.865932
vt 0.424918 0.814094
vt 0.394685 0.846464
vt 0.336080 0.894864
vt 0.165631 0.895240
vt 0.250884 0.912207
vt 0.251030 0.998597
vt 0.163497 0.985530
vt 0.338548 0.985166
vt 0.003994 0.896100
vt 0.065476 0.927010
vt 0.436373 0.926222
vt 0.027686 0.986048
vt 0.009243 0.978758
vt 0.036536 0.963852
vt 0.006458 0.952054
vt 0.046080 0.993447
vt 0.066475 0.975986
vt 0.697333 0.958790
vt 0.605909 0.885725
vt 0.427910 0.535105
vt 0.606210 0.847089
vt 0.539163 0.867586
vt 0.122135 0.693361
vt 0.061582 0.661943
vt 0.008914 0.702031
vt 0.004061 0.726646
vt 0.025615 0.774752
vt 0.497742 0.895053
vt 0.042680 0.948445
vt 0.016639 0.936586
vt 0.069732 0.957757
vt 0.672646 0.867843
vt 0.002184 0.695567
vt 0.356966 0.477626
vt 0.336402 0.486990
vt 0.603815 0.407326
vt 0.323174 0.413118
vt 0.271141 0.373904
vt 0.261470 0.394983
vt 0.088151 0.709080
vt 0.085026 0.728037
vt 0.121408 0.724493
vt 0.101631 0.773359
vt 0.063861 0.786256
vt 0.048713 0.933316
vt 0.024999 0.928460
vt 0.069257 0.946109
vt 0.093427 0.456009
vt 0.110541 0.495339
vt 0.199915 0.533066
vt 0.183917 0.550038
vt 0.082663 0.520256
vt 0.140084 0.593003
vt 0.068892 0.548207
vt 0.008560 0.561118
vt 0.091574 0.618522
vt 0.048033 0.616590
vt 0.436658 0.824600
vt 0.549467 0.861042
vt 0.499032 0.756899
vt 0.564842 0.778943
vt 0.216929 0.639172
vt 0.201349 0.637039
vt 0.179766 0.682944
vt 0.170833 0.669873
vt 0.009369 0.520378
vt 0.505019 0.717002
vt 0.568346 0.720583
vt 0.129946 0.674479
vt 0.124607 0.688915
vt 0.667475 0.780528
vt 0.661259 0.728311
vt 0.642041 0.828264
vt 0.340826 0.613441
vt 0.342091 0.611033
vt 0.251544 0.571328
vt 0.288477 0.520408
vt 0.344119 0.617366
vt 0.345068 0.614136
vt 0.416510 0.546757
vt 0.370419 0.505463
vt 0.246717 0.638739
vn -0.623900 0.059900 0.779200
vn 0.623900 0.059900 0.779200
vn -0.081000 -0.985600 0.148600
vn 0.081000 -0.985600 0.148600
vn 0.816400 -0.244500 0.523200
vn 0.909500 0.000500 0.415700
vn -0.909600 0.004800 0.415400
vn -0.816400 -0.244500 0.523200
vn -0.696300 0.679200 0.232100
vn -0.511800 0.813900 0.274800
vn 0.149400 0.974300 0.168300
vn 0.164200 0.973200 0.161000
vn -0.119900 0.781400 0.612400
vn -0.368600 0.822000 0.434100
vn 0.368200 0.822200 0.434200
vn 0.119800 0.781400 0.612400
vn 0.000000 -0.197100 0.980400
vn 0.257200 -0.248400 0.933900
vn -0.257600 -0.248300 0.933800
vn -0.149500 0.974300 0.168300
vn -0.164300 0.973200 0.161000
vn 0.021500 -0.315500 0.948700
vn 0.000900 -0.361000 0.932600
vn -0.694800 0.129500 0.707400
vn -0.510500 0.343200 0.788400
vn 0.063900 0.378600 0.923300
vn 0.000000 0.407100 0.913400
vn 0.000600 -0.229500 0.973300
vn -0.128800 -0.382800 0.914800
vn -0.063900 0.378600 0.923300
vn -0.486800 0.312100 0.815800
vn -0.891000 0.115200 0.439200
vn 0.000000 0.783400 0.621500
vn 0.486800 0.312100 0.815800
vn 0.891000 0.115200 0.439200
vn -0.875100 0.194500 0.443200
vn -0.882300 0.185500 0.432600
vn 0.000000 0.965900 -0.258800
vn 0.066200 0.973600 -0.218600
vn 0.922600 0.384500 -0.032400
vn 0.900400 0.425400 0.090700
vn -0.958400 0.260900 0.115900
vn -0.988800 0.145100 -0.035500
vn 0.000000 0.951100 0.308900
vn 0.117700 0.897800 0.424400
vn 0.114200 0.870700 -0.478300
vn 0.000000 0.920100 -0.391700
vn -0.922600 0.384500 -0.032400
vn -0.900400 0.425400 0.090700
vn -0.117700 0.897800 0.424400
vn -0.114200 0.870700 -0.478300
vn -0.900500 0.425000 0.092400
vn -0.966500 0.125000 -0.224200
vn 0.900500 0.425000 0.092400
vn 0.966500 0.125000 -0.224200
vn 0.000000 0.412900 -0.910800
vn 0.958400 0.260900 0.115900
vn 0.988800 0.145100 -0.035500
vn 0.962300 0.151900 -0.225400
vn 0.962400 0.155900 -0.222600
vn -0.962300 0.151900 -0.225400
vn -0.962400 0.155900 -0.222600
vn 0.000000 0.125900 -0.992000
vn 0.000000 0.122800 -0.992400
vn -0.997400 -0.067800 -0.024600
vn -0.962100 0.049200 0.268200
vn -0.973000 0.063300 -0.221900
vn -0.884500 -0.087000 -0.458400
vn 0.973000 0.063300 -0.221900
vn 0.884500 -0.087000 -0.458400
vn 0.000000 -0.999600 0.028100
vn 0.486200 -0.059900 0.871800
vn 0.614000 -0.155600 0.773800
vn 0.863000 0.368300 0.345700
vn 0.882000 0.094900 0.461500
vn 0.000000 -0.963600 -0.267500
vn -0.241000 -0.970400 -0.011600
vn 0.511800 0.813900 0.274800
vn 0.696300 0.679200 0.232100
vn 0.708700 0.402700 0.579300
vn 0.676100 0.137600 0.723800
vn 0.694800 0.129500 0.707400
vn 0.510500 0.343200 0.788400
vn 0.875100 0.194500 0.443200
vn 0.882300 0.185500 0.432600
vn -0.486200 -0.059900 0.871800
vn -0.614000 -0.155600 0.773800
vn -0.883200 0.095600 0.459100
vn -0.866700 0.359300 0.346000
vn 0.241200 -0.970400 -0.011800
vn 0.208000 -0.953800 0.216800
vn 0.145900 -0.972300 0.182800
vn -0.708700 0.396900 0.583300
vn -0.676100 0.137600 0.723800
vn -0.148300 0.988300 -0.037100
vn 0.000000 0.812200 0.583400
vn -0.066200 0.973600 -0.218600
vn 0.836600 0.317200 0.446600
vn 0.880700 -0.134900 0.454000
vn 0.355100 -0.830600 0.429000
vn 0.687600 -0.304700 0.659100
vn 0.962100 0.049200 0.268200
vn 0.997400 -0.067800 -0.024600
vn 0.012400 -0.898000 0.439700
vn 0.000000 -0.886600 0.462500
vn -0.012400 -0.898000 0.439700
vn -0.052700 -0.971300 0.232100
vn 0.288600 -0.933900 0.211200
vn -0.207900 -0.953800 0.216900
vn -0.145800 -0.972300 0.182800
vn 0.148200 0.988300 -0.037200
vn 0.490700 0.208700 0.846000
vn 0.804000 0.275200 0.527100
vn 0.912500 0.000600 0.409200
vn 0.947100 -0.056300 0.316000
vn 0.921900 -0.063000 0.382200
vn 0.917100 -0.070800 0.392200
vn 0.315700 -0.792400 0.522000
vn 0.241800 -0.852600 0.463300
vn 0.253400 -0.837300 0.484600
vn -0.024600 -0.360900 0.932300
vn -0.040200 -0.389900 0.920000
vn -0.038900 -0.411200 0.910700
vn -0.062400 -0.385300 0.920700
vn 0.052700 -0.971300 0.232100
vn -0.288600 -0.933900 0.211200
vn -0.490700 0.208700 0.846000
vn -0.804000 0.275200 0.527100
vn -0.828700 0.306300 0.468500
vn -0.870200 -0.176400 0.460100
vn -0.337600 -0.814400 0.472000
vn -0.594100 -0.439800 0.673500
vn -0.075600 -0.918900 0.387200
vn -0.237500 -0.820100 0.520600
vn -0.909500 0.004800 0.415800
vn -0.947100 -0.056300 0.316000
vn -0.921900 -0.063000 0.382200
vn -0.917100 -0.070800 0.392200
vn -0.003600 -0.948900 0.315700
vn 0.237400 -0.820200 0.520600
vn 0.032600 -0.897300 -0.440200
vn -0.083300 -0.971900 -0.219900
vn -0.315700 -0.792400 0.522000
vn -0.241900 -0.852500 0.463300
vn -0.253500 -0.837200 0.484600
vn -0.032600 -0.897300 -0.440200
vn 0.083400 -0.971900 -0.219900
vn 0.174200 0.082300 0.981300
vn -0.000500 0.301900 0.953300
vn -0.427500 0.903100 -0.041000
vn -0.405600 0.914000 -0.007600
vn 0.097800 -0.008100 -0.995200
vn 0.154800 0.106100 -0.982200
vn 0.279000 -0.781100 0.558700
vn 0.067400 -0.906300 0.417200
vn -0.457200 -0.848000 0.268100
vn -0.836300 -0.527300 0.150400
vn 0.866600 -0.072100 -0.493800
vn 0.887400 0.419100 -0.192200
vn 0.995700 -0.082900 0.040900
vn -0.040900 -0.998500 -0.035000
vn 0.013800 -0.994700 -0.101600
vn -0.772900 -0.546900 -0.321800
vn -0.796900 -0.502400 -0.335400
vn -0.430400 0.902600 0.011100
vn -0.407300 0.912200 -0.044200
vn 0.103700 0.071000 -0.992100
vn 0.102400 0.072400 -0.992100
vn 0.179400 -0.966500 -0.183400
vn 0.098700 -0.991100 -0.089600
vn 0.246900 -0.874800 0.416900
vn 0.123000 -0.984200 0.127500
vn -0.185100 -0.343400 0.920800
vn -0.497600 -0.019100 0.867200
vn -0.597500 0.799900 0.055500
vn -0.596900 0.800300 0.057000
vn -0.514200 0.854500 -0.073700
vn -0.590100 0.807300 0.008100
vn -0.114600 0.321600 0.939900
vn -0.150400 0.305500 0.940300
vn -0.335800 0.941900 0.000000
vn -0.119600 0.335500 -0.934400
vn -0.156900 0.318700 -0.934800
vn -0.992700 0.120700 0.000000
vn 0.922900 0.384900 0.000000
vn 0.114600 0.321600 0.939900
vn 0.150400 0.305500 0.940300
vn 0.335800 0.941900 0.000000
vn 0.335800 0.942000 0.000000
vn 0.119600 0.335500 -0.934400
vn 0.156900 0.318700 -0.934800
vn 0.992700 0.120700 0.000000
vn -0.922900 0.384900 0.000000
vn -0.174200 0.082300 0.981300
vn 0.000500 0.301900 0.953300
vn 0.427500 0.903100 -0.041000
vn 0.405600 0.914000 -0.007600
vn -0.097800 -0.008100 -0.995200
vn -0.154800 0.106100 -0.982200
vn -0.067400 -0.906300 0.417200
vn -0.279000 -0.781100 0.558700
vn 0.457200 -0.848000 0.268100
vn 0.836300 -0.527200 0.150400
vn -0.866600 -0.072100 -0.493800
vn -0.887400 0.419100 -0.192200
vn -0.995700 -0.082900 0.040900
vn 0.040900 -0.998500 -0.035000
vn -0.013800 -0.994700 -0.101600
vn 0.801200 -0.505100 -0.320800
vn 0.875800 -0.398400 -0.272600
vn 0.407300 0.912200 -0.044200
vn 0.430400 0.902600 0.011100
vn -0.114800 0.052200 -0.992000
vn -0.094300 0.064600 -0.993400
vn -0.393300 -0.918500 -0.041600
vn -0.087800 -0.953300 0.288900
vn -0.246900 -0.874800 0.416900
vn -0.123000 -0.984200 0.127500
vn 0.497600 -0.019100 0.867200
vn 0.185100 -0.343400 0.920800
vn 0.596900 0.800300 0.057000
vn 0.597500 0.799900 0.055500
vn 0.514200 0.854500 -0.073700
vn 0.590100 0.807300 0.008100
usemtl lambert2SG.012
s off
f 1/1/1 2/2/1 3/3/1
f 4/4/2 5/5/2 6/6/2
f 7/7/3 8/8/3 9/9/3
f 10/10/4 11/11/4 12/12/4
f 13/13/5 14/14/5 15/15/5
f 9/9/6 15/16/6 16/17/6
f 17/18/7 12/12/7 18/19/7
f 19/14/8 20/13/8 17/15/8
f 2/2/9 21/20/9 3/3/9
f 3/3/10 21/20/10 22/21/10
f 23/22/11 4/4/11 24/23/11
f 24/23/12 4/4/12 25/24/12
f 2/2/13 1/1/13 23/22/13
f 23/22/14 1/1/14 26/25/14
f 26/25/15 5/5/15 23/22/15
f 23/22/16 5/5/16 4/4/16
f 7/7/17 5/5/17 27/26/17
f 27/26/18 5/5/18 26/25/18
f 26/25/19 1/1/19 27/26/19
f 27/26/17 1/1/17 11/11/17
f 24/23/20 2/2/20 23/22/20
f 2/2/21 24/23/21 21/20/21
f 28/27/22 29/28/22 30/29/22
f 30/29/23 29/28/23 31/30/23
f 22/31/24 21/32/24 32/33/24
f 32/33/25 21/32/25 33/34/25
f 25/32/26 34/34/26 24/35/26
f 24/35/27 34/34/27 35/36/27
f 30/29/28 31/30/28 36/37/28
f 36/37/29 31/30/29 37/38/29
f 35/36/27 33/34/27 24/35/27
f 24/35/30 33/34/30 21/32/30
f 33/34/31 38/39/31 32/33/31
f 32/33/32 38/39/32 39/40/32
f 35/41/33 40/42/33 33/43/33
f 33/43/33 40/42/33 38/44/33
f 34/34/34 41/33/34 42/39/34
f 42/39/35 41/33/35 43/40/35
f 35/41/33 34/45/33 40/42/33
f 40/42/33 34/45/33 42/46/33
f 32/33/36 39/40/36 44/47/36
f 44/47/37 39/40/37 45/48/37
f 46/49/38 47/50/38 48/51/38
f 48/51/39 47/50/39 29/28/39
f 42/46/40 43/52/40 49/53/40
f 49/53/41 43/52/41 50/54/41
f 39/55/42 51/56/42 45/57/42
f 45/57/43 51/56/43 52/58/43
f 42/46/44 49/53/44 40/42/44
f 40/42/45 49/53/45 53/59/45
f 53/59/46 49/53/46 54/60/46
f 54/60/47 49/53/47 55/61/47
f 38/44/48 56/62/48 39/55/48
f 39/55/49 56/62/49 51/56/49
f 38/44/44 40/42/44 56/62/44
f 56/62/50 40/42/50 53/59/50
f 53/59/51 54/60/51 56/62/51
f 56/62/47 54/60/47 57/63/47
f 56/62/52 57/63/52 51/56/52
f 51/56/53 57/63/53 58/64/53
f 49/53/54 50/54/54 55/61/54
f 55/61/55 50/54/55 59/65/55
f 54/60/56 60/66/56 57/63/56
f 57/63/56 60/66/56 58/64/56
f 54/60/56 55/61/56 60/66/56
f 60/66/56 55/61/56 59/65/56
f 43/52/57 61/67/57 50/54/57
f 50/54/58 61/67/58 62/68/58
f 50/54/59 62/68/59 59/65/59
f 59/65/60 62/68/60 63/69/60
f 51/56/61 58/64/61 52/58/61
f 52/58/62 58/64/62 64/70/62
f 60/66/63 65/71/63 58/64/63
f 58/64/63 65/71/63 64/70/63
f 66/72/64 67/73/64 65/71/64
f 65/71/64 67/73/64 64/70/64
f 60/66/63 59/65/63 65/71/63
f 65/71/63 59/65/63 63/69/63
f 66/72/64 65/71/64 68/74/64
f 68/74/64 65/71/64 63/69/64
f 45/57/65 52/58/65 69/75/65
f 69/75/66 52/58/66 70/76/66
f 52/58/67 64/70/67 70/76/67
f 70/76/68 64/70/68 67/73/68
f 62/68/69 71/77/69 63/69/69
f 63/69/70 71/77/70 68/74/70
f 66/78/71 68/79/71 72/80/71
f 72/80/71 68/79/71 71/81/71
f 66/78/71 72/80/71 67/82/71
f 67/82/71 72/80/71 70/83/71
f 9/9/72 6/6/72 7/7/72
f 7/7/73 6/6/73 5/5/73
f 73/84/74 6/6/74 16/17/74
f 16/17/75 6/6/75 9/9/75
f 27/26/76 74/85/76 7/7/76
f 7/7/77 74/85/77 8/8/77
f 73/84/78 25/24/78 6/6/78
f 6/6/79 25/24/79 4/4/79
f 16/86/80 75/47/80 73/31/80
f 73/31/81 75/47/81 41/33/81
f 73/31/82 41/33/82 25/32/82
f 25/32/83 41/33/83 34/34/83
f 41/33/84 75/47/84 43/40/84
f 43/40/85 75/47/85 61/48/85
f 12/12/86 11/11/86 3/3/86
f 11/11/87 1/1/87 3/3/87
f 12/12/88 3/3/88 18/19/88
f 18/19/89 3/3/89 22/21/89
f 10/10/90 74/85/90 11/11/90
f 11/11/76 74/85/76 27/26/76
f 74/85/91 10/10/91 76/87/91
f 76/87/92 10/10/92 77/88/92
f 18/86/93 22/31/93 44/47/93
f 44/47/94 22/31/94 32/33/94
f 77/89/95 46/49/95 76/90/95
f 76/90/96 46/49/96 48/51/96
f 78/91/38 48/51/38 28/27/38
f 28/27/97 48/51/97 29/28/97
f 13/92/98 78/91/98 30/29/98
f 30/29/99 78/91/99 28/27/99
f 79/93/100 13/92/100 36/37/100
f 36/37/101 13/92/101 30/29/101
f 71/77/102 62/68/102 80/94/102
f 80/94/103 62/68/103 61/67/103
f 81/95/104 72/80/104 80/96/104
f 80/96/105 72/80/105 71/81/105
f 81/95/106 69/97/106 72/80/106
f 72/80/105 69/97/105 70/83/105
f 8/8/107 82/98/107 9/9/107
f 9/9/108 82/98/108 15/16/108
f 74/85/109 76/87/109 8/8/109
f 8/8/110 76/87/110 82/98/110
f 82/99/111 76/90/111 78/91/111
f 78/91/96 76/90/96 48/51/96
f 15/15/112 82/100/112 13/13/112
f 13/13/113 82/100/113 78/101/113
f 16/86/114 15/15/114 75/47/114
f 75/47/115 15/15/115 14/14/115
f 14/14/116 80/102/116 75/47/116
f 75/47/117 80/102/117 61/48/117
f 13/13/118 79/103/118 14/14/118
f 83/104/119 14/14/119 84/105/119
f 14/14/120 79/103/120 84/105/120
f 29/28/121 47/50/121 31/30/121
f 31/30/122 47/50/122 85/106/122
f 85/106/123 86/107/123 31/30/123
f 31/30/124 86/107/124 37/38/124
f 10/10/125 12/12/125 77/88/125
f 77/88/126 12/12/126 17/18/126
f 17/15/127 20/13/127 77/100/127
f 77/100/128 20/13/128 46/101/128
f 20/108/129 85/106/129 46/49/129
f 46/49/130 85/106/130 47/50/130
f 87/109/131 86/107/131 20/108/131
f 20/108/132 86/107/132 85/106/132
f 86/107/133 87/109/133 37/38/133
f 37/38/134 87/109/134 84/110/134
f 18/86/135 44/47/135 17/15/135
f 17/15/136 44/47/136 19/14/136
f 19/14/137 44/47/137 69/102/137
f 69/102/138 44/47/138 45/48/138
f 36/37/139 37/38/139 79/93/139
f 79/93/140 37/38/140 84/110/140
f 83/111/141 81/95/141 14/112/141
f 14/112/142 81/95/142 80/96/142
f 20/13/143 19/14/143 87/103/143
f 83/104/144 84/105/144 19/14/144
f 19/14/145 84/105/145 87/103/145
f 83/111/146 19/113/146 81/95/146
f 81/95/147 19/113/147 69/97/147
f 88/114/148 89/115/148 90/116/148
f 90/116/149 89/115/149 91/117/149
f 89/115/150 92/118/150 91/117/150
f 91/117/151 92/118/151 93/119/151
f 94/120/152 95/121/152 96/122/152
f 96/122/153 95/121/153 97/123/153
f 88/124/154 90/125/154 98/126/154
f 98/126/155 90/125/155 99/127/155
f 100/128/156 101/129/156 102/130/156
f 102/130/157 101/129/157 103/131/157
f 98/132/158 92/118/158 88/114/158
f 88/114/159 92/118/159 89/115/159
f 94/120/160 92/118/160 95/121/160
f 95/121/160 92/118/160 98/132/160
f 95/133/161 98/126/161 97/134/161
f 97/134/162 98/126/162 99/127/162
f 104/135/163 105/136/163 103/131/163
f 103/131/164 105/136/164 102/130/164
f 94/120/165 96/122/165 92/118/165
f 92/118/166 96/122/166 93/119/166
f 97/123/167 105/136/167 96/122/167
f 96/122/168 105/136/168 104/135/168
f 102/137/169 105/138/169 99/127/169
f 99/127/170 105/138/170 97/134/170
f 90/125/171 100/139/171 99/127/171
f 99/127/172 100/139/172 102/137/172
f 101/129/173 100/128/173 91/117/173
f 91/117/174 100/128/174 90/116/174
f 103/131/175 101/129/175 93/119/175
f 93/119/176 101/129/176 91/117/176
f 96/122/177 104/135/177 93/119/177
f 93/119/178 104/135/178 103/131/178
f 106/140/179 107/141/179 108/142/179
f 108/142/180 107/141/180 109/143/180
f 106/140/181 110/144/181 107/141/181
f 107/141/181 110/144/181 111/145/181
f 110/144/182 112/146/182 111/145/182
f 112/146/183 113/147/183 111/145/183
f 107/141/184 111/145/184 109/143/184
f 109/143/184 111/145/184 113/147/184
f 106/140/185 108/142/185 110/144/185
f 112/148/185 110/144/185 108/142/185
f 114/140/186 115/142/186 116/141/186
f 115/142/187 117/143/187 116/141/187
f 114/140/188 116/141/188 118/144/188
f 118/144/189 116/141/189 119/145/189
f 118/144/190 119/145/190 120/146/190
f 119/145/191 121/147/191 120/146/191
f 119/145/192 116/141/192 121/147/192
f 117/143/192 121/147/192 116/141/192
f 114/140/193 118/144/193 115/142/193
f 120/148/193 115/142/193 118/144/193
f 122/114/194 123/116/194 124/115/194
f 124/115/195 123/116/195 125/117/195
f 124/115/196 125/117/196 126/118/196
f 126/118/197 125/117/197 127/119/197
f 128/120/198 129/122/198 130/121/198
f 130/121/199 129/122/199 131/123/199
f 132/127/200 123/125/200 133/126/200
f 133/126/201 123/125/201 122/124/201
f 134/128/202 135/130/202 136/129/202
f 136/129/203 135/130/203 137/131/203
f 133/132/204 122/114/204 126/118/204
f 126/118/205 122/114/205 124/115/205
f 133/132/206 126/118/206 130/121/206
f 130/121/206 126/118/206 128/120/206
f 130/133/207 131/134/207 133/126/207
f 133/126/208 131/134/208 132/127/208
f 137/131/209 135/130/209 138/135/209
f 138/135/210 135/130/210 139/136/210
f 127/119/211 129/122/211 126/118/211
f 126/118/212 129/122/212 128/120/212
f 138/135/213 139/136/213 129/122/213
f 129/122/214 139/136/214 131/123/214
f 131/134/215 139/138/215 132/127/215
f 132/127/216 139/138/216 135/137/216
f 123/125/217 132/127/217 134/139/217
f 134/139/218 132/127/218 135/137/218
f 123/116/219 134/128/219 125/117/219
f 125/117/220 134/128/220 136/129/220
f 125/117/221 136/129/221 127/119/221
f 127/119/222 136/129/222 137/131/222
f 129/122/223 127/119/223 138/135/223
f 138/135/224 127/119/224 137/131/224
