# Blender v2.71 (sub 0) OBJ File: ''
# www.blender.org
mtllib LeftArm.mtl
o LeftArm.004
v 2.720955 -5.485354 2.716480
v 3.143029 -4.657212 3.009392
v 1.545226 -3.763805 1.844693
v 1.855827 -1.433019 2.306754
v 3.576015 -5.003123 2.506325
v 2.900998 -0.954170 1.212692
v 3.903323 -1.735836 -0.662287
v 4.209867 -5.059462 2.194049
v 3.294673 -4.514328 -0.847577
v 3.539139 -6.167814 1.828150
v 3.038011 -6.004512 2.132959
v 2.078871 -4.430661 0.529061
v 3.269523 -5.877831 3.237995
v 3.561408 -5.306870 3.440558
v 3.097511 -5.604754 3.554574
v 3.326499 -5.151586 3.713488
v -0.983609 -1.384923 3.061458
v -0.983609 0.808755 1.702632
v 0.000000 -1.405056 -0.000000
v 0.000000 1.405056 0.000000
v 0.480462 -1.544438 -1.733451
v 0.480462 0.688795 -1.733451
v 3.812228 -5.948886 2.592766
v 4.045341 -6.034459 2.435581
v 4.075185 -5.446711 2.775254
v 4.373169 -5.482553 2.614420
vt 0.782038 0.788969
vt 0.801107 0.803544
vt 0.763435 0.841391
vt 0.796036 0.890553
vt 0.817598 0.795302
vt 0.833983 0.899881
vt 0.887706 0.884972
vt 0.834540 0.791098
vt 0.909106 0.818248
vt 0.853560 0.763957
vt 0.766864 0.774804
vt 0.729892 0.822250
vt 0.963927 0.974180
vt 0.983559 0.976279
vt 0.968953 0.986029
vt 0.982454 0.986859
vt 0.730081 0.850676
vt 0.739587 0.865346
vt 0.720048 0.870026
vt 0.736861 0.879003
vt 0.713458 0.880345
vt 0.726827 0.887486
vt 0.917200 0.773734
vt 0.861423 0.751193
vt 0.921247 0.986051
vt 0.918793 0.978267
vt 0.937804 0.980913
vt 0.934322 0.972938
vt 0.807183 0.994857
vt 0.807703 0.919401
vt 0.849733 0.992939
vt 0.839751 0.912219
vt 0.770312 0.887374
vt 0.764867 0.962860
vt 0.753166 0.859824
vt 0.710900 0.923872
vt 0.936213 0.868672
vt 0.970479 0.885210
vt 0.925148 0.954596
vt 0.961864 0.961391
vt 0.888601 0.982959
vt 0.882773 0.893526
vt 0.955335 0.997662
vt 0.949623 0.965009
vt 0.997347 0.966718
vt 0.995767 0.997167
vt 0.906714 0.999202
vt 0.949927 0.988521
vt 0.899047 0.979903
vt 0.944181 0.961682
vn -0.584900 0.011200 0.811000
vn -0.614100 -0.073900 0.785800
vn 0.811000 0.413900 0.413400
vn 0.605200 0.332100 0.723500
vn 0.931800 -0.183200 -0.313200
vn 0.852000 -0.406900 -0.329300
vn -0.853700 -0.520800 -0.000500
vn -0.816000 -0.576800 -0.038600
vn 0.497500 -0.504600 0.705600
vn 0.495400 -0.499500 0.710600
vn -0.935900 -0.185500 -0.299500
vn -0.865900 0.000000 -0.500200
vn 0.877600 0.356400 0.320600
vn 0.439800 0.339000 0.831600
vn -0.963700 0.000000 -0.267100
vn -0.520200 -0.746900 -0.414100
vn -0.505700 -0.747400 -0.431000
vn 0.362400 -0.480100 0.798900
vn 0.371800 -0.478600 0.795500
vn 0.459400 0.721500 0.518100
vn 0.322000 0.715000 0.620600
vn 0.247100 -0.220000 0.943700
vn 0.228700 0.512600 0.827600
vn -0.819900 -0.570900 -0.043200
vn -0.723100 -0.652000 -0.228000
vn -0.570500 -0.678600 -0.462600
vn -0.797100 -0.578200 -0.174400
vn 0.298700 0.000000 -0.954400
vn 0.298600 -0.001800 -0.954400
vn 0.656900 0.743500 -0.125100
vn 0.583400 0.811800 -0.026600
vn -0.699000 -0.679000 0.224300
vn -0.694900 -0.686400 0.214500
vn 0.893000 -0.428300 -0.138000
vn 0.900600 -0.417300 -0.121600
vn 0.749800 0.625700 0.215200
vn 0.724200 0.638800 0.259800
vn -0.858000 0.286500 0.426300
vn -0.859300 0.285400 0.424300
vn -0.507500 -0.048100 0.860300
vn -0.506300 -0.047800 0.861000
vn -0.117500 -0.942800 0.311900
vn -0.131800 -0.939500 0.316100
vn 0.767600 -0.273200 -0.579700
vn 0.772000 -0.272500 -0.574200
vn 0.348800 0.740600 0.574300
vn 0.394800 0.719800 0.571000
usemtl lambert2SG.013
s off
f 1/1/1 2/2/1 3/3/1
f 3/3/2 2/2/2 4/4/2
f 2/2/3 5/5/3 4/4/3
f 4/4/4 5/5/4 6/6/4
f 7/7/5 8/8/5 9/9/5
f 9/9/6 8/8/6 10/10/6
f 11/11/7 1/1/7 12/12/7
f 12/12/8 1/1/8 3/3/8
f 13/13/9 14/14/9 15/15/9
f 15/15/10 14/14/10 16/16/10
f 17/17/11 18/18/11 19/19/11
f 19/19/12 18/18/12 20/20/12
f 7/7/13 6/6/13 8/8/13
f 8/8/14 6/6/14 5/5/14
f 21/21/15 19/19/15 22/22/15
f 22/22/15 19/19/15 20/20/15
f 9/9/16 10/10/16 12/23/16
f 12/23/17 10/10/17 11/24/17
f 23/25/18 24/26/18 25/27/18
f 25/27/19 24/26/19 26/28/19
f 18/29/20 4/30/20 20/31/20
f 20/31/21 4/30/21 6/32/21
f 3/33/22 4/30/22 17/34/22
f 17/34/23 4/30/23 18/29/23
f 12/35/24 3/33/24 19/36/24
f 19/36/25 3/33/25 17/34/25
f 9/37/26 12/38/26 21/39/26
f 21/39/27 12/38/27 19/40/27
f 22/41/28 7/42/28 21/39/28
f 21/39/29 7/42/29 9/37/29
f 20/31/30 6/32/30 22/41/30
f 22/41/31 6/32/31 7/42/31
f 13/13/32 1/43/32 11/44/32
f 1/43/33 13/13/33 15/15/33
f 11/44/34 5/45/34 13/13/34
f 13/13/35 5/45/35 14/14/35
f 5/45/36 2/46/36 14/14/36
f 14/14/37 2/46/37 16/16/37
f 1/43/38 15/15/38 2/46/38
f 2/46/39 15/15/39 16/16/39
f 11/47/40 23/25/40 5/48/40
f 5/48/41 23/25/41 25/27/41
f 11/47/42 10/49/42 23/25/42
f 23/25/43 10/49/43 24/26/43
f 10/49/44 8/50/44 24/26/44
f 24/26/45 8/50/45 26/28/45
f 5/48/46 25/27/46 8/50/46
f 8/50/47 25/27/47 26/28/47
