# Blender v2.71 (sub 0) OBJ File: ''
# www.blender.org
mtllib LeftLeg.mtl
o LeftLeg.006
v 2.884338 0.437203 -2.114431
v 4.153834 -3.290246 -2.117157
v 1.008445 -2.543133 -4.046494
v -2.259043 -0.346158 2.114431
v -3.892808 -2.494236 0.500498
v -2.259050 -2.542833 3.792711
v 1.694128 -3.320625 3.666991
v 4.153834 -3.290247 1.655509
v 2.884338 -0.073030 2.114431
v -2.259050 -2.543133 -4.132176
v -3.892808 -2.494236 -1.482716
v -2.259043 0.164072 -2.114431
v 1.673658 -7.306648 0.680915
v 3.407120 -5.866859 1.655508
v 1.008445 -6.012917 3.549743
v -2.259050 -6.012917 2.540241
v -3.310003 -5.648372 1.021069
v -2.750785 -6.576561 0.680915
v 1.008445 -5.405497 -3.915279
v 3.407120 -5.866858 -2.117157
v 0.917383 -7.329029 -2.381698
v -2.750785 -6.163516 -2.381698
v -3.310003 -5.648371 -1.482719
v -2.259050 -5.405497 -3.915279
v 1.484905 -8.111758 2.666042
v -0.075958 -8.074233 1.237414
v 1.484905 -8.344213 2.642254
v -0.075958 -8.306686 1.213627
v 1.709715 -8.322542 -2.005390
v -0.075958 -8.310568 -2.005390
v -0.535654 -7.055224 -1.804022
v -1.441193 -7.055224 -1.804022
v 1.709715 -8.322542 0.202144
v -0.075958 -8.310568 0.202144
v -1.311455 -7.410018 0.365156
v -2.067730 -7.055224 -1.804022
v -1.311455 -8.302282 0.202144
v -1.311455 -8.302282 -2.005390
v 0.585295 -7.410018 0.365156
v -1.311455 -8.323953 2.642254
v -1.311455 -8.091498 2.666042
v -0.535785 -7.410018 0.365156
v -0.625295 0.164072 -2.114431
v -0.625302 -2.543133 -4.130376
v -0.625295 -0.346158 2.114431
v -0.625302 -2.542821 3.272138
v -0.625302 -6.012917 3.549743
v -0.747787 -7.339971 0.680915
v -0.625302 -5.405497 -3.915279
v -0.679947 -7.019341 -2.381698
vt 0.747797 0.767312
vt 0.765993 0.723018
vt 0.724170 0.720179
vt 0.885749 0.728527
vt 0.889141 0.687246
vt 0.862723 0.705129
vt 0.829463 0.714550
vt 0.791445 0.722969
vt 0.812215 0.762562
vt 0.694687 0.708057
vt 0.654661 0.698490
vt 0.671726 0.747471
vt 0.790192 0.662922
vt 0.790368 0.692553
vt 0.818070 0.686156
vt 0.843775 0.674535
vt 0.860129 0.656133
vt 0.847068 0.645947
vt 0.735803 0.690045
vt 0.767466 0.693113
vt 0.752731 0.663891
vt 0.700818 0.653696
vt 0.682848 0.654143
vt 0.705170 0.675579
vt 0.984538 0.742105
vt 0.951453 0.718208
vt 0.989650 0.741714
vt 0.954235 0.714588
vt 0.956096 0.814537
vt 0.926144 0.836767
vt 0.972349 0.852197
vt 0.971354 0.878200
vt 0.954388 0.775504
vt 0.924230 0.748132
vt 0.990238 0.654366
vt 0.962156 0.580490
vt 0.960956 0.656685
vt 0.929813 0.606729
vt 0.998299 0.758199
vt 0.994726 0.704448
vt 0.962077 0.695114
vt 0.969319 0.588419
vt 0.947174 0.538394
vt 0.986600 0.575732
vt 0.953036 0.540448
vt 0.929138 0.730231
vt 0.943221 0.744475
vt 0.955117 0.773361
vt 0.995192 0.533593
vt 0.999374 0.562282
vt 0.893627 0.616502
vt 0.943081 0.572408
vt 0.935198 0.682663
vt 0.966319 0.497349
vt 0.992416 0.528826
vt 0.994457 0.504481
vt 0.693975 0.759711
vt 0.709081 0.715151
vt 0.997534 0.947654
vt 0.997473 0.927188
vt 0.972770 0.947498
vt 0.972709 0.927031
vt 0.972710 0.956996
vt 0.997474 0.957152
vt 0.865329 0.745356
vt 0.849132 0.715317
vt 0.830699 0.679411
vt 0.942649 0.707563
vt 0.915265 0.668798
vt 0.878239 0.632273
vt 0.815038 0.642693
vt 0.721351 0.681696
vt 0.872645 0.617179
vt 0.736073 0.652281
vt 0.810781 0.640827
vt 0.823206 0.638115
vt 0.854216 0.615206
vt 0.718140 0.643841
vt 0.727244 0.644998
vt 0.742929 0.647370
vt 0.795158 0.650604
vn 0.545500 0.186400 -0.817100
vn -0.845500 0.324200 0.424300
vn 0.626000 0.137500 0.767600
vn -0.788600 0.367500 -0.493100
vn 0.405500 -0.794400 0.452300
vn -0.730900 -0.575100 0.367600
vn 0.414700 -0.579200 -0.701800
vn -0.879900 -0.248500 -0.405000
vn -0.674200 -0.075200 0.734700
vn 0.001100 0.158800 -0.987300
vn 0.000000 0.158400 -0.987400
vn -0.006700 -1.000000 0.000000
vn -0.945600 -0.058500 0.320100
vn -0.855100 -0.518500 0.000000
vn 0.481500 0.870000 -0.106500
vn 0.630100 0.776500 0.000000
vn -0.014700 -0.999800 -0.010200
vn -0.006700 -1.000000 0.003800
vn -1.000000 0.000000 0.000000
vn 0.000000 0.795600 0.605800
vn -0.339500 0.854400 0.393300
vn 0.629300 0.777100 -0.009100
vn 0.995700 -0.009400 0.091700
vn 0.300400 0.914500 0.270900
vn 0.001100 0.159500 -0.987200
vn 0.000000 0.159400 -0.987200
vn 0.003700 -1.000000 -0.008900
vn 0.755100 -0.066700 0.652200
vn 0.946600 0.322400 0.000000
vn 0.931400 0.361300 0.043600
vn -0.043800 0.562700 -0.825500
vn 0.041100 0.596700 -0.801400
vn -0.077000 0.989800 0.119400
vn 0.000000 0.992800 0.119800
vn 0.624000 -0.180800 0.760300
vn 0.615600 -0.190100 0.764800
vn -0.034300 0.441300 0.896700
vn 0.005700 0.466200 0.884600
vn 0.000000 0.466200 0.884700
vn 0.245400 0.588500 0.770300
vn -0.828100 -0.190300 0.527200
vn -0.892500 -0.092000 0.441500
vn 0.302700 0.076000 0.950000
vn -0.502500 -0.293500 0.813200
vn -0.141500 0.078900 0.986800
vn 0.000000 -0.043500 0.999100
vn 0.000900 0.597600 -0.801800
vn 0.000000 0.597300 -0.802100
vn -0.818300 0.570600 0.068900
vn -0.852000 0.523600 0.000000
vn -0.983400 -0.181700 -0.000000
vn 0.960500 -0.278400 -0.000000
vn 0.000000 -0.907600 0.419800
vn 0.012500 -0.910400 0.413500
vn -0.256300 -0.873100 0.414800
vn -0.333200 -0.874200 0.353100
vn -0.850800 -0.039700 -0.523900
vn -0.899100 -0.166100 -0.405000
vn 0.571000 -0.165500 -0.804100
vn 0.515700 -0.039200 -0.855900
vn 0.000000 -0.045800 -0.999000
vn 0.051100 -0.074800 -0.995900
vn 0.000000 -0.074900 -0.997200
vn 0.001100 -0.075600 -0.997100
vn 0.512200 -0.850400 -0.120300
vn 0.638900 -0.769300 -0.000000
vn -0.856600 -0.516100 -0.000000
vn -0.748200 -0.657500 -0.088700
vn 0.000000 -0.688900 -0.724900
vn -0.119300 -0.615500 -0.779100
vn -0.330500 -0.799700 -0.501200
vn 0.000000 -0.976300 0.216600
vn -0.272300 -0.714400 0.644600
vn -0.495800 -0.867900 0.030900
vn -0.763100 -0.640500 -0.086400
vn -0.273500 -0.661700 -0.698100
vn 0.000000 -0.998100 -0.062000
vn -0.190300 -0.981600 -0.013400
vn -0.205500 -0.977200 -0.053700
vn 0.099500 -0.994900 -0.017300
vn 0.013300 -0.962900 0.269500
usemtl lambert2SG.014
s off
f 1/1/1 2/2/1 3/3/1
f 4/4/2 5/5/2 6/6/2
f 7/7/3 8/8/3 9/9/3
f 10/10/4 11/11/4 12/12/4
f 13/13/5 14/14/5 15/15/5
f 16/16/6 17/17/6 18/18/6
f 19/19/7 20/20/7 21/21/7
f 22/22/8 23/23/8 24/24/8
f 25/25/9 26/26/9 27/27/9
f 27/27/9 26/26/9 28/28/9
f 29/29/10 30/30/10 31/31/10
f 31/31/11 30/30/11 32/32/11
f 29/29/12 33/33/12 30/30/12
f 30/30/12 33/33/12 34/34/12
f 35/35/13 36/36/13 37/37/13
f 37/37/14 36/36/14 38/38/14
f 31/31/15 39/39/15 29/29/15
f 29/29/16 39/39/16 33/33/16
f 27/27/17 28/28/17 33/40/17
f 33/40/18 28/28/18 34/41/18
f 37/42/19 40/43/19 35/44/19
f 35/44/19 40/43/19 41/45/19
f 42/46/20 26/26/20 39/47/20
f 26/26/21 25/25/21 39/47/21
f 39/47/22 25/25/22 33/48/22
f 33/48/23 25/25/23 27/27/23
f 41/45/24 26/49/24 35/44/24
f 35/44/20 26/49/20 42/50/20
f 30/51/25 38/38/25 32/52/25
f 32/52/26 38/38/26 36/36/26
f 34/53/12 37/37/12 30/51/12
f 30/51/12 37/37/12 38/38/12
f 40/43/27 37/54/27 28/55/27
f 28/55/18 37/54/18 34/56/18
f 41/45/28 40/43/28 26/49/28
f 26/49/28 40/43/28 28/55/28
f 2/2/29 1/1/29 8/8/29
f 8/8/30 1/1/30 9/9/30
f 1/1/31 3/3/31 43/57/31
f 43/57/32 3/3/32 44/58/32
f 45/59/33 9/60/33 43/61/33
f 9/60/33 1/62/33 43/61/33
f 43/61/34 12/63/34 45/59/34
f 45/59/34 12/63/34 4/64/34
f 8/8/35 7/7/35 14/14/35
f 14/14/36 7/7/36 15/15/36
f 9/9/37 45/65/37 7/7/37
f 7/7/38 45/65/38 46/66/38
f 45/65/39 4/4/39 46/66/39
f 46/66/40 4/4/40 6/6/40
f 16/16/41 6/6/41 17/17/41
f 17/17/42 6/6/42 5/5/42
f 46/66/43 6/6/43 47/67/43
f 47/67/44 6/6/44 16/16/44
f 46/66/45 47/67/45 7/7/45
f 7/7/46 47/67/46 15/15/46
f 10/10/47 12/12/47 44/58/47
f 44/58/48 12/12/48 43/57/48
f 4/4/49 12/68/49 5/5/49
f 5/5/50 12/68/50 11/69/50
f 17/17/51 5/5/51 23/70/51
f 23/70/51 5/5/51 11/69/51
f 14/14/52 20/20/52 8/8/52
f 8/8/52 20/20/52 2/2/52
f 47/67/53 48/71/53 15/15/53
f 15/15/54 48/71/54 13/13/54
f 47/67/55 16/16/55 48/71/55
f 48/71/56 16/16/56 18/18/56
f 10/10/57 24/24/57 11/11/57
f 11/11/58 24/24/58 23/23/58
f 20/20/59 19/19/59 2/2/59
f 2/2/60 19/19/60 3/3/60
f 19/19/61 49/72/61 3/3/61
f 3/3/62 49/72/62 44/58/62
f 49/72/63 24/24/63 44/58/63
f 44/58/64 24/24/64 10/10/64
f 21/21/65 20/20/65 13/13/65
f 13/13/66 20/20/66 14/14/66
f 17/17/67 23/70/67 18/18/67
f 18/18/68 23/70/68 22/73/68
f 49/72/69 19/19/69 50/74/69
f 50/74/70 19/19/70 21/21/70
f 22/22/71 24/24/71 50/74/71
f 50/74/69 24/24/69 49/72/69
f 42/75/72 48/71/72 35/76/72
f 35/76/73 48/71/73 18/18/73
f 35/76/74 18/18/74 36/77/74
f 36/77/75 18/18/75 22/73/75
f 22/22/76 50/74/76 36/78/76
f 36/78/77 50/74/77 32/79/77
f 32/79/77 50/74/77 31/80/77
f 31/80/78 50/74/78 21/21/78
f 31/80/79 21/21/79 39/81/79
f 39/81/80 21/21/80 13/13/80
f 13/13/81 48/71/81 39/81/81
f 39/81/72 48/71/72 42/75/72
