# Blender v2.71 (sub 0) OBJ File: ''
# www.blender.org
mtllib Tail.mtl
o Tail.003
v -0.763602 9.819122 -5.362831
v -0.763602 9.292957 -6.522069
v -1.527207 8.989151 -5.652949
v 0.763600 9.432967 -4.258126
v 0.763600 8.299192 -3.679121
v 1.527206 8.602998 -4.548244
v -0.763602 9.432967 -4.258126
v -1.527207 8.602998 -4.548244
v -0.763602 8.299192 -3.679121
v 0.763600 9.292957 -6.522069
v 0.763600 9.819122 -5.362831
v 1.527206 8.989151 -5.652949
v -0.860459 6.919972 -5.057932
v -0.763602 7.314999 -4.023151
v -1.527207 7.618806 -4.892273
v 0.763600 7.314999 -4.023151
v 0.860458 6.919972 -5.057932
v 1.527206 7.618806 -4.892273
v -0.763602 8.308765 -6.866096
v -0.860459 7.355107 -6.302761
v -1.527207 8.004960 -5.996979
v 0.860458 7.355107 -6.302761
v 0.763600 8.308765 -6.866096
v 1.527206 8.004960 -5.996979
v -0.659441 0.581241 -0.145339
v -0.659441 -0.581241 0.145339
v 0.659441 0.581241 -0.145339
v 0.659441 -0.581241 0.145339
v -0.365477 -0.047099 -2.454520
v 0.365477 -0.047099 -2.454520
v -0.365477 -0.904907 -2.284956
v 0.365477 -0.904907 -2.284956
v -0.365477 -0.100104 -4.281580
v 0.365477 -0.100104 -4.281580
v 0.365477 -0.851899 -4.728111
v -0.365477 -0.851899 -4.728111
v -0.365477 1.023759 -5.778028
v 0.365477 1.023759 -5.778028
v 0.365477 0.701327 -6.590816
v -0.365477 0.701327 -6.590816
v -0.365477 4.491024 -6.451785
v 0.365477 4.491024 -6.451785
v 0.365477 4.740666 -6.826414
v -0.365477 4.740666 -6.826414
v -0.365477 6.837932 -5.599049
v 0.365477 6.837932 -5.599049
v 0.365477 6.971128 -5.908379
v -0.365477 6.971128 -5.908379
vt 0.264046 0.404160
vt 0.257316 0.440814
vt 0.242693 0.418872
vt 0.179287 0.351099
vt 0.179146 0.381520
vt 0.156609 0.372269
vt 0.231826 0.376201
vt 0.223523 0.404548
vt 0.205878 0.391751
vt 0.104304 0.360947
vt 0.141801 0.339793
vt 0.130218 0.367794
vt 0.185832 0.441987
vt 0.191676 0.415507
vt 0.206798 0.426259
vt 0.169703 0.404769
vt 0.154188 0.425334
vt 0.148181 0.399505
vt 0.236374 0.458714
vt 0.205689 0.459050
vt 0.222945 0.439521
vt 0.124942 0.425935
vt 0.098718 0.394692
vt 0.123930 0.397504
vt 0.280064 0.466473
vt 0.299387 0.434112
vt 0.264594 0.436265
vt 0.273289 0.421004
vt 0.279855 0.444961
vt 0.288551 0.429699
vt 0.251948 0.487937
vt 0.214476 0.494264
vt 0.046668 0.432354
vt 0.061972 0.432354
vt 0.046668 0.449199
vt 0.061972 0.449199
vt 0.076921 0.108934
vt 0.104214 0.030747
vt 0.099447 0.117330
vt 0.142658 0.048779
vt 0.067348 0.016837
vt 0.050146 0.098244
vt 0.023832 0.011146
vt 0.025690 0.093913
vt 0.175724 0.069946
vt 0.126113 0.127986
vt 0.060850 0.171851
vt 0.082735 0.176078
vt 0.108580 0.186865
vt 0.033906 0.173090
vt 0.009301 0.169744
vt 0.055838 0.239598
vt 0.078631 0.241047
vt 0.107298 0.244140
vt 0.028086 0.242292
vt 0.003576 0.242968
vt 0.053494 0.361997
vt 0.077577 0.362117
vt 0.090003 0.369564
vt 0.040878 0.369597
vt 0.016560 0.371272
vt 0.054189 0.448900
vt 0.077968 0.448752
vt 0.089068 0.449606
vt 0.043083 0.449700
vt 0.018827 0.450960
vt 0.186341 0.461953
vt 0.178089 0.454426
vt 0.194985 0.481061
vt 0.144876 0.440976
vt 0.154102 0.443576
vn -0.639900 0.699800 -0.317600
vn 0.639900 0.349500 0.684400
vn -0.639900 0.349500 0.684400
vn 0.639900 0.699800 -0.317600
vn -0.644700 -0.692100 0.324500
vn 0.644700 -0.692100 0.324500
vn -0.644700 -0.339200 -0.685000
vn 0.644700 -0.339200 -0.685000
vn -0.755000 0.619000 0.216400
vn 0.000000 0.910600 -0.413300
vn 0.000000 0.944000 0.330000
vn -0.769700 -0.210700 0.602600
vn 0.000000 0.454800 0.890600
vn 0.769700 -0.210700 0.602600
vn 0.000000 -0.330000 0.944000
vn 0.755000 0.619000 0.216400
vn 1.000000 0.000000 0.000000
vn -1.000000 0.000000 0.000000
vn 0.000000 -0.934200 0.356600
vn 0.769700 0.210700 -0.602600
vn -0.769700 0.210700 -0.602600
vn 0.000000 0.330000 -0.944000
vn -0.731000 -0.644100 -0.225200
vn 0.731000 -0.644100 -0.225200
vn 0.000000 -0.508600 -0.861000
vn 0.000000 0.242600 0.970100
vn 0.000000 0.964900 -0.262600
vn 0.000000 -0.991200 0.132000
vn 0.992800 -0.029100 -0.116200
vn 0.992500 -0.023700 -0.119900
vn -0.992800 -0.029100 -0.116200
vn -0.992500 -0.023700 -0.119900
vn 0.000000 0.999600 -0.029000
vn 0.000000 -0.999800 -0.021700
vn 0.000000 0.799600 0.600500
vn 0.000000 -0.768000 -0.640400
vn 0.000000 0.190800 0.981600
vn 0.000000 -0.058200 -0.998300
vn 0.000000 -0.341500 0.939900
vn 0.000000 0.380600 -0.924700
vn -0.424900 -0.854500 -0.298700
vn -0.504700 -0.792900 -0.341400
vn 0.000000 -0.716500 -0.697600
vn 0.424900 -0.854500 -0.298700
vn 0.504700 -0.792900 -0.341400
vn 0.000000 -0.988700 0.149900
usemtl lambert2SG.017
s off
f 1/1/1 2/2/1 3/3/1
f 4/4/2 5/5/2 6/6/2
f 7/7/3 8/8/3 9/9/3
f 10/10/4 11/11/4 12/12/4
f 13/13/5 14/14/5 15/15/5
f 16/16/6 17/17/6 18/18/6
f 19/19/7 20/20/7 21/21/7
f 22/22/8 23/23/8 24/24/8
f 8/8/9 7/7/9 3/3/9
f 7/7/9 1/1/9 3/3/9
f 2/2/10 1/1/10 10/25/10
f 10/25/10 1/1/10 11/26/10
f 1/27/11 7/28/11 11/29/11
f 11/29/11 7/28/11 4/30/11
f 14/14/12 8/8/12 15/15/12
f 8/8/12 14/14/12 9/9/12
f 7/7/13 9/9/13 4/4/13
f 4/4/13 9/9/13 5/5/13
f 18/18/14 6/6/14 16/16/14
f 16/16/14 6/6/14 5/5/14
f 16/16/15 5/5/15 14/14/15
f 14/14/15 5/5/15 9/9/15
f 4/4/16 6/6/16 11/11/16
f 11/11/16 6/6/16 12/12/16
f 24/24/17 12/12/17 18/18/17
f 18/18/17 12/12/17 6/6/17
f 15/15/18 8/8/18 21/21/18
f 21/21/18 8/8/18 3/3/18
f 16/16/19 14/14/19 17/17/19
f 17/17/19 14/14/19 13/13/19
f 10/10/20 12/12/20 23/23/20
f 23/23/20 12/12/20 24/24/20
f 21/21/21 3/3/21 19/19/21
f 19/19/21 3/3/21 2/2/21
f 19/19/22 2/2/22 23/31/22
f 23/31/22 2/2/22 10/25/22
f 20/20/23 13/13/23 21/21/23
f 21/21/23 13/13/23 15/15/23
f 17/17/24 22/22/24 18/18/24
f 18/18/24 22/22/24 24/24/24
f 20/20/25 19/19/25 22/32/25
f 22/32/25 19/19/25 23/31/25
f 25/33/26 26/34/26 27/35/26
f 27/35/26 26/34/26 28/36/26
f 29/37/27 25/38/27 30/39/27
f 30/39/27 25/38/27 27/40/27
f 26/41/28 31/42/28 28/43/28
f 28/43/28 31/42/28 32/44/28
f 28/45/29 32/46/29 27/40/29
f 27/40/30 32/46/30 30/39/30
f 26/41/31 25/38/31 31/42/31
f 31/42/32 25/38/32 29/37/32
f 33/47/33 29/37/33 34/48/33
f 34/48/33 29/37/33 30/39/33
f 30/39/17 32/46/17 34/48/17
f 34/48/17 32/46/17 35/49/17
f 31/42/34 36/50/34 32/44/34
f 32/44/34 36/50/34 35/51/34
f 29/37/18 33/47/18 31/42/18
f 31/42/18 33/47/18 36/50/18
f 37/52/35 33/47/35 38/53/35
f 38/53/35 33/47/35 34/48/35
f 34/48/17 35/49/17 38/53/17
f 38/53/17 35/49/17 39/54/17
f 36/50/36 40/55/36 35/51/36
f 35/51/36 40/55/36 39/56/36
f 33/47/18 37/52/18 36/50/18
f 36/50/18 37/52/18 40/55/18
f 41/57/37 37/52/37 42/58/37
f 42/58/37 37/52/37 38/53/37
f 38/53/17 39/54/17 42/58/17
f 42/58/17 39/54/17 43/59/17
f 40/55/38 44/60/38 39/56/38
f 39/56/38 44/60/38 43/61/38
f 37/52/18 41/57/18 40/55/18
f 40/55/18 41/57/18 44/60/18
f 45/62/39 41/57/39 46/63/39
f 46/63/39 41/57/39 42/58/39
f 42/58/17 43/59/17 46/63/17
f 46/63/17 43/59/17 47/64/17
f 44/60/40 48/65/40 43/61/40
f 43/61/40 48/65/40 47/66/40
f 41/57/18 45/62/18 44/60/18
f 44/60/18 45/62/18 48/65/18
f 20/20/41 48/67/41 13/13/41
f 13/13/42 48/67/42 45/68/42
f 48/67/43 20/20/43 47/69/43
f 47/69/43 20/20/43 22/32/43
f 22/22/44 17/17/44 47/70/44
f 47/70/45 17/17/45 46/71/45
f 45/68/46 46/71/46 13/13/46
f 13/13/46 46/71/46 17/17/46
