# This file uses centimeters as units for non-parametric coordinates.

mtllib TepigTail.mtl
g default
v -1.139133 0.737645 -2.782801
v -1.139133 0.466818 -3.612604
v -1.139133 1.476925 -3.024083
v -1.139133 1.206099 -3.853887
v -0.569565 0.950718 -2.129954
v -0.569565 1.689997 -2.371236
v -0.569565 0.253746 -4.265448
v -0.569565 0.993026 -4.506731
v -0.569565 0.114208 -2.579326
v -0.569565 -0.156618 -3.409131
v -0.569565 2.100361 -3.227557
v -0.569565 1.829535 -4.057361
v 0.000000 0.950718 -2.129954
v 0.000000 1.689997 -2.371236
v 0.000000 0.253746 -4.265448
v 0.000000 0.993026 -4.506731
v 0.000000 0.114208 -2.579326
v 0.000000 -0.156618 -3.409131
v 0.000000 2.100361 -3.227557
v 0.000000 1.829535 -4.057361
v 1.139132 0.737645 -2.782801
v 1.139132 0.466818 -3.612604
v 1.139132 1.476925 -3.024083
v 1.139132 1.206099 -3.853887
v 0.569564 0.950718 -2.129954
v 0.569564 1.689997 -2.371236
v 0.569564 0.253746 -4.265448
v 0.569564 0.993026 -4.506731
v 0.569564 0.114208 -2.579326
v 0.569564 -0.156618 -3.409131
v 0.569564 2.100361 -3.227557
v 0.569564 1.829535 -4.057361
v -0.150706 -0.121112 0.060379
v 0.150706 -0.121112 0.060379
v -0.150706 0.179322 0.084669
v 0.150706 0.179322 0.084669
v -0.150706 0.191469 -0.065547
v 0.150706 0.191469 -0.065547
v -0.150706 0.316311 -0.915344
v 0.150706 0.316311 -0.915344
v -0.150706 0.090362 -1.114836
v 0.150706 0.090362 -1.114836
v -0.150706 -0.108964 -0.089838
v 0.150706 -0.108964 -0.089838
v -0.150706 0.486469 -1.135909
v 0.150706 0.486469 -1.135909
v -0.150706 0.383745 -1.419274
v 0.150706 0.383745 -1.419274
v -0.150706 0.848761 -1.154657
v 0.150706 0.848761 -1.154657
v -0.150706 0.940361 -1.441808
v 0.150706 0.940361 -1.441808
v -0.274106 1.017402 -0.831509
v 0.027305 1.017402 -0.831509
v -0.274106 1.318141 -0.811391
v 0.027305 1.318141 -0.811391
v -0.396856 0.796728 -0.551104
v -0.095445 0.796728 -0.551104
v -0.396856 0.858465 -0.256087
v -0.095445 0.858465 -0.256087
v -0.480618 0.419527 -0.591667
v -0.179206 0.419527 -0.591667
v -0.480618 0.271216 -0.329273
v -0.179206 0.271216 -0.329273
v -0.470845 0.224186 -1.187659
v -0.169434 0.224186 -1.187659
v -0.470845 -0.062426 -1.094378
v -0.169434 -0.062426 -1.094378
v -0.412919 0.253735 -1.804311
v -0.111508 0.253735 -1.804312
v -0.412919 -0.042880 -1.857852
v -0.111508 -0.042880 -1.857852
v -0.412919 0.537439 -2.413571
v -0.111508 0.537440 -2.413571
v -0.412919 0.306200 -2.606898
v -0.111508 0.306200 -2.606898
vt 0.432043 0.532119
vt 0.404510 0.490878
vt 0.467164 0.523385
vt 0.463092 0.482282
vt 0.504999 0.514719
vt 0.488366 0.463065
vt 0.529597 0.504574
vt 0.600746 0.599963
vt 0.600101 0.626554
vt 0.559994 0.598974
vt 0.559348 0.625565
vt 0.601392 0.573371
vt 0.560639 0.572382
vt 0.331017 0.502751
vt 0.351890 0.547744
vt 0.318205 0.547302
vt 0.440008 0.575238
vt 0.406727 0.579090
vt 0.398850 0.537186
vt 0.367109 0.493470
vt 0.375306 0.541141
vt 0.324682 0.594092
vt 0.358418 0.589455
vt 0.383022 0.586106
vt 0.243026 0.558120
vt 0.271433 0.509098
vt 0.282944 0.553550
vt 0.215134 0.555106
vt 0.240079 0.503502
vt 0.287308 0.594928
vt 0.429172 0.623610
vt 0.476756 0.568225
vt 0.350029 0.632314
vt 0.389871 0.632115
vt 0.247796 0.599542
vt 0.514032 0.554325
vt 0.542009 0.553170
vt 0.221588 0.605621
vt 0.490637 0.607032
vt 0.287342 0.638116
vt 0.601574 0.541562
vt 0.600929 0.568154
vt 0.560822 0.540573
vt 0.560176 0.567165
vt 0.602220 0.514971
vt 0.561467 0.513982
vt 0.523065 0.607307
vt 0.257035 0.651995
vt 0.650796 0.535973
vt 0.644356 0.529732
vt 0.662262 0.522461
vt 0.655307 0.516705
vt 0.692358 0.571387
vt 0.700931 0.557302
vt 0.637465 0.547280
vt 0.681444 0.583808
vt 0.624215 0.559413
vt 0.668891 0.596851
vt 0.618275 0.552817
vt 0.631190 0.540960
vt 0.709852 0.542943
vt 0.672312 0.508010
vt 0.665382 0.502479
vt 0.706875 0.581871
vt 0.716060 0.566169
vt 0.726644 0.550663
vt 0.698189 0.597333
vt 0.687193 0.612363
vt 0.727889 0.593554
vt 0.734653 0.577129
vt 0.747606 0.563332
vt 0.722063 0.610916
vt 0.714150 0.628160
vt 0.751251 0.605031
vt 0.752978 0.590481
vt 0.770594 0.585438
vt 0.757436 0.621321
vt 0.755069 0.639565
vt 0.787306 0.553744
vt 0.795764 0.570999
vt 0.777434 0.565050
vt 0.789228 0.581915
vt 0.786211 0.596168
vt 0.767059 0.574904
vt 0.799926 0.547038
vt 0.810136 0.575905
vt 0.814603 0.542373
vt 0.824994 0.576664
vt 0.774589 0.537687
vt 0.765541 0.548420
vt 0.752778 0.557834
vt 0.785934 0.527550
vt 0.798742 0.517937
vt 0.750260 0.515076
vt 0.740924 0.524793
vt 0.733673 0.537057
vt 0.760391 0.505040
vt 0.768867 0.492554
vt 0.724426 0.495136
vt 0.715236 0.506173
vt 0.706709 0.517547
vt 0.732604 0.483614
vt 0.740420 0.470899
vt 0.688408 0.486296
vt 0.697152 0.475154
vt 0.676001 0.494515
vt 0.700646 0.460832
vt 0.708363 0.448259
vn -0.755000 0.623365 -0.203449
vn -0.755000 0.623365 -0.203449
vn -0.755000 0.623364 -0.203449
vn -0.755001 0.623363 -0.203450
vn -0.755001 0.623363 -0.203450
vn -0.755001 0.623363 -0.203450
vn -0.639897 0.363663 -0.676964
vn -0.639897 0.363663 -0.676964
vn -0.639897 0.363663 -0.676964
vn 0.000000 0.473236 -0.880936
vn 0.000000 0.473236 -0.880936
vn 0.000000 0.473236 -0.880936
vn 0.000000 0.473236 -0.880936
vn 0.000000 0.473236 -0.880936
vn 0.000000 0.473236 -0.880936
vn 0.000000 0.950650 -0.310267
vn 0.000000 0.950650 -0.310267
vn 0.000000 0.950650 -0.310267
vn 0.000000 0.950650 -0.310267
vn 0.000000 0.950650 -0.310267
vn 0.000000 0.950650 -0.310267
vn 0.000000 0.950649 -0.310267
vn 0.000000 0.950649 -0.310267
vn 0.000000 0.950649 -0.310267
vn 0.000000 0.950650 -0.310266
vn 0.000000 0.950650 -0.310266
vn 0.000000 0.950650 -0.310266
vn 0.639898 0.692996 0.332096
vn 0.639898 0.692996 0.332096
vn 0.639898 0.692996 0.332096
vn -0.769716 0.198071 0.606882
vn -0.769716 0.198071 0.606882
vn -0.769716 0.198071 0.606882
vn -0.769715 0.198071 0.606883
vn -0.769715 0.198071 0.606883
vn -0.769715 0.198071 0.606883
vn -0.639898 0.692996 0.332096
vn -0.639898 0.692996 0.332096
vn -0.639898 0.692996 0.332096
vn 0.000000 0.901798 0.432158
vn 0.000000 0.901798 0.432158
vn 0.000000 0.901798 0.432158
vn 0.000000 0.901798 0.432157
vn 0.000000 0.901798 0.432157
vn 0.000000 0.901798 0.432157
vn 0.000000 0.901798 0.432158
vn 0.000000 0.901798 0.432158
vn 0.000000 0.901798 0.432158
vn 0.000000 0.901798 0.432157
vn 0.000000 0.901798 0.432157
vn 0.000000 0.901798 0.432157
vn 0.769716 0.198071 0.606882
vn 0.769716 0.198071 0.606882
vn 0.769716 0.198071 0.606882
vn 0.769715 0.198071 0.606883
vn 0.769715 0.198071 0.606883
vn 0.769715 0.198071 0.606883
vn 0.000000 0.310268 0.950649
vn 0.000000 0.310268 0.950649
vn 0.000000 0.310268 0.950649
vn 0.000000 0.310268 0.950649
vn 0.000000 0.310268 0.950649
vn 0.000000 0.310268 0.950649
vn 0.000000 0.310268 0.950649
vn 0.000000 0.310268 0.950649
vn 0.000000 0.310268 0.950649
vn 0.000000 0.310268 0.950649
vn 0.000000 0.310268 0.950649
vn 0.000000 0.310268 0.950649
vn 0.639898 0.363663 -0.676964
vn 0.639898 0.363663 -0.676964
vn 0.639898 0.363663 -0.676964
vn 0.000000 0.473236 -0.880936
vn 0.000000 0.473236 -0.880936
vn 0.000000 0.473236 -0.880936
vn 0.000000 0.473236 -0.880936
vn 0.000000 0.473236 -0.880936
vn 0.000000 0.473236 -0.880936
vn 0.755000 0.623364 -0.203449
vn 0.755000 0.623364 -0.203449
vn 0.755000 0.623364 -0.203449
vn 0.755000 0.623364 -0.203450
vn 0.755000 0.623364 -0.203450
vn 0.755000 0.623364 -0.203450
vn 1.000000 0.000000 0.000000
vn 1.000000 0.000000 0.000000
vn 1.000000 0.000000 0.000000
vn 1.000000 0.000000 0.000000
vn 1.000000 0.000000 0.000000
vn 1.000000 0.000000 0.000000
vn -0.639899 -0.363663 0.676963
vn -0.639899 -0.363663 0.676963
vn -0.639899 -0.363663 0.676963
vn -1.000000 0.000000 0.000000
vn -1.000000 0.000000 0.000000
vn -1.000000 0.000000 0.000000
vn -1.000000 0.000000 0.000000
vn -1.000000 0.000000 0.000000
vn -1.000000 0.000000 0.000000
vn 0.639899 -0.363664 0.676962
vn 0.639899 -0.363664 0.676962
vn 0.639899 -0.363664 0.676962
vn 0.000000 -0.473237 0.880935
vn 0.000000 -0.473237 0.880935
vn 0.000000 -0.473237 0.880935
vn 0.000000 -0.473238 0.880935
vn 0.000000 -0.473238 0.880935
vn 0.000000 -0.473237 0.880935
vn 0.000000 -0.473237 0.880935
vn 0.000000 -0.473237 0.880935
vn 0.000000 -0.473237 0.880935
vn 0.000000 -0.473238 0.880935
vn 0.000000 -0.473238 0.880935
vn 0.000000 -0.473238 0.880935
vn 0.769714 -0.198072 -0.606883
vn 0.769714 -0.198072 -0.606883
vn 0.769714 -0.198072 -0.606883
vn 0.769713 -0.198072 -0.606885
vn 0.769713 -0.198072 -0.606885
vn 0.769713 -0.198072 -0.606885
vn -0.769714 -0.198072 -0.606884
vn -0.769714 -0.198072 -0.606884
vn -0.769714 -0.198072 -0.606884
vn -0.769714 -0.198072 -0.606883
vn -0.769714 -0.198072 -0.606884
vn -0.769714 -0.198072 -0.606883
vn 0.000000 -0.310268 -0.950649
vn 0.000000 -0.310268 -0.950649
vn 0.000000 -0.310268 -0.950649
vn 0.000000 -0.310269 -0.950649
vn 0.000000 -0.310269 -0.950649
vn 0.000000 -0.310269 -0.950649
vn 0.000000 -0.310269 -0.950649
vn 0.000000 -0.310269 -0.950649
vn 0.000000 -0.310269 -0.950649
vn 0.000000 -0.310269 -0.950649
vn 0.000000 -0.310269 -0.950649
vn 0.000000 -0.310269 -0.950649
vn -0.755001 -0.623364 0.203449
vn -0.755001 -0.623364 0.203449
vn -0.755001 -0.623364 0.203449
vn -0.755001 -0.623363 0.203450
vn -0.755001 -0.623363 0.203450
vn -0.755001 -0.623363 0.203450
vn 0.755002 -0.623363 0.203448
vn 0.755002 -0.623363 0.203448
vn 0.755002 -0.623363 0.203448
vn 0.755000 -0.623364 0.203451
vn 0.755000 -0.623364 0.203451
vn 0.755000 -0.623364 0.203451
vn 0.000000 -0.950650 0.310266
vn 0.000000 -0.950650 0.310266
vn 0.000000 -0.950650 0.310266
vn 0.000000 -0.950650 0.310266
vn 0.000000 -0.950650 0.310266
vn 0.000000 -0.950650 0.310266
vn 0.000000 -0.950649 0.310267
vn 0.000000 -0.950649 0.310267
vn 0.000000 -0.950649 0.310267
vn 0.000000 -0.950650 0.310265
vn 0.000000 -0.950650 0.310265
vn 0.000000 -0.950650 0.310265
vn -0.639898 -0.692995 -0.332097
vn -0.639898 -0.692995 -0.332097
vn -0.639898 -0.692995 -0.332097
vn 0.639898 -0.692996 -0.332097
vn 0.639898 -0.692996 -0.332097
vn 0.639898 -0.692996 -0.332097
vn 0.000000 -0.901798 -0.432159
vn 0.000000 -0.901797 -0.432159
vn 0.000000 -0.901797 -0.432159
vn 0.000000 -0.901797 -0.432159
vn 0.000000 -0.901797 -0.432159
vn 0.000000 -0.901798 -0.432159
vn 0.000000 -0.901798 -0.432159
vn 0.000000 -0.901798 -0.432159
vn 0.000000 -0.901798 -0.432159
vn 0.000000 -0.901797 -0.432160
vn 0.000000 -0.901797 -0.432160
vn 0.000000 -0.901797 -0.432160
vn 0.000000 0.996747 0.080598
vn 0.000000 0.996747 0.080598
vn 0.000000 0.996747 0.080598
vn 0.000000 0.996747 0.080598
vn 0.000000 0.996747 0.080598
vn 0.000000 0.996747 0.080598
vn 0.000000 0.989380 0.145349
vn 0.000000 0.989380 0.145349
vn 0.000000 0.989381 0.145349
vn 0.000000 0.989381 0.145348
vn 0.000000 0.989381 0.145348
vn 0.000000 0.989381 0.145348
vn 0.000000 -0.981612 -0.190889
vn 0.000000 -0.981612 -0.190889
vn 0.000000 -0.981612 -0.190889
vn 0.000000 -0.981612 -0.190888
vn 0.000000 -0.981612 -0.190888
vn 0.000000 -0.981612 -0.190888
vn 0.000000 -0.996746 -0.080603
vn 0.000000 -0.996746 -0.080603
vn 0.000000 -0.996746 -0.080603
vn 0.000000 -0.996745 -0.080613
vn 0.000000 -0.996745 -0.080613
vn 0.000000 -0.996746 -0.080613
vn 1.000000 0.000000 0.000000
vn 1.000000 0.000000 0.000000
vn 1.000000 0.000000 0.000000
vn 1.000000 -0.000000 0.000000
vn 1.000000 -0.000000 0.000000
vn 1.000000 -0.000000 0.000000
vn 1.000000 0.000000 0.000000
vn 1.000000 0.000000 0.000000
vn 1.000000 0.000000 0.000000
vn 1.000000 0.000000 0.000000
vn 1.000000 0.000000 0.000000
vn 1.000000 0.000000 0.000000
vn -1.000000 -0.000000 0.000000
vn -1.000000 -0.000000 0.000000
vn -1.000000 -0.000000 0.000000
vn -1.000000 0.000000 0.000000
vn -1.000000 0.000000 0.000000
vn -1.000000 0.000000 0.000000
vn -1.000000 0.000000 0.000000
vn -1.000000 0.000000 0.000000
vn -1.000000 0.000000 0.000000
vn -1.000000 0.000000 0.000000
vn -1.000000 0.000000 0.000000
vn -1.000000 0.000000 0.000000
vn 0.000000 0.791769 0.610821
vn 0.000000 0.791769 0.610821
vn 0.000000 0.791769 0.610821
vn 0.000000 0.791770 0.610819
vn 0.000000 0.791770 0.610819
vn 0.000000 0.791770 0.610819
vn 1.000000 0.000000 0.000000
vn 1.000000 0.000000 0.000000
vn 1.000000 0.000000 0.000000
vn 1.000000 0.000000 0.000000
vn 1.000000 0.000000 0.000000
vn 1.000000 0.000000 0.000000
vn -1.000000 0.000000 0.000000
vn -1.000000 0.000000 0.000000
vn -1.000000 0.000000 0.000000
vn -1.000000 0.000000 0.000000
vn -1.000000 0.000000 0.000000
vn -1.000000 0.000000 0.000000
vn 0.000000 -0.720060 -0.693912
vn 0.000000 -0.720060 -0.693912
vn 0.000000 -0.720060 -0.693912
vn 0.000000 -0.720059 -0.693913
vn 0.000000 -0.720059 -0.693913
vn 0.000000 -0.720059 -0.693913
vn 0.000000 0.051679 0.998664
vn 0.000000 0.051679 0.998664
vn 0.000000 0.051679 0.998664
vn 0.000000 0.051679 0.998664
vn 0.000000 0.051679 0.998664
vn 0.000000 0.051679 0.998664
vn 1.000000 -0.000000 0.000000
vn 1.000000 -0.000000 0.000000
vn 1.000000 -0.000000 0.000000
vn 1.000000 0.000000 0.000000
vn 1.000000 0.000000 0.000000
vn 1.000000 0.000000 0.000000
vn -1.000000 0.000000 0.000000
vn -1.000000 0.000000 0.000000
vn -1.000000 0.000000 0.000000
vn -1.000000 -0.000000 0.000000
vn -1.000000 -0.000000 0.000000
vn -1.000000 -0.000000 0.000000
vn 0.000000 -0.040451 -0.999182
vn 0.000000 -0.040451 -0.999182
vn 0.000000 -0.040451 -0.999182
vn 0.000000 -0.040451 -0.999182
vn 0.000000 -0.040451 -0.999182
vn 0.000000 -0.040451 -0.999182
vn 0.000000 -0.886538 0.462656
vn 0.000000 -0.886538 0.462656
vn 0.000000 -0.886538 0.462656
vn 0.000000 -0.886538 0.462657
vn 0.000000 -0.886538 0.462657
vn 0.000000 -0.886538 0.462657
vn 0.929572 -0.024605 0.367819
vn 0.929572 -0.024605 0.367819
vn 0.929572 -0.024605 0.367819
vn 0.975869 0.208028 0.066360
vn 0.975869 0.208028 0.066360
vn 0.975869 0.208028 0.066360
vn -0.929573 0.024605 -0.367817
vn -0.929573 0.024605 -0.367817
vn -0.929573 0.024605 -0.367817
vn -0.975870 -0.208026 -0.066360
vn -0.975870 -0.208026 -0.066360
vn -0.975870 -0.208026 -0.066360
vn 0.000000 0.857775 -0.514025
vn 0.000000 0.857775 -0.514025
vn 0.000000 0.857775 -0.514025
vn 0.000000 0.857775 -0.514025
vn 0.000000 0.857775 -0.514025
vn 0.000000 0.857775 -0.514025
vn 0.000000 -0.785834 -0.618438
vn 0.000000 -0.785834 -0.618438
vn 0.000000 -0.785834 -0.618438
vn 0.000000 -0.785833 -0.618438
vn 0.000000 -0.785833 -0.618438
vn 0.000000 -0.785833 -0.618438
vn 0.923035 -0.025678 0.383858
vn 0.923035 -0.025678 0.383858
vn 0.923035 -0.025678 0.383858
vn 0.977100 -0.208270 0.043584
vn 0.977100 -0.208270 0.043584
vn 0.977100 -0.208270 0.043584
vn -0.977100 0.208270 -0.043583
vn -0.977100 0.208270 -0.043583
vn -0.977100 0.208270 -0.043583
vn -0.923035 0.025678 -0.383859
vn -0.923035 0.025678 -0.383859
vn -0.923035 0.025678 -0.383859
vn 0.000000 0.770316 0.637662
vn 0.000000 0.770316 0.637662
vn 0.000000 0.770316 0.637662
vn 0.000000 0.770316 0.637662
vn 0.000000 0.770316 0.637662
vn 0.000000 0.770316 0.637662
vn 0.000000 0.106920 -0.994268
vn 0.000000 0.106920 -0.994268
vn 0.000000 0.106920 -0.994268
vn 0.000000 0.106920 -0.994268
vn 0.000000 0.106920 -0.994268
vn 0.000000 0.106920 -0.994268
vn 0.974108 -0.221290 0.046309
vn 0.974108 -0.221290 0.046309
vn 0.974108 -0.221290 0.046309
vn 0.988488 -0.131713 -0.074447
vn 0.988488 -0.131713 -0.074447
vn 0.988488 -0.131713 -0.074447
vn -0.988488 0.131714 0.074448
vn -0.988488 0.131714 0.074448
vn -0.988488 0.131715 0.074448
vn -0.974107 0.221292 -0.046309
vn -0.974107 0.221292 -0.046309
vn -0.974107 0.221292 -0.046309
vn 0.000000 -0.123668 0.992324
vn 0.000000 -0.123668 0.992324
vn 0.000000 -0.123668 0.992324
vn 0.000000 -0.123668 0.992324
vn 0.000000 -0.123668 0.992324
vn 0.000000 -0.123668 0.992324
vn 0.000000 0.950261 -0.311454
vn 0.000000 0.950261 -0.311454
vn 0.000000 0.950261 -0.311454
vn 0.000000 0.950261 -0.311455
vn 0.000000 0.950261 -0.311455
vn 0.000000 0.950261 -0.311455
vn 0.999879 0.004821 0.014814
vn 0.999879 0.004821 0.014814
vn 0.999879 0.004821 0.014814
vn 0.999893 0.012754 0.007209
vn 0.999893 0.012754 0.007209
vn 0.999893 0.012754 0.007209
vn -0.999879 -0.004822 -0.014815
vn -0.999879 -0.004822 -0.014815
vn -0.999879 -0.004822 -0.014815
vn -0.999893 -0.012755 -0.007210
vn -0.999893 -0.012755 -0.007210
vn -0.999893 -0.012755 -0.007210
vn 0.000000 -0.916637 0.399722
vn 0.000000 -0.916637 0.399722
vn 0.000000 -0.916637 0.399722
vn 0.000000 -0.916637 0.399720
vn 0.000000 -0.916637 0.399720
vn 0.000000 -0.916637 0.399720
vn 0.000000 0.998854 0.047864
vn 0.000000 0.998854 0.047864
vn 0.000000 0.998854 0.047864
vn 0.000000 0.998854 0.047862
vn 0.000000 0.998854 0.047862
vn 0.000000 0.998854 0.047862
vn 0.995552 -0.016735 0.092716
vn 0.995552 -0.016735 0.092716
vn 0.995552 -0.016736 0.092716
vn 0.996779 0.024820 0.076263
vn 0.996779 0.024820 0.076263
vn 0.996779 0.024820 0.076263
vn -0.995552 0.016736 -0.092717
vn -0.995552 0.016736 -0.092717
vn -0.995552 0.016736 -0.092717
vn -0.996779 -0.024821 -0.076262
vn -0.996779 -0.024821 -0.076263
vn -0.996779 -0.024821 -0.076262
vn 0.000000 -0.999672 -0.025593
vn 0.000000 -0.999673 -0.025593
vn 0.000000 -0.999672 -0.025593
vn 0.000000 -0.999672 -0.025594
vn 0.000000 -0.999672 -0.025594
vn 0.000000 -0.999672 -0.025594
vn -0.000002 0.906534 0.422134
vn -0.000002 0.906534 0.422134
vn -0.000002 0.906534 0.422134
vn 0.000001 0.906535 0.422131
vn 0.000001 0.906535 0.422131
vn 0.000001 0.906535 0.422131
vn 1.000000 0.000000 0.000000
vn 1.000000 0.000000 0.000000
vn 1.000000 0.000000 0.000000
vn 1.000000 0.000000 0.000000
vn 1.000000 0.000000 0.000000
vn 1.000000 0.000000 0.000000
vn -1.000000 -0.000000 0.000000
vn -1.000000 -0.000000 0.000000
vn -1.000000 -0.000000 0.000000
vn -1.000000 0.000000 0.000000
vn -1.000000 0.000000 0.000000
vn -1.000000 0.000000 0.000000
vn 0.000000 -0.906403 -0.422414
vn 0.000000 -0.906403 -0.422414
vn 0.000000 -0.906403 -0.422414
vn 0.000000 -0.906403 -0.422414
vn 0.000000 -0.906403 -0.422414
vn 0.000000 -0.906403 -0.422414
s off
g tail
usemtl None
f 3/1/1 11/2/2 4/3/3
f 4/3/4 11/2/5 12/4/6
f 12/4/7 8/5/8 4/3/9
f 12/4/10 20/6/11 8/5/12
f 8/5/13 20/6/14 16/7/15
f 20/8/16 12/9/17 19/10/18
f 19/10/19 12/9/20 11/11/21
f 20/8/22 19/10/23 32/12/24
f 32/12/25 19/10/26 31/13/27
f 31/14/28 26/15/29 23/16/30
f 1/17/31 5/18/32 3/1/33
f 3/1/34 5/18/35 6/19/36
f 6/19/37 11/2/38 3/1/39
f 11/2/40 6/19/41 19/20/42
f 19/20/43 6/19/44 14/21/45
f 19/20/46 14/21/47 31/14/48
f 31/14/49 14/21/50 26/15/51
f 21/22/52 23/16/53 25/23/54
f 25/23/55 23/16/56 26/15/57
f 13/24/58 25/23/59 14/21/60
f 14/21/61 25/23/62 26/15/63
f 14/21/64 6/19/65 13/24/66
f 13/24/67 6/19/68 5/18/69
f 28/25/70 32/26/71 24/27/72
f 28/25/73 16/28/74 32/26/75
f 32/26/76 16/28/77 20/29/78
f 31/14/79 23/16/80 32/26/81
f 32/26/82 23/16/83 24/27/84
f 22/30/85 24/27/86 21/22/87
f 21/22/88 24/27/89 23/16/90
f 9/31/91 5/18/92 1/17/93
f 1/17/94 3/1/95 2/32/96
f 2/32/97 3/1/98 4/3/99
f 25/23/100 29/33/101 21/22/102
f 5/18/103 9/31/104 13/24/105
f 13/24/106 9/31/107 17/34/108
f 13/24/109 17/34/110 25/23/111
f 25/23/112 17/34/113 29/33/114
f 28/25/115 24/27/116 27/35/117
f 27/35/118 24/27/119 22/30/120
f 2/32/121 4/3/122 7/36/123
f 7/36/124 4/3/125 8/5/126
f 7/36/127 8/5/128 15/37/129
f 15/37/130 8/5/131 16/7/132
f 15/38/133 16/28/134 27/35/135
f 27/35/136 16/28/137 28/25/138
f 10/39/139 9/31/140 2/32/141
f 2/32/142 9/31/143 1/17/144
f 29/33/145 30/40/146 21/22/147
f 21/22/148 30/40/149 22/30/150
f 17/41/151 9/42/152 18/43/153
f 18/43/154 9/42/155 10/44/156
f 17/41/157 18/43/158 29/45/159
f 29/45/160 18/43/161 30/46/162
f 7/36/163 10/39/164 2/32/165
f 30/40/166 27/35/167 22/30/168
f 18/47/169 10/39/170 15/37/171
f 15/37/172 10/39/173 7/36/174
f 30/40/175 18/48/176 27/35/177
f 27/35/178 18/48/179 15/38/180
f 37/49/181 35/50/182 38/51/183
f 38/51/184 35/50/185 36/52/186
f 39/53/187 37/49/188 40/54/189
f 40/54/190 37/49/191 38/51/192
f 43/55/193 41/56/194 44/57/195
f 44/57/196 41/56/197 42/58/198
f 34/59/199 33/60/200 44/57/201
f 44/57/202 33/60/203 43/55/204
f 42/61/205 40/54/206 44/62/207
f 44/62/208 40/54/209 38/51/210
f 34/63/211 44/62/212 36/52/213
f 36/52/214 44/62/215 38/51/216
f 37/49/217 39/53/218 43/55/219
f 43/55/220 39/53/221 41/56/222
f 33/60/223 35/50/224 43/55/225
f 43/55/226 35/50/227 37/49/228
f 45/64/229 39/53/230 46/65/231
f 46/65/232 39/53/233 40/54/234
f 40/54/235 42/61/236 46/65/237
f 46/65/238 42/61/239 48/66/240
f 47/67/241 41/56/242 45/64/243
f 45/64/244 41/56/245 39/53/246
f 47/67/247 48/68/248 41/56/249
f 41/56/250 48/68/251 42/58/252
f 49/69/253 45/64/254 50/70/255
f 50/70/256 45/64/257 46/65/258
f 46/65/259 48/66/260 50/70/261
f 50/70/262 48/66/263 52/71/264
f 51/72/265 47/67/266 49/69/267
f 49/69/268 47/67/269 45/64/270
f 51/72/271 52/73/272 47/67/273
f 47/67/274 52/73/275 48/68/276
f 53/74/277 49/69/278 54/75/279
f 54/75/280 49/69/281 50/70/282
f 54/75/283 50/70/284 56/76/285
f 56/76/286 50/70/287 52/71/288
f 53/74/289 55/77/290 49/69/291
f 49/69/292 55/77/293 51/72/294
f 55/77/295 56/78/296 51/72/297
f 51/72/298 56/78/299 52/73/300
f 57/79/301 53/80/302 58/81/303
f 58/81/304 53/80/305 54/82/306
f 54/82/307 56/83/308 58/81/309
f 58/81/310 56/83/311 60/84/312
f 59/85/313 55/86/314 57/79/315
f 57/79/316 55/86/317 53/80/318
f 59/85/319 60/87/320 55/86/321
f 55/86/322 60/87/323 56/88/324
f 61/89/325 57/79/326 62/90/327
f 62/90/328 57/79/329 58/81/330
f 58/81/331 60/84/332 62/90/333
f 62/90/334 60/84/335 64/91/336
f 63/92/337 59/85/338 61/89/339
f 61/89/340 59/85/341 57/79/342
f 63/92/343 64/93/344 59/85/345
f 59/85/346 64/93/347 60/87/348
f 61/89/349 62/90/350 65/94/351
f 65/94/352 62/90/353 66/95/354
f 66/95/355 62/90/356 68/96/357
f 68/96/358 62/90/359 64/91/360
f 65/94/361 67/97/362 61/89/363
f 61/89/364 67/97/365 63/92/366
f 68/98/367 64/93/368 67/97/369
f 67/97/370 64/93/371 63/92/372
f 65/94/373 66/95/374 69/99/375
f 69/99/376 66/95/377 70/100/378
f 70/100/379 66/95/380 72/101/381
f 72/101/382 66/95/383 68/96/384
f 69/99/385 71/102/386 65/94/387
f 65/94/388 71/102/389 67/97/390
f 72/103/391 68/98/392 71/102/393
f 71/102/394 68/98/395 67/97/396
f 74/104/397 73/105/398 70/100/399
f 70/100/400 73/105/401 69/99/402
f 70/100/403 72/101/404 74/104/405
f 74/104/406 72/101/407 76/106/408
f 75/107/409 71/102/410 73/105/411
f 73/105/412 71/102/413 69/99/414
f 75/107/415 76/108/416 71/102/417
f 71/102/418 76/108/419 72/103/420
