# This file uses centimeters as units for non-parametric coordinates.

mtllib TepigFLLeg.mtl
g default
v -0.306673 -2.249184 0.281767
v 0.539735 -2.302251 0.281767
v -0.920542 -0.547098 0.524571
v 1.082396 1.212234 0.646726
v -0.920542 -0.547098 -1.003961
v 1.077806 1.366899 -1.057580
v -0.306673 -2.279527 -0.447880
v 0.539735 -2.332594 -0.447880
v 1.181703 -0.933633 0.563326
v -0.454581 -1.709944 0.524571
v -0.454581 -1.709944 -0.432016
v 1.181703 -0.906823 -1.003961
v 0.495475 0.405370 0.871811
v 0.495475 0.405370 -1.271361
v 0.567110 -1.208478 -1.013541
v 0.194723 -2.270343 -0.548100
v 0.194723 -2.240000 0.429139
v 0.567110 -1.225218 0.923343
v -0.239747 -2.517411 -0.239331
v 0.194723 -2.517363 -0.339552
v 0.194723 -2.517363 0.674916
v -0.239747 -2.517411 0.493687
v 0.456077 -2.517333 -0.239331
v 0.456077 -2.517333 0.493687
vt 0.946308 0.095836
vt 0.944045 0.119216
vt 0.922264 0.088285
vt 0.895230 0.122266
vt 0.989261 0.134976
vt 0.951765 0.136708
vt 0.981807 0.105397
vt 0.955063 0.106633
vt 0.923080 0.210995
vt 0.964234 0.182407
vt 0.971099 0.220610
vt 0.980224 0.197522
vt 0.747392 0.190526
vt 0.794406 0.180883
vt 0.739714 0.256559
vt 0.767809 0.292463
vt 0.946419 0.136128
vt 0.957306 0.167934
vt 0.884126 0.149298
vt 0.897095 0.202788
vt 0.961843 0.068439
vt 0.941337 0.055615
vt 0.873448 0.062618
vt 0.827046 0.126341
vt 0.906082 0.008239
vt 0.863532 0.249493
vt 0.937322 0.273372
vt 0.799617 0.161535
vt 0.815375 0.235313
vt 0.986132 0.152614
vt 0.956378 0.156212
vt 0.808339 0.394663
vt 0.755557 0.322564
vt 0.778486 0.389975
vt 0.787380 0.147995
vt 0.733994 0.160388
vt 0.707904 0.242690
vt 0.724837 0.302342
vt 0.808001 0.428432
vt 0.770865 0.418664
vt 0.734537 0.344983
vn -0.243755 -0.452988 0.857546
vn -0.243755 -0.452988 0.857546
vn -0.243755 -0.452988 0.857546
vn -0.175263 -0.378336 0.908925
vn -0.175263 -0.378336 0.908925
vn -0.175263 -0.378336 0.908925
vn -0.558126 0.829756 0.000000
vn -0.558126 0.829756 0.000000
vn -0.558126 0.829756 0.000000
vn -0.558126 0.829756 0.000000
vn -0.558126 0.829756 0.000000
vn -0.558126 0.829756 0.000000
vn -0.380073 -0.256271 -0.888746
vn -0.380073 -0.256271 -0.888746
vn -0.380073 -0.256271 -0.888746
vn -0.195537 -0.023470 -0.980415
vn -0.195537 -0.023470 -0.980416
vn -0.195537 -0.023470 -0.980415
vn 0.000110 -1.000000 0.000000
vn 0.000110 -1.000000 0.000000
vn 0.000110 -1.000000 0.000000
vn 0.000110 -1.000000 0.000000
vn 0.000110 -1.000000 0.000000
vn 0.000110 -1.000000 0.000000
vn 0.903795 -0.427595 0.017782
vn 0.903795 -0.427595 0.017782
vn 0.903795 -0.427595 0.017782
vn 0.910776 -0.412841 -0.007062
vn 0.910776 -0.412841 -0.007062
vn 0.910776 -0.412841 -0.007062
vn -0.967775 -0.251600 0.010463
vn -0.967775 -0.251600 0.010463
vn -0.967775 -0.251600 0.010463
vn -0.964380 -0.264520 0.000000
vn -0.964380 -0.264520 0.000000
vn -0.964380 -0.264520 0.000000
vn -0.309225 -0.123909 0.942882
vn -0.309225 -0.123909 0.942882
vn -0.309225 -0.123909 0.942882
vn -0.250526 0.019583 0.967912
vn -0.250526 0.019583 0.967912
vn -0.250526 0.019583 0.967912
vn -0.928250 -0.371957 0.000000
vn -0.928250 -0.371957 0.000000
vn -0.928250 -0.371957 0.000000
vn -0.928250 -0.371957 0.000000
vn -0.928250 -0.371957 0.000000
vn -0.928250 -0.371957 0.000000
vn -0.077754 -0.160641 -0.983945
vn -0.077754 -0.160641 -0.983946
vn -0.077754 -0.160641 -0.983946
vn -0.228493 -0.501868 -0.834218
vn -0.228493 -0.501868 -0.834218
vn -0.228493 -0.501868 -0.834218
vn 0.998932 0.046198 0.000790
vn 0.998932 0.046198 0.000790
vn 0.998932 0.046198 0.000790
vn 0.998955 0.045682 0.001455
vn 0.998955 0.045682 0.001455
vn 0.998955 0.045682 0.001455
vn -0.808683 0.588244 0.000000
vn -0.808683 0.588244 0.000000
vn -0.808683 0.588244 0.000000
vn -0.859099 0.509501 0.048551
vn -0.859099 0.509502 0.048551
vn -0.859099 0.509501 0.048551
vn 0.090526 -0.153187 -0.984042
vn 0.090526 -0.153187 -0.984042
vn 0.090526 -0.153187 -0.984042
vn 0.353219 -0.005921 -0.935522
vn 0.353219 -0.005921 -0.935522
vn 0.353219 -0.005921 -0.935522
vn 0.174531 -0.445992 -0.877856
vn 0.174531 -0.445992 -0.877856
vn 0.174531 -0.445992 -0.877856
vn 0.230399 -0.441881 -0.866982
vn 0.230398 -0.441881 -0.866982
vn 0.230399 -0.441881 -0.866982
vn 0.000115 -1.000000 0.000000
vn 0.000115 -1.000000 0.000000
vn 0.000115 -1.000000 0.000000
vn 0.000115 -1.000000 0.000000
vn 0.000115 -1.000000 0.000000
vn 0.000115 -1.000000 0.000000
vn 0.262832 -0.498699 0.825966
vn 0.262832 -0.498699 0.825966
vn 0.262832 -0.498699 0.825966
vn 0.598831 -0.421043 0.681267
vn 0.598831 -0.421043 0.681267
vn 0.598831 -0.421043 0.681267
vn 0.487442 0.048966 0.871782
vn 0.487442 0.048966 0.871782
vn 0.487442 0.048966 0.871781
vn 0.379920 -0.018362 0.924837
vn 0.379920 -0.018362 0.924837
vn 0.379920 -0.018362 0.924837
vn -0.139535 -0.638785 -0.756626
vn -0.139535 -0.638785 -0.756626
vn -0.139535 -0.638785 -0.756626
vn -0.165553 -0.676050 -0.718017
vn -0.165553 -0.676050 -0.718017
vn -0.165553 -0.676050 -0.718017
vn -0.242450 0.563475 0.789756
vn -0.242450 0.563475 0.789756
vn -0.242450 0.563475 0.789756
vn -0.298071 0.633059 0.714416
vn -0.298071 0.633059 0.714416
vn -0.298071 0.633059 0.714416
vn -0.965021 -0.261947 0.010893
vn -0.965021 -0.261947 0.010893
vn -0.965021 -0.261947 0.010893
vn -0.970254 -0.242091 0.000000
vn -0.970254 -0.242091 0.000000
vn -0.970254 -0.242091 0.000000
vn 0.104978 -0.641532 -0.759879
vn 0.104978 -0.641532 -0.759879
vn 0.104978 -0.641532 -0.759879
vn 0.227478 -0.772418 -0.592979
vn 0.227478 -0.772418 -0.592979
vn 0.227478 -0.772418 -0.592979
vn 0.917696 -0.396941 0.016507
vn 0.917696 -0.396941 0.016507
vn 0.917696 -0.396941 0.016507
vn 0.931983 -0.362503 0.000000
vn 0.931983 -0.362503 0.000000
vn 0.931982 -0.362503 0.000000
vn 0.409499 0.554517 0.724446
vn 0.409499 0.554517 0.724446
vn 0.409499 0.554517 0.724446
vn 0.460590 0.588670 0.664323
vn 0.460590 0.588670 0.664323
vn 0.460590 0.588670 0.664323
s off
g leftFrontLeg
usemtl None
f 1/1/1 17/2/2 10/3/3
f 10/3/4 17/2/5 18/4/6
f 13/5/7 14/6/8 3/7/9
f 3/7/10 14/6/11 5/8/12
f 15/9/13 16/10/14 11/11/15
f 11/11/16 16/10/17 7/12/18
f 19/13/19 20/14/20 22/15/21
f 22/15/22 20/14/23 21/16/24
f 2/17/25 8/18/26 9/19/27
f 9/19/28 8/18/29 12/20/30
f 7/21/31 1/1/32 11/22/33
f 11/22/34 1/1/35 10/3/36
f 10/3/37 18/4/38 3/23/39
f 3/23/40 18/4/41 13/24/42
f 10/3/43 3/23/44 11/22/45
f 11/22/46 3/23/47 5/25/48
f 14/26/49 15/9/50 5/27/51
f 5/27/52 15/9/53 11/11/54
f 9/19/55 12/20/56 4/28/57
f 4/28/58 12/20/59 6/29/60
f 13/5/61 4/30/62 14/6/63
f 14/6/64 4/30/65 6/31/66
f 15/9/67 14/26/68 12/20/69
f 12/20/70 14/26/71 6/29/72
f 16/10/73 15/9/74 8/18/75
f 8/18/76 15/9/77 12/20/78
f 21/16/79 20/32/80 24/33/81
f 24/33/82 20/32/83 23/34/84
f 17/2/85 2/17/86 18/4/87
f 18/4/88 2/17/89 9/19/90
f 18/4/91 9/19/92 13/24/93
f 13/24/94 9/19/95 4/28/96
f 16/35/97 20/14/98 7/36/99
f 7/36/100 20/14/101 19/13/102
f 1/37/103 22/15/104 17/38/105
f 17/38/106 22/15/107 21/16/108
f 7/36/109 19/13/110 1/37/111
f 1/37/112 19/13/113 22/15/114
f 16/39/115 8/40/116 20/32/117
f 20/32/118 8/40/119 23/34/120
f 8/40/121 2/41/122 23/34/123
f 23/34/124 2/41/125 24/33/126
f 2/41/127 17/38/128 24/33/129
f 24/33/130 17/38/131 21/16/132
