# This file uses centimeters as units for non-parametric coordinates.

mtllib TepigBody.mtl
g default
v -2.231803 2.234474 1.908628
v -2.621443 2.220065 -1.470394
v -2.413191 4.789758 1.908628
v -2.413193 4.775349 -1.884524
v -1.136716 2.413146 3.801398
v -2.309153 4.789712 3.279192
v -1.136716 2.322789 -3.312043
v -1.136716 5.194840 -2.802145
v -1.136716 1.214252 1.908628
v -1.136716 1.009058 -1.335081
v -1.099653 5.896894 1.909660
v -1.136716 5.894522 -1.923519
v -0.000001 2.413146 3.801398
v -0.000001 4.789712 3.279192
v -0.000001 2.322789 -3.312043
v -0.000001 5.194840 -2.802145
v -0.000001 1.214252 1.908628
v -0.000001 1.009058 -1.335081
v -0.000001 5.896894 1.909660
v -0.000001 5.894522 -1.923519
v 2.231802 2.234474 1.908628
v 2.621441 2.220065 -1.470394
v 2.413190 4.789758 1.908628
v 2.413192 4.775349 -1.884524
v 1.136714 2.413146 3.801398
v 2.309152 4.789712 3.279192
v 1.136714 2.322789 -3.312043
v 1.136714 5.194840 -2.802145
v 1.136714 1.214252 1.908628
v 1.136714 1.009058 -1.335081
v 1.099652 5.896894 1.909660
v 1.136714 5.894522 -1.923519
v 2.525057 3.402735 -2.376065
v 2.542853 3.417144 1.908628
v 1.136714 3.513100 3.559704
v -0.000001 3.513100 3.559704
v -1.136716 3.513099 3.559704
v -2.542854 3.417144 1.908628
v -2.525058 3.402735 -2.376066
v -1.136716 4.155499 -3.445461
v -0.000001 4.155499 -3.445461
v 1.136714 4.155498 -3.445461
v 1.126381 6.212184 -0.970115
v -0.000001 6.212184 -0.970115
v -1.126383 6.212184 -0.970115
v -2.413193 4.779366 -0.754961
v -2.530019 3.421161 -0.500267
v -2.630680 2.252901 -0.312198
v -1.136716 0.922175 -0.099337
v -0.000001 0.922175 -0.099337
v 1.136714 0.922175 -0.099337
v 2.630679 2.252901 -0.312198
v 2.530018 3.421161 -0.500267
v 2.413191 4.779366 -0.754961
vt 0.166298 0.158915
vt 0.134758 0.216077
vt 0.083115 0.098934
vt 0.024316 0.196446
vt 0.410867 0.303199
vt 0.463944 0.296976
vt 0.465834 0.370470
vt 0.405750 0.244192
vt 0.462134 0.245275
vt 0.017210 0.260439
vt 0.132426 0.258082
vt 0.134600 0.300851
vt 0.025370 0.323862
vt 0.204335 0.300388
vt 0.169249 0.357600
vt 0.298868 0.206305
vt 0.256891 0.211454
vt 0.252649 0.116225
vt 0.212132 0.132351
vt 0.203246 0.215530
vt 0.206296 0.258282
vt 0.216070 0.382879
vt 0.260094 0.303506
vt 0.256112 0.399050
vt 0.303140 0.304858
vt 0.327059 0.255766
vt 0.269294 0.256703
vt 0.466524 0.194453
vt 0.413276 0.185564
vt 0.471553 0.120978
vt 0.086757 0.418225
vt 0.153504 0.463614
vt 0.215954 0.485783
vt 0.328589 0.117524
vt 0.211472 0.030849
vt 0.149123 0.052949
vt 0.330635 0.394369
vt 0.375900 0.138258
vt 0.378778 0.375876
vt 0.521723 0.199092
vt 0.532541 0.093090
vt 0.601127 0.194255
vt 0.589112 0.080665
vt 0.581178 0.416244
vt 0.525207 0.401177
vt 0.597475 0.304052
vt 0.519311 0.294091
vt 0.622947 0.249002
vt 0.524032 0.247511
vt 0.320456 0.020424
vt 0.325653 0.487437
vt 0.372294 0.033667
vt 0.380371 0.480503
vt 0.673545 0.387162
vt 0.679726 0.113470
vt 0.718675 0.350332
vt 0.723859 0.153140
vt 0.356477 0.243123
vt 0.366152 0.172228
vt 0.363141 0.314382
vt 0.434783 0.416504
vt 0.513116 0.458582
vt 0.586439 0.472111
vt 0.702619 0.442452
vt 0.753519 0.407120
vt 0.711156 0.059703
vt 0.761653 0.097348
vt 0.596650 0.025029
vt 0.522895 0.035222
vt 0.442686 0.073576
vn -0.644472 0.764623 -0.002983
vn -0.644472 0.764623 -0.002983
vn -0.644472 0.764623 -0.002983
vn -0.735547 0.672677 0.080475
vn -0.735547 0.672677 0.080475
vn -0.735547 0.672677 0.080475
vn -0.576144 0.639383 -0.509164
vn -0.576144 0.639383 -0.509164
vn -0.576144 0.639383 -0.509164
vn 0.000000 0.782265 -0.622946
vn 0.000000 0.782265 -0.622946
vn 0.000000 0.782265 -0.622946
vn 0.000000 0.782265 -0.622946
vn 0.000000 0.782265 -0.622946
vn 0.000000 0.782265 -0.622946
vn 0.000000 0.994060 0.108834
vn 0.000000 0.994060 0.108834
vn 0.000000 0.994060 0.108834
vn 0.000000 0.994060 0.108834
vn 0.000000 0.994060 0.108834
vn 0.000000 0.994060 0.108834
vn 0.000000 0.994060 0.108834
vn 0.000000 0.994060 0.108834
vn 0.000000 0.994060 0.108834
vn 0.000000 0.994060 0.108834
vn 0.000000 0.994060 0.108834
vn 0.000000 0.994060 0.108834
vn 0.643728 0.763691 0.048891
vn 0.643728 0.763691 0.048891
vn 0.643728 0.763691 0.048891
vn -0.864908 0.107720 0.490235
vn -0.864908 0.107720 0.490235
vn -0.864908 0.107720 0.490235
vn -0.741097 -0.194914 0.642483
vn -0.741097 -0.194914 0.642483
vn -0.741097 -0.194914 0.642483
vn -0.643727 0.763691 0.048891
vn -0.643727 0.763691 0.048891
vn -0.643727 0.763692 0.048891
vn 0.000000 0.777658 0.628688
vn 0.000000 0.777658 0.628688
vn 0.000000 0.777658 0.628688
vn 0.000000 0.777658 0.628688
vn 0.000000 0.777658 0.628688
vn 0.000000 0.777658 0.628688
vn 0.000000 0.777657 0.628688
vn 0.000000 0.777657 0.628688
vn 0.000000 0.777657 0.628688
vn 0.000000 0.777658 0.628688
vn 0.000000 0.777658 0.628688
vn 0.000000 0.777658 0.628688
vn 0.741097 -0.194914 0.642483
vn 0.741097 -0.194914 0.642483
vn 0.741097 -0.194914 0.642483
vn 0.864908 0.107720 0.490236
vn 0.864908 0.107720 0.490236
vn 0.864908 0.107720 0.490236
vn 0.000000 0.214611 0.976700
vn 0.000000 0.214611 0.976700
vn 0.000000 0.214611 0.976700
vn 0.000000 0.214611 0.976700
vn 0.000000 0.214611 0.976700
vn 0.000000 0.214611 0.976700
vn -0.000001 0.214611 0.976700
vn -0.000001 0.214611 0.976700
vn -0.000001 0.214611 0.976700
vn 0.000000 0.214611 0.976700
vn 0.000000 0.214611 0.976700
vn 0.000000 0.214611 0.976700
vn 0.576144 0.639383 -0.509164
vn 0.576144 0.639383 -0.509164
vn 0.576144 0.639383 -0.509164
vn 0.000000 0.782265 -0.622946
vn 0.000000 0.782265 -0.622946
vn 0.000000 0.782265 -0.622946
vn 0.000000 0.782265 -0.622946
vn 0.000000 0.782265 -0.622946
vn 0.000000 0.782265 -0.622946
vn 0.644472 0.764622 -0.002983
vn 0.644472 0.764622 -0.002983
vn 0.644472 0.764622 -0.002983
vn 0.735547 0.672677 0.080475
vn 0.735547 0.672677 0.080475
vn 0.735547 0.672677 0.080475
vn 0.996366 0.085018 -0.005167
vn 0.996366 0.085018 -0.005167
vn 0.996366 0.085018 -0.005167
vn 0.953180 -0.250693 0.169118
vn 0.953180 -0.250693 0.169118
vn 0.953180 -0.250693 0.169118
vn -0.618464 -0.663848 0.420486
vn -0.618464 -0.663848 0.420486
vn -0.618464 -0.663848 0.420486
vn -0.953180 -0.250694 0.169118
vn -0.953180 -0.250694 0.169118
vn -0.953180 -0.250694 0.169118
vn -0.996366 0.085018 -0.005167
vn -0.996366 0.085018 -0.005167
vn -0.996366 0.085018 -0.005167
vn 0.618464 -0.663848 0.420486
vn 0.618464 -0.663848 0.420486
vn 0.618464 -0.663848 0.420486
vn 0.000000 -0.844791 0.535097
vn 0.000000 -0.844791 0.535097
vn 0.000000 -0.844791 0.535097
vn 0.000000 -0.844791 0.535097
vn 0.000000 -0.844791 0.535097
vn 0.000000 -0.844791 0.535097
vn 0.000000 -0.844791 0.535096
vn 0.000000 -0.844791 0.535096
vn 0.000000 -0.844791 0.535097
vn 0.000000 -0.844791 0.535097
vn 0.000000 -0.844791 0.535097
vn 0.000000 -0.844791 0.535097
vn 0.589014 -0.058675 -0.805990
vn 0.589014 -0.058675 -0.805990
vn 0.589014 -0.058675 -0.805990
vn 0.704535 -0.394388 -0.589990
vn 0.704535 -0.394388 -0.589990
vn 0.704535 -0.394388 -0.589990
vn -0.704535 -0.394388 -0.589990
vn -0.704535 -0.394388 -0.589990
vn -0.704535 -0.394388 -0.589990
vn -0.589014 -0.058675 -0.805990
vn -0.589014 -0.058675 -0.805990
vn -0.589014 -0.058675 -0.805990
vn 0.000000 -0.072606 -0.997361
vn 0.000000 -0.072606 -0.997361
vn 0.000000 -0.072606 -0.997361
vn 0.000000 -0.072606 -0.997361
vn 0.000000 -0.072606 -0.997361
vn 0.000000 -0.072606 -0.997361
vn 0.000000 -0.072606 -0.997361
vn 0.000000 -0.072606 -0.997361
vn 0.000000 -0.072606 -0.997361
vn 0.000000 -0.072606 -0.997361
vn 0.000000 -0.072606 -0.997361
vn 0.000000 -0.072606 -0.997361
vn -0.677826 -0.727566 0.105831
vn -0.677826 -0.727566 0.105831
vn -0.677826 -0.727566 0.105831
vn -0.669806 -0.733700 0.114214
vn -0.669806 -0.733700 0.114214
vn -0.669806 -0.733700 0.114214
vn 0.677826 -0.727566 0.105831
vn 0.677826 -0.727566 0.105831
vn 0.677826 -0.727566 0.105831
vn 0.669805 -0.733700 0.114214
vn 0.669805 -0.733700 0.114214
vn 0.669805 -0.733700 0.114214
vn 0.000000 -0.989586 0.143944
vn 0.000000 -0.989586 0.143944
vn 0.000000 -0.989586 0.143944
vn 0.000000 -0.989586 0.143944
vn 0.000000 -0.989586 0.143944
vn 0.000000 -0.989586 0.143944
vn 0.000000 -0.989586 0.143944
vn 0.000000 -0.989586 0.143944
vn 0.000000 -0.989586 0.143944
vn 0.000000 -0.989586 0.143944
vn 0.000000 -0.989586 0.143944
vn 0.000000 -0.989586 0.143944
vn -0.532363 -0.705042 -0.468514
vn -0.532363 -0.705042 -0.468514
vn -0.532363 -0.705042 -0.468514
vn 0.532363 -0.705041 -0.468514
vn 0.532363 -0.705041 -0.468514
vn 0.532363 -0.705041 -0.468514
vn 0.000000 -0.832875 -0.553462
vn 0.000000 -0.832875 -0.553462
vn 0.000000 -0.832875 -0.553462
vn 0.000000 -0.832874 -0.553462
vn 0.000000 -0.832875 -0.553462
vn 0.000000 -0.832875 -0.553462
vn 0.000000 -0.832874 -0.553462
vn 0.000000 -0.832875 -0.553462
vn 0.000000 -0.832875 -0.553462
vn 0.000000 -0.832874 -0.553462
vn 0.000000 -0.832875 -0.553462
vn 0.000000 -0.832875 -0.553462
vn 0.996326 0.085637 -0.000334
vn 0.996326 0.085637 -0.000334
vn 0.996326 0.085637 -0.000334
vn 0.995555 0.094045 -0.005148
vn 0.995555 0.094045 -0.005148
vn 0.995555 0.094045 -0.005148
vn 0.656548 -0.474056 0.586700
vn 0.656548 -0.474056 0.586700
vn 0.656548 -0.474056 0.586700
vn 0.992737 0.093778 0.075361
vn 0.992737 0.093778 0.075361
vn 0.992737 0.093778 0.075361
vn 0.000000 0.214612 0.976699
vn 0.000000 0.214612 0.976699
vn 0.000000 0.214612 0.976699
vn 0.000000 0.214612 0.976699
vn 0.000000 0.214612 0.976699
vn 0.000000 0.214612 0.976699
vn 0.000000 0.214612 0.976700
vn 0.000000 0.214612 0.976699
vn 0.000000 0.214612 0.976699
vn 0.000000 0.214612 0.976699
vn 0.000000 0.214612 0.976699
vn 0.000000 0.214612 0.976700
vn -0.656548 -0.474055 0.586699
vn -0.656548 -0.474055 0.586699
vn -0.656548 -0.474055 0.586699
vn -0.992737 0.093778 0.075361
vn -0.992737 0.093778 0.075361
vn -0.992737 0.093778 0.075361
vn -0.995555 0.094044 -0.005148
vn -0.995555 0.094044 -0.005148
vn -0.995555 0.094044 -0.005148
vn -0.996326 0.085637 -0.000333
vn -0.996326 0.085637 -0.000333
vn -0.996326 0.085637 -0.000333
vn -0.678431 0.296069 -0.672365
vn -0.678431 0.296069 -0.672365
vn -0.678431 0.296069 -0.672365
vn -0.617091 0.414144 -0.669091
vn -0.617091 0.414144 -0.669091
vn -0.617091 0.414144 -0.669091
vn 0.000000 0.526304 -0.850297
vn 0.000000 0.526304 -0.850297
vn 0.000000 0.526304 -0.850297
vn 0.000000 0.526304 -0.850297
vn 0.000000 0.526304 -0.850296
vn 0.000000 0.526304 -0.850296
vn 0.000001 0.526304 -0.850297
vn 0.000001 0.526304 -0.850297
vn 0.000001 0.526304 -0.850297
vn 0.000000 0.526304 -0.850297
vn 0.000000 0.526304 -0.850297
vn 0.000000 0.526304 -0.850296
vn 0.617091 0.414144 -0.669092
vn 0.617091 0.414144 -0.669092
vn 0.617091 0.414144 -0.669092
vn 0.678431 0.296069 -0.672365
vn 0.678431 0.296069 -0.672365
vn 0.678431 0.296069 -0.672365
vn 0.000000 0.948725 -0.316102
vn 0.000000 0.948725 -0.316102
vn 0.000000 0.948725 -0.316102
vn 0.000000 0.948725 -0.316103
vn 0.000000 0.948725 -0.316103
vn 0.000000 0.948725 -0.316103
vn 0.000000 0.948725 -0.316103
vn 0.000000 0.948725 -0.316103
vn 0.000000 0.948725 -0.316103
vn 0.000000 0.948725 -0.316103
vn 0.000000 0.948725 -0.316103
vn 0.000000 0.948725 -0.316103
vn -0.743369 0.636959 -0.204170
vn -0.743369 0.636959 -0.204170
vn -0.743369 0.636959 -0.204170
vn -0.659301 0.751875 -0.002674
vn -0.659301 0.751875 -0.002674
vn -0.659301 0.751875 -0.002674
vn -0.996589 0.082454 -0.003446
vn -0.996589 0.082454 -0.003446
vn -0.996589 0.082454 -0.003446
vn -0.996326 0.085642 -0.000305
vn -0.996326 0.085642 -0.000305
vn -0.996326 0.085642 -0.000305
vn -0.996396 0.084189 -0.010333
vn -0.996396 0.084189 -0.010333
vn -0.996396 0.084189 -0.010333
vn -0.996898 0.078634 -0.003409
vn -0.996898 0.078634 -0.003409
vn -0.996898 0.078634 -0.003409
vn -0.660013 -0.749404 -0.052689
vn -0.660013 -0.749404 -0.052689
vn -0.660013 -0.749404 -0.052689
vn -0.632893 -0.774055 0.016898
vn -0.632893 -0.774055 0.016898
vn -0.632893 -0.774055 0.016898
vn 0.000000 -0.997537 -0.070135
vn 0.000000 -0.997537 -0.070135
vn 0.000000 -0.997537 -0.070135
vn 0.000000 -0.997537 -0.070135
vn 0.000000 -0.997537 -0.070135
vn 0.000000 -0.997537 -0.070135
vn 0.000000 -0.997537 -0.070135
vn 0.000000 -0.997537 -0.070135
vn 0.000000 -0.997537 -0.070135
vn 0.000000 -0.997537 -0.070135
vn 0.000000 -0.997537 -0.070135
vn 0.000000 -0.997537 -0.070135
vn 0.660013 -0.749404 -0.052689
vn 0.660013 -0.749404 -0.052689
vn 0.660013 -0.749404 -0.052689
vn 0.632892 -0.774055 0.016897
vn 0.632893 -0.774055 0.016897
vn 0.632892 -0.774055 0.016897
vn 0.996898 0.078633 -0.003409
vn 0.996898 0.078633 -0.003409
vn 0.996898 0.078633 -0.003409
vn 0.996396 0.084189 -0.010334
vn 0.996396 0.084189 -0.010334
vn 0.996396 0.084189 -0.010334
vn 0.996589 0.082454 -0.003446
vn 0.996589 0.082454 -0.003446
vn 0.996589 0.082454 -0.003446
vn 0.996326 0.085643 -0.000304
vn 0.996326 0.085643 -0.000304
vn 0.996326 0.085643 -0.000304
vn 0.743369 0.636959 -0.204170
vn 0.743369 0.636959 -0.204170
vn 0.743369 0.636959 -0.204170
vn 0.659300 0.751875 -0.002674
vn 0.659300 0.751875 -0.002674
vn 0.659300 0.751875 -0.002674
s off
g body
usemtl None
f 3/1/1 11/2/2 46/3/3
f 46/3/4 11/2/5 45/4/6
f 12/5/7 8/6/8 4/7/9
f 12/5/10 20/8/11 8/6/12
f 8/6/13 20/8/14 16/9/15
f 45/4/16 11/2/17 44/10/18
f 44/10/19 11/2/20 19/11/21
f 19/11/22 31/12/23 44/10/24
f 44/10/25 31/12/26 43/13/27
f 31/12/28 26/14/29 23/15/30
f 5/16/31 37/17/32 1/18/33
f 1/18/34 37/17/35 38/19/36
f 6/20/37 11/2/38 3/1/39
f 6/20/40 14/21/41 11/2/42
f 11/2/43 14/21/44 19/11/45
f 19/11/46 14/21/47 31/12/48
f 31/12/49 14/21/50 26/14/51
f 34/22/52 35/23/53 21/24/54
f 21/24/55 35/23/56 25/25/57
f 13/26/58 25/25/59 36/27/60
f 36/27/61 25/25/62 35/23/63
f 36/27/64 37/17/65 13/26/66
f 13/26/67 37/17/68 5/16/69
f 28/28/70 32/29/71 24/30/72
f 28/28/73 16/9/74 32/29/75
f 32/29/76 16/9/77 20/8/78
f 23/15/79 54/31/80 31/12/81
f 31/12/82 54/31/83 43/13/84
f 53/32/85 34/22/86 52/33/87
f 52/33/88 34/22/89 21/24/90
f 9/34/91 5/16/92 1/18/93
f 1/18/94 38/19/95 48/35/96
f 48/35/97 38/19/98 47/36/99
f 25/25/100 29/37/101 21/24/102
f 5/16/103 9/34/104 13/26/105
f 13/26/106 9/34/107 17/38/108
f 13/26/109 17/39/110 25/25/111
f 25/25/112 17/39/113 29/37/114
f 42/40/115 33/41/116 27/42/117
f 27/42/118 33/41/119 22/43/120
f 2/44/121 39/45/122 7/46/123
f 7/46/124 39/45/125 40/47/126
f 7/46/127 40/47/128 15/48/129
f 15/48/130 40/47/131 41/49/132
f 15/48/133 41/49/134 27/42/135
f 27/42/136 41/49/137 42/40/138
f 9/34/139 1/18/140 49/50/141
f 49/50/142 1/18/143 48/35/144
f 29/37/145 51/51/146 21/24/147
f 21/24/148 51/51/149 52/33/150
f 17/38/151 9/34/152 50/52/153
f 50/52/154 9/34/155 49/50/156
f 17/39/157 50/53/158 29/37/159
f 29/37/160 50/53/161 51/51/162
f 7/46/163 10/54/164 2/44/165
f 30/55/166 27/42/167 22/43/168
f 18/56/169 10/54/170 15/48/171
f 15/48/172 10/54/173 7/46/174
f 30/55/175 18/57/176 27/42/177
f 27/42/178 18/57/179 15/48/180
f 54/31/181 23/15/182 53/32/183
f 53/32/184 23/15/185 34/22/186
f 35/23/187 34/22/188 26/14/189
f 26/14/190 34/22/191 23/15/192
f 36/27/193 35/23/194 14/21/195
f 14/21/196 35/23/197 26/14/198
f 6/20/199 37/17/200 14/21/201
f 14/21/202 37/17/203 36/27/204
f 37/17/205 6/20/206 38/19/207
f 38/19/208 6/20/209 3/1/210
f 38/19/211 3/1/212 47/36/213
f 47/36/214 3/1/215 46/3/216
f 39/45/217 4/7/218 40/47/219
f 40/47/220 4/7/221 8/6/222
f 41/49/223 40/47/224 16/9/225
f 16/9/226 40/47/227 8/6/228
f 42/40/229 41/49/230 28/28/231
f 28/28/232 41/49/233 16/9/234
f 28/28/235 24/30/236 42/40/237
f 42/40/238 24/30/239 33/41/240
f 44/58/241 43/59/242 20/8/243
f 20/8/244 43/59/245 32/29/246
f 12/5/247 45/60/248 20/8/249
f 20/8/250 45/60/251 44/58/252
f 45/60/253 12/5/254 46/61/255
f 46/61/256 12/5/257 4/7/258
f 39/45/259 47/62/260 4/7/261
f 4/7/262 47/62/263 46/61/264
f 48/63/265 47/62/266 2/44/267
f 2/44/268 47/62/269 39/45/270
f 49/64/271 48/63/272 10/54/273
f 10/54/274 48/63/275 2/44/276
f 50/65/277 49/64/278 18/56/279
f 18/56/280 49/64/281 10/54/282
f 51/66/283 50/67/284 30/55/285
f 30/55/286 50/67/287 18/57/288
f 51/66/289 30/55/290 52/68/291
f 52/68/292 30/55/293 22/43/294
f 33/41/295 53/69/296 22/43/297
f 22/43/298 53/69/299 52/68/300
f 33/41/301 24/30/302 53/69/303
f 53/69/304 24/30/305 54/70/306
f 43/59/307 54/70/308 32/29/309
f 32/29/310 54/70/311 24/30/312
