# Blender v2.71 (sub 0) OBJ File: ''
# www.blender.org
mtllib pillar_platform.mtl
o pillar_platform
v 8.000000 1.499998 8.000000
v 8.000000 1.500002 -7.999999
v -8.000003 1.500002 -7.999998
v -7.999999 1.499998 8.000004
v 8.000004 -1.500002 7.999997
v -8.000001 -1.500002 8.000000
v -8.000004 -1.499998 -7.999998
v 7.999995 -1.499998 -8.000004
vt 0.250000 0.000000
vt 0.000000 0.000000
vt 0.000000 1.000000
vt 0.046875 0.812500
vt 0.000000 0.812500
vt 0.000000 0.687500
vt 0.046875 0.687500
vt 0.250000 1.000000
vn 0.000000 1.000000 0.000000
vn -0.000000 -1.000000 -0.000000
vn 1.000000 0.000000 -0.000000
vn -0.000000 0.000000 -1.000000
vn -1.000000 0.000000 0.000000
vn 0.000000 -0.000000 1.000000
usemtl _pillar.png.001
s off
f 2/1/1 3/2/1 4/3/1
f 6/3/2 7/2/2 8/1/2
f 1/4/3 5/5/3 8/6/3
f 2/4/4 8/5/4 7/6/4
f 4/7/5 3/4/5 7/5/5
f 1/7/6 4/4/6 6/5/6
f 1/8/1 2/1/1 4/3/1
f 5/8/2 6/3/2 8/1/2
f 2/7/3 1/4/3 8/6/3
f 3/7/4 2/4/4 7/6/4
f 6/6/5 4/7/5 7/5/5
f 5/6/6 1/7/6 6/5/6
