# This file uses centimeters as units for non-parametric coordinates.

mtllib ChandelureAFlame.mtl
g default1
v 0.034209 -0.169785 -0.621914
v -0.558192 -0.009716 -0.036026
v 0.021538 -0.051662 0.613497
v 0.572457 -0.079127 0.006087
v 0.028403 0.272156 -0.634600
v -0.597835 0.272156 -0.008362
v 0.028403 0.272156 0.617876
v 0.654641 0.272156 -0.008362
v 0.028403 0.634591 -0.580908
v -0.544143 0.634591 -0.008362
v 0.028403 0.634591 0.564184
v 0.600949 0.634591 -0.008362
v 0.028403 1.097191 -0.455089
v -0.418324 1.097191 -0.008362
v 0.028403 1.097191 0.438364
v 0.475129 1.097191 -0.008362
v 0.028403 2.497196 -0.111199
v 0.028403 1.553135 -0.231251
v -0.221241 1.553135 0.018393
v 0.028403 1.553135 0.268036
v 0.278046 1.553135 0.018393
v 0.028403 2.025165 -0.133860
v -0.096419 2.025165 -0.009039
v 0.028403 2.025165 0.115783
v 0.153225 2.025165 -0.009039
vt 0.828147 0.160516
vt 0.801143 0.167812
vt 0.799336 0.180661
vt 0.827882 0.180661
vt 0.827569 0.165900
vt 0.827882 0.180661
vt 0.852681 0.164648
vt 0.856428 0.180661
vt 0.801784 0.197182
vt 0.827882 0.197182
vt 0.827882 0.197182
vt 0.853980 0.197182
vt 0.807519 0.218268
vt 0.827882 0.218268
vt 0.827882 0.218268
vt 0.848245 0.218268
vt 0.816502 0.239052
vt 0.827882 0.239052
vt 0.827882 0.239052
vt 0.839261 0.239052
vt 0.822192 0.260568
vt 0.827882 0.260568
vt 0.827882 0.260568
vt 0.833572 0.260568
vt 0.827882 0.282085
vn 0.103476 -0.092444 -0.990327
vn -0.984168 -0.067556 -0.163856
vn 0.032336 0.023239 -0.999207
vn -0.998956 0.040593 -0.020950
vn 0.055977 -0.116059 0.991664
vn 0.023559 0.020020 0.999522
vn -0.984168 -0.067556 -0.163856
vn -0.998956 0.040593 -0.020950
vn 0.055977 -0.116059 0.991664
vn 0.988977 -0.121882 -0.084084
vn 0.023559 0.020020 0.999522
vn 0.999036 0.011531 -0.042369
vn 0.103476 -0.092444 -0.990327
vn 0.032336 0.023239 -0.999207
vn 0.988977 -0.121882 -0.084084
vn 0.999036 0.011531 -0.042369
vn 0.032336 0.023239 -0.999207
vn -0.998956 0.040593 -0.020950
vn 0.000000 0.202421 -0.979299
vn -0.979299 0.202421 0.000000
vn -0.998956 0.040593 -0.020950
vn 0.023559 0.020020 0.999522
vn -0.979299 0.202421 0.000000
vn 0.000000 0.202421 0.979299
vn 0.023559 0.020020 0.999522
vn 0.999036 0.011531 -0.042369
vn 0.000000 0.202421 0.979299
vn 0.979299 0.202421 0.000000
vn 0.999036 0.011531 -0.042369
vn 0.032336 0.023239 -0.999207
vn 0.979299 0.202421 0.000000
vn 0.000000 0.202421 -0.979299
vn 0.000000 0.202421 -0.979299
vn -0.979299 0.202421 0.000000
vn -0.000000 0.324477 -0.945894
vn -0.950850 0.309502 -0.009671
vn -0.979299 0.202421 0.000000
vn 0.000000 0.202421 0.979299
vn -0.950850 0.309502 -0.009671
vn 0.000000 0.292711 0.956201
vn 0.000000 0.202421 0.979299
vn 0.979299 0.202421 0.000000
vn 0.000000 0.292711 0.956201
vn 0.950850 0.309502 -0.009671
vn 0.979299 0.202421 0.000000
vn 0.000000 0.202421 -0.979299
vn 0.950850 0.309502 -0.009671
vn -0.000000 0.324477 -0.945894
vn -0.064501 -0.993450 0.094326
vn -0.064501 -0.993450 0.094326
vn -0.064501 -0.993450 0.094326
vn -0.064501 -0.993450 0.094326
vn -0.000000 0.324477 -0.945894
vn -0.950850 0.309502 -0.009671
vn -0.679575 0.276325 -0.679575
vn -0.679443 0.276977 -0.679442
vn -0.950850 0.309502 -0.009671
vn 0.000000 0.292711 0.956201
vn -0.685429 0.245713 0.685428
vn -0.685410 0.245822 0.685409
vn 0.950850 0.309502 -0.009671
vn 0.685429 0.245713 0.685429
vn 0.000000 0.292711 0.956201
vn 0.685409 0.245823 0.685409
vn -0.000000 0.324477 -0.945894
vn 0.679575 0.276326 -0.679575
vn 0.950850 0.309502 -0.009671
vn 0.679442 0.276977 -0.679443
vn -0.679443 0.276977 -0.679442
vn -0.701658 0.123912 -0.701657
vn -0.679575 0.276325 -0.679575
vn -0.702060 0.119277 -0.702058
vn -0.685410 0.245822 0.685409
vn -0.686101 0.241938 0.686099
vn -0.685429 0.245713 0.685428
vn -0.685365 0.246075 0.685363
vn 0.685409 0.245823 0.685409
vn 0.685429 0.245713 0.685429
vn 0.686099 0.241939 0.686100
vn 0.685363 0.246075 0.685364
vn 0.679442 0.276977 -0.679443
vn 0.679575 0.276326 -0.679575
vn 0.701656 0.123911 -0.701658
vn 0.702058 0.119276 -0.702060
vn -0.702060 0.119277 -0.702058
vn -0.701658 0.123912 -0.701657
vn -0.706702 0.033926 -0.706698
vn -0.685365 0.246075 0.685363
vn -0.686101 0.241938 0.686099
vn -0.669467 0.321920 0.669463
vn 0.686099 0.241939 0.686100
vn 0.685363 0.246075 0.685364
vn 0.669464 0.321923 0.669465
vn 0.701656 0.123911 -0.701658
vn 0.702058 0.119276 -0.702060
vn 0.706699 0.033926 -0.706700
s 1
g polySurface3
usemtl None
f 1/1/1 2/2/2 5/4/3
f 5/4/3 2/2/2 6/3/4
s 2
f 3/5/5 7/6/6 2/2/7
f 2/2/7 7/6/6 6/3/8
s 3
f 3/5/9 4/7/10 7/6/11
f 7/6/11 4/7/10 8/8/12
s 4
f 1/1/13 5/4/14 4/7/15
f 4/7/15 5/4/14 8/8/16
s 5
f 5/4/17 6/3/18 9/10/19
f 9/10/19 6/3/18 10/9/20
s 6
f 6/3/21 7/6/22 10/9/23
f 10/9/23 7/6/22 11/11/24
s 7
f 7/6/25 8/8/26 11/11/27
f 11/11/27 8/8/26 12/12/28
s 8
f 8/8/29 5/4/30 12/12/31
f 12/12/31 5/4/30 9/10/32
s 9
f 9/10/33 10/9/34 13/14/35
f 13/14/35 10/9/34 14/13/36
s 10
f 10/9/37 11/11/38 14/13/39
f 14/13/39 11/11/38 15/15/40
s 11
f 11/11/41 12/12/42 15/15/43
f 15/15/43 12/12/42 16/16/44
s 12
f 12/12/45 9/10/46 16/16/47
f 16/16/47 9/10/46 13/14/48
s 13
f 1/1/49 4/7/50 2/2/51
f 2/2/51 4/7/50 3/5/52
s 14
f 13/14/53 14/13/54 18/18/55
f 18/18/55 14/13/54 19/17/56
s 15
f 14/13/57 15/15/58 19/17/59
f 19/17/59 15/15/58 20/19/60
s 16
f 16/16/61 21/20/62 15/15/63
f 15/15/63 21/20/62 20/19/64
s 17
f 13/14/65 18/18/66 16/16/67
f 16/16/67 18/18/66 21/20/68
s 18
f 19/17/69 23/21/70 18/18/71
f 18/18/71 23/21/70 22/22/72
s 19
f 20/19/73 24/23/74 19/17/75
f 19/17/75 24/23/74 23/21/76
s 20
f 20/19/77 21/20/78 24/23/79
f 24/23/79 21/20/78 25/24/80
s 21
f 21/20/81 18/18/82 25/24/83
f 25/24/83 18/18/82 22/22/84
s off
f 22/22/85 23/21/86 17/25/87
f 23/21/88 24/23/89 17/25/90
f 24/23/91 25/24/92 17/25/93
f 25/24/94 22/22/95 17/25/96
