# This file uses centimeters as units for non-parametric coordinates.

mtllib ChandelureBody.mtl
g default
v 0.000000 6.718866 1.206105
v 0.000000 6.847636 0.882034
v 0.000000 7.075726 -0.032416
v 0.000000 6.718866 -1.240343
v 0.000000 6.847636 -0.947021
v -0.864394 6.733525 -0.879676
v -0.954531 7.787063 -2.059020
v -1.218498 6.733525 -0.017119
v -0.670453 6.842515 -0.698749
v -1.884870 7.759970 -0.844502
v -0.936457 6.888232 -0.032494
v -0.864394 6.733525 0.845439
v -0.954531 7.787063 1.990545
v -0.670453 6.842515 0.633762
v -1.884870 7.759970 0.776026
v 0.000000 2.996461 -1.904557
v -1.346725 2.996461 -1.346725
v -1.904557 2.996461 0.000000
v -1.346725 2.996461 1.346725
v 0.000000 2.996461 1.904557
v 0.000000 6.279442 -1.904557
v -1.346725 6.279442 -1.346725
v -1.904557 6.279442 0.000000
v -1.346725 6.279442 1.346725
v 0.000000 6.279442 1.904557
v -0.592450 2.337973 -0.623365
v -0.834963 2.338490 -0.017119
v -0.592450 2.337973 0.589127
v 0.000000 2.340451 0.833642
v 0.000000 2.353637 -0.832662
v 0.000000 0.425251 -0.022050
v 0.000000 1.376258 0.418474
v 0.000000 1.376258 -0.486950
v -0.456407 1.634875 -0.496212
v -0.306994 1.373780 -0.364375
v -0.602220 1.606608 -0.158503
v -0.561319 1.512861 -0.034238
v -0.625141 1.691701 -0.034238
v -0.306994 1.373780 0.295900
v -0.456407 1.634875 0.427736
v -0.602220 1.606608 0.090027
v 0.864394 6.733525 -0.879676
v 0.954531 7.787063 -2.059020
v 0.670453 6.842515 -0.698749
v 1.218498 6.733525 -0.017119
v 1.884870 7.759970 -0.844502
v 0.936457 6.888232 -0.032494
v 0.954531 7.787063 1.990545
v 0.864394 6.733525 0.845439
v 0.670453 6.842515 0.633762
v 1.884870 7.759970 0.776026
v 0.834963 2.338490 -0.017119
v 0.592450 2.337973 0.589127
v 1.346725 2.996461 1.346725
v 1.904557 2.996461 0.000000
v 1.346725 2.996461 -1.346725
v 1.346725 6.279442 -1.346725
v 1.904557 6.279442 0.000000
v 1.346725 6.279442 1.346725
v 0.602220 1.606608 -0.158503
v 0.561319 1.512861 -0.034238
v 0.306994 1.373780 0.295900
v 0.592450 2.337973 -0.623365
v 0.306994 1.373780 -0.364375
v 0.456407 1.634875 -0.496212
v 0.625141 1.691701 -0.034238
v 0.456407 1.634875 0.427736
v 0.602220 1.606608 0.090027
vt 0.809167 0.775289
vt 0.753307 0.798597
vt 0.747482 0.722384
vt 0.809167 0.794245
vt 0.765840 0.810289
vt 0.730424 0.854337
vt 0.695367 0.800870
vt 0.748650 0.853344
vt 0.809167 0.853349
vt 0.809167 0.933386
vt 0.747482 0.984078
vt 0.753307 0.910078
vt 0.809167 0.912443
vt 0.765840 0.896399
vt 0.695367 0.905593
vt 0.590889 0.470579
vt 0.548520 0.470543
vt 0.643427 0.517029
vt 0.548354 0.517029
vt 0.224178 0.517029
vt 0.129105 0.517029
vt 0.453280 0.517029
vt 0.319251 0.785937
vt 0.224178 0.785937
vt 0.129105 0.785937
vt 0.643427 0.785937
vt 0.548354 0.785937
vt 0.453280 0.785937
vt 0.224941 0.817994
vt 0.286094 0.816959
vt 0.164206 0.817994
vt 0.549300 0.817994
vt 0.610034 0.817994
vt 0.488146 0.816959
vt 0.319251 0.517029
vt 0.833350 0.448762
vt 0.832582 0.380197
vt 0.812538 0.439994
vt 0.225721 0.470543
vt 0.183352 0.470579
vt 0.265743 0.471648
vt 0.861890 0.440150
vt 0.854163 0.439994
vt 0.862474 0.456454
vt 0.841184 0.454672
vt 0.883684 0.501766
vt 0.870490 0.500778
vt 0.506739 0.470718
vt 0.804810 0.440150
vt 0.804226 0.456454
vt 0.825516 0.454672
vt 0.778637 0.500934
vt 0.794052 0.500778
vt 0.833350 0.460036
vt 0.832271 0.500811
vt 0.809167 0.775289
vt 0.747482 0.722384
vt 0.753307 0.798597
vt 0.809167 0.794245
vt 0.765840 0.810289
vt 0.730424 0.854337
vt 0.695367 0.800870
vt 0.748650 0.853344
vt 0.809167 0.853349
vt 0.809167 0.933386
vt 0.753307 0.910078
vt 0.747482 0.984078
vt 0.809167 0.912443
vt 0.765840 0.896399
vt 0.695367 0.905593
vt 0.590889 0.470579
vt 0.643427 0.517029
vt 0.548520 0.470543
vt 0.548354 0.517029
vt 0.224178 0.517029
vt 0.129105 0.517029
vt 0.453280 0.517029
vt 0.319251 0.785937
vt 0.224178 0.785937
vt 0.129105 0.785937
vt 0.643427 0.785937
vt 0.548354 0.785937
vt 0.453280 0.785937
vt 0.286094 0.816959
vt 0.224941 0.817994
vt 0.164206 0.817994
vt 0.610034 0.817994
vt 0.549300 0.817994
vt 0.488146 0.816959
vt 0.319251 0.517029
vt 0.833350 0.448762
vt 0.812538 0.439994
vt 0.832582 0.380197
vt 0.183352 0.470579
vt 0.225721 0.470543
vt 0.265743 0.471648
vt 0.861890 0.440150
vt 0.862474 0.456454
vt 0.854163 0.439994
vt 0.841184 0.454672
vt 0.883684 0.501766
vt 0.870490 0.500778
vt 0.506739 0.470718
vt 0.804810 0.440150
vt 0.804226 0.456454
vt 0.825516 0.454672
vt 0.778637 0.500934
vt 0.832271 0.500811
vt 0.794052 0.500778
vt 0.833350 0.460036
vn -0.274709 -0.727409 -0.628817
vn -0.274709 -0.727409 -0.628817
vn -0.274709 -0.727409 -0.628817
vn 0.807602 0.539984 -0.237058
vn 0.807602 0.539984 -0.237058
vn 0.807602 0.539984 -0.237058
vn -0.726776 0.483717 0.487663
vn -0.726775 0.483717 0.487663
vn -0.726775 0.483717 0.487663
vn 0.190945 0.824513 0.532652
vn 0.190945 0.824513 0.532652
vn 0.190945 0.824513 0.532652
vn -0.685324 -0.671697 -0.281344
vn -0.685324 -0.671697 -0.281344
vn -0.685324 -0.671697 -0.281344
vn 0.446383 0.469884 -0.761546
vn 0.446383 0.469884 -0.761546
vn 0.446383 0.469884 -0.761546
vn -0.236024 0.512347 0.825708
vn -0.236024 0.512347 0.825708
vn -0.236024 0.512347 0.825708
vn 0.579685 0.795415 0.176861
vn 0.579685 0.795415 0.176861
vn 0.579685 0.795415 0.176861
vn -0.194259 0.970303 -0.144137
vn -0.196320 0.980540 -0.000009
vn -0.196320 0.980540 0.000005
vn -0.096563 0.965748 -0.240844
vn -0.096563 0.965748 -0.240844
vn -0.096563 0.965748 -0.240844
vn -0.278506 -0.717625 0.638317
vn -0.278506 -0.717625 0.638317
vn -0.278506 -0.717625 0.638317
vn 0.802169 0.554895 0.220490
vn 0.802169 0.554895 0.220490
vn 0.802169 0.554895 0.220490
vn -0.762552 0.445066 -0.469501
vn -0.762552 0.445066 -0.469501
vn -0.762551 0.445066 -0.469501
vn 0.191269 0.823881 -0.533513
vn 0.191269 0.823881 -0.533513
vn 0.191269 0.823881 -0.533513
vn -0.689654 -0.666497 0.283122
vn -0.689654 -0.666498 0.283122
vn -0.689654 -0.666498 0.283122
vn 0.477456 0.522452 0.706456
vn 0.477456 0.522452 0.706456
vn 0.477456 0.522452 0.706456
vn -0.296015 0.456259 -0.839168
vn -0.296015 0.456259 -0.839168
vn -0.296015 0.456259 -0.839168
vn 0.579988 0.795164 -0.177000
vn 0.579988 0.795164 -0.177000
vn 0.579988 0.795164 -0.177000
vn -0.194282 0.970297 0.144147
vn -0.196320 0.980540 0.000005
vn -0.196320 0.980540 -0.000009
vn -0.096577 0.965737 0.240883
vn -0.096577 0.965737 0.240883
vn -0.096577 0.965737 0.240883
vn -0.512141 -0.832919 0.209660
vn -0.512141 -0.832919 0.209660
vn -0.512141 -0.832919 0.209660
vn -0.512141 -0.832919 0.209660
vn -0.512141 -0.832919 0.209660
vn -0.512141 -0.832919 0.209660
vn -0.220928 0.808970 -0.544755
vn -0.220928 0.808970 -0.544755
vn -0.220928 0.808970 -0.544755
vn -0.220928 0.808970 -0.544755
vn -0.220928 0.808970 -0.544755
vn -0.220928 0.808970 -0.544755
vn -0.542840 0.809393 -0.224070
vn -0.542840 0.809393 -0.224070
vn -0.542840 0.809393 -0.224070
vn -0.542840 0.809393 -0.224070
vn -0.542840 0.809393 -0.224070
vn -0.542840 0.809393 -0.224070
vn -0.535491 0.815103 0.221037
vn -0.535491 0.815103 0.221037
vn -0.535491 0.815103 0.221037
vn -0.535491 0.815103 0.221037
vn -0.535491 0.815103 0.221037
vn -0.535491 0.815103 0.221037
vn -0.213421 0.822694 0.526902
vn -0.213421 0.822694 0.526902
vn -0.213421 0.822694 0.526902
vn -0.213421 0.822694 0.526902
vn -0.213421 0.822694 0.526902
vn -0.213421 0.822694 0.526902
vn -0.798437 -0.407106 0.443580
vn -0.798437 -0.407106 0.443580
vn -0.798437 -0.407106 0.443580
vn -0.516825 -0.829533 -0.211580
vn -0.516825 -0.829534 -0.211580
vn -0.516825 -0.829534 -0.211580
vn -0.516825 -0.829534 -0.211580
vn -0.516825 -0.829534 -0.211580
vn -0.516825 -0.829534 -0.211580
vn -0.198645 -0.831299 -0.519116
vn -0.198645 -0.831299 -0.519116
vn -0.198645 -0.831299 -0.519116
vn -0.198645 -0.831299 -0.519116
vn -0.198645 -0.831299 -0.519116
vn -0.198645 -0.831299 -0.519116
vn -0.302804 -0.561956 -0.769750
vn -0.302804 -0.561956 -0.769750
vn -0.302804 -0.561956 -0.769750
vn -0.719498 -0.593691 -0.360351
vn -0.719498 -0.593691 -0.360351
vn -0.719498 -0.593691 -0.360351
vn -0.704252 -0.658611 -0.265068
vn -0.704252 -0.658611 -0.265068
vn -0.704252 -0.658611 -0.265068
vn -0.796657 -0.416071 -0.438431
vn -0.796657 -0.416071 -0.438432
vn -0.796657 -0.416071 -0.438432
vn -0.334679 -0.413855 -0.846590
vn -0.334679 -0.413856 -0.846589
vn -0.334679 -0.413856 -0.846589
vn -0.167426 -0.328760 -0.929454
vn -0.167426 -0.328760 -0.929454
vn -0.167426 -0.328760 -0.929454
vn -0.318952 -0.228079 -0.919918
vn -0.318952 -0.228079 -0.919918
vn -0.318952 -0.228079 -0.919918
vn -0.210703 -0.832856 0.511815
vn -0.210703 -0.832856 0.511815
vn -0.210703 -0.832856 0.511815
vn -0.210703 -0.832856 0.511815
vn -0.210703 -0.832856 0.511815
vn -0.210703 -0.832856 0.511815
vn -0.302804 -0.561956 0.769750
vn -0.302804 -0.561956 0.769750
vn -0.302804 -0.561956 0.769750
vn -0.719498 -0.593691 0.360351
vn -0.719498 -0.593691 0.360351
vn -0.719498 -0.593691 0.360351
vn -0.704251 -0.658611 0.265068
vn -0.704252 -0.658611 0.265068
vn -0.704252 -0.658611 0.265068
vn -0.201252 -0.387390 0.899682
vn -0.201252 -0.387390 0.899681
vn -0.201252 -0.387390 0.899681
vn -0.902081 -0.275102 0.332519
vn -0.902081 -0.275102 0.332519
vn -0.958984 -0.283421 -0.004764
vn -0.958984 -0.283421 -0.004764
vn -0.902081 -0.275102 0.332519
vn -0.958907 -0.283662 0.005722
vn -0.888245 0.285859 0.359592
vn -0.888245 0.285859 0.359592
vn -0.888245 0.285859 0.359592
vn -0.337802 -0.395607 0.854040
vn -0.337802 -0.395607 0.854040
vn -0.337802 -0.395607 0.854040
vn -0.958907 -0.283662 0.005722
vn -0.905875 -0.259394 -0.334822
vn -0.958984 -0.283421 -0.004764
vn -0.958984 -0.283421 -0.004764
vn -0.905875 -0.259394 -0.334822
vn -0.905875 -0.259394 -0.334822
vn -0.888245 0.285858 -0.359592
vn -0.888245 0.285858 -0.359592
vn -0.888245 0.285858 -0.359592
vn -0.365824 -0.274885 0.889163
vn -0.365824 -0.274885 0.889163
vn -0.365824 -0.274885 0.889163
vn 0.274709 -0.727409 -0.628817
vn 0.274709 -0.727409 -0.628817
vn 0.274709 -0.727409 -0.628817
vn -0.807602 0.539984 -0.237058
vn -0.807602 0.539984 -0.237058
vn -0.807602 0.539984 -0.237058
vn 0.726775 0.483717 0.487664
vn 0.726775 0.483717 0.487664
vn 0.726775 0.483717 0.487664
vn -0.190945 0.824513 0.532652
vn -0.190945 0.824513 0.532652
vn -0.190945 0.824513 0.532652
vn 0.685324 -0.671697 -0.281345
vn 0.685324 -0.671697 -0.281345
vn 0.685324 -0.671697 -0.281344
vn -0.446383 0.469884 -0.761546
vn -0.446383 0.469884 -0.761546
vn -0.446383 0.469884 -0.761546
vn 0.236024 0.512347 0.825708
vn 0.236024 0.512347 0.825708
vn 0.236024 0.512347 0.825708
vn -0.579685 0.795415 0.176862
vn -0.579685 0.795415 0.176862
vn -0.579685 0.795415 0.176862
vn 0.194259 0.970303 -0.144138
vn 0.196320 0.980540 0.000004
vn 0.196320 0.980540 -0.000010
vn 0.096563 0.965748 -0.240844
vn 0.096563 0.965748 -0.240844
vn 0.096563 0.965748 -0.240844
vn 0.278506 -0.717625 0.638317
vn 0.278506 -0.717625 0.638317
vn 0.278506 -0.717625 0.638317
vn -0.802169 0.554895 0.220490
vn -0.802169 0.554895 0.220490
vn -0.802169 0.554895 0.220490
vn 0.762552 0.445066 -0.469501
vn 0.762552 0.445066 -0.469501
vn 0.762552 0.445066 -0.469501
vn -0.191269 0.823881 -0.533513
vn -0.191269 0.823881 -0.533513
vn -0.191269 0.823881 -0.533513
vn 0.689654 -0.666498 0.283122
vn 0.689654 -0.666498 0.283122
vn 0.689654 -0.666498 0.283122
vn -0.477456 0.522453 0.706456
vn -0.477456 0.522453 0.706456
vn -0.477456 0.522453 0.706456
vn 0.296015 0.456259 -0.839168
vn 0.296015 0.456259 -0.839168
vn 0.296015 0.456259 -0.839168
vn -0.579988 0.795164 -0.176999
vn -0.579988 0.795164 -0.176999
vn -0.579988 0.795164 -0.176999
vn 0.194282 0.970297 0.144146
vn 0.196320 0.980540 -0.000010
vn 0.196320 0.980540 0.000004
vn 0.096577 0.965737 0.240883
vn 0.096577 0.965737 0.240883
vn 0.096577 0.965737 0.240883
vn 0.512141 -0.832919 0.209660
vn 0.512141 -0.832919 0.209660
vn 0.512141 -0.832919 0.209660
vn 0.512141 -0.832919 0.209660
vn 0.512141 -0.832919 0.209660
vn 0.512141 -0.832919 0.209660
vn 0.220928 0.808970 -0.544755
vn 0.220928 0.808970 -0.544755
vn 0.220928 0.808970 -0.544755
vn 0.220928 0.808970 -0.544755
vn 0.220928 0.808970 -0.544755
vn 0.220928 0.808970 -0.544755
vn 0.542840 0.809393 -0.224071
vn 0.542839 0.809393 -0.224071
vn 0.542839 0.809393 -0.224071
vn 0.542839 0.809393 -0.224071
vn 0.542839 0.809393 -0.224071
vn 0.542839 0.809393 -0.224071
vn 0.535491 0.815103 0.221037
vn 0.535491 0.815103 0.221037
vn 0.535491 0.815103 0.221037
vn 0.535491 0.815103 0.221037
vn 0.535491 0.815103 0.221037
vn 0.535491 0.815103 0.221037
vn 0.213421 0.822694 0.526902
vn 0.213421 0.822694 0.526902
vn 0.213421 0.822694 0.526902
vn 0.213421 0.822694 0.526902
vn 0.213421 0.822694 0.526902
vn 0.213421 0.822694 0.526902
vn 0.798437 -0.407106 0.443579
vn 0.798437 -0.407106 0.443579
vn 0.798437 -0.407106 0.443579
vn 0.516825 -0.829534 -0.211580
vn 0.516825 -0.829534 -0.211580
vn 0.516825 -0.829534 -0.211580
vn 0.516825 -0.829534 -0.211580
vn 0.516825 -0.829534 -0.211580
vn 0.516825 -0.829533 -0.211580
vn 0.198645 -0.831299 -0.519116
vn 0.198645 -0.831299 -0.519116
vn 0.198645 -0.831299 -0.519116
vn 0.198645 -0.831299 -0.519116
vn 0.198645 -0.831299 -0.519116
vn 0.198645 -0.831299 -0.519116
vn 0.302804 -0.561956 -0.769750
vn 0.302804 -0.561956 -0.769750
vn 0.302804 -0.561956 -0.769750
vn 0.719498 -0.593691 -0.360351
vn 0.719498 -0.593691 -0.360351
vn 0.719498 -0.593691 -0.360351
vn 0.704252 -0.658611 -0.265068
vn 0.704252 -0.658611 -0.265068
vn 0.704252 -0.658611 -0.265068
vn 0.796657 -0.416071 -0.438431
vn 0.796657 -0.416071 -0.438431
vn 0.796657 -0.416071 -0.438431
vn 0.334679 -0.413855 -0.846590
vn 0.334679 -0.413855 -0.846590
vn 0.334679 -0.413855 -0.846590
vn 0.167426 -0.328760 -0.929454
vn 0.167426 -0.328760 -0.929454
vn 0.167426 -0.328760 -0.929454
vn 0.318952 -0.228079 -0.919918
vn 0.318952 -0.228079 -0.919918
vn 0.318952 -0.228079 -0.919918
vn 0.210703 -0.832856 0.511815
vn 0.210703 -0.832856 0.511815
vn 0.210703 -0.832856 0.511815
vn 0.210703 -0.832856 0.511815
vn 0.210703 -0.832856 0.511815
vn 0.210703 -0.832856 0.511815
vn 0.302804 -0.561956 0.769750
vn 0.302804 -0.561956 0.769750
vn 0.302804 -0.561956 0.769750
vn 0.719498 -0.593691 0.360351
vn 0.719498 -0.593691 0.360351
vn 0.719498 -0.593691 0.360351
vn 0.704251 -0.658611 0.265068
vn 0.704251 -0.658611 0.265068
vn 0.704251 -0.658611 0.265068
vn 0.201252 -0.387390 0.899682
vn 0.201252 -0.387390 0.899682
vn 0.201252 -0.387390 0.899681
vn 0.958907 -0.283662 0.005722
vn 0.902081 -0.275102 0.332519
vn 0.958984 -0.283421 -0.004764
vn 0.958984 -0.283421 -0.004764
vn 0.902081 -0.275102 0.332519
vn 0.902081 -0.275102 0.332519
vn 0.888245 0.285859 0.359592
vn 0.888245 0.285859 0.359592
vn 0.888245 0.285859 0.359592
vn 0.337801 -0.395607 0.854041
vn 0.337801 -0.395607 0.854041
vn 0.337801 -0.395607 0.854041
vn 0.905875 -0.259394 -0.334822
vn 0.905875 -0.259394 -0.334822
vn 0.958984 -0.283421 -0.004764
vn 0.958984 -0.283421 -0.004764
vn 0.905875 -0.259394 -0.334822
vn 0.958907 -0.283662 0.005722
vn 0.888245 0.285858 -0.359592
vn 0.888245 0.285858 -0.359592
vn 0.888245 0.285858 -0.359592
vn 0.365824 -0.274885 0.889163
vn 0.365824 -0.274885 0.889163
vn 0.365824 -0.274885 0.889163
s off
g Body
usemtl None
f 4/1/1 6/2/2 7/3/3
f 5/4/4 4/1/5 7/3/6
f 9/5/7 7/3/8 6/2/9
f 7/3/10 9/5/11 5/4/12
f 8/6/13 10/7/14 6/2/15
f 10/7/16 9/5/17 6/2/18
f 10/7/19 8/6/20 11/8/21
f 9/5/22 10/7/23 11/8/24
f 9/5/25 11/8/26 3/9/27
f 9/5/28 3/9/29 5/4/30
f 1/10/31 13/11/32 12/12/33
f 2/13/34 13/11/35 1/10/36
f 14/14/37 12/12/38 13/11/39
f 13/11/40 2/13/41 14/14/42
f 8/6/43 12/12/44 15/15/45
f 15/15/46 12/12/47 14/14/48
f 15/15/49 11/8/50 8/6/51
f 14/14/52 11/8/53 15/15/54
f 14/14/55 3/9/56 11/8/57
f 14/14/58 2/13/59 3/9/60
f 27/16/61 28/17/62 18/18/63
f 18/18/64 28/17/65 19/19/66
f 22/24/67 6/29/68 21/23/69
f 21/23/70 6/29/71 4/30/72
f 23/25/73 8/31/74 22/24/75
f 22/24/76 8/31/77 6/29/78
f 24/27/79 12/32/80 23/26/81
f 23/26/82 12/32/83 8/33/84
f 25/28/85 1/34/86 24/27/87
f 24/27/88 1/34/89 12/32/90
f 37/36/91 31/37/92 39/38/93
f 26/39/94 27/40/95 17/20/96
f 17/20/97 27/40/98 18/21/99
f 30/41/100 26/39/101 16/35/102
f 16/35/103 26/39/104 17/20/105
f 33/42/106 35/43/107 34/44/108
f 36/45/109 34/44/110 35/43/111
f 37/36/112 36/45/113 35/43/114
f 37/36/115 35/43/116 31/37/117
f 35/43/118 33/42/119 31/37/120
f 34/44/121 30/46/122 33/42/123
f 30/46/124 34/44/125 26/47/126
f 28/17/127 29/48/128 19/19/129
f 19/19/130 29/48/131 20/22/132
f 32/49/133 40/50/134 39/38/135
f 41/51/136 39/38/137 40/50/138
f 37/36/139 39/38/140 41/51/141
f 29/52/142 40/50/143 32/49/144
f 40/50/145 28/53/146 38/54/147
f 38/54/148 28/53/149 27/55/150
f 41/51/151 40/50/152 38/54/153
f 39/38/154 31/37/155 32/49/156
f 27/55/157 26/47/158 38/54/159
f 38/54/160 26/47/161 34/44/162
f 36/45/163 38/54/164 34/44/165
f 40/50/166 29/52/167 28/53/168
f 4/56/169 43/57/170 42/58/171
f 5/59/172 43/57/173 4/56/174
f 44/60/175 42/58/176 43/57/177
f 43/57/178 5/59/179 44/60/180
f 45/61/181 42/58/182 46/62/183
f 46/62/184 42/58/185 44/60/186
f 46/62/187 47/63/188 45/61/189
f 44/60/190 47/63/191 46/62/192
f 44/60/193 3/64/194 47/63/195
f 44/60/196 5/59/197 3/64/198
f 1/65/199 49/66/200 48/67/201
f 2/68/202 1/65/203 48/67/204
f 50/69/205 48/67/206 49/66/207
f 48/67/208 50/69/209 2/68/210
f 45/61/211 51/70/212 49/66/213
f 51/70/214 50/69/215 49/66/216
f 51/70/217 45/61/218 47/63/219
f 50/69/220 51/70/221 47/63/222
f 50/69/223 47/63/224 3/64/225
f 50/69/226 3/64/227 2/68/228
f 52/71/229 55/72/230 53/73/231
f 53/73/232 55/72/233 54/74/234
f 4/84/235 42/85/236 21/78/237
f 21/78/238 42/85/239 57/79/240
f 42/85/241 45/86/242 57/79/243
f 57/79/244 45/86/245 58/80/246
f 45/87/247 49/88/248 58/81/249
f 58/81/250 49/88/251 59/82/252
f 49/88/253 1/89/254 59/82/255
f 59/82/256 1/89/257 25/83/258
f 61/91/259 62/92/260 31/93/261
f 55/76/262 52/94/263 56/75/264
f 56/75/265 52/94/266 63/95/267
f 56/75/268 63/95/269 16/90/270
f 16/90/271 63/95/272 30/96/273
f 33/97/274 65/98/275 64/99/276
f 60/100/277 64/99/278 65/98/279
f 61/91/280 64/99/281 60/100/282
f 61/91/283 31/93/284 64/99/285
f 64/99/286 31/93/287 33/97/288
f 65/98/289 33/97/290 30/101/291
f 30/101/292 63/102/293 65/98/294
f 20/77/295 29/103/296 54/74/297
f 54/74/298 29/103/299 53/73/300
f 32/104/301 62/92/302 67/105/303
f 68/106/304 67/105/305 62/92/306
f 61/91/307 68/106/308 62/92/309
f 29/107/310 32/104/311 67/105/312
f 52/108/313 53/109/314 66/110/315
f 66/110/316 53/109/317 67/105/318
f 68/106/319 66/110/320 67/105/321
f 62/92/322 32/104/323 31/93/324
f 65/98/325 63/102/326 66/110/327
f 66/110/328 63/102/329 52/108/330
f 60/100/331 65/98/332 66/110/333
f 67/105/334 53/109/335 29/107/336
