# This file uses centimeters as units for non-parametric coordinates.

mtllib ChandelureBFlame.mtl
g default1
v 0.602458 -0.075700 -0.602458
v 0.000000 -0.075700 -0.852004
v -0.602458 -0.075700 -0.602458
v -0.852004 -0.075700 0.000000
v -0.602458 -0.075700 0.602458
v 0.000000 -0.075700 0.852004
v 0.602458 -0.075700 0.602458
v 0.852004 -0.075700 0.000000
v 0.699457 0.558569 -0.787571
v 0.104124 0.620176 -1.035483
v -0.458715 0.681784 -0.787571
v -0.705310 0.707300 -0.189059
v -0.458715 0.681784 0.409453
v 0.104124 0.620176 0.657366
v 0.699457 0.558569 0.409453
v 0.946052 0.533052 -0.189059
v 0.434823 2.149234 -0.713486
v -0.075332 2.071373 -0.940562
v -0.617983 1.993512 -0.713486
v -0.842755 1.961261 -0.165280
v -0.617983 1.993512 0.382928
v -0.075332 2.071373 0.610003
v 0.434823 2.149234 0.382928
v 0.659596 2.181483 -0.165280
v 0.585205 3.624540 -0.268899
v 0.172810 3.522569 -0.444864
v -0.207092 3.420599 -0.268899
v -0.377912 3.378360 0.155917
v -0.207092 3.420599 0.580733
v 0.172810 3.522569 0.756697
v 0.585205 3.624540 0.580733
v 0.756025 3.666777 0.155917
v -0.019700 4.934681 -0.151589
v -0.300201 4.973765 -0.268899
v -0.580702 5.012849 -0.151589
v -0.696889 5.029038 0.131621
v -0.580702 5.012849 0.414831
v -0.300201 4.973765 0.532142
v -0.019700 4.934681 0.414831
v 0.063992 4.918492 0.131621
v 0.072030 6.363424 -0.393694
v -0.023009 6.424963 -0.452348
v -0.150543 6.486502 -0.393694
v -0.203369 6.511993 -0.252089
v -0.150543 6.486502 -0.110484
v -0.023009 6.424963 -0.051829
v 0.072030 6.363424 -0.110484
v 0.124858 6.337931 -0.252089
v 0.701852 7.876160 -0.809515
vt 0.395363 0.130111
vt 0.359011 0.130111
vt 0.364161 0.192203
vt 0.389633 0.189567
vt 0.322658 0.130111
vt 0.338689 0.194839
vt 0.307600 0.130111
vt 0.328138 0.195931
vt 0.322658 0.130111
vt 0.338689 0.194839
vt 0.359011 0.130111
vt 0.364161 0.192203
vt 0.395363 0.130111
vt 0.389633 0.189567
vt 0.410421 0.130111
vt 0.400184 0.188475
vt 0.355092 0.254295
vt 0.378310 0.257626
vt 0.331874 0.250963
vt 0.322257 0.249583
vt 0.331874 0.250963
vt 0.355092 0.254295
vt 0.378310 0.257626
vt 0.387928 0.259006
vt 0.367100 0.316386
vt 0.384745 0.320749
vt 0.349455 0.312023
vt 0.342146 0.310216
vt 0.349455 0.312023
vt 0.367100 0.316386
vt 0.384745 0.320749
vt 0.392053 0.322556
vt 0.345471 0.378477
vt 0.357473 0.376805
vt 0.333469 0.380150
vt 0.328498 0.380842
vt 0.333469 0.380150
vt 0.345471 0.378477
vt 0.357473 0.376805
vt 0.362444 0.376112
vt 0.357331 0.440569
vt 0.362788 0.437936
vt 0.351874 0.443202
vt 0.349614 0.444293
vt 0.351874 0.443202
vt 0.357331 0.440569
vt 0.362788 0.437936
vt 0.365048 0.436845
vt 0.389736 0.502660
vn 0.713616 0.071247 -0.696904
vn -0.027446 0.076647 -0.996680
vn 0.706222 0.106756 -0.699895
vn 0.027894 0.074771 -0.996811
vn -0.726309 0.181845 -0.662879
vn -0.678702 0.085367 -0.729435
vn -0.027446 0.076647 -0.996680
vn 0.027894 0.074771 -0.996811
vn -0.951400 0.305534 0.038564
vn -0.989811 0.140531 -0.022909
vn -0.726309 0.181845 -0.662879
vn -0.678702 0.085367 -0.729435
vn -0.641351 0.381036 0.665944
vn -0.686158 0.212070 0.695855
vn -0.951400 0.305534 0.038564
vn -0.989811 0.140531 -0.022909
vn -0.641351 0.381036 0.665944
vn -0.012404 0.383022 0.923656
vn -0.686158 0.212070 0.695855
vn 0.034192 0.249820 0.967688
vn -0.012404 0.383022 0.923656
vn 0.643634 0.308391 0.700450
vn 0.034192 0.249820 0.967688
vn 0.716199 0.229260 0.659166
vn 0.643634 0.308391 0.700450
vn 0.983099 0.177804 0.043622
vn 0.716199 0.229260 0.659166
vn 0.985482 0.168162 -0.023375
vn 0.983099 0.177804 0.043622
vn 0.713616 0.071247 -0.696904
vn 0.985482 0.168162 -0.023375
vn 0.706222 0.106756 -0.699895
vn 0.706222 0.106756 -0.699895
vn 0.027894 0.074771 -0.996811
vn 0.675036 0.159239 -0.720395
vn -0.051039 0.191747 -0.980116
vn 0.027894 0.074771 -0.996811
vn -0.678702 0.085367 -0.729435
vn -0.051039 0.191747 -0.980116
vn -0.720082 0.157889 -0.675687
vn -0.678702 0.085367 -0.729435
vn -0.989811 0.140531 -0.022909
vn -0.720082 0.157889 -0.675687
vn -0.995301 0.094293 -0.022034
vn -0.686158 0.212070 0.695855
vn -0.739974 0.026083 0.672130
vn -0.989811 0.140531 -0.022909
vn -0.995301 0.094293 -0.022034
vn 0.034192 0.249820 0.967688
vn -0.014977 -0.021388 0.999659
vn -0.686158 0.212070 0.695855
vn -0.739974 0.026083 0.672130
vn 0.716199 0.229260 0.659166
vn 0.718774 -0.004712 0.695228
vn 0.034192 0.249820 0.967688
vn -0.014977 -0.021388 0.999659
vn 0.985482 0.168162 -0.023375
vn 0.997175 0.072551 -0.019442
vn 0.716199 0.229260 0.659166
vn 0.718774 -0.004712 0.695228
vn 0.985482 0.168162 -0.023375
vn 0.706222 0.106756 -0.699895
vn 0.997175 0.072551 -0.019442
vn 0.675036 0.159239 -0.720395
vn -0.051039 0.191747 -0.980116
vn 0.019419 0.241951 -0.970094
vn 0.675036 0.159239 -0.720395
vn 0.732194 0.221864 -0.643947
vn -0.720082 0.157889 -0.675687
vn -0.707489 0.196668 -0.678808
vn -0.051039 0.191747 -0.980116
vn 0.019419 0.241951 -0.970094
vn -0.720082 0.157889 -0.675687
vn -0.995301 0.094293 -0.022034
vn -0.707489 0.196668 -0.678808
vn -0.994667 0.099722 0.026329
vn -0.995301 0.094293 -0.022034
vn -0.739974 0.026083 0.672130
vn -0.994667 0.099722 0.026329
vn -0.671216 0.005056 0.741244
vn -0.739974 0.026083 0.672130
vn -0.014977 -0.021388 0.999659
vn -0.671216 0.005056 0.741244
vn 0.075221 -0.002621 0.997163
vn -0.014977 -0.021388 0.999659
vn 0.718774 -0.004712 0.695228
vn 0.075221 -0.002621 0.997163
vn 0.731725 0.075031 0.677458
vn 0.997175 0.072551 -0.019442
vn 0.986397 0.160713 0.034523
vn 0.718774 -0.004712 0.695228
vn 0.731725 0.075031 0.677458
vn 0.675036 0.159239 -0.720395
vn 0.732194 0.221864 -0.643947
vn 0.997175 0.072551 -0.019442
vn 0.986397 0.160713 0.034523
vn 0.732194 0.221864 -0.643947
vn 0.019419 0.241951 -0.970094
vn 0.654674 0.171162 -0.736278
vn -0.103831 0.005598 -0.994579
vn 0.019419 0.241951 -0.970094
vn -0.707489 0.196668 -0.678808
vn -0.103831 0.005598 -0.994579
vn -0.761303 -0.041634 -0.647058
vn -0.707489 0.196668 -0.678808
vn -0.994667 0.099722 0.026329
vn -0.761303 -0.041634 -0.647058
vn -0.999788 0.000608 0.020597
vn -0.671216 0.005056 0.741244
vn -0.728585 0.083303 0.679872
vn -0.994667 0.099722 0.026329
vn -0.999788 0.000608 0.020597
vn 0.075221 -0.002621 0.997163
vn -0.064470 0.200598 0.977550
vn -0.671216 0.005056 0.741244
vn -0.728585 0.083303 0.679872
vn 0.731725 0.075031 0.677458
vn 0.625650 0.312604 0.714731
vn 0.075221 -0.002621 0.997163
vn -0.064470 0.200598 0.977550
vn 0.986397 0.160713 0.034523
vn 0.948211 0.317031 0.019689
vn 0.731725 0.075031 0.677458
vn 0.625650 0.312604 0.714731
vn 0.986397 0.160713 0.034523
vn 0.732194 0.221864 -0.643947
vn 0.948211 0.317031 0.019689
vn 0.654674 0.171162 -0.736278
vn 0.654674 0.171162 -0.736278
vn -0.103831 0.005598 -0.994579
vn 0.618228 -0.254420 -0.743683
vn -0.100440 -0.129120 -0.986529
vn -0.761303 -0.041634 -0.647058
vn -0.712542 0.137529 -0.688019
vn -0.103831 0.005598 -0.994579
vn -0.100440 -0.129120 -0.986529
vn -0.999788 0.000608 0.020597
vn -0.924338 0.380874 -0.023105
vn -0.761303 -0.041634 -0.647058
vn -0.712542 0.137529 -0.688019
vn -0.728585 0.083303 0.679872
vn -0.605299 0.467686 0.644114
vn -0.999788 0.000608 0.020597
vn -0.924338 0.380874 -0.023105
vn -0.064470 0.200598 0.977550
vn 0.065225 0.372049 0.925919
vn -0.728585 0.083303 0.679872
vn -0.605299 0.467686 0.644114
vn -0.064470 0.200598 0.977550
vn 0.625650 0.312604 0.714731
vn 0.065225 0.372049 0.925919
vn 0.723951 0.143047 0.674857
vn 0.625650 0.312604 0.714731
vn 0.948211 0.317031 0.019689
vn 0.723951 0.143047 0.674857
vn 0.991401 -0.128927 -0.022423
vn 0.948211 0.317031 0.019689
vn 0.654674 0.171162 -0.736278
vn 0.991401 -0.128927 -0.022423
vn 0.618228 -0.254420 -0.743683
vn 0.000000 -1.000000 0.000000
vn 0.000000 -1.000000 0.000000
vn 0.000000 -1.000000 0.000000
vn 0.000000 -1.000000 0.000000
vn 0.000000 -1.000000 0.000000
vn 0.000000 -1.000000 0.000000
vn 0.000000 -1.000000 0.000000
vn 0.000000 -1.000000 0.000000
vn 0.618228 -0.254420 -0.743683
vn -0.100440 -0.129120 -0.986529
vn 0.246219 -0.350858 -0.903479
vn -0.100440 -0.129120 -0.986529
vn -0.712542 0.137529 -0.688019
vn -0.419600 -0.004421 -0.907698
vn -0.712542 0.137529 -0.688019
vn -0.924338 0.380874 -0.023105
vn -0.826913 0.412051 -0.382659
vn -0.924338 0.380874 -0.023105
vn -0.605299 0.467686 0.644114
vn -0.688542 0.624167 0.369223
vn -0.605299 0.467686 0.644114
vn 0.065225 0.372049 0.925919
vn -0.140503 0.514866 0.845678
vn 0.065225 0.372049 0.925919
vn 0.723951 0.143047 0.674857
vn 0.485096 0.192232 0.853070
vn 0.723951 0.143047 0.674857
vn 0.991401 -0.128927 -0.022423
vn 0.904697 -0.203758 0.374173
vn 0.991401 -0.128927 -0.022423
vn 0.618228 -0.254420 -0.743683
vn 0.811067 -0.442765 -0.382270
s 1
g polySurface4
usemtl None
f 1/1/1 2/2/2 9/4/3
f 9/4/3 2/2/2 10/3/4
s 2
f 3/5/5 11/6/6 2/2/7
f 2/2/7 11/6/6 10/3/8
s 3
f 4/7/9 12/8/10 3/5/11
f 3/5/11 12/8/10 11/6/12
s 4
f 5/9/13 13/10/14 4/7/15
f 4/7/15 13/10/14 12/8/16
s 5
f 5/9/17 6/11/18 13/10/19
f 13/10/19 6/11/18 14/12/20
s 6
f 6/11/21 7/13/22 14/12/23
f 14/12/23 7/13/22 15/14/24
s 7
f 7/13/25 8/15/26 15/14/27
f 15/14/27 8/15/26 16/16/28
s 8
f 8/15/29 1/1/30 16/16/31
f 16/16/31 1/1/30 9/4/32
s 9
f 9/4/33 10/3/34 17/18/35
f 17/18/35 10/3/34 18/17/36
s 10
f 10/3/37 11/6/38 18/17/39
f 18/17/39 11/6/38 19/19/40
s 11
f 11/6/41 12/8/42 19/19/43
f 19/19/43 12/8/42 20/20/44
s 12
f 13/10/45 21/21/46 12/8/47
f 12/8/47 21/21/46 20/20/48
s 13
f 14/12/49 22/22/50 13/10/51
f 13/10/51 22/22/50 21/21/52
s 14
f 15/14/53 23/23/54 14/12/55
f 14/12/55 23/23/54 22/22/56
s 15
f 16/16/57 24/24/58 15/14/59
f 15/14/59 24/24/58 23/23/60
s 16
f 16/16/61 9/4/62 24/24/63
f 24/24/63 9/4/62 17/18/64
s 17
f 18/17/65 26/25/66 17/18/67
f 17/18/67 26/25/66 25/26/68
s 18
f 19/19/69 27/27/70 18/17/71
f 18/17/71 27/27/70 26/25/72
s 19
f 19/19/73 20/20/74 27/27/75
f 27/27/75 20/20/74 28/28/76
s 20
f 20/20/77 21/21/78 28/28/79
f 28/28/79 21/21/78 29/29/80
s 21
f 21/21/81 22/22/82 29/29/83
f 29/29/83 22/22/82 30/30/84
s 22
f 22/22/85 23/23/86 30/30/87
f 30/30/87 23/23/86 31/31/88
s 23
f 24/24/89 32/32/90 23/23/91
f 23/23/91 32/32/90 31/31/92
s 24
f 17/18/93 25/26/94 24/24/95
f 24/24/95 25/26/94 32/32/96
s 25
f 25/26/97 26/25/98 33/34/99
f 33/34/99 26/25/98 34/33/100
s 26
f 26/25/101 27/27/102 34/33/103
f 34/33/103 27/27/102 35/35/104
s 27
f 27/27/105 28/28/106 35/35/107
f 35/35/107 28/28/106 36/36/108
s 28
f 29/29/109 37/37/110 28/28/111
f 28/28/111 37/37/110 36/36/112
s 29
f 30/30/113 38/38/114 29/29/115
f 29/29/115 38/38/114 37/37/116
s 30
f 31/31/117 39/39/118 30/30/119
f 30/30/119 39/39/118 38/38/120
s 31
f 32/32/121 40/40/122 31/31/123
f 31/31/123 40/40/122 39/39/124
s 32
f 32/32/125 25/26/126 40/40/127
f 40/40/127 25/26/126 33/34/128
s 33
f 33/34/129 34/33/130 41/42/131
f 41/42/131 34/33/130 42/41/132
s 34
f 35/35/133 43/43/134 34/33/135
f 34/33/135 43/43/134 42/41/136
s 35
f 36/36/137 44/44/138 35/35/139
f 35/35/139 44/44/138 43/43/140
s 36
f 37/37/141 45/45/142 36/36/143
f 36/36/143 45/45/142 44/44/144
s 37
f 38/38/145 46/46/146 37/37/147
f 37/37/147 46/46/146 45/45/148
s 38
f 38/38/149 39/39/150 46/46/151
f 46/46/151 39/39/150 47/47/152
s 39
f 39/39/153 40/40/154 47/47/155
f 47/47/155 40/40/154 48/48/156
s 40
f 40/40/157 33/34/158 48/48/159
f 48/48/159 33/34/158 41/42/160
s 41
f 1/1/161 8/15/162 2/2/163
f 8/15/162 7/13/164 2/2/163
f 7/13/164 6/11/165 2/2/163
f 6/11/165 5/9/166 2/2/163
f 5/9/166 4/7/167 2/2/163
f 4/7/167 3/5/168 2/2/163
s off
f 41/42/169 42/41/170 49/49/171
f 42/41/172 43/43/173 49/49/174
f 43/43/175 44/44/176 49/49/177
f 44/44/178 45/45/179 49/49/180
f 45/45/181 46/46/182 49/49/183
f 46/46/184 47/47/185 49/49/186
f 47/47/187 48/48/188 49/49/189
f 48/48/190 41/42/191 49/49/192
