# This file uses centimeters as units for non-parametric coordinates.

mtllib ChandelureGlass.mtl
g default
v 0.000000 0.758267 -2.488424
v -1.759581 0.758267 -1.759581
v -2.488424 0.758267 -0.000000
v -1.759581 0.758267 1.759581
v 0.000000 0.758267 2.488424
v -0.000000 1.600730 -2.693450
v -1.904557 1.600730 -1.904557
v -2.693450 1.600730 -0.000000
v -1.904557 1.600730 1.904557
v -0.000000 1.600730 2.693450
v 0.000000 2.405623 -2.488424
v -1.759581 2.405623 -1.759581
v -2.488424 2.405623 -0.000000
v -1.759581 2.405623 1.759581
v 0.000000 2.405623 2.488424
v 2.488424 0.758267 0.000000
v 1.759581 0.758267 -1.759581
v 1.759581 0.758267 1.759581
v 1.904557 1.600730 -1.904557
v 2.693450 1.600730 -0.000000
v 1.904557 1.600730 1.904557
v 1.759581 2.405623 -1.759581
v 2.488424 2.405623 -0.000000
v 1.759581 2.405623 1.759581
v -1.346725 -0.003539 -1.346725
v -1.904557 -0.003539 -0.000000
v -1.346725 -0.003539 1.346725
v 0.000000 -0.003539 1.904557
v -1.346725 3.279442 -1.346725
v 0.000000 3.279442 -1.904557
v -1.904557 3.279442 0.000000
v -1.346725 3.279442 1.346725
v 0.000000 3.279442 1.904557
v 0.000000 -0.003539 -1.904557
v 1.904557 -0.003539 0.000000
v 1.346725 -0.003539 -1.346725
v 1.346725 -0.003539 1.346725
v 1.346725 3.279442 -1.346725
v 1.904557 3.279442 0.000000
v 1.346725 3.279442 1.346725
vt 0.224178 0.517029
vt 0.129105 0.517029
vt 0.224178 0.578717
vt 0.099959 0.578717
vt 0.643427 0.517029
vt 0.548354 0.517029
vt 0.672573 0.578717
vt 0.548354 0.578717
vt 0.453280 0.517029
vt 0.424135 0.578717
vt 0.348397 0.578717
vt 0.358632 0.651483
vt 0.224178 0.651483
vt 0.089724 0.651483
vt 0.682808 0.651483
vt 0.548354 0.651483
vt 0.413900 0.651483
vt 0.348397 0.724249
vt 0.224178 0.724249
vt 0.099959 0.724249
vt 0.672573 0.724249
vt 0.548354 0.724249
vt 0.424135 0.724249
vt 0.319251 0.785937
vt 0.224178 0.785937
vt 0.129105 0.785937
vt 0.643427 0.785937
vt 0.548354 0.785937
vt 0.453280 0.785937
vt 0.319251 0.517029
vt 0.224178 0.517029
vt 0.224178 0.578717
vt 0.129105 0.517029
vt 0.099959 0.578717
vt 0.643427 0.517029
vt 0.672573 0.578717
vt 0.548354 0.517029
vt 0.548354 0.578717
vt 0.453280 0.517029
vt 0.424135 0.578717
vt 0.348397 0.578717
vt 0.358632 0.651483
vt 0.224178 0.651483
vt 0.089724 0.651483
vt 0.682808 0.651483
vt 0.548354 0.651483
vt 0.413900 0.651483
vt 0.348397 0.724249
vt 0.224178 0.724249
vt 0.099959 0.724249
vt 0.672573 0.724249
vt 0.548354 0.724249
vt 0.424135 0.724249
vt 0.319251 0.785937
vt 0.224178 0.785937
vt 0.129105 0.785937
vt 0.643427 0.785937
vt 0.548354 0.785937
vt 0.453280 0.785937
vt 0.319251 0.517029
vn -0.786151 -0.525289 -0.325634
vn -0.786151 -0.525289 -0.325634
vn -0.786151 -0.525289 -0.325634
vn -0.786151 -0.525289 -0.325634
vn -0.786151 -0.525289 -0.325634
vn -0.786151 -0.525289 -0.325634
vn -0.786151 -0.525289 0.325634
vn -0.786151 -0.525289 0.325634
vn -0.786151 -0.525289 0.325634
vn -0.786151 -0.525289 0.325634
vn -0.786151 -0.525289 0.325634
vn -0.786151 -0.525289 0.325634
vn -0.325634 -0.525289 0.786151
vn -0.325634 -0.525289 0.786151
vn -0.325634 -0.525289 0.786151
vn -0.325634 -0.525289 0.786151
vn -0.325634 -0.525289 0.786151
vn -0.325634 -0.525289 0.786151
vn -0.376381 -0.180744 -0.908663
vn -0.376381 -0.180744 -0.908663
vn -0.376381 -0.180744 -0.908663
vn -0.376381 -0.180744 -0.908663
vn -0.376381 -0.180744 -0.908663
vn -0.376381 -0.180744 -0.908663
vn -0.908663 -0.180744 -0.376381
vn -0.908663 -0.180744 -0.376381
vn -0.908663 -0.180744 -0.376381
vn -0.908663 -0.180744 -0.376381
vn -0.908663 -0.180744 -0.376381
vn -0.908663 -0.180744 -0.376381
vn -0.908663 -0.180744 0.376381
vn -0.908663 -0.180744 0.376381
vn -0.908663 -0.180744 0.376381
vn -0.908663 -0.180744 0.376381
vn -0.908663 -0.180744 0.376381
vn -0.908663 -0.180744 0.376381
vn -0.376381 -0.180744 0.908663
vn -0.376381 -0.180744 0.908663
vn -0.376381 -0.180744 0.908663
vn -0.376381 -0.180744 0.908663
vn -0.376381 -0.180744 0.908663
vn -0.376381 -0.180744 0.908663
vn -0.376381 0.180744 -0.908663
vn -0.376381 0.180744 -0.908663
vn -0.376381 0.180744 -0.908663
vn -0.376381 0.180744 -0.908663
vn -0.376381 0.180744 -0.908663
vn -0.376381 0.180744 -0.908663
vn -0.908663 0.180744 -0.376381
vn -0.908663 0.180744 -0.376381
vn -0.908663 0.180744 -0.376381
vn -0.908663 0.180744 -0.376381
vn -0.908663 0.180744 -0.376381
vn -0.908663 0.180744 -0.376381
vn -0.908663 0.180744 0.376381
vn -0.908663 0.180744 0.376381
vn -0.908663 0.180744 0.376381
vn -0.908663 0.180744 0.376381
vn -0.908663 0.180744 0.376381
vn -0.908663 0.180744 0.376381
vn -0.376381 0.180744 0.908663
vn -0.376381 0.180744 0.908663
vn -0.376381 0.180744 0.908663
vn -0.376381 0.180744 0.908663
vn -0.376381 0.180744 0.908663
vn -0.376381 0.180744 0.908663
vn -0.325634 0.525289 -0.786151
vn -0.325634 0.525289 -0.786151
vn -0.325634 0.525289 -0.786151
vn -0.325634 0.525289 -0.786151
vn -0.325634 0.525289 -0.786151
vn -0.325634 0.525289 -0.786151
vn -0.786151 0.525289 -0.325634
vn -0.786151 0.525289 -0.325634
vn -0.786151 0.525289 -0.325634
vn -0.786151 0.525289 -0.325634
vn -0.786151 0.525289 -0.325634
vn -0.786151 0.525289 -0.325634
vn -0.786151 0.525289 0.325634
vn -0.786151 0.525289 0.325634
vn -0.786151 0.525289 0.325634
vn -0.786151 0.525289 0.325634
vn -0.786151 0.525289 0.325634
vn -0.786151 0.525289 0.325634
vn -0.325634 0.525289 0.786151
vn -0.325634 0.525289 0.786151
vn -0.325634 0.525289 0.786151
vn -0.325634 0.525289 0.786151
vn -0.325634 0.525289 0.786151
vn -0.325634 0.525289 0.786151
vn -0.325634 -0.525289 -0.786151
vn -0.325634 -0.525289 -0.786151
vn -0.325634 -0.525289 -0.786151
vn -0.325634 -0.525289 -0.786151
vn -0.325634 -0.525289 -0.786151
vn -0.325634 -0.525289 -0.786151
vn 0.786151 -0.525289 -0.325635
vn 0.786151 -0.525289 -0.325635
vn 0.786151 -0.525289 -0.325635
vn 0.786151 -0.525289 -0.325635
vn 0.786151 -0.525289 -0.325635
vn 0.786151 -0.525289 -0.325635
vn 0.786151 -0.525289 0.325634
vn 0.786151 -0.525289 0.325634
vn 0.786151 -0.525289 0.325634
vn 0.786151 -0.525289 0.325634
vn 0.786151 -0.525289 0.325634
vn 0.786151 -0.525289 0.325634
vn 0.325634 -0.525289 0.786151
vn 0.325634 -0.525289 0.786151
vn 0.325634 -0.525289 0.786151
vn 0.325634 -0.525289 0.786151
vn 0.325634 -0.525289 0.786151
vn 0.325634 -0.525289 0.786151
vn 0.376381 -0.180744 -0.908663
vn 0.376381 -0.180744 -0.908663
vn 0.376381 -0.180744 -0.908663
vn 0.376381 -0.180744 -0.908663
vn 0.376381 -0.180744 -0.908663
vn 0.376381 -0.180744 -0.908663
vn 0.908663 -0.180744 -0.376381
vn 0.908663 -0.180744 -0.376381
vn 0.908663 -0.180744 -0.376381
vn 0.908663 -0.180744 -0.376381
vn 0.908663 -0.180744 -0.376381
vn 0.908663 -0.180744 -0.376381
vn 0.908663 -0.180744 0.376381
vn 0.908663 -0.180744 0.376381
vn 0.908663 -0.180744 0.376381
vn 0.908663 -0.180744 0.376381
vn 0.908663 -0.180744 0.376381
vn 0.908663 -0.180744 0.376381
vn 0.376381 -0.180744 0.908663
vn 0.376381 -0.180744 0.908663
vn 0.376381 -0.180744 0.908663
vn 0.376381 -0.180744 0.908663
vn 0.376381 -0.180744 0.908663
vn 0.376381 -0.180744 0.908663
vn 0.376381 0.180744 -0.908663
vn 0.376381 0.180744 -0.908663
vn 0.376381 0.180744 -0.908663
vn 0.376381 0.180744 -0.908663
vn 0.376381 0.180744 -0.908663
vn 0.376381 0.180744 -0.908663
vn 0.908663 0.180744 -0.376381
vn 0.908663 0.180744 -0.376381
vn 0.908663 0.180744 -0.376381
vn 0.908663 0.180744 -0.376381
vn 0.908663 0.180744 -0.376381
vn 0.908663 0.180744 -0.376381
vn 0.908663 0.180744 0.376381
vn 0.908663 0.180744 0.376381
vn 0.908663 0.180744 0.376381
vn 0.908663 0.180744 0.376381
vn 0.908663 0.180744 0.376381
vn 0.908663 0.180744 0.376381
vn 0.376381 0.180744 0.908663
vn 0.376381 0.180744 0.908663
vn 0.376381 0.180744 0.908663
vn 0.376381 0.180744 0.908663
vn 0.376381 0.180744 0.908663
vn 0.376381 0.180744 0.908663
vn 0.325634 0.525289 -0.786151
vn 0.325634 0.525289 -0.786151
vn 0.325634 0.525289 -0.786151
vn 0.325634 0.525289 -0.786151
vn 0.325634 0.525289 -0.786151
vn 0.325634 0.525289 -0.786151
vn 0.786151 0.525289 -0.325635
vn 0.786151 0.525289 -0.325635
vn 0.786151 0.525289 -0.325635
vn 0.786151 0.525289 -0.325635
vn 0.786151 0.525289 -0.325635
vn 0.786151 0.525289 -0.325635
vn 0.786151 0.525289 0.325635
vn 0.786151 0.525289 0.325635
vn 0.786151 0.525289 0.325635
vn 0.786151 0.525289 0.325635
vn 0.786151 0.525289 0.325635
vn 0.786151 0.525289 0.325635
vn 0.325634 0.525289 0.786151
vn 0.325634 0.525289 0.786151
vn 0.325634 0.525289 0.786151
vn 0.325634 0.525289 0.786151
vn 0.325634 0.525289 0.786151
vn 0.325634 0.525289 0.786151
vn 0.325634 -0.525289 -0.786151
vn 0.325634 -0.525289 -0.786151
vn 0.325634 -0.525289 -0.786151
vn 0.325634 -0.525289 -0.786151
vn 0.325634 -0.525289 -0.786151
vn 0.325634 -0.525289 -0.786151
s off
g Glass
usemtl None
f 25/1/1 26/2/2 2/3/3
f 2/3/4 26/2/5 3/4/6
f 26/5/7 27/6/8 3/7/9
f 3/7/10 27/6/11 4/8/12
f 27/6/13 28/9/14 4/8/15
f 4/8/16 28/9/17 5/10/18
f 1/11/19 2/3/20 6/12/21
f 6/12/22 2/3/23 7/13/24
f 2/3/25 3/4/26 7/13/27
f 7/13/28 3/4/29 8/14/30
f 3/7/31 4/8/32 8/15/33
f 8/15/34 4/8/35 9/16/36
f 4/8/37 5/10/38 9/16/39
f 9/16/40 5/10/41 10/17/42
f 6/12/43 7/13/44 11/18/45
f 11/18/46 7/13/47 12/19/48
f 7/13/49 8/14/50 12/19/51
f 12/19/52 8/14/53 13/20/54
f 8/15/55 9/16/56 13/21/57
f 13/21/58 9/16/59 14/22/60
f 9/16/61 10/17/62 14/22/63
f 14/22/64 10/17/65 15/23/66
f 11/18/67 12/19/68 30/24/69
f 30/24/70 12/19/71 29/25/72
f 12/19/73 13/20/74 29/25/75
f 29/25/76 13/20/77 31/26/78
f 13/21/79 14/22/80 31/27/81
f 31/27/82 14/22/83 32/28/84
f 14/22/85 15/23/86 32/28/87
f 32/28/88 15/23/89 33/29/90
f 1/11/91 34/30/92 2/3/93
f 2/3/94 34/30/95 25/1/96
f 36/31/97 17/32/98 35/33/99
f 35/33/100 17/32/101 16/34/102
f 35/35/103 16/36/104 37/37/105
f 37/37/106 16/36/107 18/38/108
f 37/37/109 18/38/110 28/39/111
f 28/39/112 18/38/113 5/40/114
f 1/41/115 6/42/116 17/32/117
f 17/32/118 6/42/119 19/43/120
f 17/32/121 19/43/122 16/34/123
f 16/34/124 19/43/125 20/44/126
f 16/36/127 20/45/128 18/38/129
f 18/38/130 20/45/131 21/46/132
f 18/38/133 21/46/134 5/40/135
f 5/40/136 21/46/137 10/47/138
f 6/42/139 11/48/140 19/43/141
f 19/43/142 11/48/143 22/49/144
f 19/43/145 22/49/146 20/44/147
f 20/44/148 22/49/149 23/50/150
f 20/45/151 23/51/152 21/46/153
f 21/46/154 23/51/155 24/52/156
f 21/46/157 24/52/158 10/47/159
f 10/47/160 24/52/161 15/53/162
f 11/48/163 30/54/164 22/49/165
f 22/49/166 30/54/167 38/55/168
f 22/49/169 38/55/170 23/50/171
f 23/50/172 38/55/173 39/56/174
f 23/51/175 39/57/176 24/52/177
f 24/52/178 39/57/179 40/58/180
f 24/52/181 40/58/182 15/53/183
f 15/53/184 40/58/185 33/59/186
f 1/41/187 17/32/188 34/60/189
f 34/60/190 17/32/191 36/31/192
