# Blender v2.76 (sub 0) OBJ File: ''
# www.blender.org
mtllib cheriTaller.mtl
o Esfera.002
v 0.446650 1.505717 0.159595
v 0.581014 1.505717 0.000000
v 1.199067 1.405460 0.000000
v 0.895679 1.454400 0.241411
v 1.075892 0.663245 0.522165
v 0.990244 0.667976 0.000000
v 0.884609 0.959584 0.000000
v 0.872442 1.003399 0.333935
v 0.953577 1.670715 0.000000
v 0.749126 1.720448 0.267033
v 0.393483 2.040020 0.141489
v 0.510124 2.040020 0.000000
v 0.686365 2.110208 0.000000
v 0.577633 2.084241 0.229837
v 0.160202 2.040020 0.378053
v 0.276842 2.040020 0.259771
v 0.364963 2.110208 0.349044
v 0.256230 2.084241 0.555675
v 0.212370 1.454400 0.934712
v 0.656115 1.392970 0.657657
v 0.586041 1.679118 0.548961
v 0.285584 1.720448 0.737243
v 0.474225 0.663245 1.133298
v 0.565111 0.803300 0.550693
v 0.477342 1.076931 0.488442
v 0.325213 1.003399 0.889518
v 0.177924 1.505717 0.432371
v 0.312287 1.505717 0.295983
v 0.000000 1.505717 0.568759
v 0.000000 1.405460 1.208531
v 0.000000 0.667976 0.982189
v 0.000000 0.959584 0.902361
v 0.000000 1.670715 0.921795
v 0.000000 2.040020 0.496336
v 0.000000 2.110208 0.674882
v -0.446650 1.505717 0.159595
v -0.895679 1.454400 0.241411
v -1.199067 1.405460 0.000000
v -0.581014 1.505717 0.000000
v -1.075892 0.663245 0.522165
v -0.872442 1.003399 0.333935
v -0.884609 0.959584 0.000000
v -0.990244 0.667976 0.000000
v -0.749126 1.720448 0.267033
v -0.953577 1.670715 0.000000
v -0.393483 2.040020 0.141489
v -0.577633 2.084241 0.229837
v -0.686365 2.110208 0.000000
v -0.510124 2.040020 0.000000
v -0.160202 2.040020 0.378053
v -0.256230 2.084241 0.555675
v -0.364963 2.110208 0.349044
v -0.276842 2.040020 0.259771
v -0.212370 1.454400 0.934712
v -0.285584 1.720448 0.737243
v -0.586041 1.679118 0.548961
v -0.656115 1.392970 0.657657
v -0.474225 0.663245 1.133298
v -0.325213 1.003399 0.889518
v -0.477342 1.076931 0.488442
v -0.565111 0.803300 0.550693
v -0.177924 1.505717 0.432371
v -0.312287 1.505717 0.295983
v 0.446650 1.505717 -0.159595
v 0.895679 1.454400 -0.241411
v 1.075892 0.663245 -0.522165
v 0.872442 1.003399 -0.333935
v 0.749126 1.720448 -0.267033
v 0.393483 2.040020 -0.141489
v 0.577633 2.084241 -0.229837
v 0.160202 2.040020 -0.378053
v 0.256230 2.084241 -0.555675
v 0.364963 2.110208 -0.349044
v 0.276842 2.040020 -0.259771
v 0.212370 1.454400 -0.934712
v 0.285584 1.720448 -0.737243
v 0.586041 1.679118 -0.548961
v 0.656115 1.392970 -0.657657
v 0.474225 0.663245 -1.133298
v 0.325213 1.003399 -0.889518
v 0.477342 1.076931 -0.488442
v 0.565111 0.803300 -0.550693
v 0.177924 1.505717 -0.432371
v 0.312287 1.505717 -0.295983
v 0.000000 1.505717 -0.568759
v 0.000000 1.405460 -1.208531
v 0.000000 0.667976 -0.982189
v 0.000000 0.959584 -0.902361
v 0.000000 1.670715 -0.921795
v 0.000000 2.040020 -0.496336
v 0.000000 2.110208 -0.674882
v -0.446650 1.505717 -0.159595
v -0.895679 1.454400 -0.241411
v -1.075892 0.663245 -0.522165
v -0.872442 1.003399 -0.333935
v -0.749126 1.720448 -0.267033
v -0.393483 2.040020 -0.141489
v -0.577633 2.084241 -0.229837
v -0.160202 2.040020 -0.378053
v -0.276842 2.040020 -0.259771
v -0.364963 2.110208 -0.349044
v -0.256230 2.084241 -0.555675
v -0.212370 1.454400 -0.934712
v -0.656115 1.392970 -0.657657
v -0.586041 1.679118 -0.548961
v -0.285584 1.720448 -0.737243
v -0.474225 0.663245 -1.133298
v -0.565111 0.803300 -0.550693
v -0.477342 1.076931 -0.488442
v -0.325213 1.003399 -0.889518
v -0.177924 1.505717 -0.432371
v -0.312287 1.505717 -0.295983
v 0.000000 0.796602 0.213376
v 0.226637 0.796602 0.178611
v 0.000000 -0.022631 0.456205
v 0.000000 -0.024319 -0.000000
v 0.494179 -0.022631 -0.000000
v 0.368301 -0.022288 0.332468
v 0.000000 0.238055 0.235589
v 0.207480 0.238699 0.182102
v 0.253409 2.595368 0.000000
v 0.252915 2.569402 0.120090
v 0.000000 2.714169 0.000000
v 0.000000 2.595368 0.235895
v 0.147991 2.569402 0.226435
v 0.148485 2.595368 0.129551
v 0.257163 0.796602 0.000000
v 0.268758 0.238055 0.000000
v -0.226637 0.796602 0.178611
v -0.368301 -0.022288 0.332468
v -0.494179 -0.022631 -0.000000
v -0.207480 0.238699 0.182102
v -0.252915 2.569402 0.120090
v -0.253409 2.595368 0.000000
v -0.147991 2.569402 0.226435
v -0.148485 2.595368 0.129551
v -0.257163 0.796602 0.000000
v -0.268758 0.238055 0.000000
v 0.000000 0.796602 -0.213376
v 0.226637 0.796602 -0.178611
v 0.000000 -0.022631 -0.456205
v 0.368301 -0.022288 -0.332468
v 0.000000 0.238055 -0.235589
v 0.207480 0.238699 -0.182102
v 0.252915 2.569402 -0.120090
v 0.000000 2.595368 -0.235895
v 0.147991 2.569402 -0.226435
v 0.148485 2.595368 -0.129551
v -0.226637 0.796602 -0.178611
v -0.368301 -0.022288 -0.332468
v -0.207480 0.238699 -0.182102
v -0.252915 2.569402 -0.120090
v -0.147991 2.569402 -0.226435
v -0.148485 2.595368 -0.129551
vt 0.247479 0.115719
vt 0.278560 0.065294
vt 0.344393 0.074899
vt 0.127036 0.031478
vt 0.142142 0.065493
vt 0.130841 0.144315
vt 0.172794 0.849243
vt 0.172794 0.879630
vt 0.164368 0.863643
vt 0.144927 0.872420
vt 0.144501 0.849254
vt 0.153216 0.849243
vt 0.475838 0.114963
vt 0.502971 0.109695
vt 0.471140 0.206981
vt 0.362251 0.382428
vt 0.336234 0.434969
vt 0.325910 0.427032
vt 0.320528 0.456027
vt 0.300113 0.436402
vt 0.310216 0.427161
vt 0.312196 0.381572
vt 0.318566 0.433853
vt 0.447054 0.093059
vt 0.445048 0.203157
vt 0.432591 0.202459
vt 0.090536 0.055056
vt 0.096173 0.143415
vt 0.079417 0.143801
vt 0.152655 0.872405
vt 0.156779 0.889992
vt 0.057539 0.033073
vt 0.059432 0.147502
vt 0.414553 0.111510
vt 0.417726 0.206121
vt 0.261357 0.384381
vt 0.287653 0.375009
vt 0.335734 0.374621
vt 0.457504 0.203855
vt 0.112929 0.143028
vt 0.191433 0.193139
vt 0.187042 0.137614
vt 0.137673 0.872434
vt 0.136900 0.849263
vt 0.145058 0.889992
vt 0.132046 0.889992
vt 0.344393 0.165149
vt 0.314473 0.184895
vt 0.156779 0.849243
vt 0.027814 0.069650
vt 0.389505 0.105437
vt 0.288378 0.202116
vt 0.132054 0.401293
vt 0.076991 0.448564
vt 0.074394 0.399591
vt 0.192037 0.325510
vt 0.207374 0.325204
vt 0.214018 0.382583
vt 0.333414 0.294258
vt 0.333414 0.332738
vt 0.320762 0.331506
vt 0.167682 0.357503
vt 0.145783 0.374797
vt 0.133482 0.342189
vt 0.163592 0.287139
vt 0.164113 0.309855
vt 0.141829 0.309995
vt 0.340165 0.292358
vt 0.324132 0.292103
vt 0.317533 0.238021
vt 0.381525 0.272239
vt 0.398276 0.271675
vt 0.398276 0.329626
vt 0.127954 0.320526
vt 0.128481 0.346707
vt 0.060333 0.346894
vt 0.132054 0.290090
vt 0.072189 0.288733
vt 0.366464 0.271985
vt 0.371367 0.330899
vt 0.344393 0.330876
vt 0.333565 0.238628
vt 0.327440 0.202116
vt 0.167682 0.260157
vt 0.132054 0.279604
vt 0.164635 0.332571
vt 0.167726 0.245287
vt 0.183581 0.243144
vt 0.183581 0.293859
vt 0.408436 0.329651
vt 0.425186 0.272960
vt 0.129009 0.372889
vt 0.317533 0.292358
vt 0.075144 0.243144
vt 0.351129 0.271675
vt 0.145013 0.243144
vt 0.425186 0.330223
vt 0.187042 0.382583
vt 0.340165 0.202877
vt 0.167682 0.295657
vn 0.513400 -0.639000 0.572800
vn 0.495300 -0.404400 0.768900
vn 0.000000 -0.716000 0.698100
vn 0.709000 0.567300 0.419000
vn 0.912800 0.408400 0.000000
vn 0.713300 -0.700900 0.000000
vn -0.000000 -1.000000 -0.000000
vn 0.934000 -0.357400 -0.000000
vn 0.655400 -0.347300 0.670700
vn 0.616600 0.396200 0.680300
vn 0.289000 -0.871100 0.397100
vn -0.000000 -0.773100 0.634300
vn 0.673300 0.588100 0.448100
vn 0.762700 0.646700 0.000000
vn 0.950800 -0.309700 0.000000
vn 0.985100 -0.171700 0.000000
vn 0.585100 0.810900 0.000000
vn 0.479700 0.701900 0.526500
vn 0.000000 1.000000 0.000000
vn -0.000000 0.799300 0.601000
vn 0.558800 0.697200 0.449000
vn 0.679500 -0.322600 0.659000
vn 0.444000 0.786300 0.429600
vn 0.598000 0.563200 0.570200
vn 0.708600 -0.097800 0.698800
vn 0.694700 -0.211600 0.687500
vn 0.623900 0.494400 0.605200
vn 0.575500 -0.589400 0.566900
vn 0.584700 -0.552000 0.594500
vn -0.000000 0.381900 0.924200
vn 0.000000 -0.371000 0.928600
vn 0.408100 0.576600 0.707800
vn 0.000000 -0.670200 0.742200
vn 0.429600 0.605800 0.669700
vn 0.000000 -0.292500 0.956300
vn 0.000000 -0.175400 0.984500
vn 0.636900 -0.345600 0.689200
vn 0.694300 -0.347900 0.630000
vn 0.679400 -0.207300 0.703900
vn 0.593900 -0.542800 0.593900
vn 0.741000 -0.671500 -0.000000
vn 0.682700 -0.425200 0.594300
vn 0.930900 0.365200 0.000000
vn 0.597700 -0.801700 0.000000
vn -0.513400 -0.639000 0.572800
vn -0.709000 0.567300 0.419000
vn -0.593900 -0.542800 0.593900
vn -0.713300 -0.700900 0.000000
vn -0.655400 -0.347300 0.670700
vn -0.934000 -0.357400 -0.000000
vn -0.289000 -0.871100 0.397100
vn -0.616600 0.396200 0.680300
vn -0.673300 0.588100 0.448100
vn -0.679400 -0.207300 0.703900
vn -0.950800 -0.309700 0.000000
vn -0.479700 0.701900 0.526500
vn -0.585100 0.810900 -0.000000
vn -0.985100 -0.171700 -0.000000
vn -0.558800 0.697200 0.449000
vn -0.444000 0.786300 0.429600
vn -0.679500 -0.322600 0.659000
vn -0.694700 -0.211600 0.687500
vn -0.708600 -0.097800 0.698800
vn -0.598000 0.563200 0.570200
vn -0.584700 -0.552000 0.594500
vn -0.575500 -0.589400 0.566900
vn -0.623900 0.494400 0.605200
vn -0.408100 0.576600 0.707800
vn -0.429600 0.605800 0.669700
vn -0.741000 -0.671500 -0.000000
vn -0.597700 -0.801700 0.000000
vn -0.930900 0.365200 0.000000
vn 0.000000 -0.716000 -0.698100
vn 0.513400 -0.639000 -0.572800
vn -0.000000 -0.773100 -0.634300
vn 0.709000 0.567300 -0.419000
vn 0.593900 -0.542800 -0.593900
vn 0.655400 -0.347300 -0.670700
vn 0.289000 -0.871100 -0.397100
vn 0.616600 0.396200 -0.680300
vn 0.673300 0.588100 -0.448100
vn 0.679400 -0.207300 -0.703900
vn 0.479700 0.701900 -0.526500
vn -0.000000 0.799300 -0.601000
vn 0.558800 0.697200 -0.449000
vn 0.444000 0.786300 -0.429600
vn 0.679500 -0.322600 -0.659000
vn 0.694700 -0.211600 -0.687500
vn 0.708600 -0.097800 -0.698800
vn 0.598000 0.563200 -0.570200
vn 0.584700 -0.552000 -0.594500
vn 0.575500 -0.589400 -0.566900
vn 0.623900 0.494400 -0.605200
vn 0.000000 -0.371000 -0.928600
vn 0.000000 -0.670200 -0.742200
vn 0.408100 0.576600 -0.707800
vn -0.000000 -0.292500 -0.956300
vn 0.429600 0.605800 -0.669700
vn -0.000000 -0.175400 -0.984500
vn -0.513400 -0.639000 -0.572800
vn -0.495300 -0.404400 -0.768900
vn -0.709000 0.567300 -0.419000
vn -0.912800 0.408400 -0.000000
vn -0.655400 -0.347300 -0.670700
vn -0.616600 0.396200 -0.680300
vn -0.289000 -0.871100 -0.397100
vn -0.673300 0.588100 -0.448100
vn -0.762700 0.646700 0.000000
vn -0.479700 0.701900 -0.526500
vn -0.558800 0.697200 -0.449000
vn -0.679500 -0.322600 -0.659000
vn -0.444000 0.786300 -0.429600
vn -0.598000 0.563200 -0.570200
vn -0.708600 -0.097800 -0.698800
vn -0.694700 -0.211600 -0.687500
vn -0.623900 0.494400 -0.605200
vn -0.575500 -0.589400 -0.566900
vn -0.584700 -0.552000 -0.594500
vn -0.000000 0.381900 -0.924200
vn -0.408100 0.576600 -0.707800
vn -0.429600 0.605800 -0.669700
vn -0.636900 -0.345600 -0.689200
vn -0.694300 -0.347900 -0.630000
vn -0.679400 -0.207300 -0.703900
vn -0.593900 -0.542800 -0.593900
vn -0.682700 -0.425200 -0.594300
vn 0.000000 0.385200 0.922800
vn 0.000000 0.670200 0.742100
vn -0.495300 -0.404400 0.768900
vn -0.694300 -0.347900 0.630000
vn -0.636900 -0.345600 0.689200
vn -0.682700 -0.425200 0.594300
vn 0.495300 -0.404400 -0.768900
vn 0.694300 -0.347900 -0.630000
vn 0.636900 -0.345600 -0.689200
vn 0.000000 0.385200 -0.922800
vn 0.000000 0.670200 -0.742100
vn 0.682700 -0.425200 -0.594300
vn 0.921600 -0.388200 0.000000
vn 0.629900 -0.600000 0.493100
vn 0.565600 -0.607200 0.558000
vn 0.526300 -0.551500 0.647200
vn -0.629900 -0.600000 0.493100
vn -0.921600 -0.388200 -0.000000
vn -0.565600 -0.607200 0.558000
vn -0.526300 -0.551500 0.647200
vn 0.000000 -0.364100 0.931400
vn 0.629900 -0.600000 -0.493100
vn 0.565600 -0.607200 -0.558000
vn 0.526300 -0.551500 -0.647200
vn 0.000000 -0.364100 -0.931400
vn -0.629900 -0.600000 -0.493100
vn -0.565600 -0.607200 -0.558000
vn -0.526300 -0.551500 -0.647200
usemtl Material_Cheri_Tree_texture.png.001
s 1
f 24/1/1 23/2/2 31/3/3
f 8/4/4 7/5/5 2/6/6
f 116/7/7 117/8/8 118/9/9
f 120/10/10 114/11/11 113/12/12
f 10/13/13 9/14/14 12/15/15
f 13/16/16 121/17/17 122/18/18
f 121/17/17 123/19/19 122/18/18
f 124/20/20 125/21/21 123/19/19
f 17/22/22 126/23/23 125/21/21
f 21/24/24 16/25/25 15/26/26
f 25/27/27 28/28/28 27/29/29
f 120/10/10 119/30/30 115/31/31
f 26/32/32 27/29/29 29/33/33
f 22/34/34 15/26/26 34/35/35
f 35/36/36 18/37/37 125/21/21
f 125/21/21 126/23/23 123/19/19
f 126/23/23 122/18/18 123/19/19
f 17/22/22 14/38/38 122/18/18
f 21/24/24 10/13/13 11/39/39
f 25/27/27 8/4/4 1/40/40
f 6/41/41 5/42/42 24/1/1
f 128/43/43 127/44/44 114/11/11
f 120/10/10 118/45/9 117/46/8
f 31/3/3 61/1/45 113/47/12
f 41/4/46 36/40/47 39/6/48
f 130/9/49 131/8/50 116/7/7
f 113/12/12 129/11/51 132/10/52
f 44/13/53 46/39/54 49/15/55
f 133/18/56 134/17/57 48/16/58
f 134/17/57 133/18/56 123/19/19
f 124/20/20 123/19/19 135/21/59
f 135/21/59 136/23/60 52/22/61
f 50/26/62 53/25/63 56/24/64
f 62/29/65 63/28/66 60/27/67
f 132/10/52 130/45/49 115/31/31
f 29/33/33 62/29/65 59/32/68
f 34/35/35 50/26/62 55/34/69
f 35/36/36 124/20/20 135/21/59
f 135/21/59 123/19/19 136/23/60
f 136/23/60 123/19/19 133/18/56
f 52/22/61 136/23/60 133/18/56
f 56/24/64 53/25/63 46/39/54
f 60/27/67 63/28/66 36/40/47
f 61/1/45 43/41/70 129/48/51
f 129/11/51 137/44/71 138/43/72
f 131/46/50 130/45/49 132/10/52
f 87/3/73 82/1/74 139/47/75
f 67/4/76 64/40/77 2/6/6
f 142/9/78 117/8/8 116/7/7
f 139/12/75 140/11/79 144/10/80
f 68/13/81 69/39/82 12/15/15
f 145/18/83 121/17/17 13/16/16
f 121/17/17 145/18/83 123/19/19
f 146/20/84 123/19/19 147/21/85
f 147/21/85 148/23/86 73/22/87
f 71/26/88 74/25/89 77/24/90
f 83/29/91 84/28/92 81/27/93
f 144/10/80 142/45/78 141/31/94
f 85/33/95 83/29/91 80/32/96
f 90/35/97 71/26/88 76/34/98
f 91/36/99 146/20/84 147/21/85
f 147/21/85 123/19/19 148/23/86
f 148/23/86 123/19/19 145/18/83
f 73/22/87 148/23/86 145/18/83
f 77/24/90 74/25/89 69/39/82
f 81/27/93 84/28/92 64/40/77
f 82/1/74 6/41/41 140/48/79
f 140/11/79 127/44/44 128/43/43
f 117/46/8 142/45/78 144/10/80
f 108/1/100 107/2/101 87/3/73
f 95/4/102 42/5/103 39/6/48
f 116/7/7 131/8/50 150/9/104
f 151/10/105 149/11/106 139/12/75
f 96/13/107 45/14/108 49/15/55
f 48/16/58 134/17/57 152/18/109
f 134/17/57 123/19/19 152/18/109
f 146/20/84 153/21/110 123/19/19
f 101/22/111 154/23/112 153/21/110
f 105/24/113 100/25/114 99/26/115
f 109/27/116 112/28/117 111/29/118
f 151/10/105 143/30/119 141/31/94
f 110/32/120 111/29/118 85/33/95
f 106/34/121 99/26/115 90/35/97
f 91/36/99 102/37/122 153/21/110
f 153/21/110 154/23/112 123/19/19
f 154/23/112 152/18/109 123/19/19
f 101/22/111 98/38/123 152/18/109
f 105/24/113 96/13/107 97/39/124
f 109/27/116 95/4/102 92/40/125
f 43/41/70 94/42/126 108/1/100
f 138/43/72 137/44/71 149/11/106
f 151/10/105 150/45/104 131/46/50
f 31/3/3 113/47/12 24/1/1
f 114/48/11 24/1/1 113/47/12
f 1/40/40 8/4/4 2/6/6
f 115/49/31 116/7/7 118/9/9
f 119/30/30 120/10/10 113/12/12
f 11/39/39 10/13/13 12/15/15
f 14/38/38 13/16/16 122/18/18
f 18/37/37 17/22/22 125/21/21
f 22/34/34 21/24/24 15/26/26
f 26/32/32 25/27/27 27/29/29
f 118/45/9 120/10/10 115/31/31
f 32/50/127 26/32/32 29/33/33
f 33/51/128 22/34/34 34/35/35
f 124/20/20 35/36/36 125/21/21
f 126/23/23 17/22/22 122/18/18
f 16/25/25 21/24/24 11/39/39
f 28/28/28 25/27/27 1/40/40
f 24/1/1 114/48/11 6/41/41
f 127/52/44 6/41/41 114/48/11
f 120/10/10 128/43/43 114/11/11
f 128/43/43 120/10/10 117/46/8
f 129/48/51 113/47/12 61/1/45
f 31/3/3 58/2/129 61/1/45
f 42/5/103 41/4/46 39/6/48
f 115/49/31 130/9/49 116/7/7
f 119/30/30 113/12/12 132/10/52
f 45/14/108 44/13/53 49/15/55
f 47/38/130 133/18/56 48/16/58
f 51/37/131 135/21/59 52/22/61
f 55/34/69 50/26/62 56/24/64
f 59/32/68 62/29/65 60/27/67
f 119/30/30 132/10/52 115/31/31
f 32/50/127 29/33/33 59/32/68
f 33/51/128 34/35/35 55/34/69
f 51/37/131 35/36/36 135/21/59
f 47/38/130 52/22/61 133/18/56
f 44/13/53 56/24/64 46/39/54
f 41/4/46 60/27/67 36/40/47
f 137/52/71 129/48/51 43/41/70
f 61/1/45 40/42/132 43/41/70
f 132/10/52 129/11/51 138/43/72
f 138/43/72 131/46/50 132/10/52
f 140/48/79 139/47/75 82/1/74
f 87/3/73 79/2/133 82/1/74
f 7/5/5 67/4/76 2/6/6
f 141/49/94 142/9/78 116/7/7
f 143/30/119 139/12/75 144/10/80
f 9/14/14 68/13/81 12/15/15
f 70/38/134 145/18/83 13/16/16
f 72/37/135 147/21/85 73/22/87
f 76/34/98 71/26/88 77/24/90
f 80/32/96 83/29/91 81/27/93
f 143/30/119 144/10/80 141/31/94
f 88/50/136 85/33/95 80/32/96
f 89/51/137 90/35/97 76/34/98
f 72/37/135 91/36/99 147/21/85
f 70/38/134 73/22/87 145/18/83
f 68/13/81 77/24/90 69/39/82
f 67/4/76 81/27/93 64/40/77
f 127/52/44 140/48/79 6/41/41
f 82/1/74 66/42/138 6/41/41
f 144/10/80 140/11/79 128/43/43
f 128/43/43 117/46/8 144/10/80
f 87/3/73 139/47/75 108/1/100
f 149/48/106 108/1/100 139/47/75
f 92/40/125 95/4/102 39/6/48
f 141/49/94 116/7/7 150/9/104
f 143/30/119 151/10/105 139/12/75
f 97/39/124 96/13/107 49/15/55
f 98/38/123 48/16/58 152/18/109
f 102/37/122 101/22/111 153/21/110
f 106/34/121 105/24/113 99/26/115
f 110/32/120 109/27/116 111/29/118
f 150/45/104 151/10/105 141/31/94
f 88/50/136 110/32/120 85/33/95
f 89/51/137 106/34/121 90/35/97
f 146/20/84 91/36/99 153/21/110
f 154/23/112 101/22/111 152/18/109
f 100/25/114 105/24/113 97/39/124
f 112/28/117 109/27/116 92/40/125
f 108/1/100 149/48/106 43/41/70
f 137/52/71 43/41/70 149/48/106
f 151/10/105 138/43/72 149/11/106
f 138/43/72 151/10/105 131/46/50
usemtl Material.009
f 2/53/6 3/54/139 4/55/140
f 6/56/41 7/57/5 8/58/4
f 4/59/140 3/60/139 9/61/14
f 12/62/15 13/63/16 14/64/38
f 15/65/26 16/66/25 17/67/22
f 20/68/141 21/69/24 22/70/34
f 24/71/1 25/72/27 26/73/32
f 27/74/29 28/75/28 20/76/141
f 29/77/33 27/74/29 19/78/142
f 31/79/3 23/80/2 26/81/32
f 19/82/142 22/70/34 33/83/128
f 34/84/35 15/65/26 18/85/37
f 11/86/39 14/64/38 17/67/22
f 4/87/140 10/88/13 21/89/24
f 24/90/1 5/72/42 8/91/4
f 1/92/40 4/55/140 20/76/141
f 37/55/143 38/54/144 39/53/48
f 41/58/46 42/57/103 43/56/70
f 37/59/143 44/93/53 45/61/108
f 47/64/130 48/63/58 49/62/55
f 50/65/62 51/85/131 52/67/61
f 55/70/69 56/69/64 57/68/145
f 59/73/68 60/72/67 61/71/45
f 62/74/65 54/78/146 57/76/145
f 29/77/33 30/94/147 54/78/146
f 31/79/3 32/95/127 59/81/68
f 33/83/128 55/70/69 54/82/146
f 34/84/35 35/96/36 51/85/131
f 52/67/61 47/64/130 46/86/54
f 56/89/64 44/88/53 37/87/143
f 61/90/45 60/97/67 41/91/46
f 57/76/145 37/55/143 36/92/47
f 65/55/148 3/54/139 2/53/6
f 67/58/76 7/57/5 6/56/41
f 65/59/148 68/93/81 9/61/14
f 70/64/134 13/63/16 12/62/15
f 71/65/88 72/85/135 73/67/87
f 76/70/98 77/69/90 78/68/149
f 80/73/96 81/72/93 82/71/74
f 83/74/91 75/78/150 78/76/149
f 85/77/95 86/94/151 75/78/150
f 87/79/73 88/95/136 80/81/96
f 89/83/137 76/70/98 75/82/150
f 90/84/97 91/96/99 72/85/135
f 73/67/87 70/64/134 69/86/82
f 77/89/90 68/88/81 65/87/148
f 82/90/74 81/97/93 67/91/76
f 78/76/149 65/55/148 64/92/77
f 39/53/48 38/54/144 93/55/152
f 43/56/70 42/57/103 95/58/102
f 93/59/152 38/60/144 45/61/108
f 49/62/55 48/63/58 98/64/123
f 99/65/115 100/66/114 101/67/111
f 104/68/153 105/69/113 106/70/121
f 108/71/100 109/72/116 110/73/120
f 111/74/118 112/75/117 104/76/153
f 85/77/95 111/74/118 103/78/154
f 87/79/73 107/80/101 110/81/120
f 103/82/154 106/70/121 89/83/137
f 90/84/97 99/65/115 102/85/122
f 97/86/124 98/64/123 101/67/111
f 93/87/152 96/88/107 105/89/113
f 108/90/100 94/72/126 95/91/102
f 92/92/125 93/55/152 104/76/153
f 1/92/40 2/53/6 4/55/140
f 5/98/42 6/56/41 8/58/4
f 10/93/13 4/59/140 9/61/14
f 11/86/39 12/62/15 14/64/38
f 18/85/37 15/65/26 17/67/22
f 19/82/142 20/68/141 22/70/34
f 23/80/2 24/71/1 26/73/32
f 19/78/142 27/74/29 20/76/141
f 30/94/147 29/77/33 19/78/142
f 32/95/127 31/79/3 26/81/32
f 30/99/147 19/82/142 33/83/128
f 35/96/36 34/84/35 18/85/37
f 16/66/25 11/86/39 17/67/22
f 20/100/141 4/87/140 21/89/24
f 25/97/27 24/90/1 8/91/4
f 28/75/28 1/92/40 20/76/141
f 36/92/47 37/55/143 39/53/48
f 40/98/132 41/58/46 43/56/70
f 38/60/144 37/59/143 45/61/108
f 46/86/54 47/64/130 49/62/55
f 53/66/63 50/65/62 52/67/61
f 54/82/146 55/70/69 57/68/145
f 58/80/129 59/73/68 61/71/45
f 63/75/66 62/74/65 57/76/145
f 62/74/65 29/77/33 54/78/146
f 58/80/129 31/79/3 59/81/68
f 30/99/147 33/83/128 54/82/146
f 50/65/62 34/84/35 51/85/131
f 53/66/63 52/67/61 46/86/54
f 57/100/145 56/89/64 37/87/143
f 40/72/132 61/90/45 41/91/46
f 63/75/66 57/76/145 36/92/47
f 64/92/77 65/55/148 2/53/6
f 66/98/138 67/58/76 6/56/41
f 3/60/139 65/59/148 9/61/14
f 69/86/82 70/64/134 12/62/15
f 74/66/89 71/65/88 73/67/87
f 75/82/150 76/70/98 78/68/149
f 79/80/133 80/73/96 82/71/74
f 84/75/92 83/74/91 78/76/149
f 83/74/91 85/77/95 75/78/150
f 79/80/133 87/79/73 80/81/96
f 86/99/151 89/83/137 75/82/150
f 71/65/88 90/84/97 72/85/135
f 74/66/89 73/67/87 69/86/82
f 78/100/149 77/89/90 65/87/148
f 66/72/138 82/90/74 67/91/76
f 84/75/92 78/76/149 64/92/77
f 92/92/125 39/53/48 93/55/152
f 94/98/126 43/56/70 95/58/102
f 96/93/107 93/59/152 45/61/108
f 97/86/124 49/62/55 98/64/123
f 102/85/122 99/65/115 101/67/111
f 103/82/154 104/68/153 106/70/121
f 107/80/101 108/71/100 110/73/120
f 103/78/154 111/74/118 104/76/153
f 86/94/151 85/77/95 103/78/154
f 88/95/136 87/79/73 110/81/120
f 86/99/151 103/82/154 89/83/137
f 91/96/99 90/84/97 102/85/122
f 100/66/114 97/86/124 101/67/111
f 104/100/153 93/87/152 105/89/113
f 109/97/116 108/90/100 95/91/102
f 112/75/117 92/92/125 104/76/153
