# This file uses centimeters as units for non-parametric coordinates.

mtllib DewottRLeg.mtl
g default
v 0.207437 -0.054338 -0.103345
v 0.051341 -0.054338 -0.215942
v -0.137404 -0.054338 -0.178268
v -0.256621 -0.056059 -0.020246
v -0.216146 -0.054338 0.184156
v -0.060051 -0.054338 0.296754
v 0.128694 -0.054338 0.259079
v 0.250336 -0.056059 0.089899
v -0.514755 -0.188395 0.680807
v -0.667599 -0.307993 0.647599
v -0.478552 -0.307993 0.089706
v -0.343356 -0.188395 -0.042764
v 0.338360 -0.188395 0.105351
v 0.194063 -0.188395 0.834810
v -0.295957 -0.307993 0.728345
v -0.182184 -0.307993 0.154097
v -0.036077 -0.307993 0.185842
v -0.160347 -0.307993 0.757808
v 0.288733 -0.210094 -0.247044
v 0.375630 -0.307993 -0.165941
v 0.406398 -0.307993 0.281977
v -0.071746 -0.307993 -0.420874
v -0.264695 -0.307993 -0.305063
v -0.151979 -0.210094 -0.342796
v 0.110031 -0.307993 0.217586
v 0.248132 -0.307993 -0.351374
v 0.088193 -0.307993 -0.386124
v 0.213384 -0.122337 -0.242699
v -0.085226 -0.122337 -0.307578
v 0.079400 -0.199353 -0.345654
v 0.230757 -0.215165 -0.297038
v -0.078486 -0.215165 -0.364226
v -0.783080 -0.307993 1.104601
v -0.452289 -0.184322 0.906191
v -0.456277 -0.307993 1.280058
v -0.312029 -0.209935 1.057507
v 0.346905 -0.307993 0.868018
v 0.262344 -0.307993 1.331738
v 0.043706 -0.184322 1.013954
v -0.024737 -0.307993 0.787272
v -0.107802 -0.307993 1.355770
v -0.282040 -0.307993 1.317914
v -0.146698 -0.209935 1.093428
v -0.242316 -0.205688 1.135082
v 0.037931 0.030559 -0.207823
v 0.201964 0.030559 -0.139878
v -0.126102 0.030559 -0.139878
v -0.194046 0.030559 0.024155
v -0.126102 0.030559 0.188188
v 0.037931 0.030559 0.256133
v 0.201964 0.030559 0.188188
v 0.269909 0.030559 0.024155
vt 0.272918 0.331556
vt 0.291479 0.331556
vt 0.278940 0.404996
vt 0.290141 0.404996
vt 0.285269 0.331556
vt 0.278940 0.404996
vt 0.259220 0.330067
vt 0.251901 0.404996
vt 0.225526 0.331556
vt 0.224862 0.404996
vt 0.206965 0.331556
vt 0.213661 0.404996
vt 0.213176 0.331556
vt 0.224862 0.404996
vt 0.241064 0.330067
vt 0.251901 0.404996
vt 0.262932 0.215589
vt 0.241095 0.112131
vt 0.143658 0.215589
vt 0.149132 0.112131
vt 0.118271 0.215589
vt 0.238517 0.215589
vt 0.135821 0.112131
vt 0.230481 0.112131
vt 0.130964 0.112131
vt 0.225248 0.112131
vt 0.209401 0.112131
vt 0.283237 0.112131
vt 0.296606 0.196818
vt 0.306170 0.112131
vt 0.325260 0.112131
vt 0.312390 0.196818
vt 0.313804 0.112131
vt 0.220016 0.112131
vt 0.319532 0.112131
vt 0.295890 0.272733
vt 0.306584 0.272733
vt 0.312861 0.206110
vt 0.304847 0.192432
vt 0.315922 0.192432
vt 0.073799 0.112131
vt 0.106505 0.219113
vt 0.044876 0.112131
vt 0.730475 0.308900
vt 0.659628 0.331844
vt 0.684771 0.351562
vt 0.667286 0.468597
vt 0.675954 0.291418
vt 0.036357 0.112131
vt 0.112797 0.112131
vt 0.088741 0.219113
vt 0.126108 0.112131
vt 0.032396 0.112131
vt 0.038636 0.112131
vt 0.633253 0.330628
vt 0.564874 0.301295
vt 0.606410 0.347942
vt 0.613012 0.466093
vt 0.646853 0.322274
vt 0.620690 0.288891
vt 0.648342 0.289764
vt 0.640686 0.455708
vt 0.227316 0.258119
vt 0.240016 0.280900
vt 0.264557 0.245850
vt 0.242058 0.332393
vt 0.262266 0.327699
vt 0.249443 0.372245
vt 0.247339 0.318227
vt 0.201921 0.267038
vn 0.389206 0.106769 -0.914942
vn 0.389206 0.106769 -0.914942
vn 0.380410 -0.167552 -0.909513
vn 0.380535 -0.166104 -0.909727
vn -0.389186 0.107260 -0.914893
vn -0.389186 0.107260 -0.914893
vn -0.380544 -0.165943 -0.909752
vn -0.380434 -0.167222 -0.909564
vn -0.910242 0.110735 -0.398996
vn -0.910242 0.110735 -0.398996
vn -0.908381 -0.164676 -0.384350
vn -0.908371 -0.164756 -0.384341
vn -0.913428 0.124612 0.387454
vn -0.913428 0.124612 0.387454
vn -0.910839 -0.159486 0.380705
vn -0.911247 -0.156579 0.380935
vn -0.385978 0.166537 0.907351
vn -0.385978 0.166537 0.907351
vn -0.381195 -0.154723 0.911456
vn -0.381535 -0.150321 0.912050
vn 0.386009 0.166059 0.907426
vn 0.386009 0.166059 0.907426
vn 0.381527 -0.150472 0.912028
vn 0.381172 -0.155069 0.911406
vn 0.913558 0.123470 0.387515
vn 0.913558 0.123470 0.387515
vn 0.911164 -0.157141 0.380903
vn 0.910745 -0.160116 0.380666
vn 0.910355 0.109595 -0.399052
vn 0.910355 0.109595 -0.399052
vn 0.908275 -0.165374 -0.384301
vn 0.908296 -0.165223 -0.384318
vn -0.779677 0.597913 -0.186023
vn -0.707602 0.703414 -0.067146
vn -0.671608 0.739990 -0.036834
vn -0.665473 0.745590 -0.035221
vn -0.827939 0.560606 -0.015442
vn -0.821838 0.559037 -0.109821
vn -0.821729 0.558992 -0.110859
vn 0.822533 0.558003 -0.109874
vn 0.828642 0.559565 -0.015456
vn 0.822421 0.557957 -0.110945
vn 0.000000 -1.000000 0.000000
vn 0.000000 -1.000000 0.000000
vn 0.000000 -1.000000 0.000000
vn 0.000000 -1.000000 0.000000
vn 0.290478 0.947596 0.132981
vn 0.308895 0.942772 0.125557
vn 0.306857 0.943327 0.126383
vn 0.000000 -1.000000 0.000000
vn 0.000000 -1.000000 0.000000
vn 0.000000 -1.000000 0.000000
vn 0.000000 -1.000000 0.000000
vn 0.707601 0.703414 -0.067146
vn 0.821689 0.495872 -0.280958
vn 0.779677 0.597913 -0.186023
vn 0.821689 0.495872 -0.280958
vn 0.780397 0.535354 -0.323074
vn 0.822533 0.558003 -0.109874
vn 0.822421 0.557957 -0.110945
vn 0.000000 -1.000000 0.000000
vn 0.000000 -1.000000 0.000000
vn 0.000000 -1.000000 0.000000
vn 0.000000 -1.000000 0.000000
vn 0.744294 0.576009 -0.337995
vn 0.744294 0.576009 -0.337995
vn 0.744294 0.576009 -0.337995
vn -0.707602 0.703414 -0.067146
vn -0.779677 0.597913 -0.186023
vn -0.821689 0.495873 -0.280958
vn -0.821689 0.495873 -0.280958
vn -0.821838 0.559037 -0.109821
vn -0.779777 0.536355 -0.322910
vn -0.821729 0.558992 -0.110859
vn -0.743805 0.576776 -0.337762
vn -0.743805 0.576776 -0.337762
vn -0.743805 0.576776 -0.337762
vn -0.662566 0.253491 -0.704804
vn -0.662566 0.253491 -0.704804
vn -0.662566 0.253491 -0.704804
vn 0.000000 -1.000000 0.000000
vn 0.000000 -1.000000 0.000000
vn 0.000000 -1.000000 0.000000
vn 0.000000 -1.000000 0.000000
vn 0.000000 -1.000000 0.000000
vn 0.000000 -1.000000 0.000000
vn 0.000000 -1.000000 0.000000
vn 0.000000 -1.000000 0.000000
vn 0.662566 0.253493 -0.704803
vn 0.662566 0.253493 -0.704803
vn 0.662566 0.253493 -0.704803
vn 0.000000 -1.000000 0.000000
vn 0.000000 -1.000000 0.000000
vn 0.000000 -1.000000 0.000000
vn 0.000000 -1.000000 0.000000
vn 0.309759 0.829832 -0.464143
vn 0.646316 0.633580 -0.425268
vn 0.440630 0.771971 -0.458155
vn -0.646789 0.633749 -0.424294
vn -0.309488 0.830170 -0.463718
vn -0.440843 0.772216 -0.457537
vn -0.201259 0.863828 -0.461839
vn -0.440843 0.772216 -0.457537
vn -0.309488 0.830170 -0.463718
vn 0.134039 0.522842 -0.841826
vn 0.134039 0.522842 -0.841826
vn 0.134039 0.522842 -0.841826
vn 0.440630 0.771971 -0.458155
vn 0.201384 0.863646 -0.462125
vn 0.309759 0.829832 -0.464143
vn 0.384688 0.497991 -0.777187
vn 0.384688 0.497992 -0.777187
vn 0.384688 0.497992 -0.777187
vn -0.384688 0.497992 -0.777187
vn -0.384688 0.497992 -0.777187
vn -0.384688 0.497991 -0.777187
vn -0.134039 0.522842 -0.841825
vn -0.134039 0.522842 -0.841825
vn -0.134039 0.522842 -0.841825
vn 0.384688 0.497991 -0.777188
vn 0.384688 0.497991 -0.777188
vn 0.384688 0.497991 -0.777188
vn 0.064355 0.438645 -0.896353
vn 0.064355 0.438645 -0.896353
vn 0.064355 0.438645 -0.896353
vn 0.064355 0.438645 -0.896353
vn -0.064355 0.438645 -0.896353
vn -0.064355 0.438645 -0.896353
vn -0.064355 0.438645 -0.896353
vn -0.064355 0.438645 -0.896353
vn -0.384688 0.497991 -0.777188
vn -0.384688 0.497991 -0.777188
vn -0.384688 0.497991 -0.777188
vn 0.008108 0.675094 -0.737687
vn 0.008108 0.675094 -0.737687
vn 0.008108 0.675094 -0.737687
vn -0.008101 0.675101 -0.737681
vn -0.008101 0.675101 -0.737681
vn -0.008101 0.675101 -0.737681
vn -0.607298 0.794213 -0.020396
vn -0.671608 0.739990 -0.036834
vn -0.665473 0.745590 -0.035221
vn -0.290631 0.947370 0.134256
vn -0.290631 0.947370 0.134256
vn -0.290631 0.947370 0.134256
vn 0.000000 -1.000000 0.000000
vn 0.000000 -1.000000 0.000000
vn 0.000000 -1.000000 0.000000
vn 0.000000 -1.000000 0.000000
vn -0.094248 0.936367 0.338133
vn -0.094248 0.936367 0.338133
vn -0.094248 0.936367 0.338133
vn -0.095852 0.979247 0.178570
vn 0.028796 0.984622 0.172309
vn -0.084542 0.980371 0.178114
vn -0.289068 0.947965 0.133422
vn -0.306703 0.943386 0.126315
vn -0.290345 0.947647 0.132910
vn -0.308738 0.942833 0.125488
vn -0.290345 0.947647 0.132910
vn -0.306703 0.943386 0.126315
vn -0.101226 0.925376 0.365284
vn -0.095717 0.937558 0.334401
vn -0.099316 0.929746 0.354554
vn 0.671608 0.739991 -0.036833
vn 0.607297 0.794213 -0.020396
vn 0.665473 0.745591 -0.035221
vn 0.290631 0.947370 0.134256
vn 0.290631 0.947370 0.134256
vn 0.290631 0.947370 0.134256
vn 0.665473 0.745591 -0.035221
vn 0.707601 0.703414 -0.067146
vn 0.671608 0.739991 -0.036833
vn 0.779677 0.597913 -0.186023
vn 0.000000 -1.000000 0.000000
vn 0.000000 -1.000000 0.000000
vn 0.000000 -1.000000 0.000000
vn 0.000000 -1.000000 0.000000
vn 0.000000 -1.000000 0.000000
vn 0.000000 -1.000000 0.000000
vn 0.000000 -1.000000 0.000000
vn 0.000000 -1.000000 0.000000
vn 0.000000 -1.000000 0.000000
vn 0.000000 -1.000000 0.000000
vn 0.000000 -1.000000 0.000000
vn 0.000000 -1.000000 0.000000
vn 0.094248 0.936367 0.338133
vn 0.094248 0.936367 0.338133
vn 0.094248 0.936367 0.338133
vn 0.000000 -1.000000 0.000000
vn 0.000000 -1.000000 0.000000
vn 0.000000 -1.000000 0.000000
vn 0.000000 -1.000000 0.000000
vn -0.028802 0.984623 0.172301
vn 0.095866 0.979241 0.178596
vn 0.084565 0.980365 0.178138
vn 0.306857 0.943327 0.126383
vn 0.289200 0.947915 0.133493
vn 0.290478 0.947596 0.132981
vn 0.101225 0.925376 0.365284
vn 0.106794 0.911696 0.396744
vn 0.099316 0.929746 0.354554
vn 0.106794 0.911696 0.396744
vn 0.095866 0.979241 0.178596
vn 0.110548 0.977590 0.179157
vn 0.084565 0.980365 0.178138
vn 0.110548 0.977590 0.179157
vn -0.095852 0.979247 0.178570
vn -0.084542 0.980371 0.178114
vn -0.110532 0.977597 0.179127
vn -0.110532 0.977597 0.179127
vn -0.106794 0.911695 0.396745
vn -0.106794 0.911695 0.396745
vn -0.099316 0.929746 0.354554
vn -0.101226 0.925376 0.365284
vn 0.000000 -1.000000 0.000000
vn 0.000000 -1.000000 0.000000
vn 0.000000 -1.000000 0.000000
vn 0.000000 -1.000000 0.000000
vn 0.095717 0.937558 0.334401
vn 0.101225 0.925376 0.365284
vn 0.099316 0.929746 0.354554
vn 0.000000 1.000000 0.000000
vn 0.000000 1.000000 0.000000
vn 0.000000 1.000000 0.000000
vn 0.000000 1.000000 0.000000
vn 0.000000 1.000000 0.000000
vn 0.000000 1.000000 0.000000
vn 0.000000 1.000000 0.000000
vn 0.000000 1.000000 0.000000
s 1
g RLeg
usemtl None
f 1/1/1 2/2/2 46/3/3
f 46/3/3 2/2/2 45/4/4
s 2
f 2/2/5 3/5/6 45/4/7
f 45/4/7 3/5/6 47/6/8
s 3
f 3/5/9 4/7/10 47/6/11
f 47/6/11 4/7/10 48/8/12
s 4
f 4/7/13 5/9/14 48/8/15
f 48/8/15 5/9/14 49/10/16
s 5
f 5/9/17 6/11/18 49/10/19
f 49/10/19 6/11/18 50/12/20
s 6
f 6/11/21 7/13/22 50/12/23
f 50/12/23 7/13/22 51/14/24
s 7
f 7/13/25 8/15/26 51/14/27
f 51/14/27 8/15/26 52/16/28
s 8
f 8/15/29 1/1/30 52/16/31
f 52/16/31 1/1/30 46/3/32
s 9
f 12/17/33 11/18/34 9/19/35
f 9/19/35 11/18/34 10/20/36
s off
f 9/19/37 4/7/38 12/17/39
f 8/15/40 14/21/41 13/22/42
s 10
f 10/20/43 11/18/44 15/23/45
f 15/23/45 11/18/44 16/24/46
s off
f 14/21/47 8/15/48 7/13/49
s 11
f 18/25/50 15/23/51 17/26/52
f 17/26/52 15/23/51 16/24/53
s 12
f 21/27/54 20/28/55 13/22/56
f 13/22/56 20/28/55 19/29/57
s off
f 19/29/58 8/15/59 13/22/60
s 13
f 11/18/61 23/30/62 16/24/63
f 16/24/63 23/30/62 22/31/64
s off
f 19/29/65 1/1/66 8/15/67
s 14
f 11/18/68 12/17/69 23/30/70
f 23/30/70 12/17/69 24/32/71
s off
f 4/7/72 24/32/73 12/17/74
f 3/5/75 24/32/76 4/7/77
f 24/32/78 22/31/79 23/30/80
s 15
f 26/33/81 20/28/82 25/34/83
f 25/34/83 20/28/82 21/27/84
s 16
f 26/33/85 25/34/86 27/35/87
f 27/35/87 25/34/86 17/26/88
s off
f 26/33/89 19/29/90 20/28/91
s 17
f 22/31/92 27/35/93 16/24/94
f 16/24/94 27/35/93 17/26/95
s off
f 1/1/96 19/29/97 28/36/98
f 24/32/99 3/5/100 29/37/101
f 2/2/102 29/37/103 3/5/104
f 30/38/105 28/36/106 31/39/107
f 28/36/108 2/2/109 1/1/110
f 19/29/111 31/39/112 28/36/113
f 32/40/114 24/32/115 29/37/116
f 29/37/117 30/38/118 32/40/119
f 31/39/120 19/29/121 26/33/122
s 18
f 26/33/123 27/35/124 31/39/125
f 31/39/125 27/35/124 30/38/126
s 19
f 30/38/127 27/35/128 32/40/129
f 32/40/129 27/35/128 22/31/130
s off
f 24/32/131 32/40/132 22/31/133
f 28/36/134 30/38/135 2/2/136
f 30/38/137 29/37/138 2/2/139
f 33/41/140 9/19/141 10/20/142
f 9/19/143 33/41/144 34/42/145
s 20
f 35/43/146 33/41/147 15/23/148
f 15/23/148 33/41/147 10/20/149
s off
f 33/44/150 36/45/151 34/46/152
f 5/47/153 34/46/154 36/45/155
f 34/42/156 5/9/157 9/19/158
f 4/7/159 9/19/160 5/9/161
f 36/45/162 33/44/163 35/48/164
f 14/21/165 38/49/166 37/50/167
f 38/49/168 14/21/169 39/51/170
s 21
f 37/50/171 21/27/172 14/21/173
f 14/21/173 21/27/172 13/22/174
s 22
f 18/25/175 17/26/176 40/52/177
f 40/52/177 17/26/176 25/34/178
s 23
f 41/53/179 42/54/180 40/52/181
f 40/52/181 42/54/180 18/25/182
s 24
f 41/53/183 40/52/184 38/49/185
f 38/49/185 40/52/184 37/50/186
s off
f 43/55/187 38/56/188 39/57/189
s 25
f 37/50/190 40/52/191 21/27/192
f 21/27/192 40/52/191 25/34/193
s off
f 39/57/194 7/58/195 43/55/196
f 7/13/197 39/51/198 14/21/199
s 26
f 43/55/200 44/59/201 41/60/202
f 41/60/202 44/59/201 42/61/203
s 27
f 7/58/204 6/62/205 43/55/206
f 43/55/206 6/62/205 44/59/207
s 28
f 5/47/208 36/45/209 6/62/210
f 6/62/210 36/45/209 44/59/211
s 29
f 42/61/212 44/59/213 35/48/214
f 35/48/214 44/59/213 36/45/215
s 30
f 35/43/216 15/23/217 42/54/218
f 42/54/218 15/23/217 18/25/219
s off
f 38/56/220 43/55/221 41/60/222
s 31
f 45/63/223 47/64/224 46/70/225
f 47/64/224 48/65/226 46/70/225
f 48/65/226 49/66/227 46/70/225
f 49/66/227 50/67/228 46/70/225
f 50/67/228 51/68/229 46/70/225
f 51/68/229 52/69/230 46/70/225
