# This file uses centimeters as units for non-parametric coordinates.

mtllib DewottTail.mtl
g default
v 0.000000 0.089136 -3.814854
v 0.000000 -0.093359 -3.827663
v 0.000000 0.170238 -3.643746
v 0.000000 -0.167248 -3.627062
v 0.000000 0.227565 -3.358785
v 0.000000 -0.213726 -3.353937
v 0.000000 0.251547 -3.052459
v 0.000000 -0.225983 -3.038422
v 0.000000 0.220221 -1.925556
v 0.000000 -0.207860 -1.912405
v 0.000000 0.150044 -0.885220
v 0.000000 -0.160765 -0.901202
v 0.000000 0.097445 -0.190315
v 0.000000 -0.121129 -0.199514
v 0.000000 -0.003154 -3.878903
v 0.000000 0.001723 0.009247
v 0.254909 0.062410 -3.816730
v 0.471010 0.120815 -3.641303
v 0.360496 -0.002112 -3.821259
v 0.666109 0.001495 -3.635404
v 0.254909 -0.066633 -3.825787
v 0.471010 -0.117824 -3.629505
v 0.615404 0.162939 -3.358075
v 0.870313 0.006919 -3.356360
v 0.615404 -0.149100 -3.354647
v 0.666109 0.181615 -3.050403
v 0.942020 0.012782 -3.045441
v 0.666109 -0.156050 -3.040478
v 0.551123 0.157530 -1.923630
v 0.779406 0.006181 -1.918980
v 0.551123 -0.145169 -1.914330
v 0.362677 0.104528 -0.887560
v 0.512903 -0.005360 -0.893211
v 0.362677 -0.115248 -0.898861
v 0.208787 0.065436 -0.191662
v 0.295269 -0.011842 -0.194915
v 0.208787 -0.089119 -0.198167
v -0.471010 0.120815 -3.641303
v -0.254909 0.062410 -3.816730
v -0.666109 0.001495 -3.635404
v -0.360496 -0.002112 -3.821259
v -0.471010 -0.117824 -3.629505
v -0.254909 -0.066633 -3.825787
v -0.615404 0.162939 -3.358075
v -0.870313 0.006919 -3.356360
v -0.615404 -0.149100 -3.354647
v -0.666109 0.181615 -3.050403
v -0.942020 0.012782 -3.045441
v -0.666109 -0.156050 -3.040478
v -0.551123 0.157530 -1.923630
v -0.779406 0.006181 -1.918980
v -0.551123 -0.145169 -1.914330
v -0.362677 0.104528 -0.887560
v -0.512903 -0.005360 -0.893211
v -0.362677 -0.115248 -0.898861
v -0.208787 0.065436 -0.191662
v -0.295269 -0.011842 -0.194915
v -0.208787 -0.089119 -0.198167
vt 0.323160 0.272559
vt 0.309574 0.322298
vt 0.323309 0.256168
vt 0.309380 0.291987
vt 0.323668 0.216597
vt 0.308912 0.218809
vt 0.308443 0.145632
vt 0.324028 0.177027
vt 0.308249 0.115321
vt 0.324177 0.160636
vt 0.286949 0.357456
vt 0.286892 0.317821
vt 0.286756 0.222136
vt 0.286620 0.126451
vt 0.286564 0.086816
vt 0.262627 0.372164
vt 0.262464 0.329275
vt 0.262070 0.225731
vt 0.261676 0.122188
vt 0.261513 0.079299
vt 0.173154 0.352952
vt 0.173001 0.314504
vt 0.172632 0.221683
vt 0.172263 0.128862
vt 0.172110 0.090414
vt 0.090554 0.309913
vt 0.090740 0.281998
vt 0.091188 0.214605
vt 0.091637 0.147212
vt 0.091823 0.119297
vt 0.035380 0.277654
vt 0.035487 0.258024
vt 0.035746 0.210630
vt 0.036004 0.163236
vt 0.036111 0.143605
vt 0.328245 0.215958
vt 0.526747 0.463604
vt 0.510199 0.452191
vt 0.526859 0.459787
vt 0.527128 0.450573
vt 0.527398 0.441360
vt 0.527510 0.437543
vt 0.323160 0.272559
vt 0.323309 0.256168
vt 0.309574 0.322298
vt 0.309380 0.291987
vt 0.323668 0.216597
vt 0.308912 0.218809
vt 0.324028 0.177027
vt 0.308443 0.145632
vt 0.324177 0.160636
vt 0.308249 0.115321
vt 0.286949 0.357456
vt 0.286892 0.317821
vt 0.286756 0.222136
vt 0.286620 0.126451
vt 0.286564 0.086816
vt 0.262627 0.372164
vt 0.262464 0.329275
vt 0.262070 0.225731
vt 0.261676 0.122188
vt 0.261513 0.079299
vt 0.173001 0.314504
vt 0.173154 0.352952
vt 0.172632 0.221683
vt 0.172263 0.128862
vt 0.172110 0.090414
vt 0.090740 0.281998
vt 0.090554 0.309913
vt 0.091188 0.214605
vt 0.091637 0.147212
vt 0.091823 0.119297
vt 0.035487 0.258024
vt 0.035380 0.277654
vt 0.035746 0.210630
vt 0.036004 0.163236
vt 0.036111 0.143605
vt 0.328245 0.215958
vt 0.526747 0.463604
vt 0.526859 0.459787
vt 0.510199 0.452191
vt 0.527128 0.450573
vt 0.527398 0.441360
vt 0.527510 0.437543
vn 0.094904 0.901555 -0.422128
vn 0.094904 0.901555 -0.422128
vn 0.094904 0.901555 -0.422128
vn 0.094904 0.901555 -0.422128
vn 0.389232 0.631620 -0.670488
vn 0.389232 0.631620 -0.670488
vn 0.389232 0.631620 -0.670488
vn 0.389232 0.631620 -0.670488
vn 0.402272 -0.662654 -0.631718
vn 0.402272 -0.662654 -0.631718
vn 0.402272 -0.662654 -0.631718
vn 0.402272 -0.662654 -0.631718
vn 0.097574 -0.932743 -0.347087
vn 0.097574 -0.932743 -0.347087
vn 0.097574 -0.932743 -0.347087
vn 0.097574 -0.932743 -0.347087
vn 0.102927 0.975023 -0.196816
vn 0.102927 0.975023 -0.196816
vn 0.102927 0.975023 -0.196816
vn 0.102927 0.975023 -0.196816
vn 0.489383 0.789601 -0.370182
vn 0.489383 0.789601 -0.370182
vn 0.489383 0.789601 -0.370182
vn 0.489383 0.789601 -0.370182
vn 0.485951 -0.803720 -0.343344
vn 0.485951 -0.803720 -0.343345
vn 0.485951 -0.803720 -0.343344
vn 0.485951 -0.803720 -0.343344
vn 0.102476 -0.980759 -0.166163
vn 0.102475 -0.980759 -0.166163
vn 0.102476 -0.980759 -0.166163
vn 0.102476 -0.980759 -0.166163
vn 0.104277 0.991524 -0.077499
vn 0.104277 0.991524 -0.077499
vn 0.104277 0.991524 -0.077499
vn 0.104277 0.991524 -0.077499
vn 0.518381 0.844255 -0.136071
vn 0.518381 0.844255 -0.136071
vn 0.518381 0.844255 -0.136071
vn 0.518381 0.844255 -0.136071
vn 0.518273 -0.848994 -0.102971
vn 0.518273 -0.848994 -0.102971
vn 0.518273 -0.848994 -0.102971
vn 0.518273 -0.848994 -0.102971
vn 0.104265 -0.993796 -0.038710
vn 0.104265 -0.993796 -0.038710
vn 0.104265 -0.993796 -0.038710
vn 0.104265 -0.993796 -0.038710
vn 0.108169 0.993681 0.029950
vn 0.108169 0.993681 0.029950
vn 0.108169 0.993681 0.029950
vn 0.108169 0.993681 0.029950
vn 0.533429 0.842315 0.077190
vn 0.533429 0.842315 0.077190
vn 0.533429 0.842315 0.077190
vn 0.533429 0.842315 0.077190
vn 0.535769 -0.841652 0.067625
vn 0.535769 -0.841652 0.067625
vn 0.535769 -0.841652 0.067625
vn 0.535769 -0.841652 0.067625
vn 0.108355 -0.993943 0.018333
vn 0.108355 -0.993943 0.018333
vn 0.108355 -0.993943 0.018333
vn 0.108355 -0.993943 0.018333
vn 0.117341 0.990662 0.069419
vn 0.117341 0.990663 0.069419
vn 0.117341 0.990663 0.069419
vn 0.117341 0.990663 0.069419
vn 0.561911 0.813584 0.149455
vn 0.561911 0.813584 0.149455
vn 0.561911 0.813584 0.149455
vn 0.561911 0.813584 0.149455
vn 0.562756 -0.815890 0.132773
vn 0.562756 -0.815890 0.132773
vn 0.562757 -0.815890 0.132773
vn 0.562756 -0.815890 0.132773
vn 0.117433 -0.991890 0.048612
vn 0.117433 -0.991890 0.048612
vn 0.117433 -0.991890 0.048612
vn 0.117433 -0.991890 0.048612
vn 0.134507 0.987678 0.079998
vn 0.134507 0.987678 0.079998
vn 0.134507 0.987678 0.079998
vn 0.134507 0.987678 0.079998
vn 0.613468 0.766882 0.188545
vn 0.613468 0.766882 0.188545
vn 0.613468 0.766882 0.188545
vn 0.613468 0.766882 0.188545
vn 0.606994 -0.775850 0.172093
vn 0.606994 -0.775850 0.172093
vn 0.606994 -0.775850 0.172093
vn 0.606994 -0.775850 0.172093
vn 0.133793 -0.989126 0.061068
vn 0.133793 -0.989126 0.061068
vn 0.133793 -0.989126 0.061068
vn 0.133793 -0.989126 0.061068
vn 0.053653 0.569323 -0.820361
vn 0.053653 0.569323 -0.820361
vn 0.053653 0.569323 -0.820361
vn 0.149239 0.310120 -0.938911
vn 0.149239 0.310120 -0.938911
vn 0.149239 0.310120 -0.938911
vn 0.155649 -0.186631 -0.970022
vn 0.155649 -0.186631 -0.970022
vn 0.155649 -0.186631 -0.970022
vn 0.058086 -0.493083 -0.868041
vn 0.058086 -0.493083 -0.868041
vn 0.058086 -0.493083 -0.868041
vn 0.139640 0.892810 0.428243
vn 0.139640 0.892810 0.428243
vn 0.139640 0.892810 0.428243
vn 0.498831 0.529354 0.686260
vn 0.498831 0.529354 0.686260
vn 0.498831 0.529354 0.686260
vn 0.460027 -0.544337 0.701479
vn 0.460027 -0.544337 0.701479
vn 0.460027 -0.544337 0.701479
vn 0.127800 -0.854775 0.503018
vn 0.127800 -0.854775 0.503018
vn 0.127800 -0.854775 0.503018
vn -0.094904 0.901555 -0.422128
vn -0.094904 0.901555 -0.422128
vn -0.094904 0.901555 -0.422128
vn -0.094904 0.901555 -0.422128
vn -0.389232 0.631620 -0.670488
vn -0.389232 0.631620 -0.670488
vn -0.389232 0.631620 -0.670488
vn -0.389232 0.631620 -0.670488
vn -0.402272 -0.662654 -0.631718
vn -0.402272 -0.662654 -0.631718
vn -0.402272 -0.662654 -0.631718
vn -0.402272 -0.662654 -0.631718
vn -0.097574 -0.932743 -0.347087
vn -0.097574 -0.932743 -0.347087
vn -0.097574 -0.932743 -0.347087
vn -0.097574 -0.932743 -0.347087
vn -0.102927 0.975023 -0.196816
vn -0.102927 0.975023 -0.196816
vn -0.102927 0.975023 -0.196816
vn -0.102927 0.975023 -0.196816
vn -0.489383 0.789601 -0.370182
vn -0.489383 0.789601 -0.370182
vn -0.489383 0.789601 -0.370182
vn -0.489383 0.789601 -0.370182
vn -0.485951 -0.803720 -0.343344
vn -0.485951 -0.803720 -0.343345
vn -0.485951 -0.803720 -0.343344
vn -0.485951 -0.803720 -0.343344
vn -0.102476 -0.980759 -0.166163
vn -0.102475 -0.980759 -0.166163
vn -0.102476 -0.980759 -0.166163
vn -0.102476 -0.980759 -0.166163
vn -0.104277 0.991524 -0.077499
vn -0.104277 0.991524 -0.077499
vn -0.104277 0.991524 -0.077499
vn -0.104277 0.991524 -0.077499
vn -0.518381 0.844255 -0.136071
vn -0.518381 0.844255 -0.136071
vn -0.518381 0.844255 -0.136071
vn -0.518381 0.844255 -0.136071
vn -0.518273 -0.848994 -0.102971
vn -0.518273 -0.848994 -0.102971
vn -0.518273 -0.848994 -0.102971
vn -0.518273 -0.848994 -0.102971
vn -0.104265 -0.993796 -0.038710
vn -0.104265 -0.993796 -0.038710
vn -0.104265 -0.993796 -0.038710
vn -0.104265 -0.993796 -0.038710
vn -0.108169 0.993681 0.029950
vn -0.108169 0.993681 0.029950
vn -0.108169 0.993681 0.029950
vn -0.108169 0.993681 0.029950
vn -0.533429 0.842315 0.077190
vn -0.533429 0.842315 0.077190
vn -0.533429 0.842315 0.077190
vn -0.533429 0.842315 0.077190
vn -0.535769 -0.841652 0.067625
vn -0.535769 -0.841652 0.067625
vn -0.535769 -0.841652 0.067625
vn -0.535769 -0.841652 0.067625
vn -0.108355 -0.993943 0.018333
vn -0.108355 -0.993943 0.018333
vn -0.108355 -0.993943 0.018333
vn -0.108355 -0.993943 0.018333
vn -0.117341 0.990663 0.069419
vn -0.117341 0.990663 0.069419
vn -0.117341 0.990663 0.069419
vn -0.117341 0.990662 0.069419
vn -0.561911 0.813584 0.149455
vn -0.561911 0.813584 0.149455
vn -0.561911 0.813584 0.149455
vn -0.561911 0.813584 0.149455
vn -0.562756 -0.815890 0.132773
vn -0.562757 -0.815890 0.132773
vn -0.562756 -0.815890 0.132773
vn -0.562756 -0.815890 0.132773
vn -0.117433 -0.991890 0.048612
vn -0.117433 -0.991890 0.048612
vn -0.117433 -0.991890 0.048612
vn -0.117433 -0.991890 0.048612
vn -0.134507 0.987678 0.079998
vn -0.134507 0.987678 0.079998
vn -0.134507 0.987678 0.079998
vn -0.134507 0.987678 0.079998
vn -0.613468 0.766882 0.188545
vn -0.613468 0.766882 0.188545
vn -0.613468 0.766882 0.188545
vn -0.613468 0.766882 0.188545
vn -0.606994 -0.775850 0.172093
vn -0.606994 -0.775850 0.172093
vn -0.606994 -0.775850 0.172093
vn -0.606994 -0.775850 0.172093
vn -0.133793 -0.989126 0.061068
vn -0.133793 -0.989126 0.061068
vn -0.133793 -0.989126 0.061068
vn -0.133793 -0.989126 0.061068
vn -0.053653 0.569323 -0.820361
vn -0.053653 0.569323 -0.820361
vn -0.053653 0.569323 -0.820361
vn -0.149239 0.310120 -0.938911
vn -0.149239 0.310120 -0.938911
vn -0.149239 0.310120 -0.938911
vn -0.155649 -0.186631 -0.970022
vn -0.155649 -0.186631 -0.970022
vn -0.155649 -0.186631 -0.970022
vn -0.058086 -0.493083 -0.868041
vn -0.058086 -0.493083 -0.868041
vn -0.058086 -0.493083 -0.868041
vn -0.139640 0.892810 0.428243
vn -0.139640 0.892810 0.428243
vn -0.139640 0.892810 0.428243
vn -0.498831 0.529354 0.686260
vn -0.498831 0.529354 0.686260
vn -0.498831 0.529354 0.686260
vn -0.460027 -0.544337 0.701479
vn -0.460027 -0.544337 0.701479
vn -0.460027 -0.544337 0.701479
vn -0.127800 -0.854775 0.503018
vn -0.127800 -0.854775 0.503018
vn -0.127800 -0.854775 0.503018
s 1
g Tail
usemtl None
f 1/1/1 3/2/2 17/3/3
f 17/3/3 3/2/2 18/4/4
s 2
f 17/3/5 18/4/6 19/5/7
f 19/5/7 18/4/6 20/6/8
s 3
f 20/6/9 22/7/10 19/5/11
f 19/5/11 22/7/10 21/8/12
s 4
f 22/7/13 4/9/14 21/8/15
f 21/8/15 4/9/14 2/10/16
s 5
f 3/2/17 5/11/18 18/4/19
f 18/4/19 5/11/18 23/12/20
s 6
f 18/4/21 23/12/22 20/6/23
f 20/6/23 23/12/22 24/13/24
s 7
f 24/13/25 25/14/26 20/6/27
f 20/6/27 25/14/26 22/7/28
s 8
f 25/14/29 6/15/30 22/7/31
f 22/7/31 6/15/30 4/9/32
s 9
f 5/11/33 7/16/34 23/12/35
f 23/12/35 7/16/34 26/17/36
s 10
f 23/12/37 26/17/38 24/13/39
f 24/13/39 26/17/38 27/18/40
s 11
f 27/18/41 28/19/42 24/13/43
f 24/13/43 28/19/42 25/14/44
s 12
f 28/19/45 8/20/46 25/14/47
f 25/14/47 8/20/46 6/15/48
s 13
f 9/21/49 29/22/50 7/16/51
f 7/16/51 29/22/50 26/17/52
s 14
f 29/22/53 30/23/54 26/17/55
f 26/17/55 30/23/54 27/18/56
s 15
f 27/18/57 30/23/58 28/19/59
f 28/19/59 30/23/58 31/24/60
s 16
f 28/19/61 31/24/62 8/20/63
f 8/20/63 31/24/62 10/25/64
s 17
f 11/26/65 32/27/66 9/21/67
f 9/21/67 32/27/66 29/22/68
s 18
f 32/27/69 33/28/70 29/22/71
f 29/22/71 33/28/70 30/23/72
s 19
f 30/23/73 33/28/74 31/24/75
f 31/24/75 33/28/74 34/29/76
s 20
f 31/24/77 34/29/78 10/25/79
f 10/25/79 34/29/78 12/30/80
s 21
f 13/31/81 35/32/82 11/26/83
f 11/26/83 35/32/82 32/27/84
s 22
f 35/32/85 36/33/86 32/27/87
f 32/27/87 36/33/86 33/28/88
s 23
f 33/28/89 36/33/90 34/29/91
f 34/29/91 36/33/90 37/34/92
s 24
f 34/29/93 37/34/94 12/30/95
f 12/30/95 37/34/94 14/35/96
s off
f 17/3/97 15/36/98 1/1/99
f 19/5/100 15/36/101 17/3/102
f 21/8/103 15/36/104 19/5/105
f 2/10/106 15/36/107 21/8/108
f 13/37/109 16/38/110 35/39/111
f 35/39/112 16/38/113 36/40/114
f 36/40/115 16/38/116 37/41/117
f 37/41/118 16/38/119 14/42/120
s 25
f 1/43/121 39/44/122 3/45/123
f 3/45/123 39/44/122 38/46/124
s 26
f 39/44/125 41/47/126 38/46/127
f 38/46/127 41/47/126 40/48/128
s 27
f 43/49/129 42/50/130 41/47/131
f 41/47/131 42/50/130 40/48/132
s 28
f 2/51/133 4/52/134 43/49/135
f 43/49/135 4/52/134 42/50/136
s 29
f 3/45/137 38/46/138 5/53/139
f 5/53/139 38/46/138 44/54/140
s 30
f 38/46/141 40/48/142 44/54/143
f 44/54/143 40/48/142 45/55/144
s 31
f 42/50/145 46/56/146 40/48/147
f 40/48/147 46/56/146 45/55/148
s 32
f 4/52/149 6/57/150 42/50/151
f 42/50/151 6/57/150 46/56/152
s 33
f 5/53/153 44/54/154 7/58/155
f 7/58/155 44/54/154 47/59/156
s 34
f 44/54/157 45/55/158 47/59/159
f 47/59/159 45/55/158 48/60/160
s 35
f 46/56/161 49/61/162 45/55/163
f 45/55/163 49/61/162 48/60/164
s 36
f 6/57/165 8/62/166 46/56/167
f 46/56/167 8/62/166 49/61/168
s 37
f 47/59/169 50/63/170 7/58/171
f 7/58/171 50/63/170 9/64/172
s 38
f 48/60/173 51/65/174 47/59/175
f 47/59/175 51/65/174 50/63/176
s 39
f 48/60/177 49/61/178 51/65/179
f 51/65/179 49/61/178 52/66/180
s 40
f 49/61/181 8/62/182 52/66/183
f 52/66/183 8/62/182 10/67/184
s 41
f 50/63/185 53/68/186 9/64/187
f 9/64/187 53/68/186 11/69/188
s 42
f 51/65/189 54/70/190 50/63/191
f 50/63/191 54/70/190 53/68/192
s 43
f 51/65/193 52/66/194 54/70/195
f 54/70/195 52/66/194 55/71/196
s 44
f 52/66/197 10/67/198 55/71/199
f 55/71/199 10/67/198 12/72/200
s 45
f 53/68/201 56/73/202 11/69/203
f 11/69/203 56/73/202 13/74/204
s 46
f 54/70/205 57/75/206 53/68/207
f 53/68/207 57/75/206 56/73/208
s 47
f 54/70/209 55/71/210 57/75/211
f 57/75/211 55/71/210 58/76/212
s 48
f 55/71/213 12/72/214 58/76/215
f 58/76/215 12/72/214 14/77/216
s off
f 39/44/217 1/43/218 15/78/219
f 41/47/220 39/44/221 15/78/222
f 43/49/223 41/47/224 15/78/225
f 2/51/226 43/49/227 15/78/228
f 13/79/229 56/80/230 16/81/231
f 56/80/232 57/82/233 16/81/234
f 57/82/235 58/83/236 16/81/237
f 58/83/238 14/84/239 16/81/240
