# Blender v2.71 (sub 0) OBJ File: ''
# www.blender.org
mtllib BackRightLeg.mtl
o BackRightLeg
v 0.243238 3.419647 -2.554739
v -0.029230 2.962546 -3.886693
v -0.189063 3.471200 -2.533129
v -0.189063 3.471200 -2.019689
v -0.029230 3.499187 -1.720857
v 0.243238 3.419647 -2.014143
v -0.476127 -11.106421 -4.174996
v -0.476127 -11.106416 -2.700247
v -1.091526 -11.106421 -3.610878
v -1.091526 -11.106410 -2.531752
v -1.795750 -11.106374 -3.286560
v -1.336204 1.301343 -1.360296
v -1.336204 0.936903 -2.786949
v -0.918875 1.360377 0.158849
v -1.145944 -2.145652 0.220183
v -1.385249 -2.150460 -1.390819
v -1.364947 -4.184340 -2.701379
v -0.507494 -4.184340 -1.798595
v -1.385249 -2.150460 -2.746583
v -1.078740 -4.180007 -4.194099
v -0.507494 -4.180005 -4.418273
v -1.001462 -2.150458 -4.105844
v -0.848706 0.572464 -4.618293
v 0.876698 0.819682 -0.700559
v 0.934388 -2.145652 0.220183
v 0.253731 2.111244 0.101345
v 0.269172 -4.184340 -1.798595
v 0.253731 2.111244 -1.285262
v 0.596681 2.111245 -3.522254
v 0.596681 2.111244 -2.190300
v 1.044201 0.572464 -4.459920
v 1.128139 -2.150458 -4.136785
v 0.507777 -4.180007 -4.226264
v 1.446720 1.703565 -2.177763
v 1.158664 1.703565 -0.213273
v 1.221965 -2.150460 -0.860560
v 1.489275 -2.150458 -3.732902
v 0.529439 -4.184340 -2.385192
v 0.718304 -4.184340 -3.742550
v -1.364947 -4.647313 -3.185080
v -0.294483 -4.848701 -2.797197
v -1.364335 -4.647316 -4.655154
v -0.293871 -4.647384 -4.886365
v 0.454817 -4.848701 -2.800399
v 0.455429 -4.647384 -4.676507
v 0.454817 -4.848711 -3.566254
v 0.454817 -4.647367 -4.380479
v -1.222548 -5.209146 -3.722884
v -0.412541 -5.209176 -2.976958
v -1.222548 -5.209146 -4.683347
v -0.412541 -5.209195 -4.846193
v 0.130916 -5.209176 -2.968147
v 0.130915 -5.209195 -4.694367
v 0.130916 -5.209179 -3.143255
v 0.130916 -5.209186 -4.197715
v -1.771891 -8.296349 -3.568135
v -0.665818 -8.296353 -2.905850
v -1.771891 -8.296349 -4.329599
v -1.017348 -8.296350 -4.453983
v -0.381875 -8.296353 -2.903839
v -0.405282 -8.296350 -4.335259
v -0.405282 -8.296350 -3.053643
v -0.405282 -8.296350 -3.965446
v -0.476127 -9.770877 -4.619608
v -1.091526 -9.770877 -4.748581
v -0.496251 -9.738297 -4.599066
v -1.092138 -9.738297 -4.724896
v -0.496251 -9.738283 -4.220943
v -0.476127 -9.770863 -4.233572
v -1.795750 -9.770823 -4.614781
v -1.795750 -9.770818 -3.790322
v -1.774033 -9.738244 -4.594359
v -1.774033 -9.738240 -3.788500
v -0.476127 -9.770857 -3.204009
v -0.496251 -9.738278 -3.216476
v -0.476127 -9.770852 -3.035515
v -0.465641 -9.738273 -3.052087
v -1.091526 -9.770852 -3.035515
v -0.632439 -9.738273 -3.052087
v -1.795750 -11.106380 -4.556207
v -0.476127 -11.106410 -2.531752
v -1.091526 -11.106432 -4.690005
v -0.476127 -11.106432 -4.561032
v -0.384304 -9.414292 -4.421548
v -1.237798 -9.414292 -4.568587
v -0.384304 -9.414276 -3.972998
v -0.384304 -9.414273 -2.799218
v -0.343373 -9.414267 -2.607119
v -0.623096 -9.414267 -2.607119
v -2.234103 -9.414227 -3.467659
v -2.234103 -9.414232 -4.416048
vt 0.163774 0.679575
vt 0.204783 0.662528
vt 0.171597 0.665774
vt 0.162961 0.653033
vt 0.152287 0.641824
vt 0.153114 0.660209
vt 0.214057 0.331894
vt 0.243845 0.306653
vt 0.218001 0.297171
vt 0.248225 0.288723
vt 0.224891 0.277215
vt 0.178476 0.605460
vt 0.202951 0.611852
vt 0.160945 0.602066
vt 0.159798 0.564164
vt 0.183105 0.558021
vt 0.198511 0.514228
vt 0.156444 0.520057
vt 0.215510 0.557098
vt 0.252503 0.516523
vt 0.280073 0.532367
vt 0.248209 0.566792
vt 0.218930 0.619293
vt 0.125389 0.603041
vt 0.126767 0.562231
vt 0.134782 0.624349
vt 0.129843 0.521922
vt 0.118671 0.648437
vt 0.229375 0.667159
vt 0.224274 0.699398
vt 0.102222 0.662811
vt 0.255622 0.657115
vt 0.299978 0.603725
vt 0.308606 0.551512
vt 0.077384 0.633449
vt 0.112637 0.618585
vt 0.112356 0.558587
vt 0.049102 0.549191
vt 0.111720 0.511485
vt 0.070143 0.501019
vt 0.258581 0.698279
vt 0.313094 0.614055
vt 0.324428 0.557370
vt 0.219098 0.502238
vt 0.163205 0.499158
vt 0.268177 0.503217
vt 0.291976 0.514765
vt 0.129860 0.497699
vt 0.308889 0.528730
vt 0.101726 0.487320
vt 0.051785 0.481010
vt 0.316575 0.538766
vt 0.193968 0.458269
vt 0.163267 0.462320
vt 0.183297 0.467605
vt 0.159724 0.482701
vt 0.220803 0.456607
vt 0.220124 0.462686
vt 0.240500 0.458334
vt 0.242534 0.464869
vt 0.145608 0.462594
vt 0.142768 0.486753
vt 0.260731 0.468754
vt 0.258111 0.460102
vt 0.140474 0.460775
vt 0.110352 0.452967
vt 0.139626 0.469538
vt 0.105801 0.460873
vt 0.271897 0.457962
vt 0.271191 0.466992
vt 0.195474 0.390595
vt 0.160461 0.394381
vt 0.216123 0.389576
vt 0.235914 0.390966
vt 0.151803 0.395634
vt 0.253351 0.392165
vt 0.148021 0.394192
vt 0.123653 0.388462
vt 0.263358 0.390855
vt 0.250983 0.357378
vt 0.233632 0.356481
vt 0.250969 0.358177
vt 0.233619 0.357262
vt 0.259086 0.357282
vt 0.259114 0.356524
vt 0.213758 0.355249
vt 0.196207 0.355984
vt 0.213782 0.356041
vt 0.196227 0.356738
vt 0.151566 0.360063
vt 0.130545 0.355469
vt 0.151797 0.360880
vt 0.130308 0.356190
vt 0.155289 0.360892
vt 0.154903 0.362135
vt 0.171024 0.354405
vt 0.159058 0.360391
vt 0.268537 0.263906
vt 0.215900 0.239804
vt 0.200978 0.281691
vt 0.177270 0.252959
vt 0.247318 0.301158
vt 0.283133 0.301419
vt 0.195733 0.305618
vt 0.154504 0.290808
vt 0.203727 0.329204
vt 0.152203 0.328240
vt 0.282963 0.308770
vt 0.268486 0.349460
vt 0.155530 0.344757
vt 0.251451 0.365063
vt 0.234084 0.364091
vt 0.259951 0.364084
vt 0.151032 0.367630
vt 0.128959 0.362729
vt 0.154275 0.368923
vt 0.159342 0.367278
vt 0.196075 0.363598
vt 0.214256 0.362836
vn 0.094500 0.935500 -0.340400
vn 0.118900 0.980700 -0.155500
vn 0.000000 -1.000000 0.000000
vn -0.000100 -1.000000 0.000000
vn -0.884100 0.467400 0.000000
vn -0.901700 0.418900 -0.107000
vn -0.962800 0.066900 0.261900
vn -0.989100 0.012800 0.146900
vn -0.661000 -0.411100 0.627800
vn -0.899600 -0.415300 0.134900
vn -0.999900 0.015900 0.000000
vn -0.999900 0.014200 -0.003600
vn -0.982000 -0.014000 -0.188300
vn -1.000000 -0.010000 -0.000000
vn -0.364800 0.054300 -0.929500
vn -0.961200 0.048400 -0.271400
vn -0.869500 0.419700 -0.260400
vn -0.866800 0.391700 -0.308700
vn -0.965700 0.011900 -0.259400
vn -0.962400 0.002900 -0.271700
vn -0.825700 0.524900 0.206400
vn -0.772800 0.519400 0.364700
vn 0.428800 -0.012000 0.903300
vn 0.000000 0.296500 0.955000
vn 0.296500 -0.396500 0.868900
vn -0.414100 0.692000 0.591400
vn 0.000000 -0.703600 0.710600
vn 0.118400 0.993000 0.000000
vn 0.979800 0.199800 0.000000
vn 0.733900 0.335100 0.590900
vn 0.822700 0.464600 -0.327700
vn 0.965400 0.260800 0.000000
vn 0.916100 0.200700 0.347100
vn 0.561900 0.059900 -0.825100
vn 0.070500 0.533900 -0.842600
vn 0.082800 -0.114900 -0.989900
vn -0.014300 -0.184200 -0.982800
vn -0.014500 0.048500 -0.998700
vn 0.182300 0.192800 -0.964100
vn 0.424900 0.890800 0.161000
vn 0.357900 0.932300 0.052500
vn 0.989400 -0.008100 0.145100
vn 0.995400 -0.026400 0.092600
vn 0.921800 -0.378200 0.085800
vn 0.927100 -0.352000 0.129000
vn 0.838300 -0.496600 0.225300
vn 0.778500 -0.524000 0.345400
vn 0.961800 0.098000 0.255500
vn -0.747000 -0.122000 0.653600
vn 0.074900 -0.499700 0.863000
vn 0.410700 0.911700 0.000000
vn 0.806700 0.460400 -0.370500
vn 0.432400 0.901700 0.000000
vn 0.744300 -0.056000 -0.665500
vn 0.970300 0.099700 -0.220600
vn 0.886100 -0.253700 -0.387900
vn 0.718000 -0.269100 -0.642000
vn -0.360500 -0.673800 0.645000
vn -0.449100 -0.785100 0.426500
vn -0.853100 0.521700 -0.000400
vn -0.963800 0.192500 -0.184200
vn -0.158300 0.661700 -0.732900
vn -0.240700 0.752200 -0.613300
vn 0.000000 -0.832600 0.553900
vn 0.002400 -0.833200 0.553000
vn 0.136400 0.679300 -0.721000
vn 0.182500 0.736200 -0.651700
vn 0.933000 -0.335600 0.129800
vn 0.916200 -0.388900 -0.096200
vn 0.861100 -0.335500 0.382100
vn 0.993800 -0.111600 0.000000
vn 0.916700 0.027700 -0.398700
vn 0.993600 -0.113300 0.002100
vn -0.509600 -0.658900 0.553400
vn -0.375000 -0.312400 0.872800
vn -0.969600 -0.244700 0.000000
vn -0.969400 -0.245300 -0.000400
vn -0.197000 -0.028500 -0.980000
vn -0.211100 -0.004200 -0.977500
vn -0.014500 -0.442400 0.896700
vn 0.003900 -0.424800 0.905300
vn 0.267600 -0.124200 -0.955500
vn 0.267000 -0.124700 -0.955600
vn 0.743800 -0.668400 0.000000
vn 0.840000 -0.526700 -0.130200
vn 0.866300 -0.499500 0.000000
vn 0.865900 -0.500200 0.001800
vn -0.509100 0.133200 0.850300
vn -0.675600 0.072300 0.733700
vn -0.984500 0.175200 -0.000000
vn -0.196400 -0.085600 -0.976800
vn -0.162100 -0.083800 -0.983200
vn -0.007100 0.023600 0.999700
vn -0.016200 0.023500 0.999600
vn 0.265700 -0.156800 -0.951200
vn 0.188000 -0.159900 -0.969100
vn 0.985200 -0.171100 0.000000
vn 0.974500 -0.165000 -0.152300
vn 0.164600 0.596800 -0.785300
vn 0.168100 0.581700 -0.795800
vn 0.850800 0.525500 -0.000000
vn -0.832100 0.554700 -0.000000
vn 0.951900 -0.306400 0.000000
vn 0.866000 0.473200 -0.161300
vn 0.000000 0.453400 0.891300
vn -0.666900 0.409800 0.622300
vn -0.066700 0.992400 0.103400
vn -0.708100 0.249200 0.660700
vn -1.000000 0.000000 0.000000
vn 0.000000 0.352900 0.935700
vn -0.153200 0.579200 -0.800700
vn -0.150000 0.595000 -0.789600
vn -0.186500 -0.043000 -0.981500
vn 0.204900 -0.042900 -0.977800
vn 1.000000 -0.000000 0.000000
vn 0.153000 0.433700 -0.888000
vn 0.179900 0.491800 -0.851900
vn 0.945200 -0.326600 0.000000
vn 0.974700 -0.082600 -0.207700
vn 0.977800 -0.103400 -0.182100
vn 0.000000 -0.808400 0.588600
vn -0.256300 -0.839100 0.479800
vn -0.357800 -0.751300 0.554600
vn -0.575800 -0.817600 0.000000
vn -0.175200 0.362800 -0.915300
vn -0.143700 0.312600 -0.938900
vn 0.999800 0.018800 -0.000000
vn 0.189800 0.079100 -0.978600
vn 0.169400 0.067400 -0.983200
vn -0.161200 0.132100 -0.978000
vn -0.149900 0.137700 -0.979100
vn -0.924100 0.382100 0.000000
vn -0.502800 0.205200 0.839700
vn -0.454400 0.264300 0.850700
vn -0.006800 0.257900 0.966100
vn 0.000000 0.256500 0.966500
vn 0.987900 -0.016600 -0.154400
vn 0.977800 -0.021600 -0.208300
usemtl lambert5SG.008
s off
f 1/1/1 2/2/1 3/3/1
f 4/4/2 5/5/2 6/6/2
f 7/7/3 8/8/3 9/9/3
f 9/9/4 10/10/4 11/11/4
f 4/4/5 3/3/5 12/12/5
f 12/12/6 3/3/6 13/13/6
f 14/14/7 12/12/7 15/15/7
f 15/15/8 12/12/8 16/16/8
f 17/17/9 18/18/9 16/16/9
f 16/16/10 18/18/10 15/15/10
f 19/19/11 16/16/11 13/13/11
f 13/13/12 16/16/12 12/12/12
f 20/20/13 17/17/13 19/19/13
f 19/19/14 17/17/14 16/16/14
f 21/21/15 20/20/15 22/22/15
f 22/22/16 20/20/16 19/19/16
f 3/3/17 2/2/17 13/13/17
f 13/13/18 2/2/18 23/23/18
f 13/13/19 23/23/19 19/19/19
f 19/19/20 23/23/20 22/22/20
f 14/14/21 5/5/21 12/12/21
f 5/5/22 4/4/22 12/12/22
f 14/14/23 15/15/23 24/24/23
f 24/24/24 15/15/24 25/25/24
f 24/24/25 26/26/25 14/14/25
f 14/14/26 26/26/26 5/5/26
f 18/18/27 27/27/27 15/15/27
f 15/15/27 27/27/27 25/25/27
f 4/4/28 6/6/28 3/3/28
f 6/6/28 1/1/28 3/3/28
f 26/26/29 28/28/29 5/5/29
f 5/5/30 28/28/30 6/6/30
f 2/2/31 1/1/31 29/29/31
f 29/29/32 1/1/32 30/30/32
f 1/1/32 6/6/32 30/31/32
f 30/31/33 6/6/33 28/28/33
f 2/2/34 29/29/34 23/23/34
f 23/23/35 29/29/35 31/32/35
f 31/32/36 32/33/36 23/23/36
f 23/23/37 32/33/37 22/22/37
f 32/33/38 33/34/38 22/22/38
f 22/22/39 33/34/39 21/21/39
f 30/31/40 28/28/40 34/35/40
f 34/35/41 28/28/41 35/36/41
f 35/36/42 36/37/42 34/35/42
f 34/35/43 36/37/43 37/38/43
f 36/37/44 38/39/44 37/38/44
f 37/38/45 38/39/45 39/40/45
f 25/25/46 27/27/46 36/37/46
f 36/37/47 27/27/47 38/39/47
f 25/25/48 36/37/48 24/24/48
f 35/36/49 24/24/49 36/37/49
f 24/24/50 35/36/50 26/26/50
f 26/26/51 35/36/51 28/28/51
f 31/32/52 29/29/52 34/41/52
f 34/41/53 29/29/53 30/30/53
f 32/33/54 31/32/54 37/42/54
f 37/42/55 31/32/55 34/41/55
f 33/34/56 32/33/56 39/43/56
f 39/43/57 32/33/57 37/42/57
f 40/44/58 41/45/58 17/17/58
f 17/17/59 41/45/59 18/18/59
f 42/46/60 40/44/60 20/20/60
f 20/20/61 40/44/61 17/17/61
f 43/47/62 42/46/62 21/21/62
f 21/21/63 42/46/63 20/20/63
f 18/18/64 41/45/64 27/27/64
f 27/27/65 41/45/65 44/48/65
f 33/34/66 45/49/66 21/21/66
f 21/21/67 45/49/67 43/47/67
f 38/39/68 46/50/68 39/40/68
f 39/40/69 46/50/69 47/51/69
f 27/27/70 44/48/70 38/39/70
f 38/39/71 44/48/71 46/50/71
f 39/43/72 47/52/72 33/34/72
f 33/34/73 47/52/73 45/49/73
f 48/53/74 49/54/74 40/55/74
f 40/55/75 49/54/75 41/56/75
f 50/57/76 48/53/76 42/58/76
f 42/58/77 48/53/77 40/55/77
f 51/59/78 50/57/78 43/60/78
f 43/60/79 50/57/79 42/58/79
f 49/54/80 52/61/80 41/56/80
f 41/56/81 52/61/81 44/62/81
f 45/63/82 53/64/82 43/60/82
f 43/60/83 53/64/83 51/59/83
f 54/65/84 55/66/84 46/67/84
f 46/67/85 55/66/85 47/68/85
f 52/61/84 54/65/84 44/62/84
f 44/62/84 54/65/84 46/67/84
f 55/69/86 53/64/86 47/70/86
f 47/70/87 53/64/87 45/63/87
f 56/71/88 57/72/88 48/53/88
f 48/53/89 57/72/89 49/54/89
f 50/57/90 58/73/90 48/53/90
f 48/53/90 58/73/90 56/71/90
f 51/59/91 59/74/91 50/57/91
f 50/57/92 59/74/92 58/73/92
f 57/72/93 60/75/93 49/54/93
f 49/54/94 60/75/94 52/61/94
f 53/64/95 61/76/95 51/59/95
f 51/59/96 61/76/96 59/74/96
f 62/77/97 63/78/97 54/65/97
f 54/65/97 63/78/97 55/66/97
f 60/75/98 62/77/98 52/61/98
f 52/61/97 62/77/97 54/65/97
f 63/79/97 61/76/97 55/69/97
f 55/69/97 61/76/97 53/64/97
f 64/80/99 65/81/99 66/82/99
f 66/82/100 65/81/100 67/83/100
f 68/84/101 69/85/101 66/82/101
f 66/82/101 69/85/101 64/80/101
f 70/86/102 71/87/102 72/88/102
f 72/88/102 71/87/102 73/89/102
f 74/90/101 69/91/101 75/92/101
f 75/92/101 69/91/101 68/93/101
f 76/94/103 74/90/103 77/95/103
f 77/95/104 74/90/104 75/92/104
f 78/96/105 76/94/105 79/97/105
f 79/97/105 76/94/105 77/95/105
f 71/87/106 78/96/106 73/89/106
f 73/89/107 78/96/107 79/97/107
f 10/10/108 78/98/108 11/11/108
f 11/11/108 78/98/108 71/99/108
f 11/11/109 71/99/109 80/100/109
f 80/100/109 71/99/109 70/101/109
f 81/102/110 76/103/110 10/10/110
f 10/10/110 76/103/110 78/98/110
f 67/83/111 65/81/111 72/88/111
f 72/88/112 65/81/112 70/86/112
f 80/100/113 70/101/113 82/104/113
f 82/104/113 70/101/113 65/105/113
f 83/106/114 82/104/114 64/107/114
f 64/107/114 82/104/114 65/105/114
f 8/8/115 7/7/115 74/108/115
f 74/108/115 7/7/115 69/109/115
f 81/102/115 8/8/115 76/103/115
f 76/103/115 8/8/115 74/108/115
f 7/7/115 83/106/115 69/110/115
f 69/110/115 83/106/115 64/107/115
f 11/11/4 80/100/4 9/9/4
f 9/9/4 80/100/4 82/104/4
f 9/9/3 8/8/3 10/10/3
f 10/10/3 8/8/3 81/102/3
f 83/106/3 7/7/3 82/104/3
f 82/104/3 7/7/3 9/9/3
f 84/111/116 66/82/116 85/112/116
f 85/112/117 66/82/117 67/83/117
f 86/113/118 68/84/118 84/111/118
f 84/111/118 68/84/118 66/82/118
f 87/114/118 75/92/118 86/115/118
f 86/115/118 75/92/118 68/93/118
f 88/116/119 77/95/119 87/114/119
f 87/114/120 77/95/120 75/92/120
f 79/97/121 77/95/121 89/117/121
f 89/117/121 77/95/121 88/116/121
f 90/118/122 73/89/122 89/117/122
f 89/117/123 73/89/123 79/97/123
f 72/88/124 73/89/124 91/119/124
f 91/119/124 73/89/124 90/118/124
f 67/83/125 72/88/125 85/112/125
f 85/112/126 72/88/126 91/119/126
f 87/114/127 86/115/127 62/77/127
f 62/77/127 86/115/127 63/78/127
f 63/79/127 86/113/127 61/76/127
f 61/76/127 86/113/127 84/111/127
f 61/76/128 84/111/128 59/74/128
f 59/74/129 84/111/129 85/112/129
f 59/74/130 85/112/130 58/73/130
f 58/73/131 85/112/131 91/119/131
f 58/73/132 91/119/132 56/71/132
f 56/71/132 91/119/132 90/118/132
f 57/72/133 56/71/133 89/117/133
f 89/117/134 56/71/134 90/118/134
f 57/72/135 89/117/135 60/75/135
f 60/75/136 89/117/136 88/116/136
f 62/77/137 60/75/137 87/114/137
f 87/114/138 60/75/138 88/116/138
