# Blender v2.71 (sub 0) OBJ File: ''
# www.blender.org
mtllib Body.mtl
o Body.003
v 2.414155 16.223461 3.484723
v 1.572773 15.510085 -0.184201
v 0.000000 16.607655 3.381966
v 0.000000 15.864592 -0.184201
v -2.414155 16.223461 3.484723
v -1.572773 15.510085 -0.184201
v 3.115432 13.326835 3.249590
v 2.937705 13.326837 -0.184379
v 2.184657 10.687147 3.248597
v 2.937705 10.687149 -0.184456
v 1.298425 9.127014 -0.184259
v 1.298425 9.120838 3.250583
v -2.937705 13.326837 -0.184379
v -3.014828 13.326835 3.249590
v -2.184657 10.687147 3.248597
v -2.937705 10.687149 -0.184456
v 2.694379 13.326837 -2.257847
v 1.404134 15.342129 -2.257847
v -2.694379 13.326837 -2.257847
v -2.603073 10.687149 -2.257847
v -1.298425 9.127014 -0.184259
v -1.298425 9.805442 -2.075840
v 0.000000 9.127014 -0.184259
v 0.000000 9.805442 -2.075840
v 1.298425 9.805442 -2.075840
v 2.603073 10.687149 -2.257847
v 0.000000 9.120838 3.250583
v 2.635818 13.326835 6.818503
v 2.414155 14.861984 7.052037
v 1.852541 10.687147 6.332184
v 1.298425 9.110885 6.107723
v 0.000000 9.110885 6.107723
v -2.414155 14.861984 7.052037
v -2.714743 13.326835 6.818503
v -1.852541 10.687147 6.332184
v -1.298425 9.120838 3.250583
v -1.298425 9.110885 6.107723
v 0.000000 14.861984 7.220082
v 0.000000 13.326835 7.206506
v 0.000000 10.687147 6.706726
v 0.000000 15.696635 -2.257845
v 0.000000 14.139366 -6.850305
v 1.563772 13.784859 -6.850305
v -1.404134 15.342129 -2.257847
v -1.563772 13.784859 -6.850305
v 1.772557 13.326838 -6.849994
v 1.799228 10.687151 -6.844915
v 0.882011 9.675207 -6.746847
v 0.000000 10.014578 -6.746952
v -1.772557 13.326838 -6.844914
v -1.799228 10.687151 -6.844915
v -0.882011 9.675207 -6.746847
v 0.000000 13.326838 -6.844914
v 0.000000 10.947824 -6.844915
v 1.983419 19.607355 4.643160
v 0.000000 19.637043 4.540403
v -1.983419 19.607355 4.643160
v 1.983419 18.010136 7.986985
v -1.983419 18.010136 7.986985
v 0.000000 18.010136 8.155027
v 1.768386 19.626368 4.726403
v 0.000000 19.654465 4.629153
v -1.768386 19.626368 4.726403
v 1.768386 18.114748 7.886042
v -1.768386 18.114748 7.886042
v 0.000000 18.114748 8.045078
v -0.001879 22.595530 5.734838
v 1.871138 22.567432 5.831979
v -1.756399 22.567432 5.831979
v 1.871138 21.055813 9.080865
v -1.756399 21.055813 9.080865
v 0.000000 21.055813 9.239724
v 1.696115 22.543530 5.918306
v -0.001879 22.570724 5.824294
v -1.699872 22.543530 5.918306
v 1.696115 21.080616 9.062517
v -1.699872 21.080616 9.062517
v -0.001879 21.080616 9.216260
v -0.002038 24.275513 6.341232
v 1.839853 24.248322 6.435244
v -1.843929 24.248322 6.435244
v 1.839853 22.785408 9.579457
v -1.843929 22.785408 9.579457
v -0.002038 22.785408 9.733198
v -0.159543 22.562199 7.354918
v 0.159543 22.562199 7.354918
v -0.159543 25.477722 7.354918
v 0.159543 25.477722 7.354918
v -0.159543 25.477726 4.439392
v 0.159543 25.477726 4.439392
v -0.159543 22.899437 6.134800
v 0.159543 22.899437 6.134800
v -0.159543 19.435041 5.916191
v 0.159543 19.435041 5.916191
v -0.159543 22.350563 5.916193
v 0.159543 22.350563 5.916193
v -0.159543 22.350567 3.000667
v 0.159543 22.350567 3.000667
v -0.159543 19.772282 4.696072
v 0.159543 19.772282 4.696072
v -0.159543 16.680462 4.635439
v 0.159543 16.680462 4.635439
v -0.159543 19.595985 4.635440
v 0.159543 19.595985 4.635440
v -0.159543 19.595985 1.719913
v 0.159543 19.595985 1.719913
v -0.159543 17.017700 3.415321
v 0.159543 17.017700 3.415321
v -0.159543 14.495017 0.816174
v 0.159543 14.495017 0.816174
v -0.159543 16.556602 2.877762
v 0.159543 16.556602 2.877762
v -0.159543 18.618191 0.816174
v 0.159543 18.618191 0.816174
v -0.159543 15.596233 0.191884
v 0.159543 15.596233 0.191884
v -0.159543 13.914839 -3.199852
v 0.159543 13.914839 -3.199852
v -0.159543 15.534615 -0.775683
v 0.159543 15.534615 -0.775683
v -0.159543 17.958786 -2.395461
v 0.159543 17.958786 -2.395461
v -0.159543 15.116690 -3.597311
v 0.159543 15.116690 -3.597311
v -0.159543 12.779107 -6.275789
v 0.159543 12.779107 -6.275789
v -0.159543 14.398884 -3.851621
v 0.159543 14.398884 -3.851621
v -0.159543 16.823051 -5.471398
v 0.159543 16.823051 -5.471398
v -0.159543 13.980957 -6.673249
v 0.159543 13.980957 -6.673249
vt 0.572640 0.021612
vt 0.548106 0.161599
vt 0.477629 0.024470
vt 0.476514 0.161014
vt 0.382678 0.020060
vt 0.404922 0.160429
vt 0.754948 0.114792
vt 0.843136 0.114772
vt 0.774735 0.211855
vt 0.849737 0.203581
vt 0.911801 0.111088
vt 0.916387 0.198797
vt 0.975336 0.198864
vt 0.971393 0.106547
vt 0.635535 0.219745
vt 0.647312 0.307974
vt 0.560394 0.227074
vt 0.561058 0.326155
vt 0.715352 0.297443
vt 0.701677 0.210645
vt 0.852572 0.252594
vt 0.783736 0.267079
vt 0.626699 0.172357
vt 0.697323 0.154891
vt 0.759395 0.198427
vt 0.740525 0.145476
vt 0.057811 0.179292
vt 0.036939 0.179332
vt 0.057763 0.150882
vt 0.036871 0.150932
vt 0.078651 0.150865
vt 0.078682 0.179257
vt 0.923594 0.254288
vt 0.967799 0.254588
vt 0.057906 0.226034
vt 0.078800 0.225993
vt 0.837964 0.008399
vt 0.796599 0.015306
vt 0.908440 0.012162
vt 0.965463 0.024257
vt 0.078944 0.268025
vt 0.058000 0.267992
vt 0.622315 0.414912
vt 0.664235 0.413146
vt 0.732418 0.394925
vt 0.774533 0.289588
vt 0.785718 0.371343
vt 0.037056 0.268122
vt 0.037010 0.226081
vt 0.058202 0.350887
vt 0.024278 0.350553
vt 0.058149 0.329440
vt 0.020638 0.329286
vt 0.058061 0.293516
vt 0.020610 0.293097
vt 0.095510 0.292915
vt 0.095660 0.329102
vt 0.092126 0.350386
vt 0.475860 0.240992
vt 0.539776 0.241514
vt 0.474338 0.427413
vt 0.558601 0.428101
vt 0.411945 0.240470
vt 0.390074 0.426724
vt 0.840135 0.383583
vt 0.862349 0.381309
vt 0.932674 0.376497
vt 0.988075 0.386292
vt 0.071898 0.082702
vt 0.057658 0.082449
vt 0.557827 0.171192
vt 0.588967 0.045542
vt 0.611251 0.043355
vt 0.681023 0.033392
vt 0.733198 0.012407
vt 0.043455 0.082730
vt 0.057635 0.011292
vt 0.087306 0.011235
vt 0.057639 0.022339
vt 0.090678 0.022259
vt 0.057654 0.058214
vt 0.086517 0.058020
vt 0.028789 0.058049
vt 0.024601 0.022281
vt 0.027966 0.011256
vt 0.303907 0.079639
vt 0.346755 0.083066
vt 0.303481 0.136810
vt 0.346946 0.137944
vt 0.386528 0.084214
vt 0.393047 0.136706
vt 0.229881 0.073733
vt 0.236510 0.133683
vt 0.144277 0.087430
vt 0.148878 0.141711
vt 0.081834 0.102905
vt 0.086197 0.155119
vt 0.185368 0.081450
vt 0.191971 0.139833
vt 0.303037 0.140048
vt 0.346941 0.141053
vt 0.391752 0.139744
vt 0.238323 0.137415
vt 0.147781 0.145574
vt 0.088257 0.157778
vt 0.192402 0.144606
vt 0.347676 0.192949
vt 0.304026 0.193498
vt 0.392432 0.190891
vt 0.242642 0.191751
vt 0.152423 0.196288
vt 0.092391 0.205632
vt 0.195891 0.197628
vt 0.305975 0.197936
vt 0.347805 0.196212
vt 0.391453 0.194182
vt 0.239174 0.194405
vt 0.094666 0.208186
vt 0.153512 0.198605
vt 0.195881 0.198980
vt 0.349815 0.229740
vt 0.309872 0.233222
vt 0.389281 0.229023
vt 0.242153 0.231286
vt 0.153184 0.231366
vt 0.095361 0.240654
vt 0.196107 0.236281
vt 0.347421 0.244153
vt 0.348608 0.271060
vt 0.304638 0.244142
vt 0.302902 0.271060
vt 0.304638 0.297977
vt 0.347421 0.297967
vt 0.936583 0.471632
vt 0.936971 0.483119
vt 0.873671 0.472682
vt 0.873717 0.479434
vt 0.818089 0.477657
vt 0.823839 0.478454
vt 0.900668 0.531953
vt 0.906168 0.521891
vt 0.982801 0.464795
vt 0.982952 0.474892
vt 0.906190 0.434872
vn 0.162500 0.960900 -0.224100
vn 0.215500 0.956000 -0.199200
vn -0.162500 0.960900 -0.224100
vn -0.215500 0.956000 -0.199200
vn 0.932900 0.247100 -0.262000
vn 0.847100 0.529600 -0.043800
vn 0.923500 -0.325700 0.202600
vn 0.998700 0.000000 -0.051700
vn 0.681700 -0.716200 0.149500
vn 0.870300 -0.492400 -0.000900
vn -0.847800 0.530000 -0.019000
vn -0.941600 0.216200 -0.258000
vn -0.933700 -0.293700 0.204800
vn -0.999700 0.000000 -0.022500
vn 0.843800 0.527500 -0.099000
vn 0.836900 0.535800 -0.111500
vn -0.993200 0.000000 -0.116600
vn -0.986600 -0.034100 -0.159200
vn -0.667200 -0.701100 -0.251500
vn -0.549200 -0.831000 -0.088600
vn 0.000000 -0.941300 -0.337600
vn 0.549200 -0.831000 -0.088600
vn 0.667200 -0.701100 -0.251500
vn 0.993200 0.000000 -0.116600
vn 0.986600 -0.034100 -0.159200
vn 0.000000 -1.000000 -0.001800
vn 0.983700 0.121900 0.132200
vn 0.969800 0.227700 0.086900
vn 0.944300 -0.303600 0.126900
vn 0.938200 -0.330900 0.101100
vn 0.870300 -0.492400 -0.001700
vn 0.934100 -0.342700 0.100600
vn 0.000000 -1.000000 -0.003500
vn -0.977600 0.196600 0.075000
vn -0.980300 0.179400 0.082400
vn -0.943200 -0.322700 0.079300
vn -0.948900 -0.298500 0.102200
vn -0.870300 -0.492400 -0.001700
vn -0.934100 -0.342700 0.100600
vn -0.069400 -0.008800 0.997500
vn -0.140400 -0.122000 0.982500
vn -0.194800 -0.182500 0.963700
vn -0.137900 -0.222800 0.965000
vn 0.000000 -0.355200 0.934800
vn -0.194000 -0.204800 0.959400
vn -0.681700 -0.716200 0.149500
vn -0.870300 -0.492400 -0.000900
vn 0.194000 -0.204800 0.959400
vn 0.194800 -0.182500 0.963700
vn 0.142100 -0.220000 0.965100
vn 0.069400 -0.008800 0.997500
vn 0.144400 -0.128400 0.981100
vn 0.232500 0.921100 -0.312300
vn 0.210400 0.928000 -0.307400
vn -0.232500 0.921100 -0.312300
vn -0.210400 0.928000 -0.307400
vn 0.832400 0.532900 -0.151800
vn 0.895200 0.407900 -0.179700
vn 0.984900 0.009600 -0.172600
vn 0.979900 -0.033900 -0.196700
vn 0.548100 -0.830900 -0.096100
vn 0.737800 -0.673300 -0.047000
vn 0.000000 -0.999600 0.027900
vn -0.358800 -0.932500 -0.041700
vn -0.832400 0.532900 -0.151800
vn -0.895900 0.406200 -0.180000
vn -0.984900 0.010000 -0.172600
vn -0.979800 -0.033900 -0.196900
vn -0.548100 -0.830900 -0.096100
vn -0.737800 -0.673300 -0.047000
vn 0.358800 -0.932500 -0.041700
vn -0.001500 -0.006600 -1.000000
vn -0.002900 -0.002000 -1.000000
vn -0.002900 0.000000 -1.000000
vn -0.000300 -0.001900 -1.000000
vn -0.040000 -0.104300 -0.993700
vn -0.012400 -0.085300 -0.996300
vn 0.244000 0.966600 -0.078300
vn 0.218900 0.971000 -0.096400
vn -0.218900 0.971000 -0.096400
vn -0.244000 0.966600 -0.078300
vn -0.843800 0.527500 -0.099000
vn -0.836900 0.535800 -0.111500
vn 0.040000 -0.104300 -0.993700
vn 0.012400 -0.085300 -0.996300
vn 0.000000 0.000000 -1.000000
vn 0.001500 -0.006600 -1.000000
vn 0.000000 -0.011800 -0.999900
vn 0.092900 0.333100 -0.938300
vn 0.053700 0.356700 -0.932700
vn -0.092900 0.333100 -0.938300
vn -0.053700 0.356700 -0.932700
vn 0.991500 0.121800 0.046500
vn 0.992700 0.108600 0.051900
vn -0.991500 0.121800 0.046500
vn -0.992700 0.108600 0.051900
vn -0.066700 -0.275700 0.958900
vn -0.081000 -0.283800 0.955500
vn 0.066700 -0.275700 0.958900
vn 0.081000 -0.283800 0.955500
vn 0.023300 0.986000 -0.165000
vn 0.026200 0.980900 -0.192500
vn -0.023300 0.986000 -0.165000
vn -0.026200 0.980900 -0.192500
vn 0.230300 0.878100 0.419400
vn 0.239600 0.875800 0.419000
vn -0.230300 0.878100 0.419400
vn -0.239600 0.875800 0.419000
vn -0.055800 0.750300 0.658700
vn -0.061900 0.723100 0.688000
vn 0.055800 0.750300 0.658700
vn 0.061900 0.723100 0.688000
vn 0.057000 0.351400 -0.934500
vn 0.053800 0.349700 -0.935300
vn -0.057000 0.351300 -0.934500
vn -0.057400 0.351500 -0.934400
vn 0.999500 -0.029200 -0.014000
vn 0.999500 -0.029700 -0.013800
vn -1.000000 0.003400 0.001600
vn -1.000000 0.003500 0.001600
vn -0.083000 -0.374800 0.923400
vn -0.083500 -0.375000 0.923200
vn 0.082900 -0.377600 0.922300
vn 0.078400 -0.375200 0.923600
vn 0.000600 0.963400 0.267900
vn 0.000600 0.963600 0.267200
vn -0.000600 0.963600 0.267200
vn 0.083900 0.903500 0.420400
vn 0.084000 0.903500 0.420400
vn -0.252400 0.877300 0.408200
vn -0.252500 0.877300 0.408200
vn -0.065600 0.685800 0.724900
vn -0.065900 0.683100 0.727400
vn 0.050700 0.800200 0.597600
vn 0.065400 0.688400 0.722300
vn 0.057500 0.289700 -0.955400
vn 0.053100 0.285700 -0.956900
vn -0.057500 0.289700 -0.955400
vn -0.053100 0.285700 -0.956900
vn 0.996700 -0.073600 -0.034300
vn -0.996700 -0.073800 -0.034300
vn -0.079500 -0.295400 0.952100
vn -0.086300 -0.289100 0.953400
vn 0.086300 -0.289100 0.953400
vn 0.079500 -0.295400 0.952100
vn -0.008100 0.906600 0.421800
vn 0.033600 0.915000 0.402000
vn -0.033600 0.915000 0.402000
vn 0.008100 0.906600 0.421800
vn 0.000000 -0.000000 1.000000
vn 0.000000 1.000000 0.000000
vn 0.000000 -0.549400 -0.835500
vn 0.000000 -0.963900 -0.266400
vn 1.000000 0.000000 0.000000
vn -1.000000 0.000000 0.000000
vn 0.000000 -0.707100 0.707100
vn 0.000000 0.707100 0.707100
vn 0.000000 0.202300 -0.979300
vn 0.000000 -0.493200 -0.869900
vn 0.000000 -0.831500 0.555600
vn 0.000000 0.555600 0.831500
vn 0.000000 0.389500 -0.921000
vn 0.000000 -0.314000 -0.949400
usemtl lambert5SG
s off
f 1/1/1 2/2/1 3/3/1
f 3/3/2 2/2/2 4/4/2
f 5/5/3 3/3/3 6/6/3
f 6/6/4 3/3/4 4/4/4
f 1/7/5 7/8/5 2/9/5
f 2/9/6 7/8/6 8/10/6
f 9/11/7 10/12/7 7/8/7
f 7/8/8 10/12/8 8/10/8
f 10/12/9 9/11/9 11/13/9
f 11/13/10 9/11/10 12/14/10
f 13/15/11 14/16/11 6/17/11
f 6/17/12 14/16/12 5/18/12
f 15/19/13 14/16/13 16/20/13
f 16/20/14 14/16/14 13/15/14
f 8/10/15 17/21/15 2/9/15
f 2/9/16 17/21/16 18/22/16
f 13/15/17 19/23/17 16/20/17
f 16/20/18 19/23/18 20/24/18
f 21/25/19 16/20/19 22/26/19
f 22/26/20 16/20/20 20/24/20
f 23/27/21 21/28/21 24/29/21
f 24/29/21 21/28/21 22/30/21
f 24/29/21 25/31/21 23/27/21
f 23/27/21 25/31/21 11/32/21
f 26/33/22 10/12/22 25/34/22
f 25/34/23 10/12/23 11/13/23
f 8/10/24 10/12/24 17/21/24
f 17/21/25 10/12/25 26/33/25
f 27/35/26 23/27/26 12/36/26
f 12/36/26 23/27/26 11/32/26
f 28/37/27 7/8/27 29/38/27
f 7/8/28 1/7/28 29/38/28
f 28/37/29 30/39/29 7/8/29
f 7/8/30 30/39/30 9/11/30
f 12/14/31 9/11/31 31/40/31
f 31/40/32 9/11/32 30/39/32
f 12/36/33 31/41/33 27/35/33
f 27/35/33 31/41/33 32/42/33
f 5/18/34 14/16/34 33/43/34
f 33/43/35 14/16/35 34/44/35
f 34/44/36 14/16/36 35/45/36
f 35/45/37 14/16/37 15/19/37
f 36/46/38 37/47/38 15/19/38
f 15/19/39 37/47/39 35/45/39
f 32/42/33 37/48/33 27/35/33
f 27/35/33 37/48/33 36/49/33
f 38/50/40 33/51/40 39/52/40
f 39/52/41 33/51/41 34/53/41
f 40/54/42 39/52/42 35/55/42
f 35/55/43 39/52/43 34/53/43
f 32/42/44 40/54/44 37/48/44
f 37/48/45 40/54/45 35/55/45
f 27/35/26 36/49/26 23/27/26
f 23/27/26 36/49/26 21/28/26
f 16/20/46 21/25/46 15/19/46
f 15/19/47 21/25/47 36/46/47
f 32/42/44 31/41/44 40/54/44
f 40/54/48 31/41/48 30/56/48
f 40/54/49 30/56/49 39/52/49
f 39/52/50 30/56/50 28/57/50
f 38/50/51 39/52/51 29/58/51
f 29/58/52 39/52/52 28/57/52
f 41/59/53 18/60/53 42/61/53
f 42/61/54 18/60/54 43/62/54
f 41/59/55 42/61/55 44/63/55
f 44/63/56 42/61/56 45/64/56
f 18/22/57 17/21/57 43/65/57
f 43/65/58 17/21/58 46/66/58
f 47/67/59 46/66/59 26/33/59
f 26/33/60 46/66/60 17/21/60
f 26/33/61 25/34/61 47/67/61
f 47/67/62 25/34/62 48/68/62
f 25/31/63 24/29/63 48/69/63
f 48/69/64 24/29/64 49/70/64
f 44/71/65 45/72/65 19/23/65
f 19/23/66 45/72/66 50/73/66
f 51/74/67 20/24/67 50/73/67
f 50/73/68 20/24/68 19/23/68
f 20/24/69 51/74/69 22/26/69
f 22/26/70 51/74/70 52/75/70
f 22/30/63 52/76/63 24/29/63
f 24/29/71 52/76/71 49/70/71
f 42/77/72 43/78/72 53/79/72
f 53/79/73 43/78/73 46/80/73
f 53/79/74 46/80/74 54/81/74
f 54/81/75 46/80/75 47/82/75
f 49/70/76 54/81/76 48/69/76
f 48/69/77 54/81/77 47/82/77
f 41/59/78 4/4/78 18/60/78
f 18/60/79 4/4/79 2/2/79
f 6/6/80 4/4/80 44/63/80
f 44/63/81 4/4/81 41/59/81
f 13/15/82 6/17/82 19/23/82
f 19/23/83 6/17/83 44/71/83
f 49/70/84 52/76/84 54/81/84
f 54/81/85 52/76/85 51/83/85
f 53/79/86 54/81/86 50/84/86
f 50/84/86 54/81/86 51/83/86
f 42/77/87 53/79/87 45/85/87
f 45/85/88 53/79/88 50/84/88
f 1/86/89 3/87/89 55/88/89
f 55/88/90 3/87/90 56/89/90
f 5/90/91 57/91/91 3/87/91
f 3/87/92 57/91/92 56/89/92
f 29/92/93 1/86/93 58/93/93
f 58/93/94 1/86/94 55/88/94
f 33/94/95 59/95/95 5/96/95
f 5/96/96 59/95/96 57/97/96
f 33/94/97 38/98/97 59/95/97
f 59/95/98 38/98/98 60/99/98
f 29/92/99 58/93/99 38/98/99
f 38/98/100 58/93/100 60/99/100
f 55/88/101 56/89/101 61/100/101
f 61/100/102 56/89/102 62/101/102
f 57/91/103 63/102/103 56/89/103
f 56/89/104 63/102/104 62/101/104
f 58/93/105 55/88/105 64/103/105
f 64/103/106 55/88/106 61/100/106
f 59/95/107 65/104/107 57/97/107
f 57/97/108 65/104/108 63/105/108
f 59/95/109 60/99/109 65/104/109
f 65/104/110 60/99/110 66/106/110
f 58/93/111 64/103/111 60/99/111
f 60/99/112 64/103/112 66/106/112
f 62/101/113 67/107/113 61/100/113
f 61/100/114 67/107/114 68/108/114
f 62/101/115 63/102/115 67/107/115
f 67/107/116 63/102/116 69/109/116
f 64/103/117 61/100/117 70/110/117
f 70/110/118 61/100/118 68/108/118
f 65/104/119 71/111/119 63/105/119
f 63/105/120 71/111/120 69/112/120
f 65/104/121 66/106/121 71/111/121
f 71/111/122 66/106/122 72/113/122
f 64/103/123 70/110/123 66/106/123
f 66/106/124 70/110/124 72/113/124
f 68/108/125 67/107/125 73/114/125
f 73/114/126 67/107/126 74/115/126
f 69/109/127 75/116/127 67/107/127
f 67/107/127 75/116/127 74/115/127
f 68/108/128 73/114/128 70/110/128
f 70/110/129 73/114/129 76/117/129
f 69/112/130 71/111/130 75/118/130
f 75/118/131 71/111/131 77/119/131
f 71/111/132 72/113/132 77/119/132
f 77/119/133 72/113/133 78/120/133
f 70/110/134 76/117/134 72/113/134
f 72/113/135 76/117/135 78/120/135
f 74/115/136 79/121/136 73/114/136
f 73/114/137 79/121/137 80/122/137
f 74/115/138 75/116/138 79/121/138
f 79/121/139 75/116/139 81/123/139
f 76/117/140 73/114/140 82/124/140
f 82/124/140 73/114/140 80/122/140
f 77/119/141 83/125/141 75/118/141
f 75/118/141 83/125/141 81/126/141
f 83/125/142 77/119/142 84/127/142
f 84/127/143 77/119/143 78/120/143
f 78/120/144 76/117/144 84/127/144
f 84/127/145 76/117/145 82/124/145
f 80/128/146 79/129/146 82/130/146
f 82/130/147 79/129/147 84/131/147
f 84/131/148 79/129/148 83/132/148
f 83/132/149 79/129/149 81/133/149
f 85/134/150 86/135/150 87/136/150
f 87/136/150 86/135/150 88/137/150
f 87/136/151 88/137/151 89/138/151
f 89/138/151 88/137/151 90/139/151
f 89/138/152 90/139/152 91/140/152
f 91/140/152 90/139/152 92/141/152
f 91/142/153 92/143/153 85/134/153
f 85/134/153 92/143/153 86/135/153
f 86/135/154 92/141/154 88/137/154
f 88/137/154 92/141/154 90/139/154
f 85/134/155 87/136/155 91/144/155
f 91/144/155 87/136/155 89/138/155
f 93/134/150 94/135/150 95/136/150
f 95/136/150 94/135/150 96/137/150
f 95/136/151 96/137/151 97/138/151
f 97/138/151 96/137/151 98/139/151
f 97/138/152 98/139/152 99/140/152
f 99/140/152 98/139/152 100/141/152
f 99/142/153 100/143/153 93/134/153
f 93/134/153 100/143/153 94/135/153
f 94/135/154 100/141/154 96/137/154
f 96/137/154 100/141/154 98/139/154
f 93/134/155 95/136/155 99/144/155
f 99/144/155 95/136/155 97/138/155
f 101/134/150 102/135/150 103/136/150
f 103/136/150 102/135/150 104/137/150
f 103/136/151 104/137/151 105/138/151
f 105/138/151 104/137/151 106/139/151
f 105/138/152 106/139/152 107/140/152
f 107/140/152 106/139/152 108/141/152
f 107/142/153 108/143/153 101/134/153
f 101/134/153 108/143/153 102/135/153
f 102/135/154 108/141/154 104/137/154
f 104/137/154 108/141/154 106/139/154
f 101/134/155 103/136/155 107/144/155
f 107/144/155 103/136/155 105/138/155
f 109/134/156 110/135/156 111/136/156
f 111/136/156 110/135/156 112/137/156
f 111/136/157 112/137/157 113/138/157
f 113/138/157 112/137/157 114/139/157
f 113/138/158 114/139/158 115/140/158
f 115/140/158 114/139/158 116/141/158
f 115/142/159 116/143/159 109/134/159
f 109/134/159 116/143/159 110/135/159
f 110/135/154 116/141/154 112/137/154
f 112/137/154 116/141/154 114/139/154
f 109/134/155 111/136/155 115/144/155
f 115/144/155 111/136/155 113/138/155
f 117/134/160 118/135/160 119/136/160
f 119/136/160 118/135/160 120/137/160
f 119/136/161 120/137/161 121/138/161
f 121/138/161 120/137/161 122/139/161
f 121/138/162 122/139/162 123/140/162
f 123/140/162 122/139/162 124/141/162
f 123/142/163 124/143/163 117/134/163
f 117/134/163 124/143/163 118/135/163
f 118/135/154 124/141/154 120/137/154
f 120/137/154 124/141/154 122/139/154
f 117/134/155 119/136/155 123/144/155
f 123/144/155 119/136/155 121/138/155
f 125/134/160 126/135/160 127/136/160
f 127/136/160 126/135/160 128/137/160
f 127/136/161 128/137/161 129/138/161
f 129/138/161 128/137/161 130/139/161
f 129/138/162 130/139/162 131/140/162
f 131/140/162 130/139/162 132/141/162
f 131/142/163 132/143/163 125/134/163
f 125/134/163 132/143/163 126/135/163
f 126/135/154 132/141/154 128/137/154
f 128/137/154 132/141/154 130/139/154
f 125/134/155 127/136/155 131/144/155
f 131/144/155 127/136/155 129/138/155
