# Blender v2.71 (sub 0) OBJ File: ''
# www.blender.org
mtllib FrontRightLeg.mtl
o FrontRightLeg
v 1.380476 -1.672700 1.420366
v -1.473860 -1.951779 1.041044
v 1.292513 -3.831375 0.767380
v -1.090637 -4.947104 0.968383
v 1.232231 -0.196291 1.559843
v 1.387555 0.604324 -2.270026
v -0.179664 0.362401 1.559843
v -1.114586 0.003958 -2.270026
v 1.680997 -1.672700 -2.409506
v 1.593326 -3.831375 -1.925265
v -1.473860 -1.951779 -2.409506
v -1.090637 -4.947103 -1.948877
v 1.285956 -6.283711 -1.240603
v -0.673263 -6.273878 -1.240603
v -0.673263 -6.273878 1.004905
v 1.285956 -6.283711 1.004905
v -1.325535 -0.774390 1.420366
v 1.314631 -0.962159 1.420366
v -1.311699 -1.436329 -2.409506
v 1.415636 0.191049 -2.409506
v 1.595363 -7.115057 -1.561401
v -0.324989 -7.104946 -1.561401
v -1.009611 -7.104947 1.044926
v 1.514583 -7.115058 1.044926
v 1.317303 -8.311764 -0.984325
v -0.500463 -8.301933 -0.984325
v -0.500463 -8.301933 0.890819
v 1.317303 -8.311764 0.890819
v 0.893712 -8.840757 -0.654061
v -0.385614 -8.831436 -0.654061
v -0.385614 -8.831436 0.843754
v 0.893712 -8.840757 0.843754
v 0.915106 -11.773063 -0.949467
v 0.725961 -11.809131 -0.743747
v -0.960872 -11.764301 -0.949467
v -0.771726 -11.802135 -1.029021
v -0.771726 -11.802135 1.129565
v -0.960872 -11.764301 1.406027
v 0.915106 -11.773063 1.406027
v 0.725961 -11.809131 1.129565
v 0.725961 -12.336721 -1.029022
v -0.771726 -12.329727 -1.029022
v -0.771726 -12.329727 1.129564
v 0.725961 -12.336721 1.129564
v 1.000953 -13.694202 -0.544959
v -1.046718 -13.687208 -0.544959
v -1.046718 -13.687208 1.803045
v 1.000953 -13.694202 1.803045
v -0.342624 -10.552853 -0.821349
v -0.342624 -10.552853 1.162164
v 1.049838 -10.553432 -0.821349
v 1.049838 -10.553432 1.162164
vt 0.418624 0.629561
vt 0.468267 0.630009
vt 0.406081 0.596693
vt 0.484668 0.584549
vt 0.427990 0.651401
vt 0.430991 0.718785
vt 0.445017 0.657007
vt 0.454028 0.695031
vt 0.516410 0.745769
vt 0.571248 0.717329
vt 0.503487 0.668506
vt 0.547061 0.638063
vt 0.326638 0.634402
vt 0.360338 0.684494
vt 0.614716 0.677959
vt 0.555152 0.619632
vt 0.488214 0.580022
vt 0.407733 0.553500
vt 0.331147 0.577495
vt 0.453838 0.651422
vt 0.423289 0.646114
vt 0.476255 0.684846
vt 0.437464 0.725773
vt 0.422615 0.720270
vt 0.568110 0.508574
vt 0.524383 0.522171
vt 0.575824 0.533430
vt 0.527607 0.546412
vt 0.479110 0.525541
vt 0.478508 0.549853
vt 0.433346 0.519193
vt 0.427843 0.543193
vt 0.382335 0.528260
vt 0.389743 0.503433
vt 0.553676 0.481833
vt 0.518012 0.494353
vt 0.479275 0.496825
vt 0.441380 0.491819
vt 0.406220 0.478155
vt 0.553313 0.481128
vt 0.517801 0.493664
vt 0.479255 0.496106
vt 0.441692 0.491160
vt 0.406542 0.477437
vt 0.537393 0.450171
vt 0.529078 0.445320
vt 0.508531 0.463432
vt 0.506020 0.456484
vt 0.479848 0.457360
vt 0.478387 0.464538
vt 0.455379 0.462230
vt 0.455802 0.455067
vt 0.420686 0.445913
vt 0.429103 0.442652
vt 0.283130 0.395272
vt 0.295619 0.395835
vt 0.285487 0.350300
vt 0.294650 0.356548
vt 0.335880 0.323183
vt 0.329343 0.334686
vt 0.374454 0.351895
vt 0.364509 0.358264
vt 0.383533 0.404953
vt 0.371282 0.406332
vt 0.334697 0.394813
vt 0.316579 0.361096
vt 0.320131 0.348997
vt 0.363878 0.369582
vt 0.512551 0.476544
vt 0.478763 0.478229
vt 0.544297 0.463597
vt 0.449443 0.474777
vt 0.414552 0.459585
vn -0.098900 -0.284400 0.953600
vn 0.089900 -0.012700 0.995900
vn 0.360100 0.910100 0.204900
vn -0.233200 0.971800 -0.034000
vn 0.019400 -0.219600 -0.975400
vn 0.068200 -0.143100 -0.987400
vn -0.991900 -0.126900 -0.000000
vn 0.993700 -0.015500 0.111000
vn 0.994900 -0.064200 0.078100
vn 0.125300 -0.281300 -0.951400
vn -0.002400 -0.471500 -0.881900
vn -0.953900 -0.300100 -0.000000
vn 0.000100 0.027600 0.999600
vn 0.038800 0.096200 0.994600
vn 1.000000 -0.002700 0.000000
vn 0.989500 -0.093200 0.110500
vn 0.000000 -0.000000 1.000000
vn -0.097600 -0.294000 0.950800
vn -0.990700 0.133400 -0.026600
vn -0.953900 0.300100 0.000000
vn 0.000000 0.000000 -1.000000
vn 0.987700 0.140600 0.068400
vn 0.992700 0.092000 0.077900
vn -0.073700 -0.186400 0.979700
vn -0.008100 -0.113700 0.993500
vn -0.706800 0.699300 0.107100
vn -0.990000 0.138200 -0.027500
vn -0.062500 0.104700 -0.992500
vn -0.075400 0.314300 -0.946300
vn 0.997400 0.050600 0.051000
vn 0.993800 0.096800 0.055400
vn 0.001900 0.360600 -0.932700
vn 0.001800 0.360800 -0.932700
vn -0.924500 -0.293700 -0.242900
vn -0.927000 0.375200 0.000000
vn 0.000200 0.048000 0.998800
vn 0.000200 0.048200 0.998800
vn 0.964200 0.265200 0.000000
vn 0.940400 0.338800 0.029100
vn -0.002300 -0.433900 -0.900900
vn -0.002300 -0.434000 -0.900900
vn -0.967000 0.019300 -0.254000
vn -0.920200 -0.391400 0.000000
vn -0.000500 -0.127900 0.991800
vn -0.000700 -0.127600 0.991800
vn 0.986700 -0.162700 0.000000
vn 0.976700 -0.212300 0.030300
vn -0.002900 -0.527900 -0.849300
vn -0.003900 -0.529800 -0.848100
vn -0.977300 -0.212000 0.000000
vn -0.000600 -0.088700 0.996100
vn -0.000500 -0.088200 0.996100
vn 0.780600 -0.625100 0.000000
vn -0.004600 -0.984200 -0.176800
vn 0.062300 0.950700 -0.303900
vn -0.196100 -0.980600 0.000000
vn -0.004600 -0.991200 0.132500
vn 0.187300 -0.982300 0.000000
vn 0.167400 0.468900 -0.867200
vn -1.000000 0.000000 0.000000
vn 1.000000 0.000000 0.000000
vn -0.001100 -0.336100 -0.941800
vn -0.001600 -0.335600 -0.942000
vn -0.980100 0.198500 0.000000
vn 0.002100 0.444100 0.896000
vn 0.001500 0.444700 0.895700
vn 0.980100 0.198500 0.000000
vn -0.003400 -1.000000 0.000000
vn -0.999700 -0.025000 0.000000
vn 0.000000 0.097200 -0.995300
vn 0.000700 0.096700 -0.995300
vn 0.995900 0.090800 0.000000
vn 0.001300 0.181900 0.983300
vn 0.000100 0.182800 0.983200
vn 0.994000 -0.109800 0.000000
vn 0.000000 0.104500 -0.994500
vn 0.000500 0.104900 -0.994500
vn -0.890700 0.454600 0.000000
vn 0.000100 0.196100 0.980600
vn 0.000900 0.196900 0.980400
usemtl lambert5SG.010
s off
f 1/1/1 2/2/1 3/3/1
f 3/3/2 2/2/2 4/4/2
f 5/5/3 6/6/3 7/7/3
f 7/7/4 6/6/4 8/8/4
f 9/9/5 10/10/5 11/11/5
f 11/11/6 10/10/6 12/12/6
f 4/4/7 2/2/7 12/12/7
f 12/12/7 2/2/7 11/11/7
f 10/13/8 9/14/8 3/3/8
f 9/14/9 1/1/9 3/3/9
f 10/10/10 13/15/10 12/12/10
f 12/12/11 13/15/11 14/16/11
f 12/12/12 14/16/12 4/4/12
f 4/4/12 14/16/12 15/17/12
f 15/17/13 16/18/13 4/4/13
f 4/4/14 16/18/14 3/3/14
f 16/18/15 13/19/15 3/3/15
f 3/3/16 13/19/16 10/13/16
f 17/20/17 1/1/17 18/21/17
f 1/1/18 17/20/18 2/2/18
f 17/20/19 19/22/19 2/2/19
f 2/2/20 19/22/20 11/11/20
f 11/11/21 19/22/21 9/9/21
f 9/9/21 19/22/21 20/23/21
f 20/24/22 18/21/22 9/14/22
f 18/21/23 1/1/23 9/14/23
f 5/5/24 7/7/24 18/21/24
f 18/21/25 7/7/25 17/20/25
f 7/7/26 8/8/26 17/20/26
f 17/20/27 8/8/27 19/22/27
f 19/22/28 8/8/28 20/23/28
f 20/23/29 8/8/29 6/6/29
f 6/6/30 5/5/30 20/24/30
f 20/24/31 5/5/31 18/21/31
f 21/25/32 22/26/32 13/27/32
f 13/27/33 22/26/33 14/28/33
f 22/26/34 23/29/34 14/28/34
f 14/28/35 23/29/35 15/30/35
f 23/29/36 24/31/36 15/30/36
f 15/30/37 24/31/37 16/32/37
f 16/32/38 24/31/38 13/33/38
f 13/33/39 24/31/39 21/34/39
f 21/25/40 25/35/40 22/26/40
f 22/26/41 25/35/41 26/36/41
f 22/26/42 26/36/42 23/29/42
f 23/29/43 26/36/43 27/37/43
f 23/29/44 27/37/44 24/31/44
f 24/31/45 27/37/45 28/38/45
f 28/38/46 25/39/46 24/31/46
f 24/31/47 25/39/47 21/34/47
f 25/35/48 29/40/48 26/36/48
f 26/36/49 29/40/49 30/41/49
f 26/36/50 30/41/50 27/37/50
f 27/37/50 30/41/50 31/42/50
f 31/42/51 32/43/51 27/37/51
f 27/37/52 32/43/52 28/38/52
f 32/43/53 29/44/53 28/38/53
f 28/38/53 29/44/53 25/39/53
f 33/45/54 34/46/54 35/47/54
f 34/46/55 36/48/55 35/47/55
f 36/48/56 37/49/56 35/47/56
f 35/47/56 37/49/56 38/50/56
f 38/50/57 37/49/57 39/51/57
f 39/51/57 37/49/57 40/52/57
f 39/51/58 40/52/58 33/53/58
f 33/53/58 40/52/58 34/54/58
f 34/55/59 41/56/59 36/57/59
f 36/57/21 41/56/21 42/58/21
f 36/57/60 42/58/60 37/59/60
f 37/59/60 42/58/60 43/60/60
f 37/59/17 43/60/17 40/61/17
f 40/61/17 43/60/17 44/62/17
f 40/61/61 44/62/61 34/63/61
f 34/63/61 44/62/61 41/64/61
f 45/65/62 46/66/62 41/56/62
f 41/56/63 46/66/63 42/58/63
f 42/58/64 46/66/64 43/60/64
f 43/60/64 46/66/64 47/67/64
f 43/60/65 47/67/65 44/62/65
f 44/62/66 47/67/66 48/68/66
f 48/68/67 45/65/67 44/62/67
f 44/62/67 45/65/67 41/64/67
f 45/65/68 48/68/68 46/66/68
f 46/66/68 48/68/68 47/67/68
f 30/41/69 49/69/69 31/42/69
f 31/42/69 49/69/69 50/70/69
f 51/71/70 49/69/70 29/40/70
f 29/40/71 49/69/71 30/41/71
f 52/72/72 51/73/72 32/43/72
f 32/43/72 51/73/72 29/44/72
f 31/42/73 50/70/73 32/43/73
f 32/43/74 50/70/74 52/72/74
f 39/51/75 33/53/75 52/72/75
f 52/72/75 33/53/75 51/73/75
f 51/71/76 33/45/76 49/69/76
f 49/69/77 33/45/77 35/47/77
f 49/69/78 35/47/78 50/70/78
f 50/70/78 35/47/78 38/50/78
f 52/72/79 50/70/79 39/51/79
f 39/51/80 50/70/80 38/50/80
