# This file uses centimeters as units for non-parametric coordinates.

mtllib WalreinBRLeg.mtl
g default
v 0.216163 -2.040489 1.467380
v 1.191058 -2.040489 -0.925173
v -0.454612 -2.040489 1.911744
v 1.314666 -2.040489 -2.106602
v -0.096261 -3.194007 1.091710
v 0.737972 -3.171925 -1.578485
v -0.946327 -2.040489 1.763237
v 0.533377 -2.040489 -1.907644
v -0.767268 -3.194007 0.943203
v 0.066965 -3.171925 -1.726992
v -1.750701 -2.040489 0.873350
v -0.916467 -2.040489 -0.930352
v -1.438041 -2.040489 1.614731
v 0.041663 -2.040489 -2.056151
v -1.258983 -3.194007 0.794696
v -0.424749 -3.171925 -1.875499
v 0.216163 -0.672197 0.998737
v -0.275554 0.488923 0.311703
v 0.558680 0.488923 -0.912998
v 1.050397 -0.672197 -1.111415
v 1.174006 -0.679144 -2.538023
v 0.066965 0.747144 -0.989015
v 0.533377 -0.679144 -2.321536
v -0.472549 0.747144 0.235686
v -0.499833 0.747144 0.159667
v 0.039682 0.747144 -1.065034
v -1.438041 -0.672197 1.323190
v -1.750701 -0.437103 0.474821
v -0.454612 -0.672197 1.585146
v -0.789428 -0.672197 1.454168
v 0.216447 -0.679144 -2.079097
v -0.916467 -0.444051 -1.359118
v -0.423886 -3.750270 0.966913
v -0.915601 -3.750270 0.818406
v 0.410348 -3.749730 -1.744446
v -0.081367 -3.749730 -1.892953
v -0.573081 -3.749730 -2.041460
v -1.407315 -3.750270 0.669899
v -0.762015 -3.287058 2.139458
v -1.233845 -3.287058 2.000462
v -0.902588 -3.750270 2.919731
v -1.374417 -3.750270 2.780733
v -1.705675 -3.287058 1.861464
v -1.846248 -3.750270 2.641737
vt 0.422870 0.481997
vt 0.447713 0.491434
vt 0.450533 0.444528
vt 0.468378 0.467952
vt 0.405784 0.506177
vt 0.967821 0.665576
vt 0.940634 0.655917
vt 0.886826 0.722475
vt 0.872520 0.704696
vt 0.819486 0.703598
vt 0.811068 0.713637
vt 0.872488 0.701588
vt 0.821859 0.701127
vt 0.804089 0.643364
vt 0.771653 0.645245
vt 0.463246 0.430897
vt 0.433272 0.421027
vt 0.443173 0.407907
vt 0.752612 0.662367
vt 0.739757 0.670400
vt 0.924943 0.649773
vt 0.873028 0.644954
vt 0.411062 0.408030
vt 0.752881 0.598451
vt 0.782174 0.590875
vt 0.771464 0.540764
vt 0.733143 0.602843
vt 0.746876 0.540978
vt 0.712350 0.606407
vt 0.715835 0.540007
vt 0.374328 0.455885
vt 0.401685 0.462940
vt 0.863333 0.582754
vt 0.914505 0.535527
vt 0.946909 0.408926
vt 0.903851 0.495698
vt 0.964388 0.418278
vt 0.918090 0.505236
vt 0.927744 0.402445
vt 0.894200 0.484977
vt 0.386960 0.482491
vt 0.927898 0.590066
vt 0.937258 0.540351
vt 0.949649 0.593497
vt 0.967456 0.545248
vt 0.983323 0.603269
vt 0.554365 0.528844
vt 0.497350 0.461727
vt 0.521288 0.559624
vt 0.460775 0.493932
vt 0.983638 0.434641
vt 0.925952 0.524051
vt 0.895995 0.514527
vt 0.877160 0.500468
vt 0.906079 0.397826
vt 0.587025 0.500459
vt 0.534007 0.429603
vt 0.626434 0.611846
vt 0.578583 0.661425
vt 0.517731 0.683231
vt 0.996303 0.347860
vt 0.979898 0.341888
vt 0.662765 0.575313
vt 0.963826 0.334598
vt 0.703396 0.530841
vn 0.882856 0.314233 0.349031
vn 0.882856 0.314233 0.349031
vn 0.882856 0.314233 0.349031
vn 0.682446 0.564065 0.464864
vn 0.682446 0.564065 0.464864
vn 0.682446 0.564065 0.464864
vn 0.922742 0.377419 0.078114
vn 0.922742 0.377419 0.078114
vn 0.922742 0.377419 0.078114
vn -0.210139 0.754419 -0.621847
vn -0.210139 0.754419 -0.621847
vn -0.210139 0.754419 -0.621847
vn 0.448218 0.684130 -0.575384
vn 0.448218 0.684130 -0.575384
vn 0.448218 0.684130 -0.575384
vn 0.708746 0.632610 0.312222
vn 0.708746 0.632610 0.312222
vn 0.708746 0.632610 0.312222
vn 0.411901 0.866957 0.280576
vn 0.411901 0.866957 0.280576
vn 0.411901 0.866957 0.280576
vn 0.000000 1.000000 0.000005
vn 0.000000 1.000000 0.000005
vn 0.000000 1.000000 0.000005
vn 0.000000 1.000000 0.000000
vn 0.000000 1.000000 0.000000
vn 0.000000 1.000000 0.000000
vn -0.571405 0.712107 0.407922
vn -0.571405 0.712107 0.407922
vn -0.571405 0.712107 0.407922
vn 0.637327 0.249691 0.729019
vn 0.637327 0.249691 0.729019
vn 0.637327 0.249691 0.729019
vn 0.541652 0.195161 0.817634
vn 0.541652 0.195161 0.817634
vn 0.541652 0.195161 0.817634
vn 0.533069 0.586541 0.609760
vn 0.533069 0.586541 0.609760
vn 0.533069 0.586541 0.609760
vn 0.419284 0.535653 0.732991
vn 0.419284 0.535653 0.732991
vn 0.419284 0.535653 0.732991
vn -0.247819 0.732990 0.633492
vn -0.247819 0.732990 0.633492
vn -0.247819 0.732990 0.633492
vn -0.699915 0.668590 0.251211
vn -0.699915 0.668590 0.251211
vn -0.699915 0.668590 0.251211
vn -0.148178 0.663024 0.733786
vn -0.148178 0.663024 0.733786
vn -0.148178 0.663024 0.733786
vn -0.387349 0.501849 -0.773375
vn -0.387349 0.501849 -0.773375
vn -0.387349 0.501849 -0.773375
vn 0.798732 0.529010 -0.286662
vn 0.798732 0.529010 -0.286662
vn 0.798732 0.529010 -0.286662
vn -0.545727 0.439584 -0.713407
vn -0.545727 0.439584 -0.713407
vn -0.545727 0.439584 -0.713407
vn -0.702766 0.640528 -0.309588
vn -0.702766 0.640528 -0.309588
vn -0.702766 0.640528 -0.309588
vn -0.692877 0.647326 -0.317633
vn -0.692877 0.647326 -0.317633
vn -0.692877 0.647326 -0.317633
vn 0.508988 -0.388080 0.768326
vn 0.508988 -0.388080 0.768326
vn 0.508988 -0.388080 0.768326
vn -0.849747 -0.386663 0.358361
vn -0.849747 -0.386663 0.358361
vn -0.849747 -0.386663 0.358361
vn -0.234028 -0.587189 0.774880
vn -0.234028 -0.587189 0.774880
vn -0.234028 -0.587189 0.774880
vn -0.171941 -0.605705 0.776890
vn -0.171941 -0.605705 0.776890
vn -0.171941 -0.605705 0.776890
vn -0.234026 -0.587189 0.774881
vn -0.234026 -0.587189 0.774881
vn -0.234026 -0.587189 0.774881
vn -0.234028 -0.587189 0.774880
vn -0.234028 -0.587189 0.774880
vn -0.234028 -0.587189 0.774880
vn 0.836583 -0.483621 0.257369
vn 0.836583 -0.483621 0.257369
vn 0.836583 -0.483621 0.257369
vn 0.867474 -0.350067 0.353470
vn 0.867474 -0.350067 0.353470
vn 0.867474 -0.350067 0.353470
vn -0.854440 -0.337282 -0.395189
vn -0.854440 -0.337282 -0.395189
vn -0.854440 -0.337282 -0.395189
vn -0.941458 -0.162327 -0.295477
vn -0.941458 -0.162327 -0.295477
vn -0.941458 -0.162327 -0.295477
vn 0.000055 -1.000000 -0.000182
vn 0.000055 -1.000000 -0.000182
vn 0.000055 -1.000000 -0.000182
vn 0.000055 -1.000000 -0.000182
vn 0.000055 -1.000000 -0.000182
vn 0.000055 -1.000000 -0.000182
vn 0.000055 -1.000000 -0.000182
vn 0.000055 -1.000000 -0.000182
vn 0.000055 -1.000000 -0.000182
vn 0.000055 -1.000000 -0.000182
vn 0.000055 -1.000000 -0.000182
vn 0.000055 -1.000000 -0.000182
vn 0.904120 -0.416677 0.094594
vn 0.904120 -0.416677 0.094594
vn 0.904120 -0.416677 0.094594
vn -0.745215 0.205935 -0.634228
vn -0.745215 0.205935 -0.634228
vn -0.745215 0.205935 -0.634228
vn 0.209883 -0.237938 -0.948333
vn 0.209883 -0.237938 -0.948333
vn 0.209883 -0.237938 -0.948333
vn -0.234587 -0.310417 -0.921201
vn -0.234587 -0.310417 -0.921201
vn -0.234587 -0.310417 -0.921201
vn 0.278981 -0.262493 -0.923725
vn 0.278981 -0.262493 -0.923725
vn 0.278981 -0.262493 -0.923725
vn 0.278985 -0.262492 -0.923724
vn 0.278985 -0.262492 -0.923724
vn 0.278985 -0.262492 -0.923724
vn 0.918433 0.128176 0.374234
vn 0.918433 0.128176 0.374234
vn 0.918433 0.128176 0.374234
vn 0.920254 0.144122 0.363816
vn 0.920254 0.144122 0.363816
vn 0.920254 0.144122 0.363816
vn 0.987901 0.115625 0.103360
vn 0.987901 0.115625 0.103360
vn 0.987901 0.115625 0.103360
vn 0.987995 0.129014 0.084977
vn 0.987995 0.129014 0.084977
vn 0.987995 0.129014 0.084977
vn -0.236718 -0.282617 -0.929566
vn -0.236718 -0.282617 -0.929566
vn -0.236718 -0.282617 -0.929566
vn -0.303716 -0.316206 -0.898761
vn -0.303716 -0.316206 -0.898761
vn -0.303716 -0.316206 -0.898761
vn -0.918271 0.082513 0.387260
vn -0.918271 0.082513 0.387260
vn -0.918271 0.082513 0.387260
vn -0.925950 0.091094 0.366495
vn -0.925950 0.091094 0.366495
vn -0.925950 0.091094 0.366495
vn -0.281856 0.222756 0.933240
vn -0.281856 0.222756 0.933240
vn -0.281856 0.222756 0.933240
vn -0.353255 0.244480 0.903017
vn -0.353255 0.244480 0.903017
vn -0.353255 0.244480 0.903017
vn -0.283286 0.199855 0.937980
vn -0.283286 0.199855 0.937980
vn -0.283286 0.199855 0.937980
vn -0.192293 0.237144 0.952253
vn -0.192293 0.237144 0.952253
vn -0.192293 0.237144 0.952253
vn -0.750257 -0.171491 -0.638518
vn -0.750257 -0.171491 -0.638518
vn -0.750257 -0.171491 -0.638518
vn -0.527670 0.053459 -0.847766
vn -0.527670 0.053459 -0.847766
vn -0.527670 0.053459 -0.847766
vn 0.288712 -0.053181 -0.955938
vn 0.288712 -0.053181 -0.955938
vn 0.288712 -0.053181 -0.955938
vn -0.590600 -0.234733 -0.772070
vn -0.590600 -0.234733 -0.772070
vn -0.590600 -0.234733 -0.772070
vn -0.902722 -0.103777 -0.417520
vn -0.902722 -0.103777 -0.417520
vn -0.902722 -0.103777 -0.417520
vn -0.904840 -0.110434 -0.411181
vn -0.904840 -0.110434 -0.411181
vn -0.904840 -0.110434 -0.411181
vn -0.143176 0.862140 0.486020
vn -0.143176 0.862140 0.486020
vn -0.143176 0.862140 0.486020
vn -0.143178 0.862141 0.486018
vn -0.143178 0.862141 0.486018
vn -0.143178 0.862141 0.486018
vn 0.809246 -0.532359 0.248425
vn 0.809246 -0.532359 0.248425
vn 0.809246 -0.532359 0.248425
vn 0.810023 -0.530849 0.249123
vn 0.810023 -0.530849 0.249123
vn 0.810023 -0.530849 0.249123
vn 0.213446 0.155981 -0.964422
vn 0.213446 0.155981 -0.964422
vn 0.213446 0.155981 -0.964422
vn 0.283466 0.196812 -0.938569
vn 0.283466 0.196812 -0.938569
vn 0.283466 0.196812 -0.938569
vn 0.283466 0.196812 -0.938569
vn 0.283466 0.196812 -0.938569
vn 0.283466 0.196812 -0.938569
vn 0.283465 0.196812 -0.938570
vn 0.283465 0.196812 -0.938570
vn 0.283465 0.196812 -0.938570
vn -0.907705 0.313222 -0.279221
vn -0.907705 0.313222 -0.279221
vn -0.907705 0.313222 -0.279221
vn -0.909519 0.305713 -0.281628
vn -0.909519 0.305713 -0.281628
vn -0.909519 0.305713 -0.281628
vn -0.143178 0.862140 0.486019
vn -0.143178 0.862140 0.486019
vn -0.143178 0.862140 0.486019
vn -0.143176 0.862140 0.486019
vn -0.143176 0.862140 0.486019
vn -0.143176 0.862140 0.486019
vn -0.022869 0.996720 0.077631
vn -0.022869 0.996720 0.077631
vn -0.022869 0.996720 0.077631
vn -0.017178 0.996836 0.077615
vn -0.017178 0.996836 0.077615
vn -0.017178 0.996836 0.077615
vn 0.736951 -0.528571 0.421327
vn 0.736951 -0.528571 0.421327
vn 0.736951 -0.528571 0.421327
vn 0.965803 0.105708 0.236751
vn 0.965803 0.105708 0.236751
vn 0.965803 0.105708 0.236751
vn 0.000000 -1.000000 0.000000
vn 0.000000 -1.000000 0.000000
vn 0.000000 -1.000000 0.000000
vn 0.000000 -1.000000 -0.000000
vn 0.000000 -1.000000 -0.000000
vn 0.000000 -1.000000 -0.000000
vn -0.022800 0.996740 0.077396
vn -0.022800 0.996740 0.077396
vn -0.022800 0.996740 0.077396
vn -0.023378 0.996725 0.077406
vn -0.023378 0.996725 0.077406
vn -0.023378 0.996725 0.077406
vn 0.000000 -1.000000 0.000000
vn 0.000000 -1.000000 0.000000
vn 0.000000 -1.000000 0.000000
vn 0.000000 -1.000000 0.000000
vn 0.000000 -1.000000 0.000000
vn 0.000000 -1.000000 0.000000
vn -0.973741 -0.069613 -0.216756
vn -0.973741 -0.069613 -0.216756
vn -0.973741 -0.069613 -0.216756
vn -0.885426 0.313159 -0.343442
vn -0.885426 0.313159 -0.343442
vn -0.885426 0.313159 -0.343442
s off
g rightBackLeg
usemtl initialShadingGroup
f 20/1/1 19/2/2 17/3/3
f 17/3/4 19/2/5 18/4/6
f 19/2/7 20/1/8 21/5/9
f 21/6/10 23/7/11 19/8/12
f 19/8/13 23/7/14 22/9/15
f 24/10/16 18/11/17 22/9/18
f 22/9/19 18/11/20 19/8/21
f 26/12/22 25/13/23 22/9/24
f 22/9/25 25/13/26 24/10/27
f 25/13/28 28/14/29 27/15/30
f 17/3/31 29/16/32 1/17/33
f 1/17/34 29/16/35 3/18/36
f 29/16/37 17/3/38 18/4/39
f 24/10/40 30/19/41 18/11/42
f 18/11/43 30/19/44 29/20/45
f 25/13/46 27/15/47 24/10/48
f 24/10/49 27/15/50 30/19/51
f 31/21/52 32/22/53 26/12/54
f 22/9/55 23/7/56 26/12/57
f 31/21/58 26/12/59 23/7/60
f 26/12/61 32/22/62 25/13/63
f 25/13/64 32/22/65 28/14/66
f 5/23/67 1/17/68 3/18/69
f 13/24/70 11/25/71 15/26/72
f 7/27/73 9/28/74 3/29/75
f 3/29/76 9/28/77 5/30/78
f 7/27/79 13/24/80 9/28/81
f 9/28/82 13/24/83 15/26/84
f 6/31/85 2/32/86 5/23/87
f 5/23/88 2/32/89 1/17/90
f 11/25/91 12/33/92 15/26/93
f 15/26/94 12/33/95 16/34/96
f 34/35/97 36/36/98 33/37/99
f 33/37/100 36/36/101 35/38/102
f 38/39/103 37/40/104 34/35/105
f 34/35/106 37/40/107 36/36/108
f 4/41/109 2/32/110 6/31/111
f 16/34/112 12/33/113 14/42/114
f 10/43/115 8/44/116 6/45/117
f 6/45/118 8/44/119 4/46/120
f 16/34/121 14/42/122 10/43/123
f 10/43/124 14/42/125 8/44/126
f 1/17/127 2/32/128 17/3/129
f 17/3/130 2/32/131 20/1/132
f 2/32/133 4/41/134 20/1/135
f 20/1/136 4/41/137 21/5/138
f 8/44/139 23/7/140 4/46/141
f 4/46/142 23/7/143 21/6/144
f 13/24/145 27/15/146 11/25/147
f 11/25/148 27/15/149 28/14/150
f 3/29/151 29/20/152 7/27/153
f 7/27/154 29/20/155 30/19/156
f 13/24/157 7/27/158 27/15/159
f 27/15/160 7/27/161 30/19/162
f 12/33/163 32/22/164 14/42/165
f 14/42/166 32/22/167 31/21/168
f 14/42/169 31/21/170 8/44/171
f 8/44/172 31/21/173 23/7/174
f 11/25/175 28/14/176 12/33/177
f 12/33/178 28/14/179 32/22/180
f 40/47/181 42/48/182 39/49/183
f 39/49/184 42/48/185 41/50/186
f 5/51/187 33/37/188 6/52/189
f 6/52/190 33/37/191 35/38/192
f 6/52/193 35/38/194 10/53/195
f 10/53/196 35/38/197 36/36/198
f 10/53/199 36/36/200 16/54/201
f 16/54/202 36/36/203 37/40/204
f 37/40/205 38/39/206 16/54/207
f 16/54/208 38/39/209 15/55/210
f 43/56/211 44/57/212 40/47/213
f 40/47/214 44/57/215 42/48/216
f 40/47/217 39/49/218 9/58/219
f 9/58/220 39/49/221 5/59/222
f 5/59/223 39/49/224 33/60/225
f 33/60/226 39/49/227 41/50/228
f 41/61/229 42/62/230 33/37/231
f 33/37/232 42/62/233 34/35/234
f 43/56/235 40/47/236 15/63/237
f 15/63/238 40/47/239 9/58/240
f 42/62/241 44/64/242 34/35/243
f 34/35/244 44/64/245 38/39/246
f 44/57/247 43/56/248 38/65/249
f 38/65/250 43/56/251 15/63/252
