# This file uses centimeters as units for non-parametric coordinates.

mtllib WalreinFLLeg.mtl
g default
v 0.301707 -2.163389 1.273210
v 1.459283 -2.163389 1.273210
v -0.319813 0.195073 1.271516
v 0.256954 0.195073 1.271516
v -0.161321 0.032190 -1.650506
v 0.838679 0.032190 -1.650506
v 0.301707 -2.022222 -2.425182
v 1.459283 -2.022222 -2.425182
v 0.748178 0.227649 -0.010323
v -0.452623 0.227649 -0.010323
v 0.459283 -1.533573 -0.042900
v 1.459283 -1.533573 -0.042900
v 1.260362 -0.956460 -1.724410
v 0.260361 -0.956460 -1.724410
v 0.243411 -0.793577 0.011394
v 0.140069 -0.804436 1.249799
v 1.122978 -0.804436 1.249799
v 1.237813 -0.793577 0.011394
v 0.683860 -3.721097 0.006827
v 2.054691 -3.721097 0.006827
v 2.054691 -4.350913 1.555843
v 1.054691 -4.350913 1.555843
v 0.683860 -4.022477 -1.622933
v 2.054691 -4.022477 -1.622933
v 1.054691 -5.199897 0.006827
v 2.054691 -5.199897 0.006827
v 2.054691 -5.200101 0.932588
v 1.054691 -5.200101 0.932588
v 1.054691 -5.199994 -0.999677
v 2.054691 -5.199994 -0.999677
v 4.720373 -4.823275 0.865013
v 4.720373 -4.823402 1.746791
v 4.720373 -5.200102 1.746791
v 4.720373 -5.199897 0.865013
v 4.720373 -4.823336 0.103653
v 4.720373 -5.199995 0.103653
vt 0.057167 0.519597
vt 0.046233 0.569717
vt 0.022406 0.535605
vt 0.025669 0.580285
vt 0.145386 0.330088
vt 0.156167 0.335119
vt 0.134785 0.352534
vt 0.154275 0.363961
vt 0.207110 0.578504
vt 0.171435 0.559750
vt 0.211508 0.535500
vt 0.175534 0.516675
vt 0.033065 0.309594
vt 0.015168 0.301279
vt 0.038373 0.293607
vt 0.024976 0.282656
vt 0.105338 0.521032
vt 0.103441 0.566658
vt 0.124719 0.320961
vt 0.113443 0.342609
vt 0.118842 0.380828
vt 0.135285 0.392078
vt 0.098046 0.373569
vt 0.026906 0.326974
vt 0.008655 0.322015
vt 0.237875 0.488008
vt 0.197121 0.473546
vt 0.072765 0.378815
vt 0.099109 0.337665
vt 0.099470 0.308714
vt 0.054543 0.464559
vt 0.009924 0.480195
vt 0.107697 0.489973
vt 0.109404 0.399128
vt 0.047105 0.372769
vt 0.009270 0.386443
vt 0.060908 0.320002
vt 0.057349 0.284505
vt 0.234224 0.395544
vt 0.176692 0.390911
vt 0.040333 0.348341
vt 0.382713 0.350363
vt 0.376191 0.309275
vt 0.404730 0.347541
vt 0.395162 0.299908
vt 0.042882 0.270076
vt 0.010949 0.351249
vt 0.384088 0.391709
vt 0.405827 0.394029
vt 0.231061 0.368475
vt 0.235105 0.262452
vt 0.268894 0.206915
vt 0.505635 0.409395
vt 0.460371 0.321618
vt 0.536119 0.393676
vt 0.485433 0.308694
vt 0.250363 0.471098
vt 0.472492 0.426486
vt 0.435301 0.334546
vt 0.309196 0.526517
vn 0.000000 -0.021723 0.999764
vn 0.000000 -0.021723 0.999764
vn 0.000000 -0.021723 0.999764
vn 0.000000 -0.021723 0.999764
vn 0.000000 -0.021723 0.999764
vn 0.000000 -0.021723 0.999764
vn 0.000000 0.999677 0.025405
vn 0.000000 0.999677 0.025405
vn 0.000000 0.999677 0.025405
vn 0.000000 0.999677 0.025406
vn 0.000000 0.999677 0.025406
vn 0.000000 0.999677 0.025406
vn 0.000000 0.074545 -0.997218
vn 0.000000 0.074545 -0.997218
vn 0.000000 0.074545 -0.997218
vn 0.000000 0.074544 -0.997218
vn 0.000000 0.074544 -0.997218
vn 0.000000 0.074544 -0.997218
vn 0.000000 -1.000000 -0.000220
vn 0.000000 -1.000000 -0.000220
vn 0.000000 -1.000000 -0.000220
vn 0.000000 -1.000000 -0.000220
vn 0.000000 -1.000000 -0.000220
vn 0.000000 -1.000000 -0.000220
vn 0.897571 0.432197 0.087020
vn 0.897571 0.432197 0.087020
vn 0.897571 0.432197 0.087020
vn 0.725553 0.622270 0.293859
vn 0.725553 0.622270 0.293859
vn 0.725553 0.622270 0.293859
vn -0.906248 -0.415250 -0.079266
vn -0.906248 -0.415250 -0.079266
vn -0.906248 -0.415250 -0.079266
vn -0.824930 -0.560731 0.071220
vn -0.824930 -0.560731 0.071220
vn -0.824930 -0.560731 0.071220
vn 0.000000 0.992974 -0.118331
vn 0.000000 0.992974 -0.118331
vn 0.000000 0.992974 -0.118331
vn 0.000000 0.992974 -0.118333
vn 0.000000 0.992974 -0.118333
vn 0.000000 0.992974 -0.118333
vn -0.918709 -0.393942 0.027995
vn -0.918709 -0.393942 0.027995
vn -0.918709 -0.393942 0.027995
vn -0.822950 -0.562578 -0.079117
vn -0.822950 -0.562578 -0.079117
vn -0.822950 -0.562578 -0.079117
vn 0.000000 -1.000000 0.000096
vn 0.000000 -1.000000 0.000096
vn 0.000000 -1.000000 0.000096
vn 0.000000 -1.000000 0.000096
vn 0.000000 -1.000000 0.000096
vn 0.000000 -1.000000 0.000096
vn 0.901727 0.432303 -0.001762
vn 0.901727 0.432303 -0.001762
vn 0.901727 0.432303 -0.001762
vn 0.918862 0.393786 -0.025015
vn 0.918862 0.393786 -0.025015
vn 0.918862 0.393786 -0.025015
vn 0.000000 0.549405 -0.835557
vn 0.000000 0.549405 -0.835557
vn 0.000000 0.549405 -0.835557
vn 0.000000 0.549404 -0.835557
vn 0.000000 0.549404 -0.835557
vn 0.000000 0.549404 -0.835557
vn -0.991907 -0.094346 0.084962
vn -0.991907 -0.094346 0.084962
vn -0.991907 -0.094346 0.084962
vn -0.959511 -0.281158 0.017014
vn -0.959511 -0.281158 0.017014
vn -0.959511 -0.281158 0.017014
vn -0.977478 -0.119264 -0.174105
vn -0.977478 -0.119264 -0.174105
vn -0.977478 -0.119264 -0.174105
vn -0.958333 -0.273521 -0.082369
vn -0.958333 -0.273521 -0.082369
vn -0.958333 -0.273521 -0.082369
vn 0.000000 0.017225 0.999852
vn 0.000000 0.017225 0.999852
vn 0.000000 0.017225 0.999852
vn 0.000000 0.017225 0.999852
vn 0.000000 0.017225 0.999852
vn 0.000000 0.017225 0.999852
vn 0.963802 0.240498 0.115089
vn 0.963802 0.240498 0.115089
vn 0.963802 0.240498 0.115089
vn 0.955848 0.279389 0.091084
vn 0.955848 0.279389 0.091084
vn 0.955848 0.279389 0.091084
vn 0.957619 0.287669 -0.014554
vn 0.957619 0.287669 -0.014554
vn 0.957619 0.287669 -0.014554
vn 0.976596 0.210695 -0.043217
vn 0.976596 0.210695 -0.043217
vn 0.976596 0.210695 -0.043217
vn 0.956483 0.263202 0.125954
vn 0.956483 0.263202 0.125954
vn 0.956483 0.263202 0.125954
vn 0.955127 0.274384 0.111562
vn 0.955127 0.274384 0.111562
vn 0.955127 0.274384 0.111562
vn 0.000000 0.128137 0.991756
vn 0.000000 0.128137 0.991756
vn 0.000000 0.128137 0.991756
vn 0.000000 0.128137 0.991756
vn 0.000000 0.128137 0.991756
vn 0.000000 0.128137 0.991756
vn -0.980347 -0.104450 -0.167359
vn -0.980347 -0.104450 -0.167359
vn -0.980347 -0.104450 -0.167359
vn -0.944764 -0.312392 0.099158
vn -0.944764 -0.312392 0.099158
vn -0.944764 -0.312392 0.099158
vn 0.000000 -0.372249 -0.928133
vn 0.000000 -0.372249 -0.928133
vn 0.000000 -0.372249 -0.928133
vn 0.000000 -0.372249 -0.928133
vn 0.000000 -0.372249 -0.928133
vn 0.000000 -0.372249 -0.928133
vn 0.962773 0.264800 -0.054315
vn 0.962773 0.264800 -0.054315
vn 0.962773 0.264800 -0.054315
vn 0.964047 0.261300 -0.048320
vn 0.964047 0.261300 -0.048320
vn 0.964047 0.261300 -0.048320
vn -0.984097 -0.149600 0.095779
vn -0.984097 -0.149600 0.095779
vn -0.984097 -0.149600 0.095779
vn -0.994639 -0.101685 0.018804
vn -0.994639 -0.101685 0.018804
vn -0.994639 -0.101685 0.018804
vn 1.000000 0.000000 0.000000
vn 1.000000 0.000000 0.000000
vn 1.000000 0.000000 0.000000
vn 1.000000 0.000000 0.000000
vn 1.000000 0.000000 0.000000
vn 1.000000 0.000000 0.000000
vn 0.000000 -0.591683 0.806171
vn 0.000000 -0.591683 0.806171
vn 0.000000 -0.591683 0.806171
vn 0.000000 -0.591683 0.806171
vn 0.000000 -0.591683 0.806171
vn 0.000000 -0.591683 0.806171
vn -0.961462 -0.241101 0.132142
vn -0.961462 -0.241101 0.132142
vn -0.961462 -0.241101 0.132142
vn -1.000000 0.000000 0.000000
vn -1.000000 0.000000 0.000000
vn -1.000000 0.000000 0.000000
vn 0.000000 -0.467809 -0.883830
vn 0.000000 -0.467809 -0.883830
vn 0.000000 -0.467809 -0.883830
vn 0.000000 -0.467809 -0.883830
vn 0.000000 -0.467809 -0.883830
vn 0.000000 -0.467809 -0.883830
vn 1.000000 0.000000 0.000000
vn 1.000000 0.000000 0.000000
vn 1.000000 0.000000 0.000000
vn 1.000000 0.000000 0.000000
vn 1.000000 0.000000 0.000000
vn 1.000000 0.000000 0.000000
vn -0.959988 -0.275372 0.050923
vn -0.959988 -0.275372 0.050923
vn -0.959988 -0.275372 0.050923
vn -0.969968 -0.243234 0.000023
vn -0.969968 -0.243234 0.000023
vn -0.969968 -0.243234 0.000023
vn 0.253230 0.896163 0.364372
vn 0.253230 0.896163 0.364372
vn 0.253230 0.896163 0.364372
vn 0.174519 0.984654 0.000142
vn 0.174519 0.984654 0.000142
vn 0.174519 0.984654 0.000142
vn -0.239094 -0.574522 0.782789
vn -0.239094 -0.574522 0.782789
vn -0.239094 -0.574522 0.782789
vn -0.071449 0.000000 0.997444
vn -0.071449 0.000000 0.997444
vn -0.071449 0.000000 0.997444
vn 0.000071 -1.000000 -0.000220
vn 0.000071 -1.000000 -0.000220
vn 0.000071 -1.000000 -0.000220
vn 0.000071 -1.000000 -0.000232
vn 0.000071 -1.000000 -0.000232
vn 0.000071 -1.000000 -0.000232
vn 0.381887 0.908801 -0.168058
vn 0.381887 0.908801 -0.168058
vn 0.381887 0.908801 -0.168058
vn 0.382117 0.924114 -0.000074
vn 0.382117 0.924114 -0.000074
vn 0.382117 0.924114 -0.000074
vn -0.000040 -1.000000 0.000096
vn -0.000040 -1.000000 0.000096
vn -0.000040 -1.000000 0.000096
vn -0.000041 -1.000000 0.000129
vn -0.000041 -1.000000 0.000129
vn -0.000041 -1.000000 0.000129
vn 0.396514 -0.429462 -0.811381
vn 0.396514 -0.429462 -0.811381
vn 0.396514 -0.429462 -0.811381
vn 0.382437 0.000000 -0.923982
vn 0.382437 0.000000 -0.923982
vn 0.382437 0.000000 -0.923982
s off
g leftFrontLeg
usemtl initialShadingGroup
f 17/1/1 4/2/2 16/3/3
f 16/3/4 4/2/5 3/4/6
f 3/5/7 4/6/8 10/7/9
f 10/7/10 4/6/11 9/8/12
f 5/9/13 6/10/14 14/11/15
f 14/11/16 6/10/17 13/12/18
f 25/13/19 26/14/20 28/15/21
f 28/15/22 26/14/23 27/16/24
f 18/17/25 9/18/26 17/1/27
f 17/1/28 9/18/29 4/2/30
f 16/19/31 3/5/32 15/20/33
f 15/20/34 3/5/35 10/7/36
f 10/7/37 9/8/38 5/21/39
f 5/21/40 9/8/41 6/22/42
f 14/23/43 15/20/44 5/21/45
f 5/21/46 15/20/47 10/7/48
f 29/24/49 30/25/50 25/13/51
f 25/13/52 30/25/53 26/14/54
f 9/18/55 18/17/56 6/10/57
f 6/10/58 18/17/59 13/12/60
f 14/11/61 13/12/62 7/26/63
f 7/26/64 13/12/65 8/27/66
f 7/28/67 11/29/68 14/23/69
f 14/23/70 11/29/71 15/20/72
f 1/30/73 16/19/74 11/29/75
f 11/29/76 16/19/77 15/20/78
f 2/31/79 17/1/80 1/32/81
f 1/32/82 17/1/83 16/3/84
f 2/31/85 12/33/86 17/1/87
f 17/1/88 12/33/89 18/17/90
f 18/17/91 12/33/92 13/12/93
f 13/12/94 12/33/95 8/27/96
f 12/33/97 2/31/98 20/34/99
f 20/34/100 2/31/101 21/35/102
f 1/32/103 22/36/104 2/31/105
f 2/31/106 22/36/107 21/35/108
f 11/29/109 19/37/110 1/30/111
f 1/30/112 19/37/113 22/38/114
f 7/26/115 8/27/116 23/39/117
f 23/39/118 8/27/119 24/40/120
f 8/27/121 12/33/122 24/40/123
f 24/40/124 12/33/125 20/34/126
f 7/28/127 23/41/128 11/29/129
f 11/29/130 23/41/131 19/37/132
f 31/42/133 32/43/134 34/44/135
f 34/44/136 32/43/137 33/45/138
f 21/46/139 22/38/140 27/16/141
f 27/16/142 22/38/143 28/15/144
f 19/37/145 25/13/146 22/38/147
f 22/38/148 25/13/149 28/15/150
f 23/41/151 24/47/152 29/24/153
f 29/24/154 24/47/155 30/25/156
f 35/48/157 31/42/158 36/49/159
f 36/49/160 31/42/161 34/44/162
f 23/41/163 29/24/164 19/37/165
f 19/37/166 29/24/167 25/13/168
f 20/50/169 21/51/170 31/42/171
f 31/42/172 21/51/173 32/43/174
f 27/52/175 33/45/176 21/51/177
f 21/51/178 33/45/179 32/43/180
f 26/53/181 34/54/182 27/55/183
f 27/55/184 34/54/185 33/56/186
f 24/57/187 20/50/188 35/48/189
f 35/48/190 20/50/191 31/42/192
f 30/58/193 36/59/194 26/53/195
f 26/53/196 36/59/197 34/54/198
f 24/57/199 35/48/200 30/60/201
f 30/60/202 35/48/203 36/49/204
