# This file uses centimeters as units for non-parametric coordinates.

mtllib WalreinTail.mtl
g default
v -1.029634 -0.259621 0.420414
v 1.029634 -0.259621 0.420414
v -1.029634 -0.082790 0.420414
v 1.029634 -0.082790 0.420414
v -3.838303 -0.889989 -4.476791
v 3.838303 -0.889989 -4.476791
v -3.838303 -1.066820 -4.476791
v 3.838303 -1.066820 -4.476791
v 0.000000 0.627796 -4.795208
v 0.000000 0.450965 -4.795208
v 0.000000 -0.074114 -0.012924
v 0.000000 0.102717 -0.012924
v 2.361743 -0.502264 -1.803032
v 0.000000 0.518025 -2.316616
v -2.361743 -0.502264 -1.803032
v -2.361743 -0.679095 -1.803032
v 0.000000 0.341194 -2.316616
v 2.361743 -0.679095 -1.803032
v 1.137113 0.026785 -2.069340
v 0.495740 0.013401 0.195716
v 0.495740 -0.163431 0.195716
v 1.137113 -0.150047 -2.069340
v 1.848035 -0.279806 -4.246621
v 1.848035 -0.102974 -4.246621
v -1.212574 -0.005815 -2.052931
v -0.528638 0.007474 0.209562
v -0.528638 -0.169358 0.209562
v -1.212574 -0.182646 -2.052931
v -1.970673 -0.328301 -4.238415
v -1.970673 -0.151470 -4.238415
vt 0.240332 0.114578
vt 0.246528 0.132118
vt 0.234856 0.115879
vt 0.240963 0.131807
vt 0.016229 0.210758
vt 0.026313 0.188119
vt 0.111423 0.243113
vt 0.125114 0.188095
vt 0.402603 0.137152
vt 0.397795 0.136963
vt 0.383055 0.066889
vt 0.378109 0.065853
vt 0.319006 0.134449
vt 0.309826 0.093604
vt 0.295455 0.212111
vt 0.291563 0.216132
vt 0.234210 0.163590
vt 0.228769 0.164483
vt 0.300399 0.055264
vt 0.236129 0.100045
vt 0.296761 0.051015
vt 0.230786 0.098818
vt 0.379402 0.201613
vt 0.368714 0.271046
vt 0.374371 0.202343
vt 0.366634 0.265731
vt 0.239787 0.148292
vt 0.308033 0.172058
vt 0.234504 0.146631
vt 0.016867 0.166903
vt 0.006553 0.144199
vt 0.112244 0.136480
vt 0.098844 0.080475
vt 0.204199 0.103887
vt 0.211242 0.012408
vt 0.203655 0.277855
vt 0.229560 0.188105
vt 0.374884 0.006093
vt 0.377338 0.000909
vt 0.006559 0.232043
vt 0.098877 0.295680
vt 0.211245 0.363675
vn 0.387911 0.000000 0.921697
vn 0.387911 0.000000 0.921697
vn 0.387911 0.000000 0.921697
vn 0.387912 0.000000 0.921697
vn 0.387912 0.000000 0.921697
vn 0.387912 0.000000 0.921697
vn -0.159795 0.986234 0.042512
vn -0.159795 0.986234 0.042512
vn -0.159795 0.986234 0.042512
vn -0.360568 0.917935 0.165485
vn -0.360568 0.917935 0.165485
vn -0.360568 0.917935 0.165485
vn -0.271898 0.000000 -0.962326
vn -0.271898 0.000000 -0.962326
vn -0.271898 0.000000 -0.962326
vn -0.271897 0.000000 -0.962326
vn -0.271897 0.000000 -0.962326
vn -0.271897 0.000000 -0.962326
vn 0.360568 -0.917935 -0.165485
vn 0.360568 -0.917935 -0.165485
vn 0.360568 -0.917935 -0.165485
vn 0.159796 -0.986234 -0.042513
vn 0.159796 -0.986234 -0.042513
vn 0.159796 -0.986234 -0.042513
vn 0.857827 0.000000 0.513939
vn 0.857827 0.000000 0.513939
vn 0.857827 0.000000 0.513939
vn 0.857826 0.000000 0.513940
vn 0.857826 0.000000 0.513940
vn 0.857826 0.000000 0.513940
vn -0.857827 0.000000 0.513939
vn -0.857827 0.000000 0.513939
vn -0.857827 0.000000 0.513939
vn -0.857826 0.000000 0.513940
vn -0.857826 0.000000 0.513940
vn -0.857826 0.000000 0.513940
vn -0.114886 0.000000 -0.993379
vn -0.114886 0.000000 -0.993379
vn -0.114886 0.000000 -0.993379
vn -0.114881 0.000000 -0.993379
vn -0.114881 0.000000 -0.993379
vn -0.114881 0.000000 -0.993379
vn -0.156599 -0.986387 -0.050171
vn -0.156599 -0.986387 -0.050171
vn -0.156599 -0.986387 -0.050171
vn -0.385430 -0.920964 -0.057170
vn -0.385430 -0.920964 -0.057170
vn -0.385430 -0.920964 -0.057170
vn -0.387911 0.000000 0.921697
vn -0.387911 0.000000 0.921697
vn -0.387911 0.000000 0.921697
vn -0.387913 0.000000 0.921696
vn -0.387913 0.000000 0.921696
vn -0.387913 0.000000 0.921696
vn 0.156601 0.986387 0.050172
vn 0.156601 0.986387 0.050172
vn 0.156601 0.986387 0.050172
vn 0.385431 0.920964 0.057170
vn 0.385431 0.920964 0.057170
vn 0.385431 0.920964 0.057170
vn 0.382728 0.921200 0.070067
vn 0.382728 0.921200 0.070067
vn 0.382728 0.921200 0.070067
vn 0.373995 0.924596 0.072458
vn 0.373995 0.924596 0.072458
vn 0.373995 0.924596 0.072458
vn -0.382471 0.921214 0.071276
vn -0.382471 0.921214 0.071276
vn -0.382471 0.921214 0.071276
vn -0.357293 0.933078 0.041324
vn -0.357293 0.933078 0.041324
vn -0.357293 0.933078 0.041324
vn -0.875387 0.000000 0.483424
vn -0.875387 0.000000 0.483424
vn -0.875387 0.000000 0.483424
vn -0.875386 0.000000 0.483425
vn -0.875386 0.000000 0.483425
vn -0.875386 0.000000 0.483425
vn 0.357293 -0.933078 -0.041324
vn 0.357293 -0.933078 -0.041324
vn 0.357293 -0.933078 -0.041324
vn 0.382471 -0.921214 -0.071275
vn 0.382471 -0.921214 -0.071275
vn 0.382471 -0.921214 -0.071275
vn -0.382728 -0.921200 -0.070067
vn -0.382728 -0.921200 -0.070067
vn -0.382728 -0.921200 -0.070067
vn -0.373994 -0.924596 -0.072458
vn -0.373994 -0.924596 -0.072458
vn -0.373994 -0.924596 -0.072458
vn 0.875386 0.000000 0.483425
vn 0.875386 0.000000 0.483425
vn 0.875386 0.000000 0.483425
vn 0.875387 0.000000 0.483424
vn 0.875387 0.000000 0.483424
vn 0.875387 0.000000 0.483424
vn 0.360568 0.917936 0.165485
vn 0.360568 0.917936 0.165485
vn 0.360568 0.917936 0.165485
vn 0.156599 0.986387 0.050171
vn 0.156599 0.986387 0.050171
vn 0.156599 0.986387 0.050171
vn -0.387912 0.000000 0.921696
vn -0.387912 0.000000 0.921696
vn -0.387912 0.000000 0.921696
vn -0.387911 0.000000 0.921697
vn -0.387911 0.000000 0.921697
vn -0.387911 0.000000 0.921697
vn -0.360568 -0.917935 -0.165485
vn -0.360568 -0.917935 -0.165485
vn -0.360568 -0.917935 -0.165485
vn -0.156601 -0.986387 -0.050172
vn -0.156601 -0.986387 -0.050172
vn -0.156601 -0.986387 -0.050172
vn -0.382728 -0.921200 -0.070067
vn -0.382728 -0.921200 -0.070067
vn -0.382728 -0.921200 -0.070067
vn -0.356776 -0.933275 -0.041332
vn -0.356776 -0.933275 -0.041332
vn -0.356776 -0.933275 -0.041332
vn 0.284575 0.000000 -0.958654
vn 0.284575 0.000000 -0.958654
vn 0.284575 0.000000 -0.958654
vn 0.284569 0.000000 -0.958655
vn 0.284569 0.000000 -0.958655
vn 0.284569 0.000000 -0.958655
vn 0.356776 0.933275 0.041333
vn 0.356776 0.933275 0.041333
vn 0.356776 0.933275 0.041333
vn 0.382728 0.921200 0.070067
vn 0.382728 0.921200 0.070067
vn 0.382728 0.921200 0.070067
vn -0.159797 0.986234 0.042513
vn -0.159797 0.986234 0.042513
vn -0.159797 0.986234 0.042513
vn -0.385430 0.920964 0.057170
vn -0.385430 0.920964 0.057170
vn -0.385430 0.920964 0.057170
vn 0.387913 0.000000 0.921696
vn 0.387913 0.000000 0.921696
vn 0.387913 0.000000 0.921696
vn 0.387910 0.000000 0.921697
vn 0.387910 0.000000 0.921697
vn 0.387910 0.000000 0.921697
vn 0.385430 -0.920964 -0.057170
vn 0.385430 -0.920964 -0.057170
vn 0.385430 -0.920964 -0.057170
vn 0.159795 -0.986234 -0.042512
vn 0.159795 -0.986234 -0.042512
vn 0.159795 -0.986234 -0.042512
vn 0.374783 -0.924238 -0.072946
vn 0.374783 -0.924238 -0.072946
vn 0.374783 -0.924238 -0.072946
vn 0.382471 -0.921214 -0.071276
vn 0.382471 -0.921214 -0.071276
vn 0.382471 -0.921214 -0.071276
vn 0.126609 0.000000 -0.991953
vn 0.126609 0.000000 -0.991953
vn 0.126609 0.000000 -0.991953
vn 0.126609 0.000000 -0.991953
vn 0.126609 0.000000 -0.991953
vn 0.126609 0.000000 -0.991953
vn -0.382471 0.921214 0.071276
vn -0.382471 0.921214 0.071276
vn -0.382471 0.921214 0.071276
vn -0.374783 0.924238 0.072946
vn -0.374783 0.924238 0.072946
vn -0.374783 0.924238 0.072946
s off
g tail
usemtl initialShadingGroup
f 27/1/1 11/2/2 26/3/3
f 26/3/4 11/2/5 12/4/6
f 26/5/7 12/6/8 25/7/9
f 25/7/10 12/6/11 14/8/12
f 9/9/13 10/10/14 30/11/15
f 30/11/16 10/10/17 29/12/18
f 17/13/19 11/2/20 28/14/21
f 28/14/22 11/2/23 27/1/24
f 18/15/25 13/16/26 2/17/27
f 2/17/28 13/16/29 4/18/30
f 16/19/31 1/20/32 15/21/33
f 15/21/34 1/20/35 3/22/36
f 24/23/37 6/24/38 23/25/39
f 23/25/40 6/24/41 8/26/42
f 21/27/43 22/28/44 2/17/45
f 2/17/46 22/28/47 18/15/48
f 20/29/49 21/27/50 4/18/51
f 4/18/52 21/27/53 2/17/54
f 20/30/55 4/31/56 19/32/57
f 19/32/58 4/31/59 13/33/60
f 19/32/61 13/33/62 24/34/63
f 24/34/64 13/33/65 6/35/66
f 25/7/67 14/8/68 30/36/69
f 30/36/70 14/8/71 9/37/72
f 7/38/73 16/19/74 5/39/75
f 5/39/76 16/19/77 15/21/78
f 10/10/79 17/13/80 29/12/81
f 29/12/82 17/13/83 28/14/84
f 22/28/85 23/25/86 18/15/87
f 18/15/88 23/25/89 8/26/90
f 13/16/91 18/15/92 6/24/93
f 6/24/94 18/15/95 8/26/96
f 14/8/97 12/6/98 19/32/99
f 19/32/100 12/6/101 20/30/102
f 12/4/103 11/2/104 20/29/105
f 20/29/106 11/2/107 21/27/108
f 17/13/109 22/28/110 11/2/111
f 11/2/112 22/28/113 21/27/114
f 22/28/115 17/13/116 23/25/117
f 23/25/118 17/13/119 10/10/120
f 9/9/121 24/23/122 10/10/123
f 10/10/124 24/23/125 23/25/126
f 9/37/127 14/8/128 24/34/129
f 24/34/130 14/8/131 19/32/132
f 26/5/133 25/7/134 3/40/135
f 3/40/136 25/7/137 15/41/138
f 1/20/139 27/1/140 3/22/141
f 3/22/142 27/1/143 26/3/144
f 16/19/145 28/14/146 1/20/147
f 1/20/148 28/14/149 27/1/150
f 7/38/151 29/12/152 16/19/153
f 16/19/154 29/12/155 28/14/156
f 30/11/157 29/12/158 5/39/159
f 5/39/160 29/12/161 7/38/162
f 25/7/163 30/36/164 15/41/165
f 15/41/166 30/36/167 5/42/168
