# This file uses centimeters as units for non-parametric coordinates.

mtllib LitwickSFlame.mtl
g default1
v 0.439011 0.111367 0.000000
v 0.000000 0.111367 -0.439011
v -0.439011 0.111367 0.000000
v 0.000000 0.111367 0.439011
v 0.620855 0.671442 0.000000
v 0.000000 0.671442 -0.620855
v -0.620855 0.671442 0.000000
v 0.000000 0.671442 0.620855
v 0.439102 1.781724 0.000000
v 0.000000 1.781724 -0.439102
v -0.439102 1.781724 0.000000
v 0.000000 1.781724 0.439102
v 0.000000 -0.176360 0.000000
v 0.000000 3.084924 0.000000
vt 0.819920 0.721718
vt 0.780150 0.721718
vt 0.836393 0.772455
vt 0.780150 0.772455
vt 0.740379 0.721718
vt 0.723906 0.772455
vt 0.780150 0.721718
vt 0.780150 0.772455
vt 0.819928 0.873036
vt 0.780150 0.873036
vt 0.740371 0.873036
vt 0.780150 0.873036
vt 0.780150 0.695652
vt 0.780150 0.991094
vn 0.689177 -0.223761 -0.689177
vn 0.689177 -0.223761 -0.689177
vn 0.689177 -0.223761 -0.689177
vn 0.689177 -0.223761 -0.689177
vn 0.689177 -0.223761 -0.689177
vn 0.689177 -0.223761 -0.689177
vn -0.689178 -0.223761 -0.689177
vn -0.689178 -0.223761 -0.689177
vn -0.689178 -0.223761 -0.689177
vn -0.689178 -0.223761 -0.689177
vn -0.689178 -0.223761 -0.689177
vn -0.689178 -0.223761 -0.689177
vn -0.689177 -0.223761 0.689178
vn -0.689177 -0.223761 0.689178
vn -0.689177 -0.223761 0.689178
vn -0.689177 -0.223761 0.689178
vn -0.689177 -0.223761 0.689178
vn -0.689177 -0.223761 0.689178
vn 0.689178 -0.223761 0.689177
vn 0.689178 -0.223761 0.689177
vn 0.689178 -0.223761 0.689177
vn 0.689178 -0.223761 0.689177
vn 0.689178 -0.223761 0.689177
vn 0.689178 -0.223761 0.689177
vn 0.702417 0.114985 -0.702417
vn 0.702417 0.114985 -0.702417
vn 0.702417 0.114985 -0.702417
vn 0.702417 0.114985 -0.702417
vn 0.702417 0.114985 -0.702417
vn 0.702417 0.114985 -0.702417
vn -0.702416 0.114985 -0.702417
vn -0.702416 0.114985 -0.702417
vn -0.702416 0.114985 -0.702417
vn -0.702416 0.114985 -0.702417
vn -0.702416 0.114985 -0.702417
vn -0.702416 0.114985 -0.702417
vn -0.702417 0.114985 0.702416
vn -0.702417 0.114985 0.702417
vn -0.702417 0.114985 0.702417
vn -0.702417 0.114985 0.702417
vn -0.702417 0.114985 0.702417
vn -0.702417 0.114985 0.702417
vn 0.702417 0.114985 0.702417
vn 0.702417 0.114985 0.702417
vn 0.702417 0.114985 0.702417
vn 0.702417 0.114985 0.702417
vn 0.702417 0.114985 0.702417
vn 0.702417 0.114985 0.702417
vn 0.480680 -0.733413 -0.480679
vn 0.480680 -0.733413 -0.480679
vn 0.480680 -0.733413 -0.480679
vn -0.480679 -0.733413 -0.480679
vn -0.480679 -0.733413 -0.480679
vn -0.480679 -0.733414 -0.480679
vn -0.480680 -0.733413 0.480679
vn -0.480680 -0.733413 0.480679
vn -0.480680 -0.733413 0.480679
vn 0.480679 -0.733413 0.480679
vn 0.480679 -0.733413 0.480679
vn 0.480679 -0.733413 0.480679
vn 0.687853 0.231766 -0.687854
vn 0.687853 0.231766 -0.687854
vn 0.687853 0.231766 -0.687853
vn -0.687853 0.231766 -0.687854
vn -0.687853 0.231766 -0.687854
vn -0.687853 0.231766 -0.687854
vn -0.687853 0.231766 0.687854
vn -0.687853 0.231766 0.687854
vn -0.687853 0.231766 0.687854
vn 0.687853 0.231766 0.687854
vn 0.687853 0.231766 0.687854
vn 0.687853 0.231766 0.687854
s off
g polySurface2
usemtl None
f 1/1/1 2/2/2 5/3/3
f 5/3/4 2/2/5 6/4/6
f 2/2/7 3/5/8 6/4/9
f 6/4/10 3/5/11 7/6/12
f 3/5/13 4/7/14 7/6/15
f 7/6/16 4/7/17 8/8/18
f 4/7/19 1/1/20 8/8/21
f 8/8/22 1/1/23 5/3/24
f 5/3/25 6/4/26 9/9/27
f 9/9/28 6/4/29 10/10/30
f 6/4/31 7/6/32 10/10/33
f 10/10/34 7/6/35 11/11/36
f 7/6/37 8/8/38 11/11/39
f 11/11/40 8/8/41 12/12/42
f 8/8/43 5/3/44 12/12/45
f 12/12/46 5/3/47 9/9/48
f 2/2/49 1/1/50 13/13/51
f 3/5/52 2/2/53 13/13/54
f 4/7/55 3/5/56 13/13/57
f 1/1/58 4/7/59 13/13/60
f 9/9/61 10/10/62 14/14/63
f 10/10/64 11/11/65 14/14/66
f 11/11/67 12/12/68 14/14/69
f 12/12/70 9/9/71 14/14/72
