# This file uses centimeters as units for non-parametric coordinates.

mtllib LitwickBFlame.mtl
g default1
v 0.391056 0.017133 0.391056
v 0.553037 0.017133 0.000000
v 0.391056 0.017133 -0.391056
v 0.000000 0.017133 -0.553037
v -0.391056 0.017133 -0.391056
v -0.553037 0.017133 0.000000
v -0.391056 0.017133 0.391056
v 0.000000 0.017133 0.553037
v 0.722577 0.345870 0.722577
v 1.021879 0.345870 0.000000
v 0.722577 0.345870 -0.722577
v 0.000000 0.345870 -1.021879
v -0.722577 0.345870 -0.722577
v -1.021879 0.345870 0.000000
v -0.722577 0.345870 0.722577
v 0.000000 0.345870 1.021879
v 0.944093 0.837861 0.944093
v 1.335149 0.837861 0.000000
v 0.944093 0.837861 -0.944093
v 0.000000 0.837861 -1.335149
v -0.944093 0.837861 -0.944093
v -1.335149 0.837861 0.000000
v -0.944093 0.837861 0.944093
v 0.000000 0.837861 1.335149
v 0.982050 1.425667 0.982050
v 1.388828 1.425667 0.000000
v 0.982050 1.425667 -0.982050
v 0.000000 1.425667 -1.388828
v -0.982050 1.425667 -0.982050
v -1.388828 1.425667 0.000000
v -0.982050 1.425667 0.982050
v 0.000000 1.425667 1.388828
v 0.817585 2.706788 0.817585
v 1.156240 2.706788 0.000000
v 0.817585 2.706788 -0.817585
v 0.000000 2.706788 -1.156240
v -0.817585 2.706788 -0.817585
v -1.156241 2.706788 0.000000
v -0.817585 2.706788 0.817585
v 0.000000 2.706788 1.156241
v 0.571360 3.931567 0.571360
v 0.808025 3.931567 0.000000
v 0.571360 3.931567 -0.571360
v 0.000000 3.931567 -0.808025
v -0.571360 3.931567 -0.571360
v -0.808025 3.931567 0.000000
v -0.571360 3.931567 0.571360
v 0.000000 3.931567 0.808025
v 0.309218 5.025631 0.309218
v 0.437300 5.025631 0.000000
v 0.309218 5.025631 -0.309218
v 0.000000 5.025631 -0.437300
v -0.309218 5.025631 -0.309218
v -0.437300 5.025631 0.000000
v -0.309218 5.025631 0.309218
v 0.000000 5.025631 0.437300
v 0.000000 -0.098305 0.000000
v 0.000000 5.893435 0.000000
vt 0.820660 0.059540
vt 0.837440 0.059540
vt 0.855003 0.093594
vt 0.886008 0.093594
vt 0.820660 0.059540
vt 0.855003 0.093594
vt 0.780149 0.059540
vt 0.780149 0.093594
vt 0.739639 0.059540
vt 0.705296 0.093594
vt 0.722859 0.059540
vt 0.674291 0.093594
vt 0.739639 0.059540
vt 0.705296 0.093594
vt 0.780149 0.059540
vt 0.780149 0.093594
vt 0.877950 0.144561
vt 0.918460 0.144561
vt 0.877950 0.144561
vt 0.780149 0.144561
vt 0.682349 0.144561
vt 0.641838 0.144561
vt 0.682349 0.144561
vt 0.780149 0.144561
vt 0.881882 0.205453
vt 0.924021 0.205453
vt 0.881882 0.205453
vt 0.780149 0.205453
vt 0.678417 0.205453
vt 0.636278 0.205453
vt 0.678417 0.205453
vt 0.780149 0.205453
vt 0.864845 0.338167
vt 0.899927 0.338167
vt 0.864845 0.338167
vt 0.780149 0.338167
vt 0.695454 0.338167
vt 0.660372 0.338167
vt 0.695454 0.338167
vt 0.780149 0.338167
vt 0.839338 0.465044
vt 0.863855 0.465044
vt 0.839338 0.465044
vt 0.780149 0.465044
vt 0.720961 0.465044
vt 0.696444 0.465044
vt 0.720961 0.465044
vt 0.780149 0.465044
vt 0.812182 0.578381
vt 0.825450 0.578381
vt 0.812182 0.578381
vt 0.780149 0.578381
vt 0.748117 0.578381
vt 0.734849 0.578381
vt 0.748117 0.578381
vt 0.780149 0.578381
vt 0.780149 0.047581
vt 0.780149 0.668279
vn 0.558530 -0.796569 0.231350
vn 0.558530 -0.796569 0.231350
vn 0.558530 -0.796569 0.231350
vn 0.558530 -0.796569 0.231350
vn 0.558530 -0.796569 0.231350
vn 0.558530 -0.796569 0.231350
vn 0.558529 -0.796569 -0.231351
vn 0.558529 -0.796569 -0.231351
vn 0.558529 -0.796569 -0.231351
vn 0.558529 -0.796569 -0.231351
vn 0.558529 -0.796569 -0.231351
vn 0.558529 -0.796569 -0.231351
vn 0.231350 -0.796569 -0.558529
vn 0.231350 -0.796569 -0.558529
vn 0.231350 -0.796569 -0.558529
vn 0.231350 -0.796569 -0.558529
vn 0.231350 -0.796569 -0.558529
vn 0.231350 -0.796569 -0.558529
vn -0.231351 -0.796569 -0.558529
vn -0.231351 -0.796569 -0.558529
vn -0.231351 -0.796569 -0.558529
vn -0.231351 -0.796569 -0.558529
vn -0.231351 -0.796569 -0.558529
vn -0.231351 -0.796569 -0.558529
vn -0.558530 -0.796569 -0.231350
vn -0.558530 -0.796569 -0.231350
vn -0.558530 -0.796569 -0.231350
vn -0.558530 -0.796569 -0.231350
vn -0.558530 -0.796569 -0.231350
vn -0.558530 -0.796569 -0.231350
vn -0.558529 -0.796569 0.231351
vn -0.558529 -0.796569 0.231351
vn -0.558529 -0.796569 0.231351
vn -0.558529 -0.796569 0.231351
vn -0.558529 -0.796569 0.231351
vn -0.558529 -0.796569 0.231351
vn -0.231352 -0.796569 0.558529
vn -0.231352 -0.796569 0.558529
vn -0.231352 -0.796569 0.558529
vn -0.231352 -0.796569 0.558529
vn -0.231352 -0.796569 0.558529
vn -0.231352 -0.796569 0.558529
vn 0.231351 -0.796569 0.558529
vn 0.231351 -0.796569 0.558529
vn 0.231351 -0.796569 0.558529
vn 0.231351 -0.796569 0.558529
vn 0.231351 -0.796569 0.558529
vn 0.231351 -0.796569 0.558529
vn 0.796311 -0.507043 0.329843
vn 0.796311 -0.507043 0.329843
vn 0.796311 -0.507043 0.329843
vn 0.796311 -0.507043 0.329843
vn 0.796311 -0.507043 0.329843
vn 0.796311 -0.507043 0.329843
vn 0.796311 -0.507043 -0.329843
vn 0.796311 -0.507043 -0.329843
vn 0.796311 -0.507043 -0.329843
vn 0.796311 -0.507043 -0.329843
vn 0.796311 -0.507043 -0.329843
vn 0.796311 -0.507043 -0.329843
vn 0.329843 -0.507043 -0.796311
vn 0.329843 -0.507043 -0.796311
vn 0.329843 -0.507043 -0.796311
vn 0.329843 -0.507043 -0.796311
vn 0.329843 -0.507043 -0.796311
vn 0.329843 -0.507043 -0.796311
vn -0.329843 -0.507043 -0.796311
vn -0.329843 -0.507043 -0.796311
vn -0.329843 -0.507043 -0.796311
vn -0.329843 -0.507043 -0.796311
vn -0.329843 -0.507043 -0.796311
vn -0.329843 -0.507043 -0.796311
vn -0.796311 -0.507043 -0.329843
vn -0.796311 -0.507043 -0.329843
vn -0.796311 -0.507043 -0.329843
vn -0.796311 -0.507043 -0.329843
vn -0.796311 -0.507043 -0.329843
vn -0.796311 -0.507043 -0.329843
vn -0.796311 -0.507043 0.329843
vn -0.796311 -0.507043 0.329843
vn -0.796311 -0.507043 0.329843
vn -0.796311 -0.507043 0.329843
vn -0.796311 -0.507043 0.329843
vn -0.796311 -0.507043 0.329843
vn -0.329843 -0.507043 0.796311
vn -0.329843 -0.507043 0.796311
vn -0.329843 -0.507043 0.796311
vn -0.329843 -0.507043 0.796311
vn -0.329843 -0.507043 0.796311
vn -0.329843 -0.507043 0.796311
vn 0.329843 -0.507043 0.796311
vn 0.329843 -0.507043 0.796311
vn 0.329843 -0.507043 0.796311
vn 0.329843 -0.507043 0.796311
vn 0.329843 -0.507043 0.796311
vn 0.329843 -0.507043 0.796311
vn 0.920609 -0.084072 0.381328
vn 0.920609 -0.084072 0.381328
vn 0.920609 -0.084072 0.381328
vn 0.920609 -0.084072 0.381328
vn 0.920609 -0.084072 0.381328
vn 0.920609 -0.084072 0.381328
vn 0.920609 -0.084071 -0.381328
vn 0.920609 -0.084071 -0.381328
vn 0.920609 -0.084071 -0.381328
vn 0.920609 -0.084071 -0.381328
vn 0.920609 -0.084071 -0.381328
vn 0.920609 -0.084071 -0.381328
vn 0.381329 -0.084071 -0.920609
vn 0.381329 -0.084071 -0.920609
vn 0.381329 -0.084071 -0.920609
vn 0.381329 -0.084071 -0.920609
vn 0.381329 -0.084071 -0.920609
vn 0.381329 -0.084071 -0.920609
vn -0.381329 -0.084071 -0.920609
vn -0.381329 -0.084071 -0.920609
vn -0.381329 -0.084071 -0.920609
vn -0.381329 -0.084071 -0.920609
vn -0.381329 -0.084071 -0.920609
vn -0.381329 -0.084071 -0.920609
vn -0.920609 -0.084072 -0.381328
vn -0.920609 -0.084072 -0.381328
vn -0.920609 -0.084072 -0.381328
vn -0.920609 -0.084072 -0.381328
vn -0.920609 -0.084072 -0.381328
vn -0.920609 -0.084072 -0.381328
vn -0.920609 -0.084071 0.381328
vn -0.920609 -0.084071 0.381328
vn -0.920609 -0.084071 0.381328
vn -0.920609 -0.084071 0.381328
vn -0.920609 -0.084071 0.381328
vn -0.920609 -0.084071 0.381328
vn -0.381329 -0.084071 0.920609
vn -0.381329 -0.084071 0.920609
vn -0.381329 -0.084071 0.920609
vn -0.381329 -0.084071 0.920609
vn -0.381329 -0.084071 0.920609
vn -0.381329 -0.084071 0.920609
vn 0.381329 -0.084071 0.920609
vn 0.381329 -0.084071 0.920609
vn 0.381329 -0.084071 0.920609
vn 0.381329 -0.084071 0.920609
vn 0.381329 -0.084071 0.920609
vn 0.381329 -0.084071 0.920609
vn 0.911152 0.165420 0.377411
vn 0.911152 0.165420 0.377411
vn 0.911152 0.165420 0.377411
vn 0.911152 0.165420 0.377411
vn 0.911152 0.165420 0.377411
vn 0.911152 0.165420 0.377411
vn 0.911152 0.165420 -0.377411
vn 0.911152 0.165420 -0.377411
vn 0.911152 0.165420 -0.377411
vn 0.911152 0.165420 -0.377411
vn 0.911152 0.165420 -0.377411
vn 0.911152 0.165420 -0.377411
vn 0.377411 0.165420 -0.911152
vn 0.377411 0.165420 -0.911152
vn 0.377411 0.165420 -0.911152
vn 0.377411 0.165420 -0.911152
vn 0.377411 0.165420 -0.911152
vn 0.377411 0.165420 -0.911152
vn -0.377411 0.165420 -0.911152
vn -0.377411 0.165420 -0.911152
vn -0.377411 0.165420 -0.911152
vn -0.377411 0.165420 -0.911152
vn -0.377411 0.165420 -0.911152
vn -0.377411 0.165420 -0.911152
vn -0.911151 0.165420 -0.377412
vn -0.911151 0.165420 -0.377412
vn -0.911151 0.165420 -0.377411
vn -0.911151 0.165420 -0.377411
vn -0.911151 0.165420 -0.377412
vn -0.911151 0.165420 -0.377411
vn -0.911151 0.165420 0.377411
vn -0.911151 0.165420 0.377411
vn -0.911151 0.165420 0.377411
vn -0.911151 0.165420 0.377411
vn -0.911151 0.165420 0.377411
vn -0.911151 0.165420 0.377411
vn -0.377411 0.165420 0.911152
vn -0.377411 0.165420 0.911152
vn -0.377411 0.165420 0.911152
vn -0.377411 0.165420 0.911152
vn -0.377411 0.165420 0.911152
vn -0.377411 0.165420 0.911152
vn 0.377411 0.165420 0.911152
vn 0.377411 0.165420 0.911152
vn 0.377411 0.165420 0.911152
vn 0.377411 0.165420 0.911152
vn 0.377411 0.165420 0.911152
vn 0.377411 0.165420 0.911152
vn 0.893568 0.254049 0.370128
vn 0.893568 0.254049 0.370128
vn 0.893568 0.254049 0.370128
vn 0.893568 0.254049 0.370128
vn 0.893568 0.254049 0.370128
vn 0.893568 0.254049 0.370128
vn 0.893568 0.254049 -0.370128
vn 0.893568 0.254049 -0.370128
vn 0.893568 0.254049 -0.370128
vn 0.893568 0.254049 -0.370128
vn 0.893568 0.254049 -0.370128
vn 0.893568 0.254049 -0.370128
vn 0.370128 0.254049 -0.893568
vn 0.370128 0.254049 -0.893568
vn 0.370128 0.254049 -0.893568
vn 0.370128 0.254049 -0.893568
vn 0.370128 0.254049 -0.893568
vn 0.370128 0.254049 -0.893568
vn -0.370128 0.254049 -0.893568
vn -0.370128 0.254049 -0.893568
vn -0.370128 0.254049 -0.893568
vn -0.370128 0.254049 -0.893568
vn -0.370128 0.254049 -0.893568
vn -0.370128 0.254049 -0.893568
vn -0.893568 0.254049 -0.370128
vn -0.893568 0.254049 -0.370128
vn -0.893568 0.254049 -0.370128
vn -0.893568 0.254049 -0.370128
vn -0.893568 0.254049 -0.370128
vn -0.893568 0.254049 -0.370128
vn -0.893568 0.254049 0.370128
vn -0.893568 0.254049 0.370128
vn -0.893568 0.254049 0.370128
vn -0.893568 0.254049 0.370128
vn -0.893568 0.254049 0.370128
vn -0.893568 0.254049 0.370128
vn -0.370128 0.254049 0.893568
vn -0.370128 0.254049 0.893568
vn -0.370128 0.254049 0.893568
vn -0.370128 0.254049 0.893568
vn -0.370128 0.254049 0.893568
vn -0.370128 0.254049 0.893568
vn 0.370128 0.254049 0.893568
vn 0.370128 0.254049 0.893568
vn 0.370128 0.254049 0.893568
vn 0.370128 0.254049 0.893568
vn 0.370128 0.254049 0.893568
vn 0.370128 0.254049 0.893568
vn 0.881684 0.298760 0.365206
vn 0.881684 0.298760 0.365206
vn 0.881684 0.298760 0.365206
vn 0.881684 0.298760 0.365206
vn 0.881684 0.298760 0.365206
vn 0.881684 0.298760 0.365206
vn 0.881685 0.298760 -0.365205
vn 0.881685 0.298760 -0.365205
vn 0.881685 0.298760 -0.365205
vn 0.881685 0.298760 -0.365205
vn 0.881685 0.298760 -0.365205
vn 0.881685 0.298760 -0.365205
vn 0.365206 0.298760 -0.881684
vn 0.365206 0.298760 -0.881684
vn 0.365206 0.298760 -0.881684
vn 0.365206 0.298760 -0.881684
vn 0.365206 0.298760 -0.881684
vn 0.365206 0.298760 -0.881684
vn -0.365206 0.298760 -0.881684
vn -0.365206 0.298760 -0.881684
vn -0.365206 0.298760 -0.881684
vn -0.365206 0.298760 -0.881684
vn -0.365206 0.298760 -0.881684
vn -0.365206 0.298760 -0.881684
vn -0.881685 0.298760 -0.365205
vn -0.881685 0.298760 -0.365205
vn -0.881685 0.298760 -0.365205
vn -0.881685 0.298760 -0.365205
vn -0.881685 0.298760 -0.365205
vn -0.881685 0.298760 -0.365205
vn -0.881684 0.298760 0.365206
vn -0.881684 0.298760 0.365206
vn -0.881684 0.298760 0.365206
vn -0.881684 0.298760 0.365206
vn -0.881684 0.298760 0.365206
vn -0.881684 0.298760 0.365206
vn -0.365206 0.298760 0.881684
vn -0.365206 0.298760 0.881684
vn -0.365206 0.298760 0.881684
vn -0.365206 0.298760 0.881684
vn -0.365206 0.298760 0.881684
vn -0.365206 0.298760 0.881684
vn 0.365206 0.298760 0.881684
vn 0.365206 0.298760 0.881684
vn 0.365206 0.298760 0.881684
vn 0.365206 0.298760 0.881684
vn 0.365206 0.298760 0.881684
vn 0.365206 0.298760 0.881684
vn 0.203601 -0.975415 0.084335
vn 0.203601 -0.975415 0.084335
vn 0.203601 -0.975415 0.084335
vn 0.203601 -0.975415 -0.084335
vn 0.203601 -0.975415 -0.084335
vn 0.203601 -0.975415 -0.084335
vn 0.084337 -0.975415 -0.203602
vn 0.084337 -0.975415 -0.203602
vn 0.084337 -0.975415 -0.203602
vn -0.084337 -0.975415 -0.203602
vn -0.084337 -0.975415 -0.203602
vn -0.084337 -0.975415 -0.203602
vn -0.203601 -0.975415 -0.084335
vn -0.203601 -0.975415 -0.084335
vn -0.203601 -0.975415 -0.084335
vn -0.203603 -0.975415 0.084335
vn -0.203603 -0.975415 0.084335
vn -0.203603 -0.975415 0.084335
vn -0.084335 -0.975415 0.203602
vn -0.084335 -0.975415 0.203602
vn -0.084335 -0.975415 0.203602
vn 0.084337 -0.975415 0.203602
vn 0.084337 -0.975415 0.203602
vn 0.084337 -0.975415 0.203602
vn 0.837560 0.422060 0.346929
vn 0.837560 0.422060 0.346929
vn 0.837560 0.422060 0.346929
vn 0.837559 0.422060 -0.346929
vn 0.837559 0.422060 -0.346929
vn 0.837559 0.422060 -0.346929
vn 0.346928 0.422060 -0.837560
vn 0.346928 0.422060 -0.837560
vn 0.346928 0.422060 -0.837560
vn -0.346927 0.422060 -0.837560
vn -0.346927 0.422060 -0.837560
vn -0.346927 0.422060 -0.837560
vn -0.837559 0.422060 -0.346929
vn -0.837559 0.422060 -0.346929
vn -0.837559 0.422060 -0.346929
vn -0.837560 0.422060 0.346929
vn -0.837560 0.422060 0.346929
vn -0.837560 0.422060 0.346929
vn -0.346927 0.422060 0.837560
vn -0.346927 0.422060 0.837560
vn -0.346927 0.422060 0.837560
vn 0.346927 0.422060 0.837560
vn 0.346927 0.422060 0.837560
vn 0.346927 0.422060 0.837560
s off
g polySurface3
usemtl None
f 1/1/1 2/2/2 9/3/3
f 9/3/4 2/2/5 10/4/6
f 2/2/7 3/5/8 10/4/9
f 10/4/10 3/5/11 11/6/12
f 3/5/13 4/7/14 11/6/15
f 11/6/16 4/7/17 12/8/18
f 4/7/19 5/9/20 12/8/21
f 12/8/22 5/9/23 13/10/24
f 5/9/25 6/11/26 13/10/27
f 13/10/28 6/11/29 14/12/30
f 6/11/31 7/13/32 14/12/33
f 14/12/34 7/13/35 15/14/36
f 7/13/37 8/15/38 15/14/39
f 15/14/40 8/15/41 16/16/42
f 8/15/43 1/1/44 16/16/45
f 16/16/46 1/1/47 9/3/48
f 9/3/49 10/4/50 17/17/51
f 17/17/52 10/4/53 18/18/54
f 10/4/55 11/6/56 18/18/57
f 18/18/58 11/6/59 19/19/60
f 11/6/61 12/8/62 19/19/63
f 19/19/64 12/8/65 20/20/66
f 12/8/67 13/10/68 20/20/69
f 20/20/70 13/10/71 21/21/72
f 13/10/73 14/12/74 21/21/75
f 21/21/76 14/12/77 22/22/78
f 14/12/79 15/14/80 22/22/81
f 22/22/82 15/14/83 23/23/84
f 15/14/85 16/16/86 23/23/87
f 23/23/88 16/16/89 24/24/90
f 16/16/91 9/3/92 24/24/93
f 24/24/94 9/3/95 17/17/96
f 17/17/97 18/18/98 25/25/99
f 25/25/100 18/18/101 26/26/102
f 18/18/103 19/19/104 26/26/105
f 26/26/106 19/19/107 27/27/108
f 19/19/109 20/20/110 27/27/111
f 27/27/112 20/20/113 28/28/114
f 20/20/115 21/21/116 28/28/117
f 28/28/118 21/21/119 29/29/120
f 21/21/121 22/22/122 29/29/123
f 29/29/124 22/22/125 30/30/126
f 22/22/127 23/23/128 30/30/129
f 30/30/130 23/23/131 31/31/132
f 23/23/133 24/24/134 31/31/135
f 31/31/136 24/24/137 32/32/138
f 24/24/139 17/17/140 32/32/141
f 32/32/142 17/17/143 25/25/144
f 25/25/145 26/26/146 33/33/147
f 33/33/148 26/26/149 34/34/150
f 26/26/151 27/27/152 34/34/153
f 34/34/154 27/27/155 35/35/156
f 27/27/157 28/28/158 35/35/159
f 35/35/160 28/28/161 36/36/162
f 28/28/163 29/29/164 36/36/165
f 36/36/166 29/29/167 37/37/168
f 29/29/169 30/30/170 37/37/171
f 37/37/172 30/30/173 38/38/174
f 30/30/175 31/31/176 38/38/177
f 38/38/178 31/31/179 39/39/180
f 31/31/181 32/32/182 39/39/183
f 39/39/184 32/32/185 40/40/186
f 32/32/187 25/25/188 40/40/189
f 40/40/190 25/25/191 33/33/192
f 33/33/193 34/34/194 41/41/195
f 41/41/196 34/34/197 42/42/198
f 34/34/199 35/35/200 42/42/201
f 42/42/202 35/35/203 43/43/204
f 35/35/205 36/36/206 43/43/207
f 43/43/208 36/36/209 44/44/210
f 36/36/211 37/37/212 44/44/213
f 44/44/214 37/37/215 45/45/216
f 37/37/217 38/38/218 45/45/219
f 45/45/220 38/38/221 46/46/222
f 38/38/223 39/39/224 46/46/225
f 46/46/226 39/39/227 47/47/228
f 39/39/229 40/40/230 47/47/231
f 47/47/232 40/40/233 48/48/234
f 40/40/235 33/33/236 48/48/237
f 48/48/238 33/33/239 41/41/240
f 41/41/241 42/42/242 49/49/243
f 49/49/244 42/42/245 50/50/246
f 42/42/247 43/43/248 50/50/249
f 50/50/250 43/43/251 51/51/252
f 43/43/253 44/44/254 51/51/255
f 51/51/256 44/44/257 52/52/258
f 44/44/259 45/45/260 52/52/261
f 52/52/262 45/45/263 53/53/264
f 45/45/265 46/46/266 53/53/267
f 53/53/268 46/46/269 54/54/270
f 46/46/271 47/47/272 54/54/273
f 54/54/274 47/47/275 55/55/276
f 47/47/277 48/48/278 55/55/279
f 55/55/280 48/48/281 56/56/282
f 48/48/283 41/41/284 56/56/285
f 56/56/286 41/41/287 49/49/288
f 2/2/289 1/1/290 57/57/291
f 3/5/292 2/2/293 57/57/294
f 4/7/295 3/5/296 57/57/297
f 5/9/298 4/7/299 57/57/300
f 6/11/301 5/9/302 57/57/303
f 7/13/304 6/11/305 57/57/306
f 8/15/307 7/13/308 57/57/309
f 1/1/310 8/15/311 57/57/312
f 49/49/313 50/50/314 58/58/315
f 50/50/316 51/51/317 58/58/318
f 51/51/319 52/52/320 58/58/321
f 52/52/322 53/53/323 58/58/324
f 53/53/325 54/54/326 58/58/327
f 54/54/328 55/55/329 58/58/330
f 55/55/331 56/56/332 58/58/333
f 56/56/334 49/49/335 58/58/336
