# This file uses centimeters as units for non-parametric coordinates.

mtllib GolettHead.mtl
g default
v 1.670601 0.100759 1.060366
v 1.670602 0.100759 -0.625439
v 0.000000 0.100759 -1.468341
v -1.670601 0.100759 -0.625439
v -1.670601 0.100759 1.060365
v 0.000000 0.100759 1.686894
v 2.037281 1.808522 1.142375
v 2.037281 1.554653 -0.707448
v 0.000000 1.490358 -1.632361
v -2.037281 1.554653 -0.707449
v -2.037281 1.808522 1.142375
v 0.000000 2.114805 1.941860
v 0.000000 -0.369243 0.258493
v 1.527961 2.046089 1.549883
v -1.527961 2.046089 1.549882
v 1.252951 0.100759 1.271091
v -1.252951 0.100759 1.271091
v 0.000000 2.247946 -0.962663
v -0.738355 2.302680 -0.551159
v -1.216048 2.433582 0.186259
v 0.738356 2.302680 -0.551159
v 1.216048 2.433582 0.186259
v -0.442857 1.698741 1.769618
v -1.039689 1.674666 1.611789
v -0.916059 0.498345 1.448251
v -0.401646 0.501780 1.613216
v 0.264611 0.485261 1.665009
v 1.055379 0.479985 1.411422
v 0.271654 0.895895 1.717824
v 0.688149 0.887976 1.592861
v 1.203193 1.680220 1.580847
v 0.744460 1.698687 1.702152
v -0.446734 1.668813 1.185805
v -1.028837 1.632378 1.204653
v -0.919768 0.517028 1.197135
v -0.408871 0.535423 1.209164
v 1.050702 0.484545 1.212162
v 0.275165 0.509143 1.220658
v 0.287246 0.874896 1.210623
v 1.166168 1.681086 1.214832
v 0.742399 1.701787 1.200073
v 0.699712 0.871729 1.219898
v 1.468879 -0.341900 -0.482629
v 0.000000 -0.341900 -1.223753
v 1.468878 -0.341900 0.999617
v -1.468878 -0.341900 -0.482630
v -1.468878 -0.341900 0.999615
v 0.000000 -0.341900 1.550493
v 0.249803 3.232724 -1.075946
v 0.000000 3.228882 -1.205836
v -0.249803 3.232724 -1.075947
v 0.365503 3.262768 -0.911569
v -0.365503 3.262768 -0.911569
v 0.294161 3.382847 -0.780156
v -0.294161 3.382847 -0.780156
v 0.000000 3.479950 -0.733678
v 0.000000 3.354418 -0.969756
vt 0.620611 0.007869
vt 0.620611 0.061712
vt 0.548704 0.065528
vt 0.534501 0.009515
vt 0.835678 0.450236
vt 0.713694 0.412639
vt 0.790803 0.374684
vt 0.835678 0.392568
vt 0.755660 0.338190
vt 0.679940 0.311647
vt 0.692518 0.065528
vt 0.706720 0.009515
vt 0.880553 0.374684
vt 0.957662 0.412639
vt 0.951008 0.603423
vt 0.913687 0.586029
vt 0.921704 0.579394
vt 0.950950 0.592995
vt 0.988225 0.585561
vt 0.980101 0.579004
vt 0.486789 0.084895
vt 0.463690 0.021696
vt 0.994260 0.548242
vt 0.983125 0.548052
vt 0.754434 0.084895
vt 0.777533 0.021696
vt 0.950751 0.562887
vt 0.852866 0.333733
vt 0.906979 0.338689
vt 0.835717 0.379547
vt 0.835717 0.338852
vt 0.915696 0.338190
vt 0.991416 0.311647
vt 0.764456 0.338689
vt 0.818569 0.333733
vt 0.744829 0.263158
vt 0.811416 0.323016
vt 0.860019 0.323017
vt 0.926605 0.263158
vt 0.835717 0.324117
vt 0.854621 0.311603
vt 0.907161 0.549005
vt 0.918228 0.548634
vt 0.950505 0.534921
vt 0.950570 0.031065
vt 0.963914 0.007100
vt 0.973362 0.029287
vt 0.610523 0.453131
vt 0.635060 0.453186
vt 0.633299 0.517418
vt 0.604105 0.514338
vt 0.602140 0.438527
vt 0.650596 0.438968
vt 0.835717 0.318669
vt 0.816814 0.311604
vt 0.592520 0.536047
vt 0.809134 0.006543
vt 0.822292 0.030614
vt 0.799525 0.028638
vt 0.699595 0.277280
vt 0.808870 0.126873
vt 0.778432 0.111785
vt 0.728942 0.168621
vt 0.647172 0.539893
vt 0.833498 0.109464
vt 0.839518 0.051329
vt 0.886417 0.034097
vt 0.886498 0.011443
vt 0.971761 0.277280
vt 0.963203 0.127460
vt 0.993766 0.112629
vt 0.942492 0.168621
vt 0.946870 0.109928
vt 0.940114 0.050504
vt 0.899725 0.052613
vt 0.865825 0.052898
vt 0.732304 0.433625
vt 0.748002 0.530131
vt 0.732971 0.512290
vt 0.722748 0.444814
vt 0.684099 0.441473
vt 0.662701 0.425638
vt 0.835717 0.135152
vt 0.863657 0.111901
vt 0.886028 0.133285
vt 0.899962 0.072852
vt 0.923671 0.111630
vt 0.675510 0.460703
vt 0.650951 0.457856
vt 0.695973 0.473789
vt 0.711352 0.519043
vt 0.670377 0.487861
vt 0.709488 0.543616
vt 0.921209 0.071661
vn -0.428434 -0.132583 -0.893793
vn -0.428434 -0.132583 -0.893793
vn -0.428434 -0.132583 -0.893793
vn -0.428434 -0.132583 -0.893793
vn -0.307750 0.647811 -0.696872
vn -0.307750 0.647811 -0.696872
vn -0.307750 0.647811 -0.696872
vn -0.307750 0.647811 -0.696872
vn -0.673991 0.731879 -0.100443
vn -0.673991 0.731879 -0.100443
vn -0.673991 0.731879 -0.100443
vn -0.416501 0.809643 -0.413527
vn -0.416501 0.809643 -0.413527
vn -0.416501 0.809643 -0.413527
vn 0.428434 -0.132582 -0.893793
vn 0.428434 -0.132582 -0.893793
vn 0.428434 -0.132582 -0.893793
vn 0.428434 -0.132582 -0.893793
vn 0.307751 0.647810 -0.696872
vn 0.307751 0.647810 -0.696872
vn 0.307751 0.647810 -0.696872
vn 0.307751 0.647810 -0.696872
vn 0.403980 -0.442408 -0.800672
vn 0.403980 -0.442408 -0.800672
vn 0.403980 -0.442408 -0.800672
vn 0.403980 -0.442408 -0.800672
vn -0.403980 -0.442407 -0.800672
vn -0.403980 -0.442407 -0.800672
vn -0.403980 -0.442407 -0.800672
vn -0.403980 -0.442407 -0.800672
vn -0.974010 -0.225926 0.016222
vn -0.974010 -0.225926 0.016222
vn -0.974010 -0.225926 0.016222
vn -0.974010 -0.225926 0.016222
vn -0.909967 -0.414680 0.000000
vn -0.909967 -0.414680 0.000000
vn -0.909967 -0.414680 0.000000
vn -0.909967 -0.414680 0.000000
vn 0.974010 -0.225925 0.016222
vn 0.974010 -0.225925 0.016222
vn 0.974010 -0.225925 0.016222
vn 0.974010 -0.225925 0.016222
vn 0.009305 -0.999787 -0.018443
vn 0.009305 -0.999787 -0.018443
vn 0.009305 -0.999787 -0.018443
vn -0.009305 -0.999787 -0.018444
vn -0.009305 -0.999787 -0.018444
vn -0.009305 -0.999787 -0.018444
vn -0.018612 -0.999827 0.000000
vn -0.018612 -0.999827 0.000000
vn -0.018612 -0.999827 0.000000
vn 0.478765 -0.219239 -0.850128
vn 0.478765 -0.219239 -0.850128
vn 0.478765 -0.219239 -0.850128
vn 0.478765 -0.219239 -0.850128
vn 0.673991 0.731879 -0.100443
vn 0.673991 0.731879 -0.100443
vn 0.673991 0.731879 -0.100443
vn 0.416502 0.809643 -0.413528
vn 0.416502 0.809643 -0.413528
vn 0.416502 0.809643 -0.413528
vn -0.478765 -0.219240 -0.850128
vn -0.478765 -0.219240 -0.850128
vn -0.478765 -0.219240 -0.850128
vn -0.478765 -0.219240 -0.850128
vn -0.821385 0.108804 -0.559900
vn -0.821385 0.108804 -0.559900
vn -0.821385 0.108804 -0.559900
vn -0.821385 0.108804 -0.559900
vn 0.821385 0.108805 -0.559900
vn 0.821385 0.108805 -0.559900
vn 0.821385 0.108805 -0.559900
vn 0.821385 0.108805 -0.559900
vn 0.284319 0.779603 -0.558016
vn 0.284319 0.779603 -0.558016
vn 0.284319 0.779603 -0.558016
vn 0.224652 0.860361 -0.457505
vn 0.224652 0.860361 -0.457505
vn 0.224652 0.860361 -0.457505
vn -0.224650 0.860361 -0.457505
vn -0.224650 0.860361 -0.457505
vn -0.224650 0.860361 -0.457505
vn 0.280432 0.889800 -0.360019
vn 0.280432 0.889800 -0.360019
vn 0.280432 0.889800 -0.360019
vn -0.280430 0.889799 -0.360024
vn -0.280430 0.889799 -0.360024
vn -0.280430 0.889799 -0.360024
vn 0.909967 -0.414680 0.000001
vn 0.909967 -0.414680 0.000001
vn 0.909967 -0.414680 0.000001
vn 0.909967 -0.414680 0.000001
vn 0.018612 -0.999827 0.000000
vn 0.018612 -0.999827 0.000000
vn 0.018612 -0.999827 0.000000
vn -0.007935 -0.999745 0.021159
vn -0.007935 -0.999745 0.021159
vn -0.007935 -0.999745 0.021159
vn 0.007935 -0.999745 0.021159
vn 0.007935 -0.999745 0.021159
vn 0.007935 -0.999745 0.021159
vn 0.428048 -0.311493 0.848379
vn 0.428048 -0.311493 0.848379
vn 0.428048 -0.311493 0.848379
vn 0.005866 0.007427 0.999955
vn 0.005866 0.007427 0.999955
vn 0.005866 0.007427 0.999955
vn 0.005866 0.007427 0.999955
vn -0.035044 0.996167 0.080145
vn -0.035044 0.996167 0.080145
vn -0.035044 0.996167 0.080145
vn -0.035044 0.996167 0.080145
vn 0.212324 0.862804 -0.458789
vn 0.212324 0.862804 -0.458789
vn 0.212324 0.862804 -0.458789
vn -0.212324 0.862804 -0.458789
vn -0.212324 0.862804 -0.458789
vn -0.212324 0.862804 -0.458789
vn -0.284322 0.779608 -0.558007
vn -0.284322 0.779608 -0.558007
vn -0.284322 0.779608 -0.558007
vn 0.994912 0.100488 0.007193
vn 0.994912 0.100488 0.007193
vn 0.994912 0.100488 0.007193
vn 0.994912 0.100488 0.007193
vn -0.428049 -0.311495 0.848378
vn -0.428049 -0.311495 0.848378
vn -0.428049 -0.311495 0.848378
vn -0.501704 0.855467 0.128334
vn -0.501704 0.855467 0.128334
vn -0.501704 0.855467 0.128334
vn -0.569707 -0.161026 0.805919
vn -0.569707 -0.161026 0.805919
vn -0.569707 -0.161026 0.805919
vn -0.711643 0.702453 0.011134
vn -0.711643 0.702453 0.011134
vn -0.711643 0.702453 0.011134
vn -0.711643 0.702453 0.011134
vn -0.442411 -0.188206 0.876841
vn -0.442411 -0.188206 0.876841
vn -0.442411 -0.188206 0.876841
vn -0.999342 -0.034544 0.011101
vn -0.999342 -0.034544 0.011101
vn -0.999342 -0.034544 0.011101
vn -0.999342 -0.034544 0.011101
vn 0.042547 -0.996430 0.072918
vn 0.042547 -0.996430 0.072918
vn 0.042547 -0.996430 0.072918
vn 0.042547 -0.996430 0.072918
vn -0.269346 -0.168745 0.948144
vn -0.269346 -0.168745 0.948144
vn -0.269346 -0.168745 0.948144
vn -0.269346 -0.168745 0.948144
vn 0.315640 -0.332464 0.888729
vn 0.315640 -0.332464 0.888729
vn 0.315640 -0.332464 0.888729
vn 0.315640 -0.332464 0.888729
vn 0.501704 0.855467 0.128335
vn 0.501704 0.855467 0.128335
vn 0.501704 0.855467 0.128335
vn 0.569708 -0.161025 0.805918
vn 0.569708 -0.161025 0.805918
vn 0.569708 -0.161025 0.805918
vn 0.442411 -0.188207 0.876841
vn 0.442411 -0.188207 0.876841
vn 0.442411 -0.188207 0.876841
vn 0.711643 0.702453 0.011134
vn 0.711643 0.702453 0.011134
vn 0.711643 0.702453 0.011134
vn 0.711643 0.702453 0.011134
vn 0.302818 -0.174218 0.936990
vn 0.302818 -0.174218 0.936990
vn 0.302818 -0.174218 0.936990
vn 0.302818 -0.174218 0.936990
vn 0.306219 -0.172086 0.936278
vn 0.306219 -0.172086 0.936278
vn 0.306219 -0.172086 0.936278
vn 0.306219 -0.172086 0.936278
vn -0.315640 -0.332465 0.888728
vn -0.315640 -0.332465 0.888728
vn -0.315640 -0.332465 0.888728
vn -0.315640 -0.332465 0.888728
vn -0.308544 -0.146797 0.939814
vn -0.308544 -0.146797 0.939814
vn -0.308544 -0.146797 0.939814
vn -0.308544 -0.146797 0.939814
vn -0.754120 0.651484 0.082896
vn -0.754120 0.651484 0.082896
vn -0.754120 0.651484 0.082896
vn -0.754120 0.651484 0.082896
vn -0.754120 0.651484 0.082896
vn -0.754120 0.651484 0.082896
vn 0.184165 0.883195 0.431336
vn 0.184165 0.883195 0.431336
vn 0.184165 0.883195 0.431336
vn 0.184165 0.883195 0.431336
vn -0.184166 0.883194 0.431336
vn -0.184166 0.883194 0.431336
vn -0.184166 0.883194 0.431336
vn -0.184166 0.883194 0.431336
vn -0.241663 -0.148298 0.958961
vn -0.241663 -0.148298 0.958961
vn -0.241663 -0.148298 0.958961
vn -0.241663 -0.148298 0.958961
vn -0.275309 -0.125638 0.953111
vn -0.275309 -0.125638 0.953111
vn -0.275309 -0.125638 0.953111
vn -0.275309 -0.125638 0.953111
vn 0.249643 -0.122653 0.960539
vn 0.249643 -0.122653 0.960539
vn 0.249643 -0.122653 0.960539
vn 0.249643 -0.122653 0.960539
vn 0.242940 -0.126352 0.961777
vn 0.242940 -0.126352 0.961777
vn 0.242940 -0.126352 0.961777
vn 0.242940 -0.126352 0.961777
vn 0.999284 -0.026123 0.027378
vn 0.999284 -0.026123 0.027378
vn 0.999284 -0.026123 0.027378
vn 0.999284 -0.026123 0.027378
vn -0.004426 0.008810 0.999951
vn -0.004426 0.008810 0.999951
vn -0.004426 0.008810 0.999951
vn -0.004426 0.008810 0.999951
vn -0.007494 -0.999088 0.042048
vn -0.007494 -0.999088 0.042048
vn -0.007494 -0.999088 0.042048
vn -0.007494 -0.999088 0.042048
vn 0.998077 -0.060861 0.011752
vn 0.998077 -0.060861 0.011752
vn 0.998077 -0.060861 0.011752
vn 0.998077 -0.060861 0.011752
vn -0.044647 -0.999000 -0.002555
vn -0.044647 -0.999000 -0.002555
vn -0.044647 -0.999000 -0.002555
vn -0.044647 -0.999000 -0.002555
vn -0.000591 0.002788 0.999996
vn -0.000591 0.002788 0.999996
vn -0.000591 0.002788 0.999996
vn -0.000591 0.002788 0.999996
vn 0.228536 -0.145638 0.962580
vn 0.228536 -0.145638 0.962580
vn 0.228536 -0.145638 0.962580
vn 0.283623 -0.111840 0.952392
vn 0.283623 -0.111840 0.952392
vn 0.283623 -0.111840 0.952392
s 1
g head
usemtl None
f 3/2/1 4/3/2 9/1/3
f 9/1/3 4/3/2 10/4/4
s 2
f 10/6/5 19/7/6 9/5/7
f 9/5/7 19/7/6 18/8/8
s off
f 20/9/9 10/6/10 11/10/11
f 10/6/12 20/9/13 19/7/14
s 3
f 3/2/15 9/1/16 2/11/17
f 2/11/17 9/1/16 8/12/18
s 4
f 8/14/19 9/5/20 21/13/21
f 21/13/21 9/5/20 18/8/22
s 5
f 2/16/23 43/17/24 3/15/25
f 3/15/25 43/17/24 44/18/26
s 6
f 4/19/27 3/15/28 46/20/29
f 46/20/29 3/15/28 44/18/30
s 7
f 4/3/31 5/21/32 10/4/33
f 10/4/33 5/21/32 11/22/34
s 8
f 4/19/35 46/20/36 5/23/37
f 5/23/37 46/20/36 47/24/38
s 9
f 2/11/39 8/12/40 1/25/41
f 1/25/41 8/12/40 7/26/42
s off
f 44/18/43 43/17/44 13/27/45
f 46/20/46 44/18/47 13/27/48
f 47/24/49 46/20/50 13/27/51
s 10
f 21/29/52 18/30/53 49/28/54
f 49/28/54 18/30/53 50/31/55
s off
f 8/14/56 22/32/57 7/33/58
f 22/32/59 8/14/60 21/13/61
s 11
f 19/34/62 51/35/63 18/30/64
f 18/30/64 51/35/63 50/31/65
s 12
f 20/36/66 53/37/67 19/34/68
f 19/34/68 53/37/67 51/35/69
s 13
f 22/39/70 21/29/71 52/38/72
f 52/38/72 21/29/71 49/28/73
s off
f 52/38/74 57/40/75 54/41/76
f 57/40/77 49/28/78 50/31/79
f 51/35/80 57/40/81 50/31/82
f 57/40/83 52/38/84 49/28/85
f 53/37/86 57/40/87 51/35/88
s 14
f 2/16/89 1/42/90 43/17/91
f 43/17/91 1/42/90 45/43/92
s off
f 43/17/93 45/43/94 13/27/95
f 13/27/96 48/44/97 47/24/98
f 45/43/99 48/44/100 13/27/101
f 16/45/102 45/46/103 1/47/104
s 15
f 36/49/105 33/50/106 35/48/107
f 35/48/107 33/50/106 34/51/108
s 16
f 35/48/109 25/52/110 36/49/111
f 36/49/111 25/52/110 26/53/112
s off
f 57/40/113 56/54/114 54/41/115
f 56/54/116 57/40/117 55/55/118
f 57/40/119 53/37/120 55/55/121
s 17
f 35/48/122 34/51/123 25/52/124
f 25/52/124 34/51/123 24/56/125
s off
f 47/57/126 17/58/127 5/59/128
f 15/60/129 20/9/130 11/10/131
f 5/59/132 15/61/133 11/62/134
s 18
f 15/63/135 55/55/136 20/36/137
f 20/36/137 55/55/136 53/37/138
s off
f 17/58/139 15/61/140 5/59/141
s 19
f 36/49/142 26/53/143 33/50/144
f 33/50/144 26/53/143 23/64/145
s 20
f 34/51/146 33/50/147 24/56/148
f 24/56/148 33/50/147 23/64/149
s 21
f 15/61/150 17/58/151 24/65/152
f 24/65/152 17/58/151 25/66/153
s 22
f 6/67/154 48/68/155 16/45/156
f 16/45/156 48/68/155 45/46/157
s off
f 22/32/158 14/69/159 7/33/160
f 14/70/161 1/47/162 7/71/163
f 14/70/164 16/45/165 1/47/166
s 23
f 14/72/167 22/39/168 54/41/169
f 54/41/169 22/39/168 52/38/170
s 24
f 28/74/171 16/45/172 31/73/173
f 31/73/173 16/45/172 14/70/174
s 25
f 6/67/175 16/45/176 27/75/177
f 27/75/177 16/45/176 28/74/178
s 26
f 47/57/179 48/68/180 17/58/181
f 17/58/181 48/68/180 6/67/182
s 27
f 6/67/183 26/76/184 17/58/185
f 17/58/185 26/76/184 25/66/186
s 28
f 27/82/187 28/77/188 38/81/189
f 38/81/189 28/77/188 37/80/190
f 31/78/191 40/79/192 28/77/188
f 28/77/188 40/79/192 37/80/190
s 29
f 56/54/193 12/83/194 54/41/195
f 54/41/195 12/83/194 14/72/196
s 30
f 15/63/197 12/83/198 55/55/199
f 55/55/199 12/83/198 56/54/200
s 31
f 12/85/201 15/61/202 23/84/203
f 23/84/203 15/61/202 24/65/204
s 32
f 12/85/205 23/84/206 6/67/207
f 6/67/207 23/84/206 26/76/208
s 33
f 12/85/209 6/67/210 29/86/211
f 29/86/211 6/67/210 27/75/212
s 34
f 31/73/213 14/70/214 32/87/215
f 32/87/215 14/70/214 12/85/216
s 35
f 29/89/217 27/82/218 39/88/219
f 39/88/219 27/82/218 38/81/220
s 36
f 37/80/221 40/79/222 42/90/223
f 42/90/223 40/79/222 41/91/224
s 37
f 42/90/225 30/92/226 39/88/227
f 39/88/227 30/92/226 29/89/228
s 38
f 32/93/229 30/92/230 41/91/231
f 41/91/231 30/92/230 42/90/232
s 39
f 40/79/233 31/78/234 41/91/235
f 41/91/235 31/78/234 32/93/236
s 40
f 37/80/237 42/90/238 38/81/239
f 38/81/239 42/90/238 39/88/240
s off
f 12/85/241 30/94/242 32/87/243
f 12/85/244 29/86/245 30/94/246
