# This file uses centimeters as units for non-parametric coordinates.

mtllib LeavannyLArm.mtl
g default1
v -0.232431 -0.220103 -0.092320
v 4.569243 -5.082584 1.616249
v -0.008256 0.098064 0.127466
v 0.074877 0.106498 -0.079971
v 0.423033 -0.242487 0.312849
v 0.521921 -0.232455 0.066098
v -0.128011 -0.969030 -0.080921
v 0.942219 -0.673426 0.503399
v 1.041108 -0.663395 0.256648
v 0.253440 -1.484845 0.050979
v 1.221009 -1.076684 0.580665
v 1.319897 -1.066652 0.333914
v 0.938500 -1.912922 0.308120
v 1.540299 -1.749103 0.681286
v 1.639187 -1.739071 0.434535
v 1.584880 -1.825058 0.409275
v 1.485992 -1.835089 0.656026
v 0.318014 -0.398038 0.192740
v -0.091422 -0.020705 0.043995
v 0.381172 -0.376316 0.075540
v -0.041978 -0.015688 -0.079381
v 0.870416 -0.802270 0.254292
v 0.829915 -0.796392 0.381695
v 1.271681 -1.230114 0.379643
v 1.206545 -1.254246 0.495952
v 1.866246 -2.471262 0.639158
v 2.175174 -1.982124 0.782851
v 2.599335 -3.496846 0.891256
v 3.457300 -4.362330 1.199908
v 2.025801 -2.265242 0.620257
v 1.607399 -1.789402 0.419750
v 1.291675 -1.162332 0.360681
v 0.941196 -0.744684 0.255269
v 0.439535 -0.316661 0.071624
v 0.006478 0.034977 -0.079626
v -0.056936 0.028545 0.078607
v 0.361562 -0.333537 0.242545
v 0.876484 -0.745403 0.432161
v 1.212543 -1.180618 0.531079
v 1.508511 -1.799434 0.666500
v 1.979449 -2.269945 0.735918
v 3.007185 -3.284656 1.063333
v 3.342843 -2.802861 1.217440
v 3.576444 -3.814633 1.269924
v 3.714859 -3.198076 1.350462
v 4.134930 -4.870420 1.450819
v 4.259010 -4.673961 1.508533
v 4.434158 -4.396641 1.590000
v 2.681543 -2.258689 0.974541
v 2.405031 -2.696501 0.845926
v 3.152510 -2.620984 1.148556
v 2.690242 -3.268322 0.936979
v 3.535297 -2.986764 1.287092
v 3.316462 -3.509782 1.178127
v 3.988922 -3.520596 1.447183
v 3.673055 -4.205184 1.292763
v 2.209144 -3.006656 0.754812
vt 0.930446 0.924195
vt 0.946568 0.890194
vt 0.882251 0.923389
vt 0.905839 0.844254
vt 0.385416 0.935475
vt 0.294919 0.943232
vt 0.315903 0.884067
vt 0.208254 0.893294
vt 0.954579 0.905240
vt 0.906049 0.906464
vt 0.225416 0.818922
vt 0.117767 0.828149
vt 0.849547 0.907248
vt 0.853781 0.831993
vt 0.825194 0.927526
vt 0.077103 0.762709
vt 0.184752 0.753482
vt 0.803281 0.899569
vt 0.782000 0.844888
vt 0.779532 0.916202
vt 0.129237 0.643111
vt 0.021588 0.652338
vt 0.171430 0.738329
vt 0.134802 0.633861
vt 0.766944 0.866290
vt 0.718677 0.904199
vt 0.027153 0.643087
vt 0.096893 0.742761
vt 0.408737 0.834958
vt 0.407673 0.856492
vt 0.365809 0.847284
vt 0.406173 0.886890
vt 0.147544 0.812699
vt 0.237293 0.874628
vt 0.314991 0.929193
vt 0.384023 0.923277
vt 0.312032 0.869932
vt 0.224603 0.804979
vt 0.689217 0.861028
vt 0.766751 0.870198
vt 0.766479 0.875715
vt 0.703472 0.871202
vt 0.686571 0.914644
vt 0.718212 0.913624
vt 0.680848 0.888972
vt 0.718484 0.908107
vt 0.635249 0.926967
vt 0.637618 0.878978
vt 0.582938 0.931068
vt 0.590584 0.856767
vt 0.560252 0.930240
vt 0.537313 0.929404
vt 0.565292 0.875466
vt 0.531497 0.879055
vt 0.514180 0.925839
vt 0.478873 0.920399
vt 0.498051 0.873971
vt 0.473542 0.852654
vt 0.483428 0.828135
vt 0.639296 0.844981
vt 0.587677 0.835063
vt 0.161993 0.727594
vt 0.138744 0.627307
vt 0.224027 0.795101
vt 0.309289 0.859918
vt 0.383035 0.914635
vt 0.926281 0.932740
vt 0.957233 0.908430
vt 0.329211 0.919248
vt 0.257864 0.861405
vt 0.168639 0.801754
vt 0.110914 0.728630
vt 0.031095 0.636534
vn -0.503183 -0.216162 0.836708
vn -0.481731 -0.094527 0.871206
vn -0.440869 -0.093910 0.892645
vn -0.440869 -0.093910 0.892645
vn -0.481731 -0.094527 0.871206
vn -0.434711 -0.079607 0.897045
vn 0.533089 0.809338 0.246553
vn 0.533090 0.809339 0.246549
vn 0.548227 0.797420 0.252129
vn 0.548227 0.797420 0.252129
vn 0.533090 0.809339 0.246549
vn 0.548023 0.797584 0.252052
vn 0.225430 -0.149088 -0.962785
vn 0.299419 -0.015781 -0.953991
vn 0.259454 -0.018438 -0.965579
vn 0.259454 -0.018438 -0.965579
vn 0.299419 -0.015781 -0.953991
vn 0.305992 -0.003381 -0.952028
vn -0.699747 0.667988 -0.253271
vn -0.699747 0.667988 -0.253271
vn -0.699747 0.667988 -0.253271
vn 0.548227 0.797420 0.252129
vn 0.548023 0.797584 0.252052
vn 0.645492 0.707607 0.287459
vn 0.645492 0.707607 0.287459
vn 0.548023 0.797584 0.252052
vn 0.643456 0.709753 0.286731
vn 0.299419 -0.015781 -0.953991
vn 0.313097 -0.004754 -0.949709
vn 0.305992 -0.003381 -0.952028
vn 0.305992 -0.003381 -0.952028
vn 0.313097 -0.004754 -0.949709
vn 0.316760 -0.018386 -0.948328
vn -0.440869 -0.093910 0.892645
vn -0.434711 -0.079607 0.897045
vn -0.409636 -0.098276 0.906940
vn -0.409636 -0.098276 0.906940
vn -0.434711 -0.079607 0.897045
vn -0.411946 -0.089350 0.906817
vn 0.643456 0.709753 0.286731
vn 0.796646 0.500030 0.339596
vn 0.645492 0.707607 0.287459
vn 0.645492 0.707607 0.287459
vn 0.796646 0.500030 0.339596
vn 0.797421 0.498620 0.339850
vn 0.313097 -0.004754 -0.949709
vn 0.271828 -0.010369 -0.962290
vn 0.316760 -0.018386 -0.948328
vn 0.316760 -0.018386 -0.948328
vn 0.271828 -0.010369 -0.962290
vn 0.270609 -0.031259 -0.962182
vn -0.409636 -0.098276 0.906940
vn -0.411946 -0.089350 0.906817
vn -0.435008 -0.080860 0.896789
vn -0.435008 -0.080860 0.896789
vn -0.411946 -0.089350 0.906817
vn -0.442784 -0.074612 0.893519
vn 0.797421 0.498620 0.339850
vn 0.796646 0.500030 0.339596
vn 0.645936 0.707139 0.287615
vn 0.645936 0.707139 0.287615
vn 0.796646 0.500030 0.339596
vn 0.645936 0.707139 0.287615
vn -0.044071 -0.237029 -0.970502
vn 0.469267 0.090003 -0.878458
vn -0.085593 -0.235702 -0.968049
vn -0.085593 -0.235702 -0.968049
vn 0.469267 0.090003 -0.878458
vn 0.363874 0.035217 -0.930782
vn 0.132703 -0.991072 0.012892
vn -0.456235 -0.862764 -0.217918
vn -0.446121 -0.868982 -0.214118
vn -0.352376 -0.061776 0.933817
vn -0.282059 -0.052567 0.957956
vn -0.672160 -0.268857 0.689868
vn -0.672160 -0.268857 0.689868
vn -0.282059 -0.052567 0.957956
vn -0.638901 -0.282527 0.715530
vn 0.371736 0.037713 -0.927572
vn 0.371736 0.037712 -0.927572
vn 0.371736 0.037712 -0.927572
vn 0.371736 0.037712 -0.927572
vn 0.371736 0.037712 -0.927572
vn 0.371736 0.037712 -0.927572
vn -0.371736 -0.037712 0.927572
vn -0.371736 -0.037712 0.927572
vn -0.371736 -0.037712 0.927572
vn -0.371736 -0.037712 0.927572
vn -0.371736 -0.037712 0.927572
vn -0.371736 -0.037713 0.927572
vn 0.271828 -0.010369 -0.962290
vn 0.150556 0.030041 -0.988145
vn 0.270609 -0.031259 -0.962182
vn -0.533759 -0.023839 0.845301
vn -0.435008 -0.080860 0.896789
vn -0.442784 -0.074612 0.893519
vn -0.672160 -0.268857 0.689868
vn -0.638901 -0.282527 0.715530
vn -0.549790 -0.278314 0.787574
vn -0.549790 -0.278314 0.787574
vn -0.638901 -0.282527 0.715530
vn -0.552610 -0.274253 0.787025
vn -0.527720 -0.265851 0.806744
vn -0.549790 -0.278314 0.787574
vn -0.530045 -0.266305 0.805068
vn -0.530045 -0.266305 0.805068
vn -0.549790 -0.278314 0.787574
vn -0.552610 -0.274253 0.787025
vn -0.514602 -0.224997 0.827382
vn -0.527720 -0.265851 0.806744
vn -0.520279 -0.226237 0.823484
vn -0.520279 -0.226237 0.823484
vn -0.527720 -0.265851 0.806744
vn -0.530045 -0.266305 0.805068
vn -0.699743 0.667990 -0.253276
vn -0.699745 0.667989 -0.253276
vn -0.699746 0.667987 -0.253276
vn -0.699746 0.667987 -0.253276
vn -0.699745 0.667989 -0.253276
vn -0.699748 0.667984 -0.253278
vn 0.188056 -0.187333 -0.964127
vn 0.182758 -0.188208 -0.964975
vn 0.159996 -0.217462 -0.962866
vn 0.159996 -0.217462 -0.962866
vn 0.182758 -0.188208 -0.964975
vn 0.159954 -0.217301 -0.962910
vn 0.159996 -0.217462 -0.962866
vn 0.159954 -0.217301 -0.962910
vn 0.150466 -0.175608 -0.972894
vn 0.150466 -0.175608 -0.972894
vn 0.159954 -0.217301 -0.962910
vn 0.149187 -0.166835 -0.974633
vn -0.085593 -0.235702 -0.968049
vn 0.150466 -0.175608 -0.972894
vn -0.044071 -0.237029 -0.970502
vn -0.044071 -0.237029 -0.970502
vn 0.150466 -0.175608 -0.972894
vn 0.149187 -0.166835 -0.974633
vn -0.809980 -0.475024 -0.343925
vn -0.446121 -0.868982 -0.214118
vn -0.456235 -0.862764 -0.217918
vn 0.363874 0.035217 -0.930782
vn 0.469267 0.090003 -0.878458
vn 0.412901 -0.036178 -0.910057
vn 0.412901 -0.036178 -0.910057
vn 0.469267 0.090003 -0.878458
vn 0.517844 0.203923 -0.830814
vn 0.645936 0.707139 0.287615
vn 0.645936 0.707139 0.287615
vn 0.316502 0.934164 0.164817
vn -0.255056 0.015796 0.966797
vn -0.282059 -0.052567 0.957956
vn -0.311839 -0.101405 0.944708
vn -0.311839 -0.101405 0.944708
vn -0.282059 -0.052567 0.957956
vn -0.352376 -0.061776 0.933817
vn 0.517844 0.203923 -0.830814
vn 0.474821 0.033132 -0.879458
vn 0.412901 -0.036178 -0.910057
vn 0.412901 -0.036178 -0.910057
vn 0.474821 0.033132 -0.879458
vn 0.420865 -0.031674 -0.906570
vn -0.347176 -0.070202 0.935169
vn -0.320958 -0.040124 0.946243
vn -0.311839 -0.101405 0.944708
vn -0.311839 -0.101405 0.944708
vn -0.320958 -0.040124 0.946243
vn -0.255056 0.015796 0.966797
vn 0.371736 0.037711 -0.927572
vn 0.371735 0.037711 -0.927573
vn 0.371735 0.037711 -0.927573
vn 0.371735 0.037711 -0.927573
vn 0.371735 0.037711 -0.927573
vn 0.371735 0.037712 -0.927573
vn -0.371735 -0.037712 0.927573
vn -0.371735 -0.037711 0.927573
vn -0.371735 -0.037711 0.927573
vn -0.371735 -0.037711 0.927573
vn -0.371735 -0.037711 0.927573
vn -0.371736 -0.037711 0.927572
vn 0.371736 0.037711 -0.927572
vn 0.371736 0.037711 -0.927572
vn 0.371735 0.037712 -0.927573
vn 0.371735 0.037712 -0.927573
vn 0.371736 0.037711 -0.927572
vn 0.371735 0.037712 -0.927573
vn -0.371736 -0.037712 0.927572
vn -0.371735 -0.037712 0.927573
vn -0.371736 -0.037712 0.927572
vn -0.371736 -0.037712 0.927572
vn -0.371735 -0.037712 0.927573
vn -0.371735 -0.037711 0.927573
vn -0.371735 -0.037712 0.927573
vn -0.371735 -0.037711 0.927573
vn -0.371735 -0.037712 0.927573
vn -0.371735 -0.037711 0.927573
vn -0.371735 -0.037711 0.927573
vn -0.371735 -0.037712 0.927573
vn 0.371735 0.037712 -0.927573
vn 0.371735 0.037712 -0.927573
vn 0.371735 0.037712 -0.927573
vn 0.371735 0.037712 -0.927573
vn 0.371735 0.037712 -0.927573
vn 0.371735 0.037712 -0.927573
vn -0.371735 -0.037712 0.927573
vn -0.371735 -0.037712 0.927573
vn -0.371735 -0.037712 0.927573
vn -0.371736 -0.037712 0.927572
vn -0.371735 -0.037712 0.927573
vn -0.371735 -0.037712 0.927573
vn -0.371735 -0.037712 0.927573
vn -0.371735 -0.037712 0.927573
vn -0.371735 -0.037712 0.927573
vn -0.371735 -0.037712 0.927573
vn -0.371735 -0.037712 0.927573
vn -0.371735 -0.037712 0.927573
vn 0.371736 0.037711 -0.927572
vn 0.371736 0.037711 -0.927572
vn 0.371736 0.037711 -0.927572
vn 0.371736 0.037711 -0.927572
vn 0.371736 0.037711 -0.927572
vn 0.371736 0.037711 -0.927572
vn -0.371736 -0.037711 0.927572
vn -0.371736 -0.037711 0.927572
vn -0.371736 -0.037711 0.927572
vn -0.371736 -0.037711 0.927572
vn -0.371736 -0.037711 0.927572
vn -0.371736 -0.037711 0.927572
vn 0.371733 0.037712 -0.927573
vn 0.371734 0.037712 -0.927573
vn 0.371734 0.037711 -0.927573
vn 0.371734 0.037711 -0.927573
vn 0.371734 0.037712 -0.927573
vn 0.371734 0.037711 -0.927573
vn 0.371736 0.037712 -0.927572
vn 0.371735 0.037711 -0.927573
vn 0.371735 0.037712 -0.927573
vn 0.371735 0.037712 -0.927573
vn 0.371735 0.037711 -0.927573
vn 0.371734 0.037711 -0.927573
vn 0.412901 -0.036178 -0.910057
vn 0.420865 -0.031674 -0.906570
vn 0.266651 -0.185964 -0.945682
vn 0.266651 -0.185964 -0.945682
vn 0.420865 -0.031674 -0.906570
vn 0.371737 0.037712 -0.927572
vn 0.363874 0.035217 -0.930782
vn 0.412901 -0.036178 -0.910057
vn 0.304861 -0.092134 -0.947930
vn 0.304861 -0.092134 -0.947930
vn 0.412901 -0.036178 -0.910057
vn 0.266651 -0.185964 -0.945682
vn -0.085593 -0.235702 -0.968049
vn 0.363874 0.035217 -0.930782
vn -0.144604 -0.221452 -0.964390
vn -0.144604 -0.221452 -0.964390
vn 0.363874 0.035217 -0.930782
vn 0.304861 -0.092134 -0.947930
vn -0.144604 -0.221452 -0.964390
vn 0.154599 -0.181303 -0.971199
vn -0.085593 -0.235702 -0.968049
vn -0.085593 -0.235702 -0.968049
vn 0.154599 -0.181303 -0.971199
vn 0.150466 -0.175608 -0.972894
vn 0.160529 -0.218340 -0.962579
vn 0.159996 -0.217462 -0.962866
vn 0.154599 -0.181303 -0.971199
vn 0.154599 -0.181303 -0.971199
vn 0.159996 -0.217462 -0.962866
vn 0.150466 -0.175608 -0.972894
vn 0.192086 -0.188358 -0.963133
vn 0.188056 -0.187333 -0.964127
vn 0.160529 -0.218340 -0.962579
vn 0.160529 -0.218340 -0.962579
vn 0.188056 -0.187333 -0.964127
vn 0.159996 -0.217462 -0.962866
vn -0.699746 0.667983 -0.253286
vn -0.699743 0.667990 -0.253276
vn -0.699743 0.667990 -0.253275
vn -0.699743 0.667990 -0.253275
vn -0.699743 0.667990 -0.253276
vn -0.699746 0.667987 -0.253276
vn -0.509950 -0.226182 0.829935
vn -0.525175 -0.267335 0.807913
vn -0.514602 -0.224997 0.827382
vn -0.514602 -0.224997 0.827382
vn -0.525175 -0.267335 0.807913
vn -0.527720 -0.265851 0.806744
vn -0.525175 -0.267335 0.807913
vn -0.545878 -0.282742 0.788717
vn -0.527720 -0.265851 0.806744
vn -0.527720 -0.265851 0.806744
vn -0.545878 -0.282742 0.788717
vn -0.549790 -0.278314 0.787574
vn -0.711122 -0.250642 0.656874
vn -0.672160 -0.268857 0.689868
vn -0.545878 -0.282742 0.788717
vn -0.545878 -0.282742 0.788717
vn -0.672160 -0.268857 0.689868
vn -0.549790 -0.278314 0.787574
vn -0.344371 -0.137343 0.928733
vn -0.352376 -0.061776 0.933817
vn -0.711122 -0.250642 0.656874
vn -0.711122 -0.250642 0.656874
vn -0.352376 -0.061776 0.933817
vn -0.672160 -0.268857 0.689868
vn -0.386012 -0.165946 0.907445
vn -0.311839 -0.101405 0.944708
vn -0.344371 -0.137343 0.928733
vn -0.344371 -0.137343 0.928733
vn -0.311839 -0.101405 0.944708
vn -0.352376 -0.061776 0.933817
vn -0.371737 -0.037712 0.927572
vn -0.347176 -0.070202 0.935169
vn -0.386012 -0.165946 0.907445
vn -0.386012 -0.165946 0.907445
vn -0.347176 -0.070202 0.935169
vn -0.311839 -0.101405 0.944708
vn -0.371734 -0.037711 0.927573
vn -0.371735 -0.037711 0.927573
vn -0.371735 -0.037712 0.927573
vn -0.371735 -0.037712 0.927573
vn -0.371735 -0.037711 0.927573
vn -0.371736 -0.037712 0.927572
vn -0.371734 -0.037711 0.927573
vn -0.371734 -0.037712 0.927573
vn -0.371734 -0.037711 0.927573
vn -0.371734 -0.037711 0.927573
vn -0.371734 -0.037712 0.927573
vn -0.371733 -0.037712 0.927573
vn 0.371736 0.037712 -0.927572
vn 0.371736 0.037712 -0.927572
vn 0.371735 0.037712 -0.927573
vn 0.371735 0.037712 -0.927573
vn 0.371736 0.037712 -0.927572
vn 0.371736 0.037711 -0.927572
vn 0.371736 0.037712 -0.927572
vn 0.371735 0.037712 -0.927573
vn 0.371735 0.037712 -0.927573
vn 0.371735 0.037712 -0.927573
vn 0.371735 0.037712 -0.927573
vn 0.371735 0.037712 -0.927573
s off
g LArm
usemtl None
f 19/1/1 1/2/2 18/3/3
f 18/3/4 1/2/5 7/4/6
f 4/5/7 3/6/8 6/7/9
f 6/7/10 3/6/11 5/8/12
f 21/9/13 20/10/14 1/2/15
f 1/2/16 20/10/17 7/4/18
f 19/1/19 21/9/20 1/2/21
f 6/7/22 5/8/23 9/11/24
f 9/11/25 5/8/26 8/12/27
f 20/10/28 22/13/29 7/4/30
f 7/4/31 22/13/32 10/14/33
f 18/3/34 7/4/35 23/15/36
f 23/15/37 7/4/38 10/14/39
f 8/12/40 11/16/41 9/11/42
f 9/11/43 11/16/44 12/17/45
f 22/13/46 24/18/47 10/14/48
f 10/14/49 24/18/50 13/19/51
f 23/15/52 10/14/53 25/20/54
f 25/20/55 10/14/56 13/19/57
f 12/17/58 11/16/59 15/21/60
f 15/21/61 11/16/62 14/22/63
f 12/17/64 15/21/65 32/23/66
f 32/23/67 15/21/68 31/24/69
f 13/19/70 16/25/71 17/26/72
f 40/27/73 14/22/74 39/28/75
f 39/28/76 14/22/77 11/16/78
f 46/29/79 47/30/80 2/31/81
f 2/31/82 47/30/83 48/32/84
f 48/32/85 47/30/86 2/31/87
f 2/31/88 47/30/89 46/29/90
f 24/18/91 16/25/92 13/19/93
f 17/26/94 25/20/95 13/19/96
f 39/28/97 11/16/98 38/33/99
f 38/33/100 11/16/101 8/12/102
f 37/34/103 38/33/104 5/8/105
f 5/8/106 38/33/107 8/12/108
f 36/35/109 37/34/110 3/6/111
f 3/6/112 37/34/113 5/8/114
f 36/35/115 3/6/116 35/36/117
f 35/36/118 3/6/119 4/5/120
f 35/36/121 4/5/122 34/37/123
f 34/37/124 4/5/125 6/7/126
f 34/37/127 6/7/128 33/38/129
f 33/38/130 6/7/131 9/11/132
f 32/23/133 33/38/134 12/17/135
f 12/17/136 33/38/137 9/11/138
f 26/39/139 17/26/140 16/25/141
f 31/40/142 15/41/143 30/42/144
f 30/42/145 15/41/146 27/43/147
f 15/41/148 14/44/149 27/43/150
f 27/43/151 14/44/152 41/45/153
f 41/45/154 14/44/155 40/46/156
f 27/43/157 49/47/158 30/42/159
f 30/42/160 49/47/161 50/48/162
f 50/48/163 49/47/164 41/45/165
f 41/45/166 49/47/167 27/43/168
f 49/47/169 51/49/170 50/48/171
f 50/48/172 51/49/173 52/50/174
f 52/50/175 51/49/176 50/48/177
f 50/48/178 51/49/179 49/47/180
f 43/51/181 53/52/182 42/53/183
f 42/53/184 53/52/185 54/54/186
f 52/50/187 42/53/188 51/49/189
f 51/49/190 42/53/191 43/51/192
f 54/54/193 53/52/194 42/53/195
f 53/52/196 43/51/197 42/53/198
f 45/55/199 55/56/200 44/57/201
f 44/57/202 55/56/203 56/58/204
f 56/58/205 55/56/206 44/57/207
f 53/52/208 54/54/209 45/55/210
f 55/56/211 45/55/212 44/57/213
f 45/55/214 54/54/215 44/57/216
f 55/56/217 48/32/218 56/58/219
f 56/58/220 48/32/221 47/30/222
f 47/30/223 48/32/224 56/58/225
f 56/58/226 48/32/227 55/56/228
f 29/59/229 56/58/230 46/29/231
f 46/29/232 56/58/233 47/30/234
f 50/48/235 52/50/236 57/60/237
f 57/60/238 52/50/239 28/61/240
f 30/42/241 50/48/242 26/39/243
f 26/39/244 50/48/245 57/60/246
f 31/40/247 30/42/248 16/25/249
f 16/25/250 30/42/251 26/39/252
f 32/23/253 31/24/254 24/62/255
f 24/62/256 31/24/257 16/63/258
f 24/62/259 22/64/260 32/23/261
f 32/23/262 22/64/263 33/38/264
f 20/65/265 34/37/266 22/64/267
f 22/64/268 34/37/269 33/38/270
f 21/66/271 35/36/272 20/65/273
f 20/65/274 35/36/275 34/37/276
f 19/1/277 36/67/278 21/9/279
f 21/9/280 36/67/281 35/68/282
f 19/69/283 18/70/284 36/35/285
f 36/35/286 18/70/287 37/34/288
f 18/70/289 23/71/290 37/34/291
f 37/34/292 23/71/293 38/33/294
f 25/72/295 39/28/296 23/71/297
f 23/71/298 39/28/299 38/33/300
f 17/73/301 40/27/302 25/72/303
f 25/72/304 40/27/305 39/28/306
f 26/39/307 41/45/308 17/26/309
f 17/26/310 41/45/311 40/46/312
f 57/60/313 50/48/314 26/39/315
f 26/39/316 50/48/317 41/45/318
f 28/61/319 52/50/320 57/60/321
f 57/60/322 52/50/323 50/48/324
f 47/30/325 56/58/326 46/29/327
f 46/29/328 56/58/329 29/59/330
f 52/50/331 51/49/332 42/53/333
f 42/53/334 51/49/335 43/51/336
f 53/52/337 45/55/338 54/54/339
f 54/54/340 45/55/341 44/57/342
