# This file uses centimeters as units for non-parametric coordinates.

mtllib LampentFlame.mtl
g default
v 0.267667 -0.111697 0.267668
v 0.378539 -0.111697 0.000000
v 0.267667 -0.111697 -0.267667
v 0.000000 -0.111697 -0.378539
v -0.267667 -0.111697 -0.267667
v -0.378539 -0.111697 0.000000
v -0.267668 -0.111697 0.267668
v 0.000000 -0.111697 0.378539
v 0.494585 0.046832 0.494585
v 0.699449 0.046832 0.000000
v 0.494585 0.046832 -0.494585
v 0.000000 0.046832 -0.699449
v -0.494585 0.046832 -0.494585
v -0.699449 0.046832 0.000000
v -0.494585 0.046832 0.494585
v 0.000000 0.046832 0.699449
v 0.671092 0.333539 0.671021
v 0.949055 0.333539 -0.000039
v 0.671092 0.333539 -0.671099
v 0.000032 0.333539 -0.949062
v -0.671028 0.333539 -0.671099
v -0.948991 0.333539 -0.000039
v -0.671028 0.333539 0.671021
v 0.000032 0.333539 0.948984
v 0.767311 1.055462 0.764820
v 1.084679 1.055462 -0.001372
v 0.767311 1.055462 -0.767564
v 0.001119 1.055462 -1.084931
v -0.765073 1.055462 -0.767564
v -1.082440 1.055462 -0.001372
v -0.765073 1.055462 0.764820
v 0.001119 1.055462 1.082188
v 0.707191 1.811826 0.711042
v 1.000119 1.811826 0.003851
v 0.724419 1.802793 -0.689215
v -0.022129 1.802793 -0.998446
v -0.707191 1.811826 -0.703340
v -1.000119 1.811826 0.003851
v -0.707191 1.811826 0.711042
v 0.000000 1.811826 1.003970
v 0.504698 3.125186 0.522018
v 0.713751 3.125186 0.017319
v 0.504698 3.125186 -0.487379
v 0.000000 3.125186 -0.696432
v -0.504698 3.125186 -0.487379
v -0.713751 3.125186 0.017319
v -0.504699 3.125186 0.522018
v 0.000000 3.125186 0.731071
v 0.280276 4.404194 0.297596
v 0.396371 4.404194 0.017319
v 0.280276 4.404194 -0.262957
v 0.000000 4.404194 -0.379051
v -0.280276 4.404194 -0.262957
v -0.396371 4.404194 0.017319
v -0.280276 4.404194 0.297596
v 0.000000 4.404194 0.413690
v 0.000000 -0.167364 0.000000
v 0.000000 5.696183 0.017319
vt 0.294582 0.605691
vt 0.297915 0.605691
vt 0.301404 0.610457
vt 0.307564 0.610457
vt 0.294582 0.605691
vt 0.301404 0.610457
vt 0.286534 0.605691
vt 0.286534 0.610457
vt 0.278486 0.605691
vt 0.271663 0.610457
vt 0.275152 0.605691
vt 0.265504 0.610457
vt 0.278486 0.605691
vt 0.271663 0.610457
vt 0.286534 0.605691
vt 0.286534 0.610457
vt 0.306711 0.619077
vt 0.315068 0.619077
vt 0.306711 0.619077
vt 0.286535 0.619077
vt 0.266358 0.619077
vt 0.258001 0.619077
vt 0.266358 0.619077
vt 0.286535 0.619077
vt 0.309604 0.640783
vt 0.319146 0.640783
vt 0.309604 0.640783
vt 0.286567 0.640783
vt 0.263531 0.640783
vt 0.253989 0.640783
vt 0.263531 0.640783
vt 0.286567 0.640783
vt 0.316604 0.663524
vt 0.307797 0.663524
vt 0.308315 0.663253
vt 0.285868 0.663253
vt 0.265271 0.663524
vt 0.256464 0.663524
vt 0.265271 0.663524
vt 0.286534 0.663524
vt 0.307994 0.703012
vt 0.301708 0.703012
vt 0.301708 0.703012
vt 0.286534 0.703012
vt 0.271359 0.703012
vt 0.265074 0.703012
vt 0.271359 0.703012
vt 0.286534 0.703012
vt 0.294961 0.741468
vt 0.298451 0.741468
vt 0.294961 0.741468
vt 0.286534 0.741468
vt 0.278107 0.741468
vt 0.274616 0.741468
vt 0.278107 0.741468
vt 0.286534 0.741468
vt 0.286534 0.604017
vt 0.286534 0.780313
vn 0.435634 -0.881852 0.180445
vn 0.435634 -0.881852 0.180445
vn 0.435634 -0.881852 0.180445
vn 0.435634 -0.881852 0.180445
vn 0.435634 -0.881852 0.180445
vn 0.435634 -0.881852 0.180445
vn 0.435634 -0.881852 -0.180445
vn 0.435634 -0.881852 -0.180445
vn 0.435634 -0.881852 -0.180445
vn 0.435634 -0.881852 -0.180445
vn 0.435634 -0.881852 -0.180445
vn 0.435634 -0.881852 -0.180445
vn 0.180445 -0.881852 -0.435633
vn 0.180445 -0.881852 -0.435633
vn 0.180445 -0.881852 -0.435633
vn 0.180445 -0.881852 -0.435633
vn 0.180445 -0.881852 -0.435633
vn 0.180445 -0.881852 -0.435633
vn -0.180445 -0.881852 -0.435633
vn -0.180445 -0.881852 -0.435633
vn -0.180445 -0.881852 -0.435633
vn -0.180445 -0.881852 -0.435633
vn -0.180445 -0.881852 -0.435633
vn -0.180445 -0.881852 -0.435633
vn -0.435634 -0.881852 -0.180445
vn -0.435634 -0.881852 -0.180445
vn -0.435634 -0.881852 -0.180445
vn -0.435634 -0.881852 -0.180445
vn -0.435634 -0.881852 -0.180445
vn -0.435634 -0.881852 -0.180445
vn -0.435632 -0.881853 0.180445
vn -0.435632 -0.881853 0.180445
vn -0.435632 -0.881853 0.180445
vn -0.435632 -0.881853 0.180445
vn -0.435632 -0.881853 0.180445
vn -0.435632 -0.881853 0.180445
vn -0.180445 -0.881852 0.435633
vn -0.180445 -0.881852 0.435633
vn -0.180445 -0.881852 0.435633
vn -0.180445 -0.881852 0.435633
vn -0.180445 -0.881852 0.435633
vn -0.180445 -0.881852 0.435633
vn 0.180445 -0.881852 0.435633
vn 0.180445 -0.881852 0.435633
vn 0.180445 -0.881852 0.435633
vn 0.180445 -0.881852 0.435633
vn 0.180445 -0.881852 0.435633
vn 0.180445 -0.881852 0.435633
vn 0.719925 -0.626724 0.298203
vn 0.719925 -0.626724 0.298203
vn 0.719925 -0.626724 0.298203
vn 0.719925 -0.626724 0.298203
vn 0.719925 -0.626724 0.298203
vn 0.719925 -0.626724 0.298203
vn 0.719889 -0.626773 -0.298187
vn 0.719889 -0.626773 -0.298187
vn 0.719889 -0.626773 -0.298187
vn 0.719889 -0.626773 -0.298187
vn 0.719889 -0.626773 -0.298187
vn 0.719889 -0.626773 -0.298187
vn 0.298186 -0.626780 -0.719884
vn 0.298186 -0.626780 -0.719884
vn 0.298186 -0.626780 -0.719884
vn 0.298186 -0.626780 -0.719884
vn 0.298186 -0.626780 -0.719884
vn 0.298186 -0.626779 -0.719884
vn -0.298198 -0.626739 -0.719914
vn -0.298198 -0.626739 -0.719914
vn -0.298198 -0.626739 -0.719914
vn -0.298198 -0.626739 -0.719914
vn -0.298198 -0.626739 -0.719914
vn -0.298198 -0.626739 -0.719914
vn -0.719961 -0.626675 -0.298217
vn -0.719961 -0.626675 -0.298217
vn -0.719961 -0.626675 -0.298217
vn -0.719961 -0.626675 -0.298217
vn -0.719961 -0.626675 -0.298217
vn -0.719961 -0.626675 -0.298217
vn -0.719997 -0.626627 0.298233
vn -0.719997 -0.626627 0.298233
vn -0.719997 -0.626627 0.298233
vn -0.719997 -0.626627 0.298233
vn -0.719997 -0.626627 0.298233
vn -0.719997 -0.626627 0.298233
vn -0.298235 -0.626620 0.720002
vn -0.298235 -0.626620 0.720002
vn -0.298235 -0.626620 0.720002
vn -0.298235 -0.626620 0.720002
vn -0.298235 -0.626620 0.720002
vn -0.298235 -0.626620 0.720002
vn 0.298222 -0.626660 0.719972
vn 0.298222 -0.626660 0.719972
vn 0.298222 -0.626660 0.719972
vn 0.298222 -0.626660 0.719972
vn 0.298222 -0.626660 0.719972
vn 0.298222 -0.626660 0.719972
vn 0.910379 -0.170332 0.377091
vn 0.910379 -0.170332 0.377091
vn 0.910379 -0.170332 0.377091
vn 0.910379 -0.170332 0.377091
vn 0.910379 -0.170332 0.377091
vn 0.910379 -0.170332 0.377091
vn 0.910162 -0.171683 -0.377002
vn 0.910162 -0.171683 -0.377002
vn 0.910162 -0.171683 -0.377002
vn 0.910162 -0.171683 -0.377002
vn 0.910162 -0.171683 -0.377002
vn 0.910162 -0.171683 -0.377002
vn 0.376990 -0.171860 -0.910133
vn 0.376990 -0.171860 -0.910133
vn 0.376990 -0.171860 -0.910133
vn 0.376990 -0.171860 -0.910133
vn 0.376990 -0.171860 -0.910133
vn 0.376990 -0.171860 -0.910133
vn -0.377063 -0.170757 -0.910311
vn -0.377063 -0.170757 -0.910311
vn -0.377063 -0.170757 -0.910311
vn -0.377063 -0.170757 -0.910311
vn -0.377063 -0.170757 -0.910311
vn -0.377063 -0.170757 -0.910311
vn -0.910587 -0.169021 -0.377178
vn -0.910587 -0.169021 -0.377178
vn -0.910587 -0.169021 -0.377178
vn -0.910587 -0.169021 -0.377178
vn -0.910587 -0.169021 -0.377178
vn -0.910587 -0.169021 -0.377178
vn -0.910801 -0.167667 0.377266
vn -0.910801 -0.167667 0.377266
vn -0.910801 -0.167667 0.377266
vn -0.910801 -0.167667 0.377266
vn -0.910801 -0.167667 0.377266
vn -0.910801 -0.167667 0.377266
vn -0.377278 -0.167491 0.910828
vn -0.377278 -0.167491 0.910828
vn -0.377278 -0.167491 0.910828
vn -0.377278 -0.167491 0.910828
vn -0.377278 -0.167491 0.910828
vn -0.377278 -0.167491 0.910828
vn 0.377206 -0.168595 0.910654
vn 0.377206 -0.168595 0.910654
vn 0.377206 -0.168595 0.910654
vn 0.377206 -0.168595 0.910654
vn 0.377206 -0.168595 0.910654
vn 0.377206 -0.168595 0.910654
vn 0.919236 0.100139 0.380760
vn 0.919236 0.100139 0.380760
vn 0.919236 0.100139 0.380760
vn 0.919236 0.100139 0.380760
vn 0.919236 0.100139 0.380760
vn 0.919236 0.100139 0.380760
vn 0.921651 0.098970 -0.375187
vn 0.921651 0.098970 -0.375187
vn 0.921651 0.098970 -0.375187
vn 0.921651 0.098970 -0.375187
vn 0.921651 0.098970 -0.375187
vn 0.921651 0.098970 -0.375187
vn 0.380010 0.117992 -0.917426
vn 0.380010 0.117992 -0.917426
vn 0.380010 0.117992 -0.917426
vn 0.380010 0.117992 -0.917426
vn 0.380010 0.117992 -0.917426
vn 0.380010 0.117992 -0.917426
vn -0.386309 0.100789 -0.916846
vn -0.386309 0.100789 -0.916846
vn -0.386309 0.100789 -0.916846
vn -0.386309 0.100789 -0.916846
vn -0.386309 0.100789 -0.916846
vn -0.386309 0.100789 -0.916846
vn -0.918999 0.102650 -0.380662
vn -0.918999 0.102650 -0.380662
vn -0.918999 0.102650 -0.380662
vn -0.918999 0.102650 -0.380662
vn -0.918999 0.102650 -0.380662
vn -0.918999 0.102650 -0.380662
vn -0.919482 0.097445 0.380863
vn -0.919482 0.097445 0.380863
vn -0.919482 0.097445 0.380863
vn -0.919482 0.097445 0.380863
vn -0.919482 0.097445 0.380863
vn -0.919482 0.097445 0.380863
vn -0.380969 0.094549 0.919741
vn -0.380969 0.094549 0.919741
vn -0.380969 0.094549 0.919741
vn -0.380969 0.094549 0.919741
vn -0.380969 0.094549 0.919741
vn -0.380969 0.094549 0.919741
vn 0.380928 0.095666 0.919642
vn 0.380928 0.095666 0.919642
vn 0.380928 0.095666 0.919642
vn 0.380928 0.095666 0.919642
vn 0.380928 0.095666 0.919642
vn 0.380928 0.095666 0.919642
vn 0.906368 0.193776 0.375430
vn 0.906368 0.193776 0.375430
vn 0.906368 0.193776 0.375430
vn 0.906368 0.193776 0.375430
vn 0.906368 0.193776 0.375430
vn 0.906368 0.193776 0.375430
vn 0.906886 0.204238 -0.368570
vn 0.906886 0.204238 -0.368570
vn 0.906886 0.204238 -0.368570
vn 0.906886 0.204238 -0.368570
vn 0.906886 0.204238 -0.368570
vn 0.906886 0.204238 -0.368570
vn 0.374917 0.200443 -0.905130
vn 0.374917 0.200443 -0.905130
vn 0.374917 0.200443 -0.905130
vn 0.374917 0.200443 -0.905130
vn 0.374917 0.200443 -0.905130
vn 0.374917 0.200443 -0.905130
vn -0.380162 0.209441 -0.900895
vn -0.380162 0.209441 -0.900895
vn -0.380162 0.209441 -0.900895
vn -0.380162 0.209441 -0.900895
vn -0.380162 0.209441 -0.900895
vn -0.380162 0.209441 -0.900895
vn -0.904992 0.201171 -0.374860
vn -0.904992 0.201171 -0.374860
vn -0.904992 0.201171 -0.374860
vn -0.904992 0.201171 -0.374860
vn -0.904992 0.201171 -0.374860
vn -0.904992 0.201171 -0.374860
vn -0.906368 0.193776 0.375430
vn -0.906368 0.193776 0.375430
vn -0.906368 0.193776 0.375430
vn -0.906368 0.193776 0.375430
vn -0.906368 0.193776 0.375430
vn -0.906368 0.193776 0.375430
vn -0.375821 0.188528 0.907313
vn -0.375821 0.188528 0.907312
vn -0.375821 0.188528 0.907313
vn -0.375821 0.188528 0.907313
vn -0.375821 0.188528 0.907312
vn -0.375821 0.188528 0.907313
vn 0.375821 0.188528 0.907312
vn 0.375821 0.188528 0.907312
vn 0.375821 0.188528 0.907312
vn 0.375821 0.188528 0.907312
vn 0.375821 0.188528 0.907312
vn 0.375821 0.188528 0.907312
vn 0.900517 0.223460 0.373007
vn 0.900517 0.223460 0.373007
vn 0.900517 0.223460 0.373007
vn 0.900517 0.223460 0.373007
vn 0.900517 0.223460 0.373007
vn 0.900517 0.223460 0.373007
vn 0.900517 0.223460 -0.373007
vn 0.900517 0.223460 -0.373007
vn 0.900517 0.223460 -0.373007
vn 0.900517 0.223460 -0.373007
vn 0.900517 0.223460 -0.373007
vn 0.900517 0.223460 -0.373007
vn 0.373007 0.223460 -0.900517
vn 0.373007 0.223460 -0.900517
vn 0.373007 0.223460 -0.900517
vn 0.373007 0.223460 -0.900517
vn 0.373007 0.223460 -0.900517
vn 0.373007 0.223460 -0.900517
vn -0.373007 0.223460 -0.900517
vn -0.373007 0.223460 -0.900517
vn -0.373007 0.223460 -0.900517
vn -0.373007 0.223460 -0.900517
vn -0.373007 0.223460 -0.900517
vn -0.373007 0.223460 -0.900517
vn -0.900517 0.223460 -0.373007
vn -0.900517 0.223460 -0.373007
vn -0.900517 0.223460 -0.373007
vn -0.900517 0.223460 -0.373007
vn -0.900517 0.223460 -0.373007
vn -0.900517 0.223460 -0.373007
vn -0.900517 0.223460 0.373007
vn -0.900517 0.223460 0.373007
vn -0.900517 0.223460 0.373007
vn -0.900517 0.223460 0.373007
vn -0.900517 0.223460 0.373007
vn -0.900517 0.223460 0.373007
vn -0.373007 0.223460 0.900517
vn -0.373007 0.223460 0.900517
vn -0.373007 0.223460 0.900517
vn -0.373007 0.223460 0.900517
vn -0.373007 0.223460 0.900517
vn -0.373007 0.223460 0.900517
vn 0.373007 0.223460 0.900517
vn 0.373007 0.223460 0.900517
vn 0.373007 0.223460 0.900517
vn 0.373007 0.223460 0.900517
vn 0.373007 0.223460 0.900517
vn 0.373007 0.223460 0.900517
vn 0.145233 -0.987567 0.060157
vn 0.145233 -0.987567 0.060157
vn 0.145233 -0.987567 0.060157
vn 0.145231 -0.987567 -0.060157
vn 0.145231 -0.987567 -0.060157
vn 0.145231 -0.987567 -0.060157
vn 0.060159 -0.987567 -0.145231
vn 0.060159 -0.987567 -0.145231
vn 0.060159 -0.987567 -0.145231
vn -0.060159 -0.987567 -0.145231
vn -0.060159 -0.987567 -0.145231
vn -0.060159 -0.987567 -0.145231
vn -0.145231 -0.987567 -0.060157
vn -0.145231 -0.987567 -0.060157
vn -0.145231 -0.987567 -0.060157
vn -0.145233 -0.987567 0.060157
vn -0.145233 -0.987567 0.060157
vn -0.145233 -0.987567 0.060157
vn -0.060154 -0.987567 0.145231
vn -0.060154 -0.987567 0.145231
vn -0.060154 -0.987567 0.145231
vn 0.060156 -0.987567 0.145231
vn 0.060156 -0.987567 0.145231
vn 0.060156 -0.987567 0.145231
vn 0.888865 0.272695 0.368179
vn 0.888865 0.272695 0.368179
vn 0.888865 0.272695 0.368179
vn 0.888865 0.272696 -0.368180
vn 0.888865 0.272696 -0.368180
vn 0.888865 0.272696 -0.368180
vn 0.368182 0.272695 -0.888864
vn 0.368182 0.272695 -0.888864
vn 0.368182 0.272695 -0.888864
vn -0.368181 0.272696 -0.888864
vn -0.368181 0.272696 -0.888864
vn -0.368181 0.272696 -0.888864
vn -0.888864 0.272696 -0.368181
vn -0.888864 0.272696 -0.368181
vn -0.888864 0.272696 -0.368181
vn -0.888865 0.272695 0.368180
vn -0.888865 0.272695 0.368180
vn -0.888865 0.272695 0.368180
vn -0.368180 0.272696 0.888865
vn -0.368180 0.272696 0.888865
vn -0.368180 0.272696 0.888865
vn 0.368179 0.272696 0.888865
vn 0.368179 0.272696 0.888865
vn 0.368179 0.272696 0.888865
s off
g polySurface2
usemtl None
f 1/1/1 2/2/2 9/3/3
f 9/3/4 2/2/5 10/4/6
f 2/2/7 3/5/8 10/4/9
f 10/4/10 3/5/11 11/6/12
f 3/5/13 4/7/14 11/6/15
f 11/6/16 4/7/17 12/8/18
f 4/7/19 5/9/20 12/8/21
f 12/8/22 5/9/23 13/10/24
f 5/9/25 6/11/26 13/10/27
f 13/10/28 6/11/29 14/12/30
f 6/11/31 7/13/32 14/12/33
f 14/12/34 7/13/35 15/14/36
f 7/13/37 8/15/38 15/14/39
f 15/14/40 8/15/41 16/16/42
f 8/15/43 1/1/44 16/16/45
f 16/16/46 1/1/47 9/3/48
f 9/3/49 10/4/50 17/17/51
f 17/17/52 10/4/53 18/18/54
f 10/4/55 11/6/56 18/18/57
f 18/18/58 11/6/59 19/19/60
f 11/6/61 12/8/62 19/19/63
f 19/19/64 12/8/65 20/20/66
f 12/8/67 13/10/68 20/20/69
f 20/20/70 13/10/71 21/21/72
f 13/10/73 14/12/74 21/21/75
f 21/21/76 14/12/77 22/22/78
f 14/12/79 15/14/80 22/22/81
f 22/22/82 15/14/83 23/23/84
f 15/14/85 16/16/86 23/23/87
f 23/23/88 16/16/89 24/24/90
f 16/16/91 9/3/92 24/24/93
f 24/24/94 9/3/95 17/17/96
f 17/17/97 18/18/98 25/25/99
f 25/25/100 18/18/101 26/26/102
f 18/18/103 19/19/104 26/26/105
f 26/26/106 19/19/107 27/27/108
f 20/20/109 28/28/110 19/19/111
f 19/19/112 28/28/113 27/27/114
f 21/21/115 29/29/116 20/20/117
f 20/20/118 29/29/119 28/28/120
f 22/22/121 30/30/122 21/21/123
f 21/21/124 30/30/125 29/29/126
f 23/23/127 31/31/128 22/22/129
f 22/22/130 31/31/131 30/30/132
f 23/23/133 24/24/134 31/31/135
f 31/31/136 24/24/137 32/32/138
f 24/24/139 17/17/140 32/32/141
f 32/32/142 17/17/143 25/25/144
f 26/26/145 34/33/146 25/25/147
f 25/25/148 34/33/149 33/34/150
f 27/27/151 35/35/152 26/26/153
f 26/26/154 35/35/155 34/33/156
f 28/28/157 36/36/158 27/27/159
f 27/27/160 36/36/161 35/35/162
f 28/28/163 29/29/164 36/36/165
f 36/36/166 29/29/167 37/37/168
f 29/29/169 30/30/170 37/37/171
f 37/37/172 30/30/173 38/38/174
f 30/30/175 31/31/176 38/38/177
f 38/38/178 31/31/179 39/39/180
f 31/31/181 32/32/182 39/39/183
f 39/39/184 32/32/185 40/40/186
f 25/25/187 33/34/188 32/32/189
f 32/32/190 33/34/191 40/40/192
f 34/33/193 42/41/194 33/34/195
f 33/34/196 42/41/197 41/42/198
f 35/35/199 43/43/200 34/33/201
f 34/33/202 43/43/203 42/41/204
f 36/36/205 44/44/206 35/35/207
f 35/35/208 44/44/209 43/43/210
f 36/36/211 37/37/212 44/44/213
f 44/44/214 37/37/215 45/45/216
f 37/37/217 38/38/218 45/45/219
f 45/45/220 38/38/221 46/46/222
f 38/38/223 39/39/224 46/46/225
f 46/46/226 39/39/227 47/47/228
f 39/39/229 40/40/230 47/47/231
f 47/47/232 40/40/233 48/48/234
f 33/34/235 41/42/236 40/40/237
f 40/40/238 41/42/239 48/48/240
f 41/42/241 42/41/242 49/49/243
f 49/49/244 42/41/245 50/50/246
f 42/41/247 43/43/248 50/50/249
f 50/50/250 43/43/251 51/51/252
f 43/43/253 44/44/254 51/51/255
f 51/51/256 44/44/257 52/52/258
f 44/44/259 45/45/260 52/52/261
f 52/52/262 45/45/263 53/53/264
f 45/45/265 46/46/266 53/53/267
f 53/53/268 46/46/269 54/54/270
f 46/46/271 47/47/272 54/54/273
f 54/54/274 47/47/275 55/55/276
f 47/47/277 48/48/278 55/55/279
f 55/55/280 48/48/281 56/56/282
f 48/48/283 41/42/284 56/56/285
f 56/56/286 41/42/287 49/49/288
f 2/2/289 1/1/290 57/57/291
f 3/5/292 2/2/293 57/57/294
f 4/7/295 3/5/296 57/57/297
f 5/9/298 4/7/299 57/57/300
f 6/11/301 5/9/302 57/57/303
f 7/13/304 6/11/305 57/57/306
f 8/15/307 7/13/308 57/57/309
f 1/1/310 8/15/311 57/57/312
f 49/49/313 50/50/314 58/58/315
f 50/50/316 51/51/317 58/58/318
f 51/51/319 52/52/320 58/58/321
f 52/52/322 53/53/323 58/58/324
f 53/53/325 54/54/326 58/58/327
f 54/54/328 55/55/329 58/58/330
f 55/55/331 56/56/332 58/58/333
f 56/56/334 49/49/335 58/58/336
