# This file uses centimeters as units for non-parametric coordinates.

mtllib LampentArms.mtl
g default
v -6.115146 -1.667650 0.680942
v -6.115146 -1.667650 -0.680942
v -6.516280 -1.590743 0.680942
v -6.516280 -1.590743 -0.680942
v -0.000636 -0.175915 0.427966
v -0.000636 -0.175915 -0.427966
v -0.000636 0.232527 0.427966
v -0.000636 0.232527 -0.427966
v -9.748649 -1.110048 0.554454
v -9.748649 -1.110048 -0.554454
v -10.120011 -0.940005 0.554454
v -10.120011 -0.940005 -0.554454
v -8.500156 -3.991626 0.617698
v -8.500156 -3.991626 -0.617697
v -8.547107 -4.397360 0.617698
v -8.547107 -4.397360 -0.617697
v -6.256876 0.232527 0.491210
v -6.256876 0.232527 -0.491210
v -6.256876 -0.175915 0.491210
v -6.256876 -0.175915 -0.491210
v -6.868115 -3.261739 0.649320
v -6.868115 -3.261739 -0.649319
v -6.512432 -3.462521 0.649320
v -6.512432 -3.462521 -0.649320
v -10.257010 -3.049854 0.586076
v -10.257010 -3.049854 -0.586076
v -9.927856 -2.808022 0.586076
v -9.927856 -2.808022 -0.586076
v -8.004823 -0.175915 0.522833
v -8.004823 -0.175915 -0.522832
v -8.004823 0.232527 0.522833
v -8.004823 0.232527 -0.522832
v -4.508931 0.232527 0.459588
v -4.508931 0.232527 -0.459588
v -4.508931 -0.175915 0.459588
v -4.508931 -0.175915 -0.459588
v -2.889263 0.232527 0.443778
v -2.889263 0.232527 -0.443778
v -2.889263 -0.175915 0.443778
v -2.889263 -0.175915 -0.443778
v -1.444949 0.232527 0.435872
v -1.444949 0.232527 -0.435872
v -1.444949 -0.175915 0.435872
v -1.444949 -0.175915 -0.435872
v 10.885479 7.359002 0.680942
v 10.885479 7.359002 -0.680942
v 11.250071 7.543107 -0.680942
v 11.250071 7.543107 0.680942
v 11.755230 5.992950 -0.649320
v 11.755230 5.992950 0.649319
v 1.443678 0.232527 -0.435872
v 1.443678 0.232527 0.435872
v 11.347276 5.973054 -0.649320
v 1.443678 -0.175915 0.435872
v 9.544537 1.691660 0.554454
v 9.544537 1.691660 -0.554454
v 8.120913 0.956801 -0.522833
v 8.120913 0.956801 0.522832
v 9.254471 1.979208 0.554454
v 9.254471 1.979208 -0.554454
v 10.317636 3.014109 -0.586076
v 10.317636 3.014109 0.586076
v 8.014952 1.351259 -0.522833
v 10.692810 2.852649 0.586076
v 11.581548 4.435106 0.617697
v 11.581548 4.435106 -0.617698
v 10.692810 2.852649 -0.586076
v 11.226114 4.636329 -0.617698
v 11.226114 4.636329 0.617697
v 11.347276 5.973054 0.649320
v 6.326851 0.897794 0.491210
v 6.326851 0.897794 -0.491210
v 8.014952 1.351259 0.522832
v 6.432813 0.503336 0.491210
v 6.432813 0.503336 -0.491210
v 4.744711 0.049869 -0.459588
v 4.744711 0.049869 0.459588
v 4.638750 0.444327 -0.459588
v 4.638750 0.444327 0.459588
v 2.887990 -0.175915 -0.443778
v 2.887990 -0.175915 0.443778
v 2.887990 0.232527 -0.443778
v 2.887990 0.232527 0.443778
v 1.443678 -0.175915 -0.435872
vt 0.251433 0.290066
vt 0.251433 0.290066
vt 0.236908 0.292851
vt 0.236908 0.292851
vt 0.224167 0.232342
vt 0.224167 0.232342
vt 0.472850 0.358875
vt 0.472850 0.358875
vt 0.420549 0.358875
vt 0.420549 0.358875
vt 0.237047 0.225071
vt 0.472850 0.344085
vt 0.420549 0.344085
vt 0.119858 0.310258
vt 0.119858 0.310258
vt 0.183005 0.344085
vt 0.183005 0.344085
vt 0.106410 0.316416
vt 0.106410 0.316416
vt 0.101449 0.240014
vt 0.101449 0.240014
vt 0.183005 0.358875
vt 0.113369 0.248771
vt 0.165068 0.205911
vt 0.165068 0.205911
vt 0.113369 0.248771
vt 0.163368 0.191219
vt 0.163368 0.191219
vt 0.237047 0.225071
vt 0.246301 0.358875
vt 0.246301 0.358875
vt 0.183005 0.358875
vt 0.246301 0.344085
vt 0.246301 0.344085
vt 0.309597 0.344085
vt 0.309597 0.344085
vt 0.309597 0.358875
vt 0.309597 0.358875
vt 0.368248 0.344085
vt 0.368248 0.344085
vt 0.368248 0.358875
vt 0.368248 0.358875
vt 0.420549 0.344085
vt 0.472850 0.344085
vt 0.867056 0.616937
vt 0.880258 0.623604
vt 0.867056 0.616937
vt 0.880258 0.623604
vt 0.898551 0.567470
vt 0.898551 0.567470
vt 0.525152 0.358875
vt 0.525152 0.358875
vt 0.883778 0.566750
vt 0.525152 0.344085
vt 0.818498 0.411713
vt 0.766946 0.385102
vt 0.818498 0.411713
vt 0.766946 0.385102
vt 0.807994 0.422125
vt 0.846493 0.459601
vt 0.807994 0.422125
vt 0.846493 0.459601
vt 0.763109 0.399386
vt 0.860079 0.453754
vt 0.892261 0.511058
vt 0.892261 0.511058
vt 0.860079 0.453754
vt 0.879390 0.518344
vt 0.879390 0.518344
vt 0.883778 0.566750
vt 0.701980 0.382966
vt 0.763109 0.399386
vt 0.701980 0.382966
vt 0.705817 0.368681
vt 0.644688 0.352261
vt 0.705817 0.368681
vt 0.644688 0.352261
vt 0.640851 0.366545
vt 0.640851 0.366545
vt 0.577453 0.344085
vt 0.577453 0.344085
vt 0.577453 0.358875
vt 0.577453 0.358875
vt 0.525152 0.344085
vn 0.188294 0.982113 0.000000
vn 0.188294 0.982113 0.000000
vn 0.188294 0.982113 0.000000
vn 0.188294 0.982113 0.000000
vn 0.188294 0.982113 0.000000
vn 0.188294 0.982113 0.000000
vn -0.978544 0.206037 0.000000
vn -0.978544 0.206037 0.000000
vn -0.782393 0.622785 0.000000
vn -0.782393 0.622785 0.000000
vn -0.978544 0.206037 0.000000
vn -0.782393 0.622785 0.000000
vn 0.000000 1.000000 0.000000
vn 0.000000 1.000000 0.000000
vn 0.000000 1.000000 0.000000
vn 0.000000 1.000000 0.000000
vn 0.000000 1.000000 0.000000
vn 0.000000 1.000000 0.000000
vn -0.009462 -0.012824 -0.999873
vn -0.010356 -0.011704 -0.999878
vn -0.006203 -0.016904 -0.999838
vn -0.006203 -0.016904 -0.999838
vn -0.010356 -0.011704 -0.999878
vn -0.006203 -0.016904 -0.999838
vn 0.005473 0.000000 0.999985
vn 0.005473 0.000000 0.999985
vn 0.005473 0.000000 0.999985
vn 0.005473 0.000000 0.999985
vn 0.005473 0.000000 0.999985
vn 0.005473 0.000000 0.999985
vn 0.819567 -0.572984 0.000000
vn 0.819567 -0.572984 0.000000
vn 0.268314 -0.963331 0.000000
vn 0.268314 -0.963331 0.000000
vn 0.819567 -0.572984 0.000000
vn 0.268314 -0.963331 0.000000
vn -0.835924 0.548846 0.000000
vn -0.835924 0.548846 0.000000
vn -0.902157 -0.431409 0.000000
vn -0.902157 -0.431409 0.000000
vn -0.835924 0.548846 0.000000
vn -0.902157 -0.431409 0.000000
vn 0.004783 0.012545 -0.999910
vn 0.015605 0.003249 -0.999873
vn 0.006204 0.011626 -0.999913
vn 0.006204 0.011626 -0.999913
vn 0.015605 0.003249 -0.999873
vn 0.014630 0.004525 -0.999883
vn 0.006204 0.011626 0.999913
vn 0.004783 0.012545 0.999910
vn -0.007361 0.012623 0.999893
vn -0.007361 0.012623 0.999893
vn 0.004783 0.012545 0.999910
vn -0.009248 0.011244 0.999894
vn 0.124099 0.992270 0.000000
vn 0.124099 0.992270 0.000000
vn 0.909266 0.416216 0.000000
vn 0.909266 0.416216 0.000000
vn 0.124099 0.992270 0.000000
vn 0.909266 0.416216 0.000000
vn -0.013861 0.000721 -0.999904
vn -0.009248 0.011244 -0.999894
vn -0.013859 0.000818 -0.999904
vn -0.013859 0.000818 -0.999904
vn -0.009248 0.011244 -0.999894
vn -0.007361 0.012623 -0.999893
vn -0.088435 -0.996082 0.000000
vn -0.088434 -0.996082 0.000000
vn 0.757795 -0.652493 0.000000
vn 0.757795 -0.652493 0.000000
vn -0.088434 -0.996082 0.000000
vn 0.757795 -0.652493 0.000000
vn -0.013859 0.000817 0.999904
vn -0.013861 0.000721 0.999904
vn -0.010355 -0.011705 0.999878
vn -0.010355 -0.011705 0.999878
vn -0.013861 0.000721 0.999904
vn -0.009461 -0.012825 0.999873
vn 0.000000 1.000000 0.000000
vn 0.000000 1.000000 0.000000
vn -0.300020 0.953933 0.000000
vn -0.300020 0.953933 0.000000
vn 0.000000 1.000000 0.000000
vn -0.300020 0.953933 0.000000
vn 0.018088 0.000000 0.999836
vn 0.018088 0.000000 0.999836
vn 0.014630 0.004525 0.999883
vn 0.014630 0.004525 0.999883
vn 0.018088 0.000000 0.999836
vn 0.015605 0.003249 0.999873
vn 0.000000 -1.000000 0.000000
vn 0.000000 -1.000000 0.000000
vn 0.000000 -1.000000 0.000000
vn 0.000000 -1.000000 0.000000
vn 0.000000 -1.000000 0.000000
vn 0.000000 -1.000000 0.000000
vn 0.018088 0.000000 -0.999836
vn 0.018088 0.000000 -0.999836
vn 0.014084 0.000000 -0.999901
vn 0.014084 0.000000 -0.999901
vn 0.018088 0.000000 -0.999836
vn 0.014084 0.000000 -0.999901
vn -0.782393 0.622785 0.000000
vn -0.782393 0.622785 0.000000
vn 0.124099 0.992270 0.000000
vn 0.124099 0.992270 0.000000
vn -0.782393 0.622785 0.000000
vn 0.124099 0.992270 0.000000
vn -0.009462 -0.012824 -0.999873
vn -0.013861 0.000721 -0.999904
vn -0.010356 -0.011704 -0.999878
vn -0.010356 -0.011704 -0.999878
vn -0.013861 0.000721 -0.999904
vn -0.013859 0.000818 -0.999904
vn 0.757795 -0.652493 0.000000
vn 0.757795 -0.652493 0.000000
vn 0.976368 -0.216114 0.000000
vn 0.976368 -0.216114 0.000000
vn 0.757795 -0.652493 0.000000
vn 0.976368 -0.216114 0.000000
vn -0.009461 -0.012825 0.999873
vn -0.006202 -0.016904 0.999838
vn -0.010355 -0.011705 0.999878
vn -0.010355 -0.011705 0.999878
vn -0.006202 -0.016904 0.999838
vn -0.006202 -0.016904 0.999838
vn -0.902157 -0.431409 0.000000
vn -0.902157 -0.431409 0.000000
vn -0.088435 -0.996082 0.000000
vn -0.088435 -0.996082 0.000000
vn -0.902157 -0.431409 0.000000
vn -0.088434 -0.996082 0.000000
vn -0.007361 0.012623 0.999893
vn -0.009248 0.011244 0.999894
vn -0.013859 0.000817 0.999904
vn -0.013859 0.000817 0.999904
vn -0.009248 0.011244 0.999894
vn -0.013861 0.000721 0.999904
vn 0.909266 0.416216 0.000000
vn 0.909266 0.416216 0.000000
vn 0.819567 -0.572984 0.000000
vn 0.819567 -0.572984 0.000000
vn 0.909266 0.416216 0.000000
vn 0.819567 -0.572984 0.000000
vn -0.009248 0.011244 -0.999894
vn 0.004783 0.012545 -0.999910
vn -0.007361 0.012623 -0.999893
vn -0.007361 0.012623 -0.999893
vn 0.004783 0.012545 -0.999910
vn 0.006204 0.011626 -0.999913
vn 0.268314 -0.963331 0.000000
vn 0.268314 -0.963331 0.000000
vn 0.000000 -1.000000 0.000000
vn 0.000000 -1.000000 0.000000
vn 0.268314 -0.963331 0.000000
vn 0.000000 -1.000000 0.000000
vn 0.014630 0.004525 -0.999883
vn 0.015605 0.003249 -0.999873
vn 0.018088 0.000000 -0.999836
vn 0.018088 0.000000 -0.999836
vn 0.015605 0.003249 -0.999873
vn 0.018088 0.000000 -0.999836
vn -0.300020 0.953933 0.000000
vn -0.300020 0.953933 0.000000
vn -0.835924 0.548846 0.000000
vn -0.835924 0.548846 0.000000
vn -0.300020 0.953933 0.000000
vn -0.835924 0.548846 0.000000
vn 0.014630 0.004525 0.999883
vn 0.015605 0.003249 0.999873
vn 0.006204 0.011626 0.999913
vn 0.006204 0.011626 0.999913
vn 0.015605 0.003249 0.999873
vn 0.004783 0.012545 0.999910
vn 0.000000 1.000000 0.000000
vn 0.000000 1.000000 0.000000
vn 0.000000 1.000000 0.000000
vn 0.000000 1.000000 0.000000
vn 0.000000 1.000000 0.000000
vn 0.000000 1.000000 0.000000
vn 0.014084 0.000000 0.999901
vn 0.014084 0.000000 0.999901
vn 0.018088 0.000000 0.999836
vn 0.018088 0.000000 0.999836
vn 0.014084 0.000000 0.999901
vn 0.018088 0.000000 0.999836
vn 0.000000 -1.000000 0.000000
vn 0.000000 -1.000000 0.000000
vn 0.000000 -1.000000 0.000000
vn 0.000000 -1.000000 0.000000
vn 0.000000 -1.000000 0.000000
vn 0.000000 -1.000000 0.000000
vn 0.014084 0.000000 -0.999901
vn 0.014084 0.000000 -0.999901
vn 0.007740 0.000000 -0.999970
vn 0.007740 0.000000 -0.999970
vn 0.014084 0.000000 -0.999901
vn 0.007740 0.000000 -0.999970
vn 0.000000 1.000000 0.000000
vn 0.000000 1.000000 0.000000
vn 0.000000 1.000000 0.000000
vn 0.000000 1.000000 0.000000
vn 0.000000 1.000000 0.000000
vn 0.000000 1.000000 0.000000
vn 0.007740 0.000000 0.999970
vn 0.007740 0.000000 0.999970
vn 0.014084 0.000000 0.999901
vn 0.014084 0.000000 0.999901
vn 0.007740 0.000000 0.999970
vn 0.014084 0.000000 0.999901
vn 0.000000 -1.000000 0.000000
vn 0.000000 -1.000000 0.000000
vn 0.000000 -1.000000 0.000000
vn 0.000000 -1.000000 0.000000
vn 0.000000 -1.000000 0.000000
vn 0.000000 -1.000000 0.000000
vn 0.007740 0.000000 -0.999970
vn 0.007740 0.000000 -0.999970
vn 0.005473 0.000000 -0.999985
vn 0.005473 0.000000 -0.999985
vn 0.007740 0.000000 -0.999970
vn 0.005473 0.000000 -0.999985
vn 0.000000 1.000000 0.000000
vn 0.000000 1.000000 0.000000
vn 0.000000 1.000000 0.000000
vn 0.000000 1.000000 0.000000
vn 0.000000 1.000000 0.000000
vn 0.000000 1.000000 0.000000
vn 0.005473 0.000000 0.999985
vn 0.005473 0.000000 0.999985
vn 0.007740 0.000000 0.999970
vn 0.007740 0.000000 0.999970
vn 0.005473 0.000000 0.999985
vn 0.007740 0.000000 0.999970
vn 0.000000 -1.000000 0.000000
vn 0.000000 -1.000000 0.000000
vn 0.000000 -1.000000 0.000000
vn 0.000000 -1.000000 0.000000
vn 0.000000 -1.000000 0.000000
vn 0.000000 -1.000000 0.000000
vn 0.005473 0.000000 -0.999985
vn 0.005473 0.000000 -0.999985
vn 0.005473 0.000000 -0.999985
vn 0.005473 0.000000 -0.999985
vn 0.005473 0.000000 -0.999985
vn 0.005473 0.000000 -0.999985
vn -0.450752 0.892649 0.000000
vn -0.450752 0.892649 0.000000
vn -0.450752 0.892649 0.000000
vn -0.450752 0.892649 0.000000
vn -0.450752 0.892649 0.000000
vn -0.450752 0.892649 0.000000
vn 0.950789 0.309840 0.000000
vn 0.993483 0.113983 0.000000
vn 0.950789 0.309840 0.000000
vn 0.950789 0.309840 0.000000
vn 0.993483 0.113983 0.000000
vn 0.993483 0.113983 0.000000
vn 0.000000 1.000000 0.000000
vn 0.000000 1.000000 0.000000
vn 0.000000 1.000000 0.000000
vn 0.000000 1.000000 0.000000
vn 0.000000 1.000000 0.000000
vn 0.000000 1.000000 0.000000
vn 0.005231 -0.019813 -0.999790
vn 0.005231 -0.019813 -0.999790
vn 0.000496 -0.020510 -0.999790
vn 0.000496 -0.020510 -0.999790
vn 0.005231 -0.019813 -0.999790
vn 0.000101 -0.020568 -0.999788
vn -0.005473 0.000000 0.999985
vn -0.005473 0.000000 0.999985
vn -0.005473 0.000000 0.999985
vn -0.005473 0.000000 0.999985
vn -0.005473 0.000000 0.999985
vn -0.005473 0.000000 0.999985
vn 0.598564 -0.801075 0.000000
vn 0.360995 -0.932568 0.000000
vn 0.598564 -0.801075 0.000000
vn 0.598564 -0.801075 0.000000
vn 0.360995 -0.932568 0.000000
vn 0.360995 -0.932568 0.000000
vn -0.590683 0.806904 0.000000
vn -0.806383 0.591394 0.000000
vn -0.590683 0.806904 0.000000
vn -0.590683 0.806904 0.000000
vn -0.806383 0.591394 0.000000
vn -0.806383 0.591394 0.000000
vn -0.014498 -0.014310 -0.999792
vn -0.017816 -0.007163 -0.999816
vn -0.015200 -0.013631 -0.999792
vn -0.015200 -0.013631 -0.999792
vn -0.017816 -0.007163 -0.999816
vn -0.017872 -0.007558 -0.999812
vn -0.009106 -0.016066 0.999830
vn -0.009707 -0.016328 0.999820
vn -0.014498 -0.014310 0.999792
vn -0.014498 -0.014310 0.999792
vn -0.009707 -0.016328 0.999820
vn -0.015200 -0.013631 0.999792
vn 0.949666 -0.313263 0.000000
vn 0.805965 -0.591963 0.000000
vn 0.949666 -0.313263 0.000000
vn 0.949666 -0.313263 0.000000
vn 0.805965 -0.591963 0.000000
vn 0.805965 -0.591963 0.000000
vn -0.006730 -0.017551 -0.999823
vn -0.009106 -0.016066 -0.999830
vn -0.006389 -0.018326 -0.999812
vn -0.006389 -0.018326 -0.999812
vn -0.009106 -0.016066 -0.999830
vn -0.009707 -0.016328 -0.999820
vn -0.947062 0.321052 0.000000
vn -0.991231 -0.132141 0.000000
vn -0.947062 0.321052 0.000000
vn -0.947062 0.321052 0.000000
vn -0.991231 -0.132141 0.000000
vn -0.991231 -0.132141 0.000000
vn -0.006730 -0.017551 0.999823
vn 0.000102 -0.020568 0.999789
vn -0.006388 -0.018327 0.999812
vn -0.006388 -0.018327 0.999812
vn 0.000102 -0.020568 0.999789
vn 0.000497 -0.020510 0.999790
vn -0.259428 0.965762 0.000000
vn -0.350661 0.936502 0.000000
vn -0.259428 0.965762 0.000000
vn -0.259428 0.965762 0.000000
vn -0.350661 0.936502 0.000000
vn -0.350661 0.936502 0.000000
vn -0.017469 -0.004692 0.999836
vn -0.017816 -0.007162 0.999816
vn -0.017469 -0.004692 0.999836
vn -0.017469 -0.004692 0.999836
vn -0.017816 -0.007162 0.999816
vn -0.017872 -0.007558 0.999812
vn 0.259428 -0.965762 0.000000
vn 0.190558 -0.981676 0.000000
vn 0.259428 -0.965762 0.000000
vn 0.259428 -0.965762 0.000000
vn 0.190558 -0.981676 0.000000
vn 0.190558 -0.981676 0.000000
vn -0.017469 -0.004693 -0.999837
vn -0.013190 -0.002973 -0.999909
vn -0.017469 -0.004693 -0.999837
vn -0.017469 -0.004693 -0.999837
vn -0.013190 -0.002973 -0.999909
vn -0.012791 -0.002812 -0.999914
vn 0.993483 0.113983 0.000000
vn 0.949666 -0.313263 0.000000
vn 0.993483 0.113983 0.000000
vn 0.993483 0.113983 0.000000
vn 0.949666 -0.313263 0.000000
vn 0.949666 -0.313263 0.000000
vn -0.006730 -0.017551 -0.999823
vn -0.006389 -0.018326 -0.999812
vn 0.000101 -0.020568 -0.999788
vn 0.000101 -0.020568 -0.999788
vn -0.006389 -0.018326 -0.999812
vn 0.000496 -0.020510 -0.999790
vn -0.991231 -0.132141 0.000000
vn -0.948722 -0.316113 0.000000
vn -0.991231 -0.132141 0.000000
vn -0.991231 -0.132141 0.000000
vn -0.948722 -0.316113 0.000000
vn -0.948722 -0.316113 0.000000
vn 0.000102 -0.020568 0.999789
vn 0.005232 -0.019813 0.999790
vn 0.000497 -0.020510 0.999790
vn 0.000497 -0.020510 0.999790
vn 0.005232 -0.019813 0.999790
vn 0.005232 -0.019813 0.999790
vn -0.806383 0.591394 0.000000
vn -0.947062 0.321052 0.000000
vn -0.806383 0.591394 0.000000
vn -0.806383 0.591394 0.000000
vn -0.947062 0.321052 0.000000
vn -0.947062 0.321052 0.000000
vn -0.006730 -0.017551 0.999823
vn -0.006388 -0.018327 0.999812
vn -0.009106 -0.016066 0.999830
vn -0.009106 -0.016066 0.999830
vn -0.006388 -0.018327 0.999812
vn -0.009707 -0.016328 0.999820
vn 0.805965 -0.591963 0.000000
vn 0.598564 -0.801075 0.000000
vn 0.805965 -0.591963 0.000000
vn 0.805965 -0.591963 0.000000
vn 0.598564 -0.801075 0.000000
vn 0.598564 -0.801075 0.000000
vn -0.009106 -0.016066 -0.999830
vn -0.014498 -0.014310 -0.999792
vn -0.009707 -0.016328 -0.999820
vn -0.009707 -0.016328 -0.999820
vn -0.014498 -0.014310 -0.999792
vn -0.015200 -0.013631 -0.999792
vn 0.360995 -0.932568 0.000000
vn 0.259428 -0.965762 0.000000
vn 0.360995 -0.932568 0.000000
vn 0.360995 -0.932568 0.000000
vn 0.259428 -0.965762 0.000000
vn 0.259428 -0.965762 0.000000
vn -0.017816 -0.007163 -0.999816
vn -0.017469 -0.004693 -0.999837
vn -0.017872 -0.007558 -0.999812
vn -0.017872 -0.007558 -0.999812
vn -0.017469 -0.004693 -0.999837
vn -0.017469 -0.004693 -0.999837
vn -0.350661 0.936502 0.000000
vn -0.590683 0.806904 0.000000
vn -0.350661 0.936502 0.000000
vn -0.350661 0.936502 0.000000
vn -0.590683 0.806904 0.000000
vn -0.590683 0.806904 0.000000
vn -0.014498 -0.014310 0.999792
vn -0.015200 -0.013631 0.999792
vn -0.017816 -0.007162 0.999816
vn -0.017816 -0.007162 0.999816
vn -0.015200 -0.013631 0.999792
vn -0.017872 -0.007558 0.999812
vn -0.192320 0.981332 0.000000
vn -0.259428 0.965762 0.000000
vn -0.192320 0.981332 0.000000
vn -0.192320 0.981332 0.000000
vn -0.259428 0.965762 0.000000
vn -0.259428 0.965762 0.000000
vn -0.013190 -0.002973 0.999909
vn -0.017469 -0.004692 0.999836
vn -0.012791 -0.002812 0.999914
vn -0.012791 -0.002812 0.999914
vn -0.017469 -0.004692 0.999836
vn -0.017469 -0.004692 0.999836
vn 0.190558 -0.981676 0.000000
vn 0.069290 -0.997597 0.000000
vn 0.190558 -0.981676 0.000000
vn 0.190558 -0.981676 0.000000
vn 0.069290 -0.997597 0.000000
vn 0.069290 -0.997597 0.000000
vn -0.013190 -0.002973 -0.999909
vn -0.007161 -0.000609 -0.999974
vn -0.012791 -0.002812 -0.999914
vn -0.012791 -0.002812 -0.999914
vn -0.007161 -0.000609 -0.999974
vn -0.007281 -0.000653 -0.999973
vn -0.067208 0.997739 0.000000
vn -0.192320 0.981332 0.000000
vn -0.067208 0.997739 0.000000
vn -0.067208 0.997739 0.000000
vn -0.192320 0.981332 0.000000
vn -0.192320 0.981332 0.000000
vn -0.013190 -0.002973 0.999909
vn -0.012791 -0.002812 0.999914
vn -0.007161 -0.000609 0.999974
vn -0.007161 -0.000609 0.999974
vn -0.012791 -0.002812 0.999914
vn -0.007281 -0.000653 0.999973
vn 0.069290 -0.997597 0.000000
vn 0.000000 -1.000000 0.000000
vn 0.069290 -0.997597 0.000000
vn 0.069290 -0.997597 0.000000
vn 0.000000 -1.000000 0.000000
vn 0.000000 -1.000000 0.000000
vn -0.007161 -0.000609 -0.999974
vn -0.005473 0.000000 -0.999985
vn -0.007281 -0.000653 -0.999973
vn -0.007281 -0.000653 -0.999973
vn -0.005473 0.000000 -0.999985
vn -0.005473 0.000000 -0.999985
vn 0.000000 1.000000 0.000000
vn -0.067208 0.997739 0.000000
vn 0.000000 1.000000 0.000000
vn 0.000000 1.000000 0.000000
vn -0.067208 0.997739 0.000000
vn -0.067208 0.997739 0.000000
vn -0.005473 0.000000 0.999985
vn -0.007161 -0.000609 0.999974
vn -0.005473 0.000000 0.999985
vn -0.005473 0.000000 0.999985
vn -0.007161 -0.000609 0.999974
vn -0.007281 -0.000653 0.999973
vn 0.000000 -1.000000 0.000000
vn 0.000000 -1.000000 0.000000
vn 0.000000 -1.000000 0.000000
vn 0.000000 -1.000000 0.000000
vn 0.000000 -1.000000 0.000000
vn 0.000000 -1.000000 0.000000
vn -0.005473 0.000000 -0.999985
vn -0.005473 0.000000 -0.999985
vn -0.005473 0.000000 -0.999985
vn -0.005473 0.000000 -0.999985
vn -0.005473 0.000000 -0.999985
vn -0.005473 0.000000 -0.999985
s off
g polySurface4
usemtl None
f 1/1/1 2/2/2 3/3/3
f 3/3/4 2/2/5 4/4/6
f 3/3/7 4/4/8 21/5/9
f 21/5/10 4/4/11 22/6/12
f 7/7/13 8/8/14 41/9/15
f 41/9/16 8/8/17 42/10/18
f 24/11/19 22/6/20 2/2/21
f 2/2/22 22/6/23 4/4/24
f 7/7/25 41/9/26 5/12/27
f 5/12/28 41/9/29 43/13/30
f 9/14/31 10/15/32 29/16/33
f 29/16/34 10/15/35 30/17/36
f 11/18/37 12/19/38 25/20/39
f 25/20/40 12/19/41 26/21/42
f 12/19/43 32/22/44 10/15/45
f 10/15/46 32/22/47 30/17/48
f 9/14/49 11/18/50 27/23/51
f 27/23/52 11/18/53 25/20/54
f 13/24/55 14/25/56 27/23/57
f 27/23/58 14/25/59 28/26/60
f 16/27/61 26/21/62 14/25/63
f 14/25/64 26/21/65 28/26/66
f 15/28/67 16/27/68 23/29/69
f 23/29/70 16/27/71 24/11/72
f 13/24/73 15/28/74 21/5/75
f 21/5/76 15/28/77 23/29/78
f 17/30/79 18/31/80 31/32/81
f 31/32/82 18/31/83 32/22/84
f 19/33/85 17/30/86 29/16/87
f 29/16/88 17/30/89 31/32/90
f 19/33/91 20/34/92 35/35/93
f 35/35/94 20/34/95 36/36/96
f 20/34/97 18/31/98 36/36/99
f 36/36/100 18/31/101 34/37/102
f 21/5/103 22/6/104 13/24/105
f 13/24/106 22/6/107 14/25/108
f 24/11/109 16/27/110 22/6/111
f 22/6/112 16/27/113 14/25/114
f 23/29/115 24/11/116 1/1/117
f 1/1/118 24/11/119 2/2/120
f 23/29/121 1/1/122 21/5/123
f 21/5/124 1/1/125 3/3/126
f 25/20/127 26/21/128 15/28/129
f 15/28/130 26/21/131 16/27/132
f 27/23/133 25/20/134 13/24/135
f 13/24/136 25/20/137 15/28/138
f 27/23/139 28/26/140 9/14/141
f 9/14/142 28/26/143 10/15/144
f 26/21/145 12/19/146 28/26/147
f 28/26/148 12/19/149 10/15/150
f 29/16/151 30/17/152 19/33/153
f 19/33/154 30/17/155 20/34/156
f 30/17/157 32/22/158 20/34/159
f 20/34/160 32/22/161 18/31/162
f 31/32/163 32/22/164 11/18/165
f 11/18/166 32/22/167 12/19/168
f 29/16/169 31/32/170 9/14/171
f 9/14/172 31/32/173 11/18/174
f 33/38/175 34/37/176 17/30/177
f 17/30/178 34/37/179 18/31/180
f 35/35/181 33/38/182 19/33/183
f 19/33/184 33/38/185 17/30/186
f 35/35/187 36/36/188 39/39/189
f 39/39/190 36/36/191 40/40/192
f 36/36/193 34/37/194 40/40/195
f 40/40/196 34/37/197 38/41/198
f 37/42/199 38/41/200 33/38/201
f 33/38/202 38/41/203 34/37/204
f 39/39/205 37/42/206 35/35/207
f 35/35/208 37/42/209 33/38/210
f 39/39/211 40/40/212 43/13/213
f 43/13/214 40/40/215 44/43/216
f 40/40/217 38/41/218 44/43/219
f 44/43/220 38/41/221 42/10/222
f 41/9/223 42/10/224 37/42/225
f 37/42/226 42/10/227 38/41/228
f 43/13/229 41/9/230 39/39/231
f 39/39/232 41/9/233 37/42/234
f 43/13/235 44/43/236 5/12/237
f 5/12/238 44/43/239 6/44/240
f 44/43/241 42/10/242 6/44/243
f 6/44/244 42/10/245 8/8/246
f 45/45/247 48/46/248 46/47/249
f 46/47/250 48/46/251 47/48/252
f 48/46/253 50/49/254 47/48/255
f 47/48/256 50/49/257 49/50/258
f 7/7/259 52/51/260 8/8/261
f 8/8/262 52/51/263 51/52/264
f 46/47/265 47/48/266 53/53/267
f 53/53/268 47/48/269 49/50/270
f 7/7/271 5/12/272 52/51/273
f 52/51/274 5/12/275 54/54/276
f 55/55/277 58/56/278 56/57/279
f 56/57/280 58/56/281 57/58/282
f 59/59/283 62/60/284 60/61/285
f 60/61/286 62/60/287 61/62/288
f 56/57/289 57/58/290 60/61/291
f 60/61/292 57/58/293 63/63/294
f 64/64/295 62/60/296 55/55/297
f 55/55/298 62/60/299 59/59/300
f 65/65/301 64/64/302 66/66/303
f 66/66/304 64/64/305 67/67/306
f 66/66/307 67/67/308 68/68/309
f 68/68/310 67/67/311 61/62/312
f 69/69/313 70/70/314 68/68/315
f 68/68/316 70/70/317 53/53/318
f 65/65/319 50/49/320 69/69/321
f 69/69/322 50/49/323 70/70/324
f 71/71/325 73/72/326 72/73/327
f 72/73/328 73/72/329 63/63/330
f 74/74/331 58/56/332 71/71/333
f 71/71/334 58/56/335 73/72/336
f 74/74/337 77/75/338 75/76/339
f 75/76/340 77/75/341 76/77/342
f 75/76/343 76/77/344 72/73/345
f 72/73/346 76/77/347 78/78/348
f 50/49/349 65/65/350 49/50/351
f 49/50/352 65/65/353 66/66/354
f 66/66/355 68/68/356 49/50/357
f 49/50/358 68/68/359 53/53/360
f 70/70/361 45/45/362 53/53/363
f 53/53/364 45/45/365 46/47/366
f 50/49/367 48/46/368 70/70/369
f 70/70/370 48/46/371 45/45/372
f 62/60/373 69/69/374 61/62/375
f 61/62/376 69/69/377 68/68/378
f 65/65/379 69/69/380 64/64/381
f 64/64/382 69/69/383 62/60/384
f 64/64/385 55/55/386 67/67/387
f 67/67/388 55/55/389 56/57/390
f 67/67/391 56/57/392 61/62/393
f 61/62/394 56/57/395 60/61/396
f 58/56/397 74/74/398 57/58/399
f 57/58/400 74/74/401 75/76/402
f 57/58/403 75/76/404 63/63/405
f 63/63/406 75/76/407 72/73/408
f 73/72/409 59/59/410 63/63/411
f 63/63/412 59/59/413 60/61/414
f 55/55/415 59/59/416 58/56/417
f 58/56/418 59/59/419 73/72/420
f 79/79/421 71/71/422 78/78/423
f 78/78/424 71/71/425 72/73/426
f 77/75/427 74/74/428 79/79/429
f 79/79/430 74/74/431 71/71/432
f 77/75/433 81/80/434 76/77/435
f 76/77/436 81/80/437 80/81/438
f 76/77/439 80/81/440 78/78/441
f 78/78/442 80/81/443 82/82/444
f 83/83/445 79/79/446 82/82/447
f 82/82/448 79/79/449 78/78/450
f 77/75/451 79/79/452 81/80/453
f 81/80/454 79/79/455 83/83/456
f 81/80/457 54/54/458 80/81/459
f 80/81/460 54/54/461 84/84/462
f 80/81/463 84/84/464 82/82/465
f 82/82/466 84/84/467 51/52/468
f 52/51/469 83/83/470 51/52/471
f 51/52/472 83/83/473 82/82/474
f 54/54/475 81/80/476 52/51/477
f 52/51/478 81/80/479 83/83/480
f 54/54/481 5/12/482 84/84/483
f 84/84/484 5/12/485 6/44/486
f 84/84/487 6/44/488 51/52/489
f 51/52/490 6/44/491 8/8/492
