# This file uses centimeters as units for non-parametric coordinates.

mtllib LampentSFlame.mtl
g default
v 0.156049 -0.005191 0.090095
v 0.156049 -0.005191 -0.090095
v 0.000000 -0.005191 -0.180190
v -0.156049 -0.005191 -0.090095
v -0.156049 -0.005191 0.090095
v 0.000000 -0.005191 0.180190
v 0.270285 0.274593 0.156049
v 0.270285 0.274593 -0.156049
v 0.000000 0.274593 -0.312098
v -0.270285 0.274593 -0.156049
v -0.270285 0.274593 0.156049
v 0.000000 0.274593 0.312098
v 0.312098 0.603949 0.180190
v 0.312098 0.603949 -0.180190
v 0.000000 0.603949 -0.360380
v -0.312098 0.603949 -0.180190
v -0.312098 0.603949 0.180190
v 0.000000 0.603949 0.360380
v 0.270285 0.933304 0.156049
v 0.270285 0.933304 -0.156049
v 0.000000 0.933304 -0.312098
v -0.270285 0.933304 -0.156049
v -0.270285 0.933304 0.156049
v 0.000000 0.933304 0.312098
v 0.156049 1.213088 0.090095
v 0.156049 1.213088 -0.090095
v 0.000000 1.213088 -0.180190
v -0.156049 1.213088 -0.090095
v -0.156049 1.213088 0.090095
v 0.000000 1.213088 0.180190
v 0.000000 -0.204784 0.000000
v 0.000000 1.412681 0.000000
vt 0.295183 0.815956
vt 0.295183 0.815956
vt 0.301490 0.831404
vt 0.301490 0.831404
vt 0.286567 0.815956
vt 0.286567 0.831404
vt 0.277952 0.815956
vt 0.271644 0.831404
vt 0.277952 0.815956
vt 0.271644 0.831404
vt 0.286567 0.815956
vt 0.286567 0.831404
vt 0.303799 0.849588
vt 0.303799 0.849588
vt 0.286567 0.849588
vt 0.269336 0.849588
vt 0.269336 0.849588
vt 0.286567 0.849588
vt 0.301490 0.867772
vt 0.301490 0.867772
vt 0.286567 0.867772
vt 0.271644 0.867772
vt 0.271644 0.867772
vt 0.286567 0.867772
vt 0.295183 0.883220
vt 0.295183 0.883220
vt 0.286567 0.883220
vt 0.277952 0.883220
vt 0.277952 0.883220
vt 0.286567 0.883220
vt 0.286567 0.804936
vt 0.286567 0.894240
vn 0.925803 -0.378007 0.000000
vn 0.925803 -0.378007 0.000000
vn 0.925803 -0.378007 0.000000
vn 0.925803 -0.378007 0.000000
vn 0.925803 -0.378007 0.000000
vn 0.925803 -0.378007 0.000000
vn 0.462902 -0.378006 -0.801769
vn 0.462902 -0.378006 -0.801769
vn 0.462902 -0.378006 -0.801769
vn 0.462902 -0.378006 -0.801769
vn 0.462902 -0.378006 -0.801769
vn 0.462902 -0.378006 -0.801769
vn -0.462901 -0.378006 -0.801770
vn -0.462901 -0.378006 -0.801770
vn -0.462901 -0.378006 -0.801770
vn -0.462901 -0.378006 -0.801770
vn -0.462901 -0.378006 -0.801770
vn -0.462901 -0.378006 -0.801770
vn -0.925803 -0.378007 0.000000
vn -0.925803 -0.378007 0.000000
vn -0.925803 -0.378007 0.000000
vn -0.925803 -0.378007 0.000000
vn -0.925803 -0.378007 0.000000
vn -0.925803 -0.378007 0.000000
vn -0.462901 -0.378006 0.801769
vn -0.462901 -0.378006 0.801769
vn -0.462901 -0.378006 0.801770
vn -0.462901 -0.378006 0.801770
vn -0.462901 -0.378006 0.801769
vn -0.462901 -0.378006 0.801769
vn 0.462902 -0.378006 0.801769
vn 0.462902 -0.378006 0.801769
vn 0.462902 -0.378006 0.801769
vn 0.462902 -0.378006 0.801769
vn 0.462902 -0.378006 0.801769
vn 0.462902 -0.378006 0.801769
vn 0.992037 -0.125943 0.000000
vn 0.992037 -0.125943 0.000000
vn 0.992038 -0.125943 0.000000
vn 0.992038 -0.125943 0.000000
vn 0.992037 -0.125943 0.000000
vn 0.992038 -0.125943 0.000000
vn 0.496019 -0.125943 -0.859130
vn 0.496019 -0.125943 -0.859130
vn 0.496019 -0.125943 -0.859130
vn 0.496019 -0.125943 -0.859130
vn 0.496019 -0.125943 -0.859130
vn 0.496019 -0.125943 -0.859130
vn -0.496019 -0.125943 -0.859129
vn -0.496019 -0.125943 -0.859129
vn -0.496019 -0.125943 -0.859129
vn -0.496019 -0.125943 -0.859129
vn -0.496019 -0.125943 -0.859129
vn -0.496019 -0.125943 -0.859129
vn -0.992038 -0.125943 0.000000
vn -0.992037 -0.125943 0.000000
vn -0.992038 -0.125943 0.000000
vn -0.992038 -0.125943 0.000000
vn -0.992037 -0.125943 0.000000
vn -0.992038 -0.125943 0.000000
vn -0.496019 -0.125943 0.859130
vn -0.496019 -0.125943 0.859130
vn -0.496019 -0.125943 0.859130
vn -0.496019 -0.125943 0.859130
vn -0.496019 -0.125943 0.859130
vn -0.496019 -0.125943 0.859130
vn 0.496018 -0.125943 0.859130
vn 0.496018 -0.125943 0.859130
vn 0.496018 -0.125943 0.859130
vn 0.496018 -0.125943 0.859130
vn 0.496018 -0.125943 0.859130
vn 0.496018 -0.125943 0.859130
vn 0.992037 0.125944 0.000000
vn 0.992037 0.125944 0.000000
vn 0.992037 0.125944 0.000000
vn 0.992037 0.125944 0.000000
vn 0.992037 0.125944 0.000000
vn 0.992037 0.125944 0.000000
vn 0.496019 0.125944 -0.859129
vn 0.496019 0.125944 -0.859129
vn 0.496019 0.125944 -0.859129
vn 0.496019 0.125944 -0.859129
vn 0.496019 0.125944 -0.859129
vn 0.496019 0.125944 -0.859129
vn -0.496018 0.125944 -0.859130
vn -0.496018 0.125944 -0.859130
vn -0.496019 0.125944 -0.859130
vn -0.496019 0.125944 -0.859130
vn -0.496018 0.125944 -0.859130
vn -0.496019 0.125944 -0.859130
vn -0.992037 0.125944 0.000000
vn -0.992037 0.125944 0.000000
vn -0.992037 0.125944 0.000000
vn -0.992037 0.125944 0.000000
vn -0.992037 0.125944 0.000000
vn -0.992037 0.125944 0.000000
vn -0.496018 0.125944 0.859130
vn -0.496018 0.125944 0.859130
vn -0.496018 0.125944 0.859130
vn -0.496018 0.125944 0.859130
vn -0.496018 0.125944 0.859130
vn -0.496018 0.125944 0.859130
vn 0.496019 0.125944 0.859130
vn 0.496019 0.125944 0.859130
vn 0.496019 0.125944 0.859130
vn 0.496019 0.125944 0.859130
vn 0.496019 0.125944 0.859130
vn 0.496019 0.125944 0.859130
vn 0.925804 0.378004 0.000000
vn 0.925804 0.378004 0.000000
vn 0.925804 0.378004 0.000000
vn 0.925804 0.378004 0.000000
vn 0.925804 0.378004 0.000000
vn 0.925804 0.378004 0.000000
vn 0.462902 0.378005 -0.801769
vn 0.462902 0.378005 -0.801769
vn 0.462901 0.378005 -0.801770
vn 0.462901 0.378005 -0.801770
vn 0.462902 0.378005 -0.801769
vn 0.462902 0.378005 -0.801769
vn -0.462902 0.378005 -0.801769
vn -0.462902 0.378005 -0.801769
vn -0.462902 0.378005 -0.801769
vn -0.462902 0.378005 -0.801769
vn -0.462902 0.378005 -0.801769
vn -0.462902 0.378005 -0.801769
vn -0.925804 0.378005 0.000000
vn -0.925804 0.378005 0.000000
vn -0.925804 0.378005 0.000000
vn -0.925804 0.378005 0.000000
vn -0.925804 0.378005 0.000000
vn -0.925804 0.378005 0.000000
vn -0.462903 0.378005 0.801769
vn -0.462903 0.378005 0.801769
vn -0.462903 0.378005 0.801769
vn -0.462903 0.378005 0.801769
vn -0.462903 0.378005 0.801769
vn -0.462903 0.378005 0.801769
vn 0.462902 0.378005 0.801769
vn 0.462902 0.378005 0.801769
vn 0.462902 0.378005 0.801769
vn 0.462902 0.378005 0.801769
vn 0.462902 0.378005 0.801769
vn 0.462902 0.378005 0.801769
vn 0.787802 -0.615929 0.000000
vn 0.787802 -0.615929 0.000000
vn 0.787802 -0.615929 0.000000
vn 0.393903 -0.615929 -0.682254
vn 0.393904 -0.615929 -0.682254
vn 0.393904 -0.615929 -0.682254
vn -0.393901 -0.615930 -0.682255
vn -0.393901 -0.615930 -0.682255
vn -0.393901 -0.615930 -0.682255
vn -0.787803 -0.615928 0.000000
vn -0.787803 -0.615928 0.000000
vn -0.787802 -0.615928 0.000000
vn -0.393903 -0.615929 0.682254
vn -0.393903 -0.615929 0.682254
vn -0.393903 -0.615929 0.682254
vn 0.393901 -0.615930 0.682255
vn 0.393901 -0.615930 0.682255
vn 0.393901 -0.615930 0.682255
vn 0.787800 0.615932 0.000000
vn 0.787800 0.615932 0.000000
vn 0.787800 0.615932 0.000000
vn 0.393902 0.615931 -0.682254
vn 0.393902 0.615931 -0.682254
vn 0.393902 0.615931 -0.682254
vn -0.393899 0.615931 -0.682255
vn -0.393899 0.615931 -0.682255
vn -0.393900 0.615931 -0.682255
vn -0.787800 0.615931 0.000000
vn -0.787800 0.615931 0.000000
vn -0.787800 0.615931 0.000000
vn -0.393899 0.615931 0.682255
vn -0.393899 0.615931 0.682255
vn -0.393900 0.615931 0.682255
vn 0.393900 0.615931 0.682255
vn 0.393900 0.615931 0.682255
vn 0.393900 0.615931 0.682255
s off
g polySurface3
usemtl None
f 1/1/1 2/2/2 7/3/3
f 7/3/4 2/2/5 8/4/6
f 2/2/7 3/5/8 8/4/9
f 8/4/10 3/5/11 9/6/12
f 3/5/13 4/7/14 9/6/15
f 9/6/16 4/7/17 10/8/18
f 4/7/19 5/9/20 10/8/21
f 10/8/22 5/9/23 11/10/24
f 5/9/25 6/11/26 11/10/27
f 11/10/28 6/11/29 12/12/30
f 6/11/31 1/1/32 12/12/33
f 12/12/34 1/1/35 7/3/36
f 7/3/37 8/4/38 13/13/39
f 13/13/40 8/4/41 14/14/42
f 8/4/43 9/6/44 14/14/45
f 14/14/46 9/6/47 15/15/48
f 9/6/49 10/8/50 15/15/51
f 15/15/52 10/8/53 16/16/54
f 10/8/55 11/10/56 16/16/57
f 16/16/58 11/10/59 17/17/60
f 11/10/61 12/12/62 17/17/63
f 17/17/64 12/12/65 18/18/66
f 12/12/67 7/3/68 18/18/69
f 18/18/70 7/3/71 13/13/72
f 13/13/73 14/14/74 19/19/75
f 19/19/76 14/14/77 20/20/78
f 14/14/79 15/15/80 20/20/81
f 20/20/82 15/15/83 21/21/84
f 15/15/85 16/16/86 21/21/87
f 21/21/88 16/16/89 22/22/90
f 16/16/91 17/17/92 22/22/93
f 22/22/94 17/17/95 23/23/96
f 17/17/97 18/18/98 23/23/99
f 23/23/100 18/18/101 24/24/102
f 18/18/103 13/13/104 24/24/105
f 24/24/106 13/13/107 19/19/108
f 19/19/109 20/20/110 25/25/111
f 25/25/112 20/20/113 26/26/114
f 20/20/115 21/21/116 26/26/117
f 26/26/118 21/21/119 27/27/120
f 21/21/121 22/22/122 27/27/123
f 27/27/124 22/22/125 28/28/126
f 22/22/127 23/23/128 28/28/129
f 28/28/130 23/23/131 29/29/132
f 23/23/133 24/24/134 29/29/135
f 29/29/136 24/24/137 30/30/138
f 24/24/139 19/19/140 30/30/141
f 30/30/142 19/19/143 25/25/144
f 2/2/145 1/1/146 31/31/147
f 3/5/148 2/2/149 31/31/150
f 4/7/151 3/5/152 31/31/153
f 5/9/154 4/7/155 31/31/156
f 6/11/157 5/9/158 31/31/159
f 1/1/160 6/11/161 31/31/162
f 25/25/163 26/26/164 32/32/165
f 26/26/166 27/27/167 32/32/168
f 27/27/169 28/28/170 32/32/171
f 28/28/172 29/29/173 32/32/174
f 29/29/175 30/30/176 32/32/177
f 30/30/178 25/25/179 32/32/180
