# This file uses centimeters as units for non-parametric coordinates.

mtllib LampentGlass.mtl
g default
v 1.442334 0.380519 1.442334
v 2.039768 0.380519 0.000000
v 1.442334 0.380519 -1.442334
v 0.000000 0.380519 -2.039768
v 0.000000 0.380519 2.039769
v 1.884500 1.167831 1.884500
v 2.665086 1.167831 0.000000
v 1.884500 1.167831 -1.884500
v 0.000000 1.167831 -2.665086
v 0.000000 1.167831 2.665087
v 2.039768 2.271745 2.039768
v 2.884669 2.271745 0.000000
v 2.039768 2.271745 -2.039768
v 0.000000 2.271745 -2.884669
v -0.000000 2.271745 2.884669
v 1.884500 3.550684 1.884500
v 2.665086 3.550684 0.000000
v 1.884500 3.550684 -1.884500
v 0.000000 3.550684 -2.665086
v -0.000000 3.550684 2.665087
v 1.033035 0.056803 1.033035
v 1.460932 0.056803 0.000000
v 1.033035 0.056803 -1.033035
v 0.000000 0.056803 -1.460932
v -0.000000 0.056803 1.460932
v -1.884500 1.167831 1.884500
v -2.665086 1.167831 0.000000
v -2.884669 2.271745 0.000000
v -2.039768 2.271745 2.039768
v -1.884500 1.167831 -1.884500
v -2.039768 2.271745 -2.039768
v -2.665086 3.550684 0.000000
v -1.884500 3.550684 1.884500
v -1.884500 3.550684 -1.884500
v -1.033035 0.056803 1.033035
v -1.460932 0.056803 -0.000000
v -2.039768 0.380519 0.000000
v -1.442334 0.380519 1.442334
v -1.033035 0.056803 -1.033035
v -1.442334 0.380519 -1.442334
v 2.039768 4.474993 0.000000
v 1.442334 4.474993 1.442334
v 1.442334 4.474993 -1.442334
v 0.000000 4.474993 -2.039768
v 0.000000 4.474993 2.039769
v -1.442334 4.474993 1.442334
v -2.039768 4.474993 0.000000
v -1.442334 4.474993 -1.442334
vt 0.279891 0.454323
vt 0.358281 0.454323
vt 0.279891 0.500243
vt 0.364740 0.500243
vt 0.170781 0.454323
vt 0.092391 0.454323
vt 0.177240 0.500243
vt 0.092391 0.500243
vt 0.014001 0.454323
vt 0.007542 0.500243
vt 0.201501 0.454323
vt 0.195042 0.500243
vt 0.279891 0.553443
vt 0.358281 0.553443
vt 0.170781 0.553443
vt 0.092391 0.553443
vt 0.014001 0.553443
vt 0.201501 0.553443
vt 0.279891 0.408107
vt 0.322863 0.408107
vt 0.279891 0.421573
vt 0.339889 0.421573
vt 0.135363 0.408107
vt 0.092391 0.408107
vt 0.152389 0.421573
vt 0.092391 0.421573
vt 0.049420 0.408107
vt 0.032394 0.421573
vt 0.236920 0.408107
vt 0.219894 0.421573
vt 0.279891 0.591892
vt 0.339889 0.591892
vt 0.152389 0.591892
vt 0.092391 0.591892
vt 0.032394 0.591892
vt 0.219894 0.591892
vt 0.279891 0.454323
vt 0.279891 0.500243
vt 0.358281 0.454323
vt 0.364740 0.500243
vt 0.170781 0.454323
vt 0.177240 0.500243
vt 0.092391 0.454323
vt 0.092391 0.500243
vt 0.014001 0.454323
vt 0.007542 0.500243
vt 0.201501 0.454323
vt 0.195042 0.500243
vt 0.279891 0.553443
vt 0.358281 0.553443
vt 0.170781 0.553443
vt 0.092391 0.553443
vt 0.014001 0.553443
vt 0.201501 0.553443
vt 0.279891 0.408107
vt 0.279891 0.421573
vt 0.322863 0.408107
vt 0.339889 0.421573
vt 0.135363 0.408107
vt 0.152389 0.421573
vt 0.092391 0.408107
vt 0.092391 0.421573
vt 0.049420 0.408107
vt 0.032394 0.421573
vt 0.236920 0.408107
vt 0.219894 0.421573
vt 0.279891 0.591892
vt 0.339889 0.591892
vt 0.152389 0.591892
vt 0.092391 0.591892
vt 0.032394 0.591892
vt 0.219894 0.591892
vn 0.908663 -0.180745 0.376381
vn 0.908663 -0.180745 0.376381
vn 0.908663 -0.180745 0.376381
vn 0.908663 -0.180745 0.376381
vn 0.908663 -0.180745 0.376381
vn 0.908663 -0.180745 0.376381
vn 0.908663 -0.180745 -0.376381
vn 0.908663 -0.180745 -0.376381
vn 0.908663 -0.180745 -0.376381
vn 0.908663 -0.180745 -0.376381
vn 0.908663 -0.180745 -0.376381
vn 0.908663 -0.180745 -0.376381
vn 0.376381 -0.180745 -0.908663
vn 0.376381 -0.180745 -0.908663
vn 0.376381 -0.180745 -0.908663
vn 0.376381 -0.180745 -0.908663
vn 0.376381 -0.180745 -0.908663
vn 0.376381 -0.180745 -0.908663
vn 0.376381 -0.180744 0.908663
vn 0.376381 -0.180744 0.908663
vn 0.376381 -0.180744 0.908663
vn 0.376381 -0.180744 0.908663
vn 0.376381 -0.180744 0.908663
vn 0.376381 -0.180744 0.908663
vn 0.912472 0.156663 0.377958
vn 0.912472 0.156663 0.377958
vn 0.912472 0.156663 0.377958
vn 0.912472 0.156663 0.377958
vn 0.912472 0.156663 0.377958
vn 0.912472 0.156663 0.377958
vn 0.912472 0.156663 -0.377958
vn 0.912472 0.156663 -0.377958
vn 0.912472 0.156663 -0.377958
vn 0.912472 0.156663 -0.377958
vn 0.912472 0.156663 -0.377958
vn 0.912472 0.156663 -0.377958
vn 0.377958 0.156663 -0.912472
vn 0.377958 0.156663 -0.912472
vn 0.377958 0.156663 -0.912472
vn 0.377958 0.156663 -0.912472
vn 0.377958 0.156663 -0.912472
vn 0.377958 0.156663 -0.912472
vn 0.377958 0.156663 0.912472
vn 0.377958 0.156663 0.912472
vn 0.377958 0.156663 0.912472
vn 0.377958 0.156663 0.912472
vn 0.377958 0.156663 0.912472
vn 0.377958 0.156663 0.912472
vn 0.478426 -0.855475 0.198170
vn 0.478426 -0.855475 0.198170
vn 0.478426 -0.855475 0.198170
vn 0.478426 -0.855475 0.198170
vn 0.478426 -0.855475 0.198170
vn 0.478426 -0.855475 0.198170
vn 0.478427 -0.855475 -0.198170
vn 0.478427 -0.855475 -0.198170
vn 0.478427 -0.855474 -0.198170
vn 0.478427 -0.855474 -0.198170
vn 0.478427 -0.855475 -0.198170
vn 0.478427 -0.855475 -0.198170
vn 0.198170 -0.855475 -0.478426
vn 0.198170 -0.855475 -0.478426
vn 0.198170 -0.855475 -0.478426
vn 0.198170 -0.855475 -0.478426
vn 0.198170 -0.855475 -0.478426
vn 0.198170 -0.855475 -0.478426
vn 0.198171 -0.855475 0.478426
vn 0.198171 -0.855475 0.478426
vn 0.198171 -0.855475 0.478425
vn 0.198171 -0.855475 0.478425
vn 0.198171 -0.855475 0.478426
vn 0.198171 -0.855475 0.478425
vn 0.744861 -0.591601 0.308531
vn 0.744861 -0.591601 0.308531
vn 0.744861 -0.591601 0.308531
vn 0.744861 -0.591601 0.308531
vn 0.744861 -0.591601 0.308531
vn 0.744861 -0.591600 0.308531
vn 0.744861 -0.591600 -0.308531
vn 0.744861 -0.591600 -0.308531
vn 0.744861 -0.591601 -0.308531
vn 0.744861 -0.591601 -0.308531
vn 0.744861 -0.591600 -0.308531
vn 0.744861 -0.591601 -0.308531
vn 0.308531 -0.591600 -0.744861
vn 0.308531 -0.591600 -0.744861
vn 0.308531 -0.591600 -0.744861
vn 0.308531 -0.591600 -0.744861
vn 0.308531 -0.591600 -0.744861
vn 0.308531 -0.591600 -0.744861
vn 0.308532 -0.591600 0.744861
vn 0.308532 -0.591600 0.744861
vn 0.308532 -0.591600 0.744861
vn 0.308532 -0.591600 0.744861
vn 0.308532 -0.591600 0.744861
vn 0.308532 -0.591600 0.744861
vn 0.783439 0.530015 0.324511
vn 0.783439 0.530015 0.324511
vn 0.783439 0.530015 0.324511
vn 0.783439 0.530015 0.324511
vn 0.783439 0.530015 0.324511
vn 0.783439 0.530015 0.324511
vn 0.783439 0.530015 -0.324511
vn 0.783439 0.530015 -0.324511
vn 0.783439 0.530015 -0.324511
vn 0.783439 0.530015 -0.324511
vn 0.783439 0.530015 -0.324511
vn 0.783439 0.530015 -0.324511
vn 0.324511 0.530015 -0.783439
vn 0.324511 0.530015 -0.783439
vn 0.324511 0.530015 -0.783439
vn 0.324511 0.530015 -0.783439
vn 0.324511 0.530015 -0.783439
vn 0.324511 0.530015 -0.783439
vn 0.324511 0.530015 0.783439
vn 0.324511 0.530015 0.783439
vn 0.324511 0.530015 0.783439
vn 0.324511 0.530015 0.783439
vn 0.324511 0.530015 0.783439
vn 0.324511 0.530015 0.783439
vn -0.908663 -0.180745 0.376381
vn -0.908663 -0.180745 0.376381
vn -0.908663 -0.180745 0.376381
vn -0.908663 -0.180745 0.376381
vn -0.908663 -0.180745 0.376381
vn -0.908663 -0.180745 0.376381
vn -0.908663 -0.180745 -0.376381
vn -0.908663 -0.180745 -0.376381
vn -0.908663 -0.180745 -0.376381
vn -0.908663 -0.180745 -0.376381
vn -0.908663 -0.180745 -0.376381
vn -0.908663 -0.180745 -0.376381
vn -0.376381 -0.180745 -0.908663
vn -0.376381 -0.180745 -0.908663
vn -0.376381 -0.180745 -0.908663
vn -0.376381 -0.180745 -0.908663
vn -0.376381 -0.180745 -0.908663
vn -0.376381 -0.180745 -0.908663
vn -0.376381 -0.180744 0.908663
vn -0.376381 -0.180744 0.908663
vn -0.376381 -0.180744 0.908663
vn -0.376381 -0.180744 0.908663
vn -0.376381 -0.180744 0.908663
vn -0.376381 -0.180744 0.908663
vn -0.912472 0.156663 0.377958
vn -0.912472 0.156663 0.377958
vn -0.912472 0.156663 0.377958
vn -0.912472 0.156663 0.377958
vn -0.912472 0.156663 0.377958
vn -0.912472 0.156663 0.377958
vn -0.912472 0.156663 -0.377958
vn -0.912472 0.156663 -0.377958
vn -0.912472 0.156663 -0.377958
vn -0.912472 0.156663 -0.377958
vn -0.912472 0.156663 -0.377958
vn -0.912472 0.156663 -0.377958
vn -0.377958 0.156663 -0.912472
vn -0.377958 0.156663 -0.912472
vn -0.377958 0.156663 -0.912472
vn -0.377958 0.156663 -0.912472
vn -0.377958 0.156663 -0.912472
vn -0.377958 0.156663 -0.912472
vn -0.377959 0.156663 0.912471
vn -0.377959 0.156663 0.912471
vn -0.377959 0.156663 0.912471
vn -0.377959 0.156663 0.912471
vn -0.377959 0.156663 0.912471
vn -0.377959 0.156663 0.912471
vn -0.478426 -0.855475 0.198170
vn -0.478426 -0.855475 0.198170
vn -0.478426 -0.855475 0.198170
vn -0.478426 -0.855475 0.198170
vn -0.478426 -0.855475 0.198170
vn -0.478426 -0.855475 0.198170
vn -0.478427 -0.855475 -0.198170
vn -0.478427 -0.855475 -0.198170
vn -0.478427 -0.855475 -0.198170
vn -0.478427 -0.855475 -0.198170
vn -0.478427 -0.855475 -0.198170
vn -0.478427 -0.855475 -0.198170
vn -0.198170 -0.855475 -0.478426
vn -0.198170 -0.855475 -0.478426
vn -0.198170 -0.855475 -0.478426
vn -0.198170 -0.855475 -0.478426
vn -0.198170 -0.855475 -0.478426
vn -0.198170 -0.855475 -0.478426
vn -0.198171 -0.855475 0.478426
vn -0.198171 -0.855475 0.478426
vn -0.198171 -0.855475 0.478426
vn -0.198171 -0.855475 0.478426
vn -0.198171 -0.855475 0.478426
vn -0.198171 -0.855475 0.478426
vn -0.744861 -0.591600 0.308531
vn -0.744861 -0.591600 0.308531
vn -0.744861 -0.591600 0.308531
vn -0.744861 -0.591600 0.308531
vn -0.744861 -0.591600 0.308531
vn -0.744861 -0.591600 0.308531
vn -0.744861 -0.591600 -0.308531
vn -0.744861 -0.591600 -0.308531
vn -0.744861 -0.591600 -0.308531
vn -0.744861 -0.591600 -0.308531
vn -0.744861 -0.591600 -0.308531
vn -0.744861 -0.591600 -0.308531
vn -0.308531 -0.591600 -0.744861
vn -0.308531 -0.591600 -0.744861
vn -0.308531 -0.591600 -0.744861
vn -0.308531 -0.591600 -0.744861
vn -0.308531 -0.591600 -0.744861
vn -0.308531 -0.591600 -0.744861
vn -0.308531 -0.591600 0.744861
vn -0.308531 -0.591600 0.744861
vn -0.308531 -0.591600 0.744861
vn -0.308531 -0.591600 0.744861
vn -0.308531 -0.591600 0.744861
vn -0.308531 -0.591600 0.744861
vn -0.783439 0.530015 0.324511
vn -0.783439 0.530015 0.324511
vn -0.783439 0.530015 0.324511
vn -0.783439 0.530015 0.324511
vn -0.783439 0.530015 0.324511
vn -0.783439 0.530015 0.324511
vn -0.783439 0.530015 -0.324511
vn -0.783439 0.530015 -0.324511
vn -0.783439 0.530015 -0.324511
vn -0.783439 0.530015 -0.324511
vn -0.783439 0.530015 -0.324511
vn -0.783439 0.530015 -0.324511
vn -0.324511 0.530015 -0.783439
vn -0.324511 0.530015 -0.783439
vn -0.324511 0.530015 -0.783439
vn -0.324511 0.530015 -0.783439
vn -0.324511 0.530015 -0.783439
vn -0.324511 0.530015 -0.783439
vn -0.324511 0.530015 0.783439
vn -0.324511 0.530015 0.783439
vn -0.324511 0.530015 0.783439
vn -0.324511 0.530015 0.783439
vn -0.324511 0.530015 0.783439
vn -0.324511 0.530015 0.783439
s off
g Glass
usemtl None
f 6/1/1 7/2/2 11/3/3
f 11/3/4 7/2/5 12/4/6
f 7/5/7 8/6/8 12/7/9
f 12/7/10 8/6/11 13/8/12
f 8/6/13 9/9/14 13/8/15
f 13/8/16 9/9/17 14/10/18
f 10/11/19 6/1/20 15/12/21
f 15/12/22 6/1/23 11/3/24
f 11/3/25 12/4/26 16/13/27
f 16/13/28 12/4/29 17/14/30
f 12/7/31 13/8/32 17/15/33
f 17/15/34 13/8/35 18/16/36
f 13/8/37 14/10/38 18/16/39
f 18/16/40 14/10/41 19/17/42
f 15/12/43 11/3/44 20/18/45
f 20/18/46 11/3/47 16/13/48
f 21/19/49 22/20/50 1/21/51
f 1/21/52 22/20/53 2/22/54
f 22/23/55 23/24/56 2/25/57
f 2/25/58 23/24/59 3/26/60
f 23/24/61 24/27/62 3/26/63
f 3/26/64 24/27/65 4/28/66
f 25/29/67 21/19/68 5/30/69
f 5/30/70 21/19/71 1/21/72
f 6/1/73 1/21/74 7/2/75
f 7/2/76 1/21/77 2/22/78
f 7/5/79 2/25/80 8/6/81
f 8/6/82 2/25/83 3/26/84
f 8/6/85 3/26/86 9/9/87
f 9/9/88 3/26/89 4/28/90
f 10/11/91 5/30/92 6/1/93
f 6/1/94 5/30/95 1/21/96
f 42/31/97 16/13/98 41/32/99
f 41/32/100 16/13/101 17/14/102
f 41/33/103 17/15/104 43/34/105
f 43/34/106 17/15/107 18/16/108
f 43/34/109 18/16/110 44/35/111
f 44/35/112 18/16/113 19/17/114
f 45/36/115 20/18/116 42/31/117
f 42/31/118 20/18/119 16/13/120
f 26/37/121 29/38/122 27/39/123
f 27/39/124 29/38/125 28/40/126
f 27/41/127 28/42/128 30/43/129
f 30/43/130 28/42/131 31/44/132
f 30/43/133 31/44/134 9/45/135
f 9/45/136 31/44/137 14/46/138
f 10/47/139 15/48/140 26/37/141
f 26/37/142 15/48/143 29/38/144
f 29/38/145 33/49/146 28/40/147
f 28/40/148 33/49/149 32/50/150
f 28/42/151 32/51/152 31/44/153
f 31/44/154 32/51/155 34/52/156
f 31/44/157 34/52/158 14/46/159
f 14/46/160 34/52/161 19/53/162
f 15/48/163 20/54/164 29/38/165
f 29/38/166 20/54/167 33/49/168
f 35/55/169 38/56/170 36/57/171
f 36/57/172 38/56/173 37/58/174
f 36/59/175 37/60/176 39/61/177
f 39/61/178 37/60/179 40/62/180
f 39/61/181 40/62/182 24/63/183
f 24/63/184 40/62/185 4/64/186
f 25/65/187 5/66/188 35/55/189
f 35/55/190 5/66/191 38/56/192
f 26/37/193 27/39/194 38/56/195
f 38/56/196 27/39/197 37/58/198
f 27/41/199 30/43/200 37/60/201
f 37/60/202 30/43/203 40/62/204
f 30/43/205 9/45/206 40/62/207
f 40/62/208 9/45/209 4/64/210
f 10/47/211 26/37/212 5/66/213
f 5/66/214 26/37/215 38/56/216
f 46/67/217 47/68/218 33/49/219
f 33/49/220 47/68/221 32/50/222
f 47/69/223 48/70/224 32/51/225
f 32/51/226 48/70/227 34/52/228
f 48/70/229 44/71/230 34/52/231
f 34/52/232 44/71/233 19/53/234
f 45/72/235 46/67/236 20/54/237
f 20/54/238 46/67/239 33/49/240
