# This file uses centimeters as units for non-parametric coordinates.

mtllib SealeoTail.mtl
g default
v -1.111844 -0.291208 0.041583
v 1.111844 -0.291208 0.041583
v -1.111844 0.294891 -0.019766
v 1.111844 0.294891 -0.019766
v -0.500000 0.190787 -1.014332
v 0.500000 0.190787 -1.014332
v -0.500000 -0.395312 -0.952983
v 0.500000 -0.395312 -0.952983
v 0.000000 0.525718 -1.049390
v 0.000000 -0.730243 -0.917925
v 0.000000 -0.291208 0.041583
v 0.000000 0.294891 -0.019766
v 0.500000 0.577770 -0.552107
v 0.000000 0.577770 -0.552107
v -0.500000 0.577770 -0.552107
v -0.500000 -0.678191 -0.420642
v 0.000000 -0.678191 -0.420642
v 0.500000 -0.678191 -0.420642
v 1.111844 0.001842 0.010909
v 0.000000 0.001842 0.010909
v -1.111844 0.001842 0.010909
v -0.500000 -0.102262 -0.983657
v 0.500000 -0.102262 -0.983657
v -1.162563 -0.306350 -2.933432
v 0.000000 -0.934331 -2.867700
v -1.162563 -0.599400 -2.902758
v 1.162563 -0.306350 -2.933432
v 1.162563 -0.599400 -2.902758
v -1.162563 -0.013301 -2.964107
v 0.000000 0.321630 -2.999165
v 1.162563 -0.013301 -2.964107
v -0.843003 -0.536492 -5.132111
v 0.000000 -0.660971 -6.321332
v 0.000000 -0.954020 -6.290658
v -0.843003 -0.829542 -5.101437
v 0.843003 -0.536492 -5.132111
v 0.843003 -0.829542 -5.101437
v -0.843003 -0.243442 -5.162786
v 0.000000 -0.367921 -6.352007
v 0.843003 -0.243442 -5.162786
v 1.784285 -0.821857 -1.793168
v 2.454902 -0.420028 -1.189113
v 2.454902 -0.126979 -1.219787
v 1.166413 -0.553824 -2.467341
v 1.166413 -0.260774 -2.498015
v 1.784285 0.434104 -1.924633
v 1.166413 0.032276 -2.528690
v 2.454902 0.166071 -1.250462
v -1.784285 -0.821857 -1.793168
v -2.454902 -0.420028 -1.189113
v -2.454902 -0.126979 -1.219787
v -1.166413 -0.553824 -2.467341
v -1.166413 -0.260774 -2.498015
v -2.454902 0.166071 -1.250462
v -1.784285 0.434104 -1.924633
v -1.166413 0.032276 -2.528690
v 5.487926 -0.665174 -3.531132
v 3.247007 -0.489555 -1.853338
v 5.487926 -0.372124 -3.561806
v 3.247007 -0.196505 -1.884011
v 3.171656 -0.680457 -3.677137
v 3.171656 -0.387407 -3.707811
v 5.487926 -0.079074 -3.592481
v 3.171656 -0.094356 -3.738486
v 3.247007 0.096546 -1.914686
v -5.487926 -0.665174 -3.531132
v -3.247007 -0.489555 -1.853338
v -3.247007 -0.196505 -1.884011
v -5.487926 -0.372124 -3.561806
v -3.171656 -0.680457 -3.677137
v -3.171656 -0.387407 -3.707811
v -3.247007 0.096546 -1.914686
v -5.487926 -0.079074 -3.592481
v -3.171656 -0.094356 -3.738486
vt 0.463980 0.244731
vt 0.462291 0.216077
vt 0.471013 0.246123
vt 0.470244 0.216576
vt 0.267746 0.482983
vt 0.270900 0.452283
vt 0.287397 0.467140
vt 0.288403 0.452283
vt 0.398657 0.216955
vt 0.394046 0.212087
vt 0.400447 0.214105
vt 0.395696 0.212172
vt 0.444687 0.215005
vt 0.444007 0.229581
vt 0.449510 0.108437
vt 0.429979 0.040854
vt 0.456629 0.105641
vt 0.430973 0.033978
vt 0.408725 0.385751
vt 0.436573 0.321238
vt 0.409047 0.392679
vt 0.443125 0.324837
vt 0.399157 0.207740
vt 0.400628 0.210773
vt 0.445791 0.200462
vt 0.467534 0.187828
vt 0.474638 0.187324
vt 0.287397 0.437424
vt 0.267746 0.421583
vt 0.302730 0.452283
vt 0.304319 0.435185
vt 0.304319 0.469380
vt 0.387563 0.334996
vt 0.379754 0.336714
vt 0.427366 0.231098
vt 0.431790 0.214273
vt 0.429430 0.197013
vt 0.395000 0.086042
vt 0.402478 0.088765
vt 0.477724 0.217037
vt 0.482352 0.187152
vt 0.478678 0.247269
vt 0.409626 0.398834
vt 0.449830 0.328199
vt 0.372668 0.338060
vt 0.396021 0.220068
vt 0.390610 0.211910
vt 0.396859 0.204347
vt 0.432146 0.027807
vt 0.388199 0.083789
vt 0.463817 0.103148
vt 0.409769 0.212942
vt 0.409070 0.217372
vt 0.420675 0.229831
vt 0.407397 0.220916
vt 0.422594 0.197281
vt 0.408301 0.204730
vt 0.409549 0.208442
vt 0.360122 0.452283
vt 0.360604 0.487181
vt 0.413990 0.227956
vt 0.405559 0.224503
vt 0.360604 0.417384
vt 0.415737 0.198189
vt 0.406848 0.200981
vt 0.424573 0.477012
vt 0.459032 0.452283
vt 0.424573 0.427553
vt 0.431874 0.146022
vt 0.458911 0.136740
vt 0.465190 0.134988
vt 0.405430 0.152504
vt 0.398195 0.154220
vt 0.390874 0.155850
vt 0.317126 0.390920
vt 0.341286 0.404217
vt 0.293216 0.375387
vt 0.472169 0.133285
vt 0.423594 0.281796
vt 0.449213 0.294268
vt 0.455275 0.296768
vt 0.398139 0.272081
vt 0.391217 0.269625
vt 0.461987 0.299380
vt 0.317126 0.513645
vt 0.293216 0.529178
vt 0.341286 0.500348
vt 0.384204 0.267123
vt 0.361129 0.338779
vt 0.341234 0.274207
vt 0.307107 0.348484
vt 0.307107 0.556081
vt 0.341234 0.630358
vt 0.361129 0.565786
vn 0.000000 0.104103 0.994567
vn 0.000000 0.104103 0.994567
vn 0.000000 0.104103 0.994567
vn 0.000000 0.104103 0.994567
vn 0.000000 0.104103 0.994567
vn 0.000000 0.104103 0.994567
vn 0.000000 0.883066 0.469249
vn 0.000000 0.883066 0.469249
vn 0.000000 0.883066 0.469249
vn 0.000000 0.883066 0.469250
vn 0.000000 0.883066 0.469250
vn 0.000000 0.883066 0.469250
vn -0.817300 -0.059985 -0.573081
vn -0.817300 -0.059985 -0.573081
vn -0.817300 -0.059985 -0.573081
vn -0.817301 -0.059985 -0.573081
vn -0.817301 -0.059985 -0.573081
vn -0.817301 -0.059985 -0.573081
vn 0.000000 -0.766754 0.641941
vn 0.000000 -0.766754 0.641941
vn 0.000000 -0.766754 0.641941
vn 0.000000 -0.766755 0.641941
vn 0.000000 -0.766755 0.641941
vn 0.000000 -0.766755 0.641941
vn 0.601430 0.083165 0.794585
vn 0.601430 0.083165 0.794585
vn 0.601430 0.083165 0.794585
vn 0.601430 0.083169 0.794585
vn 0.601430 0.083169 0.794585
vn 0.601430 0.083169 0.794585
vn -0.601430 0.083171 0.794585
vn -0.601430 0.083171 0.794585
vn -0.601430 0.083171 0.794585
vn -0.601431 0.083165 0.794585
vn -0.601431 0.083165 0.794585
vn -0.601431 0.083165 0.794585
vn 0.817301 -0.059985 -0.573080
vn 0.817301 -0.059985 -0.573080
vn 0.817301 -0.059985 -0.573080
vn 0.817300 -0.059985 -0.573081
vn 0.817300 -0.059985 -0.573081
vn 0.817300 -0.059985 -0.573081
vn 0.000000 -0.766754 0.641941
vn 0.000000 -0.766754 0.641941
vn 0.000000 -0.766754 0.641941
vn 0.000000 -0.766755 0.641941
vn 0.000000 -0.766755 0.641941
vn 0.000000 -0.766755 0.641941
vn 0.000000 0.104103 0.994567
vn 0.000000 0.104103 0.994567
vn 0.000000 0.104103 0.994567
vn 0.000000 0.104103 0.994567
vn 0.000000 0.104103 0.994567
vn 0.000000 0.104103 0.994567
vn 0.000000 0.883066 0.469250
vn 0.000000 0.883066 0.469250
vn 0.000000 0.883066 0.469250
vn 0.000000 0.883066 0.469249
vn 0.000000 0.883066 0.469249
vn 0.000000 0.883066 0.469249
vn 0.000000 0.994566 -0.104104
vn 0.000000 0.994566 -0.104104
vn 0.000000 0.994566 -0.104104
vn 0.487693 0.669388 -0.560424
vn 0.487693 0.669388 -0.560424
vn 0.487693 0.669388 -0.560424
vn 0.000000 0.994566 -0.104104
vn 0.000000 0.994566 -0.104104
vn 0.000000 0.994566 -0.104104
vn -0.487693 0.669388 -0.560424
vn -0.487693 0.669388 -0.560424
vn -0.487693 0.669388 -0.560424
vn -0.063252 -0.103894 -0.992575
vn -0.063252 -0.103894 -0.992575
vn -0.063252 -0.103894 -0.992575
vn -0.063252 -0.103894 -0.992575
vn -0.063252 -0.103894 -0.992575
vn -0.063252 -0.103894 -0.992575
vn -0.487694 -0.770929 -0.409662
vn -0.487694 -0.770929 -0.409662
vn -0.487694 -0.770929 -0.409662
vn 0.000000 -0.994566 0.104104
vn 0.000000 -0.994566 0.104104
vn 0.000000 -0.994566 0.104104
vn 0.000000 -0.994566 0.104104
vn 0.000000 -0.994566 0.104104
vn 0.000000 -0.994566 0.104104
vn 0.487694 -0.770929 -0.409662
vn 0.487694 -0.770929 -0.409662
vn 0.487694 -0.770929 -0.409662
vn 0.063252 -0.103894 -0.992575
vn 0.063252 -0.103894 -0.992575
vn 0.063252 -0.103894 -0.992575
vn 0.063252 -0.103894 -0.992575
vn 0.063252 -0.103894 -0.992575
vn 0.063252 -0.103894 -0.992575
vn 0.000000 0.104106 0.994566
vn 0.000000 0.104106 0.994566
vn 0.000000 0.104106 0.994566
vn 0.000000 0.104106 0.994566
vn 0.000000 0.104106 0.994566
vn 0.000000 0.104106 0.994566
vn 0.000000 0.104106 0.994566
vn 0.000000 0.104106 0.994566
vn 0.000000 0.104106 0.994566
vn 0.000000 0.104106 0.994566
vn 0.000000 0.104106 0.994566
vn 0.000000 0.104106 0.994566
vn -0.601430 0.083173 0.794584
vn -0.601430 0.083173 0.794584
vn -0.601430 0.083173 0.794584
vn -0.601430 0.083176 0.794584
vn -0.601430 0.083176 0.794584
vn -0.601430 0.083176 0.794584
vn -0.063253 -0.103897 -0.992575
vn -0.063253 -0.103897 -0.992575
vn -0.063253 -0.103897 -0.992575
vn -0.063252 -0.103897 -0.992575
vn -0.063252 -0.103897 -0.992575
vn -0.063252 -0.103897 -0.992575
vn -0.817301 -0.059987 -0.573080
vn -0.817301 -0.059987 -0.573080
vn -0.817301 -0.059987 -0.573080
vn -0.817301 -0.059987 -0.573080
vn -0.817301 -0.059987 -0.573080
vn -0.817301 -0.059987 -0.573080
vn 0.817301 -0.059987 -0.573080
vn 0.817301 -0.059987 -0.573080
vn 0.817301 -0.059987 -0.573080
vn 0.817301 -0.059987 -0.573080
vn 0.817301 -0.059987 -0.573080
vn 0.817301 -0.059987 -0.573080
vn 0.063252 -0.103897 -0.992575
vn 0.063252 -0.103897 -0.992575
vn 0.063252 -0.103897 -0.992575
vn 0.063253 -0.103897 -0.992575
vn 0.063253 -0.103897 -0.992575
vn 0.063253 -0.103897 -0.992575
vn 0.601430 0.083175 0.794584
vn 0.601430 0.083175 0.794584
vn 0.601430 0.083175 0.794584
vn 0.601430 0.083173 0.794584
vn 0.601430 0.083173 0.794584
vn 0.601430 0.083173 0.794584
vn -0.558630 -0.824910 0.086346
vn -0.558630 -0.824910 0.086346
vn -0.558630 -0.824910 0.086346
vn -0.277011 -0.941353 0.192666
vn -0.277011 -0.941353 0.192666
vn -0.277011 -0.941353 0.192666
vn -0.947358 0.033331 0.318438
vn -0.947358 0.033331 0.318438
vn -0.947358 0.033331 0.318438
vn -0.947358 0.033332 0.318437
vn -0.947358 0.033332 0.318437
vn -0.947358 0.033332 0.318437
vn 0.947358 0.033331 0.318438
vn 0.947358 0.033331 0.318438
vn 0.947358 0.033331 0.318438
vn 0.947358 0.033331 0.318437
vn 0.947358 0.033331 0.318437
vn 0.947358 0.033331 0.318437
vn 0.558630 -0.824911 0.086346
vn 0.558630 -0.824911 0.086346
vn 0.558630 -0.824911 0.086346
vn 0.277011 -0.941353 0.192666
vn 0.277011 -0.941353 0.192666
vn 0.277011 -0.941353 0.192666
vn -0.558630 0.824910 -0.086345
vn -0.558630 0.824910 -0.086345
vn -0.558630 0.824910 -0.086345
vn -0.277011 0.960845 -0.006442
vn -0.277011 0.960845 -0.006442
vn -0.277011 0.960845 -0.006442
vn -0.947358 0.033332 0.318437
vn -0.947358 0.033332 0.318437
vn -0.947358 0.033332 0.318437
vn -0.947358 0.033333 0.318438
vn -0.947358 0.033333 0.318438
vn -0.947358 0.033333 0.318438
vn 0.558630 0.824910 -0.086345
vn 0.558630 0.824910 -0.086345
vn 0.558630 0.824910 -0.086345
vn 0.277011 0.960845 -0.006442
vn 0.277011 0.960845 -0.006442
vn 0.277011 0.960845 -0.006442
vn 0.947358 0.033333 0.318437
vn 0.947358 0.033333 0.318437
vn 0.947358 0.033333 0.318437
vn 0.947358 0.033332 0.318438
vn 0.947358 0.033332 0.318438
vn 0.947358 0.033332 0.318438
vn -0.278008 -0.958706 0.059944
vn -0.278008 -0.958706 0.059944
vn -0.278008 -0.958706 0.059944
vn -0.138204 -0.990387 0.005697
vn -0.138204 -0.990387 0.005697
vn -0.138204 -0.990387 0.005697
vn -0.989713 -0.014894 -0.142288
vn -0.989713 -0.014894 -0.142288
vn -0.989713 -0.014894 -0.142288
vn -0.989713 -0.014893 -0.142288
vn -0.989713 -0.014893 -0.142288
vn -0.989713 -0.014893 -0.142288
vn 0.989713 -0.014894 -0.142288
vn 0.989713 -0.014894 -0.142288
vn 0.989713 -0.014894 -0.142288
vn 0.989713 -0.014893 -0.142288
vn 0.989713 -0.014893 -0.142288
vn 0.989713 -0.014893 -0.142288
vn 0.278008 -0.958706 0.059944
vn 0.278008 -0.958706 0.059944
vn 0.278008 -0.958706 0.059944
vn 0.138204 -0.990387 0.005697
vn 0.138204 -0.990387 0.005697
vn 0.138204 -0.990387 0.005697
vn -0.278008 0.950339 -0.139881
vn -0.278008 0.950339 -0.139881
vn -0.278008 0.950339 -0.139881
vn -0.138205 0.970100 -0.199512
vn -0.138205 0.970100 -0.199512
vn -0.138205 0.970100 -0.199512
vn -0.989713 -0.014894 -0.142288
vn -0.989713 -0.014894 -0.142288
vn -0.989713 -0.014894 -0.142288
vn -0.989713 -0.014894 -0.142288
vn -0.989713 -0.014894 -0.142288
vn -0.989713 -0.014894 -0.142288
vn 0.278008 0.950339 -0.139881
vn 0.278008 0.950339 -0.139881
vn 0.278008 0.950339 -0.139881
vn 0.138205 0.970100 -0.199512
vn 0.138205 0.970100 -0.199512
vn 0.138205 0.970100 -0.199512
vn 0.989713 -0.014894 -0.142288
vn 0.989713 -0.014894 -0.142288
vn 0.989713 -0.014894 -0.142288
vn 0.989713 -0.014894 -0.142288
vn 0.989713 -0.014894 -0.142288
vn 0.989713 -0.014894 -0.142288
vn 0.287515 -0.886790 0.361854
vn 0.287515 -0.886790 0.361854
vn 0.287515 -0.886790 0.361854
vn 0.231363 -0.908652 0.347596
vn 0.231363 -0.908652 0.347596
vn 0.231363 -0.908652 0.347596
vn 0.677592 0.076561 0.731442
vn 0.677592 0.076561 0.731442
vn 0.677592 0.076561 0.731442
vn 0.677592 0.076562 0.731442
vn 0.677592 0.076562 0.731442
vn 0.677592 0.076562 0.731442
vn -0.514669 -0.757131 -0.402329
vn -0.514669 -0.757131 -0.402329
vn -0.514669 -0.757131 -0.402329
vn -0.346687 -0.936393 -0.054549
vn -0.346687 -0.936393 -0.054549
vn -0.346687 -0.936393 -0.054549
vn -0.916099 -0.041740 -0.398773
vn -0.916099 -0.041740 -0.398773
vn -0.916099 -0.041740 -0.398773
vn -0.916100 -0.041740 -0.398772
vn -0.916100 -0.041740 -0.398772
vn -0.916100 -0.041740 -0.398772
vn -0.916099 -0.041742 -0.398772
vn -0.916099 -0.041742 -0.398772
vn -0.916099 -0.041742 -0.398772
vn -0.916100 -0.041741 -0.398772
vn -0.916100 -0.041741 -0.398772
vn -0.916100 -0.041741 -0.398772
vn -0.514669 0.657407 -0.550393
vn -0.514669 0.657407 -0.550393
vn -0.514669 0.657407 -0.550393
vn -0.346688 0.904801 -0.247272
vn -0.346688 0.904801 -0.247272
vn -0.346688 0.904801 -0.247272
vn 0.287516 0.942500 0.170377
vn 0.287516 0.942500 0.170377
vn 0.287516 0.942500 0.170377
vn 0.231362 0.960936 0.151901
vn 0.231362 0.960936 0.151901
vn 0.231362 0.960936 0.151901
vn 0.677592 0.076564 0.731442
vn 0.677592 0.076564 0.731442
vn 0.677592 0.076564 0.731442
vn 0.677592 0.076563 0.731442
vn 0.677592 0.076563 0.731442
vn 0.677592 0.076563 0.731442
vn -0.287515 -0.886790 0.361854
vn -0.287515 -0.886790 0.361854
vn -0.287515 -0.886790 0.361854
vn -0.231363 -0.908652 0.347596
vn -0.231363 -0.908652 0.347596
vn -0.231363 -0.908652 0.347596
vn -0.677592 0.076562 0.731442
vn -0.677592 0.076562 0.731442
vn -0.677592 0.076562 0.731442
vn -0.677592 0.076561 0.731442
vn -0.677592 0.076561 0.731442
vn -0.677592 0.076561 0.731442
vn 0.514669 -0.757131 -0.402329
vn 0.514669 -0.757131 -0.402329
vn 0.514669 -0.757131 -0.402329
vn 0.346687 -0.936393 -0.054549
vn 0.346687 -0.936393 -0.054549
vn 0.346687 -0.936393 -0.054549
vn 0.916099 -0.041740 -0.398773
vn 0.916099 -0.041740 -0.398773
vn 0.916099 -0.041740 -0.398773
vn 0.916100 -0.041740 -0.398772
vn 0.916100 -0.041740 -0.398772
vn 0.916100 -0.041740 -0.398772
vn -0.677592 0.076564 0.731442
vn -0.677592 0.076564 0.731442
vn -0.677592 0.076564 0.731442
vn -0.677592 0.076563 0.731442
vn -0.677592 0.076563 0.731442
vn -0.677592 0.076563 0.731442
vn -0.287516 0.942500 0.170377
vn -0.287516 0.942500 0.170377
vn -0.287516 0.942500 0.170377
vn -0.231362 0.960936 0.151901
vn -0.231362 0.960936 0.151901
vn -0.231362 0.960936 0.151901
vn 0.514669 0.657407 -0.550393
vn 0.514669 0.657407 -0.550393
vn 0.514669 0.657407 -0.550393
vn 0.346688 0.904801 -0.247272
vn 0.346688 0.904801 -0.247272
vn 0.346688 0.904801 -0.247272
vn 0.916099 -0.041742 -0.398772
vn 0.916099 -0.041742 -0.398772
vn 0.916099 -0.041742 -0.398772
vn 0.916100 -0.041741 -0.398772
vn 0.916100 -0.041741 -0.398772
vn 0.916100 -0.041741 -0.398772
vn 0.220819 -0.907123 0.358284
vn 0.220819 -0.907123 0.358284
vn 0.220819 -0.907123 0.358284
vn 0.219394 -0.895692 0.386785
vn 0.219394 -0.895692 0.386785
vn 0.219394 -0.895692 0.386785
vn 0.644598 0.079589 0.760368
vn 0.644598 0.079589 0.760368
vn 0.644598 0.079589 0.760368
vn 0.644597 0.079583 0.760369
vn 0.644597 0.079583 0.760369
vn 0.644597 0.079583 0.760369
vn -0.187245 -0.959623 -0.209913
vn -0.187245 -0.959623 -0.209913
vn -0.187245 -0.959623 -0.209913
vn 0.010802 -0.997699 -0.066927
vn 0.010802 -0.997699 -0.066927
vn 0.010802 -0.997699 -0.066927
vn -0.518647 -0.089007 -0.850343
vn -0.518647 -0.089007 -0.850343
vn -0.518647 -0.089007 -0.850343
vn -0.518646 -0.089006 -0.850344
vn -0.518646 -0.089006 -0.850344
vn -0.518646 -0.089006 -0.850344
vn -0.518647 -0.089009 -0.850343
vn -0.518647 -0.089009 -0.850343
vn -0.518647 -0.089009 -0.850343
vn -0.518648 -0.089009 -0.850342
vn -0.518648 -0.089009 -0.850342
vn -0.518648 -0.089009 -0.850342
vn -0.187244 0.895355 -0.404078
vn -0.187244 0.895355 -0.404078
vn -0.187244 0.895355 -0.404078
vn 0.010802 0.962215 -0.272076
vn 0.010802 0.962215 -0.272076
vn 0.010802 0.962215 -0.272076
vn 0.220818 0.961653 0.162674
vn 0.220818 0.961653 0.162674
vn 0.220818 0.961653 0.162674
vn 0.219393 0.956372 0.192923
vn 0.219393 0.956372 0.192923
vn 0.219393 0.956372 0.192923
vn 0.644597 0.079591 0.760368
vn 0.644597 0.079591 0.760368
vn 0.644597 0.079591 0.760368
vn 0.644597 0.079594 0.760368
vn 0.644597 0.079594 0.760368
vn 0.644597 0.079594 0.760368
vn -0.220819 -0.907123 0.358284
vn -0.220819 -0.907123 0.358284
vn -0.220819 -0.907123 0.358284
vn -0.219394 -0.895692 0.386785
vn -0.219394 -0.895692 0.386785
vn -0.219394 -0.895692 0.386785
vn -0.644597 0.079588 0.760368
vn -0.644597 0.079588 0.760368
vn -0.644597 0.079588 0.760368
vn -0.644597 0.079584 0.760369
vn -0.644597 0.079584 0.760369
vn -0.644597 0.079584 0.760369
vn 0.187245 -0.959623 -0.209913
vn 0.187245 -0.959623 -0.209913
vn 0.187245 -0.959623 -0.209913
vn -0.010802 -0.997699 -0.066927
vn -0.010802 -0.997699 -0.066927
vn -0.010802 -0.997699 -0.066927
vn 0.518647 -0.089006 -0.850343
vn 0.518647 -0.089006 -0.850343
vn 0.518647 -0.089006 -0.850343
vn 0.518646 -0.089007 -0.850343
vn 0.518646 -0.089007 -0.850343
vn 0.518646 -0.089007 -0.850343
vn -0.644597 0.079592 0.760368
vn -0.644597 0.079592 0.760368
vn -0.644597 0.079592 0.760368
vn -0.644597 0.079593 0.760368
vn -0.644597 0.079593 0.760368
vn -0.644597 0.079593 0.760368
vn -0.220818 0.961653 0.162674
vn -0.220818 0.961653 0.162674
vn -0.220818 0.961653 0.162674
vn -0.219393 0.956372 0.192923
vn -0.219393 0.956372 0.192923
vn -0.219393 0.956372 0.192923
vn 0.187244 0.895355 -0.404078
vn 0.187244 0.895355 -0.404078
vn 0.187244 0.895355 -0.404078
vn -0.010802 0.962215 -0.272076
vn -0.010802 0.962215 -0.272076
vn -0.010802 0.962215 -0.272076
vn 0.518647 -0.089009 -0.850343
vn 0.518647 -0.089009 -0.850343
vn 0.518647 -0.089009 -0.850343
vn 0.518647 -0.089009 -0.850343
vn 0.518647 -0.089009 -0.850343
vn 0.518647 -0.089009 -0.850343
s off
g tail
usemtl None
f 1/1/1 11/2/2 21/3/3
f 21/3/4 11/2/5 20/4/6
f 3/5/7 12/6/8 15/7/9
f 15/7/10 12/6/11 14/8/12
f 32/9/13 33/10/14 35/11/15
f 35/11/16 33/10/17 34/12/18
f 17/13/19 11/2/20 16/14/21
f 16/14/22 11/2/23 1/1/24
f 58/15/25 57/16/26 60/17/27
f 60/17/28 57/16/29 59/18/30
f 66/19/31 67/20/32 69/21/33
f 69/21/34 67/20/35 68/22/36
f 33/10/37 36/23/38 34/12/39
f 34/12/40 36/23/41 37/24/42
f 17/13/43 18/25/44 11/2/45
f 11/2/46 18/25/47 2/26/48
f 20/4/49 11/2/50 19/27/51
f 19/27/52 11/2/53 2/26/54
f 14/8/55 12/6/56 13/28/57
f 13/28/58 12/6/59 4/29/60
f 14/8/61 13/28/62 9/30/63
f 9/30/64 13/28/65 6/31/66
f 14/8/67 9/30/68 15/7/69
f 15/7/70 9/30/71 5/32/72
f 70/33/73 66/19/74 71/34/75
f 71/34/76 66/19/77 69/21/78
f 7/35/79 10/36/80 16/14/81
f 16/14/82 10/36/83 17/13/84
f 17/13/85 10/36/86 18/25/87
f 18/25/88 10/36/89 8/37/90
f 59/18/91 57/16/92 62/38/93
f 62/38/94 57/16/95 61/39/96
f 12/40/97 20/4/98 4/41/99
f 4/41/100 20/4/101 19/27/102
f 21/3/103 20/4/104 3/42/105
f 3/42/106 20/4/107 12/40/108
f 69/21/109 68/22/110 73/43/111
f 73/43/112 68/22/113 72/44/114
f 71/34/115 69/21/116 74/45/117
f 74/45/118 69/21/119 73/43/120
f 38/46/121 39/47/122 32/9/123
f 32/9/124 39/47/125 33/10/126
f 39/47/127 40/48/128 33/10/129
f 33/10/130 40/48/131 36/23/132
f 63/49/133 59/18/134 64/50/135
f 64/50/136 59/18/137 62/38/138
f 60/17/139 59/18/140 65/51/141
f 65/51/142 59/18/143 63/49/144
f 10/36/145 7/35/146 25/52/147
f 25/52/148 7/35/149 26/53/150
f 7/35/151 22/54/152 26/53/153
f 26/53/154 22/54/155 24/55/156
f 23/56/157 8/37/158 27/57/159
f 27/57/160 8/37/161 28/58/162
f 10/36/163 25/52/164 8/37/165
f 8/37/166 25/52/167 28/58/168
f 9/30/169 30/59/170 5/32/171
f 5/32/172 30/59/173 29/60/174
f 22/54/175 5/61/176 24/55/177
f 24/55/178 5/61/179 29/62/180
f 9/30/181 6/31/182 30/59/183
f 30/59/184 6/31/185 31/63/186
f 6/64/187 23/56/188 31/65/189
f 31/65/190 23/56/191 27/57/192
f 26/53/193 35/11/194 25/52/195
f 25/52/196 35/11/197 34/12/198
f 26/53/199 24/55/200 35/11/201
f 35/11/202 24/55/203 32/9/204
f 27/57/205 28/58/206 36/23/207
f 36/23/208 28/58/209 37/24/210
f 28/58/211 25/52/212 37/24/213
f 37/24/214 25/52/215 34/12/216
f 29/60/217 30/59/218 38/66/219
f 38/66/220 30/59/221 39/67/222
f 24/55/223 29/62/224 32/9/225
f 32/9/226 29/62/227 38/46/228
f 31/63/229 40/68/230 30/59/231
f 30/59/232 40/68/233 39/67/234
f 31/65/235 27/57/236 40/48/237
f 40/48/238 27/57/239 36/23/240
f 18/25/241 41/69/242 2/26/243
f 2/26/244 41/69/245 42/70/246
f 19/27/247 2/26/248 43/71/249
f 43/71/250 2/26/251 42/70/252
f 18/25/253 8/37/254 41/69/255
f 41/69/256 8/37/257 44/72/258
f 8/37/259 23/56/260 44/72/261
f 44/72/262 23/56/263 45/73/264
f 23/56/265 6/64/266 45/73/267
f 45/73/268 6/64/269 47/74/270
f 13/28/271 46/75/272 6/31/273
f 6/31/274 46/75/275 47/76/276
f 13/28/277 4/29/278 46/75/279
f 46/75/280 4/29/281 48/77/282
f 4/41/283 19/27/284 48/78/285
f 48/78/286 19/27/287 43/71/288
f 16/14/289 1/1/290 49/79/291
f 49/79/292 1/1/293 50/80/294
f 1/1/295 21/3/296 50/80/297
f 50/80/298 21/3/299 51/81/300
f 16/14/301 49/79/302 7/35/303
f 7/35/304 49/79/305 52/82/306
f 22/54/307 7/35/308 53/83/309
f 53/83/310 7/35/311 52/82/312
f 21/3/313 3/42/314 51/81/315
f 51/81/316 3/42/317 54/84/318
f 15/7/319 55/85/320 3/5/321
f 3/5/322 55/85/323 54/86/324
f 15/7/325 5/32/326 55/85/327
f 55/85/328 5/32/329 56/87/330
f 5/61/331 22/54/332 56/88/333
f 56/88/334 22/54/335 53/83/336
f 42/70/337 41/69/338 58/15/339
f 58/15/340 41/69/341 57/16/342
f 43/71/343 42/70/344 60/17/345
f 60/17/346 42/70/347 58/15/348
f 44/72/349 61/39/350 41/69/351
f 41/69/352 61/39/353 57/16/354
f 44/72/355 45/73/356 61/39/357
f 61/39/358 45/73/359 62/38/360
f 45/73/361 47/74/362 62/38/363
f 62/38/364 47/74/365 64/50/366
f 47/76/367 46/75/368 64/89/369
f 64/89/370 46/75/371 63/90/372
f 48/77/373 65/91/374 46/75/375
f 46/75/376 65/91/377 63/90/378
f 48/78/379 43/71/380 65/51/381
f 65/51/382 43/71/383 60/17/384
f 50/80/385 67/20/386 49/79/387
f 49/79/388 67/20/389 66/19/390
f 50/80/391 51/81/392 67/20/393
f 67/20/394 51/81/395 68/22/396
f 52/82/397 49/79/398 70/33/399
f 70/33/400 49/79/401 66/19/402
f 53/83/403 52/82/404 71/34/405
f 71/34/406 52/82/407 70/33/408
f 51/81/409 54/84/410 68/22/411
f 68/22/412 54/84/413 72/44/414
f 54/86/415 55/85/416 72/92/417
f 72/92/418 55/85/419 73/93/420
f 56/87/421 74/94/422 55/85/423
f 55/85/424 74/94/425 73/93/426
f 56/88/427 53/83/428 74/45/429
f 74/45/430 53/83/431 71/34/432
