# This file uses centimeters as units for non-parametric coordinates.

mtllib SealeoBody.mtl
g default
v -4.204856 2.770262 3.984512
v -4.057680 2.344862 2.396895
v -3.707866 5.485505 3.256965
v -4.057680 4.752377 1.669348
v -2.102423 0.710853 5.989651
v -2.028835 0.011319 4.380966
v -2.592574 6.811406 2.643423
v -2.518986 6.386007 1.055806
v -0.000001 0.710853 6.355552
v -0.000001 0.011319 4.380966
v -0.000001 7.409223 2.643423
v -0.000001 6.711353 1.055806
v 4.204855 2.770262 3.984512
v 4.057679 2.344862 2.396895
v 3.707865 5.485505 3.256965
v 4.057678 4.752377 1.669348
v 2.102420 0.710853 5.989651
v 2.028832 0.011319 4.380966
v 2.592571 6.811406 2.643423
v 2.518983 6.386007 1.055806
v -1.622357 4.917023 -2.982758
v -3.244723 3.921790 -2.534186
v -0.000001 5.204267 -2.982758
v 1.622354 4.917023 -2.982758
v 3.244721 3.921790 -2.534186
v 3.244721 1.936623 -2.002262
v -3.244722 1.936623 -2.002262
v -1.612689 0.262527 -1.553689
v 1.612686 0.262527 -1.553689
v -0.000001 0.262527 -1.553689
v -0.688441 2.513824 -6.900048
v -1.419257 1.438587 -7.199859
v -1.376881 1.773268 -6.701616
v -0.000001 2.513824 -6.900048
v -0.000001 1.438587 -7.950661
v 1.419255 1.438587 -7.199859
v 0.688440 2.513824 -6.900048
v 1.376880 1.773268 -6.701616
v 1.376880 0.895109 -6.466312
v 1.419255 0.560428 -6.964557
v -1.376881 0.895109 -6.466312
v -1.419256 0.560428 -6.964557
v -0.000001 0.560428 -7.715359
v -0.688441 0.154553 -6.267883
v 0.688440 0.154553 -6.267883
v -0.000001 0.154553 -6.267883
v 2.271792 7.379839 4.376429
v 3.207102 6.172023 5.140338
v -4.000674 3.655298 6.523280
v -3.209043 6.026694 5.063580
v -2.208041 7.313969 4.352558
v 0.009219 7.871821 4.227900
v 4.000672 3.655298 6.523280
v -2.000332 3.141318 8.731623
v 2.000329 3.141318 8.731623
v -0.000001 3.141318 9.097524
v 1.572377 7.378506 5.891171
v 1.246982 6.686834 6.283903
v 2.289759 7.215015 6.821138
v -1.514253 6.397113 8.573510
v -1.388249 6.555019 8.319715
v -1.250686 6.668808 6.141008
v -2.263064 7.108571 6.774634
v -1.467674 7.197310 5.818988
v 0.000256 6.664286 6.271753
v 0.013745 7.644453 5.504360
v 1.514252 6.397113 8.573510
v 1.388247 6.555018 8.639565
v -0.000001 6.027008 8.401366
v -0.702223 5.843095 9.013598
v 0.702221 5.843095 9.013598
v -0.000001 5.843095 9.234552
v 2.948685 5.634357 7.556370
v 1.548740 5.090430 8.935720
v -0.000001 5.090430 9.336890
v -1.548742 5.090430 8.935720
v -2.948686 5.634357 7.556370
v -2.608852 6.362447 6.093484
v -1.770411 7.490897 5.140429
v 0.004411 7.962653 4.941308
v 1.820915 7.584774 5.131195
v 2.614453 6.711071 6.151626
vt 0.758751 0.353031
vt 0.758623 0.384868
vt 0.702520 0.347933
vt 0.698302 0.386432
vt 0.789099 0.597391
vt 0.768915 0.620580
vt 0.765296 0.606901
vt 0.805803 0.597477
vt 0.805076 0.630537
vt 0.810170 0.384754
vt 0.810713 0.351389
vt 0.863009 0.354238
vt 0.861883 0.386511
vt 0.848556 0.283224
vt 0.842261 0.266676
vt 0.870051 0.259754
vt 0.770153 0.207414
vt 0.773978 0.214651
vt 0.752914 0.258120
vt 0.778954 0.262204
vt 0.775878 0.282777
vt 0.810861 0.265086
vt 0.811859 0.291285
vt 0.858325 0.207516
vt 0.853042 0.209096
vt 0.813113 0.207195
vt 0.841665 0.622163
vt 0.822499 0.598113
vt 0.845884 0.608651
vt 0.919629 0.351608
vt 0.922366 0.390545
vt 0.992476 0.397112
vt 0.993083 0.347848
vt 0.794756 0.191586
vt 0.629700 0.341068
vt 0.628324 0.390034
vt 0.832029 0.191668
vt 0.813395 0.186596
vt 0.863917 0.624718
vt 0.852851 0.640015
vt 0.746598 0.622148
vt 0.756953 0.637918
vt 0.804606 0.651887
vt 0.494938 0.695557
vt 0.413400 0.634624
vt 0.502562 0.643066
vt 0.424403 0.592207
vt 0.610906 0.695557
vt 0.603285 0.643066
vt 0.692445 0.634624
vt 0.681443 0.592207
vt 0.552923 0.698845
vt 0.552923 0.643641
vt 0.515745 0.348286
vt 0.534997 0.368798
vt 0.508966 0.362449
vt 0.570849 0.368798
vt 0.590100 0.348286
vt 0.596880 0.362449
vt 0.552923 0.368464
vt 0.552923 0.329856
vt 0.719386 0.488197
vt 0.772602 0.478361
vt 0.808309 0.479791
vt 0.896975 0.491790
vt 0.844082 0.479775
vt 0.944518 0.512939
vt 0.671127 0.507288
vt 0.510990 0.491645
vt 0.450584 0.477976
vt 0.594856 0.491645
vt 0.655261 0.477976
vt 0.552923 0.491440
vt 0.858449 0.318602
vt 0.904888 0.302732
vt 0.715940 0.301780
vt 0.649717 0.265677
vt 0.764936 0.318017
vt 0.811368 0.320421
vt 0.976043 0.271943
vt 0.455095 0.717993
vt 0.628091 0.705833
vt 0.518390 0.822885
vt 0.648744 0.855327
vt 0.995082 0.717993
vt 0.931787 0.822885
vt 0.822086 0.705833
vt 0.801433 0.855327
vt 0.725088 0.699254
vt 0.725088 0.857791
vt 0.884781 0.276962
vt 0.850474 0.301673
vt 0.712485 0.233169
vt 0.737732 0.276205
vt 0.773080 0.300395
vt 0.811549 0.305451
vt 0.914448 0.237049
vt 0.547576 0.933969
vt 0.657157 0.938000
vt 0.902600 0.933969
vt 0.793019 0.938000
vt 0.725088 0.943941
vt 0.817185 0.992796
vt 0.762624 0.978931
vt 0.725088 0.977613
vt 0.687552 0.978931
vt 0.632991 0.992796
vn -0.792975 0.578306 -0.191711
vn -0.792975 0.578306 -0.191711
vn -0.792975 0.578306 -0.191711
vn -0.746201 0.651583 -0.136470
vn -0.746201 0.651583 -0.136470
vn -0.746201 0.651583 -0.136470
vn -0.733149 0.591755 -0.335140
vn -0.733149 0.591755 -0.335140
vn -0.733149 0.591755 -0.335140
vn 0.000000 0.698870 -0.715249
vn 0.000000 0.698870 -0.715249
vn 0.000000 0.698870 -0.715249
vn -0.407246 0.491449 -0.769824
vn -0.407246 0.491449 -0.769824
vn -0.407246 0.491449 -0.769824
vn -0.123613 0.957071 -0.262175
vn -0.123613 0.957071 -0.262175
vn -0.123613 0.957071 -0.262175
vn -0.206543 0.895721 -0.393732
vn -0.206543 0.895721 -0.393732
vn -0.206543 0.895721 -0.393732
vn 0.206543 0.895720 -0.393733
vn 0.206543 0.895720 -0.393733
vn 0.206543 0.895720 -0.393733
vn 0.123613 0.957071 -0.262174
vn 0.123613 0.957071 -0.262174
vn 0.123613 0.957071 -0.262174
vn -0.585333 0.590712 0.555377
vn -0.585333 0.590712 0.555377
vn -0.585333 0.590712 0.555377
vn -0.216936 0.873518 0.435781
vn -0.216936 0.873518 0.435781
vn -0.216936 0.873518 0.435781
vn 0.436113 0.896813 0.074375
vn 0.436113 0.896813 0.074375
vn 0.436113 0.896813 0.074375
vn 0.597885 0.581585 0.551628
vn 0.597885 0.581585 0.551628
vn 0.597885 0.581585 0.551628
vn -0.088774 0.491439 0.866376
vn -0.088774 0.491439 0.866376
vn -0.088774 0.491439 0.866376
vn -0.018915 0.616512 0.787118
vn -0.018915 0.616512 0.787118
vn -0.018915 0.616512 0.787118
vn -0.018820 0.616512 0.787121
vn -0.018820 0.616512 0.787121
vn -0.018820 0.616512 0.787121
vn -0.117478 0.531559 0.838835
vn -0.117478 0.531559 0.838835
vn -0.117478 0.531559 0.838835
vn 0.760761 0.390072 0.518736
vn 0.760761 0.390072 0.518736
vn 0.760761 0.390072 0.518736
vn -0.482074 0.872675 0.077741
vn -0.482074 0.872675 0.077741
vn -0.482074 0.872675 0.077741
vn -0.365571 0.927850 0.073843
vn -0.365571 0.927850 0.073843
vn -0.365571 0.927850 0.073843
vn -0.020116 0.957832 0.286625
vn -0.020116 0.957832 0.286625
vn -0.020116 0.957832 0.286625
vn -0.001829 0.998643 0.052041
vn -0.001829 0.998643 0.052041
vn -0.001829 0.998643 0.052041
vn 0.328254 0.904930 0.270835
vn 0.328254 0.904930 0.270835
vn 0.328254 0.904930 0.270835
vn 0.733149 0.591754 -0.335141
vn 0.733149 0.591754 -0.335141
vn 0.733149 0.591754 -0.335141
vn 0.407246 0.491448 -0.769825
vn 0.407246 0.491448 -0.769825
vn 0.407246 0.491448 -0.769825
vn 0.000000 0.698870 -0.715249
vn 0.000000 0.698870 -0.715249
vn 0.000000 0.698870 -0.715249
vn 0.792975 0.578306 -0.191712
vn 0.792975 0.578306 -0.191712
vn 0.792975 0.578306 -0.191712
vn 0.746201 0.651583 -0.136471
vn 0.746201 0.651583 -0.136471
vn 0.746201 0.651583 -0.136471
vn 0.996011 -0.025812 -0.085416
vn 0.996011 -0.025812 -0.085416
vn 0.996011 -0.025812 -0.085416
vn 0.970822 0.209136 0.117335
vn 0.970822 0.209136 0.117335
vn 0.970822 0.209136 0.117335
vn 0.211854 0.779151 0.589950
vn 0.211854 0.779151 0.589950
vn 0.211854 0.779151 0.589950
vn -0.970821 0.209136 0.117335
vn -0.970821 0.209136 0.117335
vn -0.970821 0.209136 0.117335
vn -0.996011 -0.025813 -0.085416
vn -0.996011 -0.025813 -0.085416
vn -0.996011 -0.025813 -0.085416
vn 0.472202 0.008076 0.881453
vn 0.472202 0.008076 0.881453
vn 0.472202 0.008076 0.881453
vn 0.269302 0.792637 0.546995
vn 0.269302 0.792637 0.546995
vn 0.269302 0.792637 0.546995
vn -0.067666 0.974256 0.215052
vn -0.067666 0.974256 0.215052
vn -0.067666 0.974256 0.215052
vn 0.067666 0.974256 0.215052
vn 0.067666 0.974256 0.215052
vn 0.067666 0.974256 0.215052
vn -0.368408 0.685145 0.628373
vn -0.368408 0.685145 0.628373
vn -0.368408 0.685145 0.628373
vn 0.997228 0.019259 0.071876
vn 0.997228 0.019259 0.071876
vn 0.997228 0.019259 0.071876
vn 0.997228 0.019259 0.071876
vn 0.997228 0.019259 0.071876
vn 0.997228 0.019259 0.071876
vn -0.997227 0.019260 0.071878
vn -0.997227 0.019260 0.071878
vn -0.997227 0.019260 0.071878
vn -0.997228 0.019258 0.071877
vn -0.997228 0.019258 0.071877
vn -0.997228 0.019258 0.071877
vn -0.455023 -0.230474 -0.860137
vn -0.455023 -0.230474 -0.860137
vn -0.455023 -0.230474 -0.860137
vn -0.455022 -0.230473 -0.860138
vn -0.455022 -0.230473 -0.860138
vn -0.455022 -0.230473 -0.860138
vn 0.455022 -0.230473 -0.860138
vn 0.455022 -0.230473 -0.860138
vn 0.455022 -0.230473 -0.860138
vn 0.455022 -0.230473 -0.860138
vn 0.455022 -0.230473 -0.860138
vn 0.455022 -0.230473 -0.860138
vn -0.781218 -0.584754 0.218543
vn -0.781218 -0.584754 0.218543
vn -0.781218 -0.584754 0.218543
vn -0.788234 -0.608753 0.090044
vn -0.788234 -0.608753 0.090044
vn -0.788234 -0.608753 0.090044
vn 0.781217 -0.584755 0.218543
vn 0.781217 -0.584755 0.218543
vn 0.781217 -0.584755 0.218543
vn 0.788233 -0.608753 0.090044
vn 0.788233 -0.608753 0.090044
vn 0.788233 -0.608753 0.090044
vn -0.058019 -0.941009 0.333370
vn -0.058019 -0.941009 0.333370
vn -0.058019 -0.941009 0.333370
vn 0.000000 -0.917048 0.398777
vn 0.000000 -0.917048 0.398777
vn 0.000000 -0.917048 0.398777
vn 0.058019 -0.941009 0.333370
vn 0.058019 -0.941009 0.333370
vn 0.058019 -0.941009 0.333370
vn 0.000000 -0.917048 0.398777
vn 0.000000 -0.917048 0.398777
vn 0.000000 -0.917048 0.398777
vn -0.715720 -0.550043 0.430346
vn -0.715720 -0.550043 0.430346
vn -0.715720 -0.550043 0.430346
vn 0.715720 -0.550043 0.430346
vn 0.715720 -0.550043 0.430346
vn 0.715720 -0.550043 0.430346
vn 0.000000 -0.864059 -0.503391
vn 0.000000 -0.864059 -0.503391
vn 0.000000 -0.864059 -0.503391
vn -0.141392 -0.953190 -0.267276
vn -0.141392 -0.953190 -0.267276
vn -0.141392 -0.953190 -0.267276
vn 0.000000 -0.864059 -0.503391
vn 0.000000 -0.864059 -0.503391
vn 0.000000 -0.864059 -0.503391
vn 0.141392 -0.953190 -0.267276
vn 0.141392 -0.953190 -0.267276
vn 0.141392 -0.953190 -0.267276
vn -0.749611 0.606587 -0.264831
vn -0.749611 0.606587 -0.264831
vn -0.749611 0.606587 -0.264831
vn -0.557426 0.732767 -0.390294
vn -0.557426 0.732767 -0.390294
vn -0.557426 0.732767 -0.390294
vn -0.119372 0.924236 -0.362683
vn -0.119372 0.924236 -0.362683
vn -0.119372 0.924236 -0.362683
vn -0.163644 0.924261 -0.344910
vn -0.163644 0.924261 -0.344910
vn -0.163644 0.924261 -0.344910
vn 0.749611 0.606587 -0.264831
vn 0.749611 0.606587 -0.264831
vn 0.749611 0.606587 -0.264831
vn 0.557426 0.732767 -0.390294
vn 0.557426 0.732767 -0.390294
vn 0.557426 0.732767 -0.390294
vn 0.119372 0.924236 -0.362683
vn 0.119372 0.924236 -0.362683
vn 0.119372 0.924236 -0.362683
vn 0.163644 0.924261 -0.344910
vn 0.163644 0.924261 -0.344910
vn 0.163644 0.924261 -0.344910
vn 0.982821 -0.053389 -0.176670
vn 0.982821 -0.053389 -0.176670
vn 0.982821 -0.053389 -0.176670
vn 0.982397 -0.048349 -0.180441
vn 0.982397 -0.048349 -0.180441
vn 0.982397 -0.048349 -0.180441
vn -0.982821 -0.053389 -0.176670
vn -0.982821 -0.053389 -0.176670
vn -0.982821 -0.053389 -0.176670
vn -0.982397 -0.048350 -0.180441
vn -0.982397 -0.048350 -0.180441
vn -0.982397 -0.048350 -0.180441
vn -0.717758 -0.691726 -0.079610
vn -0.717758 -0.691726 -0.079610
vn -0.717758 -0.691726 -0.079610
vn -0.705777 -0.705450 -0.064961
vn -0.705777 -0.705450 -0.064961
vn -0.705777 -0.705450 -0.064961
vn 0.717758 -0.691727 -0.079610
vn 0.717758 -0.691727 -0.079610
vn 0.717758 -0.691727 -0.079610
vn 0.705776 -0.705450 -0.064961
vn 0.705776 -0.705450 -0.064961
vn 0.705776 -0.705450 -0.064961
vn 0.000000 -0.999105 -0.042291
vn 0.000000 -0.999105 -0.042291
vn 0.000000 -0.999105 -0.042291
vn 0.000000 -0.999105 -0.042291
vn 0.000000 -0.999105 -0.042291
vn 0.000000 -0.999105 -0.042291
vn 0.000000 -0.999105 -0.042291
vn 0.000000 -0.999105 -0.042291
vn 0.000000 -0.999105 -0.042291
vn 0.000000 -0.999105 -0.042291
vn 0.000000 -0.999105 -0.042291
vn 0.000000 -0.999105 -0.042291
vn -0.539455 0.625144 -0.564077
vn -0.539455 0.625144 -0.564077
vn -0.539455 0.625144 -0.564077
vn -0.700961 0.521180 -0.486852
vn -0.700961 0.521180 -0.486852
vn -0.700961 0.521180 -0.486852
vn -0.146466 0.827242 -0.542419
vn -0.146466 0.827242 -0.542419
vn -0.146466 0.827242 -0.542419
vn 0.000000 0.824307 -0.566144
vn 0.000000 0.824307 -0.566144
vn 0.000000 0.824307 -0.566144
vn 0.539455 0.625144 -0.564077
vn 0.539455 0.625144 -0.564077
vn 0.539455 0.625144 -0.564077
vn 0.700962 0.521180 -0.486851
vn 0.700962 0.521180 -0.486851
vn 0.700962 0.521180 -0.486851
vn 0.146466 0.827242 -0.542419
vn 0.146466 0.827242 -0.542419
vn 0.146466 0.827242 -0.542419
vn 0.000000 0.824306 -0.566144
vn 0.000000 0.824306 -0.566144
vn 0.000000 0.824306 -0.566144
vn 0.926000 -0.097710 -0.364659
vn 0.926000 -0.097710 -0.364659
vn 0.926000 -0.097710 -0.364659
vn 0.926000 -0.097711 -0.364659
vn 0.926000 -0.097711 -0.364659
vn 0.926000 -0.097711 -0.364659
vn -0.926000 -0.097710 -0.364659
vn -0.926000 -0.097710 -0.364659
vn -0.926000 -0.097710 -0.364659
vn -0.926000 -0.097711 -0.364659
vn -0.926000 -0.097711 -0.364659
vn -0.926000 -0.097711 -0.364659
vn -0.693558 -0.709533 -0.124655
vn -0.693558 -0.709533 -0.124655
vn -0.693558 -0.709533 -0.124655
vn -0.710118 -0.693194 -0.123346
vn -0.710118 -0.693194 -0.123346
vn -0.710118 -0.693194 -0.123346
vn 0.693558 -0.709534 -0.124655
vn 0.693558 -0.709534 -0.124655
vn 0.693558 -0.709534 -0.124655
vn 0.710118 -0.693194 -0.123346
vn 0.710118 -0.693194 -0.123346
vn 0.710118 -0.693194 -0.123346
vn 0.000000 -0.999738 0.022898
vn 0.000000 -0.999738 0.022898
vn 0.000000 -0.999738 0.022898
vn 0.000000 -0.999738 0.022898
vn 0.000000 -0.999738 0.022898
vn 0.000000 -0.999738 0.022898
vn 0.000000 -0.999738 0.022898
vn 0.000000 -0.999738 0.022898
vn 0.000000 -0.999738 0.022898
vn 0.000000 -0.999738 0.022898
vn 0.000000 -0.999738 0.022898
vn 0.000000 -0.999738 0.022898
vn 0.777622 0.625736 -0.061306
vn 0.777622 0.625736 -0.061306
vn 0.777622 0.625736 -0.061306
vn 0.793833 0.608044 -0.010572
vn 0.793833 0.608044 -0.010572
vn 0.793833 0.608044 -0.010572
vn -0.954085 0.226999 0.195432
vn -0.954085 0.226999 0.195432
vn -0.954085 0.226999 0.195432
vn -0.953253 0.300853 -0.028214
vn -0.953253 0.300853 -0.028214
vn -0.953253 0.300853 -0.028214
vn -0.768617 0.639531 -0.015122
vn -0.768617 0.639531 -0.015122
vn -0.768617 0.639531 -0.015122
vn -0.781276 0.623514 0.028938
vn -0.781276 0.623514 0.028938
vn -0.781276 0.623514 0.028938
vn -0.218686 0.948383 -0.229666
vn -0.218686 0.948383 -0.229666
vn -0.218686 0.948383 -0.229666
vn -0.249177 0.930037 -0.270079
vn -0.249177 0.930037 -0.270079
vn -0.249177 0.930037 -0.270079
vn 0.216481 0.938820 -0.267867
vn 0.216481 0.938820 -0.267867
vn 0.216481 0.938820 -0.267867
vn 0.221489 0.935736 -0.274483
vn 0.221489 0.935736 -0.274483
vn 0.221489 0.935736 -0.274483
vn 0.959330 0.222233 0.174065
vn 0.959330 0.222233 0.174065
vn 0.959330 0.222233 0.174065
vn 0.957104 0.288773 -0.023693
vn 0.957104 0.288773 -0.023693
vn 0.957104 0.288773 -0.023693
vn -0.790238 -0.556111 0.257420
vn -0.790238 -0.556111 0.257420
vn -0.790238 -0.556111 0.257420
vn -0.685473 -0.532005 0.497088
vn -0.685473 -0.532005 0.497088
vn -0.685473 -0.532005 0.497088
vn 0.790238 -0.556111 0.257421
vn 0.790238 -0.556111 0.257421
vn 0.790238 -0.556111 0.257421
vn 0.685473 -0.532006 0.497088
vn 0.685473 -0.532006 0.497088
vn 0.685473 -0.532006 0.497088
vn -0.115093 -0.741232 0.661308
vn -0.115093 -0.741232 0.661308
vn -0.115093 -0.741232 0.661308
vn -0.120451 -0.742887 0.658491
vn -0.120451 -0.742887 0.658491
vn -0.120451 -0.742887 0.658491
vn 0.115093 -0.741232 0.661308
vn 0.115093 -0.741232 0.661308
vn 0.115093 -0.741232 0.661308
vn 0.120451 -0.742888 0.658490
vn 0.120451 -0.742888 0.658490
vn 0.120451 -0.742888 0.658490
vn 0.755907 0.647311 0.097950
vn 0.755907 0.647311 0.097950
vn 0.755907 0.647311 0.097950
vn 0.625297 0.762413 0.166524
vn 0.625297 0.762413 0.166524
vn 0.625297 0.762413 0.166524
vn -0.903678 0.398361 0.157081
vn -0.903678 0.398361 0.157081
vn -0.903678 0.398361 0.157081
vn -0.698973 0.691638 0.181860
vn -0.698973 0.691638 0.181860
vn -0.698973 0.691638 0.181860
vn -0.716857 0.667915 0.200015
vn -0.716857 0.667915 0.200015
vn -0.716857 0.667915 0.200015
vn -0.682817 0.695710 0.223044
vn -0.682817 0.695710 0.223044
vn -0.682817 0.695710 0.223044
vn -0.247418 0.965648 -0.079422
vn -0.247418 0.965648 -0.079422
vn -0.247418 0.965648 -0.079422
vn -0.267834 0.955522 -0.123462
vn -0.267834 0.955522 -0.123462
vn -0.267834 0.955522 -0.123462
vn 0.218877 0.966816 -0.131759
vn 0.218877 0.966816 -0.131759
vn 0.218877 0.966816 -0.131759
vn 0.214348 0.969115 -0.121947
vn 0.214348 0.969115 -0.121947
vn 0.214348 0.969115 -0.121947
vn 0.904474 0.385498 0.182531
vn 0.904474 0.385498 0.182531
vn 0.904474 0.385498 0.182531
vn 0.826599 0.524109 0.205048
vn 0.826599 0.524109 0.205048
vn 0.826599 0.524109 0.205048
vn -0.736119 0.038540 0.675754
vn -0.736119 0.038540 0.675754
vn -0.736119 0.038540 0.675754
vn -0.683068 0.082269 0.725707
vn -0.683068 0.082269 0.725707
vn -0.683068 0.082269 0.725707
vn 0.736118 0.038540 0.675755
vn 0.736118 0.038540 0.675755
vn 0.736118 0.038540 0.675755
vn 0.683068 0.082268 0.725707
vn 0.683068 0.082268 0.725707
vn 0.683068 0.082268 0.725707
vn -0.179597 -0.061200 0.981835
vn -0.179597 -0.061200 0.981835
vn -0.179597 -0.061200 0.981835
vn -0.249000 -0.118053 0.961282
vn -0.249000 -0.118053 0.961282
vn -0.249000 -0.118053 0.961282
vn 0.179597 -0.061200 0.981835
vn 0.179597 -0.061200 0.981835
vn 0.179597 -0.061200 0.981835
vn 0.249001 -0.118053 0.961282
vn 0.249001 -0.118053 0.961282
vn 0.249001 -0.118053 0.961282
vn 0.639587 0.220975 0.736273
vn 0.639587 0.220975 0.736273
vn 0.639587 0.220975 0.736273
vn 0.316117 0.261167 0.912065
vn 0.316117 0.261167 0.912065
vn 0.316117 0.261167 0.912065
vn 0.246708 0.178923 0.952429
vn 0.246708 0.178923 0.952429
vn 0.246708 0.178923 0.952429
vn 0.297648 0.128621 0.945972
vn 0.297648 0.128621 0.945972
vn 0.297648 0.128621 0.945972
vn -0.246708 0.178923 0.952429
vn -0.246708 0.178923 0.952429
vn -0.246708 0.178923 0.952429
vn -0.297648 0.128621 0.945972
vn -0.297648 0.128621 0.945972
vn -0.297648 0.128621 0.945972
vn -0.639587 0.220975 0.736273
vn -0.639587 0.220975 0.736273
vn -0.639587 0.220975 0.736273
vn -0.316117 0.261166 0.912065
vn -0.316117 0.261166 0.912065
vn -0.316117 0.261166 0.912065
vn -0.906942 0.421254 -0.001024
vn -0.906942 0.421254 -0.001024
vn -0.906942 0.421254 -0.001024
vn -0.655134 0.568532 0.497565
vn -0.655134 0.568532 0.497565
vn -0.655134 0.568532 0.497565
vn -0.423443 0.747218 0.512212
vn -0.423443 0.747218 0.512212
vn -0.423443 0.747218 0.512212
vn -0.597503 0.673790 -0.434738
vn -0.597503 0.673790 -0.434738
vn -0.597503 0.673790 -0.434738
vn -0.172981 0.856239 0.486758
vn -0.172981 0.856239 0.486758
vn -0.172981 0.856239 0.486758
vn -0.167852 0.875264 0.453583
vn -0.167852 0.875264 0.453583
vn -0.167852 0.875264 0.453583
vn 0.128951 0.864240 0.486273
vn 0.128951 0.864240 0.486273
vn 0.128951 0.864240 0.486273
vn 0.091043 0.953150 0.288473
vn 0.091043 0.953150 0.288473
vn 0.091043 0.953150 0.288473
vn 0.435462 0.822591 0.365673
vn 0.435462 0.822591 0.365673
vn 0.435462 0.822591 0.365673
vn 0.566541 0.766595 -0.302264
vn 0.566541 0.766595 -0.302264
vn 0.566541 0.766595 -0.302264
vn 0.897119 0.426892 0.113754
vn 0.897119 0.426892 0.113754
vn 0.897119 0.426892 0.113754
vn 0.660111 0.525051 0.537192
vn 0.660111 0.525051 0.537192
vn 0.660111 0.525051 0.537192
s off
g body
usemtl None
f 7/1/1 8/2/2 3/3/3
f 3/3/4 8/2/5 4/4/6
f 31/5/7 32/6/8 33/7/9
f 34/8/10 35/9/11 31/5/12
f 31/5/13 35/9/14 32/6/15
f 8/2/16 7/1/17 12/10/18
f 12/10/19 7/1/20 11/11/21
f 11/11/22 19/12/23 12/10/24
f 12/10/25 19/12/26 20/13/27
f 57/14/28 58/15/29 59/16/30
f 60/17/31 61/18/32 63/19/33
f 63/19/34 61/18/35 62/20/36
f 62/20/37 64/21/38 63/19/39
f 62/20/40 65/22/41 64/21/42
f 64/21/43 65/22/44 66/23/45
f 65/22/46 58/15/47 66/23/48
f 66/23/49 58/15/50 57/14/51
f 67/24/52 59/16/53 68/25/54
f 68/25/55 59/16/56 58/15/57
f 68/25/58 58/15/59 69/26/60
f 69/26/61 58/15/62 65/22/63
f 62/20/64 61/18/65 65/22/66
f 65/22/67 61/18/68 69/26/69
f 36/27/70 37/28/71 38/29/72
f 36/27/73 35/9/74 37/28/75
f 37/28/76 35/9/77 34/8/78
f 19/12/79 15/30/80 20/13/81
f 20/13/82 15/30/83 16/31/84
f 14/32/85 16/31/86 13/33/87
f 13/33/88 16/31/89 15/30/90
f 70/34/91 61/18/92 60/17/93
f 3/3/94 4/4/95 1/35/96
f 1/35/97 4/4/98 2/36/99
f 68/25/100 71/37/101 67/24/102
f 61/18/103 70/34/104 69/26/105
f 69/26/106 70/34/107 72/38/108
f 72/38/109 71/37/110 69/26/111
f 69/26/112 71/37/113 68/25/114
f 38/29/115 39/39/116 36/27/117
f 36/27/118 39/39/119 40/40/120
f 33/7/121 32/6/122 41/41/123
f 41/41/124 32/6/125 42/42/126
f 42/42/127 32/6/128 43/43/129
f 43/43/130 32/6/131 35/9/132
f 35/9/133 36/27/134 43/43/135
f 43/43/136 36/27/137 40/40/138
f 5/44/139 1/45/140 6/46/141
f 6/46/142 1/45/143 2/47/144
f 17/48/145 18/49/146 13/50/147
f 13/50/148 18/49/149 14/51/150
f 9/52/151 5/44/152 10/53/153
f 10/53/154 5/44/155 6/46/156
f 9/52/157 10/53/158 17/48/159
f 17/48/160 10/53/161 18/49/162
f 42/54/163 44/55/164 41/56/165
f 45/57/166 40/58/167 39/59/168
f 44/55/169 42/54/170 46/60/171
f 46/60/172 42/54/173 43/61/174
f 45/57/175 46/60/176 40/58/177
f 40/58/178 46/60/179 43/61/180
f 4/4/181 8/2/182 22/62/183
f 22/62/184 8/2/185 21/63/186
f 8/2/187 12/10/188 21/63/189
f 21/63/190 12/10/191 23/64/192
f 16/31/193 25/65/194 20/13/195
f 20/13/196 25/65/197 24/66/198
f 20/13/199 24/66/200 12/10/201
f 12/10/202 24/66/203 23/64/204
f 14/32/205 26/67/206 16/31/207
f 16/31/208 26/67/209 25/65/210
f 2/36/211 4/4/212 27/68/213
f 27/68/214 4/4/215 22/62/216
f 6/46/217 2/47/218 28/69/219
f 28/69/220 2/47/221 27/70/222
f 18/49/223 29/71/224 14/51/225
f 14/51/226 29/71/227 26/72/228
f 6/46/229 28/69/230 10/53/231
f 10/53/232 28/69/233 30/73/234
f 18/49/235 10/53/236 29/71/237
f 29/71/238 10/53/239 30/73/240
f 22/62/241 21/63/242 33/7/243
f 33/7/244 21/63/245 31/5/246
f 21/63/247 23/64/248 31/5/249
f 31/5/250 23/64/251 34/8/252
f 25/65/253 38/29/254 24/66/255
f 24/66/256 38/29/257 37/28/258
f 24/66/259 37/28/260 23/64/261
f 23/64/262 37/28/263 34/8/264
f 25/65/265 26/67/266 38/29/267
f 38/29/268 26/67/269 39/39/270
f 22/62/271 33/7/272 27/68/273
f 27/68/274 33/7/275 41/41/276
f 27/70/277 41/56/278 28/69/279
f 28/69/280 41/56/281 44/55/282
f 26/72/283 29/71/284 39/59/285
f 39/59/286 29/71/287 45/57/288
f 28/69/289 44/55/290 30/73/291
f 30/73/292 44/55/293 46/60/294
f 29/71/295 30/73/296 45/57/297
f 45/57/298 30/73/299 46/60/300
f 19/12/301 47/74/302 15/30/303
f 15/30/304 47/74/305 48/75/306
f 3/3/307 1/35/308 50/76/309
f 50/76/310 1/35/311 49/77/312
f 7/1/313 3/3/314 51/78/315
f 51/78/316 3/3/317 50/76/318
f 7/1/319 51/78/320 11/11/321
f 11/11/322 51/78/323 52/79/324
f 19/12/325 11/11/326 47/74/327
f 47/74/328 11/11/329 52/79/330
f 15/30/331 48/75/332 13/33/333
f 13/33/334 48/75/335 53/80/336
f 1/81/337 5/82/338 49/83/339
f 49/83/340 5/82/341 54/84/342
f 13/85/343 53/86/344 17/87/345
f 17/87/346 53/86/347 55/88/348
f 5/82/349 9/89/350 54/84/351
f 54/84/352 9/89/353 56/90/354
f 17/87/355 55/88/356 9/89/357
f 9/89/358 55/88/359 56/90/360
f 48/75/361 47/74/362 82/91/363
f 82/91/364 47/74/365 81/92/366
f 49/77/367 77/93/368 50/76/369
f 50/76/370 77/93/371 78/94/372
f 50/76/373 78/94/374 51/78/375
f 51/78/376 78/94/377 79/95/378
f 51/78/379 79/95/380 52/79/381
f 52/79/382 79/95/383 80/96/384
f 47/74/385 52/79/386 81/92/387
f 81/92/388 52/79/389 80/96/390
f 53/80/391 48/75/392 73/97/393
f 73/97/394 48/75/395 82/91/396
f 49/83/397 54/84/398 77/98/399
f 77/98/400 54/84/401 76/99/402
f 53/86/403 73/100/404 55/88/405
f 55/88/406 73/100/407 74/101/408
f 54/84/409 56/90/410 76/99/411
f 76/99/412 56/90/413 75/102/414
f 55/88/415 74/101/416 56/90/417
f 56/90/418 74/101/419 75/102/420
f 73/100/421 67/103/422 74/101/423
f 74/101/424 67/103/425 71/104/426
f 74/101/427 71/104/428 75/102/429
f 75/102/430 71/104/431 72/105/432
f 76/99/433 75/102/434 70/106/435
f 70/106/436 75/102/437 72/105/438
f 77/98/439 76/99/440 60/107/441
f 60/107/442 76/99/443 70/106/444
f 78/94/445 77/93/446 63/19/447
f 63/19/448 77/93/449 60/17/450
f 79/95/451 78/94/452 64/21/453
f 64/21/454 78/94/455 63/19/456
f 80/96/457 79/95/458 66/23/459
f 66/23/460 79/95/461 64/21/462
f 80/96/463 66/23/464 81/92/465
f 81/92/466 66/23/467 57/14/468
f 81/92/469 57/14/470 82/91/471
f 82/91/472 57/14/473 59/16/474
f 82/91/475 59/16/476 73/97/477
f 73/97/478 59/16/479 67/24/480
