# This file uses centimeters as units for non-parametric coordinates.

mtllib SealeoLArm.mtl
g default
v -0.320059 0.051638 0.778463
v 2.841257 -1.738824 2.613775
v 0.215638 0.367189 0.793213
v 2.841257 -1.325574 2.613775
v 0.300007 0.298893 -0.809901
v 3.598079 -1.325574 -0.061993
v -0.235690 -0.016658 -0.824651
v 3.598079 -1.738824 -0.061993
v 0.839416 -1.118301 -0.531150
v 0.339420 -1.433851 -0.545900
v 0.110628 -1.077751 0.738638
v 0.610624 -0.762200 0.753387
v 1.381610 -1.579122 -1.018849
v 1.381610 -1.992372 -1.018849
v 1.036030 -1.912034 1.153364
v 1.036030 -1.498784 1.153364
v 4.078902 -1.269627 1.492458
v 1.344057 -1.181422 0.038293
v 0.880474 -0.849716 0.096166
v 0.421944 0.427931 -0.028117
v -0.537278 -0.553078 0.029801
v 0.076494 -1.357112 0.072450
v 1.344057 -2.181422 0.038293
v 4.078901 -1.738824 1.492458
vt 0.522857 0.087368
vt 0.520782 0.105233
vt 0.483743 0.080418
vt 0.472523 0.091627
vt 0.919972 0.219070
vt 0.862512 0.163534
vt 0.951978 0.177773
vt 0.876424 0.121740
vt 0.473197 0.029528
vt 0.534783 0.018588
vt 0.484636 0.040261
vt 0.533725 0.039694
vt 0.528636 0.062029
vt 0.498798 0.062038
vt 0.612976 0.103590
vt 0.638781 0.067134
vt 0.621929 0.120196
vt 0.656284 0.069311
vt 0.460114 0.059110
vt 0.561975 0.008970
vt 0.567489 0.026085
vt 0.559107 0.094224
vt 0.574827 0.059172
vt 0.549340 0.110967
vt 0.850478 0.093907
vt 0.814824 0.157565
vt 0.635549 0.012996
vt 0.623086 0.027219
vt 0.513778 0.167666
vt 0.585758 0.149689
vt 0.480806 0.294126
vt 0.579401 0.326744
vt 0.684638 0.158470
vt 0.677820 0.055122
vt 0.891578 0.039343
vt 0.766045 0.006533
vt 0.898811 0.086496
vt 0.982252 0.139866
vt 0.650380 0.254685
vt 0.646623 0.122111
vn -0.005834 -0.037462 0.999281
vn -0.005834 -0.037462 0.999281
vn -0.005834 -0.037462 0.999281
vn -0.005604 -0.037198 0.999292
vn -0.005604 -0.037198 0.999292
vn -0.005604 -0.037198 0.999292
vn 0.915948 0.311413 0.253103
vn 0.915948 0.311413 0.253103
vn 0.915948 0.311413 0.253103
vn 0.882746 0.347560 0.316168
vn 0.882746 0.347560 0.316168
vn 0.882746 0.347560 0.316168
vn 0.115033 -0.149381 -0.982065
vn 0.115033 -0.149381 -0.982065
vn 0.115033 -0.149381 -0.982065
vn 0.120130 -0.144440 -0.982195
vn 0.120130 -0.144440 -0.982195
vn 0.120130 -0.144440 -0.982195
vn -0.770224 -0.573121 0.279799
vn -0.770224 -0.573121 0.279799
vn -0.770224 -0.573121 0.279799
vn -0.805419 -0.324629 0.495899
vn -0.805419 -0.324629 0.495899
vn -0.805419 -0.324629 0.495899
vn 0.671421 0.000000 0.741076
vn 0.671421 0.000000 0.741076
vn 0.671421 0.000000 0.741076
vn 0.671421 -0.000002 0.741076
vn 0.671421 -0.000002 0.741076
vn 0.671421 -0.000002 0.741076
vn -0.685310 0.650795 -0.326828
vn -0.685310 0.650795 -0.326828
vn -0.685310 0.650795 -0.326828
vn -0.505230 0.860663 -0.063255
vn -0.505230 0.860663 -0.063255
vn -0.505230 0.860663 -0.063255
vn -0.668756 0.000000 -0.743482
vn -0.668756 0.000000 -0.743482
vn -0.668756 0.000000 -0.743482
vn -0.209468 0.374134 -0.903408
vn -0.209468 0.374134 -0.903408
vn -0.209468 0.374134 -0.903408
vn -0.709444 -0.636231 0.303149
vn -0.709444 -0.636231 0.303149
vn -0.709444 -0.636231 0.303149
vn -0.543435 -0.837821 0.052289
vn -0.543435 -0.837821 0.052289
vn -0.543435 -0.837821 0.052289
vn -0.246657 0.348567 0.904247
vn -0.246657 0.348567 0.904247
vn -0.246657 0.348567 0.904247
vn -0.408967 0.000000 0.912549
vn -0.408967 0.000000 0.912549
vn -0.408967 0.000000 0.912549
vn 0.587672 0.797747 0.135065
vn 0.587672 0.797747 0.135065
vn 0.587672 0.797747 0.135065
vn 0.704972 0.606655 0.367402
vn 0.704972 0.606655 0.367402
vn 0.704972 0.606655 0.367402
vn 0.396347 0.000000 -0.918101
vn 0.396347 0.000000 -0.918101
vn 0.396347 0.000000 -0.918101
vn 0.396347 0.000000 -0.918101
vn 0.396347 0.000000 -0.918101
vn 0.396347 0.000000 -0.918101
vn -0.079186 -0.973756 0.213374
vn -0.079186 -0.973756 0.213374
vn -0.079186 -0.973756 0.213374
vn 0.100828 -0.988660 0.111288
vn 0.100828 -0.988660 0.111288
vn 0.100828 -0.988660 0.111288
vn -0.628948 0.000000 0.777448
vn -0.628948 0.000000 0.777448
vn -0.628948 0.000000 0.777448
vn -0.628947 0.000000 0.777448
vn -0.628947 0.000000 0.777448
vn -0.628947 0.000000 0.777448
vn -0.252425 0.946778 0.199734
vn -0.252425 0.946778 0.199734
vn -0.252425 0.946778 0.199734
vn 0.003601 0.998546 0.053796
vn 0.003601 0.998546 0.053796
vn 0.003601 0.998546 0.053796
vn 0.044242 0.935559 -0.350388
vn 0.044242 0.935559 -0.350388
vn 0.044242 0.935559 -0.350388
vn 0.061297 0.996612 -0.054830
vn 0.061297 0.996612 -0.054830
vn 0.061297 0.996612 -0.054830
vn 0.510748 0.777737 -0.366416
vn 0.510748 0.777737 -0.366416
vn 0.510748 0.777737 -0.366416
vn 0.445481 0.843056 -0.301335
vn 0.445481 0.843056 -0.301335
vn 0.445481 0.843056 -0.301335
vn 0.928758 0.314183 -0.196718
vn 0.928758 0.314183 -0.196718
vn 0.928758 0.314183 -0.196718
vn 0.928707 0.314999 -0.195651
vn 0.928707 0.314999 -0.195651
vn 0.928707 0.314999 -0.195651
vn -0.696561 0.692233 0.188721
vn -0.696561 0.692233 0.188721
vn -0.696561 0.692233 0.188721
vn -0.505229 0.860664 -0.063256
vn -0.505229 0.860664 -0.063256
vn -0.505229 0.860664 -0.063256
vn -0.750653 -0.406992 -0.520459
vn -0.750653 -0.406992 -0.520459
vn -0.750653 -0.406992 -0.520459
vn -0.763069 -0.595789 -0.250522
vn -0.763069 -0.595789 -0.250522
vn -0.763069 -0.595789 -0.250522
vn -0.543111 -0.829855 -0.127947
vn -0.543111 -0.829855 -0.127947
vn -0.543111 -0.829855 -0.127947
vn -0.523776 -0.835135 -0.167954
vn -0.523776 -0.835135 -0.167954
vn -0.523776 -0.835135 -0.167954
vn 0.189831 -0.980059 -0.058718
vn 0.189831 -0.980059 -0.058718
vn 0.189831 -0.980059 -0.058718
vn 0.182831 -0.968896 -0.166774
vn 0.182831 -0.968896 -0.166774
vn 0.182831 -0.968896 -0.166774
vn 0.955341 0.000000 -0.295506
vn 0.955341 0.000000 -0.295506
vn 0.955341 0.000000 -0.295506
vn 0.955341 0.000000 -0.295506
vn 0.955341 0.000000 -0.295506
vn 0.955341 0.000000 -0.295506
s off
g leftFin
usemtl None
f 11/1/1 12/2/2 1/3/3
f 1/3/4 12/2/5 3/4/6
f 3/5/7 12/6/8 20/7/9
f 20/7/10 12/6/11 19/8/12
f 5/9/13 9/10/14 7/11/15
f 7/11/16 9/10/17 10/12/18
f 22/13/19 11/1/20 21/14/21
f 21/14/22 11/1/23 1/3/24
f 2/15/25 24/16/26 4/17/27
f 4/17/28 24/16/29 17/18/30
f 21/14/31 1/3/32 20/19/33
f 20/19/34 1/3/35 3/4/36
f 13/20/37 14/21/38 9/10/39
f 9/10/40 14/21/41 10/12/42
f 11/1/43 22/13/44 15/22/45
f 15/22/46 22/13/47 23/23/48
f 12/2/49 11/1/50 16/24/51
f 16/24/52 11/1/53 15/22/54
f 19/8/55 12/6/56 18/25/57
f 18/25/58 12/6/59 16/26/60
f 6/27/61 8/28/62 13/20/63
f 13/20/64 8/28/65 14/21/66
f 15/29/67 23/30/68 2/31/69
f 2/31/70 23/30/71 24/32/72
f 15/22/73 2/15/74 16/24/75
f 16/24/76 2/15/77 4/17/78
f 16/26/79 4/33/80 18/25/81
f 18/25/82 4/33/83 17/34/84
f 13/35/85 18/25/86 6/36/87
f 6/36/88 18/25/89 17/34/90
f 19/8/91 18/25/92 9/37/93
f 9/37/94 18/25/95 13/35/96
f 20/7/97 19/8/98 5/38/99
f 5/38/100 19/8/101 9/37/102
f 21/14/103 20/19/104 7/11/105
f 7/11/106 20/19/107 5/9/108
f 7/11/109 10/12/110 21/14/111
f 21/14/112 10/12/113 22/13/114
f 22/13/115 10/12/116 23/23/117
f 23/23/118 10/12/119 14/21/120
f 24/32/121 23/30/122 8/39/123
f 8/39/124 23/30/125 14/40/126
f 17/18/127 24/16/128 6/27/129
f 6/27/130 24/16/131 8/28/132
