# This file uses centimeters as units for non-parametric coordinates.

mtllib CrustleFLLeg.mtl
g default1
v 0.971272 0.261545 0.414816
v 1.911508 -1.017874 0.497593
v 1.014139 0.446501 0.456245
v 1.106436 0.470974 0.182238
v 1.063569 0.286019 0.140809
v 1.388985 0.261352 0.267777
v 1.251035 0.054329 0.202817
v 1.169336 0.032666 0.445361
v 1.307286 0.239689 0.510321
v 1.744791 -0.357388 0.376546
v 1.581708 -0.410673 0.309345
v 1.515342 -0.428271 0.506370
v 1.678425 -0.374986 0.573572
v 0.000313 -0.068357 0.068440
v 1.083751 0.255154 0.382715
v -0.037089 0.067440 0.057590
v 1.046349 0.390951 0.371866
v -0.000900 0.067440 -0.067169
v 1.082538 0.390951 0.247107
v 0.036502 -0.068357 -0.056320
v 1.119940 0.255154 0.257956
vt 0.782588 0.849769
vt 0.778853 0.882729
vt 0.784344 0.886209
vt 0.781962 0.915655
vt 0.797717 0.919552
vt 0.792799 0.886178
vt 0.800099 0.890105
vt 0.796534 0.853218
vt 0.403292 0.523409
vt 0.394506 0.396537
vt 0.408539 0.480959
vt 0.399934 0.385610
vt 0.388947 0.476517
vt 0.384019 0.382002
vt 0.383700 0.518967
vt 0.378591 0.392928
vt 0.384728 0.261104
vt 0.804260 0.833685
vt 0.786190 0.885191
vt 0.804884 0.855305
vt 0.786814 0.906811
vt 0.812058 0.855305
vt 0.793987 0.906811
vt 0.811434 0.833685
vt 0.793363 0.885191
vn -0.278463 -0.113697 0.953694
vn -0.278763 -0.124735 0.952225
vn -0.278992 -0.134120 0.950881
vn -0.278992 -0.134120 0.950881
vn -0.278763 -0.124735 0.952225
vn -0.279280 -0.147787 0.948768
vn 0.526936 0.812290 0.250045
vn 0.526936 0.812290 0.250045
vn 0.526936 0.812290 0.250045
vn 0.526936 0.812290 0.250045
vn 0.526936 0.812290 0.250045
vn 0.526936 0.812290 0.250046
vn 0.368758 0.120968 -0.921621
vn 0.367246 0.071347 -0.927383
vn 0.367970 0.091494 -0.925325
vn 0.367970 0.091494 -0.925325
vn 0.367246 0.071347 -0.927383
vn 0.366200 0.047587 -0.929319
vn -0.702822 -0.647509 -0.294574
vn -0.702822 -0.647509 -0.294573
vn -0.702822 -0.647509 -0.294574
vn -0.702822 -0.647509 -0.294574
vn -0.702822 -0.647509 -0.294573
vn -0.702822 -0.647510 -0.294573
vn -0.917942 0.276478 -0.284505
vn -0.917941 0.276478 -0.284506
vn -0.917941 0.276478 -0.284506
vn -0.917941 0.276478 -0.284506
vn -0.917941 0.276478 -0.284506
vn -0.917941 0.276477 -0.284507
vn 0.366461 0.047383 -0.929226
vn 0.366817 0.047879 -0.929060
vn 0.366513 0.047455 -0.929202
vn 0.366513 0.047455 -0.929202
vn 0.366817 0.047879 -0.929060
vn 0.367045 0.048199 -0.928954
vn -0.742335 -0.597397 -0.303407
vn -0.742335 -0.597398 -0.303406
vn -0.742335 -0.597397 -0.303407
vn -0.742335 -0.597397 -0.303407
vn -0.742335 -0.597398 -0.303406
vn -0.742335 -0.597398 -0.303406
vn -0.310446 -0.090069 0.946314
vn -0.313127 -0.093809 0.945067
vn -0.328784 -0.115812 0.937277
vn -0.328784 -0.115812 0.937277
vn -0.313127 -0.093809 0.945067
vn -0.340384 -0.132294 0.930933
vn 0.797890 0.514145 0.314684
vn 0.797890 0.514145 0.314684
vn 0.797890 0.514145 0.314684
vn 0.797890 0.514145 0.314684
vn 0.797890 0.514145 0.314684
vn 0.797890 0.514145 0.314684
vn 0.398762 -0.066965 -0.914606
vn 0.398762 -0.066965 -0.914606
vn 0.398762 -0.066965 -0.914606
vn -0.790407 -0.526428 -0.313259
vn -0.790407 -0.526428 -0.313259
vn -0.790407 -0.526428 -0.313259
vn -0.308859 -0.221299 0.925004
vn -0.308859 -0.221299 0.925004
vn -0.308859 -0.221299 0.925004
vn 0.899663 0.287331 0.328707
vn 0.899663 0.287331 0.328707
vn 0.899663 0.287331 0.328707
vn -0.278589 0.000000 0.960410
vn -0.278589 0.000001 0.960410
vn -0.278589 0.000000 0.960410
vn -0.278589 0.000000 0.960410
vn -0.278589 0.000001 0.960410
vn -0.278589 0.000001 0.960410
vn -0.264751 0.961254 -0.076798
vn -0.264750 0.961254 -0.076796
vn -0.264751 0.961254 -0.076798
vn -0.264751 0.961254 -0.076798
vn -0.264750 0.961254 -0.076796
vn -0.264750 0.961254 -0.076796
vn 0.278589 0.000000 -0.960410
vn 0.278589 0.000001 -0.960410
vn 0.278589 0.000000 -0.960410
vn 0.278589 0.000000 -0.960410
vn 0.278589 0.000001 -0.960410
vn 0.278589 0.000001 -0.960410
vn 0.264751 -0.961254 0.076798
vn 0.264750 -0.961254 0.076796
vn 0.264751 -0.961254 0.076798
vn 0.264751 -0.961254 0.076798
vn 0.264750 -0.961254 0.076796
vn 0.264750 -0.961254 0.076796
vn 0.923196 0.275669 0.267797
vn 0.923197 0.275667 0.267797
vn 0.923197 0.275667 0.267796
vn 0.923197 0.275667 0.267796
vn 0.923197 0.275667 0.267797
vn 0.923198 0.275664 0.267796
vn -0.923198 -0.275666 -0.267793
vn -0.923198 -0.275665 -0.267794
vn -0.923198 -0.275665 -0.267794
vn -0.923198 -0.275665 -0.267794
vn -0.923198 -0.275665 -0.267794
vn -0.923198 -0.275665 -0.267795
s off
g FLLeg
usemtl None
f 8/1/1 9/2/2 1/3/3
f 1/3/4 9/2/5 3/4/6
f 3/4/7 9/2/8 4/5/9
f 4/5/10 9/2/11 6/6/12
f 4/5/13 6/6/14 5/7/15
f 5/7/16 6/6/17 7/8/18
f 5/7/19 7/8/20 1/3/21
f 1/3/22 7/8/23 8/1/24
f 5/7/25 1/3/26 4/5/27
f 4/5/28 1/3/29 3/4/30
f 6/9/31 10/10/32 7/11/33
f 7/11/34 10/10/35 11/12/36
f 7/11/37 11/12/38 8/13/39
f 8/13/40 11/12/41 12/14/42
f 9/15/43 8/13/44 13/16/45
f 13/16/46 8/13/47 12/14/48
f 6/9/49 9/15/50 10/10/51
f 10/10/52 9/15/53 13/16/54
f 10/10/55 2/17/56 11/12/57
f 12/14/58 11/12/59 2/17/60
f 13/16/61 12/14/62 2/17/63
f 10/10/64 13/16/65 2/17/66
f 14/18/67 15/19/68 16/20/69
f 16/20/70 15/19/71 17/21/72
f 16/20/73 17/21/74 18/22/75
f 18/22/76 17/21/77 19/23/78
f 18/22/79 19/23/80 20/24/81
f 20/24/82 19/23/83 21/25/84
f 20/24/85 21/25/86 14/18/87
f 14/18/88 21/25/89 15/19/90
f 15/19/91 21/25/92 17/21/93
f 17/21/94 21/25/95 19/23/96
f 20/24/97 14/18/98 18/22/99
f 18/22/100 14/18/101 16/20/102
