# This file uses centimeters as units for non-parametric coordinates.

mtllib CrustleMLLeg.mtl
g default1
v -0.018582 -0.068357 0.064371
v 1.106831 0.255154 -0.013429
v -0.057433 0.067440 0.067057
v 1.067980 0.390951 -0.010743
v -0.066391 0.067440 -0.062536
v 1.059021 0.390951 -0.140336
v -0.027541 -0.068357 -0.065222
v 1.097873 0.255154 -0.143022
v 1.012272 0.261545 0.055422
v 1.923558 -1.017874 -0.190450
v 1.066778 0.446501 0.079566
v 1.059134 0.470974 -0.209467
v 1.004627 0.286019 -0.233611
v 1.353861 0.261352 -0.226395
v 1.201982 0.054329 -0.239910
v 1.208748 0.032666 0.015935
v 1.360628 0.239689 0.029449
v 1.725366 -0.357388 -0.246725
v 1.549117 -0.410673 -0.253694
v 1.554613 -0.428271 -0.045864
v 1.730862 -0.374986 -0.038895
vt 0.860479 0.833685
vt 0.864953 0.885191
vt 0.860325 0.855305
vt 0.864798 0.906811
vt 0.867776 0.855305
vt 0.872249 0.906811
vt 0.867931 0.833685
vt 0.872404 0.885191
vt 0.863264 0.849769
vt 0.862487 0.882729
vt 0.860994 0.886209
vt 0.859605 0.915655
vt 0.876225 0.919552
vt 0.877198 0.886178
vt 0.877613 0.890105
vt 0.877975 0.853218
vt 0.521859 0.523409
vt 0.523501 0.396537
vt 0.522951 0.480959
vt 0.524064 0.385610
vt 0.502285 0.476517
vt 0.507277 0.382002
vt 0.501193 0.518967
vt 0.506714 0.392928
vt 0.518956 0.261104
vn 0.068965 0.000000 0.997619
vn 0.068966 0.000000 0.997619
vn 0.068965 0.000000 0.997619
vn 0.068965 0.000000 0.997619
vn 0.068966 0.000000 0.997619
vn 0.068966 0.000000 0.997619
vn -0.275008 0.961254 0.019010
vn -0.275008 0.961254 0.019011
vn -0.275008 0.961254 0.019010
vn -0.275008 0.961254 0.019010
vn -0.275008 0.961254 0.019011
vn -0.275008 0.961254 0.019011
vn -0.068966 0.000000 -0.997619
vn -0.068966 0.000000 -0.997619
vn -0.068966 0.000000 -0.997619
vn -0.068966 0.000000 -0.997619
vn -0.068966 0.000000 -0.997619
vn -0.068966 0.000000 -0.997619
vn 0.275008 -0.961254 -0.019012
vn 0.275008 -0.961254 -0.019010
vn 0.275008 -0.961254 -0.019012
vn 0.275008 -0.961254 -0.019012
vn 0.275008 -0.961254 -0.019010
vn 0.275008 -0.961254 -0.019009
vn 0.958965 0.275666 -0.066290
vn 0.958964 0.275670 -0.066291
vn 0.958964 0.275670 -0.066291
vn 0.958964 0.275670 -0.066291
vn 0.958964 0.275670 -0.066291
vn 0.958963 0.275674 -0.066292
vn -0.958965 -0.275665 0.066294
vn -0.958965 -0.275666 0.066293
vn -0.958965 -0.275666 0.066293
vn -0.958965 -0.275666 0.066293
vn -0.958965 -0.275666 0.066293
vn -0.958965 -0.275666 0.066293
vn 0.066772 -0.113697 0.991269
vn 0.065985 -0.124735 0.989994
vn 0.065308 -0.134121 0.988811
vn 0.065308 -0.134121 0.988811
vn 0.065985 -0.124735 0.989994
vn 0.064310 -0.147787 0.986926
vn 0.580802 0.812290 0.053419
vn 0.580802 0.812290 0.053420
vn 0.580802 0.812290 0.053419
vn 0.580802 0.812290 0.053419
vn 0.580802 0.812290 0.053420
vn 0.580802 0.812290 0.053420
vn 0.029046 0.120968 -0.992231
vn 0.025642 0.071347 -0.997122
vn 0.027031 0.091494 -0.995439
vn 0.027031 0.091494 -0.995439
vn 0.025642 0.071347 -0.997122
vn 0.023994 0.047587 -0.998579
vn -0.761267 -0.647509 -0.034694
vn -0.761267 -0.647509 -0.034695
vn -0.761267 -0.647509 -0.034695
vn -0.761267 -0.647509 -0.034695
vn -0.761267 -0.647509 -0.034695
vn -0.761268 -0.647509 -0.034695
vn -0.959781 0.276478 0.048795
vn -0.959781 0.276478 0.048794
vn -0.959781 0.276478 0.048794
vn -0.959781 0.276478 0.048794
vn -0.959781 0.276478 0.048794
vn -0.959781 0.276478 0.048793
vn 0.024272 0.047383 -0.998582
vn 0.024663 0.047879 -0.998549
vn 0.024329 0.047455 -0.998577
vn 0.024329 0.047455 -0.998577
vn 0.024663 0.047879 -0.998549
vn 0.024915 0.048198 -0.998527
vn -0.801407 -0.597397 -0.029390
vn -0.801406 -0.597398 -0.029390
vn -0.801407 -0.597397 -0.029390
vn -0.801407 -0.597397 -0.029390
vn -0.801406 -0.597398 -0.029390
vn -0.801406 -0.597398 -0.029390
vn 0.034203 -0.090069 0.995348
vn 0.031256 -0.093809 0.995099
vn 0.013875 -0.115812 0.993174
vn 0.013875 -0.115812 0.993174
vn 0.031256 -0.093809 0.995099
vn 0.000800 -0.132294 0.991210
vn 0.857449 0.514146 0.020858
vn 0.857449 0.514146 0.020858
vn 0.857450 0.514145 0.020858
vn 0.857450 0.514145 0.020858
vn 0.857449 0.514146 0.020858
vn 0.857450 0.514145 0.020858
vn 0.059629 -0.066966 -0.995972
vn 0.059629 -0.066966 -0.995972
vn 0.059629 -0.066966 -0.995972
vn -0.849933 -0.526428 -0.022097
vn -0.849933 -0.526428 -0.022097
vn -0.849933 -0.526428 -0.022097
vn 0.028360 -0.221298 0.974794
vn 0.028360 -0.221298 0.974794
vn 0.028360 -0.221298 0.974794
vn 0.957831 0.287331 -0.001002
vn 0.957831 0.287331 -0.001002
vn 0.957831 0.287331 -0.001002
s off
g MLLeg
usemtl None
f 1/1/1 2/2/2 3/3/3
f 3/3/4 2/2/5 4/4/6
f 3/3/7 4/4/8 5/5/9
f 5/5/10 4/4/11 6/6/12
f 5/5/13 6/6/14 7/7/15
f 7/7/16 6/6/17 8/8/18
f 7/7/19 8/8/20 1/1/21
f 1/1/22 8/8/23 2/2/24
f 2/2/25 8/8/26 4/4/27
f 4/4/28 8/8/29 6/6/30
f 7/7/31 1/1/32 5/5/33
f 5/5/34 1/1/35 3/3/36
f 16/9/37 17/10/38 9/11/39
f 9/11/40 17/10/41 11/12/42
f 11/12/43 17/10/44 12/13/45
f 12/13/46 17/10/47 14/14/48
f 12/13/49 14/14/50 13/15/51
f 13/15/52 14/14/53 15/16/54
f 13/15/55 15/16/56 9/11/57
f 9/11/58 15/16/59 16/9/60
f 13/15/61 9/11/62 12/13/63
f 12/13/64 9/11/65 11/12/66
f 14/17/67 18/18/68 15/19/69
f 15/19/70 18/18/71 19/20/72
f 15/19/73 19/20/74 16/21/75
f 16/21/76 19/20/77 20/22/78
f 17/23/79 16/21/80 21/24/81
f 21/24/82 16/21/83 20/22/84
f 14/17/85 17/23/86 18/18/87
f 18/18/88 17/23/89 21/24/90
f 18/18/91 10/25/92 19/20/93
f 20/22/94 19/20/95 10/25/96
f 21/24/97 20/22/98 10/25/99
f 18/18/100 21/24/101 10/25/102
