# This file uses centimeters as units for non-parametric coordinates.

mtllib CrustleBLLeg.mtl
g default1
v 0.030977 -0.068357 0.057633
v 1.138741 0.255154 -0.155595
v -0.007265 0.067440 0.064994
v 1.100499 0.390951 -0.148234
v -0.031818 0.067440 -0.062567
v 1.075946 0.390951 -0.275794
v 0.006423 -0.068357 -0.069928
v 1.114188 0.255154 -0.283155
v 1.046326 0.261545 -0.076954
v 1.921222 -1.017874 -0.431146
v 1.103350 0.446501 -0.059573
v 1.060835 0.470974 -0.345564
v 1.003810 0.286019 -0.362945
v 1.351357 0.261352 -0.397984
v 1.198957 0.054329 -0.393047
v 1.236591 0.032666 -0.139894
v 1.388990 0.239689 -0.144832
v 1.717682 -0.357388 -0.463058
v 1.541882 -0.410673 -0.448678
v 1.572454 -0.428271 -0.243036
v 1.748253 -0.374986 -0.257416
vt 0.931993 0.833685
vt 0.944253 0.885191
vt 0.931569 0.855305
vt 0.943830 0.906811
vt 0.938904 0.855305
vt 0.951164 0.906811
vt 0.939327 0.833685
vt 0.951587 0.885191
vt 0.943350 0.849769
vt 0.943634 0.882729
vt 0.939731 0.886209
vt 0.938732 0.915655
vt 0.955176 0.919552
vt 0.958190 0.886178
vt 0.956175 0.890105
vt 0.957906 0.853218
vt 0.635640 0.523409
vt 0.640897 0.396537
vt 0.635242 0.480959
vt 0.639735 0.385610
vt 0.614793 0.476517
vt 0.623124 0.382002
vt 0.615191 0.518967
vt 0.624286 0.392928
vt 0.638319 0.261104
vn 0.189015 0.000000 0.981974
vn 0.189015 0.000000 0.981974
vn 0.189015 0.000000 0.981974
vn 0.189015 0.000000 0.981974
vn 0.189015 0.000000 0.981974
vn 0.189015 0.000000 0.981974
vn -0.270695 0.961254 0.052106
vn -0.270695 0.961254 0.052104
vn -0.270695 0.961254 0.052106
vn -0.270695 0.961254 0.052106
vn -0.270695 0.961254 0.052104
vn -0.270695 0.961254 0.052104
vn -0.189014 -0.000001 -0.981974
vn -0.189016 0.000000 -0.981974
vn -0.189014 -0.000001 -0.981974
vn -0.189014 -0.000001 -0.981974
vn -0.189016 0.000000 -0.981974
vn -0.189016 0.000000 -0.981974
vn 0.270695 -0.961254 -0.052104
vn 0.270695 -0.961254 -0.052104
vn 0.270695 -0.961254 -0.052104
vn 0.270695 -0.961254 -0.052104
vn 0.270695 -0.961254 -0.052104
vn 0.270695 -0.961254 -0.052104
vn 0.943927 0.275665 -0.181689
vn 0.943927 0.275665 -0.181689
vn 0.943927 0.275665 -0.181689
vn 0.943927 0.275665 -0.181689
vn 0.943927 0.275665 -0.181689
vn 0.943927 0.275665 -0.181690
vn -0.943927 -0.275664 0.181692
vn -0.943927 -0.275665 0.181691
vn -0.943927 -0.275665 0.181691
vn -0.943927 -0.275665 0.181691
vn -0.943927 -0.275665 0.181691
vn -0.943927 -0.275665 0.181690
vn 0.186071 -0.113698 0.975936
vn 0.185134 -0.124735 0.974765
vn 0.184319 -0.134121 0.973673
vn 0.184319 -0.134121 0.973673
vn 0.185134 -0.124735 0.974765
vn 0.183101 -0.147787 0.971922
vn 0.582999 0.812292 -0.017158
vn 0.583001 0.812291 -0.017157
vn 0.583000 0.812291 -0.017157
vn 0.583000 0.812291 -0.017157
vn 0.583001 0.812291 -0.017157
vn 0.583002 0.812290 -0.017157
vn -0.091071 0.120971 -0.988470
vn -0.095039 0.071348 -0.992913
vn -0.093458 0.091496 -0.991410
vn -0.093458 0.091496 -0.991410
vn -0.095039 0.071348 -0.992913
vn -0.096851 0.047587 -0.994161
vn -0.759882 -0.647508 0.057554
vn -0.759882 -0.647509 0.057554
vn -0.759882 -0.647509 0.057554
vn -0.759882 -0.647509 0.057554
vn -0.759882 -0.647509 0.057554
vn -0.759881 -0.647510 0.057554
vn -0.946850 0.276480 0.164420
vn -0.946851 0.276476 0.164418
vn -0.946851 0.276477 0.164419
vn -0.946851 0.276477 0.164419
vn -0.946851 0.276476 0.164418
vn -0.946853 0.276473 0.164417
vn -0.096575 0.047384 -0.994197
vn -0.096187 0.047878 -0.994211
vn -0.096519 0.047455 -0.994199
vn -0.096519 0.047455 -0.994199
vn -0.096187 0.047878 -0.994211
vn -0.095937 0.048197 -0.994220
vn -0.799085 -0.597398 0.067670
vn -0.799085 -0.597398 0.067670
vn -0.799085 -0.597398 0.067670
vn -0.799085 -0.597398 0.067670
vn -0.799085 -0.597398 0.067670
vn -0.799085 -0.597398 0.067670
vn 0.154233 -0.090069 0.983921
vn 0.151278 -0.093809 0.984030
vn 0.133791 -0.115812 0.984219
vn 0.133791 -0.115812 0.984219
vn 0.151278 -0.093809 0.984030
vn 0.120574 -0.132294 0.983850
vn 0.853686 0.514145 -0.082912
vn 0.853686 0.514145 -0.082912
vn 0.853687 0.514145 -0.082911
vn 0.853687 0.514145 -0.082911
vn 0.853686 0.514145 -0.082912
vn 0.853687 0.514145 -0.082911
vn -0.061163 -0.066966 -0.995879
vn -0.061163 -0.066966 -0.995879
vn -0.061163 -0.066966 -0.995879
vn -0.846375 -0.526427 0.080774
vn -0.846375 -0.526427 0.080774
vn -0.846374 -0.526428 0.080774
vn 0.145948 -0.221298 0.964223
vn 0.145948 -0.221298 0.964223
vn 0.145948 -0.221298 0.964223
vn 0.950690 0.287332 -0.116741
vn 0.950690 0.287332 -0.116741
vn 0.950690 0.287332 -0.116741
s off
g BLLeg
usemtl None
f 1/1/1 2/2/2 3/3/3
f 3/3/4 2/2/5 4/4/6
f 3/3/7 4/4/8 5/5/9
f 5/5/10 4/4/11 6/6/12
f 5/5/13 6/6/14 7/7/15
f 7/7/16 6/6/17 8/8/18
f 7/7/19 8/8/20 1/1/21
f 1/1/22 8/8/23 2/2/24
f 2/2/25 8/8/26 4/4/27
f 4/4/28 8/8/29 6/6/30
f 7/7/31 1/1/32 5/5/33
f 5/5/34 1/1/35 3/3/36
f 16/9/37 17/10/38 9/11/39
f 9/11/40 17/10/41 11/12/42
f 11/12/43 17/10/44 12/13/45
f 12/13/46 17/10/47 14/14/48
f 12/13/49 14/14/50 13/15/51
f 13/15/52 14/14/53 15/16/54
f 13/15/55 15/16/56 9/11/57
f 9/11/58 15/16/59 16/9/60
f 13/15/61 9/11/62 12/13/63
f 12/13/64 9/11/65 11/12/66
f 14/17/67 18/18/68 15/19/69
f 15/19/70 18/18/71 19/20/72
f 15/19/73 19/20/74 16/21/75
f 16/21/76 19/20/77 20/22/78
f 17/23/79 16/21/80 21/24/81
f 21/24/82 16/21/83 20/22/84
f 14/17/85 17/23/86 18/18/87
f 18/18/88 17/23/89 21/24/90
f 18/18/91 10/25/92 19/20/93
f 20/22/94 19/20/95 10/25/96
f 21/24/97 20/22/98 10/25/99
f 18/18/100 21/24/101 10/25/102
