# This file uses centimeters as units for non-parametric coordinates.

mtllib EmolgaRLeg.mtl
g default
v -0.043737 -0.071453 0.247470
v -0.031704 -0.040694 0.215018
v -0.040836 -0.071453 0.234736
v 0.052387 0.008922 -0.037856
v 0.050672 -0.006349 -0.072851
v 0.062972 -0.013336 -0.043403
v 0.067968 -0.018013 -0.009628
v 0.006453 0.006414 -0.098278
v 0.015648 -0.070966 -0.127988
v 0.066910 -0.070740 -0.094576
v 0.080946 -0.070490 -0.056024
v -0.082102 -0.037842 -0.094517
v -0.082348 -0.071493 -0.104516
v -0.044317 -0.071242 -0.127607
v -0.043312 -0.006349 -0.100761
v 0.001181 -0.044376 0.216761
v -0.007425 -0.071304 0.234850
v 0.040166 -0.057547 0.161656
v 0.039234 -0.071389 0.164547
v -0.138769 -0.071389 0.110446
v -0.137837 -0.057547 0.107556
v -0.118771 -0.044376 0.181139
v -0.127378 -0.071303 0.199228
v 0.016158 -0.012722 0.122147
v 0.058212 -0.026684 0.037711
v -0.110717 -0.026683 -0.012455
v -0.099361 -0.016047 0.105357
v -0.058839 0.002157 -0.070886
v -0.002648 0.026222 -0.059556
v -0.042161 -0.004551 0.124121
v -0.088728 -0.026048 -0.070936
v 0.077353 -0.070014 -0.008491
v -0.106219 -0.071519 -0.063651
v -0.091681 -0.040694 0.197207
v -0.100812 -0.071452 0.216925
v -0.103713 -0.071452 0.229659
v -0.064590 -0.037976 0.213275
v -0.077148 -0.071601 0.247356
vt 0.075354 0.670436
vt 0.351665 0.946747
vt 0.351665 0.670436
vt 0.075354 0.670436
vt 0.075354 0.946747
vt 0.351665 0.946747
vt 0.351665 0.670436
vt 0.075354 0.670436
vt 0.075354 0.946747
vt 0.351665 0.946747
vt 0.351665 0.670436
vt 0.075354 0.670436
vt 0.075354 0.946747
vt 0.351665 0.946747
vt 0.351665 0.670436
vt 0.075354 0.670436
vt 0.075354 0.946747
vt 0.351665 0.946747
vt 0.351665 0.670436
vt 0.075354 0.670436
vt 0.075354 0.946747
vt 0.351665 0.946747
vt 0.351665 0.670436
vt 0.075354 0.670436
vt 0.075354 0.946747
vt 0.351665 0.946747
vt 0.075354 0.670436
vt 0.075354 0.946747
vt 0.351665 0.946747
vt 0.351665 0.670436
vt 0.075354 0.670436
vt 0.075354 0.946747
vt 0.351665 0.946747
vt 0.351665 0.670436
vt 0.075354 0.670436
vt 0.075354 0.946747
vt 0.351665 0.946747
vt 0.351665 0.670436
vt 0.075354 0.670436
vt 0.075354 0.946747
vt 0.351665 0.946747
vt 0.351665 0.670436
vt 0.075354 0.670436
vt 0.075354 0.946747
vt 0.351665 0.946747
vt 0.351665 0.670436
vt 0.075354 0.670436
vt 0.075354 0.946747
vt 0.351665 0.946747
vt 0.351665 0.670436
vt 0.075354 0.670436
vt 0.351665 0.946747
vt 0.351665 0.670436
vt 0.075354 0.670436
vt 0.075354 0.946747
vt 0.351665 0.946747
vt 0.351665 0.670436
vt 0.075354 0.670436
vt 0.075354 0.946747
vt 0.351665 0.946747
vt 0.351665 0.670436
vt 0.075354 0.670436
vt 0.351665 0.946747
vt 0.351665 0.670436
vt 0.075354 0.670436
vt 0.351665 0.946747
vt 0.351665 0.670436
vt 0.075354 0.670436
vt 0.351665 0.946747
vt 0.351665 0.670436
vt 0.075354 0.670436
vt 0.351665 0.946747
vt 0.351665 0.670436
vt 0.075354 0.670436
vt 0.351665 0.946747
vt 0.351665 0.670436
vt 0.075354 0.670436
vt 0.351665 0.946747
vt 0.351665 0.670436
vt 0.075354 0.670436
vt 0.351665 0.946747
vt 0.351665 0.670436
vt 0.075354 0.670436
vt 0.351665 0.946747
vt 0.351665 0.670436
vt 0.075354 0.670436
vt 0.075354 0.946747
vt 0.351665 0.946747
vt 0.351665 0.670436
vt 0.075354 0.670436
vt 0.351665 0.946747
vt 0.351665 0.670436
vt 0.075354 0.670436
vt 0.075354 0.946747
vt 0.351665 0.946747
vt 0.351665 0.670436
vt 0.075354 0.670436
vt 0.075354 0.946747
vt 0.351665 0.946747
vt 0.351665 0.670436
vt 0.075354 0.670436
vt 0.075354 0.946747
vt 0.351665 0.946747
vt 0.351665 0.670436
vt 0.075354 0.670436
vt 0.351665 0.946747
vt 0.351665 0.670436
vt 0.075354 0.670436
vt 0.075354 0.946747
vt 0.351665 0.946747
vt 0.351665 0.670436
vt 0.075354 0.946747
vt 0.351665 0.946747
vt 0.351665 0.670436
vt 0.082116 0.851283
vt 0.132304 0.696821
vt 0.294715 0.696821
vt 0.344903 0.851283
vt 0.213510 0.946747
vt 0.311200 0.710900
vt 0.341148 0.755721
vt 0.351665 0.808591
vt 0.341148 0.861461
vt 0.311200 0.906282
vt 0.266380 0.936230
vt 0.213510 0.946747
vt 0.160640 0.936230
vt 0.115819 0.906282
vt 0.085870 0.861461
vt 0.075354 0.808591
vt 0.085870 0.755721
vt 0.115819 0.710900
vt 0.160640 0.680952
vt 0.213510 0.670436
vt 0.266380 0.680952
vt 0.132304 0.696821
vt 0.344903 0.851283
vt 0.213510 0.946747
vt 0.082116 0.851283
vn 0.964642 -0.145505 0.219761
vn 0.964642 -0.145505 0.219761
vn 0.964642 -0.145505 0.219761
vn 0.893839 0.442746 -0.070907
vn 0.877275 0.455166 -0.152359
vn 0.875946 0.455882 -0.157765
vn 0.850525 0.465484 -0.244809
vn 0.540938 0.356720 -0.761667
vn 0.525923 0.368878 -0.766377
vn 0.518401 0.374853 -0.768600
vn 0.502185 0.387476 -0.773093
vn 0.892420 0.344894 -0.290919
vn 0.887001 0.335388 -0.317403
vn 0.889383 0.339445 -0.306227
vn 0.885411 0.332771 -0.324518
vn -0.420649 0.352364 -0.835999
vn -0.445681 0.322961 -0.834904
vn -0.441144 0.328385 -0.835198
vn -0.503789 0.249427 -0.827032
vn -0.044046 0.353523 -0.934388
vn -0.022383 0.370787 -0.928448
vn -0.029976 0.364771 -0.930615
vn -0.007631 0.382365 -0.923980
vn -0.005283 0.540783 0.841146
vn 0.004825 0.546432 0.837490
vn 0.005894 0.547024 0.837096
vn 0.017854 0.553594 0.832595
vn 0.828689 0.104530 0.549862
vn 0.824763 0.079727 0.559831
vn 0.828409 0.102626 0.550643
vn 0.821772 0.062949 0.566329
vn -0.920243 0.373226 0.117709
vn -0.923779 0.362729 0.122720
vn -0.957842 0.217312 0.187921
vn -0.966547 0.113138 0.230189
vn 0.682663 0.653617 0.326736
vn 0.703298 0.643318 0.302513
vn 0.723481 0.632104 0.277525
vn 0.734961 0.625166 0.262678
vn -0.729872 0.680257 0.067354
vn -0.732294 0.680415 0.027943
vn -0.732050 0.680453 0.032945
vn -0.733043 0.680119 0.009258
vn -0.213075 0.975663 0.051785
vn -0.256819 0.964884 0.055155
vn -0.369977 0.926866 0.063525
vn -0.404035 0.912364 0.065939
vn -0.599231 0.635870 -0.486406
vn -0.596355 0.636101 -0.489628
vn -0.597219 0.636033 -0.488663
vn -0.595470 0.636170 -0.490615
vn 0.977386 0.173761 -0.120513
vn 0.977386 0.173761 -0.120513
vn 0.977386 0.173761 -0.120513
vn -0.291785 0.869225 -0.399135
vn -0.230671 0.861127 -0.453047
vn -0.253661 0.864826 -0.433281
vn -0.194910 0.853875 -0.482606
vn 0.410733 0.828106 -0.381495
vn 0.418953 0.833180 -0.360958
vn 0.423500 0.835856 -0.349275
vn 0.431385 0.840259 -0.328439
vn -0.880127 0.276754 -0.385724
vn -0.880127 0.276754 -0.385724
vn -0.880127 0.276754 -0.385724
vn -0.853177 0.154294 -0.498279
vn -0.853177 0.154294 -0.498279
vn -0.853177 0.154294 -0.498279
vn 0.955923 0.285297 0.069401
vn 0.955923 0.285297 0.069401
vn 0.955923 0.285297 0.069401
vn -0.982584 0.027795 -0.183729
vn -0.982584 0.027795 -0.183729
vn -0.982584 0.027795 -0.183729
vn 0.976407 -0.020851 0.214930
vn 0.976407 -0.020851 0.214930
vn 0.976407 -0.020851 0.214930
vn -0.974628 0.118819 -0.189688
vn -0.974628 0.118819 -0.189688
vn -0.974628 0.118819 -0.189688
vn 0.956929 0.216642 0.193271
vn 0.956929 0.216642 0.193271
vn 0.956929 0.216642 0.193271
vn 0.956885 0.177719 0.229755
vn 0.956885 0.177719 0.229755
vn 0.956885 0.177719 0.229755
vn 0.229160 0.956364 0.181258
vn 0.208146 0.960571 0.184334
vn 0.157383 0.968821 0.191356
vn 0.142550 0.970729 0.193300
vn -0.896454 0.291337 -0.333906
vn -0.896454 0.291337 -0.333906
vn -0.896454 0.291337 -0.333906
vn 0.687488 0.675925 0.265491
vn 0.711752 0.654993 0.253758
vn 0.717122 0.650156 0.251065
vn 0.718339 0.649049 0.250450
vn -0.509984 0.859713 -0.028457
vn -0.565144 0.819220 -0.097418
vn -0.521706 0.852059 -0.042643
vn -0.665603 0.705773 -0.242605
vn -0.452287 0.572615 0.683775
vn -0.460743 0.581596 0.670420
vn -0.459513 0.580291 0.672392
vn -0.469477 0.590838 0.656127
vn -0.964645 0.145487 -0.219759
vn -0.964645 0.145487 -0.219759
vn -0.964645 0.145487 -0.219759
vn -0.399037 0.734797 0.548492
vn -0.386031 0.728271 0.566216
vn -0.391305 0.730951 0.559098
vn -0.379193 0.724730 0.575308
vn 0.022931 0.721335 0.692207
vn 0.011559 0.718035 0.695911
vn 0.004529 0.715941 0.698146
vn -0.005553 0.712863 0.701281
vn -0.259438 0.923937 0.281128
vn -0.272378 0.922978 0.271886
vn -0.270827 0.922515 0.274987
vn -0.275456 0.922453 0.270563
vn -0.285454 0.919403 0.270580
vn 0.004426 -0.999990 0.001008
vn 0.001706 -0.999982 -0.005764
vn 0.000891 -1.000000 -0.000426
vn -0.004870 -0.999988 -0.001109
vn -0.001436 -0.999976 -0.006827
vn 0.004445 -0.999981 0.004159
vn -0.002540 -0.999964 -0.008076
vn 0.004738 -0.999989 0.000157
vn 0.003478 -0.999990 -0.002777
vn 0.006914 -0.999976 0.001003
vn 0.007470 -0.999969 0.002423
vn 0.007431 -0.999968 0.003044
vn 0.006961 -0.999971 0.003199
vn 0.004087 -0.999975 0.005821
vn -0.003202 -0.999950 0.009519
vn 0.000239 -0.999980 0.006398
vn 0.141861 0.931769 0.334188
vn 0.125341 0.931770 0.340726
vn 0.112922 0.930909 0.347358
vn 0.072963 0.929612 0.361244
vn 0.057613 0.929950 0.363144
s off
g polySurface6
usemtl None
f 1/1/1 3/2/2 2/3/3
s 1
f 7/5/4 6/6/5 4/4/6
f 4/4/6 6/6/5 5/7/7
s 2
f 8/8/8 5/9/9 9/11/10
f 9/11/10 5/9/9 10/10/11
s 3
f 6/13/12 11/14/13 5/12/14
f 5/12/14 11/14/13 10/15/15
s 4
f 15/17/16 14/18/17 12/16/18
f 12/16/18 14/18/17 13/19/19
s 5
f 8/21/20 9/22/21 15/20/22
f 15/20/22 9/22/21 14/23/23
s 6
f 3/24/24 17/25/25 2/3/26
f 2/3/26 17/25/25 16/26/27
s 7
f 17/27/28 19/28/29 16/30/30
f 16/30/30 19/28/29 18/29/31
s 8
f 23/32/32 22/33/33 20/31/34
f 20/31/34 22/33/33 21/34/35
s 9
f 16/35/36 18/36/37 24/38/38
f 24/38/38 18/36/37 25/37/39
s 10
f 22/40/40 27/41/41 21/39/42
f 21/39/42 27/41/41 26/42/43
s 11
f 27/43/44 30/44/45 28/46/46
f 28/46/46 30/44/45 29/45/47
s 12
f 31/47/48 28/48/49 12/50/50
f 12/50/50 28/48/49 15/49/51
s off
f 7/51/52 32/52/53 6/53/54
s 13
f 28/54/55 29/55/56 15/57/57
f 15/57/57 29/55/56 8/56/58
s 14
f 4/59/59 5/60/60 29/58/61
f 29/58/61 5/60/60 8/61/62
s off
f 33/62/63 31/63/64 12/64/65
f 33/65/66 12/66/67 13/67/68
f 6/68/69 32/69/70 11/70/71
f 33/71/72 20/72/73 21/73/74
f 19/74/75 32/75/76 18/76/77
f 33/77/78 21/78/79 26/79/80
f 18/80/81 32/81/82 25/82/83
f 25/83/84 32/84/85 7/85/86
s 15
f 4/86/87 29/87/88 24/89/89
f 24/89/89 29/87/88 30/88/90
s off
f 33/90/91 26/91/92 31/92/93
s 16
f 7/93/94 4/94/95 25/96/96
f 25/96/96 4/94/95 24/95/97
s 17
f 27/98/98 28/99/99 26/97/100
f 26/97/100 28/99/99 31/100/101
s 18
f 35/102/102 34/103/103 23/101/104
f 23/101/104 34/103/103 22/104/105
s off
f 35/105/106 36/106/107 34/107/108
s 19
f 34/108/109 36/109/110 37/111/111
f 37/111/111 36/109/110 38/110/112
s 20
f 2/112/113 37/113/114 1/1/115
f 1/1/115 37/113/114 38/114/116
s 21
f 37/116/117 30/117/118 34/115/119
f 30/117/118 27/118/120 34/115/119
f 34/115/119 27/118/120 22/119/121
s 22
f 1/134/122 38/135/123 3/133/124
f 36/120/125 35/121/126 38/135/123
f 38/135/123 35/121/126 3/133/124
f 17/132/127 3/133/124 19/131/128
f 3/133/124 35/121/126 19/131/128
f 19/131/128 35/121/126 32/130/129
f 35/121/126 23/122/130 32/130/129
f 23/122/130 20/123/131 32/130/129
f 20/123/131 33/124/132 32/130/129
f 33/124/132 13/125/133 32/130/129
f 13/125/133 14/126/134 32/130/129
f 14/126/134 9/127/135 32/130/129
f 32/130/129 9/127/135 11/129/136
f 9/127/135 10/128/137 11/129/136
s 23
f 24/136/138 30/117/139 16/139/140
f 16/139/140 30/117/139 2/138/141
f 30/117/139 37/137/142 2/138/141
