# This file uses centimeters as units for non-parametric coordinates.

mtllib EmolgaLLeg.mtl
g default
v 0.032125 -0.071453 0.247470
v 0.020093 -0.040694 0.215018
v 0.029224 -0.071453 0.234736
v -0.063999 0.008922 -0.037856
v -0.062284 -0.006349 -0.072851
v -0.074583 -0.013336 -0.043403
v -0.079579 -0.018013 -0.009628
v -0.018065 0.006414 -0.098278
v -0.027260 -0.070966 -0.127988
v -0.078522 -0.070740 -0.094576
v -0.092558 -0.070490 -0.056024
v 0.070490 -0.037842 -0.094517
v 0.070737 -0.071493 -0.104516
v 0.032705 -0.071242 -0.127607
v 0.031700 -0.006349 -0.100761
v -0.012793 -0.044376 0.216761
v -0.004187 -0.071304 0.234850
v -0.051777 -0.057547 0.161656
v -0.050845 -0.071389 0.164547
v 0.127158 -0.071389 0.110446
v 0.126226 -0.057547 0.107556
v 0.107160 -0.044376 0.181139
v 0.115767 -0.071303 0.199228
v -0.027769 -0.012722 0.122147
v -0.069823 -0.026684 0.037711
v 0.099105 -0.026683 -0.012455
v 0.087749 -0.016047 0.105357
v 0.047228 0.002157 -0.070886
v -0.008963 0.026222 -0.059556
v 0.030549 -0.004551 0.124121
v 0.077117 -0.026048 -0.070936
v -0.088965 -0.070014 -0.008491
v 0.094608 -0.071519 -0.063651
v 0.080070 -0.040694 0.197207
v 0.089201 -0.071452 0.216925
v 0.092102 -0.071452 0.229659
v 0.052979 -0.037976 0.213275
v 0.065536 -0.071601 0.247356
vt 0.075354 0.670436
vt 0.351665 0.670436
vt 0.351665 0.946747
vt 0.075354 0.670436
vt 0.351665 0.670436
vt 0.351665 0.946747
vt 0.075354 0.946747
vt 0.075354 0.670436
vt 0.351665 0.670436
vt 0.351665 0.946747
vt 0.075354 0.946747
vt 0.075354 0.670436
vt 0.351665 0.670436
vt 0.351665 0.946747
vt 0.075354 0.946747
vt 0.075354 0.670436
vt 0.351665 0.670436
vt 0.351665 0.946747
vt 0.075354 0.946747
vt 0.075354 0.670436
vt 0.351665 0.670436
vt 0.351665 0.946747
vt 0.075354 0.946747
vt 0.075354 0.670436
vt 0.351665 0.946747
vt 0.075354 0.946747
vt 0.075354 0.670436
vt 0.351665 0.670436
vt 0.351665 0.946747
vt 0.075354 0.946747
vt 0.075354 0.670436
vt 0.351665 0.670436
vt 0.351665 0.946747
vt 0.075354 0.946747
vt 0.075354 0.670436
vt 0.351665 0.670436
vt 0.351665 0.946747
vt 0.075354 0.946747
vt 0.075354 0.670436
vt 0.351665 0.670436
vt 0.351665 0.946747
vt 0.075354 0.946747
vt 0.075354 0.670436
vt 0.351665 0.670436
vt 0.351665 0.946747
vt 0.075354 0.946747
vt 0.075354 0.670436
vt 0.351665 0.670436
vt 0.351665 0.946747
vt 0.075354 0.946747
vt 0.075354 0.670436
vt 0.351665 0.670436
vt 0.351665 0.946747
vt 0.075354 0.670436
vt 0.351665 0.670436
vt 0.351665 0.946747
vt 0.075354 0.946747
vt 0.075354 0.670436
vt 0.351665 0.670436
vt 0.351665 0.946747
vt 0.075354 0.946747
vt 0.075354 0.670436
vt 0.351665 0.670436
vt 0.351665 0.946747
vt 0.075354 0.670436
vt 0.351665 0.670436
vt 0.351665 0.946747
vt 0.075354 0.670436
vt 0.351665 0.670436
vt 0.351665 0.946747
vt 0.075354 0.670436
vt 0.351665 0.670436
vt 0.351665 0.946747
vt 0.075354 0.670436
vt 0.351665 0.670436
vt 0.351665 0.946747
vt 0.075354 0.670436
vt 0.351665 0.670436
vt 0.351665 0.946747
vt 0.075354 0.670436
vt 0.351665 0.670436
vt 0.351665 0.946747
vt 0.075354 0.670436
vt 0.351665 0.670436
vt 0.351665 0.946747
vt 0.075354 0.670436
vt 0.351665 0.670436
vt 0.351665 0.946747
vt 0.075354 0.946747
vt 0.075354 0.670436
vt 0.351665 0.670436
vt 0.351665 0.946747
vt 0.075354 0.670436
vt 0.351665 0.670436
vt 0.351665 0.946747
vt 0.075354 0.946747
vt 0.075354 0.670436
vt 0.351665 0.670436
vt 0.351665 0.946747
vt 0.075354 0.946747
vt 0.075354 0.670436
vt 0.351665 0.670436
vt 0.351665 0.946747
vt 0.075354 0.946747
vt 0.075354 0.670436
vt 0.351665 0.670436
vt 0.351665 0.946747
vt 0.075354 0.670436
vt 0.351665 0.670436
vt 0.351665 0.946747
vt 0.075354 0.946747
vt 0.351665 0.670436
vt 0.351665 0.946747
vt 0.075354 0.946747
vt 0.082116 0.851283
vt 0.213510 0.946747
vt 0.344903 0.851283
vt 0.294715 0.696821
vt 0.132304 0.696821
vt 0.311200 0.710900
vt 0.266380 0.680952
vt 0.213510 0.670436
vt 0.160640 0.680952
vt 0.115819 0.710900
vt 0.085870 0.755721
vt 0.075354 0.808591
vt 0.085870 0.861461
vt 0.115819 0.906282
vt 0.160640 0.936230
vt 0.213510 0.946747
vt 0.266380 0.936230
vt 0.311200 0.906282
vt 0.341148 0.861461
vt 0.351665 0.808591
vt 0.341148 0.755721
vt 0.132304 0.696821
vt 0.082116 0.851283
vt 0.213510 0.946747
vt 0.344903 0.851283
vn -0.964645 -0.145485 0.219762
vn -0.964645 -0.145485 0.219762
vn -0.964645 -0.145485 0.219762
vn -0.850546 0.465453 -0.244796
vn -0.877292 0.455134 -0.152357
vn -0.875964 0.455849 -0.157761
vn -0.893855 0.442714 -0.070914
vn -0.540938 0.356720 -0.761667
vn -0.518401 0.374853 -0.768600
vn -0.525923 0.368878 -0.766377
vn -0.502185 0.387476 -0.773093
vn -0.885411 0.332771 -0.324518
vn -0.887002 0.335390 -0.317397
vn -0.889387 0.339451 -0.306210
vn -0.892426 0.344905 -0.290889
vn 0.503777 0.249442 -0.827035
vn 0.445678 0.322964 -0.834904
vn 0.441142 0.328387 -0.835198
vn 0.420649 0.352364 -0.835999
vn 0.007631 0.382365 -0.923980
vn 0.022383 0.370787 -0.928448
vn 0.029976 0.364771 -0.930614
vn 0.044046 0.353524 -0.934388
vn 0.005283 0.540783 0.841145
vn -0.005894 0.547025 0.837096
vn -0.004826 0.546432 0.837489
vn -0.017853 0.553594 0.832596
vn -0.828695 0.104522 0.549854
vn -0.828415 0.102618 0.550635
vn -0.824769 0.079723 0.559822
vn -0.821778 0.062948 0.566320
vn 0.966547 0.113141 0.230189
vn 0.923781 0.362724 0.122720
vn 0.957842 0.217311 0.187921
vn 0.920245 0.373221 0.117709
vn -0.682669 0.653614 0.326729
vn -0.723483 0.632103 0.277523
vn -0.703301 0.643316 0.302508
vn -0.734961 0.625166 0.262678
vn 0.733036 0.680127 0.009256
vn 0.732286 0.680423 0.027940
vn 0.732042 0.680462 0.032942
vn 0.729864 0.680267 0.067350
vn 0.213075 0.975662 0.051786
vn 0.369978 0.926866 0.063527
vn 0.256819 0.964884 0.055157
vn 0.404036 0.912363 0.065941
vn 0.599223 0.635862 -0.486426
vn 0.597213 0.636025 -0.488680
vn 0.596351 0.636093 -0.489644
vn 0.595466 0.636161 -0.490631
vn -0.977383 0.173779 -0.120510
vn -0.977383 0.173779 -0.120510
vn -0.977383 0.173779 -0.120510
vn 0.291782 0.869223 -0.399143
vn 0.253659 0.864823 -0.433287
vn 0.230669 0.861125 -0.453051
vn 0.194909 0.853873 -0.482609
vn -0.431382 0.840263 -0.328431
vn -0.418948 0.833183 -0.360956
vn -0.423496 0.835860 -0.349271
vn -0.410727 0.828109 -0.381496
vn 0.880117 0.276745 -0.385754
vn 0.880117 0.276745 -0.385754
vn 0.880117 0.276745 -0.385754
vn 0.853174 0.154318 -0.498277
vn 0.853174 0.154318 -0.498277
vn 0.853174 0.154318 -0.498277
vn -0.955919 0.285312 0.069400
vn -0.955919 0.285312 0.069400
vn -0.955919 0.285312 0.069400
vn 0.982584 0.027801 -0.183729
vn 0.982584 0.027801 -0.183729
vn 0.982584 0.027801 -0.183729
vn -0.976406 -0.020850 0.214935
vn -0.976406 -0.020850 0.214935
vn -0.976406 -0.020850 0.214935
vn 0.974625 0.118844 -0.189690
vn 0.974625 0.118844 -0.189690
vn 0.974625 0.118844 -0.189690
vn -0.956925 0.216658 0.193274
vn -0.956925 0.216658 0.193274
vn -0.956924 0.216658 0.193274
vn -0.956881 0.177737 0.229758
vn -0.956881 0.177737 0.229758
vn -0.956881 0.177737 0.229758
vn -0.229156 0.956365 0.181258
vn -0.157385 0.968820 0.191356
vn -0.208145 0.960571 0.184334
vn -0.142553 0.970729 0.193300
vn 0.896458 0.291340 -0.333892
vn 0.896458 0.291340 -0.333892
vn 0.896458 0.291340 -0.333892
vn -0.687504 0.675909 0.265491
vn -0.717128 0.650147 0.251070
vn -0.711760 0.654983 0.253762
vn -0.718345 0.649040 0.250455
vn 0.665605 0.705774 -0.242594
vn 0.565149 0.819217 -0.097414
vn 0.521712 0.852055 -0.042641
vn 0.509990 0.859710 -0.028456
vn 0.469477 0.590837 0.656127
vn 0.460743 0.581595 0.670420
vn 0.459512 0.580290 0.672392
vn 0.452287 0.572615 0.683775
vn 0.964644 0.145494 -0.219759
vn 0.964644 0.145494 -0.219759
vn 0.964644 0.145494 -0.219759
vn 0.399038 0.734796 0.548492
vn 0.391302 0.730949 0.559103
vn 0.386027 0.728268 0.566224
vn 0.379186 0.724725 0.575319
vn 0.005553 0.712864 0.701281
vn -0.011559 0.718036 0.695910
vn -0.004529 0.715941 0.698146
vn -0.022931 0.721335 0.692206
vn 0.259436 0.923938 0.281126
vn 0.270826 0.922517 0.274985
vn 0.272377 0.922979 0.271883
vn 0.275456 0.922454 0.270560
vn 0.285452 0.919405 0.270578
vn -0.004426 -0.999990 0.001008
vn -0.000891 -1.000000 -0.000426
vn -0.001706 -0.999982 -0.005764
vn 0.004870 -0.999988 -0.001109
vn 0.001436 -0.999976 -0.006827
vn -0.004445 -0.999982 0.004159
vn 0.002540 -0.999964 -0.008076
vn -0.004658 -0.999989 0.001156
vn -0.003478 -0.999990 -0.002777
vn -0.006914 -0.999976 0.001003
vn -0.007470 -0.999969 0.002423
vn -0.006547 -0.999973 0.003266
vn -0.003359 -0.999956 0.008705
vn -0.006018 -0.999982 -0.000027
vn -0.004455 -0.999987 0.002572
vn -0.000239 -0.999980 0.006398
vn -0.141863 0.931769 0.334187
vn -0.112921 0.930909 0.347358
vn -0.125342 0.931770 0.340725
vn -0.072962 0.929612 0.361245
vn -0.057613 0.929950 0.363145
s off
g polySurface5
usemtl None
f 1/1/1 2/2/2 3/3/3
s 1
f 5/5/4 6/6/5 4/4/6
f 4/4/6 6/6/5 7/7/7
s 2
f 8/8/8 9/9/9 5/11/10
f 5/11/10 9/9/9 10/10/11
s 3
f 10/13/12 11/14/13 5/12/14
f 5/12/14 11/14/13 6/15/15
s 4
f 13/17/16 14/18/17 12/16/18
f 12/16/18 14/18/17 15/19/19
s 5
f 14/21/20 9/22/21 15/20/22
f 15/20/22 9/22/21 8/23/23
s 6
f 3/24/24 2/2/25 17/26/26
f 17/26/26 2/2/25 16/25/27
s 7
f 17/27/28 16/28/29 19/30/30
f 19/30/30 16/28/29 18/29/31
s 8
f 21/32/32 22/33/33 20/31/34
f 20/31/34 22/33/33 23/34/35
s 9
f 16/35/36 24/36/37 18/38/38
f 18/38/38 24/36/37 25/37/39
s 10
f 26/40/40 27/41/41 21/39/42
f 21/39/42 27/41/41 22/42/43
s 11
f 27/43/44 28/44/45 30/46/46
f 30/46/46 28/44/45 29/45/47
s 12
f 31/47/48 12/48/49 28/50/50
f 28/50/50 12/48/49 15/49/51
s off
f 7/51/52 6/52/53 32/53/54
s 13
f 28/54/55 15/55/56 29/57/57
f 29/57/57 15/55/56 8/56/58
s 14
f 8/59/59 5/60/60 29/58/61
f 29/58/61 5/60/60 4/61/62
s off
f 33/62/63 12/63/64 31/64/65
f 33/65/66 13/66/67 12/67/68
f 6/68/69 11/69/70 32/70/71
f 33/71/72 21/72/73 20/73/74
f 19/74/75 18/75/76 32/76/77
f 33/77/78 26/78/79 21/79/80
f 18/80/81 25/81/82 32/82/83
f 25/83/84 7/84/85 32/85/86
s 15
f 4/86/87 24/87/88 29/89/89
f 29/89/89 24/87/88 30/88/90
s off
f 33/90/91 31/91/92 26/92/93
s 16
f 7/93/94 25/94/95 4/96/96
f 4/96/96 25/94/95 24/95/97
s 17
f 31/98/98 28/99/99 26/97/100
f 26/97/100 28/99/99 27/100/101
s 18
f 22/102/102 34/103/103 23/101/104
f 23/101/104 34/103/103 35/104/105
s off
f 35/105/106 34/106/107 36/107/108
s 19
f 34/108/109 37/109/110 36/111/111
f 36/111/111 37/109/110 38/110/112
s 20
f 38/112/113 37/113/114 1/1/115
f 1/1/115 37/113/114 2/114/116
s 21
f 37/119/117 34/115/118 30/118/119
f 30/118/119 34/115/118 27/117/120
f 34/115/118 22/116/121 27/117/120
s 22
f 1/122/122 3/123/123 38/121/124
f 36/120/125 38/121/124 35/135/126
f 38/121/124 3/123/123 35/135/126
f 17/124/127 19/125/128 3/123/123
f 3/123/123 19/125/128 35/135/126
f 19/125/128 32/126/129 35/135/126
f 35/135/126 32/126/129 23/134/130
f 23/134/130 32/126/129 20/133/131
f 20/133/131 32/126/129 33/132/132
f 33/132/132 32/126/129 13/131/133
f 32/126/129 11/127/134 13/131/133
f 13/131/133 11/127/134 14/130/135
f 14/130/135 11/127/134 9/129/136
f 11/127/134 10/128/137 9/129/136
s 23
f 24/136/138 16/137/139 30/118/140
f 16/137/139 2/138/141 30/118/140
f 2/138/141 37/139/142 30/118/140
